<svg id="Grupo_63202" data-name="Grupo 63202" xmlns="http://www.w3.org/2000/svg" width="238.704" height="136.643" viewBox="0 0 238.704 136.643">
  <rect id="Rectángulo_7540" data-name="Rectángulo 7540" width="103.338" height="3.432" transform="matrix(0.008, -1, 1, 0.008, 191.073, 115.544)" fill="#3d4451"/>
  <g id="Grupo_63185" data-name="Grupo 63185" transform="translate(191.545 8.161)">
    <path id="Trazado_121930" data-name="Trazado 121930" d="M342.824,5086.395l38.95,13.027-38.74,9.794Z" transform="translate(-341.003 -5083.889)" fill="#f04f4c"/>
    <path id="Trazado_121931" data-name="Trazado 121931" d="M340.58,5110.59l-.254-27.631,47.159,15.772Zm3.389-22.62.166,18.011,30.575-7.729Z" transform="translate(-340.326 -5082.959)" fill="#3d4451"/>
  </g>
  <g id="Grupo_63186" data-name="Grupo 63186" transform="translate(0 114.687)">
    <path id="Trazado_121932" data-name="Trazado 121932" d="M80.086,5251.666h0c0-11.141,8.474-20.173,18.927-20.173H277.736c10.453,0,18.927,9.032,18.927,20.173h0" transform="translate(-78.303 -5229.71)" fill="#c7ddeb"/>
    <path id="Trazado_121933" data-name="Trazado 121933" d="M297.783,5251h-3.566c0-10.14-7.691-18.39-17.144-18.39H98.351c-9.453,0-17.144,8.25-17.144,18.39H77.641c0-12.105,9.29-21.955,20.71-21.955H277.074C288.493,5229.049,297.783,5238.9,297.783,5251Z" transform="translate(-77.641 -5229.049)" fill="#3d4451"/>
  </g>
  <g id="Grupo_63192" data-name="Grupo 63192" transform="translate(110.671 38.035)">
    <g id="Grupo_63191" data-name="Grupo 63191">
      <g id="Grupo_63190" data-name="Grupo 63190">
        <g id="Grupo_63189" data-name="Grupo 63189">
          <g id="Grupo_63188" data-name="Grupo 63188" transform="translate(34.353)">
            <g id="Grupo_63187" data-name="Grupo 63187">
              <path id="Trazado_121934" data-name="Trazado 121934" d="M288.51,5146.544a11.315,11.315,0,1,0-11.887-9.791A11.507,11.507,0,0,0,288.51,5146.544Z" transform="translate(-276.526 -5123.929)" fill="#3d4451"/>
            </g>
          </g>
          <path id="Trazado_121935" data-name="Trazado 121935" d="M265.87,5182.348l-8.495-2.74a5.189,5.189,0,0,1-3.4-6.643l7.534-21.538a5.5,5.5,0,0,1,6.887-3.324h0a13.755,13.755,0,0,1,9.016,17.613l-4.654,13.309A5.5,5.5,0,0,1,265.87,5182.348Z" transform="translate(-235.987 -5130.402)" fill="#3d4451"/>
          <path id="Trazado_121936" data-name="Trazado 121936" d="M282.31,5217.218a4.412,4.412,0,0,1-4.409-4.318l-.316-14.93-10.733-7.482a4.412,4.412,0,0,1,5.047-7.238l14.413,10.049.412,19.415a4.413,4.413,0,0,1-4.317,4.5Z" transform="translate(-239.042 -5139.779)" fill="#3d4451"/>
          <path id="Trazado_121937" data-name="Trazado 121937" d="M233.823,5219.662a4.412,4.412,0,0,1-3.631-6.912l11.434-16.621,5.047-12.32a4.412,4.412,0,0,1,8.165,3.345l-5.406,13.2-11.971,17.4A4.411,4.411,0,0,1,233.823,5219.662Z" transform="translate(-229.415 -5139.403)" fill="#3d4451"/>
          <path id="Trazado_121938" data-name="Trazado 121938" d="M269.109,5150.48a3.641,3.641,0,0,1-1.364-.267l-11.9-4.818-4.293-15.3a3.638,3.638,0,1,1,7.006-1.966l3.328,11.862,8.588,3.477a3.639,3.639,0,0,1-1.366,7.013Z" transform="translate(-235.373 -5124.347)" fill="#3d4451"/>
        </g>
        <path id="Trazado_121939" data-name="Trazado 121939" d="M281.737,5158.342h41.469v1.551a2.515,2.515,0,0,1-2.516,2.516H316.7l-.012,2.478a3.51,3.51,0,0,1-3.331,2.4h-31.62" transform="translate(-243.584 -5133.248)" fill="#3d4451"/>
      </g>
    </g>
  </g>
  <g id="Grupo_63201" data-name="Grupo 63201" transform="translate(36.696)">
    <g id="Grupo_63197" data-name="Grupo 63197" transform="translate(34.262)">
      <g id="Grupo_63196" data-name="Grupo 63196">
        <g id="Grupo_63193" data-name="Grupo 63193">
          <path id="Trazado_121940" data-name="Trazado 121940" d="M206.565,5103.707a15.166,15.166,0,0,0,2.564-3.2l4.715.62,1.713-6.121L211.3,5093.1a15.263,15.263,0,0,0-.463-4.231l3.639-2.8-3.125-5.558-4.21,1.6a15.342,15.342,0,0,0-3.441-2.757l.564-4.428-6.132-1.738-1.8,4.039a15.232,15.232,0,0,0-4.428.519l-2.714-3.515-5.547,3.1,1.606,4.18a15.111,15.111,0,0,0-2.686,3.468l-4.477-.59-1.713,6.121,4.21,1.889a15.242,15.242,0,0,0,.559,4.213l-3.688,2.839L180.58,5105l4.44-1.687a15.356,15.356,0,0,0,3.251,2.521l-.605,4.751,6.132,1.738,1.963-4.406a15.238,15.238,0,0,0,4.019-.468l2.959,3.832,5.547-3.1Zm-15.717-5.344a7.8,7.8,0,1,1,11.035-.6A7.813,7.813,0,0,1,190.848,5098.363Z" transform="translate(-175.338 -5072.151)" fill="#f04f4c"/>
          <path id="Trazado_121941" data-name="Trazado 121941" d="M193.414,5112.977a1.028,1.028,0,0,1-.283-.04L187,5111.2a1.035,1.035,0,0,1-.745-1.128l.52-4.083a16.4,16.4,0,0,1-2.388-1.855l-3.823,1.453a1.036,1.036,0,0,1-1.27-.461l-3.125-5.557a1.036,1.036,0,0,1,.271-1.329l3.147-2.421a16.336,16.336,0,0,1-.413-3.134l-3.607-1.618a1.035,1.035,0,0,1-.573-1.224l1.712-6.12a1.035,1.035,0,0,1,1.133-.748l3.8.5a16.15,16.15,0,0,1,2.021-2.605l-1.365-3.553a1.035,1.035,0,0,1,.462-1.276l5.547-3.1a1.037,1.037,0,0,1,1.326.271l2.3,2.981a16.363,16.363,0,0,1,3.35-.393l1.523-3.418a1.037,1.037,0,0,1,1.229-.575l6.132,1.738a1.035,1.035,0,0,1,.744,1.127l-.479,3.765a16.331,16.331,0,0,1,2.6,2.079l3.574-1.358a1.035,1.035,0,0,1,1.271.461l3.125,5.557a1.036,1.036,0,0,1-.271,1.329l-3.111,2.394a16.328,16.328,0,0,1,.346,3.148l3.639,1.632a1.037,1.037,0,0,1,.574,1.225l-1.713,6.121a1.038,1.038,0,0,1-1.133.748l-4.056-.533a16.212,16.212,0,0,1-1.878,2.344l1.479,3.848a1.037,1.037,0,0,1-.462,1.276l-5.547,3.1a1.035,1.035,0,0,1-1.325-.271l-2.553-3.306a16.394,16.394,0,0,1-2.931.342l-1.691,3.794A1.035,1.035,0,0,1,193.414,5112.977Zm-4.992-3.527,4.411,1.25,1.6-3.586a1.036,1.036,0,0,1,.946-.614h.017a14.1,14.1,0,0,0,3.747-.437,1.036,1.036,0,0,1,1.075.372l2.414,3.125,3.984-2.226-1.4-3.641a1.038,1.038,0,0,1,.254-1.123,14.115,14.115,0,0,0,2.388-2.98,1.035,1.035,0,0,1,1.024-.495l3.825.5,1.231-4.4-3.443-1.545a1.037,1.037,0,0,1-.612-.977,14.231,14.231,0,0,0-.432-3.944,1.039,1.039,0,0,1,.373-1.077l2.928-2.253-2.248-4-3.375,1.282a1.037,1.037,0,0,1-1.125-.261,14.321,14.321,0,0,0-3.209-2.572,1.035,1.035,0,0,1-.5-1.024l.451-3.542-4.41-1.25-1.435,3.219a1.045,1.045,0,0,1-.978.614,14.238,14.238,0,0,0-4.126.482,1.034,1.034,0,0,1-1.089-.367l-2.169-2.808-3.984,2.226,1.283,3.341a1.035,1.035,0,0,1-.249,1.118,14.134,14.134,0,0,0-2.5,3.23,1.028,1.028,0,0,1-1.037.518l-3.587-.471-1.23,4.4,3.4,1.522a1.037,1.037,0,0,1,.612.954,14.259,14.259,0,0,0,.521,3.928,1.034,1.034,0,0,1-.366,1.1l-2.977,2.292,2.248,4,3.607-1.37a1.036,1.036,0,0,1,1.107.242,14.316,14.316,0,0,0,3.031,2.352,1.035,1.035,0,0,1,.508,1.027Zm7.263-8.443a8.851,8.851,0,0,1-5.911-2.256h0a8.859,8.859,0,1,1,5.911,2.256Zm-.06-15.616a6.757,6.757,0,0,0-4.472,11.814h0a6.786,6.786,0,0,0,9.572-.518,6.776,6.776,0,0,0-.566-9.567A6.791,6.791,0,0,0,195.625,5085.39Z" transform="translate(-174.953 -5071.767)" fill="#3d4451"/>
        </g>
        <g id="Grupo_63194" data-name="Grupo 63194" transform="translate(40.126 17.916)">
          <path id="Trazado_121942" data-name="Trazado 121942" d="M250.195,5101.59a11.835,11.835,0,0,0-3.128-.611l-1.269-3.452-4.838,1.018.215,3.6a11.854,11.854,0,0,0-2.751,1.832l-3.24-1.491-2.709,4.13,2.618,2.311a11.824,11.824,0,0,0-.664,3.345l-3.257,1.2,1.008,4.823,3.433-.213a11.731,11.731,0,0,0,1.95,2.848l-1.448,3.118,4.133,2.69,2.3-2.6a11.891,11.891,0,0,0,3.358.6l1.2,3.277,4.838-1.018-.212-3.56a11.907,11.907,0,0,0,2.705-1.891l3.283,1.51,2.709-4.13-2.761-2.437a11.824,11.824,0,0,0,.569-3.13l3.494-1.286-1.008-4.823-3.744.233a11.777,11.777,0,0,0-1.769-2.586l1.579-3.4-4.133-2.691Zm1.969,12.68a6.061,6.061,0,1,1-4.384-7.344A6.085,6.085,0,0,1,252.164,5114.271Z" transform="translate(-230.304 -5096.659)" fill="#7eb9c7"/>
          <path id="Trazado_121943" data-name="Trazado 121943" d="M246.793,5128.563a.869.869,0,0,1-.814-.569l-1.008-2.743a12.734,12.734,0,0,1-2.462-.44l-1.935,2.179a.868.868,0,0,1-1.122.15l-4.133-2.69a.868.868,0,0,1-.314-1.093l1.208-2.6a12.707,12.707,0,0,1-1.435-2.1l-2.868.178a.868.868,0,0,1-.9-.689L230,5113.325a.869.869,0,0,1,.55-.992l2.732-1a12.652,12.652,0,0,1,.485-2.452l-2.189-1.933a.868.868,0,0,1-.152-1.126l2.708-4.13a.87.87,0,0,1,1.089-.312l2.738,1.26a12.716,12.716,0,0,1,1.991-1.328l-.182-3.033a.868.868,0,0,1,.688-.9l4.838-1.018a.868.868,0,0,1,.993.55l1.077,2.931a12.8,12.8,0,0,1,2.23.435l2.1-2.362a.869.869,0,0,1,1.122-.151l4.133,2.691a.867.867,0,0,1,.314,1.092l-1.342,2.893a12.615,12.615,0,0,1,1.249,1.826l3.188-.2a.869.869,0,0,1,.9.689l1.007,4.822a.867.867,0,0,1-.549.992l-2.966,1.092a12.7,12.7,0,0,1-.406,2.227l2.344,2.07a.867.867,0,0,1,.152,1.126l-2.709,4.13a.869.869,0,0,1-1.088.313l-2.769-1.274a12.872,12.872,0,0,1-1.959,1.368l.179,3.006a.869.869,0,0,1-.688.9l-4.837,1.018A.873.873,0,0,1,246.793,5128.563Zm-4.562-5.613a.855.855,0,0,1,.273.044,10.954,10.954,0,0,0,3.112.555.869.869,0,0,1,.787.568l.946,2.574,3.371-.709-.168-2.813a.869.869,0,0,1,.472-.825,11.057,11.057,0,0,0,2.508-1.753.867.867,0,0,1,.954-.153l2.605,1.2,1.886-2.877-2.2-1.94a.867.867,0,0,1-.251-.919,10.929,10.929,0,0,0,.528-2.9.867.867,0,0,1,.567-.775l2.791-1.028-.7-3.354-2.995.186a.868.868,0,0,1-.829-.476,10.891,10.891,0,0,0-1.638-2.394.869.869,0,0,1-.142-.947l1.261-2.717-2.877-1.873-1.974,2.223a.867.867,0,0,1-.928.245,11.019,11.019,0,0,0-2.9-.565.869.869,0,0,1-.764-.568l-1.01-2.748-3.372.709.171,2.854a.868.868,0,0,1-.491.833,11.023,11.023,0,0,0-2.55,1.7.868.868,0,0,1-.939.14l-2.562-1.179-1.886,2.877,2.054,1.813a.868.868,0,0,1,.244.94,10.943,10.943,0,0,0-.615,3.1.867.867,0,0,1-.567.77l-2.554.941.7,3.354,2.683-.166a.87.87,0,0,1,.833.486,10.92,10.92,0,0,0,1.807,2.639.867.867,0,0,1,.15.955l-1.131,2.436,2.877,1.872,1.808-2.037A.866.866,0,0,1,242.23,5122.95Zm3.715-3.558a6.93,6.93,0,1,1,6.738-5.23h0A6.965,6.965,0,0,1,245.945,5119.393Zm.034-12.1a5.224,5.224,0,0,0-5.055,3.923,5.166,5.166,0,0,0,3.755,6.289,5.223,5.223,0,0,0,6.322-3.766h0a5.166,5.166,0,0,0-3.755-6.289A5.2,5.2,0,0,0,245.979,5107.288Z" transform="translate(-229.982 -5096.336)" fill="#3d4451"/>
        </g>
        <g id="Grupo_63195" data-name="Grupo 63195" transform="translate(3.039 40.777)">
          <path id="Trazado_121944" data-name="Trazado 121944" d="M226.133,5156.078a19.824,19.824,0,0,0-.314-5.344l5.112-3.522-3.694-7.433-5.8,1.873a19.934,19.934,0,0,0-4.149-3.7l1.078-5.9-7.89-2.654-2.68,5.232a20.055,20.055,0,0,0-5.748.337l-3.327-4.785-7.465,3.678,1.789,5.489a19.948,19.948,0,0,0-3.838,4.375L183.5,5142.7l-2.667,7.856,5.212,2.646a19.812,19.812,0,0,0,.43,5.712l-4.855,3.345,3.694,7.432,5.733-1.852a19.956,19.956,0,0,0,4.228,3.6l-1.092,5.977,7.89,2.655,2.829-5.521a20.067,20.067,0,0,0,5.357-.4l3.569,5.135,7.465-3.679-1.951-5.987a19.893,19.893,0,0,0,3.486-3.969l6.221,1.126,2.666-7.855Zm-19.91,8.565a10.18,10.18,0,1,1,10.171-10.233A10.2,10.2,0,0,1,206.223,5164.644Z" transform="translate(-179.586 -5128.152)" fill="#fdc345"/>
          <path id="Trazado_121945" data-name="Trazado 121945" d="M201.614,5180.85a1.261,1.261,0,0,1-.4-.065l-7.89-2.654a1.252,1.252,0,0,1-.832-1.412l.944-5.165a21.171,21.171,0,0,1-3.224-2.747l-4.972,1.606a1.254,1.254,0,0,1-1.506-.634l-3.694-7.432a1.253,1.253,0,0,1,.411-1.588l4.174-2.875a21.045,21.045,0,0,1-.33-4.4l-4.488-2.28a1.251,1.251,0,0,1-.618-1.518l2.666-7.855a1.255,1.255,0,0,1,1.409-.83l4.9.888a21.108,21.108,0,0,1,2.974-3.389l-1.534-4.708a1.253,1.253,0,0,1,.637-1.511l7.465-3.678a1.252,1.252,0,0,1,1.582.409l2.865,4.122a21.207,21.207,0,0,1,4.442-.262l2.306-4.5a1.254,1.254,0,0,1,1.513-.616l7.89,2.654a1.252,1.252,0,0,1,.833,1.412l-.933,5.1a21.211,21.211,0,0,1,3.168,2.821l5.017-1.62a1.253,1.253,0,0,1,1.506.633l3.695,7.432a1.252,1.252,0,0,1-.411,1.588l-4.45,3.067a21.1,21.1,0,0,1,.237,4.022l4.857,2.468a1.252,1.252,0,0,1,.619,1.518l-2.667,7.856a1.253,1.253,0,0,1-1.408.83l-5.429-.983a21.182,21.182,0,0,1-2.613,2.976l1.7,5.218a1.251,1.251,0,0,1-.637,1.51l-7.465,3.677a1.25,1.25,0,0,1-1.581-.408l-3.106-4.466a21.044,21.044,0,0,1-4.045.3l-2.463,4.808A1.251,1.251,0,0,1,201.614,5180.85Zm-6.464-4.747,5.841,1.965,2.336-4.56a1.25,1.25,0,0,1,1.189-.679,18.809,18.809,0,0,0,5.023-.374,1.25,1.25,0,0,1,1.288.51l2.955,4.25,5.525-2.723-1.615-4.956a1.252,1.252,0,0,1,.368-1.331,18.679,18.679,0,0,0,3.267-3.72,1.253,1.253,0,0,1,1.265-.537l5.159.934,1.97-5.806-4.619-2.346a1.253,1.253,0,0,1-.682-1.212,18.525,18.525,0,0,0-.294-5.005,1.251,1.251,0,0,1,.518-1.272l4.219-2.907-2.731-5.494-4.771,1.541a1.252,1.252,0,0,1-1.34-.381,18.692,18.692,0,0,0-3.889-3.465,1.253,1.253,0,0,1-.537-1.266l.883-4.833-5.841-1.965-2.19,4.272a1.242,1.242,0,0,1-1.221.677,18.745,18.745,0,0,0-5.389.316,1.252,1.252,0,0,1-1.28-.512l-2.711-3.9-5.526,2.722,1.453,4.458a1.251,1.251,0,0,1-.38,1.343,18.645,18.645,0,0,0-3.6,4.1,1.253,1.253,0,0,1-1.275.552l-4.643-.841-1.971,5.807,4.245,2.155a1.253,1.253,0,0,1,.682,1.2,18.518,18.518,0,0,0,.4,5.35,1.252,1.252,0,0,1-.511,1.3l-3.961,2.729,2.731,5.495,4.707-1.521a1.255,1.255,0,0,1,1.321.36,18.676,18.676,0,0,0,3.962,3.372,1.251,1.251,0,0,1,.561,1.282Zm10.553-10.671a11.468,11.468,0,0,1-11.475-11.372,11.454,11.454,0,0,1,11.416-11.491h.061a11.467,11.467,0,0,1,11.476,11.371,11.455,11.455,0,0,1-11.416,11.493H205.7Zm0-20.36h-.048a8.928,8.928,0,1,0,.046,17.856h.049a8.928,8.928,0,1,0-.047-17.855Z" transform="translate(-179.121 -5127.688)" fill="#3d4451"/>
        </g>
      </g>
    </g>
    <g id="Grupo_63200" data-name="Grupo 63200" transform="translate(0 31.118)">
      <g id="Grupo_63199" data-name="Grupo 63199" transform="translate(17.418)">
        <g id="Grupo_63198" data-name="Grupo 63198">
          <path id="Trazado_121946" data-name="Trazado 121946" d="M162.716,5136.573a11.08,11.08,0,1,0-10.847-10.476A11.268,11.268,0,0,0,162.716,5136.573Z" transform="translate(-151.853 -5114.443)" fill="#3d4451"/>
        </g>
      </g>
      <path id="Trazado_121947" data-name="Trazado 121947" d="M159.079,5178.419l-8.68-1.027a5.08,5.08,0,0,1-4.523-5.74l3.166-22.119a5.39,5.39,0,0,1,5.988-4.5h0a13.471,13.471,0,0,1,11.994,15.219l-1.956,13.667A5.39,5.39,0,0,1,159.079,5178.419Z" transform="translate(-132.802 -5122.717)" fill="#3d4451"/>
      <path id="Trazado_121948" data-name="Trazado 121948" d="M175.753,5217.808a4.321,4.321,0,0,1-4.289-3.847l-1.98-17.934-10.238-8.413a4.32,4.32,0,0,1,5.486-6.676l12.955,10.645,2.365,21.43a4.327,4.327,0,0,1-4.3,4.795Z" transform="translate(-136.01 -5132.185)" fill="#3d4451"/>
      <path id="Trazado_121949" data-name="Trazado 121949" d="M132.283,5218.335a4.322,4.322,0,0,1-3.86-6.253l9.606-19.211,3.342-12.055a4.321,4.321,0,0,1,8.327,2.308l-3.566,12.862-9.98,19.96A4.32,4.32,0,0,1,132.283,5218.335Z" transform="translate(-127.966 -5131.56)" fill="#3d4451"/>
      <path id="Trazado_121950" data-name="Trazado 121950" d="M174.723,5168.7l-14.348-9.653a3.563,3.563,0,1,1,3.978-5.913l12.19,8.2,9.363-1.012a3.563,3.563,0,0,1,.766,7.085Z" transform="translate(-136.317 -5124.756)" fill="#3d4451"/>
    </g>
  </g>
</svg>
