<svg xmlns="http://www.w3.org/2000/svg" width="349.4" height="223.465" viewBox="0 0 349.4 223.465">
  <g id="Grupo_54945" data-name="Grupo 54945" transform="translate(-343.598 -72.299)">
    <path id="Trazado_110978" data-name="Trazado 110978" d="M378.723,295.363s-42.4-41.158-15.427-89.582,63.21-24.072,61.457-80.432,83.328-61.2,110.411-44.86S562.083,116.513,617.991,110s66.589,47.774,52.043,75.441c-20.637,39.254,57.276,32.78,8.182,109.921Z" transform="translate(-6.235 0)" fill="#fff6e1"/>
    <g id="Grupo_54931" data-name="Grupo 54931" transform="translate(557.857 148.008)">
      <path id="Trazado_110979" data-name="Trazado 110979" d="M857.842,315.055s9.01-38.189,39.406-42.388c0,0,5.914-.726,7.883,5.786s-9.789,6.559-17.058,9.179S863.861,301.356,857.842,315.055Z" transform="translate(-856.996 -264.549)" fill="#fae5ac" opacity="0.3"/>
      <path id="Trazado_110980" data-name="Trazado 110980" d="M855.975,296.652s-3.16-31.633,19.022-42.859a6.071,6.071,0,0,1,7.564,2.355c3.225,4.47-5.772,7.605-10.65,11.527S856.976,284.571,855.975,296.652Z" transform="translate(-855.82 -253.293)" fill="#fae5ac" opacity="0.3"/>
    </g>
    <rect id="Rect치ngulo_6009" data-name="Rect치ngulo 6009" width="349.4" height="0.96" rx="0.48" transform="translate(343.598 294.804)" fill="#994616"/>
    <path id="Trazado_110981" data-name="Trazado 110981" d="M462.986,487.236c-4.693-10.693,12.329-19.88,12.329-19.88s22.431,7.26,25.651,5.269S483,462.673,483,462.673c5.227-5.115,25.271-9.8,25.271-9.8s13.521,18.659,16.152,15.936-12.815-15.91-12.815-15.91c6.812-2.773,17.088-.5,17.088-.5,14.8,5.268,7.267,24,7.267,24a37.466,37.466,0,0,0,14.41,10.4h0a27.169,27.169,0,0,1,4.611,2.147l-1.5,1.2c-.445-.3-.892-.582-1.341-.834a.01.01,0,0,0-.008,0l-.02-.011c-.289-.148-.7-.358-1.207-.612h0c-1.177-.527-2.018-.939-2.6-1.258l-.005,0c-3.631-1.705-8.55-3.775-10.484-3.483a3.723,3.723,0,0,0-.232-.944l.232.944c1.859,7.549-10.206,18.773-18.516,23.055s-6.822-.234-5.611-6.592,9.95-11.978,11.3-15.173-3.159-1.677-7.619,2.519-3.008,10.865-10.1,17.783-24.58-2.816-24.58-2.816c6.629-2.626,13.782-13.211,12.675-15.334s-15.042,9.4-17.678,10.62S467.679,497.929,462.986,487.236Z" transform="translate(-68.973 -220.595)" fill="#fae5ac"/>
    <path id="Trazado_110982" data-name="Trazado 110982" d="M864.671,501.884c6.846-8.078-5.568-20.468-5.568-20.468s-21.372.5-23.655-2.061,18.189-4,18.189-4c-3.219-5.8-19.424-15.06-19.424-15.06s-16.58,12.714-18.161,9.668S831.3,459.456,831.3,459.456c-5.2-4.173-14.721-4.855-14.721-4.855-14.222.748-12.527,18.972-12.527,18.972a33.966,33.966,0,0,1-15.215,5.312h0a24.639,24.639,0,0,0-4.563.673l.988,1.434q.7-.222,1.381-.378a.009.009,0,0,1,.008,0l.02,0c.29-.054.7-.13,1.207-.219h0c1.159-.153,2-.293,2.583-.421l.005,0c3.6-.542,8.408-1.067,10.012-.313a3.367,3.367,0,0,1,.446-.76l-.446.76c-3.569,6.079,4.01,18.956,10.124,24.828s5.989,1.562,6.583-4.276-5.547-12.985-5.89-16.11,3.18-.639,5.97,4.161-.2,10.221,4.173,18.068,22.089,3.916,22.089,3.916c-5.081-4-8.557-15.048-7.045-16.607s10.637,12.063,12.613,13.8S857.825,509.962,864.671,501.884Z" transform="translate(-256.346 -222.387)" fill="#fae5ac"/>
    <path id="Trazado_110983" data-name="Trazado 110983" d="M563.736,185.549c7.056-11.84,27.554-1.784,27.554-1.784s8.4,26.529,12.525,28.259-2.756-24.085-2.756-24.085c8.5,1.516,26.745,17.56,26.745,17.56s-8.657,25.783-4.237,26.445,6.5-23.221,6.5-23.221C637.4,213.367,642.26,224.8,642.26,224.8c5.083,17.829-18.073,23.435-18.073,23.435a44.215,44.215,0,0,0-.116,20.978h0a32.061,32.061,0,0,1,1.1,5.9l-2.183-.611q-.021-.952-.118-1.86a.012.012,0,0,0,0-.011l0-.026c-.055-.379-.135-.919-.24-1.579v-.005c-.3-1.492-.482-2.583-.572-3.359a.02.02,0,0,1,0-.007c-.851-4.658-2.235-10.8-3.842-12.461a4.4,4.4,0,0,0,.747-.87l-.747.87c-5.978,6.961-25.035,3.065-34.847-1.984s-4.452-6.715,2.486-9.911,18.331,1.348,22.324.451-.556-4.185-7.644-5.594-12.5,4.559-24.01,2.489S562.371,215.1,562.371,215.1c7.068,4.569,22.142,4.184,23.423,1.664s-19.345-8.006-22.324-9.7S556.68,197.39,563.736,185.549Z" transform="translate(-125.725 -62.523)" fill="#fae5ac"/>
    <g id="Grupo_54933" data-name="Grupo 54933" transform="translate(516.797 105.582)">
      <g id="Grupo_54932" data-name="Grupo 54932" transform="translate(0 0)">
        <path id="Trazado_110984" data-name="Trazado 110984" d="M757.657,190.981a5.41,5.41,0,0,1,.41-2.122,4.959,4.959,0,0,1,1.158-1.687,5.322,5.322,0,0,1,1.8-1.113,6.633,6.633,0,0,1,2.369-.4,6.781,6.781,0,0,1,2.387.4,5.292,5.292,0,0,1,1.818,1.113,4.969,4.969,0,0,1,1.158,1.687,5.425,5.425,0,0,1,.409,2.122,5.3,5.3,0,0,1-.409,2.1,5,5,0,0,1-1.158,1.669,5.272,5.272,0,0,1-1.818,1.113,6.781,6.781,0,0,1-2.387.4,6.634,6.634,0,0,1-2.369-.4,5.3,5.3,0,0,1-1.8-1.113,4.988,4.988,0,0,1-1.158-1.669A5.281,5.281,0,0,1,757.657,190.981Zm10.012-9.9h-8.551l-1.212-29.219h10.974Z" transform="translate(-757.657 -151.866)" fill="#e77c20"/>
      </g>
    </g>
    <g id="Grupo_54935" data-name="Grupo 54935" transform="translate(490.539 86.113)">
      <g id="Grupo_54934" data-name="Grupo 54934" transform="translate(0 0)">
        <path id="Trazado_110985" data-name="Trazado 110985" d="M694.885,135.345a4.159,4.159,0,0,1,.315-1.628,3.808,3.808,0,0,1,.889-1.294,4.072,4.072,0,0,1,1.381-.854,5.086,5.086,0,0,1,1.819-.307,5.2,5.2,0,0,1,1.832.307,4.045,4.045,0,0,1,1.395.854,3.808,3.808,0,0,1,.889,1.294,4.168,4.168,0,0,1,.315,1.628,4.065,4.065,0,0,1-.315,1.615,3.83,3.83,0,0,1-.889,1.281,4.04,4.04,0,0,1-1.395.855,5.207,5.207,0,0,1-1.832.307,5.1,5.1,0,0,1-1.819-.307,4.066,4.066,0,0,1-1.381-.855,3.83,3.83,0,0,1-.889-1.281A4.057,4.057,0,0,1,694.885,135.345Zm7.685-7.6h-6.563l-.93-22.425H703.5Z" transform="translate(-694.885 -105.324)" fill="#c4dfe3"/>
      </g>
    </g>
    <g id="Grupo_54937" data-name="Grupo 54937" transform="translate(618.035 124.004)">
      <g id="Grupo_54936" data-name="Grupo 54936" transform="translate(0 0)">
        <path id="Trazado_110986" data-name="Trazado 110986" d="M999.683,225.929A4.158,4.158,0,0,1,1000,224.3a3.814,3.814,0,0,1,.889-1.295,4.083,4.083,0,0,1,1.381-.854,5.092,5.092,0,0,1,1.818-.307,5.208,5.208,0,0,1,1.832.307,4.059,4.059,0,0,1,1.395.854,3.815,3.815,0,0,1,.889,1.295,4.159,4.159,0,0,1,.315,1.628,4.058,4.058,0,0,1-.315,1.615,3.831,3.831,0,0,1-.889,1.281,4.046,4.046,0,0,1-1.395.854,5.2,5.2,0,0,1-1.832.307,5.083,5.083,0,0,1-1.818-.307,4.07,4.07,0,0,1-1.381-.854,3.83,3.83,0,0,1-.889-1.281A4.057,4.057,0,0,1,999.683,225.929Zm7.684-7.6H1000.8l-.93-22.425h8.423Z" transform="translate(-999.683 -195.908)" fill="#c4dfe3"/>
      </g>
    </g>
    <g id="Grupo_54939" data-name="Grupo 54939" transform="translate(582.035 181.015)">
      <g id="Grupo_54938" data-name="Grupo 54938">
        <path id="Trazado_110987" data-name="Trazado 110987" d="M935.62,387.744a44.265,44.265,0,0,1-4.832,7.2v0c-1.834,2.19-3.712,3.854-5.3,4.418l-.012,0c-.083.028-.164.056-.246.077a.019.019,0,0,1-.012,0h0a2.889,2.889,0,0,1-.921.118c-5.2-.233-10.681-11.388-10.681-11.388a3.966,3.966,0,0,1,1.154-2.256,4.666,4.666,0,0,1,1.561-1.028s5.6,5.751,6.969,6.165c.861.259,1.992-3.757,3.612-8.8s7.318-6.287,7.318-6.287S940,379.625,935.62,387.744Z" transform="translate(-913.619 -357.666)" fill="#a9c2ff"/>
        <path id="Trazado_110988" data-name="Trazado 110988" d="M946.922,415.862v0c-1.834,2.19-3.711,3.854-5.3,4.418l-.012,0-.246.077-.013,0h0a4.027,4.027,0,0,0,2.019-2.55c.272-1.668-1.493-3.033,2.942-5.613C948.9,410.7,946.922,415.862,946.922,415.862Z" transform="translate(-929.753 -378.579)" fill="#8eaff1"/>
        <path id="Trazado_110989" data-name="Trazado 110989" d="M944.959,594.927h12.188c.873-.592-.236-6.382-.236-6.382s-3.326-1.262-3.9,1.3-4.237,3.38-6.174,3.693A2.086,2.086,0,0,0,944.959,594.927Z" transform="translate(-931.85 -481.137)" fill="#1d4071"/>
        <path id="Trazado_110990" data-name="Trazado 110990" d="M968.1,454.957s-.384,7.11-.865,15.348c-.346,5.907-.74,12.4-1.078,17.255-.045.645-.09,1.261-.132,1.844-.012.18-.026.36-.04.539a108.293,108.293,0,0,1-3.791,20.441c-3.427.722-4.974-.6-4.974-.6s-2.361-27.67-3.235-38.83c-.644-8.215-1.192-20.176-1.192-20.176Z" transform="translate(-936.41 -401.178)" fill="#ff9841"/>
        <path id="Trazado_110991" data-name="Trazado 110991" d="M976.344,485.465c-.346,5.907-.74,12.4-1.078,17.255-2.24-5.284-6.817-25.88-6.817-25.88Z" transform="translate(-945.514 -416.338)" fill="#fc7600"/>
        <path id="Trazado_110992" data-name="Trazado 110992" d="M988.171,594.927h12.187c.873-.592-.235-6.382-.235-6.382s-3.326-1.262-3.9,1.3-4.237,3.38-6.174,3.693A2.086,2.086,0,0,0,988.171,594.927Z" transform="translate(-956.986 -481.137)" fill="#1d4071"/>
        <path id="Trazado_110993" data-name="Trazado 110993" d="M960.713,451.565s8.7,21.664,11.486,29.876c1.982,5.849,7.571,26.371,7.571,26.371a5.617,5.617,0,0,0,4.473-.69s2.079-20.965-2.121-26.877c-2.228-3.136-.553-32.6-9.589-32.855S960.713,451.565,960.713,451.565Z" transform="translate(-941.014 -399.201)" fill="#ff9841"/>
        <path id="Trazado_110994" data-name="Trazado 110994" d="M972.135,401.472c-.036,3.08-.07,5.342-.062,5.914.025,1.864-1.167,2.285-2.4,2.569,0,0-1.135.244-2.567.487a28.19,28.19,0,0,1-4.289.459,38.7,38.7,0,0,1-11.225-1.848c-1.15,0-1.674-1.779-1.863-4.262-.128-1.681.391-18.443.456-22.629a10.922,10.922,0,0,1,2.153-6.181c4.267-3.773,16.859-3.3,19.126-.7.56.643.723,6.85.742,13.647C972.222,393.31,972.177,397.931,972.135,401.472Z" transform="translate(-934.614 -356.075)" fill="#a9c2ff"/>
        <path id="Trazado_110995" data-name="Trazado 110995" d="M975.716,366.489c-1.607,1.742-7.007,1.484-6.847-.037.022-.187.057-1.3.074-1.473.014-.138.027-.274.038-.4.037-.374.067-.706.091-.992.072-.834.1-1.286.1-1.286h.005c.155-.043,3.626-1.029,5.353-1.438a2.777,2.777,0,0,1,.957-.159C974.954,364.582,976.242,365.918,975.716,366.489Z" transform="translate(-945.756 -348.771)" fill="#ffae73"/>
        <path id="Trazado_110996" data-name="Trazado 110996" d="M975,362.25s-1.45,1.473-5.637,1.579c.072-.834.095-1.286.095-1.286h.005c.155-.043,3.626-1.029,5.353-1.438C975.119,361.23,974.716,362.04,975,362.25Z" transform="translate(-946.044 -349.015)" fill="#f9924f"/>
        <path id="Trazado_110997" data-name="Trazado 110997" d="M966.057,349.329a13.091,13.091,0,0,0,2.411.562c1.976.267,4.575.11,5.392-2.282,1.375-4.025,3.132-6.438-.915-8.082-2.166-.88-3.553-.927-4.494-.591a3.254,3.254,0,0,0-1.665,1.441C966,341.61,964.42,348.624,966.057,349.329Z" transform="translate(-943.707 -336.007)" fill="#ffae73"/>
        <path id="Trazado_110998" data-name="Trazado 110998" d="M968.33,333.457a1.909,1.909,0,0,0,.73,3.474,14.007,14.007,0,0,1,2.373.435c1.006.447,1.871.921,1.634,2.483-.081.531-.34,1.178,1.027.857a.666.666,0,0,1,.5.03c.567.336-.158,1.967-.376,2.32,0,0-.315,1.168.383,1.736.084.068,1.456.667,4.759-4.389a4.7,4.7,0,0,0,.213-4.3c-.8-1.722-3.036-3.9-7.245-3.9A8.022,8.022,0,0,0,968.33,333.457Z" transform="translate(-944.945 -332.201)" fill="#1e3865"/>
        <path id="Trazado_110999" data-name="Trazado 110999" d="M997.6,420.869c-.615,2.858-.458,2.888-1.4,2.138-3.843-3.055-2.72-4.655-1.866-7.3s-2.144-6.788,0-8.553c2.1-1.725,3.291,1.056,3.343,1.18C997.692,412.707,997.647,417.329,997.6,420.869Z" transform="translate(-960.084 -375.473)" fill="#8eaff1"/>
        <path id="Trazado_111000" data-name="Trazado 111000" d="M993.32,439.85s-1.449,2.369-2.4,2.286-2.231-.438-2.972.268-1.932,2.528-1.6,3.013,1.673.055,2.636-.476,2.479.262,3.287-.341a28.209,28.209,0,0,0,2.743-3Z" transform="translate(-955.894 -394.821)" fill="#ffae73"/>
        <path id="Trazado_111001" data-name="Trazado 111001" d="M998.106,378.129s12.023,11.313,10.462,18.839c-.712,3.429-2.919,6.323-8.8,11.006,0,0-2.783-1.923-3.394-3.484,0,0,5.34-7.522,5.134-8.8-.253-1.568-3.9-5.5-5.206-6.11S995.111,379.442,998.106,378.129Z" transform="translate(-961.253 -358.918)" fill="#a9c2ff"/>
        <path id="Trazado_111002" data-name="Trazado 111002" d="M994.616,444.108s-1.267-.554-1.674-.792-.317.147-.192.339a1.406,1.406,0,0,0,.962.668A1.588,1.588,0,0,0,994.616,444.108Z" transform="translate(-959.588 -396.794)" fill="#ffae73"/>
      </g>
    </g>
    <g id="Grupo_54941" data-name="Grupo 54941" transform="translate(391.355 177.841)">
      <path id="Trazado_111003" data-name="Trazado 111003" d="M483.9,350.518c-.435-.838,9.484-3.857,9.64,4.417,0,0,18.579-.457,9.708-10.813-3.071-3.585-2.755-6.55-2.663-9.309s-1.913-10.78-8.79-9.972a5.121,5.121,0,0,0-4.049.433C482.636,327.926,471.186,353.569,483.9,350.518Z" transform="translate(-469.602 -324.614)" fill="#0b3563"/>
      <path id="Trazado_111004" data-name="Trazado 111004" d="M564.567,401.656s1.209-1.841,2.184-1.877,2.78-.541,2.636-.18-1.264.4-1.372.614,1.661.541,2.166.578,1.7,0,1.661.253A5.736,5.736,0,0,1,568.2,402.2a10.094,10.094,0,0,0-3.33.433Z" transform="translate(-519.894 -368.157)" fill="#ffae73"/>
      <path id="Trazado_111005" data-name="Trazado 111005" d="M522.754,385.676a18.1,18.1,0,0,0,1.85,2.8c1.437,1.8,3.653,3.879,6.435,4.29a6.908,6.908,0,0,0,3.823-.621h0a17.434,17.434,0,0,0,5.92-4.949,2.778,2.778,0,0,0-.379-2.726s-6.823,1.535-7.473,1.21-4.645-9.188-5.364-10.664a8.093,8.093,0,0,0-3.957-4.038Z" transform="translate(-495.571 -351.582)" fill="#a9c2ff"/>
      <path id="Trazado_111006" data-name="Trazado 111006" d="M526.877,407.78c1.437,1.8,3.653,3.879,6.435,4.29a6.908,6.908,0,0,0,3.823-.621c-.132.018-3.507.434-4.852-1.972-1.372-2.455-2.856-6.353-4.894-5.054C526.51,404.984,526.549,406.378,526.877,407.78Z" transform="translate(-497.844 -370.889)" fill="#8eaff1"/>
      <path id="Trazado_111007" data-name="Trazado 111007" d="M459.5,580.939s-2.082,1.9-1.676,3.25,2.285,2.25,2.539,3.9,1.269,2.55,2.183,2.55H466.9s.673-1.161-.952-1.511-2.237-2.289-2.136-4.089a31.712,31.712,0,0,0-.152-4.2l-3.453-.8Z" transform="translate(-457.768 -473.196)" fill="#173359"/>
      <path id="Trazado_111008" data-name="Trazado 111008" d="M503.624,584.119s-.749,8.049.165,8.5l11.7-.024s0-1.35-1.879-1.65-5.179-1.4-5.738-3.85S503.624,584.119,503.624,584.119Z" transform="translate(-484.275 -475.569)" fill="#173359"/>
      <path id="Trazado_111009" data-name="Trazado 111009" d="M482.407,378.9a46.553,46.553,0,0,0,0,5.406c.116,1.955,2.093,4.573,2.374,5.221.7,1.624,1.5,1.889,1.5,1.889l6.141,1.505,2.16.528,6.81-2.034s3.1-8.657,1.856-13.531a37.453,37.453,0,0,0-3.148-8.258s-4.617-1.822-12.792-.461Z" transform="translate(-472.056 -350.239)" fill="#a9c2ff"/>
      <path id="Trazado_111010" data-name="Trazado 111010" d="M486.812,405.225a19.112,19.112,0,0,0,.576,4.423c.7,1.624,1.5,1.889,1.5,1.889l6.141,1.505,2.667-.784s-8.9-1.349-7.918-9.01Z" transform="translate(-474.663 -370.355)" fill="#f8caa4"/>
      <path id="Trazado_111011" data-name="Trazado 111011" d="M511.147,426.2s3.372,10.5,3.589,14.071-6.446,50.77-6.715,52.417c-.253,1.552-2.18,2.542-2.18,2.542a2.915,2.915,0,0,1-2.152.166,5.326,5.326,0,0,1-2.311-1.089s-2.625-33.66-1-45.684a190.483,190.483,0,0,0,1.643-22.422Z" transform="translate(-482.247 -383.71)" fill="#1e3865"/>
      <path id="Trazado_111012" data-name="Trazado 111012" d="M475.773,425.457s-5.144,6.9-5.624,11.568-.752,21.055-1.774,25.6-4.776,13.3-4.776,27.489a2.831,2.831,0,0,0,1.6,1.247,13.171,13.171,0,0,0,1.4.388,2.205,2.205,0,0,0,2.466-1.171c2.538-5.11,10.622-21.59,11.037-25.012.293-2.421,2.846-18.444,8.414-27.846,1.337-2.257-.82-11.234-.82-11.234Z" transform="translate(-461.16 -383.275)" fill="#25468f"/>
      <path id="Trazado_111013" data-name="Trazado 111013" d="M506.515,422.331a7.067,7.067,0,0,1-4.043,1.125c-3.213.065-11.173-.819-11.173-.819a6.592,6.592,0,0,0-.339,2.032s9.722,2.452,15.356.358A3.561,3.561,0,0,0,506.515,422.331Z" transform="translate(-477.076 -381.456)" fill="#1e3865"/>
      <g id="Grupo_54940" data-name="Grupo 54940" transform="translate(24.701 41.45)">
        <path id="Trazado_111014" data-name="Trazado 111014" d="M516.82,425.366a1.477,1.477,0,1,1,1.466,1.659A1.573,1.573,0,0,1,516.82,425.366Zm.486,0a1,1,0,1,0,.98-1.173A1.091,1.091,0,0,0,517.306,425.366Z" transform="translate(-516.82 -423.707)" fill="#fff"/>
      </g>
      <rect id="Rect치ngulo_6010" data-name="Rect치ngulo 6010" width="18.079" height="13.208" rx="3.274" transform="translate(3.757 42.774) rotate(-48.952)" fill="#ff7b35"/>
      <path id="Trazado_111015" data-name="Trazado 111015" d="M496.179,426.947c.112.03,4.193.51,4.194,1.353a2.537,2.537,0,0,1-2.324,2.22,13.415,13.415,0,0,1-2.562-1.961Z" transform="translate(-479.71 -384.141)" fill="#ffae73"/>
      <path id="Trazado_111016" data-name="Trazado 111016" d="M501.982,361.9a13.57,13.57,0,0,0,.728-4.965l.309.061,5.184,1.027s-.118,1.632-.121,3.169v.038c-.006,1.335.9,2.675-1.239,3.2C506.181,364.6,501.007,364.265,501.982,361.9Z" transform="translate(-483.417 -343.415)" fill="#ffae73"/>
      <path id="Trazado_111017" data-name="Trazado 111017" d="M509.814,358.107s-.118,1.632-.121,3.169c-2.9-.082-4.435-2.728-5.063-4.2Z" transform="translate(-485.028 -343.499)" fill="#f48f4e"/>
      <path id="Trazado_111018" data-name="Trazado 111018" d="M509.681,346.907s-6.864.113-6.869-4.162-.894-7.141,3.489-7.394,5.236,1.378,5.584,2.8S511.466,346.767,509.681,346.907Z" transform="translate(-483.926 -330.844)" fill="#ffae73"/>
      <path id="Trazado_111019" data-name="Trazado 111019" d="M506.357,333.928s-1.879,5.016-4.764,5.758-4.136-.031-4.136-.031a8.167,8.167,0,0,0,2.672-4.825S504.94,331.54,506.357,333.928Z" transform="translate(-480.856 -329.526)" fill="#0b3563"/>
      <path id="Trazado_111020" data-name="Trazado 111020" d="M517.619,334.972a4.257,4.257,0,0,1,1.967,1.537,6.912,6.912,0,0,1,.928,3.926s1.416-3.41-.176-5.339C518.652,333.052,517.619,334.972,517.619,334.972Z" transform="translate(-492.584 -330.164)" fill="#0b3563"/>
      <path id="Trazado_111021" data-name="Trazado 111021" d="M497.142,426.614a4.664,4.664,0,0,1,1.632-.223c.654.091,1.137-.013,1.137.17s-.844.269-1.023.356A8.9,8.9,0,0,1,497.142,426.614Z" transform="translate(-480.672 -383.809)" fill="#ffae73"/>
      <path id="Trazado_111022" data-name="Trazado 111022" d="M477.326,369.871a8.31,8.31,0,0,0-6.74,4.882c-1.868,4.54-5.411,12.164-5.411,13.446s1.979,5.236,12.611,7.509c0,0,1.1-1.157,1.033-2.071,0,0-6.636-5.7-6.618-6.366.033-1.26,1.088-2.924,6.914-8.752C480.7,376.934,477.326,369.871,477.326,369.871Z" transform="translate(-462.076 -350.94)" fill="#a9c2ff"/>
    </g>
    <g id="Grupo_54944" data-name="Grupo 54944" transform="translate(448.087 158.082)">
      <g id="Grupo_54943" data-name="Grupo 54943">
        <path id="Trazado_111023" data-name="Trazado 111023" d="M688.086,277.376H635.431a4.8,4.8,0,0,0-3.395,1.406L594.8,316.015a4.8,4.8,0,0,0-1.406,3.4v52.655a4.8,4.8,0,0,0,1.406,3.4l37.232,37.232a4.8,4.8,0,0,0,3.395,1.406h52.655a4.8,4.8,0,0,0,3.395-1.406l37.233-37.232a4.8,4.8,0,0,0,1.406-3.4V319.41a4.8,4.8,0,0,0-1.406-3.4L691.48,278.782A4.8,4.8,0,0,0,688.086,277.376Z" transform="translate(-593.397 -277.376)" fill="#e77c20"/>
        <g id="Grupo_54942" data-name="Grupo 54942" transform="translate(6.844 6.844)">
          <path id="Trazado_111024" data-name="Trazado 111024" d="M693.9,416.772H648.653a6.857,6.857,0,0,1-4.879-2.02L611.78,382.757a6.853,6.853,0,0,1-2.021-4.879V332.632a6.855,6.855,0,0,1,2.021-4.879l31.994-31.994a6.855,6.855,0,0,1,4.879-2.021H693.9a6.854,6.854,0,0,1,4.879,2.021l31.994,31.994a6.854,6.854,0,0,1,2.021,4.879v45.247a6.854,6.854,0,0,1-2.021,4.879l-31.994,31.994A6.854,6.854,0,0,1,693.9,416.772Zm-46.37-117.218c.534-1.124-.021-.894-.438-.477L615.1,331.071a2.193,2.193,0,0,0-.647,1.561v45.247a2.193,2.193,0,0,0,.647,1.561l31.994,31.994a2.194,2.194,0,0,0,1.562.647H693.9a2.194,2.194,0,0,0,1.562-.647l31.994-31.994a2.2,2.2,0,0,0,.647-1.561V332.632a2.2,2.2,0,0,0-.647-1.561l-31.994-31.994c-.417-.417-.972-.647-2.685.477Z" transform="translate(-609.759 -293.738)" fill="#fff"/>
        </g>
        <path id="Trazado_111025" data-name="Trazado 111025" d="M757.179,387.2l-.922-.8a5.586,5.586,0,0,0-7.856.565l-5.206,6.013a1.227,1.227,0,0,1-2.156-.8h0a13.348,13.348,0,0,0-.076-1.411V352.913a4.534,4.534,0,0,0-4.521-4.521h-.334a4.534,4.534,0,0,0-4.521,4.521v24.639a1.082,1.082,0,0,1-1.082,1.082h0a1.2,1.2,0,0,1-1.2-1.2v-29.3a4.382,4.382,0,0,0-4.369-4.369h-.636a4.382,4.382,0,0,0-4.37,4.369v29.492a1,1,0,0,1-1,1h0a1.275,1.275,0,0,1-1.275-1.275V353.847a4.534,4.534,0,0,0-4.521-4.521H712.8a4.534,4.534,0,0,0-4.52,4.521v23.7a1.084,1.084,0,0,1-1.085,1.085h0a1.193,1.193,0,0,1-1.193-1.193V358.9a4.534,4.534,0,0,0-4.521-4.521h-.334a4.534,4.534,0,0,0-4.521,4.521v32.559c0,.09,0,.18.009.269-.005.151-.009.3-.009.456V410.1a13.282,13.282,0,0,0,13.244,13.244H727.8a13.263,13.263,0,0,0,11.137-6.1,27.983,27.983,0,0,1,2.347-3.169l16.463-19.015A5.585,5.585,0,0,0,757.179,387.2Z" transform="translate(-653.449 -315.998)" fill="#fff"/>
      </g>
    </g>
  </g>
</svg>
