<svg xmlns="http://www.w3.org/2000/svg" xmlns:xlink="http://www.w3.org/1999/xlink" width="400" height="283" viewBox="0 0 400 283">
  <defs>
    <filter id="Trazado_122068" x="46.466" y="180.189" width="55.354" height="28.957" filterUnits="userSpaceOnUse">
      <feOffset dy="3" input="SourceAlpha"/>
      <feGaussianBlur stdDeviation="3" result="blur"/>
      <feFlood flood-opacity="0.161"/>
      <feComposite operator="in" in2="blur"/>
      <feComposite in="SourceGraphic"/>
    </filter>
    <filter id="Trazado_122069" x="292.752" y="180.189" width="53.955" height="28.957" filterUnits="userSpaceOnUse">
      <feOffset dy="3" input="SourceAlpha"/>
      <feGaussianBlur stdDeviation="3" result="blur-2"/>
      <feFlood flood-opacity="0.161"/>
      <feComposite operator="in" in2="blur-2"/>
      <feComposite in="SourceGraphic"/>
    </filter>
    <filter id="Trazado_122067" x="169.745" y="53.189" width="62.795" height="28.957" filterUnits="userSpaceOnUse">
      <feOffset dy="3" input="SourceAlpha"/>
      <feGaussianBlur stdDeviation="3" result="blur-3"/>
      <feFlood flood-opacity="0.161"/>
      <feComposite operator="in" in2="blur-3"/>
      <feComposite in="SourceGraphic"/>
    </filter>
  </defs>
  <g id="Grupo_61176" data-name="Grupo 61176" transform="translate(-1020 -4575)">
    <rect id="Rectángulo_6261" data-name="Rectángulo 6261" width="400" height="283" transform="translate(1020 4575)" fill="#fff"/>
    <g id="Grupo_61175" data-name="Grupo 61175" transform="translate(1040.7 4600.198)">
      <g id="Grupo_61173" data-name="Grupo 61173" transform="translate(0 0)">
        <path id="Trazado_120372" data-name="Trazado 120372" d="M79.945,418.191H93.627A165.468,165.468,0,0,1,259.245,253.952c.24,0,.48,0,.721.006a165.8,165.8,0,0,1,152.9,103.623,163.269,163.269,0,0,1,7,21.434,165.908,165.908,0,0,1,5,39.176h13.682A179.006,179.006,0,0,0,273.117,240.8q-6.869-.528-13.872-.531-7.38,0-14.615.592A179.322,179.322,0,0,0,79.945,418.191Z" transform="translate(-79.945 -240.27)" fill="#e6e7e8"/>
        <path id="Trazado_120373" data-name="Trazado 120373" d="M360.582,436.563a82.976,82.976,0,0,0-165.929,0H112a165.623,165.623,0,0,1,331.234,0Z" transform="translate(-98.318 -258.642)" fill="#fff"/>
        <g id="Grupo_61172" data-name="Grupo 61172" transform="translate(13.683 13.682)">
          <path id="Trazado_120374" data-name="Trazado 120374" d="M757.1,530.113H674.45a82.567,82.567,0,0,0-14.831-45.974L726.5,435.545A164.853,164.853,0,0,1,757.1,530.113Z" transform="translate(-425.869 -365.874)" fill="#fa364c"/>
          <path id="Trazado_120375" data-name="Trazado 120375" d="M209.859,482.886A82.579,82.579,0,0,0,194.653,529.4H112a164.852,164.852,0,0,1,30.987-95.1Z" transform="translate(-112.001 -365.162)" fill="#5ec665"/>
          <path id="Trazado_120376" data-name="Trazado 120376" d="M294.965,370.494A83.155,83.155,0,0,0,255.331,399l-66.88-48.591a165.979,165.979,0,0,1,80.968-58.541Z" transform="translate(-155.818 -283.527)" fill="#a0c460"/>
          <path id="Trazado_120377" data-name="Trazado 120377" d="M603.394,399.965a83.181,83.181,0,0,0-39.03-28.681l25.553-78.644a166,166,0,0,1,80.344,58.743Z" transform="translate(-371.273 -283.968)" fill="#ffa360"/>
          <path id="Trazado_120378" data-name="Trazado 120378" d="M458.546,358.756a83.388,83.388,0,0,0-48.633-.307L384.36,279.805a166.462,166.462,0,0,1,99.732.328Z" transform="translate(-268.104 -272.324)" fill="#ffc65f"/>
        </g>
        <path id="Trazado_120379" data-name="Trazado 120379" d="M277.618,278.664a159.287,159.287,0,0,0-159.277,157.9H112a165.623,165.623,0,0,1,331.234,0h-6.34A159.287,159.287,0,0,0,277.618,278.664Z" transform="translate(-98.318 -258.642)" fill="#d1d3d4" style="mix-blend-mode: multiply;isolation: isolate"/>
        <path id="Trazado_120380" data-name="Trazado 120380" d="M459.178,547.165c-.744-38.374-32.563-69.582-70.959-69.582S318,508.791,317.26,547.165H304.972v-.058a83.259,83.259,0,0,1,166.492,0v.058Z" transform="translate(-208.919 -369.244)" fill="#e6e7e8"/>
        <path id="Trazado_120381" data-name="Trazado 120381" d="M297.9,543.112h3.016l.006-.056a83.257,83.257,0,0,1,166.489,0l.006.056h3.016a86.277,86.277,0,0,0-172.531,0Z" transform="translate(-204.867 -365.192)" fill="#d1d3d4" style="mix-blend-mode: multiply;isolation: isolate"/>
      </g>
      <g id="Grupo_61174" data-name="Grupo 61174" transform="translate(59.249 137.862)">
        <path id="Trazado_120382" data-name="Trazado 120382" d="M366.192,604.233l-14.5-1.9a13.1,13.1,0,0,0-21.736-7.287L223.494,563.427a3.623,3.623,0,1,0-2.239,6.892l104.71,37a13.1,13.1,0,0,0,21.868,6.88l12.852,6.987a2.651,2.651,0,0,0,3.787-1.51l1.949-6,1.948-6A2.651,2.651,0,0,0,366.192,604.233Z" transform="translate(-218.75 -563.248)" fill="#414042"/>
        <path id="Trazado_120383" data-name="Trazado 120383" d="M351.928,602.329l14.509,1.9a2.653,2.653,0,0,1,2.174,3.449l-1.948,6L219.173,565.753a3.622,3.622,0,0,1,4.562-2.328L330.2,595.044a13.1,13.1,0,0,1,21.732,7.284Z" transform="translate(-218.992 -563.246)" fill="#bcbec0" style="mix-blend-mode: multiply;isolation: isolate"/>
      </g>
    </g>
    <path id="Trazado_122070" data-name="Trazado 122070" d="M136.36,23.456h-2.783V31h-5.142V9.672h8.394a9.368,9.368,0,0,1,5.933,1.683A5.7,5.7,0,0,1,144.9,16.11,6.925,6.925,0,0,1,144,19.8a6.394,6.394,0,0,1-2.82,2.371l4.453,8.612V31h-5.508ZM133.577,19.5h3.252a2.919,2.919,0,0,0,2.2-.771,2.98,2.98,0,0,0,.74-2.151,3.015,3.015,0,0,0-.747-2.166,2.892,2.892,0,0,0-2.2-.786h-3.252ZM153.484,31h-5.127V9.672h5.127Zm16.8-9.053H162.2v5.1h9.551V31H157.059V9.672H171.78v3.97H162.2v4.5h8.086Zm14.561,3.384a2.113,2.113,0,0,0-.8-1.758,9.923,9.923,0,0,0-2.805-1.3,26.912,26.912,0,0,1-3.281-1.3q-4.146-2.036-4.146-5.6a5.018,5.018,0,0,1,1.033-3.127,6.68,6.68,0,0,1,2.922-2.109,11.372,11.372,0,0,1,4.248-.754,9.948,9.948,0,0,1,4.124.82,6.529,6.529,0,0,1,2.834,2.336A6.1,6.1,0,0,1,189.988,16h-5.127a2.578,2.578,0,0,0-.8-2.021,3.112,3.112,0,0,0-2.161-.718,3.509,3.509,0,0,0-2.175.608,1.79,1.79,0,0,0,.081,3.032,11.084,11.084,0,0,0,3.091,1.377,18.934,18.934,0,0,1,3.633,1.531,6.1,6.1,0,0,1,3.457,5.493,5.208,5.208,0,0,1-2.109,4.395,9.382,9.382,0,0,1-5.786,1.6,11.48,11.48,0,0,1-4.695-.93,7.078,7.078,0,0,1-3.164-2.549,6.641,6.641,0,0,1-1.062-3.728h5.156a3.271,3.271,0,0,0,.886,2.527,4.189,4.189,0,0,0,2.878.813,3.309,3.309,0,0,0,2.014-.549A1.813,1.813,0,0,0,184.847,25.331Zm25.239,3.032a8.267,8.267,0,0,1-3.472,2.124,14.974,14.974,0,0,1-5.01.806,8.933,8.933,0,0,1-6.694-2.563,10.377,10.377,0,0,1-2.681-7.134l-.015-1.846a12.728,12.728,0,0,1,1.113-5.5,8.267,8.267,0,0,1,3.186-3.618,9.012,9.012,0,0,1,4.8-1.267,9.448,9.448,0,0,1,6.189,1.824,7.728,7.728,0,0,1,2.571,5.442H205.12a4.044,4.044,0,0,0-1.143-2.549,3.687,3.687,0,0,0-2.49-.762A3.355,3.355,0,0,0,198.5,14.96a8.76,8.76,0,0,0-1.069,4.688v1.289a8.576,8.576,0,0,0,1.091,4.8,3.86,3.86,0,0,0,3.435,1.6,4.32,4.32,0,0,0,2.988-.894V23.134H201.37V19.6h8.716Zm21.05-7.588a12.577,12.577,0,0,1-1.157,5.522A8.553,8.553,0,0,1,226.69,30a9.157,9.157,0,0,1-4.856,1.3A9.286,9.286,0,0,1,217,30.041a8.538,8.538,0,0,1-3.289-3.582,12.215,12.215,0,0,1-1.238-5.347v-1.2a12.633,12.633,0,0,1,1.15-5.53,8.532,8.532,0,0,1,3.3-3.7,9.757,9.757,0,0,1,9.719-.015,8.685,8.685,0,0,1,3.3,3.669,12.27,12.27,0,0,1,1.194,5.457Zm-5.229-.894a8.969,8.969,0,0,0-1.062-4.827,3.406,3.406,0,0,0-3.04-1.648q-3.867,0-4.087,5.8l-.015,1.567a9.224,9.224,0,0,0,1.04,4.819,3.4,3.4,0,0,0,3.091,1.685,3.36,3.36,0,0,0,3-1.655,8.972,8.972,0,0,0,1.069-4.761Z" transform="translate(1041 4809)" fill="#12263f"/>
    <g transform="matrix(1, 0, 0, 1, 1020, 4575)" filter="url(#Trazado_122068)">
      <path id="Trazado_122068-2" data-name="Trazado 122068" d="M22.466,16V5.336H26.3a5.424,5.424,0,0,1,3.131.754A2.51,2.51,0,0,1,30.5,8.28a2.537,2.537,0,0,1-.381,1.414A2.219,2.219,0,0,1,29,10.558a2.247,2.247,0,0,1,1.282.82,2.385,2.385,0,0,1,.447,1.465,2.824,2.824,0,0,1-.992,2.355,4.723,4.723,0,0,1-2.941.8Zm2.571-4.534v2.556h1.685a1.6,1.6,0,0,0,1.069-.319,1.115,1.115,0,0,0,.374-.9,1.182,1.182,0,0,0-1.326-1.34Zm0-1.685h1.34a1.9,1.9,0,0,0,1.2-.309,1.1,1.1,0,0,0,.359-.889,1.15,1.15,0,0,0-.388-.973,2.078,2.078,0,0,0-1.252-.3h-1.26ZM38.2,14.008H34.676L34.06,16H31.314L35.225,5.336h2.417L41.582,16H38.821Zm-2.908-1.985h2.292l-1.15-3.7ZM46.607,5.336H49.17v7.317a3.5,3.5,0,0,1-.472,1.816,3.225,3.225,0,0,1-1.318,1.238,4.029,4.029,0,0,1-1.886.439,3.884,3.884,0,0,1-2.71-.879,3.194,3.194,0,0,1-.967-2.49h2.578a1.761,1.761,0,0,0,.253,1.062,1,1,0,0,0,.846.33.957.957,0,0,0,.824-.4,1.876,1.876,0,0,0,.289-1.117ZM59.82,10.888a6.289,6.289,0,0,1-.579,2.761A4.276,4.276,0,0,1,57.6,15.5a4.579,4.579,0,0,1-2.428.648,4.643,4.643,0,0,1-2.417-.626,4.269,4.269,0,0,1-1.644-1.791,6.108,6.108,0,0,1-.619-2.673v-.6a6.316,6.316,0,0,1,.575-2.765,4.266,4.266,0,0,1,1.648-1.849,4.878,4.878,0,0,1,4.86-.007,4.343,4.343,0,0,1,1.652,1.835,6.135,6.135,0,0,1,.6,2.728ZM57.2,10.441a4.484,4.484,0,0,0-.531-2.413,1.7,1.7,0,0,0-1.52-.824q-1.934,0-2.043,2.9l-.007.784a4.612,4.612,0,0,0,.52,2.41,1.7,1.7,0,0,0,1.545.842,1.68,1.68,0,0,0,1.5-.828,4.486,4.486,0,0,0,.535-2.38Z" transform="translate(33 181)" fill="#fff"/>
    </g>
    <g transform="matrix(1, 0, 0, 1, 1020, 4575)" filter="url(#Trazado_122069)">
      <path id="Trazado_122069-2" data-name="Trazado 122069" d="M29.636,14.008H26.114L25.5,16H22.752L26.663,5.336H29.08L33.02,16H30.259Zm-2.908-1.985h2.292l-1.15-3.7Zm9.639,2h4.475V16H33.8V5.336h2.571ZM48.8,7.321H45.6V16H43.025V7.321H39.883V5.336H48.8Zm9.91,3.567a6.289,6.289,0,0,1-.579,2.761A4.276,4.276,0,0,1,56.483,15.5a4.579,4.579,0,0,1-2.428.648,4.643,4.643,0,0,1-2.417-.626,4.269,4.269,0,0,1-1.644-1.791,6.108,6.108,0,0,1-.619-2.673v-.6a6.316,6.316,0,0,1,.575-2.765A4.266,4.266,0,0,1,51.6,5.841a4.878,4.878,0,0,1,4.86-.007,4.343,4.343,0,0,1,1.652,1.835,6.135,6.135,0,0,1,.6,2.728Zm-2.615-.447a4.484,4.484,0,0,0-.531-2.413,1.7,1.7,0,0,0-1.52-.824Q52.107,7.2,52,10.1l-.007.784a4.612,4.612,0,0,0,.52,2.41,1.7,1.7,0,0,0,1.545.842,1.68,1.68,0,0,0,1.5-.828,4.486,4.486,0,0,0,.535-2.38Z" transform="translate(279 181)" fill="#fff"/>
    </g>
    <g transform="matrix(1, 0, 0, 1, 1020, 4575)" filter="url(#Trazado_122067)">
      <path id="Trazado_122067-2" data-name="Trazado 122067" d="M22.122,5.336l2.38,7.419,2.373-7.419h3.384V16H27.681V13.51l.249-5.1L25.352,16h-1.7L21.067,8.4l.249,5.1V16H18.745V5.336Zm16.384,6.138H34.463v2.549h4.775V16H31.892V5.336h7.361V7.321h-4.79V9.569h4.043ZM40.286,16V5.336h3.435a5.053,5.053,0,0,1,2.542.641,4.5,4.5,0,0,1,1.761,1.809,5.462,5.462,0,0,1,.641,2.618V10.9a5.494,5.494,0,0,1-.619,2.626A4.524,4.524,0,0,1,46.3,15.337,4.942,4.942,0,0,1,43.794,16Zm2.571-8.679v6.7h.894a2,2,0,0,0,1.7-.787,3.858,3.858,0,0,0,.593-2.34v-.461A3.827,3.827,0,0,0,45.449,8.1a2.035,2.035,0,0,0-1.729-.784ZM52.722,16H50.159V5.336h2.563ZM63.54,10.888a6.289,6.289,0,0,1-.579,2.761A4.276,4.276,0,0,1,61.317,15.5a4.579,4.579,0,0,1-2.428.648,4.643,4.643,0,0,1-2.417-.626,4.269,4.269,0,0,1-1.644-1.791,6.108,6.108,0,0,1-.619-2.673v-.6a6.316,6.316,0,0,1,.575-2.765,4.266,4.266,0,0,1,1.648-1.849,4.878,4.878,0,0,1,4.86-.007,4.343,4.343,0,0,1,1.652,1.835,6.135,6.135,0,0,1,.6,2.728Zm-2.615-.447a4.484,4.484,0,0,0-.531-2.413,1.7,1.7,0,0,0-1.52-.824q-1.934,0-2.043,2.9l-.007.784a4.612,4.612,0,0,0,.52,2.41,1.7,1.7,0,0,0,1.545.842,1.68,1.68,0,0,0,1.5-.828,4.486,4.486,0,0,0,.535-2.38Z" transform="translate(160 54)" fill="#fff"/>
    </g>
  </g>
</svg>
