<svg xmlns="http://www.w3.org/2000/svg" width="113.589" height="340" viewBox="0 0 113.589 340">
  <g id="Grupo_60249" data-name="Grupo 60249" transform="translate(-27.174)">
    <path id="Trazado_116994" data-name="Trazado 116994" d="M2735.1,1462.886c0,4.626-19.323,8.375-43.159,8.375s-43.158-3.749-43.158-8.375,19.323-8.374,43.158-8.374S2735.1,1458.26,2735.1,1462.886Z" transform="translate(-2618.502 -1131.261)" opacity="0.07"/>
    <g id="Grupo_60248" data-name="Grupo 60248" transform="translate(27.174 0)">
      <g id="Grupo_60220" data-name="Grupo 60220" transform="translate(61.041 71.559)">
        <path id="Trazado_116995" data-name="Trazado 116995" d="M2731.935,793.313l4.77,3.63,4.279,4.746c-1.606,1.429-3.853-1.248-3.853-1.248a41.634,41.634,0,0,0,4.574,8.22c.765,1.577-.811,1.665-.811,1.665-1.986-1.552-4.933-6.526-4.933-6.526a80.929,80.929,0,0,0,4.077,7.75c.395,1.41-1.1,1.2-1.1,1.2-3.2-1.35-5.055-7.618-5.055-7.618a46.6,46.6,0,0,0,3.215,7.115c-.21,1.034-.735.763-.735.763-2.7-.681-4.469-6.719-4.469-6.719l.722,2.243c1.258,2.982-.772,2.445-.772,2.445l-.9-1.458a18.883,18.883,0,0,1-2.645-8.866l-.742-5.576Z" transform="translate(-2708.097 -695.339)" fill="#e28262"/>
        <path id="Trazado_116996" data-name="Trazado 116996" d="M2774.774,405.388l-2.9,1.514s2.589,42.426,8.115,50.181,8.3-2.171,9.683-3.386,3.467-48.834,3.467-48.834Z" transform="translate(-2769.323 -394.552)" fill="#e28262"/>
        <path id="Trazado_116997" data-name="Trazado 116997" d="M2785.187,592.791s.985,36.484,2.485,44.623c0,0-1.707,4.215-4.379,1.763s-12.371-42.035-11.456-45.4S2785.187,592.791,2785.187,592.791Z" transform="translate(-2763.834 -539.44)" fill="#e28262"/>
        <path id="Trazado_116998" data-name="Trazado 116998" d="M2789.05,405.033c-8.283,6.145-22.033,3.271-22.033,3.271l-3.672-38.06s-1.175-7.519,8.452-10.612c0,0,11.01-3.331,15.726,7.96Z" transform="translate(-2763.299 -359.174)" fill="#95d2e2"/>
      </g>
      <g id="Grupo_60221" data-name="Grupo 60221" transform="translate(56.125 150.901)">
        <rect id="Rectángulo_6332" data-name="Rectángulo 6332" width="55.714" height="36.031" transform="translate(1.751 1.232)" fill="#fa9711"/>
        <rect id="Rectángulo_6333" data-name="Rectángulo 6333" width="53.939" height="34.072" transform="translate(2.659 2.033)" fill="#fff"/>
        <rect id="Rectángulo_6334" data-name="Rectángulo 6334" width="55.715" height="34.251" transform="translate(0 3.012)" fill="#ffad0b"/>
        <rect id="Rectángulo_6335" data-name="Rectángulo 6335" width="17.326" height="3.012" transform="translate(38.389)" fill="#ffad0b"/>
      </g>
      <path id="Trazado_116999" data-name="Trazado 116999" d="M2794.919,1436.87s1.753,6.595,3.857,8.369,10.085,4.345,10.085,4.345l4.418.6s3.083,2.172-5.312,4.557-23.225-4.47-23.225-4.47l3.213-13.539Z" transform="translate(-2731.881 -1121.993)" fill="#070809"/>
      <path id="Trazado_117000" data-name="Trazado 117000" d="M3006.94,1450.008c-1.553-2.269-5.042-14.785-5.042-14.785l-6.877,0-3.887,14.009s-.621,2.345.808,3.174c0,0,8.659,2.719,15.888-.616A5.049,5.049,0,0,0,3006.94,1450.008Z" transform="translate(-2972.424 -1120.825)" fill="#070809"/>
      <path id="Trazado_117001" data-name="Trazado 117001" d="M2835.7,392.7l8.781-53.662s3.026-8.066-3.024-12.1L2818.4,316.1h-16.262l-27.725,16.384,18.171,60.215Z" transform="translate(-2760.958 -254.262)" fill="#f39672"/>
      <path id="Trazado_117002" data-name="Trazado 117002" d="M2822.855,655.527s-4.98,11.37-6.182,37.508c0,0,37.479,11.756,49.236,0l.067-37.508Z" transform="translate(-2791.23 -517.089)" fill="#001b34"/>
      <path id="Trazado_117003" data-name="Trazado 117003" d="M2929.626,767.241a15.384,15.384,0,1,1-15.376-15.882A15.636,15.636,0,0,1,2929.626,767.241Z" transform="translate(-2873.431 -591.294)" fill="#001b34"/>
      <path id="Trazado_117004" data-name="Trazado 117004" d="M2844.7,773.659c0,8.771-3.858,15.884-12.35,15.884a15.891,15.891,0,0,1,0-31.765C2840.838,757.777,2844.7,764.888,2844.7,773.659Z" transform="translate(-2770.017 -596.264)" fill="#001b34"/>
      <path id="Trazado_117005" data-name="Trazado 117005" d="M2919.892,803.317l-3.276,66.04s5.8,18.149,18.652,7.562l11.373-72.808S2943.082,785.168,2919.892,803.317Z" transform="translate(-2894.449 -625.437)" fill="#001b34"/>
      <path id="Trazado_117006" data-name="Trazado 117006" d="M2971.766,1104.372s-5.127,10.878-4.735,26.976l2.213,48.754h11.595l9.578-68.168S2981.6,1088.745,2971.766,1104.372Z" transform="translate(-2949.598 -860.451)" fill="#001b34"/>
      <path id="Trazado_117007" data-name="Trazado 117007" d="M2816.495,814.746l.947,60.779s15.459,13.779,19.493,3.7c0,0,4.368-46.677,3.528-70.055C2840.462,809.167,2821.872,793.572,2816.495,814.746Z" transform="translate(-2765.783 -631.772)" fill="#001b34"/>
      <path id="Trazado_117008" data-name="Trazado 117008" d="M2835.633,1106.836s-4.7,7.387-2.394,28.048l4.074,47.849h12.435l5.378-72.2S2847.036,1094.933,2835.633,1106.836Z" transform="translate(-2783.974 -863.083)" fill="#001b34"/>
      <g id="Grupo_60223" data-name="Grupo 60223" transform="translate(0 75.816)">
        <path id="Trazado_117009" data-name="Trazado 117009" d="M3099.4,617.261c-3.006,30.143-1.772,32.137-1.459,44.226,0,0-1.605,4.253-4.337,1.865s-7.091-42.528-5.719-45.73C3089.923,612.872,3099.4,617.261,3099.4,617.261Z" transform="translate(-3085.794 -561.844)" fill="#f39672"/>
        <path id="Trazado_117010" data-name="Trazado 117010" d="M3065.981,814.25l4.239,4.238,3.6,5.279c-1.783,1.2-3.652-1.755-3.652-1.755a41.514,41.514,0,0,0,3.426,8.758c.547,1.668-1.027,1.544-1.027,1.544-1.758-1.805-4.01-7.132-4.01-7.132a80.78,80.78,0,0,0,3,8.228c.2,1.45-1.252,1.039-1.252,1.039-2.991-1.77-3.985-8.229-3.985-8.229a46.512,46.512,0,0,0,2.23,7.483c-.348,1-.833.656-.833.656-2.585-1.038-3.523-7.259-3.523-7.259l.412,2.32c.846,3.127-1.092,2.32-1.092,2.32l-.7-1.566a18.894,18.894,0,0,1-1.427-9.141l.014-5.625Z" transform="translate(-3054.283 -715.809)" fill="#f39672"/>
        <g id="Grupo_60222" data-name="Grupo 60222">
          <path id="Trazado_117011" data-name="Trazado 117011" d="M3014.143,416.293l-3.25.378s-12.737,40.551-10.345,49.769,7.092,1.109,8.815.468,22.12-44.545,22.12-44.545Z" transform="translate(-2998.165 -407.66)" fill="#f39672"/>
          <path id="Trazado_117012" data-name="Trazado 117012" d="M3016.221,430.245c-7.577,2.3-20.66-9.094-20.66-9.094l10.845-36.191s1.589-7.444,11.686-6.892c0,0,11.473.822,11.845,13.055Z" transform="translate(-2995.561 -378.039)" fill="#95d2e2"/>
        </g>
      </g>
      <path id="Trazado_117013" data-name="Trazado 117013" d="M2884.327,263.578v17.384h18.384s-4.521-6.89-2.259-17.384Z" transform="translate(-2843.232 -213.592)" fill="#f39672"/>
      <path id="Trazado_117014" data-name="Trazado 117014" d="M2898.079,278.339c1.657,1.067,5.178,3.336,7.186,2.007a1.888,1.888,0,0,0,.873-1.346,25.47,25.47,0,0,1-1.261-15.422h-16.124v1.576C2890.765,270.242,2893.346,275.288,2898.079,278.339Z" transform="translate(-2847.658 -213.592)" fill="#db765e"/>
      <g id="Grupo_60224" data-name="Grupo 60224" transform="translate(29.576 14.794)">
        <path id="Trazado_117015" data-name="Trazado 117015" d="M2936.952,143.371s-3.16-1.286-6.878-8.945c0,0-7.9-8.978-2.691-19.5,0,0,3.019-8.863,18.677-6.764C2946.06,108.167,2948.006,131.688,2936.952,143.371Z" transform="translate(-2925.605 -107.798)" fill="#f3906b"/>
        <path id="Trazado_117016" data-name="Trazado 117016" d="M2890.573,147.465l.978-2.748s2.638-10.2,2.638-10.207a10.469,10.469,0,0,0,.051-4.295,10.542,10.542,0,0,1-.143-4.418c1.643-7.334-2.188-11.387-2.188-11.387-4.279-6.782-14.419-6.776-14.419-6.776-12.542.615-13.6,12.752-13.6,12.752-2.037,8.071,4.383,14.795,4.4,14.808.512.536.25,3.195.4,3.95.662,3.22,3.744,5.2,6.474,6.566,3,1.5,6.631,3.093,9.988,3.4C2886.424,149.229,2890.013,149.041,2890.573,147.465Z" transform="translate(-2859.902 -107.635)" fill="#f39672"/>
      </g>
      <path id="Trazado_117017" data-name="Trazado 117017" d="M2890.841,200.026l-3.467,1.142s4.574.516,4.818-.808c0,0-.562-2.637-1.191-5.137C2891,195.223,2891.355,199.856,2890.841,200.026Z" transform="translate(-2833.4 -160.663)" fill="#e47a5d"/>
      <g id="Grupo_60225" data-name="Grupo 60225" transform="translate(46.953 29.627)">
        <path id="Trazado_117018" data-name="Trazado 117018" d="M2920.343,189.3c-.036.719-.464,1.279-.949,1.255s-.853-.625-.817-1.344.461-1.28.947-1.256S2920.379,188.578,2920.343,189.3Z" transform="translate(-2915.549 -184.658)" fill="#341e13"/>
        <path id="Trazado_117019" data-name="Trazado 117019" d="M2876.631,186.659c-.036.719-.461,1.279-.949,1.254s-.852-.624-.816-1.343.46-1.281.947-1.256S2876.668,185.94,2876.631,186.659Z" transform="translate(-2861.972 -182.616)" fill="#341e13"/>
        <path id="Trazado_117020" data-name="Trazado 117020" d="M2917.695,177.535c.314.082.413-.34.413-.34a1.489,1.489,0,0,0,.018-.764.742.742,0,0,0-.358-.4,10.732,10.732,0,0,0-3.783.3c-.757.183-1.994.678-2.107,1.361-.033.2-.071.558.158.632A30.675,30.675,0,0,1,2917.695,177.535Z" transform="translate(-2911.853 -175.375)" fill="#341e13"/>
        <path id="Trazado_117021" data-name="Trazado 117021" d="M2868.545,174.97a26.618,26.618,0,0,0-4.407.238c-.3.135-.467-.264-.467-.264a1.5,1.5,0,0,1-.15-.749.738.738,0,0,1,.282-.459,8,8,0,0,1,3.277-.345,6.454,6.454,0,0,1,1.622.3A3.159,3.159,0,0,1,2868.545,174.97Z" transform="translate(-2851.494 -173.364)" fill="#341e13"/>
      </g>
      <g id="Grupo_60226" data-name="Grupo 60226" transform="translate(52.948 43.433)">
        <path id="Trazado_117022" data-name="Trazado 117022" d="M2887.512,234.543c.279.012.421.15.307.344,0,0-1.34,2.238-3.5,2.388s-3.808-1.877-3.808-1.877c-.161-.2,0-.378.347-.406C2880.864,234.993,2884.584,234.708,2887.512,234.543Z" transform="translate(-2880.454 -234.543)" fill="#fff"/>
      </g>
      <path id="Trazado_117023" data-name="Trazado 117023" d="M2789.6,391.242c.037,1.788-2.676,20.491-1.537,20.73.007,0,31.031,7.15,47.576,0l.067-19.272,8.781-53.662s3.026-8.066-3.024-12.1L2818.4,316.1l1.558,4.674-3.335,9.483L2802.136,316.1l-27.725,16.384q2.325,7.7,4.639,15.4c2.858,9.465,5.638,18.957,8.582,28.4C2787.632,376.285,2790.071,386.523,2789.6,391.242Z" transform="translate(-2760.958 -254.262)" fill="#95d2e2"/>
      <path id="Trazado_117024" data-name="Trazado 117024" d="M2913.473,331.051l-.194,8.639-3.182-3.111Z" transform="translate(-2859.809 -265.838)" fill="#3aa0bf"/>
      <path id="Trazado_117025" data-name="Trazado 117025" d="M2877.559,309.234s-.935-3.619-5.521-6.675l.6,12.472S2875.182,308.65,2877.559,309.234Z" transform="translate(-2815.307 -243.776)" fill="#77c7df"/>
      <path id="Trazado_117026" data-name="Trazado 117026" d="M2874.275,337.8l-.418-5.8c-1.4-.344-2.651,1.617-3.671,3.224Z" transform="translate(-2811.605 -266.543)" fill="#3aa0bf"/>
      <g id="Grupo_60227" data-name="Grupo 60227" transform="translate(55.248 77.912)">
        <path id="Trazado_117027" data-name="Trazado 117027" d="M2894.613,388.556a1.233,1.233,0,1,1-1.232-1.232A1.232,1.232,0,0,1,2894.613,388.556Z" transform="translate(-2892.147 -387.324)" fill="#d2eae6"/>
      </g>
      <g id="Grupo_60228" data-name="Grupo 60228" transform="translate(55.248 100.297)">
        <path id="Trazado_117028" data-name="Trazado 117028" d="M2894.613,487.749a1.233,1.233,0,1,1-1.232-1.233A1.233,1.233,0,0,1,2894.613,487.749Z" transform="translate(-2892.147 -486.516)" fill="#d2eae6"/>
      </g>
      <g id="Grupo_60229" data-name="Grupo 60229" transform="translate(55.248 122.683)">
        <path id="Trazado_117029" data-name="Trazado 117029" d="M2894.613,586.943a1.233,1.233,0,1,1-1.232-1.232A1.233,1.233,0,0,1,2894.613,586.943Z" transform="translate(-2892.147 -585.711)" fill="#d2eae6"/>
      </g>
      <g id="Grupo_60230" data-name="Grupo 60230" transform="translate(55.248 145.067)">
        <path id="Trazado_117030" data-name="Trazado 117030" d="M2894.613,686.134a1.233,1.233,0,1,1-1.232-1.232A1.234,1.234,0,0,1,2894.613,686.134Z" transform="translate(-2892.147 -684.902)" fill="#d2eae6"/>
      </g>
      <line id="Línea_210" data-name="Línea 210" y2="84.955" transform="translate(53.663 74.836)" fill="none" stroke="#71c5df" stroke-miterlimit="10" stroke-width="2.957"/>
      <g id="Grupo_60232" data-name="Grupo 60232" transform="translate(25.858 153.728)">
        <path id="Trazado_117031" data-name="Trazado 117031" d="M2863.36,729.032s-15.847,7.423-48.275-.165c-.533-.125-.309-1.51-.309-1.51l.309-3.122c.141-1,.7-.953.7-.953s31.03,7.15,47.576,0c0,0,.667-.116.7.884v3.892A1.029,1.029,0,0,1,2863.36,729.032Z" transform="translate(-2814.729 -723.279)" fill="#3d1a0c"/>
        <g id="Grupo_60231" data-name="Grupo 60231" transform="translate(24.473 2.667)">
          <path id="Trazado_117032" data-name="Trazado 117032" d="M2897.2,740.54a.886.886,0,0,1-.875.9h-6.312a.885.885,0,0,1-.874-.9v-4.546a.885.885,0,0,1,.874-.9h6.312a.886.886,0,0,1,.875.9Z" transform="translate(-2889.143 -735.098)" fill="none" stroke="#bababa" stroke-miterlimit="10" stroke-width="4.837"/>
          <line id="Línea_211" data-name="Línea 211" x2="3.341" transform="translate(0 2.882)" fill="none" stroke="#bababa" stroke-miterlimit="10" stroke-width="4.837"/>
        </g>
      </g>
      <path id="Trazado_117033" data-name="Trazado 117033" d="M2925.67,303.131s-10.174-3.95-12.568-7.885l-3.007,5.729,10.725,10.285,4.849-7.934" transform="translate(-2872.008 -238.114)" fill="#77c7df"/>
      <path id="Trazado_117034" data-name="Trazado 117034" d="M2891.23,95.022s5.681-4.982,3.05-9.124c0,0-4.524-5.017-12.917-3.77s-8.286-1.085-14.85,2.258-7.722,2.68-9.193,9.057c-1.389,6.026-.556,8.268.486,11.883s2.311,11.033,9.29,15.235c0,0-4.742-10.638,3.115-8.195l.857-.069s-1.838-5.474,1.642-8.278c-1.729-2.12-.465-6.468-.136-7.092,1.646-3.144,6.635-1.934,9.519-2.824C2884.322,93.415,2889.881,92.339,2891.23,95.022Z" transform="translate(-2829.237 -72.937)" fill="#341e13"/>
      <g id="Grupo_60241" data-name="Grupo 60241" transform="translate(34.105 35.941)">
        <g id="Grupo_60237" data-name="Grupo 60237">
          <g id="Grupo_60236" data-name="Grupo 60236">
            <g id="Grupo_60235" data-name="Grupo 60235">
              <g id="Grupo_60234" data-name="Grupo 60234">
                <g id="Grupo_60233" data-name="Grupo 60233">
                  <path id="Trazado_117035" data-name="Trazado 117035" d="M2971.918,208.894a2.791,2.791,0,0,1-1.752.672,4.073,4.073,0,0,1-3.992-3.914,3.734,3.734,0,0,1,3.243-4.3,3.522,3.522,0,0,1,2.552.956c1.029.937,1.188,2.784,1.051,4.076A3.82,3.82,0,0,1,2971.918,208.894Z" transform="translate(-2966.155 -201.343)" fill="#f39672"/>
                </g>
              </g>
            </g>
          </g>
        </g>
        <g id="Grupo_60240" data-name="Grupo 60240" transform="translate(1.793 1.325)">
          <g id="Grupo_60238" data-name="Grupo 60238" transform="translate(0)">
            <path id="Trazado_117036" data-name="Trazado 117036" d="M2980.386,207.953c-.2-1.186-2.532.123-2.123.769a3.707,3.707,0,0,0,1.033.874,1.765,1.765,0,0,1,.833,1.252c.013.069.04.275-.026.329-.3.239-1.4-.857-1.643-1.085a2,2,0,0,1-.422-1.887,1.2,1.2,0,0,1,1.263-.988c.541-.006,1.1-.006,1.112.67,0,.014-.016.128-.027.068Z" transform="translate(-2977.963 -207.214)" fill="#e47a5d"/>
          </g>
          <g id="Grupo_60239" data-name="Grupo 60239" transform="translate(0.488 1.896)">
            <path id="Trazado_117037" data-name="Trazado 117037" d="M2976.377,215.749c.234-.27.487-.079.757.09a1.133,1.133,0,0,1,.482.674,2.8,2.8,0,0,1-.162,2.011,1.508,1.508,0,0,1-1.249.781c-.728.028-.988-.6-1.057-1.211-.021-.164-.062-.554.094-.666s.308.14.431.248a1.014,1.014,0,0,0,.631.189,1.314,1.314,0,0,0,1.05-.556.7.7,0,0,0,.1-.195c.026.4.012.494-.045.274a1.141,1.141,0,0,0-.158-.273c-.186-.267-.486-.438-.691-.69-.1-.116-.3-.537-.18-.674Z" transform="translate(-2975.128 -215.614)" fill="#e47a5d"/>
          </g>
        </g>
      </g>
      <path id="Trazado_117038" data-name="Trazado 117038" d="M2866.243,222.466l1.116-5.905.855-.069A6.646,6.646,0,0,0,2873.89,221s2,.269,2.853.367c.112.013,1.319-1.224,1.477-1.329a9.639,9.639,0,0,1,4.579-1.336,11.4,11.4,0,0,1,4.936.224c.209.075,2.223,1.052,2.282.767,0,0-1.947,9.372-3.386,12.065,0,0-.613,2.065-5.421,1.648a27.286,27.286,0,0,1-14.749-6.435C2865.387,226.186,2866.243,222.466,2866.243,222.466Zm21.495-.777c-.205-.968-.256-1.579-1.09-1.717a16.907,16.907,0,0,0-5.072.274c-1.319.191-2.957.391-3.471,1.846a5.628,5.628,0,0,0,.616,4.277c1.165,1.941,4.843,2.885,6.676,1.584C2886.955,226.846,2888.125,223.513,2887.738,221.69Z" transform="translate(-2826.384 -177.132)" fill="#341e13"/>
      <path id="Trazado_117039" data-name="Trazado 117039" d="M2888.031,250.286c-.369.527.528,1.059.869,1.273.676.424.784.391,1.424-.2.42-.386,1.519-1.349.5-1.64A7.88,7.88,0,0,0,2888.031,250.286Z" transform="translate(-2832.583 -202.853)" fill="#341e13"/>
      <path id="Trazado_117040" data-name="Trazado 117040" d="M2720.274,856.342s3.876-5.569,9.119-5.834c0,0,6.694.817,5.029,3.708C2734.422,854.216,2732.325,860.447,2720.274,856.342Z" transform="translate(-2638.187 -668.068)" fill="#e28262"/>
      <g id="Grupo_60246" data-name="Grupo 60246" transform="translate(26.818)">
        <path id="Trazado_117041" data-name="Trazado 117041" d="M2881.468,68.149a17.31,17.31,0,0,0,.18-2.449c0-10.347-9.106-18.737-20.337-18.737s-20.336,8.389-20.336,18.737a17.419,17.419,0,0,0,.179,2.449s.042,8.083,27.82,7.348C2868.974,75.5,2889.752,74.084,2881.468,68.149Z" transform="translate(-2840.976 -45.861)" fill="#fff"/>
        <path id="Trazado_117042" data-name="Trazado 117042" d="M2887.835,68.149a17.119,17.119,0,0,0-.4-6.9,4.376,4.376,0,0,1-1.672,3.255,6.867,6.867,0,0,1-4.192,1.225,4.762,4.762,0,0,1-3.614-1.447,7.9,7.9,0,0,1-1.284-3.978,74.784,74.784,0,0,0-2.449-10.714,13.549,13.549,0,0,1-1.027-1.927,21.96,21.96,0,0,0-8.939-.431,14.092,14.092,0,0,1,2.727,5.732,38.363,38.363,0,0,1,.879,5.687,13,13,0,0,1-.1,5.145,4.421,4.421,0,0,1-3.537,3.129,11.7,11.7,0,0,1-6.2-.659,7.618,7.618,0,0,1-4.4-3.534,7.511,7.511,0,0,1-.317-5.742,19.3,19.3,0,0,1,6.453-8.557c-7.3,2.843-12.425,9.5-12.425,17.265a17.419,17.419,0,0,0,.179,2.449s.033,6.171,18.571,7.239a2.078,2.078,0,0,1-.766-1.125c-.756-3.153,4.546-3.316,7.01-3.476,2.592-.167,5.182-.562,7.761-.841a50.631,50.631,0,0,0,8.251-1.4C2888.19,68.414,2888.022,68.283,2887.835,68.149Z" transform="translate(-2847.342 -45.861)" fill="#e8e8e8"/>
        <g id="Grupo_60242" data-name="Grupo 60242" transform="translate(5.354 22.287)">
          <path id="Trazado_117043" data-name="Trazado 117043" d="M2849.62,141.78s.532.156,1.483.343c.476.088,1.051.232,1.718.331s1.419.233,2.243.347c.821.135,1.721.186,2.669.292.95.075,1.949.239,2.99.236l3.207.1c1.093.06,2.2.009,3.312-.025l3.309-.153c1.092-.042,2.156-.225,3.191-.325s2.031-.248,2.976-.373a24.588,24.588,0,0,0,2.642-.476c1.63-.339,2.976-.67,3.92-.878l1.478-.354-1.511.2c-.956.145-2.329.318-3.96.584a24.114,24.114,0,0,1-2.646.341c-.946.076-1.941.152-2.968.26-1.029.082-2.085.246-3.17.269l-3.284.1c-1.1.051-2.2.12-3.284.079l-3.183-.042c-1.034.005-2.027-.093-2.974-.123-.946-.058-1.845-.064-2.666-.157s-1.58-.142-2.25-.194-1.25-.139-1.732-.19C2850.167,141.866,2849.62,141.78,2849.62,141.78Z" transform="translate(-2849.62 -140.84)" fill="#d2d1d1"/>
        </g>
        <path id="Trazado_117044" data-name="Trazado 117044" d="M2881.468,68.149a17.31,17.31,0,0,0,.18-2.449c0-10.347-9.106-18.737-20.337-18.737s-20.336,8.389-20.336,18.737a17.419,17.419,0,0,0,.179,2.449s.042,8.083,27.82,7.348C2868.974,75.5,2889.752,74.084,2881.468,68.149Z" transform="translate(-2840.976 -45.861)" fill="none" stroke="#bababa" stroke-miterlimit="10" stroke-width="1"/>
        <g id="Grupo_60245" data-name="Grupo 60245" transform="translate(15.797)">
          <path id="Trazado_117045" data-name="Trazado 117045" d="M2911.784,66.119c2.652-14.73-2.8-22.466-2.8-22.466-.739-1.3-3.518-1.571-3.518-1.571h-3.236c-4.25.122-2.873,2.03-2.873,2.03s6.11,6.839,5.952,22.476Z" transform="translate(-2898.992 -42.082)" fill="#e4e3e3"/>
          <g id="Grupo_60243" data-name="Grupo 60243" transform="translate(0 1.571)">
            <path id="Trazado_117046" data-name="Trazado 117046" d="M2929.381,49.043a28.841,28.841,0,0,1,1.926,3.265c.278.494.521,1.06.807,1.64.245.6.538,1.218.786,1.879s.513,1.34.741,2.044c.257.7.445,1.423.648,2.148.228.717.35,1.461.528,2.18.157.723.26,1.445.387,2.139s.168,1.378.258,2.02.1,1.257.138,1.823c.013.567.088,1.088.076,1.549s0,.867,0,1.2c.011.668.017,1.05.017,1.05s.051-.378.138-1.039c.04-.332.087-.736.142-1.2a14.066,14.066,0,0,0,.079-1.564c.005-.575.047-1.2-.006-1.857s-.039-1.359-.14-2.073-.168-1.458-.327-2.2-.29-1.5-.515-2.239-.42-1.482-.69-2.191c-.237-.721-.535-1.4-.825-2.064-.268-.67-.622-1.275-.914-1.866-.333-.57-.621-1.123-.938-1.6a21.426,21.426,0,0,0-1.619-2.256A10.4,10.4,0,0,0,2929.381,49.043Z" transform="translate(-2929.381 -49.043)" fill="#d2d1d1"/>
          </g>
          <g id="Grupo_60244" data-name="Grupo 60244" transform="translate(9.991 1.571)">
            <path id="Trazado_117047" data-name="Trazado 117047" d="M2897.546,49.043s.175.319.439.89c.127.289.285.636.438,1.047s.309.878.5,1.379c.154.516.351,1.062.491,1.662.166.591.3,1.226.442,1.879s.233,1.341.373,2.028c.089.7.193,1.4.258,2.114.05.712.14,1.422.158,2.125s.068,1.4.062,2.067-.012,1.321-.01,1.938c-.031.616-.061,1.2-.088,1.737-.04,1.079-.144,1.975-.192,2.6s-.072.995-.072.995.082-.353.226-.97a25.976,25.976,0,0,0,.489-2.584c.07-.541.145-1.127.223-1.747.048-.623.1-1.282.135-1.964s.013-1.39,0-2.108-.09-1.446-.133-2.174c-.078-.726-.192-1.448-.294-2.16-.146-.7-.266-1.4-.45-2.064a18.684,18.684,0,0,0-.573-1.89c-.189-.6-.433-1.142-.628-1.651a18.692,18.692,0,0,0-1.224-2.339A8.743,8.743,0,0,0,2897.546,49.043Z" transform="translate(-2897.546 -49.043)" fill="#d2d1d1"/>
          </g>
        </g>
      </g>
      <path id="Trazado_117048" data-name="Trazado 117048" d="M2951.784,332.016s13.767,22.951,13.767,39.465a687.432,687.432,0,0,1-1.527,68.946s-8.994.416-23.654-2.8l3.664-31.057s.19-17.775-5.185-30.574l-8.714-31.186Z" transform="translate(-2916.682 -266.586)" fill="#e77c20"/>
      <path id="Trazado_117049" data-name="Trazado 117049" d="M2775.806,331.051l16.075,7.4s4.435,2.219,3.588,8.2l-9.1,59.107,1.745,33.932s-10.984.868-14.18.4c1.6-65.97,1.681-65.966,2.307-79.371A281.967,281.967,0,0,0,2775.806,331.051Z" transform="translate(-2711.186 -265.838)" fill="#e77c20"/>
      <g id="Grupo_60247" data-name="Grupo 60247" transform="translate(19.622 100.297)">
        <path id="Trazado_117050" data-name="Trazado 117050" d="M2862.624,535.555c.086,4.671.156,11.639.062,20.129H2877.4c.242-9.365.418-15.541.567-20.129Z" transform="translate(-2833.213 -524.488)" fill="none"/>
        <path id="Trazado_117051" data-name="Trazado 117051" d="M2959.859,491.115a36.125,36.125,0,0,0-.318-4.6h-28.928l2.546,9.112c.269.639.52,1.293.76,1.955h26.106C2959.948,493.453,2959.859,491.115,2959.859,491.115Z" transform="translate(-2930.612 -486.516)" fill="#fad369"/>
        <path id="Trazado_117052" data-name="Trazado 117052" d="M2930.335,624.75c.427,5,.39,8.49.39,8.49l-.3,2.576h21.84c.1-3.905.169-7.612.207-11.066Z" transform="translate(-2922.994 -593.554)" fill="#fad369"/>
        <path id="Trazado_117053" data-name="Trazado 117053" d="M2802.9,497.583l1.7-11.067h-16.48c-.147,3.191-.273,6.263-.429,11.067Z" transform="translate(-2742.944 -486.516)" fill="#fad369"/>
        <path id="Trazado_117054" data-name="Trazado 117054" d="M2821.931,624.75h-12.674c-.086,3.274-.179,6.941-.282,11.066h11.792l-.135-2.632Z" transform="translate(-2765.069 -593.554)" fill="#fad369"/>
      </g>
    </g>
  </g>
</svg>
