<svg xmlns="http://www.w3.org/2000/svg" width="689.212" height="179.909" viewBox="0 0 689.212 179.909">
  <g id="Grupo_55040" data-name="Grupo 55040" transform="translate(-1491.372 -4286.341)">
    <g id="Grupo_54952" data-name="Grupo 54952" transform="translate(2051.988 4401.704)">
      <g id="Grupo_54946" data-name="Grupo 54946" transform="translate(47.423 3.964)">
        <path id="Trazado_111026" data-name="Trazado 111026" d="M5028.265,4994.97v-10.662h7.31v15.838" transform="translate(-5027.438 -4983.482)" fill="#7eb9c7"/>
        <path id="Trazado_111027" data-name="Trazado 111027" d="M5032.43,4996.176h-1.651v-15.014h-5.659V4991h-1.651v-11.487h8.961Z" transform="translate(-5023.468 -4979.512)" fill="#3d4451"/>
      </g>
      <g id="Grupo_54951" data-name="Grupo 54951">
        <path id="Trazado_111028" data-name="Trazado 111028" d="M4838.026,5019.118l20.653-15.3,18.442,17.027-1.2-16.662-17.442-16.661-22.855,20.108" transform="translate(-4820.535 -4982.177)" fill="#c7ddeb"/>
        <path id="Trazado_111029" data-name="Trazado 111029" d="M4883.291,5047.99h-41.013v-28.725l20.2-15.915,20.817,15.906Zm-39.095-1.919h37.176V5020.2l-18.88-14.426-18.3,14.417Z" transform="translate(-4826.046 -4995.282)" fill="#3d4451"/>
        <g id="Grupo_54947" data-name="Grupo 54947">
          <path id="Trazado_111030" data-name="Trazado 111030" d="M4822.2,4996.331h8.02l-33.08-32.173-34.885,32.173h8.42l26.464-24.129Z" transform="translate(-4759.795 -4962.836)" fill="#f04f4c"/>
          <path id="Trazado_111031" data-name="Trazado 111031" d="M4820.771,4990.938H4810l-24.692-23.774-26.074,23.774h-11.247l37.356-34.453Zm-9.995-1.918h5.271l-30.735-29.893L4752.9,4989.02h5.594l26.854-24.485Z" transform="translate(-4747.989 -4956.484)" fill="#3d4451"/>
        </g>
        <g id="Grupo_54948" data-name="Grupo 54948" transform="translate(30.366 34.546)">
          <rect id="Rectángulo_6011" data-name="Rectángulo 6011" width="10.225" height="15.685" transform="translate(0.959 0.959)" fill="#7eb9c7"/>
          <path id="Trazado_111032" data-name="Trazado 111032" d="M4936.527,5174.765h-12.143v-17.6h12.143Zm-10.225-1.918h8.305v-13.767H4926.3Z" transform="translate(-4924.384 -5157.16)" fill="#3d4451"/>
        </g>
        <g id="Grupo_54949" data-name="Grupo 54949" transform="translate(10.453 51.158)">
          <rect id="Rectángulo_6012" data-name="Rectángulo 6012" width="51.923" height="4.744" transform="translate(0.959 0.959)" fill="#c7ddeb"/>
          <path id="Trazado_111033" data-name="Trazado 111033" d="M4862.552,5260.327H4808.71v-6.664h53.842Zm-51.924-1.918h50.005v-2.826h-50.005Z" transform="translate(-4808.71 -5253.663)" fill="#3d4451"/>
        </g>
        <g id="Grupo_54950" data-name="Grupo 54950" transform="translate(2.583 56.648)">
          <rect id="Rectángulo_6013" data-name="Rectángulo 6013" width="66.265" height="4.744" transform="translate(0.959 0.959)" fill="#c7ddeb"/>
          <path id="Trazado_111034" data-name="Trazado 111034" d="M4831.174,5292.217h-68.182v-6.662h68.182Zm-66.265-1.918h64.347v-2.826H4764.91Z" transform="translate(-4762.992 -5285.555)" fill="#3d4451"/>
        </g>
      </g>
      <path id="Trazado_111035" data-name="Trazado 111035" d="M4943.5,5200.776a.767.767,0,1,1-.767-.767A.767.767,0,0,1,4943.5,5200.776Z" transform="translate(-4908.574 -5158.087)" fill="#3d4451"/>
    </g>
    <path id="Trazado_111036" data-name="Trazado 111036" d="M5210.508,5178.9c0,4.043-2.438,7.133-4.769,7.133s-5.318-3.277-5.318-7.319,2.989-12.015,5.318-12.015S5210.508,5174.856,5210.508,5178.9Z" transform="translate(-3070.548 -728.807)" fill="#6b968b"/>
    <path id="Trazado_111037" data-name="Trazado 111037" d="M5185.515,5167.272c-3.586,0-7.917-4.271-7.917-9.577,0-4.687,3.828-15,7.917-15,2.356,0,4.131,3.268,5.2,6.008a28.092,28.092,0,0,1,2.009,9.212C5192.729,5162.9,5189.357,5167.272,5185.515,5167.272Zm0-22.353c-.569,0-1.974,1.21-3.507,4.543a22.627,22.627,0,0,0-2.183,8.232c0,4.193,3.452,7.349,5.69,7.349,2.354,0,4.986-3.05,4.986-7.133a26.133,26.133,0,0,0-1.856-8.4C5187.324,5146.143,5186.05,5144.92,5185.515,5144.92Z" transform="translate(-3051.654 -708.933)" fill="#3d4451"/>
    <rect id="Rectángulo_6014" data-name="Rectángulo 6014" width="2.593" height="15.137" transform="translate(2133.034 4450.119)" fill="#3d4451"/>
    <path id="Trazado_111038" data-name="Trazado 111038" d="M5303.744,5213.586c0,3.087-1.863,5.447-3.642,5.447s-4.062-2.5-4.062-5.591,2.283-9.174,4.062-9.174S5303.744,5210.5,5303.744,5213.586Z" transform="translate(-3149.706 -759.91)" fill="#7cbc31"/>
    <path id="Trazado_111039" data-name="Trazado 111039" d="M5284.656,5204.708c-2.738,0-6.046-3.263-6.046-7.314,0-3.579,2.923-11.456,6.046-11.456,3.182,0,5.508,8.155,5.508,11.623C5290.164,5201.369,5287.59,5204.708,5284.656,5204.708Zm0-17.07c-.435,0-1.507.924-2.678,3.471a17.261,17.261,0,0,0-1.667,6.285c0,3.2,2.636,5.612,4.345,5.612,1.8,0,3.808-2.328,3.808-5.446a19.953,19.953,0,0,0-1.417-6.415C5286.038,5188.573,5285.064,5187.639,5284.656,5187.639Z" transform="translate(-3135.277 -744.735)" fill="#3d4451"/>
    <rect id="Rectángulo_6015" data-name="Rectángulo 6015" width="1.701" height="9.446" transform="translate(2148.349 4455.809)" fill="#3d4451"/>
    <g id="Grupo_54953" data-name="Grupo 54953" transform="translate(2154.603 4430.145)">
      <path id="Trazado_111040" data-name="Trazado 111040" d="M5395.438,5130.763a4.543,4.543,0,1,0-4.523-4.3A4.665,4.665,0,0,0,5395.438,5130.763Z" transform="translate(-5382.846 -5121.698)" fill="#4b5360"/>
      <path id="Trazado_111041" data-name="Trazado 111041" d="M5369.571,5143.973l-.34-.382a1.537,1.537,0,0,0-2.351,0l-6.077,6.829h-.437a6.127,6.127,0,0,0-6.937,0h-.1l-6.077-6.829a1.536,1.536,0,0,0-2.35,0l-.34.382a2.036,2.036,0,0,0,0,2.641l5.906,6.638v7.8a2.383,2.383,0,0,0,1.364,2.155v8.9a1.747,1.747,0,0,0,1.743,1.752h1.022a1.747,1.747,0,0,0,1.743-1.752v-8.675h1.2v8.675a1.746,1.746,0,0,0,1.743,1.752h1.022a1.748,1.748,0,0,0,1.744-1.752v-8.9a2.384,2.384,0,0,0,1.362-2.155V5153.5h.026l6.13-6.888A2.035,2.035,0,0,0,5369.571,5143.973Z" transform="translate(-5344.077 -5139.37)" fill="#4b5360"/>
    </g>
    <g id="Grupo_54966" data-name="Grupo 54966" transform="translate(2124.037 4396.158)">
      <g id="Grupo_54957" data-name="Grupo 54957" transform="translate(0 1.057)">
        <path id="Trazado_111042" data-name="Trazado 111042" d="M5213.534,4955.146l-15.912-3.518c-1.387-.306-2.357-3.036-2.3-5.119l.055-2.046c.056-2.084,1.172-4.756,2.573-4.988l16.079-2.656c1.684-.278,3.117,1.695,3.049,4.2l-.272,10.1C5216.738,4953.622,5215.2,4955.515,5213.534,4955.146Z" transform="translate(-5190.36 -4935.695)" fill="#f5fafc"/>
        <g id="Grupo_54954" data-name="Grupo 54954" transform="translate(0 4.705)">
          <path id="Trazado_111043" data-name="Trazado 111043" d="M5176.117,4962.387a4.679,4.679,0,1,0-.252,9.35" transform="translate(-5170.355 -4961.586)" fill="#f04f4c"/>
          <path id="Trazado_111044" data-name="Trazado 111044" d="M5172,4968.695a5.475,5.475,0,1,1,.137-10.948l.159,0-.043,1.6a3.882,3.882,0,1,0-.209,7.754Z" transform="translate(-5166.517 -4957.747)" fill="#3d4451"/>
        </g>
        <g id="Grupo_54955" data-name="Grupo 54955" transform="translate(6.383 15.663)">
          <path id="Trazado_111045" data-name="Trazado 111045" d="M5214.382,5022.663s-3.881,3.834-.926,7.992a.514.514,0,0,1-.431.807l-3.928-.106a.9.9,0,0,1-.863-.922l.24-8.906" transform="translate(-5207.436 -5021.506)" fill="#fdc345"/>
          <path id="Trazado_111046" data-name="Trazado 111046" d="M5209.2,5032.156h-.037l-3.926-.1a1.672,1.672,0,0,1-1.182-.533,1.69,1.69,0,0,1-.458-1.21l.24-8.9,1.6.043-.24,8.9a.106.106,0,0,0,.027.076.09.09,0,0,0,.06.028l3.378.09c-2.162-3.573-.123-7.125,1.323-8.555l1.122,1.136-.561-.567.563.565c-.138.14-3.355,3.421-.838,6.963a1.312,1.312,0,0,1-1.067,2.068Z" transform="translate(-5203.598 -5021.402)" fill="#3d4451"/>
        </g>
        <path id="Trazado_111047" data-name="Trazado 111047" d="M5211.251,4978.074l-15.09-2.559c-1.315-.223-2.253-2.132-2.214-3.583l.038-1.425c.04-1.452,1.079-3.308,2.405-3.458l15.206-1.742a2.743,2.743,0,0,1,2.916,2.947l-.189,7.037A2.743,2.743,0,0,1,5211.251,4978.074Z" transform="translate(-5189.224 -4959.287)" fill="#fdc345"/>
        <path id="Trazado_111048" data-name="Trazado 111048" d="M5208.667,4951.008a3.084,3.084,0,0,1-.652-.071l-15.911-3.518c-2.16-.478-3.224-3.92-3.162-6.222l.055-2.045c.063-2.3,1.31-5.682,3.493-6.042l16.078-2.656a3.145,3.145,0,0,1,2.607.789,5.788,5.788,0,0,1,1.72,4.523l-.273,10.1a5.793,5.793,0,0,1-1.959,4.425A3.232,3.232,0,0,1,5208.667,4951.008Zm.393-18.4a.877.877,0,0,0-.133.011l-16.078,2.655c-.525.086-1.6,1.922-1.655,3.934l-.055,2.045c-.054,2.012.92,3.9,1.44,4.018l15.912,3.518a.97.97,0,0,0,.82-.233,3.715,3.715,0,0,0,1.116-2.752l.272-10.1a3.719,3.719,0,0,0-.966-2.809A1.026,1.026,0,0,0,5209.06,4932.611Z" transform="translate(-5185.081 -4930.414)" fill="#3d4451"/>
        <g id="Grupo_54956" data-name="Grupo 54956" transform="translate(22.376 0.839)">
          <line id="Línea_169" data-name="Línea 169" x1="0.485" y2="17.977" transform="translate(0.798 0.021)" fill="#fdc345"/>
          <rect id="Rectángulo_6016" data-name="Rectángulo 6016" width="17.983" height="1.597" transform="matrix(0.027, -1, 1, 0.027, 0, 17.977)" fill="#3d4451"/>
        </g>
      </g>
      <g id="Grupo_54965" data-name="Grupo 54965" transform="translate(29.933 0)">
        <g id="Grupo_54964" data-name="Grupo 54964">
          <g id="Grupo_54959" data-name="Grupo 54959" transform="translate(6.716)">
            <g id="Grupo_54958" data-name="Grupo 54958">
              <path id="Trazado_111049" data-name="Trazado 111049" d="M5381.094,4948.594l-1.681-1.8a14.95,14.95,0,0,0,.621-20.821l1.777-1.7A17.446,17.446,0,0,1,5381.094,4948.594Z" transform="translate(-5379.413 -4924.272)" fill="#3d4451"/>
            </g>
          </g>
          <g id="Grupo_54961" data-name="Grupo 54961" transform="translate(3.359 3.401)">
            <g id="Grupo_54960" data-name="Grupo 54960">
              <path id="Trazado_111050" data-name="Trazado 111050" d="M5361.591,4961.365l-1.682-1.8a9.965,9.965,0,0,0,.432-13.834l1.775-1.7A12.458,12.458,0,0,1,5361.591,4961.365Z" transform="translate(-5359.91 -4944.031)" fill="#3d4451"/>
            </g>
          </g>
          <g id="Grupo_54963" data-name="Grupo 54963" transform="translate(0 6.803)">
            <g id="Grupo_54962" data-name="Grupo 54962">
              <path id="Trazado_111051" data-name="Trazado 111051" d="M5342.082,4974.135l-1.683-1.8a4.989,4.989,0,0,0,.243-6.846l1.776-1.7A7.485,7.485,0,0,1,5342.082,4974.135Z" transform="translate(-5340.398 -4963.79)" fill="#3d4451"/>
            </g>
          </g>
        </g>
      </g>
    </g>
    <g id="Grupo_54967" data-name="Grupo 54967" transform="translate(1598.285 4426.92)">
      <path id="Rectángulo_6017" data-name="Rectángulo 6017" d="M15.764,0H26.2A15.764,15.764,0,0,1,41.967,15.764V37.745a0,0,0,0,1,0,0H0a0,0,0,0,1,0,0V15.764A15.764,15.764,0,0,1,15.764,0Z" transform="translate(0.786 0.786)" fill="#7eb9c7"/>
      <path id="Trazado_111052" data-name="Trazado 111052" d="M2155.97,5142.282h-43.54v-35.817a3.5,3.5,0,0,1,3.5-3.5h36.54a3.5,3.5,0,0,1,3.5,3.5ZM2114,5140.709h40.4v-34.245a1.929,1.929,0,0,0-1.928-1.927h-36.54a1.929,1.929,0,0,0-1.927,1.927Z" transform="translate(-2112.43 -5102.965)" fill="#3d4451"/>
    </g>
    <path id="Trazado_111053" data-name="Trazado 111053" d="M2059.753,4912.87a6.429,6.429,0,0,1-6.308-6.545v-4.667c0-6.993-3.379-13.635-9.515-18.7a39.571,39.571,0,0,0-48.253,0c-6.136,5.066-9.514,11.709-9.514,18.7v4.667a6.313,6.313,0,1,1-12.617,0v-4.667c0-11.063,5.069-21.342,14.274-28.941a51.8,51.8,0,0,1,63.966,0c9.2,7.6,14.274,17.878,14.274,28.941v4.667A6.43,6.43,0,0,1,2059.753,4912.87Z" transform="translate(-399.17 -476.283)" fill="#c7ddeb"/>
    <path id="Trazado_111054" data-name="Trazado 111054" d="M2036.444,4875.283a8.421,8.421,0,0,1-8.264-8.551v-5.026c0-7.075-3.427-13.814-9.651-18.978a40.73,40.73,0,0,0-49.777,0c-6.223,5.164-9.65,11.9-9.65,18.978v5.026a8.269,8.269,0,1,1-16.528,0v-5.026c0-12.369,5.625-23.847,15.838-32.323a56.791,56.791,0,0,1,70.459,0c10.213,8.476,15.838,19.954,15.838,32.323v5.026A8.421,8.421,0,0,1,2036.444,4875.283Zm-42.8-44.055a41.9,41.9,0,0,1,26.811,9.182c6.925,5.747,10.739,13.309,10.739,21.3v5.026a5.261,5.261,0,1,0,10.506,0v-5.026c0-11.457-5.238-22.112-14.749-30a53.781,53.781,0,0,0-66.613,0c-9.511,7.893-14.75,18.548-14.75,30v5.026a5.261,5.261,0,1,0,10.506,0v-5.026c0-7.987,3.814-15.55,10.739-21.3A41.9,41.9,0,0,1,1993.641,4831.228Z" transform="translate(-373.529 -439.42)" fill="#3d4451"/>
    <g id="Grupo_54969" data-name="Grupo 54969" transform="translate(1529.759 4442.608)">
      <rect id="Rectángulo_6018" data-name="Rectángulo 6018" width="19.826" height="12.306" rx="6.153" transform="translate(39.355 14.367) rotate(180)" fill="#fdc345"/>
      <g id="Grupo_54968" data-name="Grupo 54968">
        <path id="Trazado_111055" data-name="Trazado 111055" d="M1829.256,5208.837h-13.175a3.717,3.717,0,0,1-3.712-3.712v-7.319a3.716,3.716,0,0,1,3.712-3.712h13.175a3.716,3.716,0,0,1,3.712,3.712v7.319A3.717,3.717,0,0,1,1829.256,5208.837Zm-13.175-13.414a2.386,2.386,0,0,0-2.384,2.383v7.319a2.387,2.387,0,0,0,2.384,2.384h13.175a2.387,2.387,0,0,0,2.384-2.384v-7.319a2.386,2.386,0,0,0-2.384-2.383Z" transform="translate(-1795.498 -5194.095)" fill="#3d4451"/>
        <path id="Trazado_111056" data-name="Trazado 111056" d="M1714.362,5225.108v1.158a.728.728,0,0,0,.72.737h3.957a3.493,3.493,0,0,0-.3,1.419,3.355,3.355,0,1,0,6.709,0,3.493,3.493,0,0,0-.3-1.419h14.865a3.633,3.633,0,0,0-.287,1.419,3.491,3.491,0,1,0,6.98,0,3.64,3.64,0,0,0-.286-1.419h6.372a.728.728,0,0,0,.72-.737v-1.158a.729.729,0,0,0-.72-.737h-23.576v-11.494a1.7,1.7,0,0,0-1.809-1.556h-5.868a2.267,2.267,0,0,0-1.717.746l-4.318,5.026a1.7,1.7,0,0,0-.426,1.111v6.168A.729.729,0,0,0,1714.362,5225.108Zm27.486,3.362a1.416,1.416,0,1,1,1.415,1.449A1.432,1.432,0,0,1,1741.848,5228.47Zm-21.16,0a1.36,1.36,0,1,1,1.36,1.392A1.377,1.377,0,0,1,1720.688,5228.469Zm-2.357-10.957a.967.967,0,0,1,.2-.6l2.075-2.631a.839.839,0,0,1,.656-.33h3.688a.763.763,0,0,1,.722.8v4.434h-7.343Z" transform="translate(-1714.362 -5208.355)" fill="#3d4451"/>
        <path id="Trazado_111057" data-name="Trazado 111057" d="M1846.39,5214.48h-12.866a.333.333,0,0,1,0-.667h12.866a.333.333,0,0,1,0,.667Z" transform="translate(-1812.735 -5210.418)" fill="#3d4451"/>
        <path id="Trazado_111058" data-name="Trazado 111058" d="M1846.39,5237.13h-12.866a.333.333,0,0,1,0-.667h12.866a.333.333,0,1,1,0,.667Z" transform="translate(-1812.735 -5229.17)" fill="#3d4451"/>
        <path id="Trazado_111059" data-name="Trazado 111059" d="M1846.39,5257.622h-12.866a.333.333,0,1,1,0-.666h12.866a.333.333,0,1,1,0,.666Z" transform="translate(-1812.735 -5246.135)" fill="#3d4451"/>
      </g>
    </g>
    <path id="Trazado_111060" data-name="Trazado 111060" d="M2531.229,5166.228h-74.373a1.314,1.314,0,0,1-1.313-1.313v-31.435a1.313,1.313,0,0,1,2.626,0V5163.6h73.06a1.314,1.314,0,0,1,0,2.627Z" transform="translate(-798.191 -700.22)" fill="#3d4451"/>
    <path id="Trazado_111061" data-name="Trazado 111061" d="M1966.853,5170.046h-10.979a1.313,1.313,0,1,1,0-2.626h8.352V5138.48a1.313,1.313,0,0,1,2.626,0Z" transform="translate(-383.453 -704.36)" fill="#3d4451"/>
    <g id="Grupo_54970" data-name="Grupo 54970" transform="translate(1605.57 4451.223)">
      <rect id="Rectángulo_6019" data-name="Rectángulo 6019" width="13.153" height="12.026" transform="translate(0.885 0.885)" fill="#fdc345"/>
      <path id="Trazado_111062" data-name="Trazado 111062" d="M2169.671,5257.937h-14.922v-13.8h14.922Zm-13.153-1.77H2167.9v-10.256h-11.383Z" transform="translate(-2154.749 -5244.141)" fill="#3d4451"/>
    </g>
    <g id="Grupo_54971" data-name="Grupo 54971" transform="translate(1619.971 4451.223)">
      <rect id="Rectángulo_6020" data-name="Rectángulo 6020" width="13.153" height="12.026" transform="translate(0.885 0.885)" fill="#fdc345"/>
      <path id="Trazado_111063" data-name="Trazado 111063" d="M2253.329,5257.937h-14.923v-13.8h14.923Zm-13.153-1.77h11.384v-10.256h-11.384Z" transform="translate(-2238.406 -5244.141)" fill="#3d4451"/>
    </g>
    <g id="Grupo_54972" data-name="Grupo 54972" transform="translate(1612.625 4438.562)">
      <rect id="Rectángulo_6021" data-name="Rectángulo 6021" width="13.153" height="12.026" transform="translate(0.885 0.885)" fill="#fdc345"/>
      <path id="Trazado_111064" data-name="Trazado 111064" d="M2210.651,5184.389h-14.923v-13.795h14.923Zm-13.154-1.77h11.384v-10.256H2197.5Z" transform="translate(-2195.728 -5170.594)" fill="#3d4451"/>
    </g>
    <g id="Grupo_54973" data-name="Grupo 54973" transform="translate(1617.198 4442.002)">
      <line id="Línea_170" data-name="Línea 170" x2="4.298" transform="translate(0.632 0.632)" fill="#fdc345"/>
      <path id="Trazado_111065" data-name="Trazado 111065" d="M2227.228,5191.846h-4.3a.632.632,0,1,1,0-1.264h4.3a.632.632,0,0,1,0,1.264Z" transform="translate(-2222.298 -5190.582)" fill="#3d4451"/>
    </g>
    <g id="Grupo_54974" data-name="Grupo 54974" transform="translate(1609.997 4454.717)">
      <line id="Línea_171" data-name="Línea 171" x2="4.298" transform="translate(0.632 0.632)" fill="#fdc345"/>
      <path id="Trazado_111066" data-name="Trazado 111066" d="M2185.394,5265.7h-4.3a.632.632,0,1,1,0-1.263h4.3a.632.632,0,1,1,0,1.263Z" transform="translate(-2180.464 -5264.438)" fill="#3d4451"/>
    </g>
    <g id="Grupo_54975" data-name="Grupo 54975" transform="translate(1624.656 4454.97)">
      <line id="Línea_172" data-name="Línea 172" x2="4.298" transform="translate(0.632 0.632)" fill="#fdc345"/>
      <path id="Trazado_111067" data-name="Trazado 111067" d="M2270.548,5267.169h-4.3a.632.632,0,1,1,0-1.263h4.3a.632.632,0,1,1,0,1.263Z" transform="translate(-2265.619 -5265.906)" fill="#3d4451"/>
    </g>
    <path id="Trazado_111068" data-name="Trazado 111068" d="M2137.033,5118.817h-2.047V5080.5a2.888,2.888,0,0,0-2.886-2.885h-43.616a2.889,2.889,0,0,0-2.886,2.885v38.314h-2.047V5080.5a4.938,4.938,0,0,1,4.933-4.932H2132.1a4.938,4.938,0,0,1,4.933,4.932Z" transform="translate(-490.237 -653.367)" fill="#3d4451"/>
    <circle id="Elipse_4167" data-name="Elipse 4167" cx="5.219" cy="5.219" r="5.219" transform="translate(1614.311 4406.831)" fill="#c7ddeb"/>
    <path id="Trazado_111069" data-name="Trazado 111069" d="M2204.315,4982.3a6.4,6.4,0,1,1,6.4-6.4A6.406,6.406,0,0,1,2204.315,4982.3Zm0-11.066a4.668,4.668,0,1,0,4.668,4.667A4.673,4.673,0,0,0,2204.315,4971.236Z" transform="translate(-584.915 -565.56)" fill="#3d4451"/>
    <path id="Trazado_111070" data-name="Trazado 111070" d="M2547.614,5181.521c0,3.46-2.333,6.1-4.562,6.1s-5.088-2.806-5.088-6.267,2.859-10.279,5.088-10.279S2547.614,5178.061,2547.614,5181.521Z" transform="translate(-866.425 -732.434)" fill="#7cbc31"/>
    <path id="Trazado_111071" data-name="Trazado 111071" d="M2523.982,5171.363c-3.4,0-7.516-3.68-7.516-8.25a19.433,19.433,0,0,1,2.3-7.9c.958-1.864,2.91-4.989,5.219-4.989,2.2,0,3.883,2.794,4.91,5.139a22.041,22.041,0,0,1,1.933,7.94C2530.825,5168.052,2527.219,5171.363,2523.982,5171.363Zm0-19.127c-.685,0-2.05,1.22-3.427,3.9a17.62,17.62,0,0,0-2.073,6.982c0,3.557,3.337,6.235,5.5,6.235,2.279,0,4.827-2.587,4.827-6.05a20.217,20.217,0,0,0-1.764-7.131C2525.863,5153.467,2524.628,5152.236,2523.982,5152.236Z" transform="translate(-848.628 -715.166)" fill="#3d4451"/>
    <rect id="Rectángulo_6022" data-name="Rectángulo 6022" width="2.016" height="10.586" transform="translate(1674.696 4451.477)" fill="#3d4451"/>
    <path id="Trazado_111072" data-name="Trazado 111072" d="M3451.615,5181.521c0,3.46-2.333,6.1-4.562,6.1s-5.087-2.806-5.087-6.267,2.859-10.279,5.087-10.279S3451.615,5178.061,3451.615,5181.521Z" transform="translate(-1614.804 -732.434)" fill="#7cbc31"/>
    <path id="Trazado_111073" data-name="Trazado 111073" d="M3427.982,5171.363c-3.4,0-7.516-3.68-7.516-8.25a19.428,19.428,0,0,1,2.3-7.9c.958-1.864,2.909-4.989,5.219-4.989,2.2,0,3.883,2.794,4.91,5.139a22.042,22.042,0,0,1,1.933,7.94C3434.825,5168.052,3431.219,5171.363,3427.982,5171.363Zm0-19.127c-.686,0-2.051,1.22-3.427,3.9a17.614,17.614,0,0,0-2.074,6.982c0,3.557,3.337,6.235,5.5,6.235,2.278,0,4.827-2.587,4.827-6.05a20.212,20.212,0,0,0-1.764-7.131C3429.863,5153.467,3428.629,5152.236,3427.982,5152.236Z" transform="translate(-1597.007 -715.166)" fill="#3d4451"/>
    <rect id="Rectángulo_6023" data-name="Rectángulo 6023" width="2.016" height="10.586" transform="translate(1830.317 4451.477)" fill="#3d4451"/>
    <g id="Grupo_54976" data-name="Grupo 54976" transform="translate(1493.971 4439.184)">
      <path id="Trazado_111074" data-name="Trazado 111074" d="M1534.736,5202.611c0,3.14-2.117,5.539-4.14,5.539s-4.617-2.544-4.617-5.685,2.595-9.329,4.617-9.329S1534.736,5199.471,1534.736,5202.611Z" transform="translate(-1522.621 -5189.878)" fill="#7cbc31"/>
      <path id="Trazado_111075" data-name="Trazado 111075" d="M1513.29,5193.4c-3.089,0-6.82-3.339-6.82-7.487a17.647,17.647,0,0,1,2.084-7.172c.87-1.691,2.641-4.527,4.736-4.527,1.995,0,3.524,2.536,4.455,4.663a20.011,20.011,0,0,1,1.754,7.205C1519.5,5190.389,1516.227,5193.4,1513.29,5193.4Zm0-17.358c-.622,0-1.861,1.106-3.11,3.535a15.994,15.994,0,0,0-1.881,6.336c0,3.228,3.028,5.658,4.991,5.658,2.068,0,4.381-2.348,4.381-5.49a18.346,18.346,0,0,0-1.6-6.47C1515,5177.154,1513.877,5176.037,1513.29,5176.037Z" transform="translate(-1506.47 -5174.208)" fill="#3d4451"/>
      <rect id="Rectángulo_6024" data-name="Rectángulo 6024" width="1.829" height="9.606" transform="translate(6.223 14.902)" fill="#3d4451"/>
    </g>
    <g id="Grupo_54977" data-name="Grupo 54977" transform="translate(1509.998 4434.469)">
      <path id="Trazado_111076" data-name="Trazado 111076" d="M1634.349,5184.576c0,4.463-2.753,7.873-5.382,7.873s-6-3.618-6-8.081,3.373-13.261,6-13.261S1634.349,5180.113,1634.349,5184.576Z" transform="translate(-1618.937 -5166.925)" fill="#7cbc31"/>
      <path id="Trazado_111077" data-name="Trazado 111077" d="M1608.1,5173.189c-3.863,0-8.528-4.547-8.528-10.193,0-5.086,4.281-16.182,8.528-16.182,4.387,0,7.734,11.659,7.734,16.421C1615.833,5169.1,1611.757,5173.189,1608.1,5173.189Zm0-24.675c-.929,0-2.628,1.621-4.331,5.243a24.914,24.914,0,0,0-2.5,9.239,9.14,9.14,0,0,0,2.364,6.042,6.554,6.554,0,0,0,4.464,2.45c2.848,0,6.034-3.53,6.034-8.253a28.7,28.7,0,0,0-2.12-9.405C1610.442,5149.907,1608.923,5148.514,1608.1,5148.514Z" transform="translate(-1599.571 -5146.814)" fill="#3d4451"/>
      <rect id="Rectángulo_6025" data-name="Rectángulo 6025" width="2.04" height="8.253" transform="translate(7.921 20.733)" fill="#3d4451"/>
    </g>
    <g id="Grupo_54978" data-name="Grupo 54978" transform="translate(1727.145 4376.172)">
      <path id="Trazado_111078" data-name="Trazado 111078" d="M2981.257,4883.167h0a3.075,3.075,0,0,1-3.071-3.125c0-.109,0-.218,0-.328,0-14.79-11.99-26.962-27.4-28.531v-5.158a2.561,2.561,0,0,0-2.561-2.562h-4.8a2.561,2.561,0,0,0-2.561,2.562v17.467a3,3,0,0,1-3,3h-2.559v-13.172c-10.973,4.387-18.661,14.552-18.661,26.395a26.673,26.673,0,0,0,.229,3.454h-4.885a3.647,3.647,0,0,0-3.638,3.008,3.582,3.582,0,0,0,3.529,4.138h69.482a3.582,3.582,0,0,0,3.53-4.138A3.647,3.647,0,0,0,2981.257,4883.167Z" transform="translate(-2900.161 -4837.388)" fill="#fdc345"/>
      <path id="Trazado_111079" data-name="Trazado 111079" d="M2942.05,5054.558h-73.74a7.333,7.333,0,0,1,0-14.667h73.74a7.333,7.333,0,1,1,0,14.667Zm-73.74-11.407a4.074,4.074,0,0,0,0,8.147h73.74a4.074,4.074,0,1,0,0-8.147Z" transform="translate(-2860.977 -5000.001)" fill="#3d4451"/>
      <path id="Trazado_111080" data-name="Trazado 111080" d="M3198.928,4876.1l-3.286-.089c.375-13.814-10.321-27.346-24.879-31.475l.9-3.162a39.021,39.021,0,0,1,19.59,13.046A33.453,33.453,0,0,1,3198.928,4876.1Z" transform="translate(-3117.434 -4835.661)" fill="#3d4451"/>
      <path id="Trazado_111081" data-name="Trazado 111081" d="M2898.717,4876.121c-.2-7.475,2.76-15.174,8.342-21.68A42.621,42.621,0,0,1,2927.2,4841.4l.922,3.156c-13.152,3.842-26.516,16.667-26.114,31.479Z" transform="translate(-2892.212 -4835.678)" fill="#3d4451"/>
      <path id="Trazado_111082" data-name="Trazado 111082" d="M3078.318,4837.969h-3.188v-25.6c0-.357-.819-1.014-2.156-1.014h-10.019c-1.337,0-2.156.657-2.156,1.014v25.6h-3.188v-25.6c0-2.356,2.348-4.2,5.344-4.2h10.019c3,0,5.344,1.845,5.344,4.2Z" transform="translate(-3023.761 -4808.171)" fill="#3d4451"/>
      <rect id="Rectángulo_6026" data-name="Rectángulo 6026" width="2.445" height="24.198" transform="translate(13.411 21.664) rotate(-32.074)" fill="#3d4451"/>
      <rect id="Rectángulo_6027" data-name="Rectángulo 6027" width="24.198" height="2.445" transform="matrix(0.531, -0.847, 0.847, 0.531, 59.854, 40.87)" fill="#3d4451"/>
    </g>
    <g id="Grupo_54980" data-name="Grupo 54980" transform="translate(1751.58 4340.315)">
      <g id="Grupo_54979" data-name="Grupo 54979" transform="translate(0 0)">
        <path id="Trazado_111083" data-name="Trazado 111083" d="M3034.855,4611.592c-.007-.177-.021-.357-.039-.536a7.7,7.7,0,0,0-7.08-6.97,8.073,8.073,0,0,1-13.69-.016,7.709,7.709,0,0,0-7.073,7.087,8.246,8.246,0,0,0,.248,2.9,3.514,3.514,0,0,0,.823,1.487l12.758,13.616,12.408-13.195A6.052,6.052,0,0,0,3034.855,4611.592Z" transform="translate(-3006.247 -4603.339)" fill="#f04f4c"/>
        <path id="Trazado_111084" data-name="Trazado 111084" d="M3017.5,4627.919l-13.284-14.8a4.483,4.483,0,0,1-.994-1.87,9.713,9.713,0,0,1-.268-3.279,8.632,8.632,0,0,1,7.772-8.08,8.8,8.8,0,0,0,13.727.017,8.63,8.63,0,0,1,7.781,7.944c.02.2.034.4.042.6h0a7.258,7.258,0,0,1-1.837,5.1Zm-6.323-26.493c-.12,0-.24,0-.361.011a7.076,7.076,0,0,0-6.319,6.666,8.16,8.16,0,0,0,.225,2.757,2.937,2.937,0,0,0,.647,1.224l12.133,13.52,11.785-13.084a5.693,5.693,0,0,0,1.441-4c-.007-.17-.019-.341-.036-.511a7.072,7.072,0,0,0-6.325-6.552,6.586,6.586,0,0,0-6.084,3.539l-.68,1.224-.676-1.226A6.615,6.615,0,0,0,3011.179,4601.426Z" transform="translate(-3002.919 -4599.876)" fill="#3d4451"/>
      </g>
      <path id="Trazado_111085" data-name="Trazado 111085" d="M3040.345,4661.774h-.05a1.925,1.925,0,0,1-1.778-1.592l-1.758-7.825-1.528,4.657a1.887,1.887,0,0,1-1.767,1.377H3030.3v-2.19h2.893l1.858-5.661a1.868,1.868,0,0,1,1.848-1.374,1.934,1.934,0,0,1,1.745,1.591l1.738,7.73,1.744-6.1a1.885,1.885,0,0,1,1.79-1.462h0a1.886,1.886,0,0,1,1.791,1.453l1.019,3.513h3.574v2.19h-3.85a1.909,1.909,0,0,1-1.791-1.455l-.741-2.554-1.784,6.241A1.9,1.9,0,0,1,3040.345,4661.774Zm3.252-8.81Z" transform="translate(-3025.586 -4640.678)" fill="#3d4451"/>
    </g>
    <g id="Grupo_54984" data-name="Grupo 54984" transform="translate(1978.245 4370.202)">
      <rect id="Rectángulo_6028" data-name="Rectángulo 6028" width="52.542" height="82.148" transform="translate(17.401 10.255)" fill="#c7ddeb"/>
      <path id="Trazado_111086" data-name="Trazado 111086" d="M4406.343,4883.528h-62.129v-90.065h62.129Zm-59.451-2.68h56.772v-84.707h-56.772Z" transform="translate(-4339.979 -4790.023)" fill="#3d4451"/>
      <g id="Grupo_54981" data-name="Grupo 54981" transform="translate(28.374 76.652)">
        <rect id="Rectángulo_6029" data-name="Rectángulo 6029" width="12.56" height="14.168" transform="translate(0.75 0.75)" fill="#7eb9c7"/>
        <path id="Trazado_111087" data-name="Trazado 111087" d="M4498.5,5234.427h-14.06v-15.667h14.06Zm-12.561-1.5H4497v-12.668h-11.062Z" transform="translate(-4484.44 -5218.759)" fill="#3d4451"/>
      </g>
      <rect id="Rectángulo_6030" data-name="Rectángulo 6030" width="8.88" height="8.232" transform="translate(14.575 12.828)" fill="#f5fafc"/>
      <rect id="Rectángulo_6031" data-name="Rectángulo 6031" width="8.88" height="8.232" transform="translate(30.694 12.828)" fill="#f5fafc"/>
      <rect id="Rectángulo_6032" data-name="Rectángulo 6032" width="8.88" height="8.232" transform="translate(46.603 12.828)" fill="#f5fafc"/>
      <rect id="Rectángulo_6033" data-name="Rectángulo 6033" width="7.013" height="6.237" transform="translate(16.459 14.733)" fill="#7eb9c7"/>
      <rect id="Rectángulo_6034" data-name="Rectángulo 6034" width="6.803" height="6.713" transform="translate(32.787 14.733)" fill="#7eb9c7"/>
      <rect id="Rectángulo_6035" data-name="Rectángulo 6035" width="6.594" height="6.237" transform="translate(48.487 14.733)" fill="#7eb9c7"/>
      <path id="Trazado_111088" data-name="Trazado 111088" d="M4410.187,4853.258h-10.442v-9.795h10.442Zm-8.879-1.562h7.316v-6.669h-7.316Z" transform="translate(-4385.951 -4831.417)" fill="#3d4451"/>
      <path id="Trazado_111089" data-name="Trazado 111089" d="M4504.381,4853.258h-10.441v-9.795h10.441Zm-8.879-1.562h7.317v-6.669H4495.5Z" transform="translate(-4463.931 -4831.417)" fill="#3d4451"/>
      <path id="Trazado_111090" data-name="Trazado 111090" d="M4596.334,4853.258h-10.442v-9.795h10.442Zm-8.88-1.562h7.317v-6.669h-7.317Z" transform="translate(-4540.054 -4831.417)" fill="#3d4451"/>
      <rect id="Rectángulo_6036" data-name="Rectángulo 6036" width="8.88" height="8.232" transform="translate(14.575 27.591)" fill="#f5fafc"/>
      <rect id="Rectángulo_6037" data-name="Rectángulo 6037" width="8.88" height="8.232" transform="translate(30.694 27.591)" fill="#f5fafc"/>
      <rect id="Rectángulo_6038" data-name="Rectángulo 6038" width="8.88" height="8.232" transform="translate(46.603 27.591)" fill="#f5fafc"/>
      <rect id="Rectángulo_6039" data-name="Rectángulo 6039" width="7.013" height="6.237" transform="translate(16.459 29.496)" fill="#7eb9c7"/>
      <rect id="Rectángulo_6040" data-name="Rectángulo 6040" width="6.803" height="6.713" transform="translate(32.787 29.496)" fill="#7eb9c7"/>
      <rect id="Rectángulo_6041" data-name="Rectángulo 6041" width="6.594" height="6.237" transform="translate(48.487 29.496)" fill="#7eb9c7"/>
      <path id="Trazado_111091" data-name="Trazado 111091" d="M4410.187,4939.016h-10.442v-9.795h10.442Zm-8.879-1.563h7.316v-6.669h-7.316Z" transform="translate(-4385.951 -4902.412)" fill="#3d4451"/>
      <path id="Trazado_111092" data-name="Trazado 111092" d="M4504.381,4939.016h-10.441v-9.795h10.441Zm-8.879-1.563h7.317v-6.669H4495.5Z" transform="translate(-4463.931 -4902.412)" fill="#3d4451"/>
      <path id="Trazado_111093" data-name="Trazado 111093" d="M4596.334,4939.016h-10.442v-9.795h10.442Zm-8.88-1.563h7.317v-6.669h-7.317Z" transform="translate(-4540.054 -4902.412)" fill="#3d4451"/>
      <rect id="Rectángulo_6042" data-name="Rectángulo 6042" width="8.88" height="8.232" transform="translate(14.575 42.354)" fill="#f5fafc"/>
      <rect id="Rectángulo_6043" data-name="Rectángulo 6043" width="8.88" height="8.232" transform="translate(30.694 42.354)" fill="#f5fafc"/>
      <rect id="Rectángulo_6044" data-name="Rectángulo 6044" width="8.88" height="8.232" transform="translate(46.603 42.354)" fill="#f5fafc"/>
      <rect id="Rectángulo_6045" data-name="Rectángulo 6045" width="7.013" height="6.237" transform="translate(16.459 44.258)" fill="#7eb9c7"/>
      <rect id="Rectángulo_6046" data-name="Rectángulo 6046" width="6.803" height="6.713" transform="translate(32.787 44.258)" fill="#7eb9c7"/>
      <rect id="Rectángulo_6047" data-name="Rectángulo 6047" width="6.594" height="6.237" transform="translate(48.487 44.258)" fill="#7eb9c7"/>
      <path id="Trazado_111094" data-name="Trazado 111094" d="M4410.187,5024.773h-10.442v-9.795h10.442Zm-8.879-1.562h7.316v-6.669h-7.316Z" transform="translate(-4385.951 -4973.406)" fill="#3d4451"/>
      <path id="Trazado_111095" data-name="Trazado 111095" d="M4504.381,5024.773h-10.441v-9.795h10.441Zm-8.879-1.562h7.317v-6.669H4495.5Z" transform="translate(-4463.931 -4973.406)" fill="#3d4451"/>
      <path id="Trazado_111096" data-name="Trazado 111096" d="M4596.334,5024.773h-10.442v-9.795h10.442Zm-8.88-1.562h7.317v-6.669h-7.317Z" transform="translate(-4540.054 -4973.406)" fill="#3d4451"/>
      <rect id="Rectángulo_6048" data-name="Rectángulo 6048" width="8.88" height="8.232" transform="translate(14.575 57.116)" fill="#f5fafc"/>
      <rect id="Rectángulo_6049" data-name="Rectángulo 6049" width="8.88" height="8.232" transform="translate(30.694 57.116)" fill="#f5fafc"/>
      <rect id="Rectángulo_6050" data-name="Rectángulo 6050" width="8.88" height="8.232" transform="translate(46.603 57.116)" fill="#f5fafc"/>
      <rect id="Rectángulo_6051" data-name="Rectángulo 6051" width="7.013" height="6.237" transform="translate(16.459 59.021)" fill="#7eb9c7"/>
      <rect id="Rectángulo_6052" data-name="Rectángulo 6052" width="6.803" height="6.713" transform="translate(32.787 59.021)" fill="#7eb9c7"/>
      <rect id="Rectángulo_6053" data-name="Rectángulo 6053" width="6.594" height="6.237" transform="translate(48.487 59.021)" fill="#7eb9c7"/>
      <path id="Trazado_111097" data-name="Trazado 111097" d="M4410.187,5110.53h-10.442v-9.794h10.442Zm-8.879-1.562h7.316v-6.67h-7.316Z" transform="translate(-4385.951 -5044.4)" fill="#3d4451"/>
      <path id="Trazado_111098" data-name="Trazado 111098" d="M4504.381,5110.53h-10.441v-9.794h10.441Zm-8.879-1.562h7.317v-6.67H4495.5Z" transform="translate(-4463.931 -5044.4)" fill="#3d4451"/>
      <path id="Trazado_111099" data-name="Trazado 111099" d="M4596.334,5110.53h-10.442v-9.794h10.442Zm-8.88-1.562h7.317v-6.67h-7.317Z" transform="translate(-4540.054 -5044.4)" fill="#3d4451"/>
      <g id="Grupo_54982" data-name="Grupo 54982" transform="translate(0.132 69.527)">
        <rect id="Rectángulo_6054" data-name="Rectángulo 6054" width="69.08" height="3.334" rx="1.667" transform="translate(0.732 0.732)" fill="#fdc345"/>
        <path id="Trazado_111100" data-name="Trazado 111100" d="M4388.683,5182.164h-66.058a2.245,2.245,0,0,1-2.243-2.244v-.312a2.245,2.245,0,0,1,2.243-2.243h66.058a2.245,2.245,0,0,1,2.243,2.243v.312A2.246,2.246,0,0,1,4388.683,5182.164Zm-66.058-3.333a.779.779,0,0,0-.778.778v.312a.78.78,0,0,0,.778.78h66.058a.779.779,0,0,0,.778-.78v-.312a.778.778,0,0,0-.778-.778Z" transform="translate(-4320.382 -5177.366)" fill="#3d4451"/>
      </g>
      <g id="Grupo_54983" data-name="Grupo 54983">
        <rect id="Rectángulo_6055" data-name="Rectángulo 6055" width="69.08" height="5.834" rx="2.917" transform="translate(0.968 0.969)" fill="#fdc345"/>
        <path id="Trazado_111101" data-name="Trazado 111101" d="M4388.155,4781.257H4322.1a2.481,2.481,0,0,1-2.479-2.479v-2.812a2.482,2.482,0,0,1,2.479-2.479h66.058a2.482,2.482,0,0,1,2.479,2.479v2.812A2.482,2.482,0,0,1,4388.155,4781.257Zm-66.058-5.833a.543.543,0,0,0-.542.542v2.812a.542.542,0,0,0,.542.542h66.058a.542.542,0,0,0,.542-.542v-2.812a.542.542,0,0,0-.542-.542Z" transform="translate(-4319.618 -4773.486)" fill="#3d4451"/>
      </g>
    </g>
    <g id="Grupo_54993" data-name="Grupo 54993" transform="translate(1813.598 4359.896)">
      <path id="Trazado_111102" data-name="Trazado 111102" d="M4117.281,4731.077l2.333,100.33,18.083-.875-9.625-99.455" transform="translate(-3987.465 -4728.071)" fill="#c7ddeb"/>
      <rect id="Rectángulo_6056" data-name="Rectángulo 6056" width="82.162" height="20.751" transform="translate(39.424 84.042)" fill="#c7ddeb"/>
      <rect id="Rectángulo_6057" data-name="Rectángulo 6057" width="60.956" height="18.374" transform="translate(49.902 62.211)" fill="#c7ddeb"/>
      <g id="Grupo_54992" data-name="Grupo 54992" transform="translate(0 0)">
        <path id="Trazado_111103" data-name="Trazado 111103" d="M4049.97,4853.177a1.75,1.75,0,0,1-.009-3.5l23.462-.127a1.75,1.75,0,1,1,.019,3.5l-23.462.127Z" transform="translate(-3930.293 -4826.15)" fill="#f04f4c"/>
        <path id="Trazado_111104" data-name="Trazado 111104" d="M3718.156,4891.955h5.906l.536,25.988h-6.977Z" transform="translate(-3656.605 -4861.255)" fill="#7eb9c7"/>
        <path id="Trazado_111105" data-name="Trazado 111105" d="M3816.409,4891.955h7.658l.7,25.988h-9.048Z" transform="translate(-3737.812 -4861.255)" fill="#7eb9c7"/>
        <path id="Trazado_111106" data-name="Trazado 111106" d="M3923.146,4891.955h7.658l.695,25.988h-9.048Z" transform="translate(-3826.174 -4861.255)" fill="#7eb9c7"/>
        <path id="Trazado_111107" data-name="Trazado 111107" d="M4109.959,4817.835H4087.68l-8.313-100.7-18.846.083h-.008a1.75,1.75,0,0,1-.008-3.5l22.083-.1,8.314,100.715h19.057a1.75,1.75,0,1,1,0,3.5Z" transform="translate(-3939.02 -4713.621)" fill="#3d4451"/>
        <path id="Trazado_111108" data-name="Trazado 111108" d="M3613.562,5060.882a1.458,1.458,0,0,1-1.458-1.458v-23.03h71.7a1.458,1.458,0,1,1,0,2.917h-68.784v20.114A1.458,1.458,0,0,1,3613.562,5060.882Z" transform="translate(-3569.252 -4980.83)" fill="#3d4451"/>
        <path id="Trazado_111109" data-name="Trazado 111109" d="M4023.8,5035.475" transform="translate(-3910.076 -4980.069)" fill="none" stroke="#3d4451" stroke-linecap="round" stroke-miterlimit="10" stroke-width="13.554"/>
        <path id="Trazado_111110" data-name="Trazado 111110" d="M3696.519,4913.5h-11.445l.758-28.321h9.93Zm-9.048-2.333h6.651l-.632-23.654H3688.1Z" transform="translate(-3629.66 -4855.645)" fill="#3d4451"/>
        <path id="Trazado_111111" data-name="Trazado 111111" d="M3801.936,4915.005h-11.445l.757-28.321h9.93Zm-9.049-2.333h6.651l-.632-23.654h-5.387Z" transform="translate(-3716.931 -4856.892)" fill="#3d4451"/>
        <path id="Trazado_111112" data-name="Trazado 111112" d="M3907.353,4916.51h-11.445l.758-28.321h9.93Zm-9.049-2.334h6.652l-.632-23.654h-5.387Z" transform="translate(-3804.2 -4858.138)" fill="#3d4451"/>
        <g id="Grupo_54985" data-name="Grupo 54985" transform="translate(57.722 65.457)">
          <path id="Rectángulo_6058" data-name="Rectángulo 6058" d="M3.563,0h0A3.563,3.563,0,0,1,7.127,3.563V7.983a0,0,0,0,1,0,0H0a0,0,0,0,1,0,0V3.563A3.563,3.563,0,0,1,3.563,0Z" transform="translate(0.875 0.875)" fill="#fdc345"/>
          <path id="Trazado_111113" data-name="Trazado 111113" d="M3707.367,5103.594h-8.877v-6.209a3.527,3.527,0,0,1,3.522-3.523h1.832a3.526,3.526,0,0,1,3.522,3.523Zm-7.127-1.75h5.377v-4.46a1.775,1.775,0,0,0-1.772-1.773h-1.832a1.775,1.775,0,0,0-1.772,1.773Z" transform="translate(-3698.49 -5093.861)" fill="#3d4451"/>
        </g>
        <g id="Grupo_54986" data-name="Grupo 54986" transform="translate(74.477 65.457)">
          <path id="Rectángulo_6059" data-name="Rectángulo 6059" d="M3.563,0h0A3.563,3.563,0,0,1,7.127,3.563V7.983a0,0,0,0,1,0,0H0a0,0,0,0,1,0,0V3.563A3.563,3.563,0,0,1,3.563,0Z" transform="translate(0.875 0.875)" fill="#fdc345"/>
          <path id="Trazado_111114" data-name="Trazado 111114" d="M3804.7,5103.594h-8.877v-6.209a3.526,3.526,0,0,1,3.522-3.523h1.832a3.527,3.527,0,0,1,3.522,3.523Zm-7.127-1.75h5.376v-4.46a1.775,1.775,0,0,0-1.771-1.773h-1.832a1.775,1.775,0,0,0-1.772,1.773Z" transform="translate(-3795.819 -5093.861)" fill="#3d4451"/>
        </g>
        <g id="Grupo_54987" data-name="Grupo 54987" transform="translate(91.483 65.457)">
          <path id="Rectángulo_6060" data-name="Rectángulo 6060" d="M3.563,0h0A3.563,3.563,0,0,1,7.127,3.563V7.983a0,0,0,0,1,0,0H0a0,0,0,0,1,0,0V3.563A3.563,3.563,0,0,1,3.563,0Z" transform="translate(0.875 0.875)" fill="#fdc345"/>
          <path id="Trazado_111115" data-name="Trazado 111115" d="M3903.479,5103.594H3894.6v-6.209a3.526,3.526,0,0,1,3.522-3.523h1.831a3.526,3.526,0,0,1,3.522,3.523Zm-7.126-1.75h5.376v-4.46a1.775,1.775,0,0,0-1.772-1.773h-1.831a1.776,1.776,0,0,0-1.773,1.773Z" transform="translate(-3894.603 -5093.861)" fill="#3d4451"/>
        </g>
        <g id="Grupo_54988" data-name="Grupo 54988" transform="translate(44.701 88.691)">
          <path id="Rectángulo_6061" data-name="Rectángulo 6061" d="M4.432,0h0A4.432,4.432,0,0,1,8.864,4.432v5.5a0,0,0,0,1,0,0H0a0,0,0,0,1,0,0v-5.5A4.432,4.432,0,0,1,4.432,0Z" transform="translate(0.875 0.875)" fill="#fdc345"/>
          <path id="Trazado_111116" data-name="Trazado 111116" d="M3633.462,5240.507h-10.615V5233a4.173,4.173,0,0,1,4.168-4.168h2.278a4.173,4.173,0,0,1,4.168,4.168Zm-8.865-1.75h7.115V5233a2.42,2.42,0,0,0-2.418-2.418h-2.278A2.42,2.42,0,0,0,3624.6,5233Z" transform="translate(-3622.848 -5228.828)" fill="#3d4451"/>
        </g>
        <g id="Grupo_54989" data-name="Grupo 54989" transform="translate(63.467 88.691)">
          <path id="Rectángulo_6062" data-name="Rectángulo 6062" d="M4.432,0h0A4.432,4.432,0,0,1,8.864,4.432v5.5a0,0,0,0,1,0,0H0a0,0,0,0,1,0,0v-5.5A4.432,4.432,0,0,1,4.432,0Z" transform="translate(0.875 0.875)" fill="#fdc345"/>
          <path id="Trazado_111117" data-name="Trazado 111117" d="M3742.477,5240.507h-10.615V5233a4.173,4.173,0,0,1,4.168-4.168h2.279a4.173,4.173,0,0,1,4.168,4.168Zm-8.865-1.75h7.115V5233a2.42,2.42,0,0,0-2.418-2.418h-2.279a2.42,2.42,0,0,0-2.418,2.418Z" transform="translate(-3731.862 -5228.828)" fill="#3d4451"/>
        </g>
        <g id="Grupo_54990" data-name="Grupo 54990" transform="translate(82.551 88.691)">
          <path id="Rectángulo_6063" data-name="Rectángulo 6063" d="M4.432,0h0A4.432,4.432,0,0,1,8.864,4.432v5.5a0,0,0,0,1,0,0H0a0,0,0,0,1,0,0v-5.5A4.432,4.432,0,0,1,4.432,0Z" transform="translate(0.875 0.875)" fill="#fdc345"/>
          <path id="Trazado_111118" data-name="Trazado 111118" d="M3853.332,5240.507h-10.615V5233a4.173,4.173,0,0,1,4.168-4.168h2.279a4.173,4.173,0,0,1,4.168,4.168Zm-8.865-1.75h7.114V5233a2.42,2.42,0,0,0-2.418-2.418h-2.279a2.42,2.42,0,0,0-2.418,2.418Z" transform="translate(-3842.718 -5228.828)" fill="#3d4451"/>
        </g>
        <g id="Grupo_54991" data-name="Grupo 54991" transform="translate(101.058 88.691)">
          <path id="Rectángulo_6064" data-name="Rectángulo 6064" d="M4.432,0h0A4.432,4.432,0,0,1,8.864,4.432v5.5a0,0,0,0,1,0,0H0a0,0,0,0,1,0,0v-5.5A4.432,4.432,0,0,1,4.432,0Z" transform="translate(0.875 0.875)" fill="#fdc345"/>
          <path id="Trazado_111119" data-name="Trazado 111119" d="M3960.842,5240.507h-10.615V5233a4.173,4.173,0,0,1,4.168-4.168h2.279a4.173,4.173,0,0,1,4.168,4.168Zm-8.865-1.75h7.114V5233a2.42,2.42,0,0,0-2.418-2.418H3954.4a2.42,2.42,0,0,0-2.418,2.418Z" transform="translate(-3950.227 -5228.828)" fill="#3d4451"/>
        </g>
        <path id="Trazado_111120" data-name="Trazado 111120" d="M3364.93,5192.736a1.75,1.75,0,0,1-.018-3.5l30.054-.314V5165.34h97.16v24.567a1.75,1.75,0,0,1-3.5,0v-21.068h-90.16v23.546l-33.517.351Z" transform="translate(-3363.181 -5087.579)" fill="#3d4451"/>
        <path id="Trazado_111121" data-name="Trazado 111121" d="M4019.854,4793.838c-.053,0-.108,0-.163-.008a1.748,1.748,0,0,1-1.583-1.9l7-76.147a1.75,1.75,0,0,1,3.485.32l-7,76.148A1.75,1.75,0,0,1,4019.854,4793.838Z" transform="translate(-3905.358 -4714.093)" fill="#3d4451"/>
        <path id="Trazado_111122" data-name="Trazado 111122" d="M4045.918,4804.222a2.593,2.593,0,0,1-.013-5.185l23.462-.126h.014a2.592,2.592,0,0,1,.013,5.185l-23.461.127Z" transform="translate(-3926.241 -4784.229)" fill="#3d4451"/>
        <path id="Trazado_111123" data-name="Trazado 111123" d="M3696.519,4913.5h-11.445l.758-28.321h9.93Zm-9.048-2.333h6.651l-.632-23.654H3688.1Z" transform="translate(-3629.66 -4855.645)" fill="#3d4451"/>
      </g>
    </g>
    <g id="Grupo_54995" data-name="Grupo 54995" transform="translate(1777.13 4286.341)">
      <g id="Grupo_54994" data-name="Grupo 54994" transform="translate(13.157 13.086)">
        <circle id="Elipse_4168" data-name="Elipse 4168" cx="12.187" cy="12.187" r="12.187" transform="translate(1.33 1.33)" fill="#fdc345"/>
        <path id="Trazado_111124" data-name="Trazado 111124" d="M3241.288,4389.393a13.517,13.517,0,1,1,13.517-13.517A13.532,13.532,0,0,1,3241.288,4389.393Zm0-24.374a10.857,10.857,0,1,0,10.856,10.856A10.869,10.869,0,0,0,3241.288,4365.019Z" transform="translate(-3227.771 -4362.358)" fill="#3d4451"/>
      </g>
      <path id="Trazado_111125" data-name="Trazado 111125" d="M3303.232,4295.9a1.663,1.663,0,0,1-1.663-1.663V4288a1.663,1.663,0,1,1,3.325,0v6.235A1.663,1.663,0,0,1,3303.232,4295.9Z" transform="translate(-3275.708 -4286.341)" fill="#3d4451"/>
      <path id="Trazado_111126" data-name="Trazado 111126" d="M3303.232,4555.2a1.663,1.663,0,0,1-1.663-1.663V4547.3a1.663,1.663,0,1,1,3.325,0v6.235A1.663,1.663,0,0,1,3303.232,4555.2Z" transform="translate(-3275.708 -4501.001)" fill="#3d4451"/>
      <path id="Trazado_111127" data-name="Trazado 111127" d="M3159.239,4439.894H3153a1.663,1.663,0,1,1,0-3.326h6.235a1.663,1.663,0,0,1,0,3.326Z" transform="translate(-3151.341 -4410.707)" fill="#3d4451"/>
      <path id="Trazado_111128" data-name="Trazado 111128" d="M3418.537,4439.894H3412.3a1.663,1.663,0,1,1,0-3.326h6.235a1.663,1.663,0,1,1,0,3.326Z" transform="translate(-3366.002 -4410.707)" fill="#3d4451"/>
      <path id="Trazado_111129" data-name="Trazado 111129" d="M3202.436,4335.607a1.659,1.659,0,0,1-1.176-.486l-4.409-4.409a1.663,1.663,0,0,1,2.352-2.352l4.409,4.409a1.662,1.662,0,0,1-1.176,2.838Z" transform="translate(-3188.614 -4320.724)" fill="#3d4451"/>
      <path id="Trazado_111130" data-name="Trazado 111130" d="M3385.787,4518.958a1.657,1.657,0,0,1-1.176-.486l-4.409-4.409a1.663,1.663,0,0,1,2.352-2.352l4.409,4.409a1.662,1.662,0,0,1-1.176,2.838Z" transform="translate(-3340.402 -4472.512)" fill="#3d4451"/>
      <path id="Trazado_111131" data-name="Trazado 111131" d="M3198.027,4522.451a1.663,1.663,0,0,1-1.176-2.839l4.409-4.41a1.663,1.663,0,0,1,2.352,2.352l-4.409,4.409A1.659,1.659,0,0,1,3198.027,4522.451Z" transform="translate(-3188.614 -4475.402)" fill="#3d4451"/>
      <path id="Trazado_111132" data-name="Trazado 111132" d="M3381.378,4339.1a1.663,1.663,0,0,1-1.176-2.839l4.409-4.409a1.663,1.663,0,0,1,2.352,2.352l-4.409,4.409A1.659,1.659,0,0,1,3381.378,4339.1Z" transform="translate(-3340.402 -4323.614)" fill="#3d4451"/>
    </g>
    <g id="Grupo_54996" data-name="Grupo 54996" transform="translate(1936.703 4327.901)">
      <path id="Trazado_111133" data-name="Trazado 111133" d="M4142.716,4561.775a3.47,3.47,0,0,0-3.549-3.247,3.7,3.7,0,0,0-1.513.318,7.648,7.648,0,0,0-7.41-5.171c-4.256,0-7.709,3.189-7.71,7.125a6.924,6.924,0,0,0,.059.893h-.059c-3.192,0-5.781,2.147-5.783,4.786s2.585,4.791,5.777,4.793l19.15.011c3.191,0,5.78-2.15,5.782-4.79C4147.461,4564.147,4145.415,4562.179,4142.716,4561.775Z" transform="translate(-4110.132 -4549.216)" fill="#c7ddeb"/>
      <path id="Trazado_111134" data-name="Trazado 111134" d="M4109.607,4551.127h0l-23.307-.013c-4.41,0-8-3.052-8-6.8,0-3.469,3.082-6.338,7.039-6.741,0-.056,0-.113,0-.171a9.258,9.258,0,0,1,3.061-6.841,10.679,10.679,0,0,1,7.283-2.794h.006a10.423,10.423,0,0,1,9.6,6.049,5.531,5.531,0,0,1,1.258-.144h0a5.212,5.212,0,0,1,5.193,4.1c3.44.8,5.867,3.464,5.865,6.559C4117.6,4548.082,4114.015,4551.127,4109.607,4551.127Zm-23.309-11.671c-3.346,0-6.067,2.18-6.069,4.862s2.72,4.865,6.067,4.868l23.307.014h0c3.346,0,6.068-2.182,6.069-4.866,0-2.345-2.082-4.359-4.953-4.789l-.792-.118-.03-.8a3.246,3.246,0,0,0-3.355-3.022h0a3.533,3.533,0,0,0-1.446.3l-.994.442-.32-1.04a8.375,8.375,0,0,0-8.1-5.613h-.005a8.755,8.755,0,0,0-5.974,2.282,7.351,7.351,0,0,0-2.441,5.425,7.472,7.472,0,0,0,.065.97l.132,1.081H4086.3Z" transform="translate(-4078.3 -4527.769)" fill="#3d4451"/>
    </g>
    <g id="Grupo_54997" data-name="Grupo 54997" transform="translate(2107.537 4373.34)">
      <path id="Trazado_111135" data-name="Trazado 111135" d="M5119.254,4817.368a2.616,2.616,0,0,0-2.676-2.448,2.8,2.8,0,0,0-1.142.241,5.766,5.766,0,0,0-5.588-3.9,5.609,5.609,0,0,0-5.816,5.373,5.23,5.23,0,0,0,.046.675h-.045c-2.407,0-4.36,1.618-4.361,3.609s1.95,3.612,4.357,3.614l14.442.007c2.407,0,4.36-1.621,4.361-3.611A3.885,3.885,0,0,0,5119.254,4817.368Z" transform="translate(-5094.68 -4807.896)" fill="#c7ddeb"/>
      <path id="Trazado_111136" data-name="Trazado 111136" d="M5094.284,4809.338h0l-17.577-.01c-3.327,0-6.033-2.3-6.031-5.127,0-2.616,2.324-4.779,5.309-5.083,0-.043,0-.086,0-.129a6.979,6.979,0,0,1,2.308-5.159,8.053,8.053,0,0,1,5.492-2.108h.006a7.86,7.86,0,0,1,7.238,4.562,4.206,4.206,0,0,1,.949-.107h0a3.929,3.929,0,0,1,3.915,3.093,5.322,5.322,0,0,1,4.424,4.947,4.742,4.742,0,0,1-1.818,3.666A6.59,6.59,0,0,1,5094.284,4809.338Zm-17.579-8.8c-2.522,0-4.576,1.644-4.577,3.666s2.052,3.67,4.576,3.671l17.577.01h0a5.132,5.132,0,0,0,3.285-1.122,3.314,3.314,0,0,0,1.292-2.547c0-1.77-1.569-3.289-3.734-3.612l-.6-.09-.021-.6a2.449,2.449,0,0,0-2.531-2.279h0a2.655,2.655,0,0,0-1.09.229l-.75.333-.241-.784a6.316,6.316,0,0,0-6.106-4.234h0a6.606,6.606,0,0,0-4.5,1.721,5.551,5.551,0,0,0-1.841,4.092,5.716,5.716,0,0,0,.049.732l.1.815h-.878Z" transform="translate(-5070.672 -4791.722)" fill="#3d4451"/>
    </g>
    <g id="Grupo_54998" data-name="Grupo 54998" transform="translate(1541.145 4342.323)">
      <path id="Trazado_111137" data-name="Trazado 111137" d="M1842.557,4644.3a3.342,3.342,0,0,0-3.418-3.128,3.563,3.563,0,0,0-1.458.307,7.367,7.367,0,0,0-7.138-4.982,7.163,7.163,0,0,0-7.428,6.863,6.882,6.882,0,0,0,.057.861h-.057c-3.075,0-5.569,2.068-5.57,4.61s2.49,4.615,5.565,4.617l18.447.01c3.075,0,5.569-2.071,5.57-4.613C1847.129,4646.581,1845.157,4644.686,1842.557,4644.3Z" transform="translate(-1811.169 -4632.198)" fill="#c7ddeb"/>
      <path id="Trazado_111138" data-name="Trazado 111138" d="M1810.664,4634.038h-.005l-22.452-.012a8.424,8.424,0,0,1-5.384-1.865,5.884,5.884,0,0,1,.005-9.365,8.276,8.276,0,0,1,4.457-1.812c0-.055,0-.11,0-.165,0-5.119,4.472-9.282,9.964-9.282h.006a10.04,10.04,0,0,1,9.246,5.828,5.262,5.262,0,0,1,1.21-.138h0a5.019,5.019,0,0,1,5,3.951c3.316.771,5.652,3.338,5.65,6.318C1818.366,4631.1,1814.91,4634.038,1810.664,4634.038Zm-22.454-11.244a6.566,6.566,0,0,0-4.2,1.432,4.033,4.033,0,0,0,0,6.506,6.562,6.562,0,0,0,4.2,1.435l22.452.013h0c3.223,0,5.844-2.1,5.846-4.686,0-2.26-2.005-4.2-4.771-4.614l-.763-.114-.028-.771a3.129,3.129,0,0,0-3.233-2.912h0a3.39,3.39,0,0,0-1.392.294l-.957.426-.308-1a8.066,8.066,0,0,0-7.8-5.407h-.005c-4.468,0-8.1,3.33-8.106,7.425a7.283,7.283,0,0,0,.062.934l.127,1.041h-1.122Z" transform="translate(-1780.505 -4611.536)" fill="#3d4451"/>
    </g>
    <g id="Grupo_55003" data-name="Grupo 55003" transform="translate(1859.566 4331.79)">
      <path id="Trazado_111139" data-name="Trazado 111139" d="M3661.34,4616.908s-21.45,6.985-31.129-26.655C3630.211,4590.253,3663.721,4594.769,3661.34,4616.908Z" transform="translate(-3630.211 -4583.384)" fill="#7ec13e"/>
      <path id="Trazado_111140" data-name="Trazado 111140" d="M3824.9,4625.039s-5.164-28.42,34.481-27.088C3859.386,4597.951,3849.013,4636.331,3824.9,4625.039Z" transform="translate(-3791.207 -4589.719)" fill="#7ec13e"/>
      <path id="Trazado_111141" data-name="Trazado 111141" d="M3828.449,4585.212a22.251,22.251,0,0,1-7.409-1.346l-.638-.226-.165-.654a25.034,25.034,0,0,1,3.954-19.462c5.511-7.624,15.637-12.016,30.1-13.053l1.648-.118-.322,1.62a72.447,72.447,0,0,1-3.928,12.445c-3.739,8.975-8.476,15.144-14.08,18.338A18.231,18.231,0,0,1,3828.449,4585.212Zm-5.9-3.5a16.647,16.647,0,0,0,13.806-1.147c10.293-5.868,15.1-22.2,16.4-27.443-12.748,1.186-21.661,5.168-26.507,11.847C3821.33,4571.757,3822.166,4579.455,3822.552,4581.716Z" transform="translate(-3787.082 -4550.354)" fill="#3d4451"/>
      <path id="Trazado_111142" data-name="Trazado 111142" d="M3671.11,4585.012a22.265,22.265,0,0,1-12.794-3.969c-7.138-4.979-11.535-14.184-13.07-27.36l-.214-1.833,1.811.359a63.181,63.181,0,0,1,10.937,3.472c7.938,3.323,13.52,7.566,16.591,12.611a18.581,18.581,0,0,1,1.795,15.387l-.217.751-.759.183A18.726,18.726,0,0,1,3671.11,4585.012Zm3.764-1.706h0Zm-26.71-28.02c1.622,11.351,5.55,19.27,11.69,23.552a19.912,19.912,0,0,0,13.943,3.3,15.8,15.8,0,0,0-1.719-12.438C3666.666,4560.8,3653.113,4556.57,3648.164,4555.287Z" transform="translate(-3642.481 -4551.593)" fill="#3d4451"/>
      <path id="Trazado_111143" data-name="Trazado 111143" d="M3814.227,4853.018" transform="translate(-3782.55 -4800.915)" fill="#3d4451"/>
      <g id="Grupo_55000" data-name="Grupo 55000" transform="translate(34.292 6.698)">
        <g id="Grupo_54999" data-name="Grupo 54999">
          <path id="Trazado_111144" data-name="Trazado 111144" d="M3829.729,4610.9c.032-.079.053-.121.077-.176l.07-.147c.046-.1.092-.191.138-.283.092-.187.188-.362.282-.542q.289-.529.594-1.037c.406-.68.84-1.333,1.288-1.971a39.139,39.139,0,0,1,2.9-3.632,44.293,44.293,0,0,1,6.835-6.121,48.294,48.294,0,0,1,7.819-4.6,55.694,55.694,0,0,1,8.418-3.14,55.074,55.074,0,0,0-8,3.928,47,47,0,0,0-7.12,5.2,42.03,42.03,0,0,0-5.879,6.423,36.487,36.487,0,0,0-2.338,3.612c-.348.621-.681,1.248-.979,1.884q-.224.477-.426.953c-.063.158-.131.317-.188.472q-.045.118-.085.229l-.039.11c-.01.032-.026.076-.026.084a1.833,1.833,0,1,1-3.528-.818Z" transform="translate(-3829.415 -4589.26)" fill="#3d4451"/>
        </g>
      </g>
      <g id="Grupo_55002" data-name="Grupo 55002" transform="translate(8.46 7.455)">
        <g id="Grupo_55001" data-name="Grupo 55001">
          <path id="Trazado_111145" data-name="Trazado 111145" d="M3701.012,4615.94c0-.011-.013-.051-.022-.082l-.031-.1c-.021-.07-.044-.143-.07-.215-.047-.146-.1-.294-.154-.442q-.164-.445-.35-.892c-.245-.595-.521-1.184-.81-1.769a35.114,35.114,0,0,0-1.958-3.415,39.3,39.3,0,0,0-5-6.187c-.946-.944-1.923-1.865-2.963-2.716l-.386-.325-.4-.312-.794-.624-.817-.6-.409-.3-.418-.285a49.088,49.088,0,0,0-7.071-4.02,49.38,49.38,0,0,1,7.5,3.331l.453.247.445.262.891.523.873.555.438.278.427.293c1.151.766,2.25,1.611,3.326,2.49a41.3,41.3,0,0,1,5.88,5.958,37.7,37.7,0,0,1,2.46,3.45c.376.6.741,1.215,1.081,1.85q.255.475.5.967c.079.167.159.331.235.5.039.085.076.171.114.261l.057.136c.02.05.037.089.063.16l.1.262a1.642,1.642,0,0,1-3.084,1.129A1.759,1.759,0,0,1,3701.012,4615.94Z" transform="translate(-3679.356 -4593.659)" fill="#3d4451"/>
        </g>
      </g>
    </g>
    <path id="Trazado_111146" data-name="Trazado 111146" d="M3804.42,4757.584a1.835,1.835,0,0,1-1.8-1.5c-1.924-10.39.642-24.932.752-25.546a1.834,1.834,0,0,1,3.61.648c-.026.144-2.557,14.5-.756,24.23a1.837,1.837,0,0,1-1.805,2.168Z" transform="translate(-1912.782 -366.48)" fill="#3d4451"/>
    <g id="Grupo_55009" data-name="Grupo 55009" transform="translate(1658.33 4327.186)">
      <g id="Grupo_55004" data-name="Grupo 55004" transform="translate(3.954 3.759)">
        <ellipse id="Elipse_4169" data-name="Elipse 4169" cx="7.573" cy="7.301" rx="7.573" ry="7.301" transform="translate(28.1)" fill="#c7ddeb"/>
        <path id="Trazado_111147" data-name="Trazado 111147" d="M2552.645,4573.727a5.828,5.828,0,0,1,5.959,5.688l-.17,24.05H2536.98l-3.736,13.731h-25.328l-3.328-13.731h-20.22l-.17-24.05a5.828,5.828,0,0,1,5.959-5.687l1.536,11.183c3.957,6.194-1.877,11.892-1.877,11.892,7.864-7.505,17.849-2.52,20.979-.635h21.211c3.13-1.885,13.115-6.871,20.979.635,0,0-5.833-5.7-1.877-11.892" transform="translate(-2484.198 -4568.859)" fill="#c7ddeb"/>
      </g>
      <g id="Grupo_55005" data-name="Grupo 55005" transform="translate(35.8 29.837)">
        <path id="Trazado_111148" data-name="Trazado 111148" d="M2674.618,4718.514l3.5-13.235-1.934-4.167h5.8l-2.11,4.167,3.079,13.235Z" transform="translate(-2673.683 -4700.392)" fill="#f04f4c"/>
        <path id="Trazado_111149" data-name="Trazado 111149" d="M2679.366,4715.773h-10.177l3.672-13.888-2.3-4.954h8.1l-2.521,4.979Zm-8.308-1.44h6.5l-2.933-12.607,1.7-3.356h-3.5l1.569,3.38Z" transform="translate(-2669.189 -4696.931)" fill="#3d4451"/>
      </g>
      <g id="Grupo_55006" data-name="Grupo 55006" transform="translate(0 0)">
        <path id="Trazado_111150" data-name="Trazado 111150" d="M2639.6,4550.509a11.406,11.406,0,1,1,11.406-11.405A11.419,11.419,0,0,1,2639.6,4550.509Zm0-20.159a8.753,8.753,0,1,0,8.753,8.754A8.763,8.763,0,0,0,2639.6,4530.35Z" transform="translate(-2599.454 -4526.994)" fill="#3d4451"/>
        <path id="Trazado_111151" data-name="Trazado 111151" d="M2506.709,4578.979h-10.227a11.436,11.436,0,0,1-11.254-9.384l-1.867-10.22H2461.42l-.191-28.229a7.528,7.528,0,0,1,7.741-7.532,7.527,7.527,0,0,1,3.022,14.321,10.941,10.941,0,0,1,.211,8.707c7.793-3.763,16.05.418,19.085,2.277h22.195c3.034-1.858,11.292-6.04,19.085-2.277a10.936,10.936,0,0,1,.212-8.706,7.527,7.527,0,0,1,3.022-14.321,7.528,7.528,0,0,1,7.741,7.525v.007l-.191,28.229h-23.29l-2.146,10.463A11.482,11.482,0,0,1,2506.709,4578.979Zm-43.078-21.831h21.586l2.2,12.046a9.212,9.212,0,0,0,9.064,7.558h10.227a9.247,9.247,0,0,0,9.026-7.362l2.511-12.243h22.895l.176-26.013a5.3,5.3,0,0,0-5.452-5.3,5.3,5.3,0,0,0-1.216,10.421l1.44.383-.775,1.272c-3.747,6.146,1.636,11.817,1.867,12.056l-1.585,1.563c-7.712-7.712-17.395-2.961-21.2-.562l-.272.172h-23.474l-.272-.172c-3.8-2.4-13.487-7.15-21.2.562l-1.584-1.565c.229-.236,5.613-5.908,1.866-12.054l-.776-1.272,1.44-.383a5.3,5.3,0,0,0-1.216-10.421,5.3,5.3,0,0,0-5.452,5.3Zm78.8-26.01h0Z" transform="translate(-2461.229 -4523.61)" fill="#3d4451"/>
      </g>
      <g id="Grupo_55008" data-name="Grupo 55008" transform="translate(13.019 42.302)">
        <path id="Trazado_111152" data-name="Trazado 111152" d="M2642.478,4785.475l-6.786-.008.008-6.442s0-2.716,0-3.248a1.131,1.131,0,0,0-.48-.853l-3.887,0c-.639,0-.8.318-.8.318s-3.524,8.036-5.071,10.642a5.555,5.555,0,0,1-4.689,2.5l-.016,13.846,4.58,0,2.979,2.559,12.619.015a3.316,3.316,0,0,0,2.127-.771l1.516-1.268a3.307,3.307,0,0,0,1.186-2.535l.014-11.439a3.31,3.31,0,0,0-1.6-2.838h0A3.306,3.306,0,0,0,2642.478,4785.475Z" transform="translate(-2606.318 -4773.96)" fill="#f5fafc"/>
        <path id="Trazado_111153" data-name="Trazado 111153" d="M2641.21,4819.47l-6.391-.006.005-5.041s0-2.124,0-2.541a.883.883,0,0,0-.452-.666l-3.66,0c-.6,0-.753.249-.753.249s-3.317,6.286-4.774,8.325-4.416,1.952-4.416,1.952l-.012,10.832,4.314,0,2.805,2,11.886.013a3.512,3.512,0,0,0,2-.6l1.428-.99a2.441,2.441,0,0,0,1.117-1.983l.01-8.949a2.534,2.534,0,0,0-1.508-2.219h0A3.622,3.622,0,0,0,2641.21,4819.47Z" transform="translate(-2606.317 -4804.005)" fill="#fdc345"/>
        <path id="Trazado_111154" data-name="Trazado 111154" d="M2636.32,4801.144h0l-12.974-.016-2.979-2.558-5.186-.006.018-15.8.994.035a4.55,4.55,0,0,0,3.829-2.028c1.5-2.526,4.981-10.458,5.017-10.538l.021-.044a1.766,1.766,0,0,1,1.656-.85h0l4.177.005.242.161a2.054,2.054,0,0,1,.907,1.652l-.01,8.729,5.825.006a4.272,4.272,0,0,1,4.266,4.275l-.013,11.44a4.259,4.259,0,0,1-1.531,3.271l-1.516,1.269A4.283,4.283,0,0,1,2636.32,4801.144Zm-12.266-1.936,12.263.014h0a2.351,2.351,0,0,0,1.507-.547l1.516-1.268a2.346,2.346,0,0,0,.843-1.8l.012-11.438a2.349,2.349,0,0,0-2.346-2.353l-7.746-.008.012-10.543-3.407,0a.152.152,0,0,0-.031,0c-.626,1.419-3.591,8.1-5.011,10.49a6.21,6.21,0,0,1-4.556,2.9l-.013,11.995,3.975.005Z" transform="translate(-2601.693 -4769.34)" fill="#3d4451"/>
        <g id="Grupo_55007" data-name="Grupo 55007" transform="translate(0 11.34)">
          <rect id="Rectángulo_6065" data-name="Rectángulo 6065" width="18.21" height="15.222" transform="matrix(0.001, -1, 1, 0.001, 0.962, 19.172)" fill="#7eb9c7"/>
          <path id="Trazado_111155" data-name="Trazado 111155" d="M2554,4855.363l-17.143-.019.022-20.131,17.143.02Zm-15.219-1.938,13.3.016.018-16.29-13.3-.015Z" transform="translate(-2536.854 -4835.213)" fill="#3d4451"/>
        </g>
        <rect id="Rectángulo_6066" data-name="Rectángulo 6066" width="12.779" height="3.578" transform="translate(2.231 13.445) rotate(0.065)" fill="#f5fafc"/>
      </g>
    </g>
    <g id="Grupo_55010" data-name="Grupo 55010" transform="translate(1731.636 4436.264)">
      <path id="Trazado_111156" data-name="Trazado 111156" d="M3010.875,5220.182h5.884a4.937,4.937,0,0,1,3.853,1.91l3.078,3.854a4.793,4.793,0,0,0,3.738,1.858h10.606a5.222,5.222,0,0,0,4.968-5.443V5211.9a5.333,5.333,0,0,0-5.1-5.537h-45.456a5.332,5.332,0,0,0-5.1,5.537v10.461a5.221,5.221,0,0,0,4.967,5.443h7.664a4.775,4.775,0,0,0,3.624-1.72l3.537-4.135A4.921,4.921,0,0,1,3010.875,5220.182Z" transform="translate(-2970.083 -5197.908)" fill="#7eb9c7"/>
      <path id="Trazado_111157" data-name="Trazado 111157" d="M2987.365,5184.517h-11.887a7.073,7.073,0,0,1-5.511-2.7l-2.321-2.888a7.72,7.72,0,0,0-6.047-2.9h-2.828a7.754,7.754,0,0,0-5.879,2.7l-2.831,3.289a7.078,7.078,0,0,1-5.347,2.505h-8.59a7.532,7.532,0,0,1-7.264-7.758v-19.513h65.768v19.513A7.532,7.532,0,0,1,2987.365,5184.517Zm-28.594-11.883h2.828a11.1,11.1,0,0,1,8.692,4.166l2.321,2.888a3.7,3.7,0,0,0,2.866,1.437h11.887a4.145,4.145,0,0,0,3.871-4.365v-16.12h-58.982v16.12a4.145,4.145,0,0,0,3.871,4.365h8.59a3.687,3.687,0,0,0,2.775-1.326l2.831-3.289A11.143,11.143,0,0,1,2958.771,5172.633Z" transform="translate(-2921.666 -5157.246)" fill="#3d4451"/>
      <path id="Trazado_111158" data-name="Trazado 111158" d="M3213.833,5224.074h-7.327a1.219,1.219,0,0,1,0-2.437h7.327a.714.714,0,0,0,.713-.714v-6.74a1.219,1.219,0,0,1,2.437,0v6.74A3.154,3.154,0,0,1,3213.833,5224.074Z" transform="translate(-3150.507 -5203.373)" fill="#3d4451"/>
      <path id="Trazado_111159" data-name="Trazado 111159" d="M2897.44,5179.964h-4.957a5.426,5.426,0,0,1-5.42-5.42V5163.9a5.426,5.426,0,0,1,5.42-5.419h4.957Zm-4.957-18.518a2.453,2.453,0,0,0-2.45,2.45v10.647a2.454,2.454,0,0,0,2.45,2.451h1.987v-15.548Z" transform="translate(-2887.064 -5158.265)" fill="#3d4451"/>
      <path id="Trazado_111160" data-name="Trazado 111160" d="M3305.311,5179.964h-4.956v-21.487h4.956a5.426,5.426,0,0,1,5.42,5.419v10.647A5.427,5.427,0,0,1,3305.311,5179.964Zm-1.987-2.969h1.987a2.454,2.454,0,0,0,2.45-2.451V5163.9a2.453,2.453,0,0,0-2.45-2.45h-1.987Z" transform="translate(-3229.208 -5158.265)" fill="#3d4451"/>
    </g>
    <g id="Grupo_55014" data-name="Grupo 55014" transform="translate(1807.999 4345.349)">
      <g id="Grupo_55011" data-name="Grupo 55011" transform="translate(13.424 0)">
        <path id="Trazado_111161" data-name="Trazado 111161" d="M3425.8,4639.447h0a.422.422,0,0,1,.365.248l5.574,9.382-3.834,2.5,12.307,6.047.343-14.283-3.927,2.556-5.453-9.176a6.22,6.22,0,0,0-5.371-3.1h-.005a6.22,6.22,0,0,0-5.37,3.089l-5.617,9.415,5.005,2.986,5.618-9.417A.422.422,0,0,1,3425.8,4639.447Z" transform="translate(-3413.747 -4632.844)" fill="#7ec13e"/>
        <path id="Trazado_111162" data-name="Trazado 111162" d="M3435.847,4655.125l-14.617-7.182,4.354-2.835-4.895-8.238-5.713,9.576-6.336-3.78,6.014-10.081a6.987,6.987,0,0,1,12.078.011l5.041,8.482,4.482-2.919Zm-11.488-7.371,10,4.912.279-11.6-3.371,2.194-5.864-9.871a5.439,5.439,0,0,0-9.416-.008l-5.221,8.75,3.675,2.193,5.22-8.751a1.176,1.176,0,0,1,1.031-.625h0a1.174,1.174,0,0,1,1.032.627l5.954,10.021Z" transform="translate(-3408.639 -4629.119)" fill="#3d4451"/>
      </g>
      <g id="Grupo_55012" data-name="Grupo 55012" transform="translate(0 17.318)">
        <path id="Trazado_111163" data-name="Trazado 111163" d="M3341.085,4756.558a.77.77,0,0,1,.012-.792l4.639-7.584,4.472,2.911-.945-14.674-12.907,5.656,4.494,2.926-4.725,7.725a6.619,6.619,0,0,0-.124,6.683,6.2,6.2,0,0,0,5.458,3.24h12.152v-5.828h-12.152C3341.4,4756.818,3341.231,4756.818,3341.085,4756.558Z" transform="translate(-3334.382 -4735.264)" fill="#7ec13e"/>
        <path id="Trazado_111164" data-name="Trazado 111164" d="M3350.66,4757.875h-12.927a6.969,6.969,0,0,1-6.133-3.636,7.4,7.4,0,0,1,.139-7.466l4.332-7.082-5.065-3.3,15.235-6.677,1.115,17.321-5.1-3.32-4.146,6.779h12.551Zm-16.4-21.215,3.923,2.555-5.118,8.368a5.841,5.841,0,0,0-.11,5.9,5.439,5.439,0,0,0,4.782,2.843h11.378v-4.278h-11.378a1.182,1.182,0,0,1-1.048-.657h0a1.54,1.54,0,0,1,.026-1.575l5.055-8.265,3.844,2.5-.774-12.03Z" transform="translate(-3330.656 -4729.717)" fill="#3d4451"/>
      </g>
      <g id="Grupo_55013" data-name="Grupo 55013" transform="translate(21.371 26.904)">
        <path id="Trazado_111165" data-name="Trazado 111165" d="M3488.863,4798.445l-4.1-6.874-5.005,2.986,4.1,6.874a.768.768,0,0,1,.006.789c-.146.258-.315.258-.371.258h-9.962v-5.653l-11.365,8.767,11.365,8.767v-6.052h9.962a6.208,6.208,0,0,0,5.439-3.208A6.626,6.626,0,0,0,3488.863,4798.445Z" transform="translate(-3460.897 -4790.51)" fill="#7ec13e"/>
        <path id="Trazado_111166" data-name="Trazado 111166" d="M3468.207,4810.827l-13.409-10.344,13.409-10.343v6.455h8.819l-4.429-7.413,6.336-3.78,4.5,7.539a7.4,7.4,0,0,1,.077,7.433,6.973,6.973,0,0,1-6.113,3.6h-9.187Zm-10.872-10.344,9.323,7.191v-5.25h10.737a5.442,5.442,0,0,0,4.766-2.814,5.851,5.851,0,0,0-.061-5.875l-3.7-6.209-3.675,2.192,3.7,6.208a1.54,1.54,0,0,1,.014,1.57,1.18,1.18,0,0,1-1.044.649h-10.737v-4.854Z" transform="translate(-3454.799 -4785.401)" fill="#3d4451"/>
      </g>
    </g>
    <g id="Grupo_55015" data-name="Grupo 55015" transform="translate(2001.234 4343.548)">
      <path id="Trazado_111167" data-name="Trazado 111167" d="M4488.166,4644.323V4636.8h-6.476v7.528h-7.169v6.8h7.169v7.527h6.476v-7.527h7.169v-6.8Z" transform="translate(-4470.844 -4633.673)" fill="#7ec13e"/>
      <path id="Trazado_111168" data-name="Trazado 111168" d="M4469.385,4642.388h-8.721v-7.5h-7.5v-8.72h7.5v-7.5h8.721v7.5h7.5v8.72h-7.5Zm-6.778-1.943h4.834v-7.5h7.5v-4.834h-7.5v-7.5h-4.834v7.5h-7.5v4.834h7.5Z" transform="translate(-4453.16 -4618.659)" fill="#3d4451"/>
    </g>
    <g id="Grupo_55018" data-name="Grupo 55018" transform="translate(1692.831 4415.622)">
      <g id="Grupo_55017" data-name="Grupo 55017" transform="translate(9.344)">
        <g id="Grupo_55016" data-name="Grupo 55016">
          <path id="Trazado_111169" data-name="Trazado 111169" d="M2722.131,5049.975a6.331,6.331,0,1,0-6.2-5.986A6.438,6.438,0,0,0,2722.131,5049.975Z" transform="translate(-2715.925 -5037.331)" fill="#3d4451"/>
        </g>
      </g>
      <path id="Trazado_111170" data-name="Trazado 111170" d="M2702.54,5131.666l-4.928-.809a3,3,0,0,1-2.4-3.586l2.534-13.382a3.182,3.182,0,0,1,3.57-2.606h0a7.954,7.954,0,0,1,6.357,9.508l-1.565,8.268A3.183,3.183,0,0,1,2702.54,5131.666Z" transform="translate(-2689.388 -5098.52)" fill="#3d4451"/>
      <path id="Trazado_111171" data-name="Trazado 111171" d="M2724.776,5223.914a2.469,2.469,0,0,1-2.3-1.576l-3.3-8.5-6.439-5.064a2.468,2.468,0,1,1,3.052-3.88l7.5,5.9,3.787,9.757a2.469,2.469,0,0,1-2.3,3.362Z" transform="translate(-2703.161 -5175.612)" fill="#3d4451"/>
      <path id="Trazado_111172" data-name="Trazado 111172" d="M2664.111,5213.128a2.468,2.468,0,0,1-2.021-3.883l4.814-6.88,1.671-8.48a2.468,2.468,0,1,1,4.844.954l-1.872,9.5-5.412,7.733A2.464,2.464,0,0,1,2664.111,5213.128Z" transform="translate(-2661.644 -5165.286)" fill="#3d4451"/>
      <path id="Trazado_111173" data-name="Trazado 111173" d="M2741.128,5135.857a2.025,2.025,0,0,1-1.074-.307l-8.079-5.03-.911-9.862a2.036,2.036,0,0,1,4.054-.375l.724,7.849,6.363,3.96a2.036,2.036,0,0,1-1.078,3.764Z" transform="translate(-2719.107 -5104.473)" fill="#3d4451"/>
      <path id="Trazado_111174" data-name="Trazado 111174" d="M2672.158,5130.977a1.984,1.984,0,0,1-.251-.016,2.034,2.034,0,0,1-1.772-2.268l1.061-8.64,6.582-4.816a2.035,2.035,0,1,1,2.4,3.285l-5.16,3.776-.846,6.891A2.036,2.036,0,0,1,2672.158,5130.977Z" transform="translate(-2668.661 -5101.499)" fill="#3d4451"/>
    </g>
    <g id="Grupo_55020" data-name="Grupo 55020" transform="translate(1509.362 4374.465)">
      <path id="Trazado_111175" data-name="Trazado 111175" d="M1666.822,4899.794l-5.264,3.121-5.264-3.121c-5.954-2.886-9.615-8.185-9.615-13.914l-1.24-17.065a24.6,24.6,0,0,0,8.679-1.138,23.172,23.172,0,0,0,7.439-3.978,20.6,20.6,0,0,0,6.82,3.978,22.15,22.15,0,0,0,9.3,1.138l-1.24,17.065C1676.437,4891.609,1672.776,4896.908,1666.822,4899.794Z" transform="translate(-1636.907 -4852.435)" fill="#fdc345"/>
      <path id="Trazado_111176" data-name="Trazado 111176" d="M1620,4853.294l-8.019-4.465c-8.769-4.014-14.221-11.485-14.247-19.521l-1.857-24,1.637.074a34.809,34.809,0,0,0,11.659-1.434,31.6,31.6,0,0,0,9.954-5l.915-.69.882.731a27.773,27.773,0,0,0,9.07,4.968,31.446,31.446,0,0,0,12.433,1.426l1.7-.146-1.862,24.072c-.026,8.036-5.478,15.508-14.247,19.521Zm-20.984-44.982,1.615,20.883v.056c0,6.924,4.83,13.425,12.6,16.966l.1.053,6.66,3.707,6.711-3.735.053-.024c7.775-3.541,12.6-10.042,12.6-16.966l0-.112,1.607-20.767a34.315,34.315,0,0,1-11.891-1.663,30.854,30.854,0,0,1-9.127-4.784,34.669,34.669,0,0,1-9.951,4.794A37.421,37.421,0,0,1,1599.014,4808.312Z" transform="translate(-1595.875 -4798.256)" fill="#3d4451"/>
      <g id="Grupo_55019" data-name="Grupo 55019" transform="translate(14.024 17.032)">
        <path id="Trazado_111177" data-name="Trazado 111177" d="M1688.285,4918.393a2.237,2.237,0,0,1-1.467-.64l-5.011-4.834a1.466,1.466,0,0,1,.205-2.328c.828-.589,1.329-.775,2.045-.087l4.214,3.566,12.065-12.273a2.273,2.273,0,0,1,2.787-.233,1.456,1.456,0,0,1,.293,2.306l-13.559,13.856a2.137,2.137,0,0,1-1.51.67Z" transform="translate(-1680.64 -4900.505)" fill="#4ece46"/>
        <path id="Trazado_111178" data-name="Trazado 111178" d="M1685.078,4915.773h-.1a2.917,2.917,0,0,1-1.931-.833l-5.012-4.834a2.182,2.182,0,0,1-.686-1.728,2.247,2.247,0,0,1,.97-1.653c.814-.578,1.776-1.1,2.9-.039l3.712,3.144,11.619-11.82a2.949,2.949,0,0,1,3.66-.321,2.278,2.278,0,0,1,1.027,1.643,2.116,2.116,0,0,1-.628,1.713l-13.557,13.855A2.843,2.843,0,0,1,1685.078,4915.773ZM1685,4914.4h.063a1.467,1.467,0,0,0,1.009-.464l13.558-13.855a.757.757,0,0,0,.242-.615.9.9,0,0,0-.429-.643,1.583,1.583,0,0,0-1.914.146l-12.512,12.729-4.731-4.007c-.329-.316-.407-.392-1.173.152a.873.873,0,0,0-.4.637.8.8,0,0,0,.269.638l5.012,4.835A1.545,1.545,0,0,0,1685,4914.4Z" transform="translate(-1677.342 -4897.197)" fill="#3d4451"/>
      </g>
      <path id="Trazado_111179" data-name="Trazado 111179" d="M1650.99,4960.837l-6.153-3.285c-6.818-2.987-11.056-8.546-11.07-14.519l-.452-5.606a.724.724,0,1,1,1.444-.116l.457,5.693c0,5.407,3.919,10.478,10.228,13.232l.051.025,5.5,2.934,5.547-2.959c.345-.15.69-.311,1.026-.478a.724.724,0,0,1,.644,1.3c-.348.172-.706.34-1.064.5Z" transform="translate(-1626.867 -4912.82)" fill="#3d4451"/>
      <path id="Trazado_111180" data-name="Trazado 111180" d="M1656.485,4874.768a.724.724,0,0,1-.436-1.3c3.858-2.9,5.983-6.725,5.983-10.78l0-.059,1.307-16.207a27.849,27.849,0,0,1-9.741-1.223,24.308,24.308,0,0,1-7.363-3.764,27.507,27.507,0,0,1-8.029,3.769,30.612,30.612,0,0,1-9.038,1.188l.554,6.865a.724.724,0,1,1-1.444.117l-.685-8.491.82.036a29.211,29.211,0,0,0,9.391-1.107,25.907,25.907,0,0,0,8.026-3.865l.445-.322.43.342a22.738,22.738,0,0,0,7.33,3.85,26.414,26.414,0,0,0,10.034,1.1l.85-.07-1.441,17.866c-.01,4.445-2.4,8.785-6.562,11.91A.725.725,0,0,1,1656.485,4874.768Z" transform="translate(-1622.135 -4832.501)" fill="#3d4451"/>
    </g>
    <g id="Grupo_55021" data-name="Grupo 55021" transform="translate(1838.726 4318.8)">
      <path id="Trazado_111181" data-name="Trazado 111181" d="M3521.743,4487.494l4.863,2.773a.732.732,0,0,0,.732,0l4.863-2.773-2.774,4.863a.739.739,0,0,0,0,.732l2.774,4.863-4.863-2.774a.739.739,0,0,0-.732,0l-4.863,2.774,2.774-4.863a.741.741,0,0,0,0-.732Z" transform="translate(-3519.575 -4485.326)" fill="#fdc345"/>
      <path id="Trazado_111182" data-name="Trazado 111182" d="M3523.942,4489.692l-7.4-4.22-7.4,4.22,4.22-7.4-4.22-7.4,7.4,4.22,7.4-4.22-4.22,7.4Zm-7.4-5.847a1.547,1.547,0,0,1,.768.2l2.293,1.308-1.309-2.293a1.554,1.554,0,0,1,0-1.534l1.309-2.293-2.293,1.308a1.553,1.553,0,0,1-1.535,0l-2.294-1.308,1.309,2.293a1.554,1.554,0,0,1,0,1.534l-1.309,2.293,2.294-1.308A1.546,1.546,0,0,1,3516.544,4483.845Z" transform="translate(-3509.147 -4474.898)" fill="#3d4451"/>
    </g>
    <g id="Grupo_55022" data-name="Grupo 55022" transform="translate(1823.28 4412.325)">
      <path id="Trazado_111183" data-name="Trazado 111183" d="M3444.047,5042.807l-5.841-3.333a.889.889,0,0,0-.88,0l-5.842,3.333,3.333-5.84a.891.891,0,0,0,0-.881l-3.333-5.84,5.842,3.332a.889.889,0,0,0,.88,0l5.841-3.332-3.333,5.84a.892.892,0,0,0,0,.881Z" transform="translate(-3429.409 -5028.168)" fill="#fdc345"/>
      <path id="Trazado_111184" data-name="Trazado 111184" d="M3436.138,5034.9l-8.3-4.736a.116.116,0,0,0-.113,0l-8.3,4.736,4.736-8.3a.116.116,0,0,0,0-.113l-4.736-8.3,8.3,4.736a.115.115,0,0,0,.113,0l8.3-4.736-4.736,8.3a.118.118,0,0,0,0,.112Zm-12.562-12.562,1.928,3.38a1.672,1.672,0,0,1,0,1.648l-1.929,3.38,3.381-1.928a1.671,1.671,0,0,1,1.647,0l3.38,1.928-1.929-3.38a1.669,1.669,0,0,1,0-1.648l1.929-3.38-3.38,1.928a1.671,1.671,0,0,1-1.647,0Z" transform="translate(-3419.423 -5018.183)" fill="#3d4451"/>
    </g>
    <g id="Grupo_55023" data-name="Grupo 55023" transform="translate(1564.933 4371.422)">
      <path id="Trazado_111185" data-name="Trazado 111185" d="M1940.512,4802.406l-5.177-2.953a.788.788,0,0,0-.78,0l-5.177,2.953,2.953-5.176a.786.786,0,0,0,0-.78l-2.953-5.177,5.177,2.954a.788.788,0,0,0,.78,0l5.177-2.954-2.953,5.177a.786.786,0,0,0,0,.78Z" transform="translate(-1927.539 -4789.433)" fill="#fdc345"/>
      <path id="Trazado_111186" data-name="Trazado 111186" d="M1933.5,4795.4l-7.357-4.2a.1.1,0,0,0-.1,0l-7.357,4.2,4.2-7.357a.1.1,0,0,0,0-.1l-4.2-7.358,7.357,4.2a.1.1,0,0,0,.1,0l7.357-4.2-4.2,7.358a.1.1,0,0,0,0,.1Zm-11.133-11.134,1.71,3a1.48,1.48,0,0,1,0,1.46l-1.71,3,3-1.709a1.483,1.483,0,0,1,1.46,0l3,1.709-1.709-3a1.479,1.479,0,0,1,0-1.46l1.709-3-3,1.71a1.48,1.48,0,0,1-1.46,0Z" transform="translate(-1918.688 -4780.583)" fill="#3d4451"/>
    </g>
    <g id="Grupo_55024" data-name="Grupo 55024" transform="translate(1984.183 4315.495)">
      <path id="Trazado_111187" data-name="Trazado 111187" d="M4380.019,4481.6l-5.815-3.318a.881.881,0,0,0-.875,0l-5.814,3.318,3.317-5.815a.882.882,0,0,0,0-.876l-3.317-5.814,5.814,3.316a.881.881,0,0,0,.875,0l5.815-3.316-3.317,5.814a.882.882,0,0,0,0,.876Z" transform="translate(-4365.207 -4466.792)" fill="#fdc345"/>
      <path id="Trazado_111188" data-name="Trazado 111188" d="M4371.229,4472.815l-8.549-4.877a.023.023,0,0,0-.022,0l-8.548,4.877,4.877-8.548a.022.022,0,0,0,0-.023l-4.877-8.548,8.548,4.877a.022.022,0,0,0,.023,0l8.548-4.877-4.877,8.548a.022.022,0,0,0,0,.023Zm-12.506-12.506,1.757,3.082a1.75,1.75,0,0,1,0,1.729l-1.757,3.082,3.082-1.759a1.753,1.753,0,0,1,1.729,0l3.081,1.758-1.757-3.081a1.75,1.75,0,0,1,0-1.728l1.757-3.083-3.081,1.759a1.751,1.751,0,0,1-1.729,0Z" transform="translate(-4354.109 -4455.695)" fill="#3d4451"/>
    </g>
    <g id="Grupo_55025" data-name="Grupo 55025" transform="translate(1724.104 4372.97)">
      <path id="Trazado_111189" data-name="Trazado 111189" d="M2866.637,4812.9l-4.92-2.808a.751.751,0,0,0-.741,0l-4.921,2.808,2.808-4.921a.746.746,0,0,0,0-.74l-2.808-4.921,4.921,2.808a.746.746,0,0,0,.741,0l4.92-2.808-2.807,4.921a.746.746,0,0,0,0,.74Z" transform="translate(-2853.861 -4800.12)" fill="#fdc345"/>
      <path id="Trazado_111190" data-name="Trazado 111190" d="M2858.28,4804.538l-7.485-4.271-7.486,4.271,4.271-7.486-4.271-7.485,7.486,4.271,7.485-4.271-4.271,7.485Zm-7.485-5.917a1.572,1.572,0,0,1,.776.205l2.321,1.324-1.324-2.321a1.573,1.573,0,0,1,0-1.552l1.324-2.321-2.32,1.324a1.572,1.572,0,0,1-1.553,0l-2.32-1.324,1.324,2.321a1.571,1.571,0,0,1,0,1.552l-1.324,2.321,2.321-1.324A1.572,1.572,0,0,1,2850.795,4798.621Z" transform="translate(-2843.309 -4789.567)" fill="#3d4451"/>
    </g>
    <g id="Grupo_55026" data-name="Grupo 55026" transform="translate(2145.467 4374.853)">
      <path id="Trazado_111191" data-name="Trazado 111191" d="M5304.494,4814l-3.482-1.985a.527.527,0,0,0-.525,0L5297,4814l1.987-3.482a.533.533,0,0,0,0-.524L5297,4806.51l3.482,1.987a.527.527,0,0,0,.525,0l3.482-1.987-1.986,3.483a.526.526,0,0,0,0,.524Z" transform="translate(-5295.972 -4805.477)" fill="#fdc345"/>
      <path id="Trazado_111192" data-name="Trazado 111192" d="M5300.559,4810.064l-4.707-2.686a.145.145,0,0,0-.143,0l-4.707,2.685,2.686-4.706a.146.146,0,0,0,0-.143l-2.686-4.706,4.707,2.685a.145.145,0,0,0,.143,0l4.707-2.685-2.685,4.706a.149.149,0,0,0,0,.143Zm-7.488-7.489,1.287,2.258a.917.917,0,0,1,0,.906l-1.287,2.258,2.258-1.289a.925.925,0,0,1,.906,0l2.258,1.289-1.288-2.258a.917.917,0,0,1,0-.906l1.288-2.258-2.258,1.288a.92.92,0,0,1-.906,0Z" transform="translate(-5291.003 -4800.509)" fill="#3d4451"/>
    </g>
    <path id="Trazado_111193" data-name="Trazado 111193" d="M1522.426,5317.7h-29.74a1.313,1.313,0,0,1,0-2.627h29.74a1.313,1.313,0,0,1,0,2.627Z" transform="translate(0 -851.638)" fill="#3d4451"/>
    <g id="Grupo_55030" data-name="Grupo 55030" transform="translate(1592.792 4325.561)">
      <rect id="Rectángulo_6067" data-name="Rectángulo 6067" width="38.421" height="29.362" rx="14.681" transform="matrix(1, -0.001, 0.001, 1, 5.865, 12.698)" fill="#f04f4c"/>
      <path id="Trazado_111194" data-name="Trazado 111194" d="M2087.545,4594.108a6.995,6.995,0,0,1-6.992-6.982l-.032-21.437a6.993,6.993,0,0,1,6.982-7l31.37-.046h.01a6.993,6.993,0,0,1,6.992,6.982l.032,21.437a7,7,0,0,1-6.981,7l0-1.065,0,1.065-31.37.047Zm31.339-33.338h-.008l-31.37.046a4.863,4.863,0,0,0-4.855,4.869l.032,21.438a4.861,4.861,0,0,0,4.862,4.854h.008l31.37-.046a4.868,4.868,0,0,0,4.854-4.869l-.032-21.437a4.862,4.862,0,0,0-4.862-4.854Z" transform="translate(-2080.521 -4550.983)" fill="#3d4451"/>
      <path id="Trazado_111195" data-name="Trazado 111195" d="M2146.381,4525.955l-.006-4.166a3.939,3.939,0,0,1,3.933-3.944l14.774-.022h.006a3.939,3.939,0,0,1,3.938,3.933l.006,4.166-2.13,0-.006-4.166a1.81,1.81,0,0,0-1.808-1.805h0l-14.774.021a1.808,1.808,0,0,0-1.805,1.812l.006,4.166Z" transform="translate(-2135.038 -4517.194)" fill="#3d4451"/>
      <g id="Grupo_55027" data-name="Grupo 55027" transform="translate(8.723 11.365)">
        <circle id="Elipse_4170" data-name="Elipse 4170" cx="9.878" cy="9.878" r="9.878" transform="translate(0 13.97) rotate(-45)" fill="#f5fafc"/>
        <path id="Trazado_111196" data-name="Trazado 111196" d="M2161.422,4621.006a10.589,10.589,0,0,1-10.588-10.573h0a10.6,10.6,0,0,1,10.573-10.6h.016a10.589,10.589,0,0,1,.016,21.178Zm0-19.757h-.014a9.179,9.179,0,0,0-9.154,9.181h0a9.167,9.167,0,0,0,9.167,9.155h.014a9.168,9.168,0,0,0-.013-18.336Z" transform="translate(-2147.452 -4596.447)" fill="#3d4451"/>
      </g>
      <rect id="Rectángulo_6068" data-name="Rectángulo 6068" width="11.233" height="2.125" transform="matrix(1, -0.001, 0.001, 1, 16.929, 24.993)" fill="#4ece46"/>
      <rect id="Rectángulo_6069" data-name="Rectángulo 6069" width="2.429" height="10.626" transform="matrix(1, -0.001, 0.001, 1, 22.084, 20.735)" fill="#4ece46"/>
      <g id="Grupo_55028" data-name="Grupo 55028" transform="translate(16.054 18.468)">
        <path id="Trazado_111197" data-name="Trazado 111197" d="M2177.893,4635.257l-.007-4.3-4.1.005-.008-5.191,4.1-.005-.006-4.3,5.005-.008.007,4.3,4.1-.006.008,5.191-4.1.006.006,4.3Zm1.294-5.61.006,4.3,2.4,0-.006-4.3,4.1-.006,0-2.585-4.1.007-.006-4.305-2.4,0,.006,4.305-4.1.006,0,2.585Z" transform="translate(-2173.779 -4621.449)" fill="#3d4451"/>
      </g>
      <rect id="Rectángulo_6070" data-name="Rectángulo 6070" width="16.154" height="3.275" transform="translate(14.469 0.024) rotate(-0.085)" fill="#3d4451"/>
      <g id="Grupo_55029" data-name="Grupo 55029" transform="translate(1.271 36.807)">
        <line id="Línea_173" data-name="Línea 173" x2="42.39" y2="0.155" transform="translate(0.003 0.764)" fill="#f5fafc"/>
        <rect id="Rectángulo_6071" data-name="Rectángulo 6071" width="1.528" height="42.39" transform="translate(0 1.528) rotate(-89.79)" fill="#3d4451"/>
      </g>
    </g>
    <g id="Grupo_55037" data-name="Grupo 55037" transform="translate(2056.703 4370.544)">
      <g id="Grupo_55036" data-name="Grupo 55036">
        <g id="Grupo_55035" data-name="Grupo 55035">
          <g id="Grupo_55034" data-name="Grupo 55034">
            <g id="Grupo_55031" data-name="Grupo 55031">
              <path id="Trazado_111198" data-name="Trazado 111198" d="M4779.028,4793.987c.781-3.447,3.361-5.068,5.817-7.346,1.583-1.467,3.3-2.785,4.36-4.639a7.959,7.959,0,0,1,1.267-1.859,2.428,2.428,0,0,1,3.356-.049,3.407,3.407,0,0,1,.357,3.762c-.586,1.3-1.972,2-2.6,3.285-.482.978-1.208,2.4-.237,3.019,3.552,2.271,6.049.23,7.446-1.209a16.526,16.526,0,0,1,3.4-2.728,15.467,15.467,0,0,1,2.019-1c.52-.212,1.791-.379,2.094-.841.811-1.235,1.363-2.24,3.253-1.979,1.837.254,2.406,1.672,3.134,3.078,6.024,11.623-7.857,21.314-18.731,20.667-2.526-.15-5.016-.754-7.546-.777s-6.394.809-7.979,2.711" transform="translate(-4777.908 -4778.762)" fill="#c7ddeb"/>
              <path id="Trazado_111199" data-name="Trazado 111199" d="M4776.43,4805.239l-1.051-.876c1.815-2.18,5.982-2.958,8.412-2.958h.1a33.867,33.867,0,0,1,4.325.412c1.069.149,2.175.3,3.256.366,6.673.4,14.246-3.211,17.612-8.393a10.685,10.685,0,0,0,.471-11.277l-.178-.349c-.687-1.352-1.173-2.19-2.441-2.365-1.369-.19-1.737.374-2.47,1.5l-.118.18a3.116,3.116,0,0,1-1.849.935c-.216.057-.439.117-.558.165a14.731,14.731,0,0,0-1.928.958,15.865,15.865,0,0,0-3.258,2.615,6.886,6.886,0,0,1-4.815,2.442,6.437,6.437,0,0,1-3.491-1.132c-1.469-.939-.536-2.829-.035-3.844l.027-.055a6.8,6.8,0,0,1,1.413-1.779,5.324,5.324,0,0,0,1.181-1.483,2.757,2.757,0,0,0-.222-3,1.753,1.753,0,0,0-2.394.062,6.185,6.185,0,0,0-1,1.441c-.051.09-.1.179-.151.267a16.609,16.609,0,0,1-3.569,3.968c-.308.276-.616.552-.92.833-.459.426-.924.83-1.373,1.22-1.96,1.706-3.653,3.18-4.242,5.775l-1.335-.3c.687-3.031,2.626-4.719,4.679-6.5.44-.384.9-.781,1.34-1.192.31-.288.624-.569.938-.85a15.313,15.313,0,0,0,3.295-3.628c.049-.085.1-.172.147-.258a7.261,7.261,0,0,1,1.237-1.754,3.118,3.118,0,0,1,4.32-.036,4.093,4.093,0,0,1,.493,4.522,6.429,6.429,0,0,1-1.462,1.892,5.681,5.681,0,0,0-1.152,1.417l-.026.055c-.432.873-.858,1.827-.456,2.084,3.013,1.927,5.1.419,6.586-1.109a17.28,17.28,0,0,1,3.541-2.84,16.126,16.126,0,0,1,2.11-1.046,6.167,6.167,0,0,1,.725-.221,4.2,4.2,0,0,0,1.065-.377l.106-.162c.774-1.187,1.575-2.414,3.8-2.1,2.041.282,2.8,1.779,3.475,3.1.057.112.114.227.173.34a11.989,11.989,0,0,1-.54,12.651,19.846,19.846,0,0,1-8.218,6.827,22.392,22.392,0,0,1-10.622,2.189c-1.135-.068-2.268-.226-3.363-.377a32.534,32.534,0,0,0-4.149-.4h-.1C4781.157,4802.773,4777.723,4803.685,4776.43,4805.239Zm26.788-24.535h0Z" transform="translate(-4775.378 -4775.482)" fill="#3d4451"/>
            </g>
            <path id="Trazado_111200" data-name="Trazado 111200" d="M4828.917,4841.425a.684.684,0,0,1-.245-1.324c2.83-1.083,2.758-3.14,2.681-5.317l-.013-.352a.684.684,0,0,1,1.368-.042l.012.346c.078,2.2.184,5.211-3.559,6.644A.681.681,0,0,1,4828.917,4841.425Z" transform="translate(-4819.134 -4823.7)" fill="#3d4451"/>
            <path id="Trazado_111201" data-name="Trazado 111201" d="M4838.729,4857.395c-.124,0-.25-.005-.378-.017a11.845,11.845,0,0,1-4.3-1.6c-.373-.2-.725-.384-1.068-.552-8.119-3.962-11.159-.125-11.285.04a.684.684,0,0,1-1.1-.815c.15-.2,3.778-4.948,12.985-.455.364.178.743.378,1.108.573a10.708,10.708,0,0,0,3.784,1.451c2.083.186,3.406-2.032,4.483-4.126.813-1.582,2.391-2.941,4.082-2.407a2.973,2.973,0,0,1,1.881,1.786,2.233,2.233,0,0,1-.2,1.99.684.684,0,0,1-1.147-.747.869.869,0,0,0,.057-.781,1.577,1.577,0,0,0-1.005-.943c-.987-.312-2.008.863-2.453,1.729C4843.288,4854.241,4841.667,4857.395,4838.729,4857.395Z" transform="translate(-4812.704 -4836.645)" fill="#3d4451"/>
            <g id="Grupo_55032" data-name="Grupo 55032" transform="translate(16.479 11.771)">
              <path id="Trazado_111202" data-name="Trazado 111202" d="M4875.083,4847.837a8,8,0,0,1,3.877,4.06" transform="translate(-4874.398 -4847.152)" fill="#fff"/>
              <path id="Trazado_111203" data-name="Trazado 111203" d="M4875.668,4849.291a.686.686,0,0,1-.63-.417,7.309,7.309,0,0,0-3.509-3.7.685.685,0,0,1,.524-1.266,8.66,8.66,0,0,1,4.245,4.424.684.684,0,0,1-.362.9A.673.673,0,0,1,4875.668,4849.291Z" transform="translate(-4871.106 -4843.861)" fill="#3d4451"/>
            </g>
            <path id="Trazado_111204" data-name="Trazado 111204" d="M4898.715,4812.349a.684.684,0,0,1-.373-1.258h0c.05-.033,5.048-3.315,6.541-7.751a.684.684,0,1,1,1.3.437c-1.647,4.9-6.872,8.32-7.095,8.463A.671.671,0,0,1,4898.715,4812.349Z" transform="translate(-4876.916 -4798.158)" fill="#3d4451"/>
            <path id="Trazado_111205" data-name="Trazado 111205" d="M4919.212,4812.158a.684.684,0,0,1-.367-1.262c7.723-4.886,7.99-11.364,7.992-11.43a.684.684,0,0,1,1.368.032c-.007.294-.252,7.255-8.627,12.553A.681.681,0,0,1,4919.212,4812.158Z" transform="translate(-4893.884 -4794.787)" fill="#3d4451"/>
            <path id="Trazado_111206" data-name="Trazado 111206" d="M4964.88,4817.986a.686.686,0,0,1-.595-1.023h0c.66-1.162,2.208-4.721.716-5.8-.378-.273-.681-.366-.9-.275-.469.195-.838,1.21-.938,1.836a.684.684,0,0,1-1.352-.215c.037-.235.4-2.317,1.764-2.884a2.212,2.212,0,0,1,2.226.427c2.752,1.982,0,7.017-.325,7.584A.685.685,0,0,1,4964.88,4817.986Z" transform="translate(-4929.711 -4803.635)" fill="#3d4451"/>
            <g id="Grupo_55033" data-name="Grupo 55033" transform="translate(31.879 5.932)">
              <path id="Trazado_111207" data-name="Trazado 111207" d="M4967.145,4820.962s2.915-5.093.521-6.689c-2.336-1.558-3.127,2.437-3.127,2.437" transform="translate(-4963.853 -4813.228)" fill="#c7ddeb"/>
              <path id="Trazado_111208" data-name="Trazado 111208" d="M4963.852,4818.36a.684.684,0,0,1-.594-1.024c.673-1.18,2.251-4.771.736-5.781-.518-.345-.778-.237-.863-.2-.64.265-1.095,1.6-1.214,2.2a.684.684,0,1,1-1.342-.266c.051-.263.552-2.586,2.031-3.2a2.206,2.206,0,0,1,2.147.327c2.844,1.9.025,7.021-.306,7.6A.685.685,0,0,1,4963.852,4818.36Z" transform="translate(-4960.562 -4809.942)" fill="#3d4451"/>
            </g>
          </g>
        </g>
      </g>
    </g>
    <g id="Grupo_55038" data-name="Grupo 55038" transform="translate(2066.24 4335.601)">
      <ellipse id="Elipse_4171" data-name="Elipse 4171" cx="19.62" cy="18.461" rx="19.62" ry="18.461" transform="translate(1.176 10.47) rotate(-12.512)" fill="#f5fafc"/>
      <circle id="Elipse_4172" data-name="Elipse 4172" cx="15.224" cy="15.224" r="15.224" transform="matrix(0.974, -0.228, 0.228, 0.974, 5.437, 13.013)" fill="#c7ddeb"/>
      <path id="Trazado_111209" data-name="Trazado 111209" d="M4893.771,4710.844l-.458-2.061-6.109,1.355.092-3.006-4.728-3.472,1.089-4.128-3.28-.618a15.238,15.238,0,0,0,12.7,17.663l.8-1.309-2.84-2.9Z" transform="translate(-4871.653 -4677.15)" fill="#7ec13e"/>
      <path id="Trazado_111210" data-name="Trazado 111210" d="M4873.425,4634.96a19.842,19.842,0,0,1-4.294-39.211h0a19.84,19.84,0,1,1,4.294,39.211Zm-3.955-37.682a18.274,18.274,0,1,0,21.8,13.881,18.295,18.295,0,0,0-21.8-13.881Z" transform="translate(-4849.661 -4591.353)" fill="#3d4451"/>
      <path id="Trazado_111211" data-name="Trazado 111211" d="M4833.285,4605.936a.673.673,0,0,1-.619-.411,23.931,23.931,0,0,1-1.314-4.124,23.777,23.777,0,0,1,25.177-28.831.671.671,0,1,1-.112,1.338A22.436,22.436,0,0,0,4833.9,4605a.671.671,0,0,1-.618.933Z" transform="translate(-4830.779 -4572.489)" fill="#7eb9c7"/>
      <path id="Trazado_111212" data-name="Trazado 111212" d="M5014.736,4670.926a.672.672,0,0,1-.246-1.3,22.438,22.438,0,0,0,10.846-32.683.671.671,0,0,1,1.141-.708,23.773,23.773,0,0,1-11.5,34.641A.679.679,0,0,1,5014.736,4670.926Z" transform="translate(-4982.513 -4625.001)" fill="#7eb9c7"/>
      <path id="Trazado_111213" data-name="Trazado 111213" d="M4956.81,4637.556a15.229,15.229,0,0,0-14.78-11.929l-1.439,1.8,2.8.38-.471,4.225-6.087,3.354a.825.825,0,0,0-.073,1.4l2.945,3.081,3.137-1.34,4.472,1.9-.56,5.259,3.313,2.438,3.064-4.676,2.127,1.119,1.916-3.981A15.313,15.313,0,0,0,4956.81,4637.556Z" transform="translate(-4918.221 -4616.479)" fill="#7ec13e"/>
      <path id="Trazado_111214" data-name="Trazado 111214" d="M4869.708,4710.953a1.119,1.119,0,0,1-.387-.069c-12.222-4.5-12.708-17.23-12.567-21.026a1.133,1.133,0,0,1,1.631-.975l2.071,1.012a.121.121,0,0,0,.032.01l3.221.608a1.132,1.132,0,0,1,.89,1.39l-.716,2.863a.127.127,0,0,0,.044.13l4.053,3.246a1.14,1.14,0,0,1,.425.92l-.058,1.881a.127.127,0,0,0,.154.128l4.7-1.043a1.136,1.136,0,0,1,1.353.861l.219.986a1.141,1.141,0,0,1-.555,1.237l-1.6.892a.126.126,0,0,0-.065.093.129.129,0,0,0,.036.107l1.917,1.958a1.132,1.132,0,0,1,.156,1.386l-1.257,2.05a1.142,1.142,0,0,1-.967.541h-1.55a.13.13,0,0,0-.119.082A1.139,1.139,0,0,1,4869.708,4710.953Zm-11.822-21.18a.131.131,0,0,0-.065.019.121.121,0,0,0-.062.1c-.135,3.625.323,15.78,11.908,20.043a.128.128,0,0,0,.162-.075h0a1.139,1.139,0,0,1,1.06-.73h1.55a.128.128,0,0,0,.108-.062l1.258-2.048a.129.129,0,0,0-.019-.156l-1.917-1.958a1.133,1.133,0,0,1,.259-1.784l1.6-.893a.127.127,0,0,0,.062-.139l-.219-.986a.127.127,0,0,0-.151-.1l-4.7,1.043a1.133,1.133,0,0,1-1.38-1.142l.058-1.881a.129.129,0,0,0-.048-.1l-4.053-3.246a1.138,1.138,0,0,1-.392-1.161l.716-2.863a.121.121,0,0,0-.016-.1.13.13,0,0,0-.084-.057l-3.22-.607a1.129,1.129,0,0,1-.287-.1l-2.072-1.013A.132.132,0,0,0,4857.886,4689.773Z" transform="translate(-4852.269 -4668.75)" fill="#3d4451"/>
      <path id="Trazado_111215" data-name="Trazado 111215" d="M4947.773,4633.7l-3.975-2.925.551-5.176-3.933-1.67-3.259,1.393-3.156-3.3a1.328,1.328,0,0,1,.164-2.22l5.857-3.229.389-3.478-3.192-.433,3.251-4.062,6.22-1.268.2.987-5.862,1.195-1.913,2.389,2.405.326-.556,4.974-6.313,3.48a.32.32,0,0,0-.167.264.316.316,0,0,0,.139.28l.04.029,2.74,2.864,3.013-1.287,5.013,2.128-.568,5.342,2.652,1.952,3.023-4.614,2.069,1.089,2.688-5.586-1.532-2.616.46-2.993,3.355.593-.175.991-2.342-.413-.25,1.621,1.622,2.77-3.372,7.01-2.184-1.149Z" transform="translate(-4915.799 -4601.333)" fill="#3d4451"/>
    </g>
    <g id="Grupo_55039" data-name="Grupo 55039" transform="translate(2038.859 4331.745)">
      <path id="Trazado_111216" data-name="Trazado 111216" d="M4684.943,4573.423a2.028,2.028,0,0,1-1.41-.7l-6.849-7.526a1.741,1.741,0,0,1,.2-2.547,1.994,1.994,0,0,1,2.689.182l5.362,5.859,11.641-13.456a1.989,1.989,0,0,1,2.683-.261,1.719,1.719,0,0,1,.277,2.521l-13.082,15.191a1.965,1.965,0,0,1-1.455.737Z" transform="translate(-4675.449 -4553.803)" fill="#7ec13e"/>
      <path id="Trazado_111217" data-name="Trazado 111217" d="M4681.3,4570.495h-.1a2.787,2.787,0,0,1-1.969-.95l-6.85-7.528a2.485,2.485,0,0,1-.655-1.885,2.518,2.518,0,0,1,.944-1.786,2.782,2.782,0,0,1,3.748.261l4.775,5.218,11.071-12.8a2.778,2.778,0,0,1,3.74-.37,2.523,2.523,0,0,1,.995,1.757,2.479,2.479,0,0,1-.6,1.887l-13.081,15.19A2.75,2.75,0,0,1,4681.3,4570.495Zm-6.888-11.206a1.214,1.214,0,0,0-.762.262.985.985,0,0,0-.375.7.958.958,0,0,0,.255.725l6.851,7.527a1.274,1.274,0,0,0,.85.445l-.014.774.017-.774h.074a1.214,1.214,0,0,0,.838-.468l13.082-15.19a.94.94,0,0,0,.234-.717.985.985,0,0,0-.4-.684,1.221,1.221,0,0,0-1.625.152l-12.211,14.115-5.951-6.5A1.174,1.174,0,0,0,4674.411,4559.289Z" transform="translate(-4671.723 -4550.099)" fill="#3d4451"/>
    </g>
    <path id="Trazado_111218" data-name="Trazado 111218" d="M4352.721,4706.878H4351V4695h15.321v1.721h-13.6Z" transform="translate(-2367.352 -338.31)" fill="#3d4451"/>
    <path id="Trazado_111219" data-name="Trazado 111219" d="M4627.321,4706.878H4625.6v-10.157H4612V4695h15.321Z" transform="translate(-2583.422 -338.31)" fill="#3d4451"/>
  </g>
</svg>
