<svg xmlns="http://www.w3.org/2000/svg" width="251.997" height="199.318" viewBox="0 0 251.997 199.318">
  <g id="Grupo_59462" data-name="Grupo 59462" transform="translate(-315.826 -508.396)">
    <g id="Grupo_59445" data-name="Grupo 59445" transform="translate(315.826 508.397)">
      <g id="Grupo_59426" data-name="Grupo 59426" transform="translate(62.166 74.252)">
        <path id="Trazado_115978" data-name="Trazado 115978" d="M435.777,582.942q.951,6.541,1.678,13.106,1.283,11.629,1.841,23.313t.394,23.4c-.015,1.124,2.3,1.2,2.43.058q.729-6.51,1.226-13.026a357.683,357.683,0,0,0,.5-46.493.9.9,0,0,0-.135-.431c.108-.469-.227-.975-1.066-.979l-5.578-.031C436.223,581.851,435.694,582.373,435.777,582.942Z" transform="translate(-376.698 -581.856)" fill="#493532"/>
        <path id="Trazado_115979" data-name="Trazado 115979" d="M377.342,582.942q1.222,6.541,2.221,13.106,1.765,11.629,2.807,23.313t1.364,23.4c.031,1.124,2.352,1.2,2.433.058q.459-6.51.686-13.026a358.1,358.1,0,0,0-1.428-46.493.933.933,0,0,0-.153-.431c.089-.469-.268-.975-1.107-.979l-5.58-.031C377.741,581.851,377.236,582.373,377.342,582.942Z" transform="translate(-377.328 -581.856)" fill="#493532"/>
      </g>
      <path id="Trazado_115980" data-name="Trazado 115980" d="M364.326,635.872c-.817-.061-3.909,7.832-3.331,8.273s1.945-2.457,2.218-2.407.409,3.251.789,4.743c.251.987.762,2.865,1.933,3.411s1.923-.445,1.953-1.366c.056-1.7-.025-3.415-.127-5.109C367.409,637.532,365.568,635.966,364.326,635.872Z" transform="translate(-315.339 -507.021)"/>
      <path id="Trazado_115981" data-name="Trazado 115981" d="M385.821,586.024c-5.242-2-6.758,10.159-6.758,10.159h-.005c-.246.78-5.874,6.629-8.171,13.719-3.176,9.8-2.949,18.808-6.6,26.51-.7,3.239,2.1,9.022,3.461,7.989.125-10.992,20.438-33.23,23.905-43.521C393.642,594.992,392.233,590.647,385.821,586.024Z" transform="translate(-315.304 -507.562)" fill="#ef8e5e"/>
      <g id="Grupo_59427" data-name="Grupo 59427" transform="translate(39.362 35.199)">
        <path id="Trazado_115982" data-name="Trazado 115982" d="M379.385,558.838c-5.715-2.189-11.293-4.853-15.42-8.03l-9.2-7.588.488,18.481c5.21,2.035,17.5,5.1,23.569,5.367A17.023,17.023,0,0,0,379.385,558.838Z" transform="translate(-354.768 -543.22)" fill="#c5d4dd"/>
        <path id="Trazado_115983" data-name="Trazado 115983" d="M379.548,559.027s3.965.763,4.7.739,6.445-.827,7.313-.757a21.834,21.834,0,0,1,4.247,1.15,23.026,23.026,0,0,1,2.759,1.882c.571.454-.179,1.162-.834.9s-1.777-.714-1.933-.774-1.495-.166-1.495-.166a13.386,13.386,0,0,1,1.292.592c.858.435.213,1.98-.784,1.7.043.753-.2,1.282-1.182,1.246.472,1.278-.849,1.586-3.6,1.122-1.584.641-11.178-.427-11.178-.427Z" transform="translate(-354.508 -543.05)" fill="#f99b67"/>
        <path id="Trazado_115984" data-name="Trazado 115984" d="M378.569,566.9a15.31,15.31,0,0,0,4.911.4c.285-.239.277-5.132.48-7.583a.193.193,0,0,0-.034-.2.213.213,0,0,0-.219-.071l-4.578-.78A55.667,55.667,0,0,0,378.569,566.9Z" transform="translate(-354.512 -543.053)" fill="#f4f4f4"/>
      </g>
      <path id="Trazado_115985" data-name="Trazado 115985" d="M374.063,601.294a7.57,7.57,0,0,0-1.83-3.648,9.577,9.577,0,0,0-4.406-2.636,27.706,27.706,0,0,0-5.466-.9q-3.1-.293-6.213-.482-6.262-.382-12.539-.346-3.117.018-6.23.14-1.557.061-3.112.148a11.981,11.981,0,0,0-2.69.349,4.966,4.966,0,0,0-3.384,3.491c-.025.079-.043.161-.066.241a7.1,7.1,0,0,1-1.26-1.78A14.257,14.257,0,0,1,325.7,590.3c.032,0,.066,0,.1-.008,1.052-.129,4.3.033,4.517-6.248a255.307,255.307,0,0,0-1.234-30.125q-.625-7.491-1.572-14.952-.469-3.687-1.014-7.366-.277-1.859-.572-3.715a18.4,18.4,0,0,0-.678-3.095c-.7-2.049-2.524-3.85-4.835-3.174-1.949.571-2.724,2.848-3.059,4.632-.2,1.075-.288,2.179-.406,3.267q-.206,1.889-.375,3.783-.323,3.624-.505,7.256a193.054,193.054,0,0,0,.818,29.89q.384,3.659.911,7.3a52.54,52.54,0,0,0,1.195,6.755c.614,2.172,1.752,4.344,3.918,5.3.126.056.256.106.387.155.264,2.608.6,5.327,1.972,7.606a8.482,8.482,0,0,0,2.42,2.609,14.689,14.689,0,0,0-.128,2.337,5,5,0,0,0,2.448,4.371l.022.011a10.661,10.661,0,0,0-.264,4.987,4.208,4.208,0,0,0,3.171,3.1,48.846,48.846,0,0,0,5.165.992q2.662.428,5.368.71,1.336.138,2.679.242-.644,6.238-1.29,12.476a.351.351,0,0,0-.406.309q-.167,1.553-.335,3.105c-.666.07-1.334.139-2,.268a7.323,7.323,0,0,0-3.225,1.388,4.83,4.83,0,0,0-1.716,2.953c-.261,1.349-.331,2.72-.475,4.068l-.467,4.331a18.051,18.051,0,0,0-.2,2,1.091,1.091,0,0,0,.445.954l-.154,1.3a1.871,1.871,0,0,0-1.156,1.705,1.436,1.436,0,0,0,1.509,1.466c.891,0,1.436-1.023,1.456-1.746a1.389,1.389,0,0,0-.968-1.376q.079-.679.16-1.357a1.327,1.327,0,0,0,.469-.437,4.226,4.226,0,0,0,.429-1.736l.652-4.279c.214-1.408.355-2.842.663-4.247a2.329,2.329,0,0,1,1.1-1.7.845.845,0,0,1,1.282.523,7.477,7.477,0,0,1,.21,1.758l.163,2.131q.161,2.089.32,4.179.082,1.064.163,2.13a1.82,1.82,0,0,0,.426,1.321.869.869,0,0,0,.143.094q-.05.8-.1,1.6a1.92,1.92,0,0,0-1.056,1.673,1.435,1.435,0,0,0,1.508,1.466c.892,0,1.437-1.023,1.457-1.746a1.4,1.4,0,0,0-1.06-1.406q.048-.788.1-1.577a.885.885,0,0,0,.147-.1,1.47,1.47,0,0,0,.41-1.169c.062-1.428.114-2.857.172-4.285l.169-4.2a3.292,3.292,0,0,1,.371-1.82,1.711,1.711,0,0,1,1.76-.541c2.562.531,3.035,3.687,3.624,5.817l1.086,3.933a5.456,5.456,0,0,0,1,2.414q.021.822.04,1.645a2.017,2.017,0,0,0-.845,1.568,1.435,1.435,0,0,0,1.508,1.466c.892,0,1.437-1.023,1.457-1.746a1.413,1.413,0,0,0-1.267-1.446l-.039-1.618a6.885,6.885,0,0,0,.257-4.059c-.577-3.082-2.357-7.64-1.976-8.026s4.537.385,6.662,3.879a17.682,17.682,0,0,1,1.787,3.829c.229.719.421,1.454.584,2.2.08.36.153.721.221,1.084a3.463,3.463,0,0,0,.208.877.685.685,0,0,0,.278.289l.083,1.693a2.011,2.011,0,0,0-.866,1.581,1.435,1.435,0,0,0,1.508,1.466c.892,0,1.437-1.023,1.457-1.746a1.413,1.413,0,0,0-1.245-1.444l-.085-1.732a3.347,3.347,0,0,0,.374-1.837,12.36,12.36,0,0,0-.45-4.163,11.512,11.512,0,0,0-4.567-6.286A16.112,16.112,0,0,0,350,633.52a12.382,12.382,0,0,0-.182-3.791.316.316,0,0,0-.419-.221l1.534-12.337q1.821.053,3.652.045,2.8-.015,5.627-.182a17.194,17.194,0,0,0,4.872-.676,5.96,5.96,0,0,0,3.294-3.006,10.856,10.856,0,0,0,.957-4.278,9.084,9.084,0,0,0,1.5-.649C373.185,607.119,375.022,603.984,374.063,601.294Zm-48.408-4.248a17.454,17.454,0,0,1-1.745-6.9,5.518,5.518,0,0,0,1.2.172,14.445,14.445,0,0,0,1.356,6.075,7.289,7.289,0,0,0,1.5,1.912c-.081.4-.145.8-.2,1.2A8.115,8.115,0,0,1,325.655,597.046Zm19.394,33.427a4.7,4.7,0,0,0,2.131.5,3.183,3.183,0,0,0,2.047-.577,11.869,11.869,0,0,1,.085,3.19,3.75,3.75,0,0,1-4.541-.535Zm4.643,3.63a.43.43,0,0,0,.109-.085,15.168,15.168,0,0,1,8.641,3.014,11.045,11.045,0,0,1,3.89,6.481,11.185,11.185,0,0,1,.064,4.182c-.034.178-.008.231-.208.276s-.179.016-.231-.143a4.3,4.3,0,0,1-.105-.539q-.089-.478-.19-.949c-.135-.63-.286-1.253-.46-1.868a13.717,13.717,0,0,0-3.681-6.466c-2.078-1.913-5.375-2.684-5.878-2.042s.576,4.074,1.267,6.076c1.3,3.759.768,6.122.358,6.057s-.468-.82-.59-1.259q-.3-1.079-.6-2.159c-.394-1.428-.784-2.857-1.183-4.284a7.955,7.955,0,0,0-1.569-3.351,3.355,3.355,0,0,0-2.757-1.178,2.125,2.125,0,0,0-1.9,1.87,14.479,14.479,0,0,0-.108,1.805q-.039.989-.08,1.977-.082,2.06-.165,4.12-.023.578-.046,1.153a4.633,4.633,0,0,1-.057.936c-.1.391-.455.5-.694.219a1.425,1.425,0,0,1-.206-.813c-.23-2.726-.418-5.462-.628-8.193-.071-.916.047-2.244-.636-2.9a1.625,1.625,0,0,0-2.207.349c-.888.907-.916,2.3-1.083,3.39q-.318,2.1-.639,4.195-.165,1.09-.332,2.181c-.052.336-.1.671-.154,1.007a2.214,2.214,0,0,1-.257.949c-.188.273-.519.356-.7.1a.857.857,0,0,1-.119-.512,9.781,9.781,0,0,1,.1-1.036l.2-1.832.449-4.164a18.909,18.909,0,0,1,.566-3.958c.874-2.648,3.892-3.155,6.186-3.4a.319.319,0,0,0,.046.077A4.4,4.4,0,0,0,349.692,634.1Zm-1.04-4.062a3.024,3.024,0,0,1-1.634.255,4.028,4.028,0,0,1-1.533-.4l.005-.022,1.334-12.9q1.71.12,3.433.183Zm18.81-16.361a5.566,5.566,0,0,1-4.193,2.441,50.047,50.047,0,0,1-5.093.347q-2.608.1-5.2.072a101.246,101.246,0,0,1-10.266-.633q-2.537-.288-5.038-.7-1.305-.218-2.6-.472a16.825,16.825,0,0,1-2.311-.546,3.638,3.638,0,0,1-2.422-2.972,10.383,10.383,0,0,1,.3-4.026,19.008,19.008,0,0,0,4.421,1.028,134.182,134.182,0,0,0,24.684,1.816c1.962-.037,3.934-.082,5.889-.257a17.894,17.894,0,0,0,3.006-.492A9.14,9.14,0,0,1,367.461,613.679Z" transform="translate(-315.826 -508.256)"/>
      <path id="Trazado_115986" data-name="Trazado 115986" d="M356.2,639.118c-.815-.086-4.143,7.71-3.579,8.169s2.019-2.4,2.289-2.339.311,3.262.646,4.764c.221.994.675,2.886,1.828,3.468s1.936-.386,1.993-1.306c.107-1.7.078-3.413.027-5.11C359.234,640.87,357.44,639.249,356.2,639.118Z" transform="translate(-315.43 -506.986)"/>
      <path id="Trazado_115987" data-name="Trazado 115987" d="M385.386,591.561a23.068,23.068,0,0,0-10.851-6.626l-2.391,15h-.005c-.269.772-6.071,6.449-8.581,13.465-3.471,9.7-3.517,18.711-7.393,26.3-.8,3.216,1.827,9.081,3.218,8.089.267-7.587,21.733-33.646,26.934-43.032C387.644,602.365,389.161,596.3,385.386,591.561Z" transform="translate(-315.392 -507.571)" fill="#fdb688"/>
      <path id="Trazado_115988" data-name="Trazado 115988" d="M386.211,586.228c-4.907-3.406-16.18-7.626-23.5-9.831l-1.621-7.462-31.734-1.982c-2.652,12.64-.919,25.625,3.119,30.383,7.247,8.539,17.914,7.331,36.492,7.226C377.1,600.563,378.49,588.923,386.211,586.228Z" transform="translate(-315.694 -507.765)" fill="#003a61"/>
      <g id="Grupo_59428" data-name="Grupo 59428" transform="translate(16.778 76.496)">
        <path id="Trazado_115989" data-name="Trazado 115989" d="M333.476,588.283a2.269,2.269,0,0,1-.429-1.524.308.308,0,0,0-.615-.028,2.809,2.809,0,0,0,.5,1.844C333.159,588.892,333.7,588.606,333.476,588.283Z" transform="translate(-332.425 -584.05)" fill="#01273d"/>
        <path id="Trazado_115990" data-name="Trazado 115990" d="M339.109,591.537q-.268-.66-.536-1.319c-.149-.366-.69-.074-.543.291l.537,1.319C338.716,592.194,339.256,591.9,339.109,591.537Z" transform="translate(-332.365 -584.011)" fill="#01273d"/>
        <path id="Trazado_115991" data-name="Trazado 115991" d="M363.246,584.313l-2.1-.234c-.394-.044-.419.57-.027.615l2.1.235C363.612,584.972,363.637,584.357,363.246,584.313Z" transform="translate(-332.118 -584.076)" fill="#01273d"/>
        <path id="Trazado_115992" data-name="Trazado 115992" d="M363.732,588.358l-1.438-.3c-.385-.079-.573.507-.185.587l1.438.3C363.932,589.024,364.12,588.438,363.732,588.358Z" transform="translate(-332.107 -584.033)" fill="#01273d"/>
        <path id="Trazado_115993" data-name="Trazado 115993" d="M367.641,588.765l-.9-.18a.317.317,0,0,0-.386.2.31.31,0,0,0,.2.385l.9.18a.317.317,0,0,0,.386-.2A.309.309,0,0,0,367.641,588.765Z" transform="translate(-332.059 -584.027)" fill="#01273d"/>
        <path id="Trazado_115994" data-name="Trazado 115994" d="M347.123,600.639l-1.082-.412c-.371-.143-.553.446-.185.586l1.082.413C347.308,601.367,347.491,600.78,347.123,600.639Z" transform="translate(-332.282 -583.902)" fill="#01273d"/>
        <path id="Trazado_115995" data-name="Trazado 115995" d="M356.3,601.274l-1.677-.186c-.394-.044-.419.572-.028.615l1.678.186C356.67,601.932,356.7,601.317,356.3,601.274Z" transform="translate(-332.189 -583.892)" fill="#01273d"/>
      </g>
      <g id="Grupo_59429" data-name="Grupo 59429" transform="translate(49.931 58.543)">
        <path id="Trazado_115996" data-name="Trazado 115996" d="M376.606,582.178q-.014,1.246-.026,2.495c0,.389.488.758,1.217.76l16.538.034,58.915.125c.7,0,1.336-.306,1.372-.713l.44-5.021c.031-.362-.324-.591-.781-.686a1.931,1.931,0,0,0-.674-.122l-20.114-.455-35.414-.8-8.939-.2c-2.637-.06-5.393-.264-8.035-.1-2.346.144-4.137.922-4.428,2.308A12.155,12.155,0,0,0,376.606,582.178Z" transform="translate(-365.102 -566.195)" fill="#5b4642"/>
        <path id="Trazado_115997" data-name="Trazado 115997" d="M449.885,580.639q.872,8.33,1.5,16.688,1.116,14.807,1.457,29.686t-.084,29.794c-.04,1.43,2.425,1.527,2.586.073q.917-8.291,1.587-16.587a545.024,545.024,0,0,0,1.532-59.2,1.281,1.281,0,0,0-.134-.548,1.02,1.02,0,0,0-1.114-1.247l-5.937-.04A1.291,1.291,0,0,0,449.885,580.639Z" transform="translate(-364.311 -566.176)" fill="#6d5853"/>
        <path id="Trazado_115998" data-name="Trazado 115998" d="M377.472,627.694q.074-15.424.148-30.848l.084-17.3c0-.423-7.229-.562-7.43.5-.237,1.243,2.642,46.951,2.758,58.032q.1,9.4.2,18.8c.014,1.353,2.039,1.376,2.548.228C377.758,652.638,377.472,627.694,377.472,627.694Z" transform="translate(-365.17 -566.176)" fill="#6d5853"/>
        <path id="Trazado_115999" data-name="Trazado 115999" d="M440.881,567.2c-1.607-.113-49.291-.989-52.166-.871-2.481.1-21.728,7.091-22.641,7.5-1.486.667-.8,6.251.369,6.695s96.217.807,97.113-.081,1.1-4.6-.317-5.144C459.624,573.913,442.96,567.344,440.881,567.2Z" transform="translate(-365.224 -566.315)" fill="#84706a"/>
      </g>
      <g id="Grupo_59432" data-name="Grupo 59432" transform="translate(75.278 31.973)">
        <path id="Trazado_116000" data-name="Trazado 116000" d="M412.759,564.892c.426,1.412,9.773,7.433,10.877,7.8,5.49-2.461,9.02-26.3,7.714-28.864s-14.413-4.178-15.8-3.729C413.627,540.729,412.333,563.48,412.759,564.892Z" transform="translate(-390.059 -540.029)"/>
        <path id="Trazado_116001" data-name="Trazado 116001" d="M413.644,563.744c.378,1.156,8.6,5.992,10.471,5.938s6.326-23.57,5.893-25.1-12.445-3.169-13.674-2.8C414.625,542.292,413.267,562.588,413.644,563.744Z" transform="translate(-390.049 -540.011)" fill="#68b5e0"/>
        <path id="Trazado_116002" data-name="Trazado 116002" d="M393.6,574.23a8.949,8.949,0,0,0,5.464,1.679c3.1.16,6.218.2,9.323.192q4.747,0,9.487-.212c2.548-.112,6.008-.032,6.008-3.443,0-1.025-9.928-5.92-10.877-6.214-2.534-.786-20.539-4.424-21.835-2.393C388.829,567.5,391.767,572.89,393.6,574.23Z" transform="translate(-390.3 -539.779)"/>
        <path id="Trazado_116003" data-name="Trazado 116003" d="M393.59,572.645a8.943,8.943,0,0,0,5.464,1.679c3.1.161,6.218.2,9.323.193q4.747,0,9.487-.213c2.548-.112,6.008.213,6.008-1.853,0-1.025-9.928-7.51-10.877-7.8-2.534-.786-19.033-2.789-21.356-1.3C389.513,564.7,391.762,571.306,393.59,572.645Z" transform="translate(-390.295 -539.783)" fill="#9b9b9b"/>
        <g id="Grupo_59430" data-name="Grupo 59430" transform="translate(4.032 22.991)">
          <path id="Trazado_116004" data-name="Trazado 116004" d="M394.29,564.6a3.212,3.212,0,0,0,.079.927.98.98,0,0,0,.787.63v.012a3.045,3.045,0,0,0,.084.927.816.816,0,0,0,.174.293c0,.062,0,.124,0,.186a2.764,2.764,0,0,0,.093.927,1.014,1.014,0,0,0,.734.583,2.306,2.306,0,0,0,.1.842,1.089,1.089,0,0,0,.8.589.529.529,0,0,1,.014-.165,1.353,1.353,0,0,1-.2-.075.82.82,0,0,1-.466-.783,8.4,8.4,0,0,1,.013-1.434l.014.011a1.948,1.948,0,0,0,1,.215c.535.022,1.089.068,1.623.054a1.259,1.259,0,0,0,.481-.094c0,.23.005.461.007.691h.008a1.472,1.472,0,0,1,.22.05c.006-.161.017-.372.012-.592a2,2,0,0,0,.157.563,1.335,1.335,0,0,1,.287.083.75.75,0,0,1-.048-.064,2.849,2.849,0,0,1-.265-1.351,6.7,6.7,0,0,1,.006-.843,1.113,1.113,0,0,0,.479.312,2.7,2.7,0,0,0,.877.119,2.843,2.843,0,0,0,.946-.086.748.748,0,0,0,.278-.163,4.054,4.054,0,0,1,.019.43l-.175-.015c-1.2-.1-1.441.145-1.453.213a6.655,6.655,0,0,0-.053,1.729,1.4,1.4,0,0,1-.311-.078.535.535,0,0,1,.123.223c.065.012.134.02.207.027.008.065.016.128.027.193.072.448.152,1.021.852,1.185a2.2,2.2,0,0,0,.243.04.531.531,0,0,1-.025-.178.906.906,0,0,1-.627-.335,2.677,2.677,0,0,1-.283-1.35,6.192,6.192,0,0,1,.006-.844,1.2,1.2,0,0,0,.511.313,3.063,3.063,0,0,0,.936.119,3.253,3.253,0,0,0,1.009-.086.8.8,0,0,0,.3-.164,5.482,5.482,0,0,1,.012.793,1.148,1.148,0,0,1,.227.072c0-.221-.008-.444-.025-.664a2.965,2.965,0,0,0-.126-.756c-.034-.1-.124-.189-.364-.268a4.923,4.923,0,0,1,.028-.548.563.563,0,0,1,.01-.057.673.673,0,0,0,.208.276,1.78,1.78,0,0,0,1.019.326c.269.016.55.018.83.013a1.8,1.8,0,0,0-.429.135.931.931,0,0,0-.5.945c0,.225-.015.457-.019.687a1,1,0,0,1,.24.129,6.723,6.723,0,0,1,.02-1.03c0-.02.007-.038.011-.057a.686.686,0,0,0,.222.276,1.976,1.976,0,0,0,1.088.324,13.966,13.966,0,0,0,1.607-.016.951.951,0,0,0,.871-.424,5.652,5.652,0,0,1,.115.742,1.246,1.246,0,0,1,.237.06v-.005c-.018-.251-.066-1.382-.429-1.6a1.331,1.331,0,0,0-.332-.132c.006-.061.01-.12.017-.181a.561.561,0,0,0,.355.179,10.842,10.842,0,0,0,1.369.03,6.268,6.268,0,0,0,1.562-.1,3.041,3.041,0,0,1,.013.322c-.2,0-.405,0-.608.006a1.768,1.768,0,0,0-.954.17.615.615,0,0,0-.164.173,2.11,2.11,0,0,0-.154,1.113c0,.039-.005.081-.009.122a.963.963,0,0,1,.232.1,6.647,6.647,0,0,1,.054-.694.612.612,0,0,0,.377.179,12.351,12.351,0,0,0,1.461.029,7.124,7.124,0,0,0,1.666-.094,2.888,2.888,0,0,1,0,.647,1,1,0,0,1,.2.033c0-.042,0-.084,0-.125a3.692,3.692,0,0,0,.712-.023c0,.06,0,.118.009.178a1.238,1.238,0,0,1,.241.048c-.011-.118-.014-.234-.017-.341a4.895,4.895,0,0,1,.022-.632c.007-.072.009-.166.023-.262a.89.89,0,0,0,.561.416,3.117,3.117,0,0,0,1.1.06,5.667,5.667,0,0,0,.871-.075.84.84,0,0,0,.253-.1c.008.171-.006.343-.009.478a1.347,1.347,0,0,1,.229-.014c0-.061,0-.12,0-.181a3.708,3.708,0,0,0-.037-.639.8.8,0,0,0-.239-.429,3.64,3.64,0,0,0-1.9-.243c0-.038,0-.077,0-.114a4.161,4.161,0,0,0-.034-.64.8.8,0,0,0-.224-.428,3.324,3.324,0,0,0-1.872-.233c0-.035,0-.07,0-.105a4.291,4.291,0,0,0-.031-.64.839.839,0,0,0-.2-.429,2.805,2.805,0,0,0-1.725-.228c0-.091,0-.182,0-.273a4.712,4.712,0,0,0-.03-.639.868.868,0,0,0-.19-.429,2.59,2.59,0,0,0-1.951-.135c-.373.2-.45.9-.453,1.294,0,.093,0,.191,0,.292-.189-.014-.378-.023-.568-.026v-.023a6.293,6.293,0,0,0-.065-.965.067.067,0,0,0-.015-.036.587.587,0,0,0-.154-.281,1.16,1.16,0,0,0-.724-.224,8.537,8.537,0,0,0-1.213-.032c-.248.01-.582-.009-.764.17a.577.577,0,0,0-.13.173,1.853,1.853,0,0,0-.121.892,4.722,4.722,0,0,0-.557-.038c-.028-.43-.1-1.157-.328-1.325a2.752,2.752,0,0,0-1.468-.245,2.625,2.625,0,0,0-1.3.21,1.009,1.009,0,0,0-.4.945c0,.128-.005.259-.009.389-.139-.029-.306-.057-.512-.08,0-.125-.008-.251-.016-.376a3.7,3.7,0,0,0-.1-.756c-.055-.193-.278-.357-1.239-.455s-1.152.145-1.161.213a8.3,8.3,0,0,0-.064,1.371l-.005-.006a1.037,1.037,0,0,0-.816-.209h-.005a2.44,2.44,0,0,0-.216-1.361.935.935,0,0,0-.766-.208c-.383,0-.775-.01-1.157.02a.8.8,0,0,0-.665.319.38.38,0,0,0-.048.265C394.3,563.784,394.284,564.189,394.29,564.6Zm2.66-.94c-.29.231-1,.089-1.329.074a3.748,3.748,0,0,1-.682-.051c-.129-.03-.341-.1-.385-.231a.332.332,0,0,1,.242-.436,4.408,4.408,0,0,1,1.349-.071c.218,0,.5-.029.668.127A.744.744,0,0,1,396.95,563.655Zm1.035,1.569c-.308.232-1.059.089-1.413.074a4.238,4.238,0,0,1-.726-.051c-.137-.03-.362-.1-.409-.23-.075-.2.04-.359.257-.436a4.943,4.943,0,0,1,1.435-.071,1.071,1.071,0,0,1,.711.127A.712.712,0,0,1,397.986,565.224Zm.547,1.406c-.34.232-1.167.089-1.558.074a5.133,5.133,0,0,1-.8-.051c-.152-.03-.4-.1-.451-.23-.083-.2.043-.358.282-.436a6.008,6.008,0,0,1,1.583-.071,1.28,1.28,0,0,1,.782.127A.66.66,0,0,1,398.532,566.63Zm1.81-2.94c-.016.225-.23.316-.436.358a2.912,2.912,0,0,1-.864,0,.909.909,0,0,1-.725-.4c-.149-.307.1-.567.459-.561a6.57,6.57,0,0,1,.688.077c.3.036.677.024.824.294A.453.453,0,0,1,400.343,563.69Zm.08.854h0c-1.024-.1-1.226.146-1.236.213a7.86,7.86,0,0,0-.056,1.6,1.162,1.162,0,0,1-.4-.093.75.75,0,0,0-.167-.306.57.57,0,0,0-.207-.133,4.127,4.127,0,0,1-.151-1.18,7.831,7.831,0,0,1,.005-.844.958.958,0,0,0,.409.313,1.989,1.989,0,0,0,.748.119,2.1,2.1,0,0,0,.808-.086.627.627,0,0,0,.238-.164A5.418,5.418,0,0,1,400.422,564.544Zm-1.186,2.667a2.194,2.194,0,0,0-.421-.037,3.963,3.963,0,0,0-.041-.7,1.722,1.722,0,0,0,.369.054c.01.109.021.217.036.326S399.212,567.09,399.237,567.211Zm1.424-2.473c.32.037.72.025.876.294a.425.425,0,0,1,.056.226c-.016.225-.245.317-.462.358a3.3,3.3,0,0,1-.921,0,.983.983,0,0,1-.769-.4c-.159-.308.105-.568.488-.561C400.173,564.665,400.419,564.711,400.661,564.738Zm3.49-.553c-.157.238-.507.219-.775.225a3.326,3.326,0,0,1-1.553-.128c-.323-.17-.525-.612-.121-.83a5.109,5.109,0,0,1,2.435.079A.663.663,0,0,1,404.151,564.185Zm.268.481h-.192a2.947,2.947,0,0,0-1.381.21.981.981,0,0,0-.43.945c0,.114,0,.231-.007.348a2.421,2.421,0,0,0-.552-.143c0-.091-.006-.181-.012-.272a3.452,3.452,0,0,0-.107-.756c-.035-.118-.139-.225-.452-.314a5.933,5.933,0,0,1,.023-.645c0-.02.005-.038.008-.057a.681.681,0,0,0,.178.276,1.369,1.369,0,0,0,.869.325,8.944,8.944,0,0,0,1.286-.016.733.733,0,0,0,.7-.424A4.56,4.56,0,0,1,404.419,564.666Zm.4,1.314a3.749,3.749,0,0,1-1.651-.129c-.345-.17-.559-.612-.129-.83a5.767,5.767,0,0,1,2.59.079.629.629,0,0,1,.015.654C405.477,565.991,405.1,565.974,404.819,565.98Zm1.034-.269a2.547,2.547,0,0,1,.058.364c-.169,0-.331,0-.472,0A.649.649,0,0,0,405.853,565.711Zm2.22-1.29a5.527,5.527,0,0,1-1.386.075c-.241,0-.479-.006-.719-.015-.208-.008-.419-.05-.48-.26a.6.6,0,0,1,0-.317c.129-.4,1.23-.282,1.614-.258a2.609,2.609,0,0,1,.7.088A.54.54,0,0,1,408.073,564.422Zm.129.612c-.131,0-.263,0-.394.007a1.319,1.319,0,0,0-.812.17.578.578,0,0,0-.138.173,1.509,1.509,0,0,0-.13.777,3.579,3.579,0,0,0-.6-.077c-.037-.432-.121-1.023-.336-1.172a1.215,1.215,0,0,0-.423-.17c.007-.1.014-.192.024-.287a.459.459,0,0,0,.3.179,7.886,7.886,0,0,0,1.167.029,4.59,4.59,0,0,0,1.333-.094A3.919,3.919,0,0,1,408.2,565.033Zm.583.182a2.936,2.936,0,0,1,.745.088.525.525,0,0,1,.284.688,6.349,6.349,0,0,1-1.474.075c-.255,0-.509-.007-.764-.016-.221-.008-.446-.05-.51-.26a.575.575,0,0,1,0-.317C407.207,565.07,408.377,565.191,408.786,565.215Zm2.543-1.161c0,.263-.227.292-.449.314-.2.02-.406.039-.61.049a1.3,1.3,0,0,1-.71-.111c-.291-.166-.373-.586.027-.693a2.319,2.319,0,0,1,.664,0c.219.012.445.016.662.047A.489.489,0,0,1,411.329,564.054Zm.039.886v.045a.865.865,0,0,0-.166.059c-.4.2-.479.9-.482,1.294,0,.044,0,.09,0,.137-.2-.016-.4-.027-.6-.032a6.162,6.162,0,0,0-.068-.829.071.071,0,0,0-.016-.036.572.572,0,0,0-.164-.281,1.252,1.252,0,0,0-.755-.222l0-.09a6.274,6.274,0,0,1,.017-.632c.006-.072.008-.166.019-.262a.756.756,0,0,0,.448.416,2.013,2.013,0,0,0,.882.06,3.643,3.643,0,0,0,.7-.075.583.583,0,0,0,.2-.1C411.384,564.594,411.367,564.8,411.368,564.94Zm1.909.682c0,.263-.242.292-.477.314-.215.02-.433.04-.649.05a1.454,1.454,0,0,1-.754-.111c-.309-.166-.4-.586.029-.692a2.545,2.545,0,0,1,.707,0c.232.011.472.015.7.045A.507.507,0,0,1,413.278,565.622Zm2.109,1.406c0,.263-.266.292-.526.314-.237.021-.476.04-.715.05a1.75,1.75,0,0,1-.831-.111c-.342-.166-.438-.586.031-.692a3.091,3.091,0,0,1,.779,0c.257.011.521.015.775.045A.54.54,0,0,1,415.386,567.028Zm-.017.986a3.516,3.516,0,0,1,.831,0c.274.011.556.015.828.045a.566.566,0,0,1,.518.4c0,.263-.284.292-.561.314-.253.02-.508.04-.762.05a1.98,1.98,0,0,1-.886-.111C414.971,568.541,414.869,568.12,415.369,568.014Zm-1.832.114a1.4,1.4,0,0,0-.75-.211,5.216,5.216,0,0,1,.02-.589c.007-.072.009-.166.022-.262a.843.843,0,0,0,.526.416,2.745,2.745,0,0,0,1.033.061,5.082,5.082,0,0,0,.817-.076.729.729,0,0,0,.237-.1c.007.148,0,.3-.006.424a1.454,1.454,0,0,0-.328.082c-.467.2-.563.9-.567,1.294,0,.057,0,.114,0,.174a3.074,3.074,0,0,1-.709.016,5.14,5.14,0,0,0-.081-.913.063.063,0,0,0-.018-.036A.568.568,0,0,0,413.538,568.128Zm-1.273-.082a4.031,4.031,0,0,1,.875.088c.416.127.442.6.335.688a8.72,8.72,0,0,1-1.733.074c-.3,0-.6-.006-.9-.015-.26-.008-.524-.049-.6-.26a.482.482,0,0,1,0-.317C410.409,567.9,411.785,568.022,412.265,568.046Zm-.635-1.343a1.263,1.263,0,0,0-.711-.212,5.618,5.618,0,0,1,.018-.569c.006-.072.008-.166.02-.262a.784.784,0,0,0,.477.416,2.247,2.247,0,0,0,.937.06,4.1,4.1,0,0,0,.741-.075.622.622,0,0,0,.214-.1c.007.148,0,.3-.005.42a1.055,1.055,0,0,0-.221.067c-.438.2-.528.9-.532,1.294,0,.051,0,.1,0,.156-.221-.016-.444-.027-.665-.032a5.68,5.68,0,0,0-.075-.847.073.073,0,0,0-.018-.036A.569.569,0,0,0,411.63,566.7Zm-3.086.176c.153-.4,1.442-.282,1.892-.258a3.5,3.5,0,0,1,.821.089.5.5,0,0,1,.313.687,7.638,7.638,0,0,1-1.624.075q-.421,0-.843-.016c-.244-.008-.491-.05-.562-.26A.523.523,0,0,1,408.544,566.879Zm-.377.679a5.286,5.286,0,0,0-.663-.057c-.04-.433-.133-1.034-.372-1.185a1,1,0,0,0-.187-.091c.006-.068.01-.135.017-.2a.5.5,0,0,0,.321.179,8.928,8.928,0,0,0,1.242.03,5.217,5.217,0,0,0,1.417-.1c.008.1.011.2.011.3-.2,0-.4,0-.6.006a1.576,1.576,0,0,0-.895.17.606.606,0,0,0-.154.173A1.385,1.385,0,0,0,408.167,567.558Zm-2.658.294a7.941,7.941,0,0,1,3.044.079.549.549,0,0,1,.018.654c-.2.238-.636.22-.969.225a5.134,5.134,0,0,1-1.942-.128C405.256,568.512,405,568.071,405.509,567.852Zm1.178-.355a.728.728,0,0,0,.519-.38,2.8,2.8,0,0,1,.066.38c-.13,0-.255,0-.366,0Zm-2.584-1.07a6.973,6.973,0,0,1,2.854.08.577.577,0,0,1,.017.653c-.185.239-.6.22-.91.226a4.535,4.535,0,0,1-1.819-.129C403.865,567.087,403.63,566.646,404.1,566.427Zm-1.5,1.131v.009l.034-.006.075.008c.377.037.847.025,1.03.294a.374.374,0,0,1,.067.226c-.02.225-.288.316-.544.358a4.556,4.556,0,0,1-1.082,0,1.223,1.223,0,0,1-.906-.4c-.186-.307.124-.567.574-.561C402.1,567.5,402.354,567.531,402.6,567.558Zm.2-.148c0-.083-.006-.167-.012-.25a3.143,3.143,0,0,0-.118-.756.3.3,0,0,0-.071-.115,5.878,5.878,0,0,1,.024-.681c0-.02.006-.037.009-.057a.677.677,0,0,0,.189.276,1.512,1.512,0,0,0,.925.325c.149.011.3.015.456.016a1.5,1.5,0,0,0-.311.115.949.949,0,0,0-.473.944c0,.092,0,.186-.007.279A5.724,5.724,0,0,0,402.8,567.411Zm-2.125-1.342c.269,0,.541.048.807.076.353.037.794.025.966.3a.392.392,0,0,1,.062.225c-.019.226-.27.317-.509.358a4.055,4.055,0,0,1-1.015.005,1.123,1.123,0,0,1-.848-.4C399.962,566.321,400.253,566.061,400.674,566.068Zm-1.079,1.316a.587.587,0,0,0-.159-.108,4.559,4.559,0,0,1-.12-1.061,7.112,7.112,0,0,1,.006-.843,1.011,1.011,0,0,0,.435.312,2.24,2.24,0,0,0,.8.119,2.376,2.376,0,0,0,.859-.086.659.659,0,0,0,.252-.164,4.114,4.114,0,0,1,.017.447c-.135-.018-.289-.035-.464-.051-1.127-.1-1.35.146-1.361.213a7.1,7.1,0,0,0-.063,1.6A.8.8,0,0,0,399.595,567.384Zm-2.722.027a6.92,6.92,0,0,1,1.688-.071,1.457,1.457,0,0,1,.835.127.633.633,0,0,1,.171.587c-.362.231-1.245.089-1.662.074a5.811,5.811,0,0,1-.852-.051c-.162-.03-.426-.1-.481-.231C396.483,567.644,396.618,567.489,396.873,567.412Zm-1.211-.781.014.01a1.731,1.731,0,0,0,.935.216c.5.021,1.02.067,1.521.053a1.11,1.11,0,0,0,.451-.094c0,.12,0,.24,0,.36-.463,0-.936-.009-1.4.02a1.11,1.11,0,0,0-.833.319.313.313,0,0,0-.058.265,10.1,10.1,0,0,0-.06,1.132,1.207,1.207,0,0,1-.154-.065.83.83,0,0,1-.437-.782A9.058,9.058,0,0,1,395.662,566.63Zm-.281-1.407.012.011a1.451,1.451,0,0,0,.849.215c.455.022.925.068,1.381.054a.928.928,0,0,0,.408-.094c0,.116,0,.232,0,.349-.123-.01-.252-.009-.375-.008-.449,0-.908-.01-1.355.02a1.008,1.008,0,0,0-.78.319.329.329,0,0,0-.055.265q-.033.323-.047.646a1.732,1.732,0,0,1-.054-.342A10.007,10.007,0,0,1,395.381,565.223Zm-.879-1.569.011.011a1.306,1.306,0,0,0,.8.215c.428.022.869.068,1.3.054a.832.832,0,0,0,.384-.094c0,.168,0,.336.005.5-.345,0-.693-.006-1.034.019a.874.874,0,0,0-.708.319.355.355,0,0,0-.05.265q-.049.52-.051,1.042a1.119,1.119,0,0,1-.293-.118.87.87,0,0,1-.372-.783A10.451,10.451,0,0,1,394.5,563.654Z" transform="translate(-394.289 -562.774)"/>
          <path id="Trazado_116005" data-name="Trazado 116005" d="M411.36,570.494h.021a.523.523,0,0,0,.019.167,5.088,5.088,0,0,1-1.029-.086.456.456,0,0,0-.005-.054c-.007-.044-.016-.089-.026-.133l.052.014A4.661,4.661,0,0,0,411.36,570.494Z" transform="translate(-394.116 -562.692)"/>
          <path id="Trazado_116006" data-name="Trazado 116006" d="M405.2,570.437a1.973,1.973,0,0,0,.882.093.5.5,0,0,0,.006.169,3.452,3.452,0,0,1-.664-.023,1.238,1.238,0,0,1-.31-.089,1.08,1.08,0,0,0,.021-.187C405.151,570.413,405.173,570.425,405.2,570.437Z" transform="translate(-394.172 -562.692)"/>
          <path id="Trazado_116007" data-name="Trazado 116007" d="M415.964,570.712c0,.024,0,.047,0,.072a.354.354,0,0,0,.011.087,2.827,2.827,0,0,1-.66-.057.85.85,0,0,0-.006-.176A2.557,2.557,0,0,0,415.964,570.712Z" transform="translate(-394.062 -562.689)"/>
        </g>
        <g id="Grupo_59431" data-name="Grupo 59431" transform="translate(6.741 29.072)">
          <path id="Trazado_116008" data-name="Trazado 116008" d="M411.287,571.856c.236.5,1.262.494,1.885.5.715,0,1.775.018,2.117-.5a1.509,1.509,0,0,0,.168-.834,4.85,4.85,0,0,0-.086-.965.065.065,0,0,0-.02-.036.561.561,0,0,0-.2-.281,1.886,1.886,0,0,0-.959-.223,14.7,14.7,0,0,0-1.607-.033,1.975,1.975,0,0,0-1.012.17.655.655,0,0,0-.173.173,2,2,0,0,0-.163,1.113A1.892,1.892,0,0,0,411.287,571.856Zm3.792-1.424a9.783,9.783,0,0,1-1.837.074q-.476,0-.952-.015c-.276-.008-.555-.05-.636-.26a.463.463,0,0,1,0-.317c.172-.4,1.63-.282,2.139-.258a4.521,4.521,0,0,1,.928.088C415.167,569.871,415.194,570.342,415.079,570.431Zm-3.614.883a6.334,6.334,0,0,1,.06-.852.666.666,0,0,0,.4.179,13.644,13.644,0,0,0,1.548.029,7.994,7.994,0,0,0,1.765-.094,2.408,2.408,0,0,1-.1,1.066c-.222.589-1.385.559-2.114.542a5.24,5.24,0,0,1-1.026-.091C411.457,571.972,411.465,571.636,411.466,571.315Z" transform="translate(-396.816 -568.783)"/>
          <path id="Trazado_116009" data-name="Trazado 116009" d="M405.934,571.7c.049.336.283.6.791.671a5.86,5.86,0,0,0,1.015.012l1.175-.03a2.369,2.369,0,0,0,1.4-.3,1.184,1.184,0,0,0,.261-1.1c-.019-.251-.07-1.382-.454-1.6a4.725,4.725,0,0,0-1.945-.245,4.5,4.5,0,0,0-1.72.21.919.919,0,0,0-.535.945A9.06,9.06,0,0,0,405.934,571.7Zm4.007-1.5c-.208.238-.673.219-1.028.226a5.8,5.8,0,0,1-2.057-.129c-.429-.17-.7-.612-.161-.83a8.908,8.908,0,0,1,3.226.079A.524.524,0,0,1,409.941,570.2Zm-3.766-.146c0-.02.008-.038.012-.057a.689.689,0,0,0,.236.276,2.187,2.187,0,0,0,1.152.325,15.715,15.715,0,0,0,1.7-.016c.5-.028.8-.192.924-.425a6.522,6.522,0,0,1,.131.843c.033.485.064,1.058-.822,1.159-.671.078-1.4.052-2.076.068a2.256,2.256,0,0,1-.948-.093c-.321-.152-.319-.444-.322-.679A9.823,9.823,0,0,1,406.175,570.052Z" transform="translate(-396.873 -568.787)"/>
          <path id="Trazado_116010" data-name="Trazado 116010" d="M401.931,571.3c.076.448.161,1.021.9,1.185a3.75,3.75,0,0,0,1.891-.133c.569-.251.536-.793.549-1.2a8.57,8.57,0,0,0-.022-.953,2.853,2.853,0,0,0-.134-.756c-.072-.192-.367-.357-1.642-.455s-1.526.145-1.538.213A6.2,6.2,0,0,0,401.931,571.3Zm1.845-2.115c.4.037.9.024,1.092.294a.366.366,0,0,1,.071.226c-.021.225-.305.316-.577.358a5.1,5.1,0,0,1-1.145,0,1.337,1.337,0,0,1-.96-.4c-.2-.308.132-.568.608-.562C403.168,569.111,403.475,569.156,403.776,569.183Zm-1.668.634a1.285,1.285,0,0,0,.542.312,3.42,3.42,0,0,0,.992.119,3.653,3.653,0,0,0,1.069-.086.874.874,0,0,0,.314-.164,7.38,7.38,0,0,1,.008.99c-.006.466.09,1.148-.742,1.308-.611.117-1.567.167-1.891-.286a2.561,2.561,0,0,1-.3-1.35A5.727,5.727,0,0,1,402.108,569.817Z" transform="translate(-396.917 -568.788)"/>
          <path id="Trazado_116011" data-name="Trazado 116011" d="M415.854,570.511a1.58,1.58,0,0,0,.59,1.557,3.1,3.1,0,0,0,1.854.173c.687-.1.975-.4,1.015-.857a7.667,7.667,0,0,0,.017-.963,3.425,3.425,0,0,0-.039-.639.773.773,0,0,0-.253-.429,4.454,4.454,0,0,0-2.583-.135C415.96,569.418,415.859,570.117,415.854,570.511Zm3.184-.716c0,.264-.3.292-.593.315-.268.02-.539.039-.808.05a2.252,2.252,0,0,1-.94-.111c-.386-.166-.5-.586.036-.693a3.933,3.933,0,0,1,.879,0c.291.011.589.015.877.046A.594.594,0,0,1,419.038,569.8Zm-2.914.3c.008-.072.01-.166.024-.262a.942.942,0,0,0,.594.417,3.526,3.526,0,0,0,1.168.06,6.335,6.335,0,0,0,.923-.076.9.9,0,0,0,.268-.1c.01.2-.011.4-.011.547,0,.418.15,1.086-.5,1.316a3.183,3.183,0,0,1-1.908-.011,1.253,1.253,0,0,1-.585-1.26A4.576,4.576,0,0,1,416.124,570.095Z" transform="translate(-396.766 -568.787)"/>
          <path id="Trazado_116012" data-name="Trazado 116012" d="M396.971,570.611a2.45,2.45,0,0,0,.105.927c.245.581,1.128.684,1.906.709.68.02,1.5-.025,1.736-.541a2.207,2.207,0,0,0,.08-.949c0-.358.128-1.4-.272-1.757a1.531,1.531,0,0,0-1.016-.209c-.507,0-1.027-.01-1.532.02a1.215,1.215,0,0,0-.882.319.3.3,0,0,0-.062.265A9.241,9.241,0,0,0,396.971,570.611Zm3.525-.94a4.205,4.205,0,0,1-1.761.074,6.534,6.534,0,0,1-.9-.05c-.171-.03-.451-.1-.509-.232-.094-.2.05-.358.319-.436a7.7,7.7,0,0,1,1.788-.07,1.613,1.613,0,0,1,.884.126A.611.611,0,0,1,400.5,569.671Zm-3.245,0,.015.011a2.169,2.169,0,0,0,1.057.215c.567.022,1.153.068,1.72.054a1.4,1.4,0,0,0,.508-.094c.005.467.017.935,0,1.4a.693.693,0,0,1-.518.744,3.278,3.278,0,0,1-1.046.079,3.416,3.416,0,0,1-1.259-.193.812.812,0,0,1-.493-.783A7.909,7.909,0,0,1,397.251,569.67Z" transform="translate(-396.97 -568.79)"/>
        </g>
      </g>
      <g id="Grupo_59433" data-name="Grupo 59433" transform="translate(24.705 23.601)">
        <path id="Trazado_116013" data-name="Trazado 116013" d="M343.383,531.906q-.247.57-.5,1.14c-.153.349.369.641.523.287l.5-1.139C344.059,531.844,343.537,531.553,343.383,531.906Z" transform="translate(-340.24 -531.746)" fill="#fff"/>
        <path id="Trazado_116014" data-name="Trazado 116014" d="M340.814,535.385q-.267,1.011-.535,2.022a.3.3,0,0,0,.579.146q.267-1.011.535-2.022A.3.3,0,0,0,340.814,535.385Z" transform="translate(-340.268 -531.709)" fill="#fff"/>
        <path id="Trazado_116015" data-name="Trazado 116015" d="M344.417,535.678c-.013.294-.026.587-.038.881-.017.385.58.377.6-.006.013-.294.026-.587.038-.881C345.031,535.287,344.434,535.3,344.417,535.678Z" transform="translate(-340.223 -531.706)" fill="#fff"/>
        <path id="Trazado_116016" data-name="Trazado 116016" d="M347.724,532.337a.306.306,0,0,0-.208.368l.158.818a.3.3,0,0,0,.368.208.306.306,0,0,0,.208-.368c-.053-.273-.106-.545-.159-.818A.3.3,0,0,0,347.724,532.337Z" transform="translate(-340.19 -531.739)" fill="#fff"/>
        <path id="Trazado_116017" data-name="Trazado 116017" d="M347.1,535.986q.061.849.12,1.7c.027.382.624.377.6-.007q-.061-.849-.12-1.7C347.666,535.6,347.07,535.6,347.1,535.986Z" transform="translate(-340.194 -531.703)" fill="#fff"/>
        <path id="Trazado_116018" data-name="Trazado 116018" d="M343.21,538.88l-.391,1.437a.3.3,0,0,0,.578.146q.2-.719.392-1.437A.3.3,0,0,0,343.21,538.88Z" transform="translate(-340.24 -531.671)" fill="#fff"/>
        <path id="Trazado_116019" data-name="Trazado 116019" d="M341.286,540.246q.108,1,.216,1.993c.04.38.638.376.6-.006l-.215-1.993C341.842,539.861,341.245,539.864,341.286,540.246Z" transform="translate(-340.257 -531.657)" fill="#fff"/>
        <path id="Trazado_116020" data-name="Trazado 116020" d="M346.04,542.322q.177.866.354,1.732c.077.377.652.215.575-.16q-.176-.866-.353-1.732C346.539,541.785,345.964,541.948,346.04,542.322Z" transform="translate(-340.206 -531.636)" fill="#fff"/>
      </g>
      <g id="Grupo_59435" data-name="Grupo 59435" transform="translate(46.833)">
        <path id="Trazado_116021" data-name="Trazado 116021" d="M385.368,517.592s-1.04-1.343-2.738.654a14.079,14.079,0,0,0-1.471,2.295,37.331,37.331,0,0,0-2.25,4.921c-.342.889-.662,1.784-.978,2.682a7.112,7.112,0,0,0-.565,2.039c-.05,1.437,1.43,1.884,2.633,1.72a.168.168,0,0,0,.093-.273c-.662-.592-.11-1.541.178-2.192a11.416,11.416,0,0,1,.987-1.942,7.84,7.84,0,0,1,1.364-1.332,4.544,4.544,0,0,0,1.115-1.357C384.9,522.465,385.368,517.592,385.368,517.592Z" transform="translate(-361.995 -508.302)" fill="#cc6d3e"/>
        <path id="Trazado_116022" data-name="Trazado 116022" d="M382.991,526.518c.139-.439-.121-3.116.105-3.745.217-.608,2.975-4.207,1.921-6.731-3.018-7.227-13.672-9.591-18.724,5.587-.388,1.167-4.134,2.523-4.134,2.523.337,4.281,2.334,7.621,4.144,10.857,0,0,5.326-2.884,8.4-3.417.6-.105,2.528.684,3.446.326s3.454-4.911,3.586-5.269C382.174,526.751,382.874,526.892,382.991,526.518Z" transform="translate(-362.159 -508.375)" fill="#fdb688"/>
        <path id="Trazado_116023" data-name="Trazado 116023" d="M381.654,522.014c.025.007.043.061.027.152a.685.685,0,0,1-.19.339,1.028,1.028,0,0,1-.53.28,1.3,1.3,0,0,1-.747-.088,1.56,1.56,0,0,1-.59-.435,1.713,1.713,0,0,1-.288-.489c-.108-.3-.1-.491-.045-.5s.148.152.306.384a1.811,1.811,0,0,0,.77.678,1.1,1.1,0,0,0,.522.09,1,1,0,0,0,.409-.134C381.515,522.158,381.594,522,381.654,522.014Z" transform="translate(-361.975 -508.258)"/>
        <path id="Trazado_116024" data-name="Trazado 116024" d="M378.985,520.116c-.029-.046.116-.2.421-.322a2.64,2.64,0,0,1,1.211-.138,4.866,4.866,0,0,1,1.253.324c.344.135.589.255.67.3.323.171-.146.855-.383.715-.06-.034-.276-.167-.567-.324a5.357,5.357,0,0,0-1.035-.444,3.172,3.172,0,0,0-1.053-.123C379.211,520.114,379.015,520.168,378.985,520.116Z" transform="translate(-361.978 -508.276)" fill="#ad4e25"/>
        <path id="Trazado_116025" data-name="Trazado 116025" d="M385.284,521.77c-.533-.767.329-1.706.589-2.725.667-2.607-.474-4.493-1.913-6.239a10.467,10.467,0,0,0-2.781-2.531,13.354,13.354,0,0,0-3.747-1.248,2.683,2.683,0,0,0-1.5-.392,9.575,9.575,0,0,0-3.353-.106c-1.954.55-3.169,2.329-4.888,3.292a1.358,1.358,0,0,0-1.628.417,2.849,2.849,0,0,0-.613,1.007,1.932,1.932,0,0,0-1.479,1.486,1.757,1.757,0,0,0,.228,1.262c-1.044.654-1.145,2.317-.976,3.458a3.509,3.509,0,0,0,.261.888,3.078,3.078,0,0,0-.345,3.1,3.3,3.3,0,0,0,1.512,1.547,2.159,2.159,0,0,0,.875.273,2.023,2.023,0,0,0,1.179,1.34.168.168,0,0,0,.212-.1c.017-.065.036-.128.055-.192a3.577,3.577,0,0,0,1.649,1.379.17.17,0,0,0,.212-.1.967.967,0,0,1,.033-.1,3.432,3.432,0,0,0,1.719,1.61.168.168,0,0,0,.221-.148c.1-1.6-.757-4.688,6.384-8.277a5.012,5.012,0,0,0,1.581-1.641,20.751,20.751,0,0,0,1.5-2.345,3.924,3.924,0,0,1,1.623-1.882c1.854.415.91,4.815,2.472,6.862C385.006,522.5,385.817,522.537,385.284,521.77Z" transform="translate(-362.151 -508.397)" fill="#cc6d3e"/>
        <g id="Grupo_59434" data-name="Grupo 59434" transform="translate(1.335 0.624)">
          <path id="Trazado_116026" data-name="Trazado 116026" d="M380.218,511.424a7.954,7.954,0,0,0-1.71-1.507c-.494-.313-.836-.44-.866-.387-.074.121,1.112.894,2.217,2.2,1.12,1.3,1.7,2.588,1.829,2.534.057-.023-.015-.38-.248-.917A7.945,7.945,0,0,0,380.218,511.424Z" transform="translate(-363.327 -509.009)" fill="#ad4e25"/>
          <path id="Trazado_116027" data-name="Trazado 116027" d="M380.109,514.979a4.3,4.3,0,0,0-.722.871,10.107,10.107,0,0,0-.641,1.2,9.2,9.2,0,0,1-1.167,2.041c-.377.457-.71.651-.676.718.018.052.432-.042.918-.486a4.323,4.323,0,0,0,.716-.875,10.665,10.665,0,0,0,.638-1.2,8.887,8.887,0,0,1,1.175-2.034c.381-.454.717-.643.683-.71C381.015,514.452,380.6,514.541,380.109,514.979Z" transform="translate(-363.335 -508.955)" fill="#ad4e25"/>
          <path id="Trazado_116028" data-name="Trazado 116028" d="M377.862,515.976c-.161.342-.206.576-.151.6.123.061.591-.7,1.333-1.493s1.462-1.318,1.393-1.437c-.032-.054-.262.009-.592.194a5.115,5.115,0,0,0-1.983,2.133Z" transform="translate(-363.326 -508.965)" fill="#ad4e25"/>
          <path id="Trazado_116029" data-name="Trazado 116029" d="M372.261,519.778c-.6.163-.979.233-.974.3s.4.107,1.041.023a6.467,6.467,0,0,0,1.1-.253,7.222,7.222,0,0,0,2.421-1.338,6.539,6.539,0,0,0,.8-.8c.411-.5.581-.861.533-.895s-.32.247-.775.664c-.225.21-.506.445-.829.689a9.483,9.483,0,0,1-2.3,1.27C372.908,519.585,372.56,519.7,372.261,519.778Z" transform="translate(-363.395 -508.93)" fill="#ad4e25"/>
          <path id="Trazado_116030" data-name="Trazado 116030" d="M371.76,521.022a2.363,2.363,0,0,0-1.213-.177,5.7,5.7,0,0,0-1.333.164,4.742,4.742,0,0,0-1.526.671,3.838,3.838,0,0,0-1.139,1.24,3.306,3.306,0,0,0-.43,1.3,2.366,2.366,0,0,0,.075.917c.066.207.133.309.161.3.079-.019-.055-.473.1-1.165a3.493,3.493,0,0,1,.472-1.13,3.817,3.817,0,0,1,1.033-1.074,5.867,5.867,0,0,1,2.614-.892A4.929,4.929,0,0,0,371.76,521.022Z" transform="translate(-363.451 -508.887)" fill="#ad4e25"/>
          <path id="Trazado_116031" data-name="Trazado 116031" d="M379.447,512.914a6.979,6.979,0,0,0-3.37,2.112c-.335.393-.484.678-.437.718.108.089.943-.829,2.219-1.618s2.457-1.154,2.424-1.29C380.269,512.775,379.946,512.785,379.447,512.914Z" transform="translate(-363.349 -508.974)" fill="#ad4e25"/>
          <path id="Trazado_116032" data-name="Trazado 116032" d="M375.65,517.038c.844-.5,1.415-1.062,1.337-1.164s-.759.275-1.578.758-1.478.9-1.423,1.018S374.807,517.538,375.65,517.038Z" transform="translate(-363.366 -508.941)" fill="#ad4e25"/>
          <path id="Trazado_116033" data-name="Trazado 116033" d="M365.35,522.674c-.075-.077-.13-.1-.139-.084s.021.057.062.138a.689.689,0,0,1,.068.375.51.51,0,0,1-.314.428.532.532,0,0,1-.328.033.516.516,0,0,1-.294-.2,1.3,1.3,0,0,1-.176-.915,2.5,2.5,0,0,1,.389-1.078,3.212,3.212,0,0,1,.889-.924,4.515,4.515,0,0,1,1.273-.594,11.82,11.82,0,0,1,2.778-.374,14,14,0,0,0,2.354-.263,5.074,5.074,0,0,0,1.506-.572c.327-.2.473-.354.456-.377a9.859,9.859,0,0,1-2.026.621,17.28,17.28,0,0,1-2.309.156,11.08,11.08,0,0,0-2.9.357,4.784,4.784,0,0,0-1.4.669,3.53,3.53,0,0,0-1,1.074,2.83,2.83,0,0,0-.407,1.272,1.61,1.61,0,0,0,.307,1.159.824.824,0,0,0,.5.284.808.808,0,0,0,.5-.093.731.731,0,0,0,.305-.309.713.713,0,0,0,.075-.351A.674.674,0,0,0,365.35,522.674Z" transform="translate(-363.476 -508.915)" fill="#ad4e25"/>
          <path id="Trazado_116034" data-name="Trazado 116034" d="M376.372,514.141c-.1-.107-1.462,1.15-3.491,2.118-2.021.988-3.853,1.274-3.83,1.416a2.674,2.674,0,0,0,1.226-.066,10.206,10.206,0,0,0,1.292-.321,12.493,12.493,0,0,0,1.517-.6,12.334,12.334,0,0,0,1.416-.813,10.405,10.405,0,0,0,1.056-.812C376.126,514.557,376.414,514.184,376.372,514.141Z" transform="translate(-363.42 -508.959)" fill="#ad4e25"/>
          <path id="Trazado_116035" data-name="Trazado 116035" d="M378.019,511.878a7.684,7.684,0,0,0-1.342.031,8.51,8.51,0,0,0-3.131.982,7.836,7.836,0,0,0-1.121.74c-.6.48-.884.859-.844.9s.414-.234,1.037-.628a10.913,10.913,0,0,1,5.4-1.692,4.682,4.682,0,0,0,1.21-.077A2.476,2.476,0,0,0,378.019,511.878Z" transform="translate(-363.392 -508.984)" fill="#ad4e25"/>
          <path id="Trazado_116036" data-name="Trazado 116036" d="M373.163,510.6c-.432.2-.658.4-.629.45.063.125,1.1-.351,2.457-.4,1.358-.071,2.431.31,2.482.18.023-.056-.218-.229-.667-.391a5.027,5.027,0,0,0-3.644.163Z" transform="translate(-363.382 -509.002)" fill="#ad4e25"/>
          <path id="Trazado_116037" data-name="Trazado 116037" d="M370.357,511.035c.137-.105.288-.219.46-.327s.356-.221.552-.337a8.53,8.53,0,0,1,1.352-.587,8.618,8.618,0,0,1,1.44-.319c.226-.021.441-.049.644-.051s.391-.01.565-.006c.692.02,1.125.1,1.144.029.017-.053-.393-.253-1.116-.362a4.515,4.515,0,0,0-.594-.054,6.06,6.06,0,0,0-.685.01,6.557,6.557,0,0,0-2.971.963,6.1,6.1,0,0,0-.561.4,4.6,4.6,0,0,0-.45.392c-.521.512-.735.916-.69.948C369.506,511.777,369.808,511.457,370.357,511.035Z" transform="translate(-363.415 -509.014)" fill="#ad4e25"/>
          <path id="Trazado_116038" data-name="Trazado 116038" d="M373.091,512.213c-.005-.06-.292-.1-.75-.035a4.651,4.651,0,0,0-3,1.863c-.263.382-.352.657-.3.688.117.076.744-.831,1.865-1.514C372.016,512.512,373.107,512.352,373.091,512.213Z" transform="translate(-363.42 -508.981)" fill="#ad4e25"/>
          <path id="Trazado_116039" data-name="Trazado 116039" d="M365.352,515.129a1.463,1.463,0,0,0,.583.912,2.648,2.648,0,0,0,1.011.428,6.17,6.17,0,0,0,2.013.1,6.075,6.075,0,0,0,1.587-.4,2.751,2.751,0,0,0,1.256-.807c-.04-.065-.523.232-1.369.491a7.179,7.179,0,0,1-1.516.287,6.557,6.557,0,0,1-1.866-.131,2.306,2.306,0,0,1-.842-.34,1.043,1.043,0,0,1-.43-.622.593.593,0,0,1,.15-.583.586.586,0,0,1,.516-.144.352.352,0,0,1,.267.306.592.592,0,0,1-.075.37c-.11.194-.261.221-.251.261,0,.014.04.028.114.016a.5.5,0,0,0,.284-.166.741.741,0,0,0,.191-.5.636.636,0,0,0-.1-.35.66.66,0,0,0-.326-.259.916.916,0,0,0-.873.162.87.87,0,0,0-.3.432A1.122,1.122,0,0,0,365.352,515.129Z" transform="translate(-363.46 -508.961)" fill="#ad4e25"/>
          <path id="Trazado_116040" data-name="Trazado 116040" d="M365.458,518.163c-.005-.223-.085-.325-.111-.315s-.023.12-.071.294a.778.778,0,0,1-.439.522.662.662,0,0,1-.824-.281.644.644,0,0,1-.042-.522.812.812,0,0,1,.418-.421,2.535,2.535,0,0,1,1.363-.08c.456.054.865.124,1.208.191a3.829,3.829,0,0,0,1.135.182c.022-.058-.365-.281-1.051-.505a8.9,8.9,0,0,0-1.229-.3,5.16,5.16,0,0,0-.761-.085,1.91,1.91,0,0,0-.872.171,1.247,1.247,0,0,0-.646.689,1.07,1.07,0,0,0,.1.9.988.988,0,0,0,.664.464,1.022,1.022,0,0,0,.681-.1.908.908,0,0,0,.385-.406A.878.878,0,0,0,365.458,518.163Z" transform="translate(-363.48 -508.93)" fill="#ad4e25"/>
          <path id="Trazado_116041" data-name="Trazado 116041" d="M367.359,513.683a1.394,1.394,0,0,0,.8.006,3.5,3.5,0,0,0,.669-.268c.2-.1.39-.206.566-.314a6.365,6.365,0,0,0,.876-.652c.464-.416.679-.739.636-.781s-.345.185-.84.517c-.248.166-.547.355-.892.54-.172.093-.354.185-.547.274a3.62,3.62,0,0,1-.587.227.994.994,0,0,1-.534.013.6.6,0,0,1-.348-.27.321.321,0,0,1,.006-.334.422.422,0,0,1,.269-.2.464.464,0,0,1,.455.239c.076.124.081.222.116.226s.1-.092.056-.291a.658.658,0,0,0-.179-.318.642.642,0,0,0-.48-.188.753.753,0,0,0-.557.3.726.726,0,0,0-.079.747A1.019,1.019,0,0,0,367.359,513.683Z" transform="translate(-363.445 -508.986)" fill="#ad4e25"/>
          <path id="Trazado_116042" data-name="Trazado 116042" d="M384.315,521.365a1.351,1.351,0,0,1-.087-.761c.021-.169.063-.356.1-.57a6.835,6.835,0,0,0,.085-.694,6.756,6.756,0,0,0-1.174-4.276c-.435-.6-.8-.888-.841-.849s.215.406.558,1.026a8.5,8.5,0,0,1,.907,2.58,7.952,7.952,0,0,1,.115,1.5c0,.232-.022.451-.038.658s-.046.411-.049.6a1.315,1.315,0,0,0,.268.884c.151.172.283.2.3.172S384.392,521.532,384.315,521.365Z" transform="translate(-363.276 -508.958)" fill="#ad4e25"/>
          <path id="Trazado_116043" data-name="Trazado 116043" d="M383.926,514.933c-.042.056.148.256.4.6a4.28,4.28,0,0,1,.812,3.093c-.045.424-.113.691-.049.719s.237-.2.375-.651a3.4,3.4,0,0,0-.886-3.38C384.233,514.995,383.961,514.885,383.926,514.933Z" transform="translate(-363.259 -508.951)" fill="#ad4e25"/>
          <path id="Trazado_116044" data-name="Trazado 116044" d="M381.938,513.261c-.021.135.728.335,1.511.83s1.3,1.067,1.413.99c.051-.036-.014-.239-.207-.511a3.5,3.5,0,0,0-2.167-1.348C382.157,513.168,381.947,513.2,381.938,513.261Z" transform="translate(-363.28 -508.969)" fill="#ad4e25"/>
          <path id="Trazado_116045" data-name="Trazado 116045" d="M381.188,511.942c.009.134.509.2,1.06.431s.962.514,1.062.423c.046-.044,0-.186-.155-.36a2.043,2.043,0,0,0-1.608-.647C381.318,511.81,381.185,511.879,381.188,511.942Z" transform="translate(-363.289 -508.985)" fill="#ad4e25"/>
          <path id="Trazado_116046" data-name="Trazado 116046" d="M380.9,511.085c.386.133.7.288.8.191.042-.048.01-.158-.1-.285a1.37,1.37,0,0,0-1.175-.42c-.166.028-.261.094-.259.158C380.169,510.86,380.513,510.943,380.9,511.085Z" transform="translate(-363.3 -508.998)" fill="#ad4e25"/>
          <path id="Trazado_116047" data-name="Trazado 116047" d="M377.606,518.129c.032-.234.019-.366-.011-.371-.077-.015-.167.492-.594,1.157a5.213,5.213,0,0,1-2.329,1.923,9.094,9.094,0,0,1-3.037.623,5.113,5.113,0,0,0-1.323.109,3.084,3.084,0,0,0,1.325.224,7.433,7.433,0,0,0,3.22-.522,4.869,4.869,0,0,0,2.434-2.191A3.08,3.08,0,0,0,377.606,518.129Z" transform="translate(-363.406 -508.92)" fill="#ad4e25"/>
          <path id="Trazado_116048" data-name="Trazado 116048" d="M371.4,522.259c0-.071-.248-.131-.643-.093a3.577,3.577,0,0,0-2.547,1.6c-.207.339-.259.584-.2.62.137.078.662-.67,1.584-1.236C370.507,522.561,371.409,522.417,371.4,522.259Z" transform="translate(-363.431 -508.873)" fill="#ad4e25"/>
          <path id="Trazado_116049" data-name="Trazado 116049" d="M372.936,522.338c-.021-.064-.418-.02-.983.28a4.343,4.343,0,0,0-2.233,4.176c.063.636.248.991.312.972.08-.019.035-.394.073-.978a5.067,5.067,0,0,1,2.056-3.845C372.627,522.587,372.964,522.415,372.936,522.338Z" transform="translate(-363.413 -508.871)" fill="#ad4e25"/>
          <path id="Trazado_116050" data-name="Trazado 116050" d="M369.339,524.238c-.114-.092-.6.34-.885,1.07s-.214,1.38-.068,1.388.321-.544.576-1.191S369.461,524.332,369.339,524.238Z" transform="translate(-363.428 -508.85)" fill="#ad4e25"/>
        </g>
        <path id="Trazado_116051" data-name="Trazado 116051" d="M380.478,527.265a6.352,6.352,0,0,0-3.629-.376.208.208,0,0,0,.074.408,5.945,5.945,0,0,1,3.419.359C380.588,527.758,380.725,527.367,380.478,527.265Z" transform="translate(-362.002 -508.199)" fill="#ea8b57"/>
      </g>
      <path id="Trazado_116052" data-name="Trazado 116052" d="M368.724,554.812c1.148-4.021-2.489-18.249-2.548-18.383-2.744-6.124-5.94-11.8-6.74-11.987-18.293.614-26.136,21.175-30.1,42.97,13.352,7.951,31.983,4.184,31.983,4.184C365.54,557.953,367.682,558.458,368.724,554.812Z" transform="translate(-315.68 -508.224)" fill="#d8e3ea"/>
      <g id="Grupo_59436" data-name="Grupo 59436" transform="translate(35.635 28.728)">
        <path id="Trazado_116053" data-name="Trazado 116053" d="M355.354,536.931l-.736,1c-.225.307.219.706.448.4l.735-1C356.026,537.019,355.582,536.62,355.354,536.931Z" transform="translate(-351.043 -536.818)" fill="#fff"/>
        <path id="Trazado_116054" data-name="Trazado 116054" d="M352.084,539.76l-.967,1.854a.3.3,0,0,0,.533.269l.967-1.854A.3.3,0,0,0,352.084,539.76Z" transform="translate(-351.081 -536.788)" fill="#fff"/>
        <path id="Trazado_116055" data-name="Trazado 116055" d="M355.532,540.839l-.231.851c-.1.372.483.5.583.125.077-.284.155-.567.231-.851C356.216,540.593,355.632,540.469,355.532,540.839Z" transform="translate(-351.035 -536.777)" fill="#fff"/>
        <path id="Trazado_116056" data-name="Trazado 116056" d="M359.49,538.309a.3.3,0,0,0-.283.312c-.009.277-.017.555-.026.832a.3.3,0,0,0,.312.284.3.3,0,0,0,.284-.312c.009-.278.017-.555.026-.832A.3.3,0,0,0,359.49,538.309Z" transform="translate(-350.993 -536.802)" fill="#fff"/>
        <path id="Trazado_116057" data-name="Trazado 116057" d="M358.078,541.729l-.258,1.684c-.058.378.527.505.584.125q.129-.842.257-1.684C358.72,541.476,358.135,541.349,358.078,541.729Z" transform="translate(-351.008 -536.768)" fill="#fff"/>
        <path id="Trazado_116058" data-name="Trazado 116058" d="M353.651,543.7l-.7,1.315a.3.3,0,0,0,.533.27q.349-.658.7-1.315A.3.3,0,0,0,353.651,543.7Z" transform="translate(-351.061 -536.746)" fill="#fff"/>
        <path id="Trazado_116059" data-name="Trazado 116059" d="M351.471,544.606q-.114.995-.228,1.991c-.043.379.541.507.584.125q.114-.995.228-1.991C352.1,544.353,351.515,544.224,351.471,544.606Z" transform="translate(-351.079 -536.737)" fill="#fff"/>
        <path id="Trazado_116060" data-name="Trazado 116060" d="M355.65,547.678l-.036,1.767c-.008.385.588.354.6-.028l.036-1.768C356.255,547.264,355.658,547.3,355.65,547.678Z" transform="translate(-351.032 -536.704)" fill="#fff"/>
      </g>
      <g id="Grupo_59437" data-name="Grupo 59437" transform="translate(19.827 39.954)">
        <path id="Trazado_116061" data-name="Trazado 116061" d="M339.629,549.346l-.452,1.158c-.141.359.425.553.564.2l.452-1.158C340.333,549.182,339.768,548.988,339.629,549.346Z" transform="translate(-335.401 -547.911)" fill="#c5d4dd"/>
        <path id="Trazado_116062" data-name="Trazado 116062" d="M343.4,548.121l-.353,1.189c-.109.368.454.564.564.2l.353-1.188C344.075,547.949,343.511,547.753,343.4,548.121Z" transform="translate(-335.359 -547.924)" fill="#c5d4dd"/>
        <path id="Trazado_116063" data-name="Trazado 116063" d="M340.337,558.082l-.352,1.189c-.109.367.454.564.564.2l.353-1.188C341.011,557.91,340.447,557.713,340.337,558.082Z" transform="translate(-335.392 -547.817)" fill="#c5d4dd"/>
        <path id="Trazado_116064" data-name="Trazado 116064" d="M336.3,559.788c.08-.371-.484-.57-.564-.2q-.143.658-.283,1.316c-.08.372.483.571.564.2Q336.154,560.447,336.3,559.788Z" transform="translate(-335.441 -547.801)" fill="#c5d4dd"/>
        <path id="Trazado_116065" data-name="Trazado 116065" d="M347.726,558.959q.108-.722.214-1.444c.056-.38-.54-.416-.6-.038q-.106.722-.213,1.444C347.075,559.3,347.671,559.337,347.726,558.959Z" transform="translate(-335.315 -547.824)" fill="#c5d4dd"/>
        <path id="Trazado_116066" data-name="Trazado 116066" d="M342.642,563.243l-.323,1.089c-.109.368.455.565.565.2l.322-1.09C343.315,563.071,342.752,562.874,342.642,563.243Z" transform="translate(-335.367 -547.761)" fill="#c5d4dd"/>
        <path id="Trazado_116067" data-name="Trazado 116067" d="M338.176,566.4l-.236.792c-.109.368.455.565.564.2l.236-.792C338.849,566.224,338.285,566.028,338.176,566.4Z" transform="translate(-335.415 -547.727)" fill="#c5d4dd"/>
      </g>
      <path id="Trazado_116068" data-name="Trazado 116068" d="M359.114,524.452c-.416.448,4.436,15.795,5.031,15.749s2.427-4.264,2.191-5.334c-.408-1.858-2.133-6.933-3.115-11.22C363.139,523.287,359.532,524,359.114,524.452Z" transform="translate(-315.359 -508.233)" fill="#fff"/>
      <g id="Grupo_59438" data-name="Grupo 59438" transform="translate(10.016 50.946)">
        <path id="Trazado_116069" data-name="Trazado 116069" d="M325.795,562.116a4,4,0,1,0,4.627-3.258A4,4,0,0,0,325.795,562.116Z" transform="translate(-325.735 -558.799)" fill="#ff1024" opacity="0.3"/>
        <path id="Trazado_116070" data-name="Trazado 116070" d="M327.112,562.333a2.649,2.649,0,1,0,3.064-2.156A2.649,2.649,0,0,0,327.112,562.333Z" transform="translate(-325.721 -558.784)" fill="#ff1024" opacity="0.3"/>
        <path id="Trazado_116071" data-name="Trazado 116071" d="M328.415,562.548a1.313,1.313,0,1,0,1.518-1.068A1.311,1.311,0,0,0,328.415,562.548Z" transform="translate(-325.706 -558.77)" fill="#ff1024"/>
      </g>
      <g id="Grupo_59439" data-name="Grupo 59439" transform="translate(15.004 34.804)">
        <path id="Trazado_116072" data-name="Trazado 116072" d="M330.723,545.736a3.506,3.506,0,1,0,4.054-2.854A3.507,3.507,0,0,0,330.723,545.736Z" transform="translate(-330.67 -542.829)" fill="#ff1024" opacity="0.3"/>
        <path id="Trazado_116073" data-name="Trazado 116073" d="M331.876,545.927a2.322,2.322,0,1,0,2.686-1.89A2.322,2.322,0,0,0,331.876,545.927Z" transform="translate(-330.658 -542.817)" fill="#ff1024" opacity="0.3"/>
        <path id="Trazado_116074" data-name="Trazado 116074" d="M333.018,546.114a1.151,1.151,0,1,0,1.33-.937A1.15,1.15,0,0,0,333.018,546.114Z" transform="translate(-330.645 -542.804)" fill="#ff1024"/>
      </g>
      <g id="Grupo_59440" data-name="Grupo 59440" transform="translate(23.464 20.652)">
        <path id="Trazado_116075" data-name="Trazado 116075" d="M339.092,531.735a3.507,3.507,0,1,0,4.055-2.854A3.508,3.508,0,0,0,339.092,531.735Z" transform="translate(-339.04 -528.828)" fill="#ff1024" opacity="0.3"/>
        <path id="Trazado_116076" data-name="Trazado 116076" d="M340.246,531.926a2.322,2.322,0,1,0,2.685-1.89A2.321,2.321,0,0,0,340.246,531.926Z" transform="translate(-339.027 -528.816)" fill="#ff1024" opacity="0.3"/>
        <path id="Trazado_116077" data-name="Trazado 116077" d="M341.388,532.113a1.151,1.151,0,1,0,1.33-.936A1.15,1.15,0,0,0,341.388,532.113Z" transform="translate(-339.014 -528.803)" fill="#ff1024"/>
      </g>
      <g id="Grupo_59441" data-name="Grupo 59441" transform="translate(35.189 12.349)">
        <path id="Trazado_116078" data-name="Trazado 116078" d="M350.706,524.311a4.459,4.459,0,1,0,5.157-3.631A4.46,4.46,0,0,0,350.706,524.311Z" transform="translate(-350.639 -520.614)" fill="#ff1024" opacity="0.3"/>
        <path id="Trazado_116079" data-name="Trazado 116079" d="M352.173,524.553a2.953,2.953,0,1,0,3.415-2.4A2.953,2.953,0,0,0,352.173,524.553Z" transform="translate(-350.623 -520.598)" fill="#ff1024" opacity="0.3"/>
        <path id="Trazado_116080" data-name="Trazado 116080" d="M353.625,524.792a1.463,1.463,0,1,0,1.692-1.191A1.464,1.464,0,0,0,353.625,524.792Z" transform="translate(-350.607 -520.582)" fill="#ff1024"/>
      </g>
      <g id="Grupo_59444" data-name="Grupo 59444" transform="translate(31.008 31.608)">
        <path id="Trazado_116081" data-name="Trazado 116081" d="M378.911,564.348c-6.042-.973-12.047-2.438-16.737-4.7l-5.954,12.081c6.267,2,17.831,1.774,23.828.793A17.019,17.019,0,0,0,378.911,564.348Z" transform="translate(-346.398 -539.452)" fill="#d8e3ea"/>
        <path id="Trazado_116082" data-name="Trazado 116082" d="M379.153,564.587s4.037-.066,4.753-.24,6.139-2.129,7-2.238a21.767,21.767,0,0,1,4.393.255,22.976,22.976,0,0,1,3.086,1.278c.653.328.063,1.175-.633,1.049s-1.885-.336-2.05-.363-1.5.143-1.5.143a13.681,13.681,0,0,1,1.386.316c.929.25.614,1.894-.419,1.826.2.729.063,1.3-.9,1.463.725,1.154-.506,1.725-3.292,1.835-1.419.952-11.029,1.871-11.029,1.871Z" transform="translate(-346.15 -539.425)" fill="#fdb688"/>
        <g id="Grupo_59442" data-name="Grupo 59442" transform="translate(44.317 22.923)">
          <path id="Trazado_116083" data-name="Trazado 116083" d="M390.606,562.364c.063-.062.147.046.085.108a.687.687,0,0,0,.084,1.055.068.068,0,0,1-.081.11A.826.826,0,0,1,390.606,562.364Z" transform="translate(-390.347 -562.346)" fill="#e57042"/>
          <path id="Trazado_116084" data-name="Trazado 116084" d="M390.579,564.851c.054-.07.165.011.11.081a.846.846,0,0,0-.012,1.03c.054.071-.055.156-.107.085A.983.983,0,0,1,390.579,564.851Z" transform="translate(-390.347 -562.319)" fill="#e57042"/>
          <path id="Trazado_116085" data-name="Trazado 116085" d="M390.644,566.779a.068.068,0,0,1,.11.081.875.875,0,0,0-.006,1.015c.051.072-.057.158-.108.085A1.014,1.014,0,0,1,390.644,566.779Z" transform="translate(-390.346 -562.298)" fill="#e57042"/>
          <path id="Trazado_116086" data-name="Trazado 116086" d="M391.99,568a7,7,0,0,1,2.08-.036.069.069,0,0,1-.014.136,6.88,6.88,0,0,0-2.046.1C391.923,568.218,391.9,568.018,391.99,568Z" transform="translate(-390.33 -562.286)" fill="#e57042"/>
          <path id="Trazado_116087" data-name="Trazado 116087" d="M392.459,566.332a11.327,11.327,0,0,1,2.514.166c.087.015.065.185-.023.178l-2.5-.207C392.357,566.461,392.371,566.334,392.459,566.332Z" transform="translate(-390.325 -562.303)" fill="#e57042"/>
          <path id="Trazado_116088" data-name="Trazado 116088" d="M392.392,564.292a4.351,4.351,0,0,1,1.443,0c.166.034.2.239-.057.205a5.2,5.2,0,0,0-1.367.025C392.324,564.537,392.3,564.3,392.392,564.292Z" transform="translate(-390.326 -562.326)" fill="#e57042"/>
        </g>
        <path id="Trazado_116089" data-name="Trazado 116089" d="M379.807,572.471a15.3,15.3,0,0,0,4.889-.615c.229-.291-.779-5.079-1.083-7.52a.194.194,0,0,0-.075-.186.21.21,0,0,0-.229-.024l-4.641.174A55.881,55.881,0,0,0,379.807,572.471Z" transform="translate(-346.156 -539.403)" fill="#fff"/>
        <path id="Trazado_116090" data-name="Trazado 116090" d="M382.492,569.846c.664.14.413,1.163-.251,1.024S381.828,569.707,382.492,569.846Z" transform="translate(-346.121 -539.342)"/>
        <path id="Trazado_116091" data-name="Trazado 116091" d="M364.937,543.22c.207-.237-.223-.53-.433-.291l-2.551,2.916a28.2,28.2,0,0,1,1.52-4.048c.126-.272-.385-.463-.513-.189a27.336,27.336,0,0,0-1.87,18.16c.07.284.633.247.563-.039a26.742,26.742,0,0,1,0-12.753Z" transform="translate(-346.354 -539.648)" fill="#fff"/>
        <path id="Trazado_116092" data-name="Trazado 116092" d="M362.8,572.452h0a42.989,42.989,0,0,1-10.417-2.417c-2.122-.789-3.255-1.854-3.786-3.559a24.625,24.625,0,0,1-.808-4.78l-.033-.321a56.03,56.03,0,0,1,1.917-21.318.3.3,0,0,0-.214-.377.306.306,0,0,0-.389.208c-.352,1.228-.668,2.487-.94,3.748a13.442,13.442,0,0,0-1.05-3.488.275.275,0,0,0-.223-.168.339.339,0,0,0-.3.144.315.315,0,0,0-.03.321,12.606,12.606,0,0,1,1.135,5.5.217.217,0,0,0,.008.065,56.448,56.448,0,0,0-.331,17.163l.053.392a12.491,12.491,0,0,0,1.107,4.335,5.672,5.672,0,0,0,3.09,2.5,41.263,41.263,0,0,0,11.186,2.677.214.214,0,0,0,.036,0,.272.272,0,0,0,.277-.256A.332.332,0,0,0,362.8,572.452Z" transform="translate(-346.503 -539.667)" fill="#fff"/>
        <g id="Grupo_59443" data-name="Grupo 59443" transform="translate(7.736 23.008)">
          <path id="Trazado_116093" data-name="Trazado 116093" d="M355.831,564.719l-1.256-.866c-.3-.206-.591.277-.293.483l1.256.865C355.837,565.407,356.13,564.925,355.831,564.719Z" transform="translate(-354.157 -562.414)" fill="#c5d4dd"/>
          <path id="Trazado_116094" data-name="Trazado 116094" d="M359.215,562.731l-.789-.288a.282.282,0,0,0-.161.541l.788.289a.283.283,0,1,0,.162-.542Z" transform="translate(-354.114 -562.429)" fill="#c5d4dd"/>
          <path id="Trazado_116095" data-name="Trazado 116095" d="M362.745,566.342l-.883-.26a.283.283,0,0,0-.161.542l.883.26A.283.283,0,0,0,362.745,566.342Z" transform="translate(-354.077 -562.39)" fill="#c5d4dd"/>
          <path id="Trazado_116096" data-name="Trazado 116096" d="M366.06,569.245l-1.378-.5c-.343-.123-.5.418-.162.542l1.379.5C366.242,569.909,366.4,569.367,366.06,569.245Z" transform="translate(-354.047 -562.361)" fill="#c5d4dd"/>
          <path id="Trazado_116097" data-name="Trazado 116097" d="M373.6,567.122l-.977-.234c-.353-.085-.516.456-.162.541l.978.234C373.79,567.747,373.953,567.207,373.6,567.122Z" transform="translate(-353.961 -562.381)" fill="#c5d4dd"/>
          <path id="Trazado_116098" data-name="Trazado 116098" d="M368.974,566.006,367.9,565.8c-.354-.069-.518.472-.161.541l1.071.207C369.167,566.616,369.331,566.075,368.974,566.006Z" transform="translate(-354.012 -562.393)" fill="#c5d4dd"/>
        </g>
      </g>
    </g>
    <g id="Grupo_59461" data-name="Grupo 59461" transform="translate(464.796 537.025)">
      <g id="Grupo_59446" data-name="Grupo 59446" transform="translate(31.152 29.238)">
        <path id="Trazado_116099" data-name="Trazado 116099" d="M534.676,554.284c1.187-6.671,1.847-13.483,1.189-19.212l-1.943-13.058,17.251,11.018c-1.045,6.1-5.157,19.51-8.369,25.421A18.855,18.855,0,0,1,534.676,554.284Z" transform="translate(-526.544 -522.014)" fill="#c5d4dd"/>
        <path id="Trazado_116100" data-name="Trazado 116100" d="M535.266,552.706s-1.541,4.2-1.984,4.881-4.465,5.64-4.894,6.5a24.1,24.1,0,0,0-1.336,4.684,25.613,25.613,0,0,0,.209,3.692c.1.8,1.206.494,1.328-.28s.337-2.092.368-2.274.7-1.514.7-1.514a14.9,14.9,0,0,0-.175,1.564c-.078,1.063,1.756,1.334,2.062.228.69.471,1.333.538,1.857-.409.942,1.178,1.988.1,3.118-2.772,1.513-1.137,5.978-10.847,5.978-10.847Z" transform="translate(-527.035 -519.829)" fill="#f99b67"/>
        <path id="Trazado_116101" data-name="Trazado 116101" d="M534.755,552.139l-1.873,4.787a.234.234,0,0,0-.059.249.214.214,0,0,0,.168.146c2.441,1.207,7.078,4.009,7.466,3.876s2.57-4.5,2.425-4.888S534.82,551.977,534.755,552.139Z" transform="translate(-526.624 -519.869)" fill="#f4f4f4"/>
      </g>
      <g id="Grupo_59447" data-name="Grupo 59447" transform="translate(5.382 72.746)">
        <rect id="Rectngulo_6191" data-name="Rectngulo 6191" width="51.693" height="54.575" transform="matrix(1, -0.004, 0.004, 1, 1.66, 5.223)" fill="#d8a26c"/>
        <rect id="Rectngulo_6192" data-name="Rectngulo 6192" width="54.975" height="5.023" transform="translate(0 0.206) rotate(-0.215)" fill="#f4c48c"/>
        <rect id="Rectngulo_6193" data-name="Rectngulo 6193" width="13.559" height="4.93" rx="0.998" transform="matrix(1, -0.004, 0.004, 1, 20.738, 8.015)" fill="#875b33"/>
      </g>
      <path id="Trazado_116102" data-name="Trazado 116102" d="M560.671,647.156c-.954,1.477-1.9,2.984-2.7,4.536a1.356,1.356,0,0,0,1.206,2.106c1.412.034,2.857-1.425,3.6-2.2,1.123-1.17,2.873-3.987,3.163-3.91s.093,4.742.877,4.605,1.83-10.067,1.007-10.379C566.568,641.441,563.988,642.022,560.671,647.156Z" transform="translate(-493.695 -484.248)"/>
      <path id="Trazado_116103" data-name="Trazado 116103" d="M556.648,586.165c1.346.071,16.682,1.363,16.682,1.363s-.585,4.446-.683,6.831,2.3,9.106,1.639,20.252c-.617,10.346-4.673,21.5-6.385,31.264-.955,3.228-6.6,7.167-7.4,5.628C564.159,644.915,556.574,602.745,556.648,586.165Z" transform="translate(-493.775 -488.208)" fill="#ef8e5e"/>
      <path id="Trazado_116104" data-name="Trazado 116104" d="M572.844,648.166c-.846,1.542-1.684,3.112-2.375,4.716a1.355,1.355,0,0,0,1.353,2.014c1.411-.065,2.749-1.624,3.434-2.448,1.037-1.248,2.583-4.181,2.877-4.125s.43,4.724,1.2,4.531,1.111-10.172.268-10.425C578.319,642.047,575.788,642.809,572.844,648.166Z" transform="translate(-492.801 -484.208)"/>
      <path id="Trazado_116105" data-name="Trazado 116105" d="M564.55,587.57c1.349-.025,16.738.174,16.738.174s-.268,4.478-.2,6.862,2.945,8.92,3.073,20.085c.119,10.364-3.134,21.779-4.15,31.639-.724,3.286-6.073,7.618-6.979,6.138C576.214,645.639,565.654,604.114,564.55,587.57Z" transform="translate(-493.212 -488.108)" fill="#fdb688"/>
      <g id="Grupo_59449" data-name="Grupo 59449" transform="translate(0 0.226)">
        <path id="Trazado_116106" data-name="Trazado 116106" d="M505.383,515.922a4.845,4.845,0,0,0,1.8.5,8.332,8.332,0,0,1,2,.32,12.209,12.209,0,0,1,2.05,1.082c.65.39,1.714.876,1.5,1.8a.178.178,0,0,0,.249.18c1.145-.6,2.158-1.893,1.232-3.112a7.541,7.541,0,0,0-1.743-1.427c-.826-.586-1.656-1.168-2.5-1.731a39.928,39.928,0,0,0-4.98-2.9,15.061,15.061,0,0,0-2.687-1.093c-2.7-.693-2.783,1.114-2.783,1.114S502.932,514.6,505.383,515.922Z" transform="translate(-497.841 -493.901)" fill="#cc6d3e"/>
        <path id="Trazado_116107" data-name="Trazado 116107" d="M507.233,517.567c-.391-.3-1.809-2.784-2.392-3.193-.562-.394-5.17-1.831-5.8-4.672-1.815-8.138,6-16.738,19.711-6.644,1.054.777,5.144-.346,5.144-.346,2.336,3.929,2.652,8.061,3.066,11.986,0,0-6.4.764-9.405,2.19-.589.28-1.778,2.148-2.8,2.4s-6.019-2.149-6.355-2.379C508.087,517.266,507.565,517.818,507.233,517.567Z" transform="translate(-497.895 -494.677)" fill="#fdb688"/>
        <path id="Trazado_116108" data-name="Trazado 116108" d="M505.092,512.215c-.018.023,0,.079.07.149a.732.732,0,0,0,.373.178,1.086,1.086,0,0,0,.632-.082,1.382,1.382,0,0,0,.6-.535,1.682,1.682,0,0,0,.245-.74,1.8,1.8,0,0,0-.05-.6c-.089-.326-.216-.486-.269-.465s-.035.222-.03.522a1.935,1.935,0,0,1-.254,1.064,1.175,1.175,0,0,1-.4.4,1.032,1.032,0,0,1-.438.134C505.3,512.254,505.133,512.163,505.092,512.215Z" transform="translate(-497.446 -493.849)"/>
        <path id="Trazado_116109" data-name="Trazado 116109" d="M506.363,508.992c0-.057-.225-.1-.563-.021a2.809,2.809,0,0,0-1.139.625,5.125,5.125,0,0,0-.89,1.051c-.216.329-.356.584-.4.67-.177.346.651.654.771.386.031-.066.138-.314.295-.63a5.653,5.653,0,0,1,.628-1.022,3.36,3.36,0,0,1,.839-.754C506.164,509.132,506.368,509.057,506.363,508.992Z" transform="translate(-497.57 -493.933)" fill="#ad4e25"/>
        <path id="Trazado_116110" data-name="Trazado 116110" d="M502.361,515.085c-.007-.994-1.334-1.281-2.186-2.007-2.18-1.857-2.347-4.2-2.167-6.6a11.144,11.144,0,0,1,.862-3.909,14.227,14.227,0,0,1,2.492-3.387,2.85,2.85,0,0,1,1.067-1.264,10.214,10.214,0,0,1,2.849-2.152c2.036-.721,4.185.078,6.272-.139a1.447,1.447,0,0,1,1.673-.637,3.018,3.018,0,0,1,1.149.5,2.056,2.056,0,0,1,2.2.383,1.861,1.861,0,0,1,.577,1.238c1.31-.073,2.419,1.311,2.973,2.406a3.733,3.733,0,0,1,.319.933,3.277,3.277,0,0,1,2.2,2.484,3.521,3.521,0,0,1-.365,2.274,2.306,2.306,0,0,1-.593.775,2.152,2.152,0,0,1-.2,1.889.179.179,0,0,1-.248.041c-.055-.046-.111-.089-.166-.134a3.793,3.793,0,0,1-.587,2.211.18.18,0,0,1-.247.041c-.029-.022-.058-.044-.088-.063a3.659,3.659,0,0,1-.506,2.457.179.179,0,0,1-.283.006c-1.064-1.328-2.222-4.541-10.635-3.275a5.348,5.348,0,0,1-2.382-.455,22.007,22.007,0,0,1-2.743-1.119,4.173,4.173,0,0,0-2.567-.638c-1.357,1.5,2.167,4.745,2.064,7.484C503.054,515.552,502.369,516.079,502.361,515.085Z" transform="translate(-497.954 -494.93)" fill="#cc6d3e"/>
        <g id="Grupo_59448" data-name="Grupo 59448" transform="translate(0.369 0.712)">
          <path id="Trazado_116111" data-name="Trazado 116111" d="M500.129,502.759a8.462,8.462,0,0,1,.561-2.361c.237-.576.456-.9.516-.869.138.059-.419,1.459-.576,3.276-.178,1.815.114,3.292-.033,3.325-.063.016-.221-.339-.348-.948A8.491,8.491,0,0,1,500.129,502.759Z" transform="translate(-498.171 -495.314)" fill="#ad4e25"/>
          <path id="Trazado_116112" data-name="Trazado 116112" d="M502.363,505.407a4.54,4.54,0,0,1,1.162.314,10.836,10.836,0,0,1,1.293.646,9.754,9.754,0,0,0,2.268,1.057c.609.166,1.016.131,1.028.209.016.057-.4.228-1.1.141a4.616,4.616,0,0,1-1.16-.322,10.975,10.975,0,0,1-1.289-.648,9.5,9.5,0,0,0-2.271-1.047c-.611-.161-1.018-.119-1.031-.2C501.252,505.5,501.667,505.327,502.363,505.407Z" transform="translate(-498.087 -494.897)" fill="#ad4e25"/>
          <path id="Trazado_116113" data-name="Trazado 116113" d="M504.918,504.967c.349.2.533.375.5.434a11.678,11.678,0,0,1-2.076-.48,11.533,11.533,0,0,1-2.094-.394c-.005-.066.234-.153.634-.195a5.434,5.434,0,0,1,3.035.635Z" transform="translate(-498.089 -494.974)" fill="#ad4e25"/>
          <path id="Trazado_116114" data-name="Trazado 116114" d="M511.88,504.809c.617-.224.994-.4,1.034-.334s-.283.341-.89.66a6.854,6.854,0,0,1-1.115.458,7.687,7.687,0,0,1-2.927.323,6.866,6.866,0,0,1-1.188-.2c-.663-.18-1.035-.391-1.013-.45s.431.017,1.082.1c.326.044.714.076,1.145.091a10.447,10.447,0,0,0,3.872-.645Z" transform="translate(-497.766 -494.963)" fill="#ad4e25"/>
          <path id="Trazado_116115" data-name="Trazado 116115" d="M512.665,505.64c-.041-.047.283-.432.946-.9a6.092,6.092,0,0,1,1.261-.676,5.052,5.052,0,0,1,1.74-.355,4.086,4.086,0,0,1,1.751.379,3.518,3.518,0,0,1,1.174.869,2.518,2.518,0,0,1,.5.844c.07.22.074.349.044.359-.079.031-.242-.444-.8-.956a3.723,3.723,0,0,0-1.1-.692,4.051,4.051,0,0,0-1.558-.3,6.266,6.266,0,0,0-2.822.83C513.116,505.414,512.713,505.7,512.665,505.64Z" transform="translate(-497.276 -495.016)" fill="#ad4e25"/>
          <path id="Trazado_116116" data-name="Trazado 116116" d="M501.7,503.356a7.433,7.433,0,0,1,4.228-.234c.532.136.837.292.819.356-.039.144-1.328-.141-2.922-.044-1.6.079-2.845.5-2.9.366C500.9,503.739,501.183,503.551,501.7,503.356Z" transform="translate(-498.112 -495.073)" fill="#ad4e25"/>
          <path id="Trazado_116117" data-name="Trazado 116117" d="M507.249,504.552c-1.04.085-1.883-.056-1.878-.192s.829-.227,1.837-.31,1.837-.127,1.864.011S508.289,504.469,507.249,504.552Z" transform="translate(-497.795 -494.998)" fill="#ad4e25"/>
          <path id="Trazado_116118" data-name="Trazado 116118" d="M519.492,503.3c.018-.112.055-.162.07-.157s.016.061.032.157a.723.723,0,0,0,.171.367.54.54,0,0,0,.535.179.574.574,0,0,0,.306-.173.554.554,0,0,0,.133-.353,1.39,1.39,0,0,0-.409-.9,2.667,2.667,0,0,0-1-.7,3.405,3.405,0,0,0-1.341-.256,4.813,4.813,0,0,0-1.472.264,12.659,12.659,0,0,0-2.645,1.381,14.9,14.9,0,0,1-2.208,1.218,5.385,5.385,0,0,1-1.66.427c-.406.028-.629-.016-.629-.047a10.506,10.506,0,0,0,2.142-.7,18.534,18.534,0,0,0,2.1-1.282,11.745,11.745,0,0,1,2.738-1.469,5.127,5.127,0,0,1,1.629-.281,3.787,3.787,0,0,1,1.525.324,3,3,0,0,1,1.136.856,1.712,1.712,0,0,1,.444,1.2.873.873,0,0,1-.261.555.864.864,0,0,1-.49.225.79.79,0,0,1-.455-.081.757.757,0,0,1-.28-.259A.718.718,0,0,1,519.492,503.3Z" transform="translate(-497.51 -495.212)" fill="#ad4e25"/>
          <path id="Trazado_116119" data-name="Trazado 116119" d="M504.909,502.627c.019-.153,1.977.1,4.336-.3,2.364-.382,4.133-1.259,4.2-1.12.03.056-.375.351-1.105.7a11.054,11.054,0,0,1-1.322.514,12.246,12.246,0,0,1-3.42.571,11.1,11.1,0,0,1-1.416-.058A2.869,2.869,0,0,1,504.909,502.627Z" transform="translate(-497.828 -495.196)" fill="#ad4e25"/>
          <path id="Trazado_116120" data-name="Trazado 116120" d="M502.3,501.762a8.2,8.2,0,0,1,1.187-.8,9.1,9.1,0,0,1,3.325-1.07,8.34,8.34,0,0,1,1.43-.045,2.626,2.626,0,0,1,1.286.265,5.008,5.008,0,0,1-1.288.092,12.426,12.426,0,0,0-1.364.147,12.848,12.848,0,0,0-1.625.394,11.76,11.76,0,0,0-2.744,1.3c-.66.423-1.045.733-1.1.676S501.668,502.277,502.3,501.762Z" transform="translate(-498.078 -495.292)" fill="#ad4e25"/>
          <path id="Trazado_116121" data-name="Trazado 116121" d="M505.67,497.809c.5-.091.816-.06.824,0,.022.147-1.169.368-2.382,1.161-1.225.772-1.923,1.763-2.048,1.681-.055-.033.048-.334.34-.75a5.355,5.355,0,0,1,3.267-2.1Z" transform="translate(-498.032 -495.441)" fill="#ad4e25"/>
          <path id="Trazado_116122" data-name="Trazado 116122" d="M508.4,496.547c-.184-.006-.386-.014-.6,0s-.445.027-.686.046a8.2,8.2,0,0,0-2.985.928c-.209.12-.413.227-.591.35s-.346.232-.494.343c-.59.442-.916.779-.977.728-.047-.035.185-.461.747-1a5.018,5.018,0,0,1,.484-.411,6.434,6.434,0,0,1,.6-.412,7,7,0,0,1,3.174-.987,6.388,6.388,0,0,1,.731,0,4.749,4.749,0,0,1,.632.064c.768.126,1.2.345,1.183.4C509.593,496.67,509.134,496.577,508.4,496.547Z" transform="translate(-498.031 -495.557)" fill="#ad4e25"/>
          <path id="Trazado_116123" data-name="Trazado 116123" d="M506.455,499.132c-.032-.056.191-.268.63-.492a4.952,4.952,0,0,1,3.753-.222c.463.169.709.355.683.413-.056.138-1.158-.266-2.553-.171C507.574,498.732,506.527,499.263,506.455,499.132Z" transform="translate(-497.718 -495.412)" fill="#ad4e25"/>
          <path id="Trazado_116124" data-name="Trazado 116124" d="M514.815,497.033a1.56,1.56,0,0,1,.052,1.15,2.815,2.815,0,0,1-.616.993,6.613,6.613,0,0,1-1.686,1.326,6.445,6.445,0,0,1-1.628.621,2.918,2.918,0,0,1-1.589.071c0-.081.6-.12,1.492-.413a7.585,7.585,0,0,0,1.494-.681,6.981,6.981,0,0,0,1.542-1.26,2.479,2.479,0,0,0,.523-.813,1.123,1.123,0,0,0-.008-.8.632.632,0,0,0-.488-.415.62.62,0,0,0-.538.191.376.376,0,0,0-.044.431.635.635,0,0,0,.292.275c.214.1.363.032.378.073.008.013-.018.049-.09.085a.52.52,0,0,1-.348.029.787.787,0,0,1-.47-.313.678.678,0,0,1-.13-.364.7.7,0,0,1,.125-.426.976.976,0,0,1,.858-.4.926.926,0,0,1,.522.195A1.184,1.184,0,0,1,514.815,497.033Z" transform="translate(-497.512 -495.538)" fill="#ad4e25"/>
          <path id="Trazado_116125" data-name="Trazado 116125" d="M516.311,499.647c-.133-.2-.125-.335-.1-.343s.094.091.242.212a.828.828,0,0,0,.7.184.706.706,0,0,0,.544-.75.7.7,0,0,0-.284-.48.867.867,0,0,0-.622-.109,2.7,2.7,0,0,0-1.235.767c-.363.328-.675.641-.933.909-.513.539-.815.9-.875.855s.146-.469.6-1.085a9.433,9.433,0,0,1,.886-1.015,5.52,5.52,0,0,1,.609-.54,2.016,2.016,0,0,1,.863-.388,1.328,1.328,0,0,1,.985.2,1.139,1.139,0,0,1,.462.841,1.049,1.049,0,0,1-.292.812,1.085,1.085,0,0,1-.653.332.968.968,0,0,1-.585-.117A.945.945,0,0,1,516.311,499.647Z" transform="translate(-497.199 -495.434)" fill="#ad4e25"/>
          <path id="Trazado_116126" data-name="Trazado 116126" d="M512.254,497.052a1.478,1.478,0,0,1-.692.5,3.752,3.752,0,0,1-.746.179c-.237.036-.466.061-.686.074a6.728,6.728,0,0,1-1.163-.028c-.658-.077-1.043-.225-1.032-.289s.414-.051,1.048-.066c.317-.009.693-.028,1.105-.078.207-.025.423-.057.645-.1a3.907,3.907,0,0,0,.65-.164,1.054,1.054,0,0,0,.472-.317.642.642,0,0,0,.136-.448.341.341,0,0,0-.211-.286.448.448,0,0,0-.352,0,.493.493,0,0,0-.248.487c.01.154.065.242.038.268s-.14-.02-.227-.22a.683.683,0,0,1-.04-.386.674.674,0,0,1,.3-.458.8.8,0,0,1,.669-.08.774.774,0,0,1,.527.6A1.079,1.079,0,0,1,512.254,497.052Z" transform="translate(-497.612 -495.594)" fill="#ad4e25"/>
          <path id="Trazado_116127" data-name="Trazado 116127" d="M502.684,513.525a1.437,1.437,0,0,0-.392-.717c-.122-.133-.273-.27-.439-.432a7.172,7.172,0,0,1-2.107-4.99c.006-.793.149-1.264.21-1.255a5.172,5.172,0,0,1,.146,1.235,9.076,9.076,0,0,0,.795,2.8,8.5,8.5,0,0,0,.822,1.374c.145.2.3.379.437.548s.294.329.414.5a1.391,1.391,0,0,1,.311.933c-.026.242-.125.345-.151.331S502.72,513.716,502.684,513.525Z" transform="translate(-498.196 -494.844)" fill="#ad4e25"/>
          <path id="Trazado_116128" data-name="Trazado 116128" d="M499.133,507.6c.071.023.029.314.027.767a4.556,4.556,0,0,0,1.193,3.187c.3.341.523.532.484.6s-.332-.032-.726-.335a3.62,3.62,0,0,1-1.306-3.484C498.9,507.846,499.072,507.584,499.133,507.6Z" transform="translate(-498.267 -494.739)" fill="#ad4e25"/>
          <path id="Trazado_116129" data-name="Trazado 116129" d="M499.872,505.08c.1.105-.427.738-.8,1.651s-.476,1.727-.621,1.727c-.066,0-.134-.214-.134-.571a3.723,3.723,0,0,1,1.056-2.5C499.624,505.133,499.826,505.033,499.872,505.08Z" transform="translate(-498.298 -494.92)" fill="#ad4e25"/>
          <path id="Trazado_116130" data-name="Trazado 116130" d="M499.713,503.564c.075.122-.319.488-.658,1.025s-.521,1.038-.663,1.021c-.066-.011-.111-.164-.087-.407a2.068,2.068,0,0,1,.327-.887,2.1,2.1,0,0,1,.674-.664C499.518,503.53,499.677,503.507,499.713,503.564Z" transform="translate(-498.299 -495.029)" fill="#ad4e25"/>
          <path id="Trazado_116131" data-name="Trazado 116131" d="M499.409,502.734c-.253.353-.435.683-.574.656-.065-.016-.105-.132-.089-.31a1.466,1.466,0,0,1,.764-1.087c.162-.076.284-.078.321-.021C499.905,502.094,499.657,502.377,499.409,502.734Z" transform="translate(-498.267 -495.143)" fill="#ad4e25"/>
          <path id="Trazado_116132" data-name="Trazado 116132" d="M506.221,506.614c-.171-.184-.241-.306-.218-.329.058-.061.449.326,1.228.642a5.562,5.562,0,0,0,3.206.24,9.675,9.675,0,0,0,3.023-1.324c.729-.458,1.17-.775,1.218-.718s-.317.462-1.014,1.009a7.921,7.921,0,0,1-3.12,1.524,5.188,5.188,0,0,1-3.462-.41A3.28,3.28,0,0,1,506.221,506.614Z" transform="translate(-497.75 -494.916)" fill="#ad4e25"/>
          <path id="Trazado_116133" data-name="Trazado 116133" d="M513.66,506.393c-.04-.064.135-.267.5-.476a3.809,3.809,0,0,1,3.2-.177c.388.167.584.349.552.418-.073.152-.988-.177-2.137-.1C514.621,506.109,513.748,506.537,513.66,506.393Z" transform="translate(-497.205 -494.891)" fill="#ad4e25"/>
          <path id="Trazado_116134" data-name="Trazado 116134" d="M512.444,507.316c-.02-.069.351-.274,1.026-.36a4.62,4.62,0,0,1,4.507,2.259c.335.591.393,1.012.326,1.037s-.273-.321-.664-.807a5.4,5.4,0,0,0-4.15-2.08C512.865,507.342,512.467,507.4,512.444,507.316Z" transform="translate(-497.292 -494.788)" fill="#ad4e25"/>
          <path id="Trazado_116135" data-name="Trazado 116135" d="M516.478,506.782c.042-.15.734-.075,1.427.388s1.034,1.067.912,1.164-.614-.275-1.233-.681S516.429,506.939,516.478,506.782Z" transform="translate(-497.004 -494.803)" fill="#ad4e25"/>
        </g>
        <path id="Trazado_116136" data-name="Trazado 116136" d="M509.115,515.868a6.761,6.761,0,0,1,2.924-2.557.221.221,0,0,1,.186.4,6.318,6.318,0,0,0-2.752,2.412C509.323,516.364,508.964,516.108,509.115,515.868Z" transform="translate(-497.162 -493.623)" fill="#ea8b57"/>
      </g>
      <path id="Trazado_116137" data-name="Trazado 116137" d="M572.191,514.889c32.6,21.409,22.785,38.352,24.911,78.013-9.476,3.487-31.068,2.108-41.879-.03.978-20.3.361-41.279.361-41.279l-3.146-9.263Z" transform="translate(-494.074 -493.283)" fill="#003a61"/>
      <g id="Grupo_59450" data-name="Grupo 59450" transform="translate(65.603 80.739)">
        <path id="Trazado_116138" data-name="Trazado 116138" d="M560.4,570.476c.03-.486.794-.525.763-.034-.057.9-.2,1.81-.242,2.72-.021.489-.784.526-.763.035C560.2,572.286,560.341,571.379,560.4,570.476Z" transform="translate(-559.128 -570.092)" fill="#01273d"/>
        <path id="Trazado_116139" data-name="Trazado 116139" d="M562.145,575.115c.054-.488.8-.315.745.169a7.588,7.588,0,0,0,.01,1.953c.072.486-.692.516-.764.035A8.358,8.358,0,0,1,562.145,575.115Z" transform="translate(-558.992 -569.755)" fill="#01273d"/>
        <path id="Trazado_116140" data-name="Trazado 116140" d="M559.96,578.06v2.177c0,.491-.764.527-.764.034v-2.177C559.2,577.6,559.96,577.569,559.96,578.06Z" transform="translate(-559.196 -569.549)" fill="#01273d"/>
        <path id="Trazado_116141" data-name="Trazado 116141" d="M561.484,583.7c0,.751.17,1.492.181,2.237.008.492-.756.527-.763.034-.011-.745-.181-1.486-.182-2.237C560.72,583.248,561.483,583.213,561.484,583.7Z" transform="translate(-559.088 -569.147)" fill="#01273d"/>
        <path id="Trazado_116142" data-name="Trazado 116142" d="M568.369,582.011v2.3c0,.492-.763.527-.763.035v-2.3C567.606,581.555,568.369,581.519,568.369,582.011Z" transform="translate(-558.597 -569.268)" fill="#01273d"/>
      </g>
      <path id="Trazado_116143" data-name="Trazado 116143" d="M554.407,543.469s13.027-12.328,19.753-27.442c-16.607-14.522-32.345-20.891-49.171-14.85-.578.655.126,7.551,1.5,14.562.031.153,5.608,14.758,9.075,17.548C538.711,535.818,542.359,534.2,554.407,543.469Z" transform="translate(-496.043 -494.421)" fill="#d8e3ea"/>
      <g id="Grupo_59451" data-name="Grupo 59451" transform="translate(38.588 11.672)">
        <path id="Trazado_116144" data-name="Trazado 116144" d="M537.746,505.674l1.079.767c.33.236.014.787-.32.55l-1.079-.768C537.1,505.988,537.411,505.435,537.746,505.674Z" transform="translate(-533.742 -505.615)" fill="#fff"/>
        <path id="Trazado_116145" data-name="Trazado 116145" d="M541.763,507.343q.8.776,1.6,1.551c.294.286-.155.736-.449.451l-1.6-1.552C541.02,507.508,541.47,507.058,541.763,507.343Z" transform="translate(-533.462 -505.499)" fill="#fff"/>
        <path id="Trazado_116146" data-name="Trazado 116146" d="M538.81,509.464l.518.784c.226.342-.323.661-.548.321l-.518-.784C538.036,509.443,538.585,509.124,538.81,509.464Z" transform="translate(-533.676 -505.352)" fill="#fff"/>
        <path id="Trazado_116147" data-name="Trazado 116147" d="M534.214,508.29a.325.325,0,0,1,.391.222c.1.277.2.555.3.832a.32.32,0,0,1-.222.391.323.323,0,0,1-.391-.221l-.3-.833A.32.32,0,0,1,534.214,508.29Z" transform="translate(-533.977 -505.426)" fill="#fff"/>
        <path id="Trazado_116148" data-name="Trazado 116148" d="M536.661,511.116q.41.808.822,1.616c.184.363-.363.687-.548.321q-.411-.808-.822-1.616C535.927,511.074,536.475,510.75,536.661,511.116Z" transform="translate(-533.828 -505.235)" fill="#fff"/>
        <path id="Trazado_116149" data-name="Trazado 116149" d="M541.505,511.593l1.145,1.1c.3.283-.153.733-.449.45q-.572-.548-1.145-1.1C540.761,511.76,541.21,511.31,541.505,511.593Z" transform="translate(-533.48 -505.196)" fill="#fff"/>
        <path id="Trazado_116150" data-name="Trazado 116150" d="M543.867,511.78q.448.969.9,1.938c.17.368-.377.693-.548.321l-.894-1.937C543.148,511.733,543.7,511.409,543.867,511.78Z" transform="translate(-533.314 -505.188)" fill="#fff"/>
        <path id="Trazado_116151" data-name="Trazado 116151" d="M540.849,516.029l.627,1.774c.137.387-.477.554-.613.17l-.627-1.774C540.1,515.813,540.714,515.646,540.849,516.029Z" transform="translate(-533.533 -504.889)" fill="#fff"/>
      </g>
      <g id="Grupo_59452" data-name="Grupo 59452" transform="translate(55.15 13.834)">
        <path id="Trazado_116152" data-name="Trazado 116152" d="M553.739,507.69l1.1.73c.342.226-.03.741-.371.516l-1.1-.729C553.026,507.98,553.4,507.464,553.739,507.69Z" transform="translate(-549.168 -507.634)" fill="#c5d4dd"/>
        <path id="Trazado_116153" data-name="Trazado 116153" d="M549.932,508.873l1.037.816c.32.253-.049.77-.371.517l-1.037-.816C549.241,509.137,549.61,508.62,549.932,508.873Z" transform="translate(-549.438 -507.55)" fill="#c5d4dd"/>
        <path id="Trazado_116154" data-name="Trazado 116154" d="M558.219,515.27l1.037.816c.32.253-.049.77-.371.516l-1.037-.816C557.528,515.533,557.9,515.016,558.219,515.27Z" transform="translate(-548.848 -507.095)" fill="#c5d4dd"/>
        <path id="Trazado_116155" data-name="Trazado 116155" d="M562.5,514.358c-.3-.274.07-.794.371-.517l1.054.972c.3.273-.07.793-.371.516Z" transform="translate(-548.516 -507.197)" fill="#c5d4dd"/>
        <path id="Trazado_116156" data-name="Trazado 116156" d="M552.7,520.36l-1.073-1.126c-.282-.3.213-.693.495-.4l1.072,1.126C553.478,520.256,552.982,520.655,552.7,520.36Z" transform="translate(-549.288 -506.844)" fill="#c5d4dd"/>
        <path id="Trazado_116157" data-name="Trazado 116157" d="M559.319,520.84l.95.748c.32.253-.048.77-.371.516l-.95-.748C558.628,521.1,559,520.586,559.319,520.84Z" transform="translate(-548.77 -506.698)" fill="#c5d4dd"/>
        <path id="Trazado_116158" data-name="Trazado 116158" d="M564.81,520.839l.691.544c.321.253-.048.77-.37.516l-.691-.544C564.119,521.1,564.488,520.585,564.81,520.839Z" transform="translate(-548.379 -506.698)" fill="#c5d4dd"/>
      </g>
      <path id="Trazado_116159" data-name="Trazado 116159" d="M521.18,502.849c1.779,4.331,3.4,9.8,4.183,11.669.452,1.076,4.636,3.617,5.18,3.292s-4.661-16.65-5.3-16.782S521.031,502.486,521.18,502.849Z" transform="translate(-496.3 -494.271)" fill="#fff"/>
      <g id="Grupo_59453" data-name="Grupo 59453" transform="translate(71.115 14.761)">
        <path id="Trazado_116160" data-name="Trazado 116160" d="M571.608,509.742a4.259,4.259,0,1,1-6.023.01A4.259,4.259,0,0,1,571.608,509.742Z" transform="translate(-564.342 -508.499)" fill="#ff1024" opacity="0.3"/>
        <path id="Trazado_116161" data-name="Trazado 116161" d="M570.5,510.665a2.82,2.82,0,1,1-3.988.008A2.821,2.821,0,0,1,570.5,510.665Z" transform="translate(-564.246 -508.404)" fill="#ff1024" opacity="0.3"/>
        <path id="Trazado_116162" data-name="Trazado 116162" d="M569.4,511.578a1.4,1.4,0,1,1-1.976,0A1.4,1.4,0,0,1,569.4,511.578Z" transform="translate(-564.152 -508.309)" fill="#ff1024"/>
      </g>
      <g id="Grupo_59454" data-name="Grupo 59454" transform="translate(59.866 7.594)">
        <path id="Trazado_116163" data-name="Trazado 116163" d="M560.208,502.9a3.732,3.732,0,1,1-5.279.009A3.732,3.732,0,0,1,560.208,502.9Z" transform="translate(-553.841 -501.808)" fill="#ff1024" opacity="0.3"/>
        <path id="Trazado_116164" data-name="Trazado 116164" d="M559.234,503.706a2.472,2.472,0,1,1-3.5.006A2.472,2.472,0,0,1,559.234,503.706Z" transform="translate(-553.757 -501.724)" fill="#ff1024" opacity="0.3"/>
        <path id="Trazado_116165" data-name="Trazado 116165" d="M558.271,504.507a1.224,1.224,0,1,1-1.731,0A1.224,1.224,0,0,1,558.271,504.507Z" transform="translate(-553.674 -501.642)" fill="#ff1024"/>
      </g>
      <g id="Grupo_59455" data-name="Grupo 59455" transform="translate(44.686 1.35)">
        <path id="Trazado_116166" data-name="Trazado 116166" d="M546.037,497.068a3.733,3.733,0,1,1-5.279.009A3.733,3.733,0,0,1,546.037,497.068Z" transform="translate(-539.669 -495.979)" fill="#ff1024" opacity="0.3"/>
        <path id="Trazado_116167" data-name="Trazado 116167" d="M545.063,497.878a2.472,2.472,0,1,1-3.5.005A2.473,2.473,0,0,1,545.063,497.878Z" transform="translate(-539.585 -495.895)" fill="#ff1024" opacity="0.3"/>
        <path id="Trazado_116168" data-name="Trazado 116168" d="M544.1,498.678a1.225,1.225,0,1,1-1.732,0A1.225,1.225,0,0,1,544.1,498.678Z" transform="translate(-539.503 -495.813)" fill="#ff1024"/>
      </g>
      <g id="Grupo_59456" data-name="Grupo 59456" transform="translate(28.131 0)">
        <path id="Trazado_116169" data-name="Trazado 116169" d="M532.313,496.1a4.747,4.747,0,1,1-6.713.011A4.746,4.746,0,0,1,532.313,496.1Z" transform="translate(-524.215 -494.719)" fill="#ff1024" opacity="0.3"/>
        <path id="Trazado_116170" data-name="Trazado 116170" d="M531.074,497.134a3.143,3.143,0,1,1-4.444.006A3.142,3.142,0,0,1,531.074,497.134Z" transform="translate(-524.109 -494.613)" fill="#ff1024" opacity="0.3"/>
        <path id="Trazado_116171" data-name="Trazado 116171" d="M529.85,498.151a1.557,1.557,0,1,1-2.2,0A1.558,1.558,0,0,1,529.85,498.151Z" transform="translate(-524.003 -494.507)" fill="#ff1024"/>
      </g>
      <g id="Grupo_59460" data-name="Grupo 59460" transform="translate(30.047 9.142)">
        <path id="Trazado_116172" data-name="Trazado 116172" d="M535.529,556.806c1.933-6.494,5.19-21.811,1.277-33.4l16.041,15.312a69.969,69.969,0,0,1-9.716,23.148A18.854,18.854,0,0,1,535.529,556.806Z" transform="translate(-525.326 -501.818)" fill="#d8e3ea"/>
        <path id="Trazado_116173" data-name="Trazado 116173" d="M536.236,555.16s-2.005,4-2.523,4.625-5.074,5.1-5.6,5.909a24.052,24.052,0,0,0-1.856,4.5,11.813,11.813,0,0,0-.253,2.5c.014.808.926.607,1.4-.013a3.642,3.642,0,0,0,.615-1.141c.051-.177.862-1.424.862-1.424a15.024,15.024,0,0,0-.35,1.534c-.2,1.047,1.594,1.523,2.022.46.632.546,1.264.686,1.892-.2.8,1.277,1.965.323,3.413-2.4,1.631-.958,7.167-10.1,7.167-10.1Z" transform="translate(-526.004 -499.557)" fill="#fdb688"/>
        <g id="Grupo_59457" data-name="Grupo 59457" transform="translate(2.411 66.023)">
          <path id="Trazado_116174" data-name="Trazado 116174" d="M528.3,564.944c-.092.032-.025.169.067.137a.759.759,0,0,1,1.011.591.076.076,0,0,0,.149-.028A.915.915,0,0,0,528.3,564.944Z" transform="translate(-528.255 -564.888)" fill="#e57042"/>
          <path id="Trazado_116175" data-name="Trazado 116175" d="M530.652,566.045c-.1.021-.067.17.028.15a.937.937,0,0,1,1.034.483c.044.087.181.02.136-.066A1.09,1.09,0,0,0,530.652,566.045Z" transform="translate(-528.089 -564.807)" fill="#e57042"/>
          <path id="Trazado_116176" data-name="Trazado 116176" d="M532.437,566.981a.076.076,0,0,0,.028.149.966.966,0,0,1,1.016.481c.047.085.184.019.136-.066A1.121,1.121,0,0,0,532.437,566.981Z" transform="translate(-527.962 -564.74)" fill="#e57042"/>
          <path id="Trazado_116177" data-name="Trazado 116177" d="M533.041,568.8A7.7,7.7,0,0,0,532,570.861a.076.076,0,0,0,.143.051,7.612,7.612,0,0,1,1.083-1.994C533.29,568.84,533.1,568.725,533.041,568.8Z" transform="translate(-527.988 -564.611)" fill="#e57042"/>
          <path id="Trazado_116178" data-name="Trazado 116178" d="M531.259,568.489a12.613,12.613,0,0,0-1.043,2.587c-.026.094.154.153.189.062q.5-1.3,1-2.6C531.436,568.448,531.3,568.4,531.259,568.489Z" transform="translate(-528.116 -564.634)" fill="#e57042"/>
          <path id="Trazado_116179" data-name="Trazado 116179" d="M529.344,567.5a4.859,4.859,0,0,0-.691,1.441c-.045.183.141.319.232.042a5.791,5.791,0,0,1,.682-1.35C529.622,567.55,529.4,567.417,529.344,567.5Z" transform="translate(-528.227 -564.703)" fill="#e57042"/>
        </g>
        <path id="Trazado_116180" data-name="Trazado 116180" d="M535.7,554.586q-1.2,2.272-2.4,4.545a.234.234,0,0,0-.086.24.213.213,0,0,0,.15.164c2.289,1.476,6.579,4.784,6.981,4.7s3.061-4.182,2.962-4.581S535.776,554.432,535.7,554.586Z" transform="translate(-525.492 -499.598)" fill="#fff"/>
        <path id="Trazado_116181" data-name="Trazado 116181" d="M539.021,560.723c-.18.729.962.972,1.142.242S539.2,559.994,539.021,560.723Z" transform="translate(-525.078 -499.192)"/>
        <g id="Grupo_59458" data-name="Grupo 59458" transform="translate(5.863)">
          <path id="Trazado_116182" data-name="Trazado 116182" d="M551.769,540.468c.535-5.251-.361-10.633-1.375-15.8-1.075-5.473-2.139-11.457-5.219-16.178a.306.306,0,0,1-.065-.1,17.636,17.636,0,0,0-3.583-4c-.312-.254.089-.734.4-.48a17.589,17.589,0,0,1,2.844,2.94,11.073,11.073,0,0,0-1.442-3.116c-.223-.333.289-.692.513-.356a11.727,11.727,0,0,1,1.85,4.778,34.01,34.01,0,0,1,4.232,11.145c1.274,5.717,2.564,11.61,2.633,17.49a32.528,32.528,0,0,1-.172,3.787C552.3,541.151,551.743,540.813,551.769,540.468Z" transform="translate(-530.77 -503.253)" fill="#fff"/>
          <path id="Trazado_116183" data-name="Trazado 116183" d="M538.367,529.584a45.893,45.893,0,0,0-2.3-8.019l-4.494-4.464c-.284-.282.115-.764.4-.48l3.489,3.465a45.124,45.124,0,0,0-2.642-5.206c-.2-.344.309-.7.514-.356a46.385,46.385,0,0,1,5.669,15.066C539.163,530.617,538.6,530.638,538.367,529.584Z" transform="translate(-531.477 -502.461)" fill="#fff"/>
        </g>
        <g id="Grupo_59459" data-name="Grupo 59459" transform="translate(17.444 20.927)">
          <path id="Trazado_116184" data-name="Trazado 116184" d="M545.2,524.746q-.331-.776-.664-1.552c-.159-.371.43-.582.588-.212q.333.776.664,1.552C545.944,524.9,545.356,525.116,545.2,524.746Z" transform="translate(-542.131 -522.789)" fill="#c5d4dd"/>
          <path id="Trazado_116185" data-name="Trazado 116185" d="M542.431,527.762q-.069-.459-.14-.919a.313.313,0,0,1,.623-.057q.069.461.14.92a.313.313,0,1,1-.623.056Z" transform="translate(-542.288 -522.524)" fill="#c5d4dd"/>
          <path id="Trazado_116186" data-name="Trazado 116186" d="M545.4,532.13l-.089-1.016a.313.313,0,0,1,.622-.057c.03.34.059.678.089,1.016A.313.313,0,0,1,545.4,532.13Z" transform="translate(-542.074 -522.22)" fill="#c5d4dd"/>
          <path id="Trazado_116187" data-name="Trazado 116187" d="M547.691,536.156q-.117-.8-.236-1.6c-.059-.4.565-.453.622-.057q.119.8.237,1.6C548.373,536.5,547.75,536.554,547.691,536.156Z" transform="translate(-541.921 -521.974)" fill="#c5d4dd"/>
          <path id="Trazado_116188" data-name="Trazado 116188" d="M543.948,543.41l-.04-1.113c-.014-.4.608-.459.623-.056q.019.556.039,1.113C544.585,543.755,543.962,543.813,543.948,543.41Z" transform="translate(-542.173 -521.423)" fill="#c5d4dd"/>
          <path id="Trazado_116189" data-name="Trazado 116189" d="M543.76,538.449q0-.606.01-1.209c0-.4.626-.458.622-.056s-.006.806-.01,1.208S543.757,538.852,543.76,538.449Z" transform="translate(-542.184 -521.783)" fill="#c5d4dd"/>
        </g>
      </g>
    </g>
  </g>
</svg>
