<svg xmlns="http://www.w3.org/2000/svg" xmlns:xlink="http://www.w3.org/1999/xlink" width="356" height="356" viewBox="0 0 356 356">
  <defs>
    <clipPath id="clip-path">
      <rect id="Rectángulo_6076" data-name="Rectángulo 6076" width="356" height="356" transform="translate(-0.3 0)" fill="none"/>
    </clipPath>
    <linearGradient id="linear-gradient" x1="0.5" y1="0.175" x2="0.5" y2="1.35" gradientUnits="objectBoundingBox">
      <stop offset="0" stop-color="#a6ccf7"/>
      <stop offset="0.262" stop-color="#cde9f7"/>
      <stop offset="0.997" stop-color="#fff"/>
    </linearGradient>
    <linearGradient id="linear-gradient-2" x1="0.5" y1="2.994" x2="0.5" y2="11.94" gradientUnits="objectBoundingBox">
      <stop offset="0" stop-color="#9ec5ff"/>
      <stop offset="1" stop-color="#d6e9ff"/>
    </linearGradient>
    <linearGradient id="linear-gradient-3" x1="0.5" y1="0.237" x2="0.5" y2="0.948" gradientUnits="objectBoundingBox">
      <stop offset="0.041" stop-color="#537496"/>
      <stop offset="1" stop-color="#415a75"/>
    </linearGradient>
    <linearGradient id="linear-gradient-4" x1="0.898" y1="2.994" x2="0.898" y2="11.94" xlink:href="#linear-gradient-2"/>
    <linearGradient id="linear-gradient-5" x1="0.834" y1="0.237" x2="0.834" y2="0.948" xlink:href="#linear-gradient-3"/>
    <linearGradient id="linear-gradient-6" y1="-5.074" y2="3.532" xlink:href="#linear-gradient-2"/>
    <linearGradient id="linear-gradient-7" y1="-6.022" y2="2.584" xlink:href="#linear-gradient-2"/>
    <linearGradient id="linear-gradient-8" y1="0.523" y2="9.129" xlink:href="#linear-gradient-2"/>
    <linearGradient id="linear-gradient-9" y1="-0.208" y2="5.064" xlink:href="#linear-gradient-2"/>
    <linearGradient id="linear-gradient-10" y1="-0.15" y2="5.122" xlink:href="#linear-gradient-2"/>
  </defs>
  <g id="Grupo_59022" data-name="Grupo 59022" transform="translate(0.3 0.247)">
    <g id="Background" transform="translate(0 -0.247)">
      <g id="Grupo_58966" data-name="Grupo 58966" transform="translate(0 0)">
        <g id="Grupo_58965" data-name="Grupo 58965" clip-path="url(#clip-path)">
          <path id="Trazado_115223" data-name="Trazado 115223" d="M323.9,234.226a148.594,148.594,0,1,0-268.619,0Z" transform="translate(-11.85 -6.146)" fill="url(#linear-gradient)"/>
          <g id="Grupo_58964" data-name="Grupo 58964" transform="translate(-2.251 100.105)">
            <g id="Grupo_58962" data-name="Grupo 58962">
              <path id="Trazado_115224" data-name="Trazado 115224" d="M-1.667,140.5H12.79v42.54h15.4v15.641H42.177V167.873h14.93V202H72.749v-9.6H86.02v3.91h6.162V156.5H105.1l.355,79.037h17.774V225.106h12.087v22.988h25.121v17.419H-1.607Z" transform="translate(2.733 -140.5)" fill="url(#linear-gradient-2)"/>
              <path id="Trazado_115225" data-name="Trazado 115225" d="M-3.167,298.491H146.356a14.195,14.195,0,0,0-22.049-8.4,22.979,22.979,0,0,0-37.521-6.451,20.384,20.384,0,0,0-36.587.118,16.554,16.554,0,0,0-12.959-6.238c-.417,0-.83.021-1.239.051A31.282,31.282,0,0,0-3.167,251.586Z" transform="translate(3.167 -172.293)" fill="url(#linear-gradient-3)"/>
            </g>
            <g id="Grupo_58963" data-name="Grupo 58963" transform="translate(197.177)">
              <path id="Trazado_115226" data-name="Trazado 115226" d="M436.269,140.5H421.812v42.54h-15.4v15.641H392.425V167.873h-14.93V202H361.853V186.832H348.582v9.48H342.42v-25.24H329.5V194.89H318.525v40.644H299.288V225.106H287.912v22.988H274.167v17.419H436.21Z" transform="translate(-274.167 -140.5)" fill="url(#linear-gradient-4)"/>
              <path id="Trazado_115227" data-name="Trazado 115227" d="M442.883,298.491H293.36a14.195,14.195,0,0,1,22.049-8.4,22.979,22.979,0,0,1,37.52-6.451,20.384,20.384,0,0,1,36.587.118,16.554,16.554,0,0,1,12.959-6.238c.417,0,.829.021,1.239.051a31.282,31.282,0,0,1,39.169-25.982Z" transform="translate(-279.714 -172.293)" fill="url(#linear-gradient-5)"/>
            </g>
          </g>
        </g>
      </g>
    </g>
    <g id="Objects" transform="translate(20.089 14.382)">
      <g id="Grupo_59020" data-name="Grupo 59020" transform="translate(4.72 27.532)">
        <g id="Grupo_58988" data-name="Grupo 58988" transform="translate(167.203)">
          <ellipse id="Elipse_4183" data-name="Elipse 4183" cx="58.613" cy="10.311" rx="58.613" ry="10.311" transform="translate(21.443 256.351)" fill="#91989e" opacity="0.25" style="mix-blend-mode: multiply;isolation: isolate"/>
          <g id="Grupo_58968" data-name="Grupo 58968" transform="translate(54.712 120.174)">
            <g id="Grupo_58967" data-name="Grupo 58967" transform="translate(0 123.881)">
              <path id="Trazado_115228" data-name="Trazado 115228" d="M375.237,402.309c-.09-.25-9.128.706-9.128.706a53.536,53.536,0,0,1-7.8,6.673c-4.512,3.015-10.153,3.276-11.038,6.721s.836,3.349.836,3.349,6.463.759,10.17-.589,8.955-3.074,8.955-3.074l.49,1.441a15.061,15.061,0,0,0,9.506-1.714S378.774,412.087,375.237,402.309Z" transform="translate(-347.02 -402.267)" fill="#1a1635"/>
              <path id="Trazado_115229" data-name="Trazado 115229" d="M368.879,402.941c-1.492.146-2.657.269-2.657.269a53.531,53.531,0,0,1-7.8,6.673c-4.478,2.992-10.062,3.276-11.011,6.648C358.12,419.308,366.653,412.189,368.879,402.941Z" transform="translate(-347.134 -402.462)" fill="#292551"/>
            </g>
            <path id="Trazado_115230" data-name="Trazado 115230" d="M383.284,245.89s-6.052,38.174-6.808,46.516,1.859,20.674,2.293,27.469c.951,14.9-1.165,31.586-1.165,31.586.823,3.8-14.318,7.2-15.142,3.4,0,0,.781-3.9-1.123-26.113-.951-11.092-3.8-24.465-6.338-39.3s-1.205-53.006-1.205-53.006,6.6-10.284,17.22-8.119S383.284,245.89,383.284,245.89Z" transform="translate(-348.878 -228.027)" fill="#22364d"/>
          </g>
          <g id="Grupo_58971" data-name="Grupo 58971" transform="translate(59.28 120.174)">
            <g id="Grupo_58969" data-name="Grupo 58969" transform="translate(14.072 135.242)">
              <path id="Trazado_115231" data-name="Trazado 115231" d="M404,418.248s-2.582,3.388-10.729,1.936c0,0-2.582,7.422-6.211,9.277s-13.311,5.4-13.8,8.632,5.809,4.114,13.068,3.549,12.585-5.889,12.585-5.889l.726.888s4.84-1.211,6.857-3.307S404,418.248,404,418.248Z" transform="translate(-373.239 -418.248)" fill="#1a1635"/>
              <path id="Trazado_115232" data-name="Trazado 115232" d="M379.957,438.033c11.693.7,21.361-7.036,21.864-17.151a16.808,16.808,0,0,1-7.3.063s-2.582,7.422-6.211,9.277c-2.409,1.231-7.47,3.209-10.752,5.343.023.108.048.218.069.328A2.59,2.59,0,0,0,379.957,438.033Z" transform="translate(-374.487 -419.009)" fill="#292551"/>
            </g>
            <g id="Grupo_58970" data-name="Grupo 58970">
              <path id="Trazado_115233" data-name="Trazado 115233" d="M398.434,253.953c-.018.938-1.433,40.207.767,52.951s5.836,17.825,5.289,52.988l-.534,7.617c.733,3.676-13.691,6.552-14.424,2.876a99.934,99.934,0,0,0-2.6-30.149c-3.972-16.318-18.251-60.823-19.723-87.224C365.774,227.293,398.9,230.725,398.434,253.953Z" transform="translate(-357.41 -230.069)" fill="#476e9e"/>
              <path id="Trazado_115234" data-name="Trazado 115234" d="M381.153,257.731a12.056,12.056,0,0,1,7.918,4.6c2.3,2.829,3.089,6.209,4.807,9.3.71-4.067.29-8.7.395-12.843.058-2.292.151-4.584.2-6.876.232-11.686-8.035-18.358-16.127-18.832a12.379,12.379,0,0,0-7.328-4.753c-10.616-2.165-17.22,8.119-17.22,8.119s-.35,10.03-.349,21.806c0-.779,2.058-1.629,2.64-1.767a4.141,4.141,0,0,1,3.524.8c2.276,1.767,3.053,6.137,3.7,8.756,1.628,6.586,3.448,13.06,5.691,19.467a12.21,12.21,0,0,1-.261-3.237c-.241-5.378-.3-11.049,1.691-16.143,1.361-3.487,4.006-6.921,7.706-8.073A7.846,7.846,0,0,1,381.153,257.731Z" transform="translate(-353.446 -228.027)" fill="#b5b5b5" style="mix-blend-mode: multiply;isolation: isolate"/>
            </g>
          </g>
          <g id="Grupo_58975" data-name="Grupo 58975" transform="translate(11.072 43.435)">
            <g id="Grupo_58973" data-name="Grupo 58973" transform="translate(0 1.207)">
              <path id="Trazado_115235" data-name="Trazado 115235" d="M337.7,157.079a52.5,52.5,0,0,0-6.9-5.952c-2.358,6.429-4.353,12.035-5.159,12.76-1.7,1.531-16.008-12.589-18.378-14.95a11.063,11.063,0,0,1-1.445-3.7c-.822-3.981.618-4.431-.369-9.12s.078-6.928-1.44-5.444c-1.675,1.638-.528,6.146-1.883,6.235-2.409.158-5.287-15.23-6.977-15.119s1.924,13.8,1.924,13.8-6.51-13.833-7.594-12.234,4.792,13.522,4.792,13.522-7.106-9.974-7.693-8.578,5.624,10.667,5.624,10.667-6.5-5.856-6.565-4.323,4.26,5.347,6.7,8.785a42.835,42.835,0,0,0,7.3,8.342,17.124,17.124,0,0,1,3.162,4.156,2.547,2.547,0,0,0,.236.493c.041.066.082.128.123.193.043.087.065.137.065.137l.016-.008c12.933,20.586,25.832,26.568,28.617,23.962,2.378-2.225,7.451-9.421,12.458-17.552C342.063,161.172,339.851,159.182,337.7,157.079Z" transform="translate(-285.64 -121.79)" fill="#f3bc8c"/>
              <g id="Grupo_58972" data-name="Grupo 58972" transform="translate(10.251 17.58)">
                <path id="Trazado_115236" data-name="Trazado 115236" d="M306.313,147.116a7.852,7.852,0,0,0-1.251,3.411,7.579,7.579,0,0,0,.346,3.615.259.259,0,0,0,.333.151.264.264,0,0,0,.167-.224c.1-1.17.159-2.277.311-3.388s.38-2.2.611-3.341a.288.288,0,0,0-.222-.341A.292.292,0,0,0,306.313,147.116Z" transform="translate(-301.482 -146.655)" fill="#e39c5d" opacity="0.6"/>
                <path id="Trazado_115237" data-name="Trazado 115237" d="M303.1,146.524a4.848,4.848,0,0,0-1.691.931,6.077,6.077,0,0,0-1.325,1.4.164.164,0,0,0,.188.245,6.067,6.067,0,0,0,1.7-.921,4.866,4.866,0,0,0,1.332-1.4.18.18,0,0,0-.2-.264Z" transform="translate(-300.057 -146.518)" fill="#e39c5d" opacity="0.6"/>
              </g>
              <path id="Trazado_115238" data-name="Trazado 115238" d="M356.767,132.988c-3.321,2.926-9.616,19.21-13.285,27.676,3.725,3.251,8.282,5.074,12.476,7.709.756.475,1.5.963,2.245,1.457,7.065-10.93,15.063-25.338,15.892-31.4C375.394,128.94,363.994,126.621,356.767,132.988Z" transform="translate(-302.358 -123.992)" fill="#d5701a"/>
              <path id="Trazado_115239" data-name="Trazado 115239" d="M363.735,129.49c-3.465,2.5-5.587,6.787-7.339,10.561-2.028,4.37-3.782,8.915-5.489,13.415-2.13,5.619-9.684,27.264-10.223,28.313,3.463,1.855,6.013,2.121,7.079,1.124,1.972-1.845,5.8-7.111,9.9-13.491q.26-.4.522-.813l.349-.55q.268-.423.537-.851l.284-.451q.394-.63.788-1.271l.078-.125h0c6.225-10.106,12.347-21.656,13.066-26.917C374.164,132.022,369.247,128.889,363.735,129.49Z" transform="translate(-301.549 -123.995)" fill="#f0f0f0" style="mix-blend-mode: multiply;isolation: isolate"/>
            </g>
            <path id="Trazado_115240" data-name="Trazado 115240" d="M377.529,120.092s16.578,4.6,19.73,8.637,5.361,14.274,3.49,23.729c-.915,4.623-2.771,12.455-4.428,19.252a60.187,60.187,0,0,0-.625,25.582c1.13,5.9,2.122,12.1,1.759,14.128-1.18,6.61-46.974,12.275-46.5,3.3s4.432-31.539,4.432-31.544c.486-2.766-.609-6.613-.847-9.392-.434-5.072-1.313-10.15-1.44-15.244a52.62,52.62,0,0,1,1.767-14.854c1.136-4.257,2.878-10.716,6.085-13.926C365.118,125.592,372.265,122.735,377.529,120.092Z" transform="translate(-304.516 -120.092)" fill="#e77c20"/>
            <path id="Trazado_115241" data-name="Trazado 115241" d="M414.777,156.156c1.806-9.127-.193-18.963-3.168-23.269a10.506,10.506,0,0,0-2.5,3.128,43.768,43.768,0,0,0-3.668,8.84,98.469,98.469,0,0,0-3.539,14.466c-1.641,10.354-.886,21.035-.439,31.451.351,8.174.86,16.544-.608,24.646a35.518,35.518,0,0,1-1.366,5.334c6.6-1.476,11.617-3.507,12-5.636.363-2.028-.628-8.223-1.759-14.128a60.188,60.188,0,0,1,.625-25.582C412.006,168.611,413.862,160.779,414.777,156.156Z" transform="translate(-318.544 -123.79)" fill="#f0f0f0" style="mix-blend-mode: multiply;isolation: isolate"/>
            <g id="Grupo_58974" data-name="Grupo 58974" transform="translate(81.31 8.099)">
              <path id="Trazado_115242" data-name="Trazado 115242" d="M429.3,194.578c.36-2.4-1.738-14.369-4.8-26.039-5.526,1.32-11.036,2.714-16.578,3.965,3.59,9.37,7.737,20.219,7.762,21.89.043,2.847-7.175,41.854-7.175,41.854a1.626,1.626,0,0,0-.036.232l-3.34,4.4c-1.226,1.048-6.119,7.032-4.259,7.421a5.588,5.588,0,0,0,2.245-.468,24.725,24.725,0,0,0,3.213-2.879.286.286,0,0,1,.068.063,7.028,7.028,0,0,1-1.042,4.48,17.13,17.13,0,0,1-3.191,3.128c-.822.665-2.678,1.039-2.029,2.254.37.692,1.753.749,2.53.857a25.716,25.716,0,0,0,8.8-.309,6.063,6.063,0,0,0,3.357-1.59,3.964,3.964,0,0,0,2.012-2.682c.936-3.067.552-11.91.46-13.755.015-.046.034-.089.046-.137C417.34,237.26,428.373,200.762,429.3,194.578Z" transform="translate(-400.004 -142.193)" fill="#f3bc8c"/>
              <path id="Trazado_115243" data-name="Trazado 115243" d="M428.928,165.978c-2.612-11.824-7.993-25.429-11.848-30.556-8.766-11.656-14.921,5.6-13.246,12.51.5,2.065,4.006,13.574,7.557,23.022C416.378,169.631,424.08,167.942,428.928,165.978Z" transform="translate(-401.031 -131.483)" fill="#e77c20"/>
            </g>
          </g>
          <g id="Grupo_58981" data-name="Grupo 58981" transform="translate(60.666)">
            <g id="Grupo_58978" data-name="Grupo 58978">
              <path id="Trazado_115244" data-name="Trazado 115244" d="M383.332,102.718a51.391,51.391,0,0,0,6.784-11.072c3.257-7.005,1.956-17.063-7.137-21.661s-17.859-.766-20.521,6.637S365.82,94.147,383.332,102.718Z" transform="translate(-357.262 -61.599)" fill="#1a1635"/>
              <path id="Trazado_115245" data-name="Trazado 115245" d="M385.622,104.311c0,.3,2.665,10.488,2.77,13.152.269,6.86-13.528,12.971-14.187,7.329-.2-1.727-.558-10.17-.558-10.17Z" transform="translate(-360.67 -72.096)" fill="#f3bc8c"/>
              <path id="Trazado_115246" data-name="Trazado 115246" d="M385.585,104.738s-1,14.443-8.426,15.5c-4.1.585-3.954-9.656-3.954-9.656S372.543,100.555,385.585,104.738Z" transform="translate(-360.54 -71.925)" fill="#ce8865"/>
              <g id="Grupo_58976" data-name="Grupo 58976" transform="translate(4.243 10.396)">
                <path id="Trazado_115247" data-name="Trazado 115247" d="M377.38,73.845s-8.566-1.732-13,4.455-2.593,10.278-2.715,12.084-1.865,16.836,4.582,17.89c7.16,1.171,13.568-4.553,15.592-10.854a15.074,15.074,0,0,0,.888-4.941S388.88,77.294,377.38,73.845Z" transform="translate(-361.363 -73.622)" fill="#f3bc8c"/>
              </g>
              <g id="Grupo_58977" data-name="Grupo 58977" transform="translate(4.698 21.561)">
                <path id="Trazado_115248" data-name="Trazado 115248" d="M372.118,96.373c0,.606.322,1.1.72,1.1s.719-.491.719-1.1-.322-1.1-.719-1.1S372.118,95.767,372.118,96.373Z" transform="translate(-364.926 -91.045)" fill="#1a1635"/>
                <path id="Trazado_115249" data-name="Trazado 115249" d="M363.042,95.239c0,.606.322,1.1.719,1.1s.719-.492.719-1.1-.322-1.1-.719-1.1S363.042,94.632,363.042,95.239Z" transform="translate(-362.303 -90.717)" fill="#1a1635"/>
                <path id="Trazado_115250" data-name="Trazado 115250" d="M371.889,91.616c.3.06.611.081.887.122a3.667,3.667,0,0,1,.83.173,4.076,4.076,0,0,1,.8.39c.137.073.254.181.4.262.13.1.252.207.4.3l.04.027a.346.346,0,0,0,.5-.446,3.69,3.69,0,0,0-.681-.947,3.475,3.475,0,0,0-1.01-.692,3.049,3.049,0,0,0-1.231-.255,1.9,1.9,0,0,0-1.192.434.348.348,0,0,0,.154.607Z" transform="translate(-364.747 -89.68)" fill="#1a1635"/>
                <path id="Trazado_115251" data-name="Trazado 115251" d="M365.054,90.342a1.029,1.029,0,0,0-.577-.847,1.731,1.731,0,0,0-.961-.16,1.973,1.973,0,0,0-1.459.891.354.354,0,0,0,.42.521l.039-.015a2.982,2.982,0,0,1,1.072-.213,1.737,1.737,0,0,1,.414.063c.122.027.231.021.446.077l.149.04a.364.364,0,0,0,.444-.259A.351.351,0,0,0,365.054,90.342Z" transform="translate(-362.002 -89.326)" fill="#1a1635"/>
              </g>
              <path id="Trazado_115252" data-name="Trazado 115252" d="M375.983,65.166l-.035-.016a43.878,43.878,0,0,0-8.5-2.611A5.441,5.441,0,0,1,365.2,59a11.018,11.018,0,0,0-3.133,2.636,5.126,5.126,0,0,0-1.332,2.017c-.015.036-.026.071-.039.106-.039.106-.075.21-.1.307-.118-1.021-.058-2.917-.354-3.062-.54-.145-2.919,2.161-2.894,5.376a7.561,7.561,0,0,0,1.057,4.186c-1.1-.185-2.386-1.243-2.557-1.014s-1.153,3.134.464,5.127a5.514,5.514,0,0,0,2.8,1.439c3.379.966,6.747.074,10.079-.615,2.031-.42,4.524-1.7,6.557-.655,2.24,1.153,1.422,4,1.611,6.018s3.042,2.594,2.283,6.2.7,4.111.759,3.541A23.828,23.828,0,0,1,381,88.252C386.735,79.418,384.925,67.864,375.983,65.166Z" transform="translate(-355.395 -59)" fill="#1a1635"/>
              <path id="Trazado_115253" data-name="Trazado 115253" d="M366.212,66.522a1.1,1.1,0,0,0-.808-.328c-.353.06-.55.433-.68.767a10.2,10.2,0,0,0-.516,3.112.828.828,0,0,1-1.331.621c-.283-.22-.55-.437-.759-.606a.708.708,0,0,0-1.16.664,10.793,10.793,0,0,0,1.269,3.21c-.243.415-.836.391-1.315.355s-1.1.082-1.187.555.463.8.923.946a14.283,14.283,0,0,0,9.068-.147,8.355,8.355,0,0,0,3.337-2.031,5.051,5.051,0,0,0,1.212-2.156,1.377,1.377,0,0,0-1.077-1.683,23.263,23.263,0,0,1-3.467-.83A14.227,14.227,0,0,1,366.212,66.522Z" transform="translate(-356.644 -61.077)" fill="#322a66" opacity="0.5"/>
            </g>
            <g id="Grupo_58979" data-name="Grupo 58979" transform="translate(24.4 26.374)">
              <path id="Trazado_115254" data-name="Trazado 115254" d="M390.266,101.155c0-.138,1.288-5.059,1.288-5.059s2.115,1.058,1.886,3.128a4.109,4.109,0,0,1-3.726,3.679Z" transform="translate(-389.714 -96.096)" fill="#f3bc8c"/>
              <path id="Trazado_115255" data-name="Trazado 115255" d="M392.2,98.511l-.981,3.526S393.707,100.749,392.2,98.511Z" transform="translate(-390.15 -96.794)" fill="#ce8865"/>
            </g>
            <g id="Grupo_58980" data-name="Grupo 58980" transform="translate(3.658 26.328)">
              <path id="Trazado_115256" data-name="Trazado 115256" d="M362.915,100.817a3.356,3.356,0,0,1,2.533-.616,8.189,8.189,0,0,1,2.654,1.64,6.447,6.447,0,0,0,4.332,1.073c.882-.1,1.919-.338,2.542.293a2.422,2.422,0,0,1,.486,1.65l.173,4.1a7.418,7.418,0,0,1-.558,3.944c-.815,1.467-2.5,2.194-4.111,2.683a9.436,9.436,0,0,1-4.741.464c-2.591-.575-4.463-2.977-5.187-5.531a18.033,18.033,0,0,1-.437-5.99A4.377,4.377,0,0,1,362.915,100.817Z" transform="translate(-360.54 -97.22)" fill="#fff"/>
              <path id="Trazado_115257" data-name="Trazado 115257" d="M365.283,112.839c-1.692-3.777-1.453-8.3-1.364-12.452a4.114,4.114,0,0,0-1,.5A4.377,4.377,0,0,0,360.6,104.6a18.033,18.033,0,0,0,.437,5.99c.724,2.555,2.6,4.956,5.187,5.531a7.25,7.25,0,0,0,2.79.009A5.37,5.37,0,0,1,365.283,112.839Z" transform="translate(-360.54 -97.29)" fill="#c7c7c7" opacity="0.64" style="mix-blend-mode: multiply;isolation: isolate"/>
              <path id="Trazado_115258" data-name="Trazado 115258" d="M379.946,102.148c2.776-1.935,6.054-4.182,8.83-6.117" transform="translate(-366.149 -96.031)" fill="none" stroke="#fff" stroke-miterlimit="10" stroke-width="1.515"/>
              <path id="Trazado_115259" data-name="Trazado 115259" d="M381.219,112.712a17.988,17.988,0,0,0,7.005-7.042" transform="translate(-366.517 -98.817)" fill="none" stroke="#fff" stroke-miterlimit="10" stroke-width="1.035"/>
            </g>
          </g>
          <g id="Grupo_58987" data-name="Grupo 58987" transform="translate(0 32.992)">
            <g id="Grupo_58982" data-name="Grupo 58982" transform="translate(24.431 2.751)">
              <path id="Trazado_115260" data-name="Trazado 115260" d="M305.211,118.8a.845.845,0,0,0,.909-.832s.156-7.4.1-8.168c-.06-.847-.7-.527-.709-.055l-1.075,8.094a.846.846,0,0,0,.773.961Z" transform="translate(-304.43 -109.273)" fill="#fff"/>
            </g>
            <g id="Grupo_58983" data-name="Grupo 58983" transform="translate(14.266)">
              <path id="Trazado_115261" data-name="Trazado 115261" d="M293.084,114.572a.846.846,0,0,0,.557-1.1s-2.472-6.979-2.794-7.676c-.356-.77-.842-.245-.683.2l1.858,7.95a.845.845,0,0,0,1.062.626Z" transform="translate(-290.133 -105.404)" fill="#fff"/>
            </g>
            <g id="Grupo_58984" data-name="Grupo 58984" transform="translate(5.027 4.949)">
              <path id="Trazado_115262" data-name="Trazado 115262" d="M283.317,119.79a.846.846,0,0,0,.082-1.23s-5-5.459-5.57-5.975c-.629-.57-.871.1-.55.451l4.815,6.594a.845.845,0,0,0,1.222.161Z" transform="translate(-277.138 -112.364)" fill="#fff"/>
            </g>
            <g id="Grupo_58985" data-name="Grupo 58985" transform="translate(0 13.447)">
              <path id="Trazado_115263" data-name="Trazado 115263" d="M278.415,129.148a.846.846,0,0,0-.364-1.178s-6.628-3.3-7.344-3.578c-.791-.306-.776.41-.352.618l6.861,4.426a.845.845,0,0,0,1.2-.288Z" transform="translate(-270.067 -124.317)" fill="#fff"/>
            </g>
            <g id="Grupo_58986" data-name="Grupo 58986" transform="translate(0.049 24.506)">
              <path id="Trazado_115264" data-name="Trazado 115264" d="M279.65,141.03a.845.845,0,0,0-.817-.923s-7.4-.274-8.166-.231c-.847.047-.537.693-.065.707l8.075,1.2a.845.845,0,0,0,.973-.756Z" transform="translate(-270.136 -139.872)" fill="#fff"/>
            </g>
          </g>
        </g>
        <g id="Grupo_59019" data-name="Grupo 59019" transform="translate(0 14.29)">
          <ellipse id="Elipse_4184" data-name="Elipse 4184" cx="58.613" cy="10.311" rx="58.613" ry="10.311" transform="translate(0 243.009)" fill="#91989e" opacity="0.25" style="mix-blend-mode: multiply;isolation: isolate"/>
          <g id="Grupo_59012" data-name="Grupo 59012" transform="translate(12.269)">
            <g id="Grupo_58989" data-name="Grupo 58989" transform="translate(57.648 35.937)">
              <path id="Trazado_115265" data-name="Trazado 115265" d="M183.221,144.639s4.622-8.857,3.963-10.043-6.009,8.387-6.009,8.387,4.065-11.186,2.944-12.5-5.564,11.631-5.564,11.631,1.881-12.532.365-12.466-2.573,14.043-4.732,14.138c-1.215.053-.634-4.071-2.285-5.366-1.5-1.172-.329.717-.749,4.987s.531,4.574.69,8.21a12.054,12.054,0,0,1-.646,4.289c-3.694,4.572-7.248,9.236-10.729,13.949-.931,1.238-1.836,2.492-2.745,3.745l-.384-.879a187.982,187.982,0,0,0-8.674-18.2,82.733,82.733,0,0,0-5.449-8.572,37.367,37.367,0,0,0-5.766-6.2,13.833,13.833,0,0,0-1.75-1.306,6.492,6.492,0,0,0-.72-.375l-1.682-.744c-.5,3.3,2.07,8.427,2.819,11.637a82.5,82.5,0,0,0,3.156,10c1.65,4.429,8.94,20.742,11.427,23.929,1.74,2.227,4.52,3.862,7.317,3.455,3.076-.448,5.317-3.15,6.771-5.9,4.16-7.863,8.894-15.382,13.014-23.306a59.793,59.793,0,0,0,5.738-8.515c1.832-3.3,5.313-7.116,5.1-8.473S183.221,144.639,183.221,144.639Z" transform="translate(-133.234 -129.645)" fill="#f3bc8c"/>
              <path id="Trazado_115266" data-name="Trazado 115266" d="M193.581,152.116a7.852,7.852,0,0,1,1.251,3.411,7.561,7.561,0,0,1-.346,3.615.258.258,0,0,1-.333.151.262.262,0,0,1-.167-.224c-.1-1.17-.159-2.277-.312-3.388s-.38-2.2-.611-3.341a.289.289,0,0,1,.222-.341A.292.292,0,0,1,193.581,152.116Z" transform="translate(-150.524 -136.104)" fill="#e39c5d" opacity="0.6"/>
              <path id="Trazado_115267" data-name="Trazado 115267" d="M196.217,151.524a4.848,4.848,0,0,1,1.691.931,6.1,6.1,0,0,1,1.325,1.4.165.165,0,0,1-.189.245,6.087,6.087,0,0,1-1.7-.921,4.875,4.875,0,0,1-1.332-1.4.18.18,0,0,1,.063-.246A.178.178,0,0,1,196.217,151.524Z" transform="translate(-151.372 -135.966)" fill="#e39c5d" opacity="0.6"/>
            </g>
            <g id="Grupo_58990" data-name="Grupo 58990" transform="translate(21.247 8.45)">
              <path id="Trazado_115268" data-name="Trazado 115268" d="M135.213,98.667c-1.775-2.375-3.8-4.76-4.3-7.682,0,0-.579,7.872-1.192,16.677-2.574.222-6.781,4-7.824,5.093a14.791,14.791,0,0,0-3.971,9.636c-.124,2.079-.319,8.97,2.081,9.724,11.693,3.672,13.17-2.511,14.249-4.842a18.428,18.428,0,0,0,1.233-7.546,24.511,24.511,0,0,1,.839-7.624c.611-1.791,1.677-3.447,1.93-5.322C138.653,103.842,136.988,101.042,135.213,98.667Z" transform="translate(-92.39 -90.985)" fill="#1a1635"/>
              <path id="Trazado_115269" data-name="Trazado 115269" d="M109.986,120.308c-.367-5.48-3.428-12.064-9.289-13.5a8.785,8.785,0,0,0-2.112-.262A30.188,30.188,0,0,0,94.073,97.5c-2.924,1.927-3.278,6.053-2.923,9.537s1.059,7.258-.691,10.292c-1.076,1.863-2.972,3.2-3.819,5.177-1.218,2.848-.009,6.359-.42,9.319-.07.087-.145.172-.215.259-4.693,5.9-4.805,11.078-2.514,17.917.888,2.651,3.864,3.563,6.232,4.144C100.736,156.847,110.584,129.238,109.986,120.308Z" transform="translate(-82.035 -92.868)" fill="#1a1635"/>
            </g>
            <g id="Grupo_58994" data-name="Grupo 58994" transform="translate(3.854 100.849)">
              <g id="Grupo_58993" data-name="Grupo 58993" transform="translate(9.162)">
                <g id="Grupo_58991" data-name="Grupo 58991">
                  <path id="Trazado_115270" data-name="Trazado 115270" d="M113.974,222.009c-3.428,0-6.859-.145-10.279-.383a26.675,26.675,0,0,1-5.069-.68c-4.512,12.091-11.733,15.443-10.311,59.286,0,0-7.371,7.62-9.412,21.038-2.668,17.54-7.7,46.194-8.446,48.37l8.554,3.3c1.349-3.068,20.576-43.934,27.763-64.928,4.541-13.263,14.282-32.727,17.072-53.937.7-5.3-.451-8.836-1.56-12.317Q118.136,222,113.974,222.009Z" transform="translate(-70.458 -220.946)" fill="#22364d"/>
                  <path id="Trazado_115271" data-name="Trazado 115271" d="M129.407,221.758q-4.151.245-8.313.251c-3.428,0-6.859-.145-10.279-.383a26.674,26.674,0,0,1-5.069-.68c-4.512,12.091-11.733,15.443-10.311,59.286,0,0-.124.129-.343.379a125.233,125.233,0,0,1,12.743,23.249c2.382-5.824,4.5-11.3,6.059-15.848,4.541-13.263,14.282-32.727,17.072-53.937C131.664,228.776,130.515,225.239,129.407,221.758Z" transform="translate(-77.578 -220.946)" fill="#b5b5b5" style="mix-blend-mode: multiply;isolation: isolate"/>
                </g>
                <g id="Grupo_58992" data-name="Grupo 58992" transform="translate(12.107 0.387)">
                  <path id="Trazado_115272" data-name="Trazado 115272" d="M137.508,287.753c-3.007-21.393-8.734-42.557-19.055-61.511-.209-.385-5.012-.235-5.663-.285q-3.11-.24-6.2-.662a106.661,106.661,0,0,1-12.235-2.4c-1.075-.278-4.68-1.863-5.463-1.268-.825.627-.966,4.735-1.094,5.77a36.852,36.852,0,0,0,2.5,18.969c3.073,7.483,7.749,14.143,12.426,20.691,2.545,3.563,5.111,7.116,7.47,10.808a67.139,67.139,0,0,1,6.545,12.712,97.416,97.416,0,0,1,3.787,14.811l10.923,54.48,9.464-.114c-.027-22.814-.058-45.7-2.915-68.332Q137.765,289.584,137.508,287.753Z" transform="translate(-87.487 -221.49)" fill="#476e9e"/>
                  <path id="Trazado_115273" data-name="Trazado 115273" d="M88.814,232.5a30.422,30.422,0,0,0,6.064,2.589c6.376,1.9,13.093.71,19.568,1.775a20.287,20.287,0,0,1,12.077,6.921,147.417,147.417,0,0,0-8.067-17.54c-.209-.385-5.012-.235-5.663-.285q-3.11-.24-6.2-.662a106.661,106.661,0,0,1-12.235-2.4c-1.075-.278-4.68-1.863-5.463-1.268-.825.627-.966,4.735-1.094,5.77a40.167,40.167,0,0,0-.3,4.351C87.968,232.027,88.422,232.278,88.814,232.5Z" transform="translate(-87.491 -221.49)" fill="#476e9e" opacity="0.24" style="mix-blend-mode: multiply;isolation: isolate"/>
                </g>
              </g>
              <path id="Trazado_115274" data-name="Trazado 115274" d="M149.675,422.546l25.378.459a1.867,1.867,0,0,0,1.375-3.167c-4.07-4.133-11.9-5.6-14.964-6.606a4.99,4.99,0,0,1-3.416-4.343l-2.516-32.457c-5.123-1.793-14.6,1.188-14.6,1.188l5.622,42.2A3.151,3.151,0,0,0,149.675,422.546Z" transform="translate(-81.664 -265.719)" fill="#1a1635"/>
              <path id="Trazado_115275" data-name="Trazado 115275" d="M164.812,423.726a6.993,6.993,0,0,0-.931,5.472c.915,2.843,4.511,3.849,7.139,4.281,4.022.662,8.106.321,12.16.414a1.913,1.913,0,0,0-.187-.221c-4.07-4.133-11.9-5.6-14.964-6.606A4.978,4.978,0,0,1,164.812,423.726Z" transform="translate(-88.229 -279.555)" fill="#292551"/>
              <path id="Trazado_115276" data-name="Trazado 115276" d="M59.172,411.543s11.152,4.414,17.255,5.676c3.283.68,8.831,3.777,9.509-.452.4-2.483-9.571-8.488-11.523-10.348a4.286,4.286,0,0,1-1.32-4.906l12.655-29.353c-3.86-3.816-14.6-5.571-14.6-5.571L58.788,402.321C58.311,403.823,56.1,409.365,59.172,411.543Z" transform="translate(-57.571 -263.041)" fill="#1a1635"/>
              <path id="Trazado_115277" data-name="Trazado 115277" d="M79.408,413.259a6.021,6.021,0,0,0-2.363,6.653,12.749,12.749,0,0,0,4.777,6.372,18.629,18.629,0,0,0,9.647,3.528c-.65-2.69-9.648-8.148-11.493-9.9A4.286,4.286,0,0,1,78.657,415Z" transform="translate(-63.136 -276.529)" fill="#292551"/>
            </g>
            <g id="Grupo_58996" data-name="Grupo 58996" transform="translate(24.356 42.491)">
              <g id="Grupo_58995" data-name="Grupo 58995">
                <path id="Trazado_115278" data-name="Trazado 115278" d="M126.235,194.076c-1.777-7.752-1.368-14.18,1.172-22.055,1.961-6.08,4.7-11.238,2.028-15.653-6.653-10.977-3.7-17.622-15.643-17.5l-7.893,1.2c-9.442,3.583-15.488,5.626-15.463,14.362,0,0,5.693,18.025,5.7,18.04a20.591,20.591,0,0,1-2.569,16.116c-2.423,4.036-6.131,7.8-7.157,12.473,0,0,15.152,10.773,34.916,6.7,2.122-.7,7.042-1.054,8.6-2.264C129.221,203.093,126.8,196.551,126.235,194.076Z" transform="translate(-86.408 -138.864)" fill="#4fa3b1"/>
                <path id="Trazado_115279" data-name="Trazado 115279" d="M86.408,204.312s18.623-14.768,18.056-26.039c-.314-6.235-2.672-11.611-5.357-17.144-1.671-3.443-3.7-7.14-4.619-10.985-1.8,2.237-2.7,5.034-2.687,8.864,0,0,4.33,16.7,4.333,16.716a20.591,20.591,0,0,1-2.569,16.116C91.142,195.876,87.434,199.64,86.408,204.312Z" transform="translate(-86.408 -142.124)" fill="#4fa3b1" opacity="0.64" style="mix-blend-mode: multiply;isolation: isolate"/>
              </g>
            </g>
            <g id="Grupo_59003" data-name="Grupo 59003" transform="translate(38.733 5.483)">
              <g id="Grupo_58997" data-name="Grupo 58997" transform="translate(5.457 25.678)">
                <path id="Trazado_115280" data-name="Trazado 115280" d="M114.305,136.051s4.894,12.2,12.133,10.838c3.971-.953-1.986-12.074-1.986-12.074-.4-1.192-.341-8.092.651-10.353-1.229-1.894-8.66-2.282-10.8.265C115.271,128.429,114.305,136.051,114.305,136.051Z" transform="translate(-114.305 -122.928)" fill="#e0ae81"/>
                <path id="Trazado_115281" data-name="Trazado 115281" d="M117.4,128.711a16.274,16.274,0,0,0,5.171,2.387c.547.162,1.106.307,1.672.434a23.183,23.183,0,0,1,.858-7.071c-1.229-1.894-8.66-2.282-10.8.265.023.087.043.178.064.268A12.48,12.48,0,0,0,117.4,128.711Z" transform="translate(-114.305 -122.928)" fill="#ba906b"/>
              </g>
              <g id="Grupo_59002" data-name="Grupo 59002">
                <path id="Trazado_115282" data-name="Trazado 115282" d="M109.562,92.96c2.713-3.508,1.211-5.829,5.99-6.008.158-.006.325,0,.489,0s.33-.028.488-.034c4.777-.178,6.589-.5,9.71,2.7,4.038,4.127,2.955,12.521,3.081,15.2.36,7.622-1.18,12.236-6.381,12.732-2.884.518-6.5-.747-10.854-3.252-3.222-2.443-5.034-4.558-5.426-8.5C106.4,103.116,107.866,95.153,109.562,92.96Z" transform="translate(-106.629 -86.812)" fill="#f3bc8c"/>
                <g id="Grupo_59001" data-name="Grupo 59001" transform="translate(11.018 10.329)">
                  <path id="Trazado_115283" data-name="Trazado 115283" d="M127.524,108.279c0,.6-.317,1.081-.709,1.081s-.708-.484-.708-1.081.317-1.081.708-1.081S127.524,107.681,127.524,108.279Z" transform="translate(-123.277 -103.033)" fill="#1a1635"/>
                  <ellipse id="Elipse_4185" data-name="Elipse 4185" cx="0.708" cy="1.081" rx="0.708" ry="1.081" transform="translate(9.185 3.371)" fill="#1a1635"/>
                  <path id="Trazado_115284" data-name="Trazado 115284" d="M125.952,103.9c-.294.059-.6.079-.874.119a3.68,3.68,0,0,0-.817.171,4.029,4.029,0,0,0-.786.385c-.135.071-.25.178-.39.258s-.247.2-.389.3l-.04.026a.34.34,0,0,1-.491-.44,3.633,3.633,0,0,1,.67-.932,3.405,3.405,0,0,1,.994-.681,2.991,2.991,0,0,1,1.212-.251,1.866,1.866,0,0,1,1.173.427.343.343,0,0,1-.152.6Z" transform="translate(-122.127 -101.777)" fill="#1a1635"/>
                  <path id="Trazado_115285" data-name="Trazado 115285" d="M133.834,102.34a1.012,1.012,0,0,1,.569-.834,1.709,1.709,0,0,1,.946-.158,1.943,1.943,0,0,1,1.437.877.349.349,0,0,1-.109.481.345.345,0,0,1-.305.032l-.038-.014a2.952,2.952,0,0,0-1.056-.21,1.684,1.684,0,0,0-.407.061c-.121.026-.228.02-.44.076l-.147.038a.358.358,0,0,1-.438-.255A.365.365,0,0,1,133.834,102.34Z" transform="translate(-125.51 -101.339)" fill="#1a1635"/>
                  <g id="Grupo_58998" data-name="Grupo 58998" transform="translate(7.606 6.181)">
                    <path id="Trazado_115286" data-name="Trazado 115286" d="M133.645,114.308c-.06,0-.121,0-.18-.008l.06-.677a2,2,0,0,0,1.548-.643.949.949,0,0,0,.253-.638,3.4,3.4,0,0,1-2.5-2.149l.66-.16a2.767,2.767,0,0,0,2.192,1.685l.225.033.055.22a1.6,1.6,0,0,1-.368,1.45A2.681,2.681,0,0,1,133.645,114.308Z" transform="translate(-132.825 -110.033)" fill="#d99356"/>
                  </g>
                  <g id="Grupo_58999" data-name="Grupo 58999" transform="translate(1.23 10.581)">
                    <path id="Trazado_115287" data-name="Trazado 115287" d="M124.333,118.724l-.476-.482a1.481,1.481,0,0,1,.341-.234,6.131,6.131,0,0,0,.892-.611,4.87,4.87,0,0,0,.632-.8c.093-.135.182-.264.27-.379l.538.415c-.08.105-.162.224-.247.348a5.541,5.541,0,0,1-.724.9,6.521,6.521,0,0,1-1.01.7C124.446,118.651,124.367,118.7,124.333,118.724Z" transform="translate(-123.857 -116.222)" fill="#d99356"/>
                  </g>
                  <g id="Grupo_59000" data-name="Grupo 59000" transform="translate(2.523 11.39)">
                    <path id="Trazado_115288" data-name="Trazado 115288" d="M130.508,119.4a16.833,16.833,0,0,1-4.461-.846l-.372-.107.186-.653.374.107c2.3.665,5.78,1.666,7.29-.538l.56.383A4.043,4.043,0,0,1,130.508,119.4Z" transform="translate(-125.675 -117.359)" fill="#d99356"/>
                  </g>
                </g>
              </g>
            </g>
            <g id="Grupo_59008" data-name="Grupo 59008" transform="translate(32.334)">
              <path id="Trazado_115289" data-name="Trazado 115289" d="M108.57,84.983c-.2.83,2.036,2.468,2.621,3.022,1.44,1.361,4.18,2.842,5.51,2.889,3.821.133,5.159-.432,7.643-.533,2.941-.122,5.273.43,5.238,3.628,1.166-2.85,1.4-7.743-.6-10.333-3.231-4.177-12.141-5.826-16.8-3.489A7.268,7.268,0,0,0,108.57,84.983Z" transform="translate(-100.788 -79.099)" fill="#1a1635"/>
              <path id="Trazado_115290" data-name="Trazado 115290" d="M105.1,103.334a7.717,7.717,0,0,0,4.167-5.2c.3-1.586,1.151-4.683.718-6.234-.6-2.139-3.266-2.733-4.051-4.885-1.745-1.047-3.753.8-4.917,1.962A11.436,11.436,0,0,0,97.8,95.917c-.45,4-.135,8.882,2.531,11.944.935,1.074,3.862,3.42,6.126,3.658C106.173,111.576,102.671,102.394,105.1,103.334Z" transform="translate(-97.629 -81.296)" fill="#1a1635"/>
              <g id="Grupo_59006" data-name="Grupo 59006" transform="translate(4.051 21.497)">
                <g id="Grupo_59004" data-name="Grupo 59004">
                  <path id="Trazado_115291" data-name="Trazado 115291" d="M107.383,109.79a2.985,2.985,0,0,0-1.441-.455c-1.248,0-2.615.572-2.615,2.237a3.568,3.568,0,0,0,3.066,3.5,2.028,2.028,0,0,0,1.517-.2A35.24,35.24,0,0,0,107.383,109.79Z" transform="translate(-103.327 -109.335)" fill="#f3bc8c"/>
                </g>
                <g id="Grupo_59005" data-name="Grupo 59005" transform="translate(1.129 1.26)">
                  <path id="Trazado_115292" data-name="Trazado 115292" d="M106.536,111.121a1,1,0,0,0-.129-.014c-.712,0-1.492.326-1.492,1.277a2.036,2.036,0,0,0,1.75,2c.04.009.089.014.135.019C105.962,112.386,105.962,112.253,106.536,111.121Z" transform="translate(-104.915 -111.107)" fill="#ba906b"/>
                </g>
              </g>
              <path id="Trazado_115293" data-name="Trazado 115293" d="M113.071,94.366c2.689,7.012-4.8,17.481-4.8,17.481l-.027-8.38Z" transform="translate(-100.696 -83.512)" fill="#1a1635"/>
              <g id="Grupo_59007" data-name="Grupo 59007" transform="translate(5.187 1.648)">
                <path id="Trazado_115294" data-name="Trazado 115294" d="M110.562,93.133a8.655,8.655,0,0,1-.581,5.874c-.229.474-.573.976-1.095,1.041-.663.082-1.188-.616-1.265-1.28a14.519,14.519,0,0,1,.148-1.994,1.588,1.588,0,0,0-.9-1.631c-.631-.19-1.485.21-1.881-.316-.274-.365.417-1.395.517-1.84.331-1.463-1.148-3.546,1.185-4.088C108.671,88.438,110.138,91.491,110.562,93.133Z" transform="translate(-104.924 -83.565)" fill="#322a66" opacity="0.59"/>
                <path id="Trazado_115295" data-name="Trazado 115295" d="M117.6,88.976a12.118,12.118,0,0,0,4.919.244c1.642-.194,3.266-.538,4.916-.656.533-.038,1.2-.149,1.33-.638.117-.442-.32-.83-.722-1.082-1.986-1.249-5.286-1.695-7.894-1.79a.425.425,0,0,1-.314-.72c.989-1.013,1.772-2.027-.032-2.609a6.172,6.172,0,0,0-4.817.391,3.091,3.091,0,0,0-.936,3.829A5.655,5.655,0,0,0,117.6,88.976Z" transform="translate(-107.479 -81.417)" fill="#322a66" opacity="0.59"/>
              </g>
            </g>
            <path id="Trazado_115296" data-name="Trazado 115296" d="M77.549,156.269c-2,3.267-12.99,28.651-13.721,33.067-.331,2-2.453,19.614-5.3,33.163-.153.324-.321.648-.509.965a38.39,38.39,0,0,0-4.129,9.023c-1.211,3.573-2.551,9.757-1.129,11.491.837,1.02,1.992-7.335,2.082-8-.1.711-1.353,10.276.273,11.774.863.8,1.814-7.377,2.054-9.592-.232,2.3-1.009,11.112.612,12.347C59.16,251.557,59.964,238,59.964,238s.4,12.667,1.876,12.33.014-14.277,2.122-14.757c1.186-.27,1.354,3.892,3.209,4.869,1.682.885.2-.764-.156-5.04s-1.342-4.4-2.151-7.954a11.557,11.557,0,0,1-.236-3.339c3.291-12.3,6.891-29.009,7.022-29.323,2.675-6.452,17.9-26.066,17.9-26.066C93.259,156.363,87.4,141.214,77.549,156.269Z" transform="translate(-52.151 -99.587)" fill="#f3bc8c" fill-rule="evenodd"/>
            <path id="Trazado_115297" data-name="Trazado 115297" d="M122.581,123.237c3.015,1.307,6.946.981,8.7-1.653a12.605,12.605,0,0,0,1.88-8.476c-.248-1.362-1.333-1.541-2.847-3.042a1.761,1.761,0,0,0-1.525-.346,5.394,5.394,0,0,0-1.886,1.13,12.092,12.092,0,0,1-4.23,1.266,5.539,5.539,0,0,0-2.931,1.477c-1.106,1.213-1.3,4.088-.978,5.5A6.226,6.226,0,0,0,122.581,123.237Z" transform="translate(-71.364 -87.938)" fill="#fff"/>
            <path id="Trazado_115298" data-name="Trazado 115298" d="M136.094,113.132c-.248-1.362-1.333-1.541-2.847-3.042a1.308,1.308,0,0,0-.629-.323c.209,5.049-.24,11.1-3.857,14.228a6.068,6.068,0,0,0,5.453-2.387A12.605,12.605,0,0,0,136.094,113.132Z" transform="translate(-74.293 -87.963)" fill="#c7c7c7" opacity="0.64" style="mix-blend-mode: multiply;isolation: isolate"/>
            <g id="Grupo_59009" data-name="Grupo 59009" transform="translate(39.406 21.551)">
              <path id="Trazado_115299" data-name="Trazado 115299" d="M116.455,113.909a42.744,42.744,0,0,1-8.879-4.483h0a2.565,2.565,0,0,1,1.639.38,36.726,36.726,0,0,0,7.482,3.434Z" transform="translate(-107.576 -109.411)" fill="#fff"/>
            </g>
            <g id="Grupo_59010" data-name="Grupo 59010" transform="translate(39.02 27.154)">
              <path id="Trazado_115300" data-name="Trazado 115300" d="M116.1,123.167a19.777,19.777,0,0,1-9.069-5.876h0a2.283,2.283,0,0,1,1.606.683,16.351,16.351,0,0,0,7.637,4.5Z" transform="translate(-107.033 -117.292)" fill="#fff"/>
            </g>
            <g id="Grupo_59011" data-name="Grupo 59011" transform="translate(39.428 8.635)">
              <path id="Trazado_115301" data-name="Trazado 115301" d="M108.063,119.314c-1-2.195-.126-4.569.487-5.788a23.9,23.9,0,0,1,1.81-2.883c.434-.624.884-1.268,1.278-1.925a17,17,0,0,0-.03-17.105l.609-.368a17.724,17.724,0,0,1,.031,17.838c-.406.678-.862,1.333-1.3,1.967a23.334,23.334,0,0,0-1.758,2.8,6.1,6.1,0,0,0-.476,5.173Z" transform="translate(-107.607 -91.245)" fill="#1a1635"/>
            </g>
          </g>
          <g id="Grupo_59018" data-name="Grupo 59018" transform="translate(109.613 25.338)">
            <g id="Grupo_59013" data-name="Grupo 59013" transform="translate(0 2.751)">
              <path id="Trazado_115302" data-name="Trazado 115302" d="M190.09,128.132a.845.845,0,0,1-.91-.831s-.156-7.4-.1-8.168c.06-.847.7-.527.709-.055l1.075,8.094a.845.845,0,0,1-.772.961Z" transform="translate(-189.067 -118.606)" fill="#fff"/>
            </g>
            <g id="Grupo_59014" data-name="Grupo 59014" transform="translate(8.41)">
              <path id="Trazado_115303" data-name="Trazado 115303" d="M201.5,123.905a.844.844,0,0,1-.557-1.1s2.472-6.979,2.794-7.676c.356-.77.842-.245.682.2l-1.857,7.95a.845.845,0,0,1-1.062.625Z" transform="translate(-200.896 -114.737)" fill="#fff"/>
            </g>
            <g id="Grupo_59015" data-name="Grupo 59015" transform="translate(14.72 4.949)">
              <path id="Trazado_115304" data-name="Trazado 115304" d="M210.08,129.123a.845.845,0,0,1-.083-1.229s5-5.46,5.57-5.976c.628-.57.871.1.55.451l-4.815,6.594a.845.845,0,0,1-1.222.161Z" transform="translate(-209.771 -121.698)" fill="#fff"/>
            </g>
            <g id="Grupo_59016" data-name="Grupo 59016" transform="translate(17.777 13.447)">
              <path id="Trazado_115305" data-name="Trazado 115305" d="M214.181,138.481a.845.845,0,0,1,.364-1.177s6.628-3.3,7.344-3.578c.791-.307.776.41.351.618l-6.861,4.426a.845.845,0,0,1-1.2-.289Z" transform="translate(-214.07 -133.651)" fill="#fff"/>
            </g>
            <g id="Grupo_59017" data-name="Grupo 59017" transform="translate(16.668 24.506)">
              <path id="Trazado_115306" data-name="Trazado 115306" d="M212.515,150.363a.846.846,0,0,1,.818-.923s7.4-.274,8.165-.231c.847.047.538.693.066.708l-8.075,1.2a.845.845,0,0,1-.973-.757Z" transform="translate(-212.511 -149.205)" fill="#fff"/>
            </g>
          </g>
        </g>
      </g>
      <path id="Trazado_115307" data-name="Trazado 115307" d="M284.974,65.052l-7.047-10.635v7.009H185.359V54.417l-7.047,10.635,7.047,10.635V69.161h92.568v6.526Z" transform="translate(-71.626 -30.144)" fill="#fff"/>
      <g id="Grupo_59021" data-name="Grupo 59021">
        <path id="Trazado_115308" data-name="Trazado 115308" d="M38.08,104.272a.428.428,0,0,0-.385.421v0l-.735-.071c.011-.118.018-.237.018-.358a3.586,3.586,0,0,0-.034-.474c0-.013,0-.026-.006-.038a3.65,3.65,0,0,0-.3-1.024l.67-.314a.487.487,0,0,0,.1.122.465.465,0,0,0,.117.087.342.342,0,0,0,.27.024.4.4,0,0,0,.151-.577,5.227,5.227,0,0,0-.4-.693c-.163-.22-.421-.291-.576-.156a.329.329,0,0,0-.066.092h0a.45.45,0,0,0,.043.477l0,0-.605.416a3.659,3.659,0,0,0-1.467-1.246l.31-.664a.493.493,0,0,0,.3.018.331.331,0,0,0,.221-.153.321.321,0,0,0,.006-.294.55.55,0,0,0-.262-.246,3.424,3.424,0,0,0-.37-.151,3.119,3.119,0,0,0-.38-.122.555.555,0,0,0-.358.019.325.325,0,0,0-.184.23.338.338,0,0,0,.081.273.486.486,0,0,0,.267.178h0l-.2.7a3.571,3.571,0,0,0-1.927-.014l-.188-.7a.5.5,0,0,0,.242-.179.334.334,0,0,0,.072-.259.325.325,0,0,0-.184-.23.555.555,0,0,0-.358-.019,3.169,3.169,0,0,0-.381.122,3.472,3.472,0,0,0-.37.151.55.55,0,0,0-.262.246.321.321,0,0,0,.006.294.342.342,0,0,0,.237.158.488.488,0,0,0,.319-.036l0,0,.3.657a3.652,3.652,0,0,0-1.487,1.231l-.592-.414a.425.425,0,0,0-.043-.538c-.155-.135-.413-.063-.575.156a5.312,5.312,0,0,0-.4.693.4.4,0,0,0,.151.577.44.44,0,0,0,.5-.264l0,0,.648.311a3.63,3.63,0,0,0-.361,1.575c0,.11.006.218.016.325l-.72.063a.421.421,0,0,0-.379-.384c-.2,0-.355.218-.339.49a5.276,5.276,0,0,0,.141.786.4.4,0,0,0,.487.346.439.439,0,0,0,.217-.527v0l.7-.178a3.635,3.635,0,0,0,.957,1.674l-.515.515a.417.417,0,0,0-.535-.053.41.41,0,0,0,.055.594l.3.268c.1.087.21.163.316.243a.491.491,0,0,0,.346.1.312.312,0,0,0,.249-.149.353.353,0,0,0,.021-.288.565.565,0,0,0-.193-.255l0,0,.423-.589a3.623,3.623,0,0,0,1.807.662l-.063.732a.423.423,0,0,0-.443.3.312.312,0,0,0,.1.274.494.494,0,0,0,.328.145l.4.018.4-.018a.5.5,0,0,0,.328-.145.312.312,0,0,0,.1-.274.35.35,0,0,0-.169-.234.561.561,0,0,0-.311-.071h0l-.056-.731a3.628,3.628,0,0,0,1.808-.651l.425.606a.544.544,0,0,0-.168.247.344.344,0,0,0,.025.272.312.312,0,0,0,.249.149.491.491,0,0,0,.346-.1c.106-.08.215-.156.316-.243l.3-.268a.41.41,0,0,0,.055-.594.429.429,0,0,0-.564.075l0,0-.517-.527a3.637,3.637,0,0,0,.966-1.659l.717.191a.431.431,0,0,0,.223.49.4.4,0,0,0,.487-.346,5.368,5.368,0,0,0,.141-.786C38.436,104.49,38.28,104.269,38.08,104.272Z" transform="translate(-28.255 -43.126)" fill="url(#linear-gradient-6)"/>
        <path id="Trazado_115309" data-name="Trazado 115309" d="M462.823,117.665a.428.428,0,0,0-.385.42v0l-.735-.071c.011-.118.018-.237.018-.358a3.6,3.6,0,0,0-.034-.474c0-.013,0-.026-.006-.038a3.68,3.68,0,0,0-.3-1.024l.669-.313a.5.5,0,0,0,.1.122.47.47,0,0,0,.117.086.334.334,0,0,0,.269.024.4.4,0,0,0,.151-.577,5.243,5.243,0,0,0-.4-.692c-.162-.22-.42-.291-.575-.157a.312.312,0,0,0-.066.092h0a.45.45,0,0,0,.043.477l0,0-.605.415a3.665,3.665,0,0,0-1.467-1.246l.31-.664a.488.488,0,0,0,.3.018.33.33,0,0,0,.221-.152.322.322,0,0,0,.006-.294.545.545,0,0,0-.262-.245,3.158,3.158,0,0,0-.37-.151,3.117,3.117,0,0,0-.38-.122.546.546,0,0,0-.358.019.324.324,0,0,0-.184.23.337.337,0,0,0,.081.272.489.489,0,0,0,.267.178h0l-.195.7a3.564,3.564,0,0,0-1.928-.013l-.188-.7a.5.5,0,0,0,.242-.179.334.334,0,0,0,.071-.259.324.324,0,0,0-.184-.23.546.546,0,0,0-.358-.019,3.116,3.116,0,0,0-.38.122,3.158,3.158,0,0,0-.37.151.545.545,0,0,0-.262.245.322.322,0,0,0,.006.294.341.341,0,0,0,.238.157.488.488,0,0,0,.319-.036l0,0,.3.656a3.664,3.664,0,0,0-1.487,1.232l-.592-.414a.426.426,0,0,0-.042-.537c-.155-.134-.414-.063-.576.157a5.174,5.174,0,0,0-.4.692.4.4,0,0,0,.151.577.439.439,0,0,0,.5-.264l0,0,.648.31a3.634,3.634,0,0,0-.361,1.576c0,.109.007.218.016.324l-.72.063a.422.422,0,0,0-.38-.384c-.2,0-.355.217-.339.489a5.384,5.384,0,0,0,.141.786.4.4,0,0,0,.487.345.438.438,0,0,0,.217-.526v0l.7-.179a3.642,3.642,0,0,0,.957,1.674l-.514.515a.417.417,0,0,0-.535-.053.41.41,0,0,0,.055.594l.3.269c.1.086.21.163.316.242a.493.493,0,0,0,.346.1.311.311,0,0,0,.249-.149.351.351,0,0,0,.021-.288.562.562,0,0,0-.192-.255l0,0,.423-.59a3.624,3.624,0,0,0,1.807.663l-.063.732a.422.422,0,0,0-.443.3.311.311,0,0,0,.1.274.492.492,0,0,0,.328.145l.4.019.4-.019a.491.491,0,0,0,.329-.145.311.311,0,0,0,.1-.274.349.349,0,0,0-.169-.233.554.554,0,0,0-.311-.072h0l-.056-.73a3.629,3.629,0,0,0,1.808-.652l.425.606a.552.552,0,0,0-.168.246.344.344,0,0,0,.025.272.312.312,0,0,0,.249.149.492.492,0,0,0,.346-.1c.106-.08.215-.156.316-.242l.3-.269a.41.41,0,0,0,.055-.594.43.43,0,0,0-.565.075l0,0-.516-.527a3.645,3.645,0,0,0,.965-1.66l.717.191a.431.431,0,0,0,.223.49.4.4,0,0,0,.487-.345,5.276,5.276,0,0,0,.141-.786C463.179,117.882,463.023,117.661,462.823,117.665Z" transform="translate(-151.017 -46.997)" fill="url(#linear-gradient-7)"/>
        <path id="Trazado_115310" data-name="Trazado 115310" d="M371.815,25.214a.427.427,0,0,0-.385.42v0l-.735-.071c.011-.118.018-.237.018-.358a3.584,3.584,0,0,0-.034-.474l-.006-.038a3.674,3.674,0,0,0-.3-1.024l.669-.314a.487.487,0,0,0,.1.122.469.469,0,0,0,.117.087.341.341,0,0,0,.269.024.405.405,0,0,0,.151-.578,5.3,5.3,0,0,0-.4-.692c-.162-.22-.42-.292-.575-.156a.3.3,0,0,0-.066.092h0a.451.451,0,0,0,.043.477l0,0-.605.416a3.659,3.659,0,0,0-1.467-1.246l.31-.665a.488.488,0,0,0,.3.018.331.331,0,0,0,.221-.153.321.321,0,0,0,.006-.294.547.547,0,0,0-.262-.246,3.277,3.277,0,0,0-.37-.151,3.167,3.167,0,0,0-.381-.122.556.556,0,0,0-.358.019.325.325,0,0,0-.184.23.34.34,0,0,0,.081.273.492.492,0,0,0,.267.178h.005l-.195.7a3.573,3.573,0,0,0-1.928-.014l-.188-.7a.5.5,0,0,0,.242-.18.331.331,0,0,0,.071-.259.325.325,0,0,0-.184-.23.555.555,0,0,0-.358-.019,3.117,3.117,0,0,0-.38.122,3.287,3.287,0,0,0-.37.151.55.55,0,0,0-.262.246.319.319,0,0,0,.007.294.338.338,0,0,0,.237.157.477.477,0,0,0,.319-.036l0,0,.3.657a3.657,3.657,0,0,0-1.487,1.231l-.592-.414a.426.426,0,0,0-.042-.537c-.155-.135-.413-.063-.576.156a5.218,5.218,0,0,0-.4.692.4.4,0,0,0,.151.578.44.44,0,0,0,.5-.264l0,0,.648.311a3.63,3.63,0,0,0-.361,1.575c0,.109.007.218.016.325l-.72.063a.421.421,0,0,0-.38-.383c-.2,0-.355.216-.338.489a5.269,5.269,0,0,0,.141.786.4.4,0,0,0,.487.346.439.439,0,0,0,.217-.527v0l.7-.178a3.644,3.644,0,0,0,.957,1.674l-.514.515a.417.417,0,0,0-.535-.053.41.41,0,0,0,.055.594l.3.268c.1.086.21.163.316.243a.492.492,0,0,0,.346.1.315.315,0,0,0,.25-.149.353.353,0,0,0,.02-.288.56.56,0,0,0-.192-.255l0,0,.423-.59a3.617,3.617,0,0,0,1.807.663l-.063.732a.423.423,0,0,0-.443.3.311.311,0,0,0,.1.274.493.493,0,0,0,.328.146l.4.018.4-.018a.491.491,0,0,0,.328-.146.311.311,0,0,0,.1-.274.35.35,0,0,0-.169-.233.565.565,0,0,0-.311-.072h0l-.056-.731a3.628,3.628,0,0,0,1.808-.651l.425.606a.549.549,0,0,0-.168.247.344.344,0,0,0,.024.272.313.313,0,0,0,.25.149.491.491,0,0,0,.345-.1c.106-.08.215-.157.316-.243l.3-.268a.41.41,0,0,0,.055-.594.429.429,0,0,0-.565.075l0,0-.516-.527a3.642,3.642,0,0,0,.965-1.659l.717.191a.432.432,0,0,0,.223.49.4.4,0,0,0,.487-.346,5.286,5.286,0,0,0,.142-.786C372.171,25.43,372.015,25.21,371.815,25.214Z" transform="translate(-124.713 -20.276)" fill="url(#linear-gradient-8)"/>
        <path id="Trazado_115311" data-name="Trazado 115311" d="M91.034,40.523a.7.7,0,0,0-.627.686v.008l-1.2-.116c.019-.192.03-.387.03-.584a5.9,5.9,0,0,0-.056-.774c0-.021-.007-.042-.011-.063a5.961,5.961,0,0,0-.492-1.672l1.092-.511a.819.819,0,0,0,.161.2.785.785,0,0,0,.191.141.551.551,0,0,0,.44.039.659.659,0,0,0,.247-.943,8.5,8.5,0,0,0-.648-1.13c-.265-.359-.687-.476-.94-.256a.526.526,0,0,0-.107.149h0a.735.735,0,0,0,.07.779l0,.006-.988.678a5.977,5.977,0,0,0-2.394-2.034l.5-1.084a.8.8,0,0,0,.491.029.542.542,0,0,0,.36-.249.525.525,0,0,0,.011-.48.9.9,0,0,0-.427-.4,5.433,5.433,0,0,0-.6-.246,5.14,5.14,0,0,0-.621-.2.9.9,0,0,0-.585.032.527.527,0,0,0-.3.375.553.553,0,0,0,.132.445.8.8,0,0,0,.437.291l.008,0-.319,1.144a5.827,5.827,0,0,0-3.146-.022l-.306-1.144a.821.821,0,0,0,.395-.293.541.541,0,0,0,.117-.423.527.527,0,0,0-.3-.375.9.9,0,0,0-.585-.032,5.179,5.179,0,0,0-.621.2,5.432,5.432,0,0,0-.6.246.9.9,0,0,0-.427.4.525.525,0,0,0,.011.48.555.555,0,0,0,.387.257.79.79,0,0,0,.52-.058l.007,0,.488,1.071A5.975,5.975,0,0,0,78.4,37.1l-.965-.676a.7.7,0,0,0-.069-.877c-.253-.22-.675-.1-.94.256a8.5,8.5,0,0,0-.648,1.13.66.66,0,0,0,.247.943.716.716,0,0,0,.823-.431l0-.007,1.057.507a5.922,5.922,0,0,0-.589,2.571c0,.178.011.355.027.53l-1.175.1a.687.687,0,0,0-.619-.626c-.326-.006-.581.354-.553.8a8.549,8.549,0,0,0,.23,1.283.66.66,0,0,0,.795.564.718.718,0,0,0,.354-.86l0-.008,1.139-.291a5.939,5.939,0,0,0,1.563,2.733l-.84.841a.68.68,0,0,0-.872-.086.669.669,0,0,0,.09.969l.481.438c.166.141.344.265.517.4a.8.8,0,0,0,.564.164.507.507,0,0,0,.407-.243.573.573,0,0,0,.033-.47.909.909,0,0,0-.314-.416l-.006,0,.69-.963a5.909,5.909,0,0,0,2.95,1.081l-.1,1.2a.69.69,0,0,0-.723.5.507.507,0,0,0,.156.447.8.8,0,0,0,.536.237l.65.031.65-.031a.8.8,0,0,0,.536-.237.507.507,0,0,0,.156-.447.576.576,0,0,0-.277-.382.911.911,0,0,0-.507-.116h-.009l-.091-1.192A5.922,5.922,0,0,0,86.7,45.387l.695.989a.9.9,0,0,0-.275.4.564.564,0,0,0,.04.443.508.508,0,0,0,.407.243.8.8,0,0,0,.563-.164c.173-.132.351-.256.517-.4l.481-.438a.669.669,0,0,0,.09-.969.7.7,0,0,0-.921.123l-.006,0-.843-.86a5.943,5.943,0,0,0,1.576-2.709l1.17.312a.7.7,0,0,0,.364.8.659.659,0,0,0,.795-.564,8.639,8.639,0,0,0,.231-1.283C91.615,40.877,91.36,40.517,91.034,40.523Z" transform="translate(-41.765 -23.799)" fill="url(#linear-gradient-9)"/>
        <path id="Trazado_115312" data-name="Trazado 115312" d="M463.7,39.19a.7.7,0,0,0-.628.686v.008l-1.2-.116c.019-.193.03-.387.03-.584a5.9,5.9,0,0,0-.056-.774c0-.021-.008-.041-.011-.062a5.964,5.964,0,0,0-.493-1.672l1.093-.511a.817.817,0,0,0,.161.2.8.8,0,0,0,.191.141.555.555,0,0,0,.44.039.66.66,0,0,0,.247-.943,8.516,8.516,0,0,0-.648-1.13c-.265-.359-.686-.476-.939-.255a.515.515,0,0,0-.108.149h0a.735.735,0,0,0,.07.779l0,.006-.988.678a5.973,5.973,0,0,0-2.395-2.033l.505-1.084a.805.805,0,0,0,.491.029.542.542,0,0,0,.361-.249.526.526,0,0,0,.011-.481.9.9,0,0,0-.427-.4,5.3,5.3,0,0,0-.6-.246,5.055,5.055,0,0,0-.621-.2.9.9,0,0,0-.585.031.53.53,0,0,0-.3.376.551.551,0,0,0,.132.445.8.8,0,0,0,.436.291l.008,0-.319,1.144a5.808,5.808,0,0,0-3.146-.022l-.306-1.145a.811.811,0,0,0,.4-.293.538.538,0,0,0,.116-.422.528.528,0,0,0-.3-.376.9.9,0,0,0-.584-.031,4.984,4.984,0,0,0-.621.2,5.2,5.2,0,0,0-.6.246.9.9,0,0,0-.427.4.526.526,0,0,0,.011.481.556.556,0,0,0,.388.257.8.8,0,0,0,.52-.058l.007,0,.487,1.071a5.984,5.984,0,0,0-2.427,2.011l-.965-.676a.694.694,0,0,0-.07-.877c-.252-.22-.674-.1-.939.255a8.437,8.437,0,0,0-.648,1.13.66.66,0,0,0,.247.943.717.717,0,0,0,.823-.431l0-.007,1.057.507a5.919,5.919,0,0,0-.589,2.57c0,.179.011.355.026.53l-1.175.1a.687.687,0,0,0-.619-.626c-.326-.006-.58.354-.553.8a8.627,8.627,0,0,0,.231,1.283.659.659,0,0,0,.795.564.718.718,0,0,0,.353-.86v-.008l1.138-.292a5.951,5.951,0,0,0,1.563,2.734l-.84.841a.681.681,0,0,0-.873-.086.67.67,0,0,0,.09.969l.482.438c.165.14.343.265.517.4a.8.8,0,0,0,.563.164.51.51,0,0,0,.407-.243.578.578,0,0,0,.033-.47.914.914,0,0,0-.314-.416l-.006,0,.69-.963a5.922,5.922,0,0,0,2.949,1.081l-.1,1.2a.69.69,0,0,0-.724.5.509.509,0,0,0,.156.448.8.8,0,0,0,.537.237l.65.031.649-.031a.8.8,0,0,0,.537-.237.507.507,0,0,0,.156-.448.576.576,0,0,0-.277-.381.914.914,0,0,0-.507-.117h-.008l-.091-1.193a5.912,5.912,0,0,0,2.95-1.063l.695.989a.89.89,0,0,0-.274.4.561.561,0,0,0,.04.443.508.508,0,0,0,.407.243.8.8,0,0,0,.564-.164c.173-.131.351-.256.516-.4l.482-.438a.67.67,0,0,0,.09-.969.7.7,0,0,0-.921.123l-.006,0-.843-.86a5.943,5.943,0,0,0,1.576-2.709l1.17.312a.7.7,0,0,0,.363.8.659.659,0,0,0,.795-.564,8.639,8.639,0,0,0,.231-1.283C464.281,39.544,464.026,39.184,463.7,39.19Z" transform="translate(-149.475 -23.414)" fill="url(#linear-gradient-10)"/>
      </g>
    </g>
  </g>
</svg>
