<svg xmlns="http://www.w3.org/2000/svg" xmlns:xlink="http://www.w3.org/1999/xlink" width="590.96" height="198.188" viewBox="0 0 590.96 198.188">
  <defs>
    <radialGradient id="radial-gradient" cx="0.5" cy="0.5" r="0.5" gradientUnits="objectBoundingBox">
      <stop offset="0" stop-opacity="0.749"/>
      <stop offset="1" stop-opacity="0"/>
    </radialGradient>
  </defs>
  <g id="Grupo_59888" data-name="Grupo 59888" transform="translate(-777.04 -10791.813)">
    <g id="Grupo_59887" data-name="Grupo 59887">
      <ellipse id="Elipse_4194" data-name="Elipse 4194" cx="33" cy="6" rx="33" ry="6" transform="translate(782 10978)" fill="url(#radial-gradient)"/>
      <ellipse id="Elipse_4195" data-name="Elipse 4195" cx="34" cy="5.5" rx="34" ry="5.5" transform="translate(884 10973)" fill="url(#radial-gradient)"/>
      <ellipse id="Elipse_4200" data-name="Elipse 4200" cx="34" cy="5.5" rx="34" ry="5.5" transform="translate(836 10944)" fill="url(#radial-gradient)"/>
      <ellipse id="Elipse_4201" data-name="Elipse 4201" cx="44" cy="5.5" rx="44" ry="5.5" transform="translate(913 10941)" fill="url(#radial-gradient)"/>
      <ellipse id="Elipse_4202" data-name="Elipse 4202" cx="39.5" cy="5.5" rx="39.5" ry="5.5" transform="translate(964 10941)" fill="url(#radial-gradient)"/>
      <ellipse id="Elipse_4196" data-name="Elipse 4196" cx="41.5" cy="7" rx="41.5" ry="7" transform="translate(1018 10970)" fill="url(#radial-gradient)"/>
      <ellipse id="Elipse_4197" data-name="Elipse 4197" cx="27" cy="3.5" rx="27" ry="3.5" transform="translate(1251 10974)" fill="url(#radial-gradient)"/>
      <ellipse id="Elipse_4198" data-name="Elipse 4198" cx="48" cy="6.5" rx="48" ry="6.5" transform="translate(1272 10959)" fill="url(#radial-gradient)"/>
      <ellipse id="Elipse_4199" data-name="Elipse 4199" cx="129.5" cy="6.5" rx="129.5" ry="6.5" transform="translate(1049 10940)" fill="url(#radial-gradient)"/>
    </g>
    <g id="Grupo_59876" data-name="Grupo 59876" transform="translate(389.327 9349.71)">
      <g id="Grupo_59808" data-name="Grupo 59808" transform="translate(517.845 1470.841)">
        <g id="Grupo_59798" data-name="Grupo 59798" transform="translate(2.167 4.435)">
          <rect id="Rectángulo_6219" data-name="Rectángulo 6219" width="81.109" height="113.999" fill="#fce144"/>
          <rect id="Rectángulo_6220" data-name="Rectángulo 6220" width="12.233" height="113.999" transform="translate(4.333)" fill="#fce144" style="mix-blend-mode: screen;isolation: isolate"/>
          <rect id="Rectángulo_6221" data-name="Rectángulo 6221" width="19.977" height="113.999" transform="translate(54.794)" fill="#fce144" opacity="0.5" style="mix-blend-mode: multiply;isolation: isolate"/>
          <rect id="Rectángulo_6222" data-name="Rectángulo 6222" width="12.233" height="113.999" transform="translate(62.538)" fill="#fce144" opacity="0.5" style="mix-blend-mode: multiply;isolation: isolate"/>
        </g>
        <g id="Grupo_59799" data-name="Grupo 59799" transform="translate(0 31.398)">
          <rect id="Rectángulo_6223" data-name="Rectángulo 6223" width="81.109" height="0.535" transform="translate(2.167 4.333)" fill="#fce144" style="mix-blend-mode: multiply;isolation: isolate"/>
          <rect id="Rectángulo_6224" data-name="Rectángulo 6224" width="81.109" height="0.535" transform="translate(2.167 4.333)" fill="#fce144" style="mix-blend-mode: multiply;isolation: isolate"/>
          <path id="Trazado_116428" data-name="Trazado 116428" d="M1087.6,1644.588a2.167,2.167,0,0,0-2.167-2.167h-81.109a2.167,2.167,0,0,0-2.167,2.167h0a2.167,2.167,0,0,0,2.167,2.167h81.109a2.167,2.167,0,0,0,2.167-2.167Z" transform="translate(-1002.16 -1642.421)" fill="#fce144"/>
          <path id="Trazado_116429" data-name="Trazado 116429" d="M1085.435,1642.421h-81.109a2.167,2.167,0,0,0-2.167,2.167H1087.6A2.167,2.167,0,0,0,1085.435,1642.421Z" transform="translate(-1002.16 -1642.421)" fill="#fce144" style="mix-blend-mode: screen;isolation: isolate"/>
        </g>
        <g id="Grupo_59800" data-name="Grupo 59800" transform="translate(0 90.44)">
          <rect id="Rectángulo_6225" data-name="Rectángulo 6225" width="81.109" height="0.535" transform="translate(2.167 4.333)" fill="#fce144" style="mix-blend-mode: multiply;isolation: isolate"/>
          <rect id="Rectángulo_6226" data-name="Rectángulo 6226" width="81.109" height="0.535" transform="translate(2.167 4.333)" fill="#fce144" style="mix-blend-mode: multiply;isolation: isolate"/>
          <path id="Trazado_116430" data-name="Trazado 116430" d="M1087.6,1841.26a2.166,2.166,0,0,0-2.167-2.167h-81.109a2.167,2.167,0,0,0-2.167,2.167h0a2.167,2.167,0,0,0,2.167,2.167h81.109a2.167,2.167,0,0,0,2.167-2.167Z" transform="translate(-1002.16 -1839.093)" fill="#fce144"/>
          <path id="Trazado_116431" data-name="Trazado 116431" d="M1085.435,1839.093h-81.109a2.167,2.167,0,0,0-2.167,2.167H1087.6A2.166,2.166,0,0,0,1085.435,1839.093Z" transform="translate(-1002.16 -1839.093)" fill="#fce144" style="mix-blend-mode: screen;isolation: isolate"/>
        </g>
        <g id="Grupo_59801" data-name="Grupo 59801" transform="translate(0 118.434)">
          <path id="Trazado_116432" data-name="Trazado 116432" d="M1087.6,1935.642c0-1.823-.97-3.3-2.167-3.3h-81.109c-1.2,0-2.167,1.478-2.167,3.3h0c0,1.823.97,3.3,2.167,3.3h81.109c1.2,0,2.167-1.478,2.167-3.3Z" transform="translate(-1002.16 -1932.341)" fill="#fce144"/>
          <path id="Trazado_116433" data-name="Trazado 116433" d="M1033.55,1935.642c0-1.823-.97-3.3-2.167-3.3h-12.233c-1.2,0-2.167,1.478-2.167,3.3h0c0,1.823.97,3.3,2.167,3.3h12.233c1.2,0,2.167-1.478,2.167-3.3Z" transform="translate(-1012.534 -1932.341)" fill="#fce144" style="mix-blend-mode: screen;isolation: isolate"/>
          <path id="Trazado_116434" data-name="Trazado 116434" d="M1208.793,1935.642c0-1.823-.97-3.3-2.167-3.3h-19.778c-1.2,0-2.167,1.478-2.167,3.3h0c0,1.823.97,3.3,2.167,3.3h19.778c1.2,0,2.167-1.478,2.167-3.3Z" transform="translate(-1129.887 -1932.341)" fill="#fce144" opacity="0.5" style="mix-blend-mode: multiply;isolation: isolate"/>
          <path id="Trazado_116435" data-name="Trazado 116435" d="M1226.845,1935.642c0-1.823-.97-3.3-2.167-3.3h-12.034c-1.2,0-2.167,1.478-2.167,3.3h0c0,1.823.97,3.3,2.167,3.3h12.034c1.2,0,2.167-1.478,2.167-3.3Z" transform="translate(-1147.939 -1932.341)" fill="#fce144" opacity="0.5" style="mix-blend-mode: multiply;isolation: isolate"/>
        </g>
        <g id="Grupo_59802" data-name="Grupo 59802" transform="translate(0 0)">
          <rect id="Rectángulo_6227" data-name="Rectángulo 6227" width="81.109" height="0.535" transform="translate(2.167 6.602)" fill="#fce144" style="mix-blend-mode: multiply;isolation: isolate"/>
          <rect id="Rectángulo_6228" data-name="Rectángulo 6228" width="81.109" height="0.535" transform="translate(2.167 6.602)" fill="#fce144" style="mix-blend-mode: multiply;isolation: isolate"/>
          <path id="Trazado_116436" data-name="Trazado 116436" d="M1087.6,1541.132c0-1.823-.97-3.3-2.167-3.3h-81.109c-1.2,0-2.167,1.478-2.167,3.3h0c0,1.823.97,3.3,2.167,3.3h81.109c1.2,0,2.167-1.478,2.167-3.3Z" transform="translate(-1002.16 -1537.831)" fill="#fce144"/>
          <path id="Trazado_116437" data-name="Trazado 116437" d="M1033.55,1541.132c0-1.823-.97-3.3-2.167-3.3h-12.233c-1.2,0-2.167,1.478-2.167,3.3h0c0,1.823.97,3.3,2.167,3.3h12.233c1.2,0,2.167-1.478,2.167-3.3Z" transform="translate(-1012.534 -1537.831)" fill="#fce144" style="mix-blend-mode: screen;isolation: isolate"/>
          <path id="Trazado_116438" data-name="Trazado 116438" d="M1208.793,1541.132c0-1.823-.97-3.3-2.167-3.3h-19.778c-1.2,0-2.167,1.478-2.167,3.3h0c0,1.823.97,3.3,2.167,3.3h19.778c1.2,0,2.167-1.478,2.167-3.3Z" transform="translate(-1129.887 -1537.831)" fill="#fce144" opacity="0.5" style="mix-blend-mode: multiply;isolation: isolate"/>
          <path id="Trazado_116439" data-name="Trazado 116439" d="M1226.845,1541.132c0-1.823-.97-3.3-2.167-3.3h-12.034c-1.2,0-2.167,1.478-2.167,3.3h0c0,1.823.97,3.3,2.167,3.3h12.034c1.2,0,2.167-1.478,2.167-3.3Z" transform="translate(-1147.939 -1537.831)" fill="#fce144" opacity="0.5" style="mix-blend-mode: multiply;isolation: isolate"/>
        </g>
        <g id="Grupo_59803" data-name="Grupo 59803" transform="translate(0.861 20.175)">
          <path id="Trazado_116440" data-name="Trazado 116440" d="M1006.384,1605.034h81.009a1.355,1.355,0,0,1,1.355,1.355h0a1.355,1.355,0,0,1-1.355,1.355h-81.009a1.355,1.355,0,0,1-1.355-1.355h0A1.355,1.355,0,0,1,1006.384,1605.034Z" transform="translate(-1005.029 -1605.034)" fill="#fce144"/>
          <path id="Trazado_116441" data-name="Trazado 116441" d="M1087.393,1605.034h-81.009a1.355,1.355,0,0,0-1.355,1.355h83.719A1.355,1.355,0,0,0,1087.393,1605.034Z" transform="translate(-1005.029 -1605.034)" fill="#fce144" style="mix-blend-mode: screen;isolation: isolate"/>
          <rect id="Rectángulo_6229" data-name="Rectángulo 6229" width="81.109" height="0.535" transform="translate(1.305 2.71)" fill="#fce144" style="mix-blend-mode: multiply;isolation: isolate"/>
          <rect id="Rectángulo_6230" data-name="Rectángulo 6230" width="81.109" height="0.535" transform="translate(1.305 2.71)" fill="#fce144" style="mix-blend-mode: multiply;isolation: isolate"/>
        </g>
        <g id="Grupo_59804" data-name="Grupo 59804" transform="translate(0.861 25.787)">
          <path id="Trazado_116442" data-name="Trazado 116442" d="M1006.384,1623.728h81.009a1.355,1.355,0,0,1,1.355,1.355h0a1.355,1.355,0,0,1-1.355,1.355h-81.009a1.355,1.355,0,0,1-1.355-1.355h0A1.355,1.355,0,0,1,1006.384,1623.728Z" transform="translate(-1005.029 -1623.728)" fill="#fce144"/>
          <path id="Trazado_116443" data-name="Trazado 116443" d="M1087.393,1623.728h-81.009a1.355,1.355,0,0,0-1.355,1.355h83.719A1.355,1.355,0,0,0,1087.393,1623.728Z" transform="translate(-1005.029 -1623.728)" fill="#fce144" style="mix-blend-mode: screen;isolation: isolate"/>
          <rect id="Rectángulo_6231" data-name="Rectángulo 6231" width="81.109" height="0.535" transform="translate(1.305 2.71)" fill="#fce144" style="mix-blend-mode: multiply;isolation: isolate"/>
          <rect id="Rectángulo_6232" data-name="Rectángulo 6232" width="81.109" height="0.535" transform="translate(1.305 2.71)" fill="#fce144" style="mix-blend-mode: multiply;isolation: isolate"/>
        </g>
        <g id="Grupo_59805" data-name="Grupo 59805" transform="translate(0.861 97.675)">
          <path id="Trazado_116444" data-name="Trazado 116444" d="M1006.384,1863.192h81.009a1.355,1.355,0,0,1,1.355,1.355h0a1.355,1.355,0,0,1-1.355,1.355h-81.009a1.355,1.355,0,0,1-1.355-1.355h0A1.355,1.355,0,0,1,1006.384,1863.192Z" transform="translate(-1005.029 -1863.192)" fill="#fce144"/>
          <path id="Trazado_116445" data-name="Trazado 116445" d="M1087.393,1863.192h-81.009a1.355,1.355,0,0,0-1.355,1.355h83.719A1.355,1.355,0,0,0,1087.393,1863.192Z" transform="translate(-1005.029 -1863.192)" fill="#fce144" style="mix-blend-mode: screen;isolation: isolate"/>
          <rect id="Rectángulo_6233" data-name="Rectángulo 6233" width="81.109" height="0.535" transform="translate(1.305 2.71)" fill="#fce144" style="mix-blend-mode: multiply;isolation: isolate"/>
          <rect id="Rectángulo_6234" data-name="Rectángulo 6234" width="81.109" height="0.535" transform="translate(1.305 2.71)" fill="#fce144" style="mix-blend-mode: multiply;isolation: isolate"/>
        </g>
        <g id="Grupo_59806" data-name="Grupo 59806" transform="translate(0.861 103.287)">
          <path id="Trazado_116446" data-name="Trazado 116446" d="M1006.384,1881.886h81.009a1.355,1.355,0,0,1,1.355,1.355h0a1.355,1.355,0,0,1-1.355,1.355h-81.009a1.355,1.355,0,0,1-1.355-1.355h0A1.355,1.355,0,0,1,1006.384,1881.886Z" transform="translate(-1005.029 -1881.886)" fill="#fce144"/>
          <path id="Trazado_116447" data-name="Trazado 116447" d="M1087.393,1881.886h-81.009a1.355,1.355,0,0,0-1.355,1.355h83.719A1.355,1.355,0,0,0,1087.393,1881.886Z" transform="translate(-1005.029 -1881.886)" fill="#fce144" style="mix-blend-mode: screen;isolation: isolate"/>
          <rect id="Rectángulo_6235" data-name="Rectángulo 6235" width="81.109" height="0.535" transform="translate(1.305 2.71)" fill="#fce144" style="mix-blend-mode: multiply;isolation: isolate"/>
          <rect id="Rectángulo_6236" data-name="Rectángulo 6236" width="81.109" height="0.535" transform="translate(1.305 2.71)" fill="#fce144" style="mix-blend-mode: multiply;isolation: isolate"/>
        </g>
        <g id="Grupo_59807" data-name="Grupo 59807" transform="translate(21.12 40.917)">
          <path id="Trazado_116448" data-name="Trazado 116448" d="M1098.216,1710.77a5.294,5.294,0,0,1,2.62-4.571l-6.107-10.577a17.56,17.56,0,0,0-8.783,15.216h12.271C1098.218,1710.815,1098.216,1710.793,1098.216,1710.77Z" transform="translate(-1081.913 -1689.169)" fill="#001a0f"/>
          <path id="Trazado_116449" data-name="Trazado 116449" d="M1156.007,1710.77c0,.023,0,.045,0,.068h12.271a17.56,17.56,0,0,0-8.783-15.216l-6.107,10.577A5.294,5.294,0,0,1,1156.007,1710.77Z" transform="translate(-1129.108 -1689.169)" fill="#001a0f"/>
          <path id="Trazado_116450" data-name="Trazado 116450" d="M1123.987,1762.112a5.27,5.27,0,0,1-2.619-.693l-6.166,10.68a17.585,17.585,0,0,0,17.57,0l-6.166-10.68A5.27,5.27,0,0,1,1123.987,1762.112Z" transform="translate(-1102.386 -1735.214)" fill="#001a0f"/>
          <path id="Trazado_116451" data-name="Trazado 116451" d="M1135.367,1739.714v0c0,.012,0,.025,0,.038a2.731,2.731,0,0,0,5.461,0c0-.012,0-.024,0-.041a2.732,2.732,0,0,0-5.463.006Z" transform="translate(-1116.497 -1718.113)" fill="#001a0f"/>
          <path id="Trazado_116452" data-name="Trazado 116452" d="M1094.112,1674.127a21.6,21.6,0,1,0,21.6,21.6A21.625,21.625,0,0,0,1094.112,1674.127Zm0,40.747a19.146,19.146,0,1,1,19.146-19.146A19.168,19.168,0,0,1,1094.112,1714.874Z" transform="translate(-1072.511 -1674.127)" fill="#001a0f"/>
        </g>
      </g>
      <g id="Grupo_59816" data-name="Grupo 59816" transform="translate(444.322 1476.071)">
        <g id="Grupo_59809" data-name="Grupo 59809" transform="translate(0 9.549)">
          <path id="Trazado_116453" data-name="Trazado 116453" d="M842.745,1587.062H786.734s-7.279,9.679-7.862,13.3c-1.634,10.153-.969,32.1-.969,49.56,0,16.381,2.792,35.475,4.487,45.554a8.476,8.476,0,0,0,8.361,7.071h47.681a8.476,8.476,0,0,0,8.341-6.956,265.568,265.568,0,0,0,4.367-45.669c0-20.278.711-40.643-.934-49.952C849.611,1596.6,842.745,1587.062,842.745,1587.062Z" transform="translate(-777.769 -1587.062)" fill="#adc114"/>
          <path id="Trazado_116454" data-name="Trazado 116454" d="M934.122,1599.971c-.594-3.366-7.461-12.909-7.461-12.909H907.479s6.866,9.543,7.461,12.909c1.644,9.309.934,29.674.934,49.952a265.56,265.56,0,0,1-4.366,45.669,8.476,8.476,0,0,1-8.341,6.956h19.182a8.476,8.476,0,0,0,8.341-6.956,265.559,265.559,0,0,0,4.367-45.669C935.055,1629.645,935.766,1609.28,934.122,1599.971Z" transform="translate(-865.521 -1587.062)" fill="#adc114" opacity="0.5" style="mix-blend-mode: multiply;isolation: isolate"/>
          <path id="Trazado_116455" data-name="Trazado 116455" d="M960.95,1599.971c-.594-3.366-7.461-12.909-7.461-12.909h-7.673s6.866,9.543,7.461,12.909c1.644,9.309.933,29.674.933,49.952a265.529,265.529,0,0,1-4.366,45.669,8.475,8.475,0,0,1-8.341,6.956h7.673a8.476,8.476,0,0,0,8.341-6.956,265.559,265.559,0,0,0,4.367-45.669C961.883,1629.645,962.594,1609.28,960.95,1599.971Z" transform="translate(-892.349 -1587.062)" fill="#adc114" opacity="0.5" style="mix-blend-mode: multiply;isolation: isolate"/>
          <path id="Trazado_116456" data-name="Trazado 116456" d="M791.635,1599.971c.594-3.366,7.461-12.909,7.461-12.909h23.018s5.757,9.362,3.615,12.937H799.307c-1.644,9.309-.933,29.646-.933,49.924a265.566,265.566,0,0,0,4.366,45.669,8.476,8.476,0,0,0,8.341,6.956h-7.673a8.476,8.476,0,0,1-8.341-6.956,265.56,265.56,0,0,1-4.366-45.669C790.7,1629.645,789.99,1609.28,791.635,1599.971Z" transform="translate(-786.712 -1587.062)" fill="#adc114" opacity="0.75" style="mix-blend-mode: screen;isolation: isolate"/>
          <path id="Trazado_116457" data-name="Trazado 116457" d="M862.573,1588.122c-.459-.659-.747-1.06-.747-1.06H805.814s-.3.4-.779,1.06Z" transform="translate(-796.85 -1587.062)" fill="#adc114" style="mix-blend-mode: multiply;isolation: isolate"/>
        </g>
        <g id="Grupo_59810" data-name="Grupo 59810" transform="translate(6.994 0)">
          <path id="Trazado_116458" data-name="Trazado 116458" d="M859.154,1576.269h-56.66a1.633,1.633,0,0,0,0,3.24h56.66a1.633,1.633,0,0,0,0-3.24Z" transform="translate(-801.066 -1569.96)" fill="#a5b7b1"/>
          <path id="Trazado_116459" data-name="Trazado 116459" d="M859.154,1576.269h-56.66a1.533,1.533,0,0,0-1.428,1.62h59.517A1.533,1.533,0,0,0,859.154,1576.269Z" transform="translate(-801.066 -1569.96)" fill="#d1d1d1" opacity="0.5" style="mix-blend-mode: screen;isolation: isolate"/>
          <path id="Trazado_116460" data-name="Trazado 116460" d="M857.615,1555.253H810.436c-2.648,0-4.8,2.825-4.8,6.309h56.77C862.411,1558.078,860.264,1555.253,857.615,1555.253Z" transform="translate(-804.268 -1555.253)" fill="#001a0f"/>
          <path id="Trazado_116461" data-name="Trazado 116461" d="M827.705,1578.009H808.481a.89.89,0,1,0,0,1.78h19.224a.89.89,0,0,0,0-1.78Z" transform="translate(-805.632 -1571.178)" fill="#d1d1d1" style="mix-blend-mode: screen;isolation: isolate"/>
        </g>
        <g id="Grupo_59814" data-name="Grupo 59814" transform="translate(14.048 27.063)">
          <path id="Trazado_116462" data-name="Trazado 116462" d="M869.538,1680.612l-19.363-33.537a3.346,3.346,0,0,0-5.8,0l-19.362,33.537a3.346,3.346,0,0,0,2.9,5.019H866.64A3.346,3.346,0,0,0,869.538,1680.612Z" transform="translate(-824.564 -1645.403)" fill="#fce144"/>
          <path id="Trazado_116463" data-name="Trazado 116463" d="M871.253,1683.919l-19.363-33.537a2.178,2.178,0,0,0-3.772,0l-19.362,33.537a2.177,2.177,0,0,0,1.886,3.267h38.725a2.178,2.178,0,0,0,1.886-3.267Zm-1.265,1.448a.693.693,0,0,1-.621.358H830.642a.717.717,0,0,1-.621-1.076l19.362-33.537a.717.717,0,0,1,1.242,0l19.363,33.537A.694.694,0,0,1,869.988,1685.367Z" transform="translate(-827.291 -1648.126)" fill="#001a0f"/>
          <g id="Grupo_59813" data-name="Grupo 59813" transform="translate(11.668 11.348)">
            <g id="Grupo_59811" data-name="Grupo 59811" transform="translate(4.735)">
              <path id="Trazado_116464" data-name="Trazado 116464" d="M880.954,1694.4a.84.84,0,0,0,.461.7c.047.024.1.05.146.078.576.32,1.253.888,1.253,1.506h0a.758.758,0,0,0,.758.758h3.883a.758.758,0,0,0,.758-.758c0-.614.713-1.185,1.253-1.506l.042-.025a1.2,1.2,0,0,0,.58-.926,6.855,6.855,0,0,1,.995-2.9,4.955,4.955,0,0,0,.741-2.6c0-3.05-2.825-5.521-6.31-5.521s-6.31,2.472-6.31,5.521a4.955,4.955,0,0,0,.741,2.6A6.824,6.824,0,0,1,880.954,1694.4Zm5.8-4.689c0-.573.624-1.038,1.393-1.038s1.394.465,1.394,1.038v.94c0,.574-.624,1.039-1.394,1.039s-1.393-.465-1.393-1.039Zm-2.186,4.505.774-1.849a.191.191,0,0,1,.352,0l.774,1.849a.273.273,0,0,1-.252.379h-1.4A.274.274,0,0,1,884.564,1694.214Zm-3.073-4.505c0-.573.624-1.038,1.394-1.038s1.393.465,1.393,1.038v.94c0,.574-.624,1.039-1.393,1.039s-1.394-.465-1.394-1.039Z" transform="translate(-879.204 -1683.202)" fill="#001a0f"/>
            </g>
            <g id="Grupo_59812" data-name="Grupo 59812" transform="translate(0 14.641)">
              <path id="Trazado_116465" data-name="Trazado 116465" d="M884.685,1737.767a1.137,1.137,0,0,0-1,.195,1.683,1.683,0,0,1-1.46.305l-4.74-1.448,4.74-1.448a1.682,1.682,0,0,1,1.46.3,2.041,2.041,0,1,0-.8-3,1.683,1.683,0,0,1-1.112.994l-7.3,2.229-7.3-2.229a1.682,1.682,0,0,1-1.111-.994,2.041,2.041,0,1,0-.8,3,1.682,1.682,0,0,1,1.46-.3l4.74,1.448-4.74,1.448a1.683,1.683,0,0,1-1.46-.305,2.041,2.041,0,1,0,.8,3,1.682,1.682,0,0,1,1.111-.994l7.3-2.229,7.3,2.229a1.683,1.683,0,0,1,1.112.994,1.838,1.838,0,0,0,1.8-3.2Z" transform="translate(-863.431 -1731.974)" fill="#001a0f"/>
            </g>
          </g>
        </g>
        <g id="Grupo_59815" data-name="Grupo 59815" transform="translate(20.143 71.278)">
          <path id="Trazado_116466" data-name="Trazado 116466" d="M844.866,1794.541h2.18v6.681h1.7v-6.681h2.18v-1.432h-6.063Z" transform="translate(-844.866 -1792.982)"/>
          <path id="Trazado_116467" data-name="Trazado 116467" d="M871.823,1792.685a3.686,3.686,0,0,0-2.842,1.068,4.388,4.388,0,0,0-.991,3.093,4.449,4.449,0,0,0,.989,3.107,4.253,4.253,0,0,0,5.668,0,5.361,5.361,0,0,0,.008-6.192A3.635,3.635,0,0,0,871.823,1792.685Zm-.011,6.908a1.78,1.78,0,0,1-1.527-.688,4.343,4.343,0,0,1,.005-4.1,1.792,1.792,0,0,1,1.532-.691q2.026,0,2.027,2.741T871.813,1799.593Z" transform="translate(-861.048 -1792.685)"/>
          <path id="Trazado_116468" data-name="Trazado 116468" d="M902.942,1793.11h-1.835l-1.7,2.919-1.73-2.919H895.8l2.493,3.928-2.664,4.184h1.823l1.867-3.068,1.867,3.068h1.944l-2.713-4.089Z" transform="translate(-880.392 -1792.982)"/>
          <rect id="Rectángulo_6237" data-name="Rectángulo 6237" width="1.702" height="8.112" transform="translate(23.753 0.127)"/>
          <path id="Trazado_116469" data-name="Trazado 116469" d="M936.954,1796.917a3.42,3.42,0,0,1,.527-2.033,1.728,1.728,0,0,1,1.488-.73,2.682,2.682,0,0,1,.9.161,9.1,9.1,0,0,1,.906.377l.549-1.4a5.359,5.359,0,0,0-2.35-.571,3.843,3.843,0,0,0-2,.508,3.317,3.317,0,0,0-1.31,1.459,5.077,5.077,0,0,0-.456,2.216,4.578,4.578,0,0,0,.928,3.083,3.351,3.351,0,0,0,2.68,1.074,5.638,5.638,0,0,0,2.208-.416V1799.2a6.3,6.3,0,0,1-2.048.427Q936.954,1799.63,936.954,1796.917Z" transform="translate(-908.083 -1792.711)"/>
        </g>
      </g>
      <g id="Grupo_59824" data-name="Grupo 59824" transform="translate(581.518 1472.406)">
        <g id="Grupo_59817" data-name="Grupo 59817" transform="translate(23.959 0)">
          <path id="Trazado_116470" data-name="Trazado 116470" d="M1432.535,1543.384a.445.445,0,0,0-.431-.339h-29.768a.444.444,0,0,0-.431.339,17.368,17.368,0,0,0,0,8.263.444.444,0,0,0,.431.339H1432.1a.445.445,0,0,0,.431-.339A17.371,17.371,0,0,0,1432.535,1543.384Z" transform="translate(-1401.406 -1543.045)" fill="#011828"/>
          <path id="Trazado_116471" data-name="Trazado 116471" d="M1417.771,1543.384a.444.444,0,0,1,.432-.339h6.3a.445.445,0,0,0-.432.339,17.371,17.371,0,0,0,0,8.263.445.445,0,0,0,.432.339h-6.3a.444.444,0,0,1-.432-.339A17.368,17.368,0,0,1,1417.771,1543.384Z" transform="translate(-1412.509 -1543.045)" fill="#162f42" opacity="0.5" style="mix-blend-mode: screen;isolation: isolate"/>
        </g>
        <path id="Trazado_116472" data-name="Trazado 116472" d="M1399.471,1633.951l-2.919-1.75a1.564,1.564,0,0,1,0-2.683l2.685-1.609a3.445,3.445,0,0,0,1.67-3.08c-.167-4.678-.412-11.691-.7-16.19a3.444,3.444,0,0,0-1.666-2.74l-1.995-1.2a1.564,1.564,0,0,1,0-2.683l1.237-.741a3.439,3.439,0,0,0,1.661-3.228c-.514-6.314-1.042-11.414-1.42-14.111a7.153,7.153,0,0,0-3.678-5.3l-18.693-3.324h0v-2.494h-28.573v2.494l-18.7,3.326a7.153,7.153,0,0,0-3.677,5.291c-.379,2.69-.909,7.788-1.424,14.111a3.44,3.44,0,0,0,1.661,3.228l1.245.746a1.564,1.564,0,0,1,0,2.683l-2,1.2a3.444,3.444,0,0,0-1.666,2.741c-.281,4.492-.524,11.5-.691,16.185a3.445,3.445,0,0,0,1.67,3.078l2.688,1.611a1.564,1.564,0,0,1,0,2.683l-2.925,1.753a3.429,3.429,0,0,0-1.667,2.942v.02c0,5.658.185,9.676.472,15.869a3.437,3.437,0,0,0,1.669,2.787l2.451,1.469a1.564,1.564,0,0,1,0,2.684l-1.824,1.093a3.445,3.445,0,0,0-1.665,3.18c.528,8,1.151,14.894,1.649,18.7a7.156,7.156,0,0,0,7.1,6.225h59.839a7.156,7.156,0,0,0,7.1-6.23c.5-3.813,1.12-10.713,1.648-18.7a3.444,3.444,0,0,0-1.665-3.18l-1.817-1.089a1.564,1.564,0,0,1,0-2.684l2.446-1.466a3.438,3.438,0,0,0,1.668-2.786c.289-6.211.477-10.236.477-15.873v-.013A3.442,3.442,0,0,0,1399.471,1633.951Z" transform="translate(-1321.597 -1563.884)" fill="#27455b"/>
        <g id="Grupo_59818" data-name="Grupo 59818" transform="translate(0.012 39.53)">
          <path id="Trazado_116473" data-name="Trazado 116473" d="M1326.217,1767.514l-2.925,1.753a3.424,3.424,0,0,0-1.654,2.756h79.521a3.437,3.437,0,0,0-1.66-2.759l-2.919-1.75a1.549,1.549,0,0,1-.759-1.329h-68.845A1.549,1.549,0,0,1,1326.217,1767.514Z" transform="translate(-1321.638 -1738.727)" fill="#162f42" style="mix-blend-mode: screen;isolation: isolate"/>
          <path id="Trazado_116474" data-name="Trazado 116474" d="M1328.256,1676.01l-2,1.2a3.443,3.443,0,0,0-1.666,2.74c-.012.2-.024.4-.037.609h77.765c-.012-.207-.025-.415-.037-.614a3.444,3.444,0,0,0-1.666-2.74l-1.995-1.2a1.546,1.546,0,0,1-.757-1.289h-68.85A1.546,1.546,0,0,1,1328.256,1676.01Z" transform="translate(-1323.677 -1674.721)" fill="#162f42" style="mix-blend-mode: screen;isolation: isolate"/>
          <path id="Trazado_116475" data-name="Trazado 116475" d="M1329.5,1857.649a1.549,1.549,0,0,1-.757,1.394l-1.824,1.093a3.445,3.445,0,0,0-1.665,3.18c0,.058.008.114.011.171h77.311l.012-.175a3.444,3.444,0,0,0-1.665-3.18l-1.817-1.089a1.549,1.549,0,0,1-.757-1.394Z" transform="translate(-1324.161 -1802.733)" fill="#162f42" style="mix-blend-mode: screen;isolation: isolate"/>
        </g>
        <g id="Grupo_59819" data-name="Grupo 59819" transform="translate(0.24 33.692)">
          <path id="Trazado_116476" data-name="Trazado 116476" d="M1327.186,1655.744a3.44,3.44,0,0,0,1.661,3.228l1.245.746a1.549,1.549,0,0,1,.757,1.394H1399.7a1.549,1.549,0,0,1,.757-1.394l1.237-.741a3.44,3.44,0,0,0,1.661-3.228c-.013-.16-.026-.316-.039-.475h-76.088C1327.211,1655.431,1327.2,1655.586,1327.186,1655.744Z" transform="translate(-1325.74 -1655.274)" fill="#f34b44" opacity="0.5" style="mix-blend-mode: multiply;isolation: isolate"/>
          <path id="Trazado_116477" data-name="Trazado 116477" d="M1323.124,1838.2c0,.1.009.193.013.293a3.437,3.437,0,0,0,1.669,2.787l2.451,1.469a1.547,1.547,0,0,1,.757,1.289h68.85a1.547,1.547,0,0,1,.757-1.289l2.446-1.466a3.438,3.438,0,0,0,1.668-2.786c0-.1.009-.2.014-.3Z" transform="translate(-1322.905 -1783.286)" fill="#f34b44" opacity="0.5" style="mix-blend-mode: multiply;isolation: isolate"/>
          <path id="Trazado_116478" data-name="Trazado 116478" d="M1322.4,1746.737a3.439,3.439,0,0,0,1.664,2.873l2.688,1.611a1.55,1.55,0,0,1,.759,1.354h68.845a1.549,1.549,0,0,1,.759-1.354l2.685-1.609a3.438,3.438,0,0,0,1.664-2.875Z" transform="translate(-1322.395 -1719.279)" fill="#f34b44" opacity="0.5" style="mix-blend-mode: multiply;isolation: isolate"/>
        </g>
        <path id="Trazado_116479" data-name="Trazado 116479" d="M1342.828,1682.689c-.5-3.813-1.12-10.713-1.648-18.7a3.445,3.445,0,0,1,1.665-3.18l1.817-1.089a1.564,1.564,0,0,0,0-2.684l-2.446-1.466a3.436,3.436,0,0,1-1.669-2.786c-.29-6.211-.477-10.236-.477-15.873v-.013a3.441,3.441,0,0,1,1.672-2.952l2.919-1.75a1.564,1.564,0,0,0,0-2.683l-2.685-1.609a3.445,3.445,0,0,1-1.67-3.08c.167-4.678.412-11.691.7-16.19a3.444,3.444,0,0,1,1.666-2.74l1.995-1.2a1.564,1.564,0,0,0,0-2.683l-1.237-.741a3.439,3.439,0,0,1-1.661-3.228c.514-6.314,1.042-11.414,1.42-14.111a7.154,7.154,0,0,1,3.678-5.3l2.461-1.43,10.648-1.893h0v-2.494h3.833l-10.009,5.817a7.154,7.154,0,0,0-3.678,5.3c-.378,2.7-.906,7.8-1.42,14.111a3.439,3.439,0,0,0,1.661,3.228l1.237.741a1.564,1.564,0,0,1,0,2.683l-1.995,1.2a3.444,3.444,0,0,0-1.666,2.74c-.283,4.5-.528,11.512-.7,16.19a3.445,3.445,0,0,0,1.67,3.08l2.685,1.609a1.564,1.564,0,0,1,0,2.683l-2.919,1.75a3.442,3.442,0,0,0-1.672,2.952v.013c0,5.637.187,9.662.477,15.873a3.438,3.438,0,0,0,1.669,2.786l2.446,1.466a1.564,1.564,0,0,1,0,2.684l-1.817,1.089a3.444,3.444,0,0,0-1.665,3.18c.528,7.983,1.151,14.883,1.648,18.7a7.156,7.156,0,0,0,7.1,6.23h-6.939A7.157,7.157,0,0,1,1342.828,1682.689Z" transform="translate(-1334.525 -1563.884)" fill="#162f42" style="mix-blend-mode: screen;isolation: isolate"/>
        <g id="Grupo_59823" data-name="Grupo 59823" transform="translate(15.495 30.714)">
          <rect id="Rectángulo_6238" data-name="Rectángulo 6238" width="48.556" height="72.886" rx="20.801" fill="#27455b"/>
          <path id="Trazado_116480" data-name="Trazado 116480" d="M1374.284,1713.071v-60.4a6.245,6.245,0,0,1,6.244-6.245H1416.6a6.209,6.209,0,0,1,3.843,1.33,6.227,6.227,0,0,0-4.915-2.4h-36.067a6.244,6.244,0,0,0-6.244,6.245V1712a6.229,6.229,0,0,0,2.4,4.915A6.211,6.211,0,0,1,1374.284,1713.071Z" transform="translate(-1373.212 -1645.357)" fill="#162f42" style="mix-blend-mode: screen;isolation: isolate"/>
          <path id="Trazado_116481" data-name="Trazado 116481" d="M1423.8,1653.386v60.4a6.244,6.244,0,0,1-6.244,6.244h-36.067a6.212,6.212,0,0,1-3.843-1.329,6.228,6.228,0,0,0,4.915,2.4h36.067a6.244,6.244,0,0,0,6.244-6.244v-60.4a6.227,6.227,0,0,0-2.4-4.915A6.21,6.21,0,0,1,1423.8,1653.386Z" transform="translate(-1376.311 -1648.286)" fill="#162f42" opacity="0.25" style="mix-blend-mode: multiply;isolation: isolate"/>
          <g id="Grupo_59821" data-name="Grupo 59821" transform="translate(6.364 10.41)">
            <rect id="Rectángulo_6239" data-name="Rectángulo 6239" width="35.821" height="35.821" rx="10.909" fill="#fce144"/>
            <path id="Trazado_116482" data-name="Trazado 116482" d="M1431.522,1686.56h-29.271a1.317,1.317,0,0,0-1.316,1.316v29.271a1.317,1.317,0,0,0,1.316,1.316h29.271a1.317,1.317,0,0,0,1.316-1.316v-29.271A1.318,1.318,0,0,0,1431.522,1686.56Zm-.363,30.224h-28.545v-28.545h28.545Z" transform="translate(-1398.976 -1684.601)" fill="#001a0f"/>
            <g id="Grupo_59820" data-name="Grupo 59820" transform="translate(8.025 5.145)">
              <path id="Trazado_116483" data-name="Trazado 116483" d="M1435.56,1701.016c.792,2.557-.145,4.7.023,6.637-1.262-4.379-4.02-8.63-6.2-10.456a.1.1,0,0,0-.151.118,11.5,11.5,0,0,1-1.3,10.463,25.7,25.7,0,0,0-2.344,4.9,6.937,6.937,0,0,0-.327,1.745,8.251,8.251,0,0,1-.338-2.674,6.524,6.524,0,0,0-1.3,2.226c-.12.355-1.023,3.026.4,4.7a3.266,3.266,0,0,0,1,.777c.8.425,3.9.6,4.8.637-2.743-4.537,1.253-8.851,2.217-12.915,3.9,3.225,5.717,9.75,3.27,12.6,3.022.31,4.007-.552,4.634-1.316C1443.494,1714.122,1441.681,1708.305,1435.56,1701.016Z" transform="translate(-1422.598 -1697.174)" fill="#001a0f"/>
              <path id="Trazado_116484" data-name="Trazado 116484" d="M1440.123,1776.952h-18.189a.79.79,0,1,0,0,1.581h18.189a.79.79,0,0,0,0-1.581Z" transform="translate(-1421.143 -1753.002)" fill="#001a0f"/>
            </g>
          </g>
          <g id="Grupo_59822" data-name="Grupo 59822" transform="translate(10.467 54.993)">
            <path id="Trazado_116485" data-name="Trazado 116485" d="M1408.078,1837.091h1.784v-3.38h2.9v-1.48h-2.9v-2.2h3.117v-1.485h-4.9Z" transform="translate(-1408.078 -1828.541)" fill="#fce144"/>
            <path id="Trazado_116486" data-name="Trazado 116486" d="M1434.99,1833.763a2.2,2.2,0,0,1-.4,1.459,1.617,1.617,0,0,1-1.289.465,1.653,1.653,0,0,1-1.316-.462,2.192,2.192,0,0,1-.4-1.45v-5.234h-1.807v5.509a3,3,0,0,0,.912,2.313,3.627,3.627,0,0,0,2.561.845,4.38,4.38,0,0,0,1.895-.38,2.759,2.759,0,0,0,1.225-1.093,3.191,3.191,0,0,0,.424-1.661v-5.532h-1.807Z" transform="translate(-1423.264 -1828.541)" fill="#fce144"/>
            <path id="Trazado_116487" data-name="Trazado 116487" d="M1460.129,1837.091h4.924v-1.5h-3.111v-2.2h2.895V1831.9h-2.895v-1.877h3.111v-1.485h-4.924Z" transform="translate(-1444.503 -1828.541)" fill="#fce144"/>
            <path id="Trazado_116488" data-name="Trazado 116488" d="M1484.285,1835.594v-7.053h-1.813v8.55h5.281v-1.5Z" transform="translate(-1460.139 -1828.541)" fill="#fce144"/>
          </g>
        </g>
        <path id="Trazado_116489" data-name="Trazado 116489" d="M1487.1,1682.689c.5-3.813,1.12-10.713,1.648-18.7a3.444,3.444,0,0,0-1.665-3.18l-1.817-1.089a1.565,1.565,0,0,1,0-2.684l2.446-1.466a3.437,3.437,0,0,0,1.669-2.786c.289-6.211.477-10.236.477-15.873v-.013a3.442,3.442,0,0,0-1.672-2.952l-2.919-1.75a1.564,1.564,0,0,1,0-2.683l2.685-1.609a3.444,3.444,0,0,0,1.67-3.08c-.167-4.678-.412-11.691-.7-16.19a3.445,3.445,0,0,0-1.666-2.74l-1.995-1.2a1.564,1.564,0,0,1,0-2.683l1.237-.741a3.44,3.44,0,0,0,1.661-3.228c-.514-6.314-1.042-11.414-1.42-14.111a7.154,7.154,0,0,0-3.678-5.3l-1.72-1-12.985-2.324v-2.494H1454.07l10.009,5.817a7.154,7.154,0,0,1,3.678,5.3c.377,2.7.905,7.8,1.42,14.111.106,1.3.691,9.456.763,10.588.283,4.5.528,11.512.695,16.19.045,1.255.236,10.864.236,12.074v.013c0,5.637-.187,9.662-.477,15.873-.053,1.149-.548,9.917-.633,11.2-.528,7.983-1.151,14.883-1.648,18.7a7.157,7.157,0,0,1-7.1,6.23H1480A7.156,7.156,0,0,0,1487.1,1682.689Z" transform="translate(-1414.301 -1563.884)" fill="#162f42" opacity="0.25" style="mix-blend-mode: multiply;isolation: isolate"/>
        <path id="Trazado_116490" data-name="Trazado 116490" d="M1512.722,1633.951l-2.919-1.75a1.564,1.564,0,0,1,0-2.683l2.685-1.609a3.445,3.445,0,0,0,1.67-3.08c-.168-4.678-.412-11.691-.7-16.19a3.443,3.443,0,0,0-1.666-2.74l-1.995-1.2a1.564,1.564,0,0,1,0-2.683l1.236-.741a3.44,3.44,0,0,0,1.661-3.228c-.514-6.314-1.042-11.414-1.42-14.111a7.154,7.154,0,0,0-3.678-5.3l-1.72-1-12.985-2.324v-2.494h-3.76v2.494h0l10.648,1.893,2.461,1.43a7.153,7.153,0,0,1,3.677,5.3c.378,2.7.906,7.8,1.42,14.111a3.439,3.439,0,0,1-1.661,3.228l-1.237.741a1.564,1.564,0,0,0,0,2.683l1.995,1.2a3.444,3.444,0,0,1,1.666,2.74c.283,4.5.527,11.512.695,16.19a3.445,3.445,0,0,1-1.67,3.08l-2.685,1.609a1.564,1.564,0,0,0,0,2.683l2.919,1.75a3.442,3.442,0,0,1,1.672,2.952v.013c0,5.637-.187,9.662-.477,15.873a3.436,3.436,0,0,1-1.668,2.786l-2.446,1.466a1.565,1.565,0,0,0,0,2.684l1.817,1.089a3.444,3.444,0,0,1,1.665,3.18c-.528,7.983-1.151,14.883-1.647,18.7a7.157,7.157,0,0,1-7.1,6.23h5.351a7.156,7.156,0,0,0,7.1-6.23c.5-3.813,1.12-10.713,1.648-18.7a3.444,3.444,0,0,0-1.665-3.18l-1.817-1.089a1.564,1.564,0,0,1,0-2.684l2.446-1.466a3.438,3.438,0,0,0,1.668-2.786c.289-6.211.477-10.236.477-15.873v-.013A3.442,3.442,0,0,0,1512.722,1633.951Z" transform="translate(-1438.841 -1563.884)" fill="#162f42" opacity="0.25" style="mix-blend-mode: multiply;isolation: isolate"/>
      </g>
      <g id="Grupo_59834" data-name="Grupo 59834" transform="translate(673.02 1442.103)">
        <path id="Trazado_116491" data-name="Trazado 116491" d="M1858.459,1473.948a10.549,10.549,0,0,0-10-7.191h-69.753V1457.4a1.764,1.764,0,0,0-1.764-1.764h-61.48a1.764,1.764,0,0,0-1.764,1.764v9.356h-69.06a10.535,10.535,0,0,0-10.143,7.662,210.347,210.347,0,0,0,0,115.612,10.535,10.535,0,0,0,10.143,7.661h203.822a10.549,10.549,0,0,0,10-7.192c3.1-9.212,7.55-27.745,7.55-58.276S1861.561,1483.161,1858.459,1473.948Z" transform="translate(-1626.398 -1451.574)" fill="#008b61"/>
        <path id="Trazado_116492" data-name="Trazado 116492" d="M1910.04,1614.691c.048-.153.1-.312.145-.469s.094-.3.141-.461c.056-.184.112-.373.168-.562.04-.133.079-.266.119-.4.063-.217.127-.439.191-.663.032-.112.064-.224.1-.337q.106-.375.212-.764l.072-.263q.118-.433.235-.881c.013-.052.027-.1.041-.156.858-3.288,1.727-7.2,2.517-11.783h0a235.087,235.087,0,0,0,3.052-39.8c0-30.531-4.448-49.064-7.55-58.276a10.549,10.549,0,0,0-10-7.191h-2.524v105.312H1699.3s.144,14.745.144,25.623H1899.48a10.549,10.549,0,0,0,10-7.192q.138-.41.279-.845c.037-.113.074-.232.111-.348C1909.926,1615.052,1909.983,1614.875,1910.04,1614.691Z" transform="translate(-1677.417 -1477.496)" fill="#6bc4a6" opacity="0.75" style="mix-blend-mode: multiply;isolation: isolate"/>
        <path id="Trazado_116493" data-name="Trazado 116493" d="M1646.469,1492.679h-1.83a10.535,10.535,0,0,0-10.143,7.662,210.347,210.347,0,0,0,0,115.612,10.535,10.535,0,0,0,10.143,7.661h1.83V1492.679Z" transform="translate(-1626.398 -1477.496)" fill="#6bc4a6" opacity="0.5" style="mix-blend-mode: screen;isolation: isolate"/>
        <g id="Grupo_59825" data-name="Grupo 59825" transform="translate(186.314 113.221)">
          <path id="Trazado_116494" data-name="Trazado 116494" d="M2247.02,1819.249v36.613a3.755,3.755,0,0,0,3.755,3.755h25.763a3.756,3.756,0,0,0,3.756-3.755v-36.613Z" transform="translate(-2247.02 -1819.249)" fill="#008b61"/>
          <path id="Trazado_116495" data-name="Trazado 116495" d="M2276.538,1920.079h-25.763a3.755,3.755,0,0,1-3.755-3.755v7.471a3.755,3.755,0,0,0,3.755,3.755h25.763a3.756,3.756,0,0,0,3.756-3.755v-7.471A3.755,3.755,0,0,1,2276.538,1920.079Z" transform="translate(-2247.02 -1887.182)" fill="#6bc4a6" opacity="0.75" style="mix-blend-mode: multiply;isolation: isolate"/>
        </g>
        <g id="Grupo_59826" data-name="Grupo 59826" transform="translate(103.192 113.221)">
          <path id="Trazado_116496" data-name="Trazado 116496" d="M1970.138,1855.862a3.755,3.755,0,0,0,3.755,3.755h25.763a3.755,3.755,0,0,0,3.755-3.755v-36.613h-33.274Z" transform="translate(-1970.138 -1819.249)" fill="#008b61"/>
          <path id="Trazado_116497" data-name="Trazado 116497" d="M1999.656,1920.079h-25.763a3.755,3.755,0,0,1-3.755-3.755v7.471a3.755,3.755,0,0,0,3.755,3.755h25.763a3.755,3.755,0,0,0,3.755-3.755v-7.471A3.755,3.755,0,0,1,1999.656,1920.079Z" transform="translate(-1970.138 -1887.182)" fill="#6bc4a6" opacity="0.75" style="mix-blend-mode: multiply;isolation: isolate"/>
        </g>
        <g id="Grupo_59827" data-name="Grupo 59827" transform="translate(20.071 113.221)">
          <path id="Trazado_116498" data-name="Trazado 116498" d="M1693.257,1855.862a3.755,3.755,0,0,0,3.755,3.755h25.763a3.755,3.755,0,0,0,3.755-3.755v-36.613h-33.273Z" transform="translate(-1693.257 -1819.249)" fill="#008b61"/>
          <path id="Trazado_116499" data-name="Trazado 116499" d="M1722.775,1920.079h-25.763a3.755,3.755,0,0,1-3.755-3.755v7.471a3.755,3.755,0,0,0,3.755,3.755h25.763a3.755,3.755,0,0,0,3.755-3.755v-7.471A3.755,3.755,0,0,1,1722.775,1920.079Z" transform="translate(-1693.257 -1887.182)" fill="#6bc4a6" opacity="0.75" style="mix-blend-mode: multiply;isolation: isolate"/>
        </g>
        <rect id="Rectángulo_6240" data-name="Rectángulo 6240" width="199.516" height="50.215" transform="translate(20.071 42.398)" fill="#6bc4a6" opacity="0.25" style="mix-blend-mode: screen;isolation: isolate"/>
        <rect id="Rectángulo_6241" data-name="Rectángulo 6241" width="199.516" height="16.967" transform="translate(20.071 67.505)" fill="#6bc4a6" opacity="0.25" style="mix-blend-mode: screen;isolation: isolate"/>
        <path id="Trazado_116500" data-name="Trazado 116500" d="M1925.04,1446.166h60.3a4.063,4.063,0,0,0-4.063-4.063H1929.1A4.063,4.063,0,0,0,1925.04,1446.166Z" transform="translate(-1835.386 -1442.103)" fill="#162f42"/>
        <path id="Trazado_116501" data-name="Trazado 116501" d="M2165.889,1487.7a1.867,1.867,0,0,0-1.867,1.867v13.379h-26.536V1489.57a1.867,1.867,0,0,0-3.734,0v116.559a1.867,1.867,0,1,0,3.734,0v-13.573h26.536v13.573a1.867,1.867,0,1,0,3.733,0V1489.57A1.867,1.867,0,0,0,2165.889,1487.7Zm-1.867,101.119h-26.536v-17.735h26.536Zm0-21.468h-26.536v-17.735h26.536Zm0-21.468h-26.536V1528.15h26.536Zm0-21.468h-26.536v-17.735h26.536Z" transform="translate(-1981.443 -1474.014)" fill="#162f42"/>
        <g id="Grupo_59829" data-name="Grupo 59829" transform="translate(50.607 44.301)">
          <path id="Trazado_116502" data-name="Trazado 116502" d="M1796.926,1611.042a1.949,1.949,0,0,1-1.688-2.922l10.088-17.473a1.948,1.948,0,0,1,3.375,0l10.088,17.472a1.949,1.949,0,0,1-1.687,2.923Z" transform="translate(-1794.974 -1589.673)" fill="#fce144"/>
          <path id="Trazado_116503" data-name="Trazado 116503" d="M1799.065,1612.262a1.031,1.031,0,0,1-.894-1.547l10.088-17.473a1.032,1.032,0,0,1,1.788,0l10.088,17.473a1.032,1.032,0,0,1-.894,1.547Zm10.088-18.2a.443.443,0,0,0-.392.226l-9.454,16.376a.453.453,0,0,0,.392.679h18.909a.453.453,0,0,0,.392-.679l-9.455-16.376A.441.441,0,0,0,1809.153,1594.066Z" transform="translate(-1797.113 -1591.809)" fill="#162f42"/>
          <g id="Grupo_59828" data-name="Grupo 59828" transform="translate(11.209 6.193)">
            <path id="Trazado_116504" data-name="Trazado 116504" d="M1833.142,1610.3a.831.831,0,0,0-.831.831v7.061a.831.831,0,0,0,1.661,0v-7.061A.831.831,0,0,0,1833.142,1610.3Z" transform="translate(-1832.311 -1610.303)" fill="#162f42"/>
            <path id="Trazado_116505" data-name="Trazado 116505" d="M1833.142,1644.89a.831.831,0,1,0,.831.831A.831.831,0,0,0,1833.142,1644.89Z" transform="translate(-1832.311 -1634.507)" fill="#162f42"/>
          </g>
        </g>
        <g id="Grupo_59831" data-name="Grupo 59831" transform="translate(24.7 44.276)">
          <rect id="Rectángulo_6242" data-name="Rectángulo 6242" width="21.42" height="21.42" rx="6.524" fill="#fce144"/>
          <path id="Trazado_116506" data-name="Trazado 116506" d="M1730.868,1593.49h-17.5a.788.788,0,0,0-.787.787v17.5a.788.788,0,0,0,.787.787h17.5a.788.788,0,0,0,.787-.787v-17.5A.788.788,0,0,0,1730.868,1593.49Zm-.217,18.073h-17.069v-17.069h17.069Z" transform="translate(-1711.406 -1592.319)" fill="#162f42"/>
          <g id="Grupo_59830" data-name="Grupo 59830" transform="translate(4.799 3.077)">
            <path id="Trazado_116507" data-name="Trazado 116507" d="M1733.283,1602.135c.474,1.529-.087,2.809.013,3.969a14.134,14.134,0,0,0-3.71-6.252.059.059,0,0,0-.09.07,6.879,6.879,0,0,1-.779,6.256,15.363,15.363,0,0,0-1.4,2.93,4.152,4.152,0,0,0-.2,1.044,4.921,4.921,0,0,1-.2-1.6,3.9,3.9,0,0,0-.777,1.331,3.125,3.125,0,0,0,.237,2.808,1.952,1.952,0,0,0,.6.465,11.751,11.751,0,0,0,2.87.381c-1.641-2.713.749-5.293,1.326-7.723,2.332,1.929,3.419,5.831,1.956,7.538,1.807.185,2.4-.33,2.771-.787C1738.028,1609.972,1736.943,1606.494,1733.283,1602.135Z" transform="translate(-1725.532 -1599.837)" fill="#162f42"/>
            <path id="Trazado_116508" data-name="Trazado 116508" d="M1736.012,1647.543h-10.877a.473.473,0,0,0,0,.945h10.877a.473.473,0,0,0,0-.945Z" transform="translate(-1724.662 -1633.222)" fill="#162f42"/>
          </g>
        </g>
        <g id="Grupo_59833" data-name="Grupo 59833" transform="translate(24.87 18.776)">
          <rect id="Rectángulo_6243" data-name="Rectángulo 6243" width="43.077" height="19.964" rx="5.09" fill="#fce144"/>
          <g id="Grupo_59832" data-name="Grupo 59832" transform="translate(3.184 2.768)">
            <path id="Trazado_116509" data-name="Trazado 116509" d="M1725.8,1522.7h2.659v2.928a9.611,9.611,0,0,1-1.891.192,3.239,3.239,0,0,1-2.722-1.205,5.6,5.6,0,0,1-.936-3.489,5.028,5.028,0,0,1,1.161-3.485,3.949,3.949,0,0,1,3.091-1.3,7.064,7.064,0,0,1,3.2.768l.989-2.381a10.426,10.426,0,0,0-4.166-.864,7.381,7.381,0,0,0-5.39,1.9,7.07,7.07,0,0,0-1.944,5.3,7.766,7.766,0,0,0,1.675,5.362,6.181,6.181,0,0,0,4.853,1.867,16.622,16.622,0,0,0,2.443-.177,15.672,15.672,0,0,0,2.549-.619v-7.276H1725.8Z" transform="translate(-1719.847 -1513.866)" fill="#162f42"/>
            <path id="Trazado_116510" data-name="Trazado 116510" d="M1768.416,1514.345l-4.953,14.093h3.206l1.017-3.341h5.117l1.018,3.341h3.206l-4.972-14.093Zm.019,8.256q1.5-4.848,1.814-6.076.077.345.255.941t1.589,5.136Z" transform="translate(-1750.369 -1514.201)" fill="#162f42"/>
            <path id="Trazado_116511" data-name="Trazado 116511" d="M1820.073,1521.886a7.516,7.516,0,0,0-2.7-1.886,17.935,17.935,0,0,1-1.886-.984,2,2,0,0,1-.581-.566,1.272,1.272,0,0,1-.182-.687,1.3,1.3,0,0,1,.451-1.027,1.913,1.913,0,0,1,1.3-.394,5.976,5.976,0,0,1,1.445.182,14,14,0,0,1,1.858.643l.96-2.314a14.411,14.411,0,0,0-2.078-.73,8.248,8.248,0,0,0-2.088-.259,5.243,5.243,0,0,0-3.489,1.066,3.627,3.627,0,0,0-1.263,2.928,3.7,3.7,0,0,0,.384,1.728,4.357,4.357,0,0,0,1.027,1.3,8.612,8.612,0,0,0,1.93,1.162,17.442,17.442,0,0,1,1.819.95,2.591,2.591,0,0,1,.677.619,1.231,1.231,0,0,1,.23.735,1.281,1.281,0,0,1-.523,1.113,2.558,2.558,0,0,1-1.5.374,7.111,7.111,0,0,1-1.8-.259,16.389,16.389,0,0,1-2.4-.893v2.765a8.935,8.935,0,0,0,3.974.844,5.945,5.945,0,0,0,3.807-1.094,3.628,3.628,0,0,0,1.368-3A3.684,3.684,0,0,0,1820.073,1521.886Z" transform="translate(-1784.093 -1513.866)" fill="#162f42"/>
          </g>
        </g>
      </g>
      <g id="Grupo_59846" data-name="Grupo 59846" transform="translate(387.713 1500.408)">
        <g id="Grupo_59844" data-name="Grupo 59844" transform="translate(0 10.225)">
          <path id="Trazado_116537" data-name="Trazado 116537" d="M605.689,1670.381H545.715s-7.794,10.364-8.418,14.242c-1.75,10.872-1.037,34.374-1.037,53.067,0,17.54,2.99,37.985,4.8,48.777a9.076,9.076,0,0,0,8.953,7.571h51.055A9.076,9.076,0,0,0,610,1786.59a284.324,284.324,0,0,0,4.675-48.9c0-21.713.761-43.519-1-53.486C613.041,1680.6,605.689,1670.381,605.689,1670.381Z" transform="translate(-536.116 -1670.381)" fill="#008b61"/>
          <path id="Trazado_116538" data-name="Trazado 116538" d="M703.531,1684.2c-.637-3.6-7.989-13.822-7.989-13.822H675s7.352,10.218,7.989,13.822c1.76,9.968,1,31.773,1,53.486a284.332,284.332,0,0,1-4.675,48.9,9.075,9.075,0,0,1-8.931,7.448h20.539a9.076,9.076,0,0,0,8.931-7.448,284.361,284.361,0,0,0,4.675-48.9C704.53,1715.976,705.291,1694.171,703.531,1684.2Z" transform="translate(-630.077 -1670.381)" fill="#008b61" opacity="0.5" style="mix-blend-mode: multiply;isolation: isolate"/>
          <g id="Grupo_59843" data-name="Grupo 59843" transform="translate(14.572 39.875)">
            <path id="Trazado_116539" data-name="Trazado 116539" d="M633.743,1841.636l-21.133-36.6a3.652,3.652,0,0,0-6.325,0l-21.133,36.6a3.652,3.652,0,0,0,3.163,5.478H630.58A3.652,3.652,0,0,0,633.743,1841.636Z" transform="translate(-584.657 -1803.208)" fill="#fce144"/>
            <path id="Trazado_116540" data-name="Trazado 116540" d="M635.615,1845.246l-21.133-36.6a2.377,2.377,0,0,0-4.117,0l-21.132,36.6a2.377,2.377,0,0,0,2.058,3.565h42.265a2.377,2.377,0,0,0,2.058-3.565Zm-1.38,1.58a.756.756,0,0,1-.678.391H591.292a.783.783,0,0,1-.678-1.174l21.132-36.6a.783.783,0,0,1,1.356,0l21.133,36.6A.756.756,0,0,1,634.235,1846.826Z" transform="translate(-587.634 -1806.18)" fill="#001a0f"/>
            <g id="Grupo_59842" data-name="Grupo 59842" transform="translate(14.045 18.304)">
              <path id="Trazado_116541" data-name="Trazado 116541" d="M638.948,1873.443a3.238,3.238,0,0,1,1.6-2.8l-3.735-6.469a10.74,10.74,0,0,0-5.372,9.307h7.505C638.948,1873.47,638.948,1873.457,638.948,1873.443Z" transform="translate(-631.443 -1864.178)" fill="#001a0f"/>
              <path id="Trazado_116542" data-name="Trazado 116542" d="M674.293,1873.443c0,.014,0,.028,0,.042H681.8a10.741,10.741,0,0,0-5.372-9.307l-3.735,6.469A3.239,3.239,0,0,1,674.293,1873.443Z" transform="translate(-660.308 -1864.178)" fill="#001a0f"/>
              <path id="Trazado_116543" data-name="Trazado 116543" d="M654.709,1904.845a3.226,3.226,0,0,1-1.6-.424l-3.771,6.532a10.756,10.756,0,0,0,10.746,0l-3.771-6.532A3.227,3.227,0,0,1,654.709,1904.845Z" transform="translate(-643.964 -1892.34)" fill="#001a0f"/>
              <path id="Trazado_116544" data-name="Trazado 116544" d="M661.671,1891.167a1.67,1.67,0,0,0,3.34,0c0-.007,0-.015,0-.025a1.671,1.671,0,0,0-3.341,0C661.67,1891.152,661.671,1891.159,661.671,1891.167Z" transform="translate(-652.596 -1881.881)" fill="#001a0f"/>
              <path id="Trazado_116545" data-name="Trazado 116545" d="M661.67,1895.036h0Z" transform="translate(-652.596 -1885.771)" fill="#001a0f"/>
            </g>
            <path id="Trazado_116546" data-name="Trazado 116546" d="M724.073,1891.943l-9.727-16.848q-.015,2.919-.016,5.853c0,5.642-.226,11.19-.591,16.473h7.172A3.652,3.652,0,0,0,724.073,1891.943Z" transform="translate(-674.987 -1853.514)" fill="#fce144" opacity="0.75" style="mix-blend-mode: multiply;isolation: isolate"/>
          </g>
          <path id="Trazado_116547" data-name="Trazado 116547" d="M732.257,1684.2c-.637-3.6-7.989-13.822-7.989-13.822h-8.216s7.352,10.218,7.989,13.822c1.76,9.968,1,31.773,1,53.486a284.363,284.363,0,0,1-4.675,48.9,9.076,9.076,0,0,1-8.931,7.448h8.216a9.076,9.076,0,0,0,8.931-7.448,284.369,284.369,0,0,0,4.675-48.9C733.257,1715.976,734.018,1694.171,732.257,1684.2Z" transform="translate(-658.803 -1670.381)" fill="#008b61" opacity="0.25" style="mix-blend-mode: multiply;isolation: isolate"/>
          <path id="Trazado_116548" data-name="Trazado 116548" d="M550.962,1684.2c.637-3.6,7.989-13.822,7.989-13.822H583.6s6.164,10.024,3.871,13.852H559.178c-1.76,9.968-1,31.744-1,53.457a284.331,284.331,0,0,0,4.675,48.9,9.075,9.075,0,0,0,8.931,7.448h-8.216a9.075,9.075,0,0,1-8.931-7.448,284.331,284.331,0,0,1-4.675-48.9C549.963,1715.976,549.2,1694.171,550.962,1684.2Z" transform="translate(-545.691 -1670.381)" fill="#008b61" opacity="0.5" style="mix-blend-mode: screen;isolation: isolate"/>
          <path id="Trazado_116549" data-name="Trazado 116549" d="M626.92,1671.516c-.491-.706-.8-1.135-.8-1.135H566.146s-.322.428-.835,1.135Z" transform="translate(-556.546 -1670.381)" fill="#008b61" style="mix-blend-mode: multiply;isolation: isolate"/>
        </g>
        <g id="Grupo_59845" data-name="Grupo 59845" transform="translate(7.489 0)">
          <path id="Trazado_116550" data-name="Trazado 116550" d="M623.259,1658.824H562.59a1.749,1.749,0,0,0,0,3.469h60.669a1.749,1.749,0,0,0,0-3.469Z" transform="translate(-561.061 -1652.068)" fill="#a5b7b1"/>
          <path id="Trazado_116551" data-name="Trazado 116551" d="M623.259,1658.824H562.59a1.642,1.642,0,0,0-1.529,1.735h63.728A1.642,1.642,0,0,0,623.259,1658.824Z" transform="translate(-561.061 -1652.068)" fill="#d1d1d1" opacity="0.5" style="mix-blend-mode: screen;isolation: isolate"/>
          <path id="Trazado_116552" data-name="Trazado 116552" d="M621.612,1636.32H571.095c-2.836,0-5.135,3.025-5.135,6.756h60.786C626.746,1639.345,624.447,1636.32,621.612,1636.32Z" transform="translate(-564.489 -1636.32)" fill="#001a0f"/>
          <path id="Trazado_116553" data-name="Trazado 116553" d="M589.585,1660.687H569a.953.953,0,1,0,0,1.906h20.585a.953.953,0,1,0,0-1.906Z" transform="translate(-565.95 -1653.372)" fill="#d1d1d1" style="mix-blend-mode: screen;isolation: isolate"/>
        </g>
      </g>
      <g id="Grupo_59853" data-name="Grupo 59853" transform="translate(628.913 1541.669)">
        <g id="Grupo_59847" data-name="Grupo 59847" transform="translate(59.789 1.326)">
          <path id="Trazado_116554" data-name="Trazado 116554" d="M1693.473,1778.179h-14.839a7.512,7.512,0,0,1,7.512,7.512v71.872a7.512,7.512,0,0,1-7.512,7.512h14.839a7.512,7.512,0,0,0,7.512-7.512v-71.872A7.512,7.512,0,0,0,1693.473,1778.179Z" transform="translate(-1678.634 -1778.179)" fill="#fce144"/>
          <path id="Trazado_116555" data-name="Trazado 116555" d="M1693.473,1778.179h-14.839a7.512,7.512,0,0,1,7.512,7.512v71.872a7.512,7.512,0,0,1-7.512,7.512h14.839a7.512,7.512,0,0,0,7.512-7.512v-71.872A7.512,7.512,0,0,0,1693.473,1778.179Z" transform="translate(-1678.634 -1778.179)" fill="#fce144" style="mix-blend-mode: multiply;isolation: isolate"/>
        </g>
        <path id="Trazado_116556" data-name="Trazado 116556" d="M1542.991,1778.179H1512.6a7.481,7.481,0,0,0-5.032,1.945l-20.315,17.023a7.48,7.48,0,0,0-2.448,5.535v54.881a7.512,7.512,0,0,0,7.512,7.512h50.677a7.512,7.512,0,0,0,7.512-7.512v-71.872A7.512,7.512,0,0,0,1542.991,1778.179Zm-.309,6.589a9.01,9.01,0,0,1-8.916,7.717H1506.1a1.115,1.115,0,0,1-.709-1.977l7.9-6.5a2.34,2.34,0,0,1,1.487-.533h26.8A1.121,1.121,0,0,1,1542.681,1784.768Z" transform="translate(-1483.201 -1776.853)" fill="#fce144"/>
        <g id="Grupo_59848" data-name="Grupo 59848" transform="translate(21.779 6.624)">
          <path id="Trazado_116557" data-name="Trazado 116557" d="M1560.239,1802.86l7.9-6.5a2.339,2.339,0,0,1,1.487-.533h-7.81a2.34,2.34,0,0,0-1.487.533l-7.9,6.5a1.115,1.115,0,0,0,.709,1.977h7.81A1.116,1.116,0,0,1,1560.239,1802.86Z" transform="translate(-1552.021 -1795.829)" fill="#fce144"/>
          <path id="Trazado_116558" data-name="Trazado 116558" d="M1560.239,1802.86l7.9-6.5a2.339,2.339,0,0,1,1.487-.533h-7.81a2.34,2.34,0,0,0-1.487.533l-7.9,6.5a1.115,1.115,0,0,0,.709,1.977h7.81A1.116,1.116,0,0,1,1560.239,1802.86Z" transform="translate(-1552.021 -1795.829)" fill="#fce144" style="mix-blend-mode: multiply;isolation: isolate"/>
        </g>
        <path id="Trazado_116559" data-name="Trazado 116559" d="M1542.991,1778.179H1512.6a7.481,7.481,0,0,0-5.032,1.945l-20.315,17.023a7.454,7.454,0,0,0-1.383,1.7h0l-.02.035c-.056.095-.108.192-.16.289-.033.063-.066.125-.1.188q-.069.141-.133.284c-.032.072-.062.144-.092.217-.037.091-.074.182-.107.274s-.058.169-.086.254-.056.168-.08.253c-.032.113-.059.228-.086.342-.013.053-.029.106-.04.159h0a7.444,7.444,0,0,0-.162,1.543v54.881a7.512,7.512,0,0,0,7.512,7.512h2.637v-57.843a6.093,6.093,0,0,1,6.094-6.093h18.7a20.828,20.828,0,0,0,17.336-9.286,8.98,8.98,0,0,1-3.316.632H1506.1a1.115,1.115,0,0,1-.709-1.977l7.9-6.5a2.342,2.342,0,0,1,1.487-.533h26.8c.033,0,.063.008.095.01l2.769-5.168A7.546,7.546,0,0,0,1542.991,1778.179Z" transform="translate(-1483.201 -1776.853)" fill="#fce144" style="mix-blend-mode: screen;isolation: isolate"/>
        <g id="Grupo_59849" data-name="Grupo 59849" transform="translate(4.366 4.669)">
          <rect id="Rectángulo_6244" data-name="Rectángulo 6244" width="12.389" height="5.696" transform="translate(0 7.925) rotate(-39.765)" fill="#fce144"/>
          <rect id="Rectángulo_6245" data-name="Rectángulo 6245" width="12.389" height="5.696" transform="translate(0 7.925) rotate(-39.765)" fill="#fce144" style="mix-blend-mode: multiply;isolation: isolate"/>
        </g>
        <g id="Grupo_59850" data-name="Grupo 59850" transform="translate(0)">
          <path id="Trazado_116560" data-name="Trazado 116560" d="M1492.309,1773.836a.372.372,0,0,0-.458.013l-12.244,10.191a.371.371,0,0,0-.1.448,14.524,14.524,0,0,0,4.419,5.31.371.371,0,0,0,.458-.013l12.244-10.19a.372.372,0,0,0,.1-.449A14.524,14.524,0,0,0,1492.309,1773.836Z" transform="translate(-1479.473 -1773.763)" fill="#162f42"/>
          <path id="Trazado_116561" data-name="Trazado 116561" d="M1484.736,1800.41a.372.372,0,0,1,.1-.448l1.9-1.58a.372.372,0,0,0-.1.449,14.52,14.52,0,0,0,4.419,5.309.371.371,0,0,0,.458-.013l-1.9,1.581a.372.372,0,0,1-.458.013A14.523,14.523,0,0,1,1484.736,1800.41Z" transform="translate(-1483.13 -1790.99)" fill="#162f42" opacity="0.5" style="mix-blend-mode: screen;isolation: isolate"/>
        </g>
        <g id="Grupo_59852" data-name="Grupo 59852" transform="translate(26.993 37.775)">
          <rect id="Rectángulo_6246" data-name="Rectángulo 6246" width="27.285" height="36.079" rx="8.338" fill="#27455b"/>
          <path id="Trazado_116562" data-name="Trazado 116562" d="M1600.365,1930.834a6.213,6.213,0,0,1-6.206-6.206c0-3.422,6.206-10.629,6.206-10.629s6.206,7.207,6.206,10.629A6.213,6.213,0,0,1,1600.365,1930.834Z" transform="translate(-1586.723 -1909.675)" fill="#fce144"/>
          <g id="Grupo_59851" data-name="Grupo 59851" transform="translate(6.958 25.407)">
            <path id="Trazado_116563" data-name="Trazado 116563" d="M1595.413,1984.228a2.756,2.756,0,0,0-2.112.786,3.209,3.209,0,0,0-.736,2.276,3.249,3.249,0,0,0,.735,2.285,3.185,3.185,0,0,0,4.212,0,3.91,3.91,0,0,0,.006-4.555A2.717,2.717,0,0,0,1595.413,1984.228Zm-.008,5.081a1.328,1.328,0,0,1-1.135-.506,3.167,3.167,0,0,1,0-3.014,1.337,1.337,0,0,1,1.139-.508q1.506,0,1.506,2.016T1595.4,1989.309Z" transform="translate(-1592.564 -1984.228)" fill="#fce144"/>
            <rect id="Rectángulo_6247" data-name="Rectángulo 6247" width="1.265" height="5.967" transform="translate(6.918 0.094)" fill="#fce144"/>
            <path id="Trazado_116564" data-name="Trazado 116564" d="M1626.089,1989.463v-4.922h-1.265v5.967h3.685v-1.045Z" transform="translate(-1615.14 -1984.447)" fill="#fce144"/>
          </g>
        </g>
      </g>
      <g id="Grupo_59859" data-name="Grupo 59859" transform="translate(496.119 1539.749)">
        <g id="Grupo_59855" data-name="Grupo 59855" transform="translate(18.183)">
          <path id="Trazado_116565" data-name="Trazado 116565" d="M1011.5,1767.635a.388.388,0,0,0-.383-.267h-26.43a.388.388,0,0,0-.383.267,12.225,12.225,0,0,0,0,6.52.388.388,0,0,0,.383.267h26.43a.388.388,0,0,0,.383-.267A12.226,12.226,0,0,0,1011.5,1767.635Z" transform="translate(-983.859 -1767.368)" fill="#162f42"/>
          <g id="Grupo_59854" data-name="Grupo 59854" transform="translate(2.814 1.14)">
            <path id="Trazado_116566" data-name="Trazado 116566" d="M994.182,1771.165a.9.9,0,0,0-.951.846v5.069h1.9v-5.069A.9.9,0,0,0,994.182,1771.165Z" transform="translate(-993.231 -1771.165)" fill="#162f42" style="mix-blend-mode: screen;isolation: isolate"/>
            <path id="Trazado_116567" data-name="Trazado 116567" d="M1011.3,1771.165a.9.9,0,0,0-.951.846v5.069h1.9v-5.069A.9.9,0,0,0,1011.3,1771.165Z" transform="translate(-1005.208 -1771.165)" fill="#162f42" style="mix-blend-mode: screen;isolation: isolate"/>
            <path id="Trazado_116568" data-name="Trazado 116568" d="M1028.412,1771.165a.9.9,0,0,0-.951.846v5.069h1.9v-5.069A.9.9,0,0,0,1028.412,1771.165Z" transform="translate(-1017.185 -1771.165)" fill="#162f42" style="mix-blend-mode: screen;isolation: isolate"/>
            <path id="Trazado_116569" data-name="Trazado 116569" d="M1045.527,1771.165a.9.9,0,0,0-.952.846v5.069h1.9v-5.069A.9.9,0,0,0,1045.527,1771.165Z" transform="translate(-1029.161 -1771.165)" fill="#162f42" style="mix-blend-mode: screen;isolation: isolate"/>
            <path id="Trazado_116570" data-name="Trazado 116570" d="M1062.642,1771.165a.9.9,0,0,0-.952.846v5.069h1.9v-5.069A.9.9,0,0,0,1062.642,1771.165Z" transform="translate(-1041.138 -1771.165)" fill="#162f42" style="mix-blend-mode: screen;isolation: isolate"/>
          </g>
        </g>
        <path id="Trazado_116571" data-name="Trazado 116571" d="M987.738,1804.223c0-7.377-9.142-13.357-19.009-13.357H942.3c-9.867,0-19.009,5.98-19.009,13.357h0v60.849a9,9,0,0,0,9,9h47.5a7.954,7.954,0,0,0,7.954-7.954v-61.893Z" transform="translate(-923.291 -1783.812)" fill="#162f42"/>
        <path id="Trazado_116572" data-name="Trazado 116572" d="M968.73,1790.866H942.3c-9.867,0-19.009,5.98-19.009,13.357h64.447C987.738,1796.846,978.6,1790.866,968.73,1790.866Z" transform="translate(-923.291 -1783.812)" fill="#27455b"/>
        <g id="Grupo_59857" data-name="Grupo 59857" transform="translate(5.588 20.898)">
          <rect id="Rectángulo_6248" data-name="Rectángulo 6248" width="54.14" height="8.712" transform="translate(0 21.038) rotate(-22.866)" fill="#ff982b"/>
          <g id="Grupo_59856" data-name="Grupo 59856" transform="translate(1.898 2.175)">
            <path id="Trazado_116573" data-name="Trazado 116573" d="M949.942,1906.253l-1.716.724,2.305,5.466,1.548-.653a3.4,3.4,0,0,0,1.916-1.654,2.921,2.921,0,0,0-.1-2.391,2.821,2.821,0,0,0-1.573-1.662A3.137,3.137,0,0,0,949.942,1906.253Zm1.842,4.535-.5.21-1.5-3.56.617-.26q1.555-.656,2.3,1.105A1.669,1.669,0,0,1,951.784,1910.788Z" transform="translate(-948.226 -1887.4)" fill="#162f42"/>
            <path id="Trazado_116574" data-name="Trazado 116574" d="M971.211,1898.264l.385,6.3,1.249-.527-.153-1.468,1.993-.841.945,1.134,1.249-.527-4.251-4.672Zm1.364,3.213q-.212-2.134-.292-2.665.087.122.254.325t1.463,1.739Z" transform="translate(-964.311 -1881.623)" fill="#162f42"/>
            <path id="Trazado_116575" data-name="Trazado 116575" d="M989.6,1890.269q.186.441.692,1.483l-.026.011-4.1-3.093-1.462.616,2.305,5.466,1.036-.437-1.085-2.573q-.2-.467-.73-1.533l.034-.014,4.122,3.132,1.473-.621-2.305-5.467-1.043.44Z" transform="translate(-973.755 -1874.328)" fill="#162f42"/>
            <path id="Trazado_116576" data-name="Trazado 116576" d="M1010.326,1884.231l1.036-.437.481,1.14a4.045,4.045,0,0,1-.705.385,1.368,1.368,0,0,1-1.258-.022,2.365,2.365,0,0,1-.938-1.205,2.124,2.124,0,0,1-.12-1.548,1.669,1.669,0,0,1,.991-1.013,2.989,2.989,0,0,1,1.371-.226l-.006-1.09a4.409,4.409,0,0,0-1.765.348,3.119,3.119,0,0,0-1.787,1.626,2.989,2.989,0,0,0,.113,2.383,3.283,3.283,0,0,0,1.533,1.813,2.612,2.612,0,0,0,2.2-.07,6.99,6.99,0,0,0,.922-.471,6.628,6.628,0,0,0,.891-.66l-1.2-2.834-2.169.914Z" transform="translate(-989.656 -1869.412)" fill="#162f42"/>
            <path id="Trazado_116577" data-name="Trazado 116577" d="M1026.22,1879.891l3.148-1.328-.4-.957-1.989.839-.594-1.41,1.851-.781-.4-.95-1.851.781-.506-1.2,1.989-.839-.4-.95-3.148,1.328Z" transform="translate(-1001.193 -1864.429)" fill="#162f42"/>
            <path id="Trazado_116578" data-name="Trazado 116578" d="M1042.764,1870.153a1.755,1.755,0,0,0-1.151-1.977,2.96,2.96,0,0,0-1.82.29l-1.593.672,2.305,5.466,1.159-.489-.885-2.1.617-.26,2.19,1.547,1.286-.542q-.6-.38-2.612-1.7A1.906,1.906,0,0,0,1042.764,1870.153Zm-1.273.24a1.55,1.55,0,0,1-.734.525l-.374.158-.623-1.477.351-.148a1.762,1.762,0,0,1,.9-.185.649.649,0,0,1,.5.441A.709.709,0,0,1,1041.491,1870.392Z" transform="translate(-1011.19 -1860.951)" fill="#162f42"/>
            <path id="Trazado_116579" data-name="Trazado 116579" d="M1058.661,1860.107a2.738,2.738,0,0,0-1.631,1.536,3.187,3.187,0,0,0,.2,2.369,3.231,3.231,0,0,0,1.556,1.81,3.166,3.166,0,0,0,3.859-1.627,3.888,3.888,0,0,0-1.754-4.175A2.7,2.7,0,0,0,1058.661,1860.107Zm1.956,4.658a1.32,1.32,0,0,1-1.235-.025,3.149,3.149,0,0,1-1.161-2.763,1.329,1.329,0,0,1,.847-.905q1.38-.582,2.159,1.265T1060.616,1864.765Z" transform="translate(-1024.264 -1855.137)" fill="#162f42"/>
            <path id="Trazado_116580" data-name="Trazado 116580" d="M1079.957,1853.408a1.528,1.528,0,0,1,.137,1.041,1.12,1.12,0,0,1-.7.645,1.147,1.147,0,0,1-.966.06,1.52,1.52,0,0,1-.645-.82l-1.411-3.346-1.156.487L1076.7,1855a2.08,2.08,0,0,0,1.207,1.233,2.518,2.518,0,0,0,1.865-.15,3.044,3.044,0,0,0,1.109-.754,1.914,1.914,0,0,0,.489-1.03,2.215,2.215,0,0,0-.177-1.176l-1.492-3.537-1.155.487Z" transform="translate(-1037.094 -1847.974)" fill="#162f42"/>
            <path id="Trazado_116581" data-name="Trazado 116581" d="M1099.314,1847.073a3.177,3.177,0,0,0-1.36-.292,7.55,7.55,0,0,1-.9-.073.847.847,0,0,1-.319-.125.54.54,0,0,1-.184-.237.55.55,0,0,1,.007-.474.81.81,0,0,1,.44-.366,2.529,2.529,0,0,1,.593-.166,5.92,5.92,0,0,1,.829-.055l-.006-1.059a6.069,6.069,0,0,0-.929.057,3.485,3.485,0,0,0-.856.242,2.218,2.218,0,0,0-1.184.988,1.532,1.532,0,0,0-.011,1.348,1.565,1.565,0,0,0,.433.61,1.844,1.844,0,0,0,.613.336,3.631,3.631,0,0,0,.942.136,7.4,7.4,0,0,1,.865.071,1.1,1.1,0,0,1,.365.13.522.522,0,0,1,.21.248.541.541,0,0,1-.021.52,1.08,1.08,0,0,1-.524.393,3.015,3.015,0,0,1-.744.195,6.934,6.934,0,0,1-1.083.047l.454,1.077a3.777,3.777,0,0,0,1.687-.324,2.514,2.514,0,0,0,1.3-1.052,1.534,1.534,0,0,0,.041-1.391A1.554,1.554,0,0,0,1099.314,1847.073Z" transform="translate(-1051.139 -1844.225)" fill="#162f42"/>
          </g>
        </g>
        <g id="Grupo_59858" data-name="Grupo 59858" transform="translate(18.682 49.076)">
          <path id="Trazado_116582" data-name="Trazado 116582" d="M1007.006,1944.569a1.03,1.03,0,0,0,.565.853c.058.029.118.062.179.1.706.393,1.536,1.089,1.536,1.846h0a.929.929,0,0,0,.929.929h4.76a.929.929,0,0,0,.929-.929c0-.752.875-1.452,1.537-1.846l.052-.031a1.466,1.466,0,0,0,.711-1.136,8.407,8.407,0,0,1,1.219-3.556,6.075,6.075,0,0,0,.908-3.183c0-3.739-3.463-6.769-7.736-6.769s-7.736,3.031-7.736,6.769a6.075,6.075,0,0,0,.908,3.183A8.359,8.359,0,0,1,1007.006,1944.569Zm7.106-5.749c0-.7.765-1.273,1.708-1.273s1.708.57,1.708,1.273v1.152c0,.7-.765,1.273-1.708,1.273s-1.708-.57-1.708-1.273Zm-2.68,5.523.949-2.267a.234.234,0,0,1,.432,0l.949,2.267a.335.335,0,0,1-.31.465h-1.711A.335.335,0,0,1,1011.432,1944.344Zm-3.767-5.523c0-.7.765-1.273,1.708-1.273s1.708.57,1.708,1.273v1.152c0,.7-.765,1.273-1.708,1.273s-1.708-.57-1.708-1.273Z" transform="translate(-999.054 -1930.842)" fill="#fff"/>
          <path id="Trazado_116583" data-name="Trazado 116583" d="M1011.579,1997.741a1.393,1.393,0,0,0-1.221.239,2.063,2.063,0,0,1-1.789.374l-5.811-1.775,5.811-1.775a2.062,2.062,0,0,1,1.789.374,2.5,2.5,0,1,0-.986-3.678,2.063,2.063,0,0,1-1.363,1.218l-8.947,2.732-8.947-2.732a2.062,2.062,0,0,1-1.363-1.218,2.5,2.5,0,1,0-.986,3.678,2.063,2.063,0,0,1,1.789-.374l5.811,1.775-5.811,1.775a2.064,2.064,0,0,1-1.789-.374,2.5,2.5,0,1,0,.986,3.678,2.062,2.062,0,0,1,1.363-1.219l8.947-2.732,8.947,2.732a2.062,2.062,0,0,1,1.363,1.219,2.254,2.254,0,0,0,2.206-3.917Z" transform="translate(-985.521 -1972.687)" fill="#fff"/>
        </g>
        <path id="Trazado_116584" data-name="Trazado 116584" d="M1034.89,1790.866h-13.776c9.866,0,19.008,5.98,19.008,13.357v61.893a7.954,7.954,0,0,1-7.954,7.954h13.776a7.954,7.954,0,0,0,7.954-7.954v-61.893C1053.9,1796.846,1044.756,1790.866,1034.89,1790.866Z" transform="translate(-991.747 -1783.812)" fill="#162f42" opacity="0.25" style="mix-blend-mode: multiply;isolation: isolate"/>
        <path id="Trazado_116585" data-name="Trazado 116585" d="M1056.3,1790.866h-4.592c9.866,0,19.008,5.98,19.008,13.357v61.893a7.954,7.954,0,0,1-7.954,7.954h4.592a7.954,7.954,0,0,0,7.954-7.954v-61.893C1075.306,1796.846,1066.165,1790.866,1056.3,1790.866Z" transform="translate(-1013.155 -1783.812)" fill="#162f42" opacity="0.25" style="mix-blend-mode: multiply;isolation: isolate"/>
        <path id="Trazado_116586" data-name="Trazado 116586" d="M953.1,1790.866h4.592c-9.867,0-19.008,5.98-19.008,13.357v61.893a7.954,7.954,0,0,0,7.954,7.954h-4.592a7.954,7.954,0,0,1-7.954-7.954v-61.893C934.087,1796.846,943.229,1790.866,953.1,1790.866Z" transform="translate(-930.846 -1783.812)" fill="#162f42" style="mix-blend-mode: screen;isolation: isolate"/>
      </g>
      <g id="Grupo_59866" data-name="Grupo 59866" transform="translate(888.231 1491.747)">
        <g id="Grupo_59860" data-name="Grupo 59860" transform="translate(2.167 6.602)">
          <rect id="Rectángulo_6249" data-name="Rectángulo 6249" width="81.109" height="113.999" fill="#adc114"/>
          <rect id="Rectángulo_6250" data-name="Rectángulo 6250" width="12.233" height="113.999" transform="translate(4.333)" fill="#adc114" opacity="0.75" style="mix-blend-mode: screen;isolation: isolate"/>
          <rect id="Rectángulo_6251" data-name="Rectángulo 6251" width="19.977" height="113.999" transform="translate(58.366)" fill="#adc114" opacity="0.5" style="mix-blend-mode: multiply;isolation: isolate"/>
          <rect id="Rectángulo_6252" data-name="Rectángulo 6252" width="12.233" height="113.999" transform="translate(66.11)" fill="#adc114" opacity="0.5" style="mix-blend-mode: multiply;isolation: isolate"/>
        </g>
        <g id="Grupo_59861" data-name="Grupo 59861" transform="translate(0 31.398)">
          <rect id="Rectángulo_6253" data-name="Rectángulo 6253" width="81.109" height="0.535" transform="translate(2.167 4.333)" fill="#adc114" style="mix-blend-mode: multiply;isolation: isolate"/>
          <path id="Trazado_116587" data-name="Trazado 116587" d="M2428.72,1714.228a2.166,2.166,0,0,0-2.167-2.167h-81.109a2.166,2.166,0,0,0-2.167,2.167h0a2.166,2.166,0,0,0,2.167,2.167h81.109a2.166,2.166,0,0,0,2.167-2.167Z" transform="translate(-2343.278 -1712.061)" fill="#adc114"/>
          <path id="Trazado_116588" data-name="Trazado 116588" d="M2426.553,1712.061h-81.109a2.166,2.166,0,0,0-2.167,2.167h85.442A2.167,2.167,0,0,0,2426.553,1712.061Z" transform="translate(-2343.278 -1712.061)" fill="#adc114" opacity="0.75" style="mix-blend-mode: screen;isolation: isolate"/>
        </g>
        <g id="Grupo_59862" data-name="Grupo 59862" transform="translate(0 90.44)">
          <rect id="Rectángulo_6254" data-name="Rectángulo 6254" width="81.109" height="0.535" transform="translate(2.167 4.333)" fill="#adc114" style="mix-blend-mode: multiply;isolation: isolate"/>
          <path id="Trazado_116589" data-name="Trazado 116589" d="M2428.72,1910.9a2.167,2.167,0,0,0-2.167-2.167h-81.109a2.167,2.167,0,0,0-2.167,2.167h0a2.167,2.167,0,0,0,2.167,2.167h81.109a2.167,2.167,0,0,0,2.167-2.167Z" transform="translate(-2343.278 -1908.732)" fill="#adc114"/>
          <path id="Trazado_116590" data-name="Trazado 116590" d="M2426.553,1908.732h-81.109a2.167,2.167,0,0,0-2.167,2.167h85.442A2.167,2.167,0,0,0,2426.553,1908.732Z" transform="translate(-2343.278 -1908.732)" fill="#adc114" opacity="0.75" style="mix-blend-mode: screen;isolation: isolate"/>
        </g>
        <g id="Grupo_59863" data-name="Grupo 59863" transform="translate(0 118.434)">
          <path id="Trazado_116591" data-name="Trazado 116591" d="M2428.72,2005.282c0-1.823-.97-3.3-2.167-3.3h-81.109c-1.2,0-2.167,1.478-2.167,3.3h0c0,1.823.97,3.3,2.167,3.3h81.109c1.2,0,2.167-1.478,2.167-3.3Z" transform="translate(-2343.278 -2001.981)" fill="#adc114"/>
          <path id="Trazado_116592" data-name="Trazado 116592" d="M2374.668,2005.282c0-1.823-.97-3.3-2.167-3.3h-12.233c-1.2,0-2.167,1.478-2.167,3.3h0c0,1.823.97,3.3,2.167,3.3H2372.5c1.2,0,2.167-1.478,2.167-3.3Z" transform="translate(-2353.652 -2001.981)" fill="#adc114" opacity="0.75" style="mix-blend-mode: screen;isolation: isolate"/>
          <path id="Trazado_116593" data-name="Trazado 116593" d="M2561.811,2005.282c0-1.823-.97-3.3-2.167-3.3h-19.779c-1.2,0-2.167,1.478-2.167,3.3h0c0,1.823.97,3.3,2.167,3.3h19.779c1.2,0,2.167-1.478,2.167-3.3Z" transform="translate(-2479.333 -2001.981)" fill="#adc114" opacity="0.5" style="mix-blend-mode: multiply;isolation: isolate"/>
          <path id="Trazado_116594" data-name="Trazado 116594" d="M2579.863,2005.282c0-1.823-.97-3.3-2.167-3.3h-12.034c-1.2,0-2.167,1.478-2.167,3.3h0c0,1.823.97,3.3,2.167,3.3H2577.7c1.2,0,2.167-1.478,2.167-3.3Z" transform="translate(-2497.385 -2001.981)" fill="#adc114" opacity="0.5" style="mix-blend-mode: multiply;isolation: isolate"/>
        </g>
        <g id="Grupo_59864" data-name="Grupo 59864" transform="translate(0 0)">
          <rect id="Rectángulo_6255" data-name="Rectángulo 6255" width="81.109" height="0.535" transform="translate(2.167 6.602)" fill="#adc114" style="mix-blend-mode: multiply;isolation: isolate"/>
          <path id="Trazado_116595" data-name="Trazado 116595" d="M2428.72,1610.772c0-1.823-.97-3.3-2.167-3.3h-81.109c-1.2,0-2.167,1.478-2.167,3.3h0c0,1.823.97,3.3,2.167,3.3h81.109c1.2,0,2.167-1.478,2.167-3.3Z" transform="translate(-2343.278 -1607.471)" fill="#adc114"/>
          <path id="Trazado_116596" data-name="Trazado 116596" d="M2374.668,1610.772c0-1.823-.97-3.3-2.167-3.3h-12.233c-1.2,0-2.167,1.478-2.167,3.3h0c0,1.823.97,3.3,2.167,3.3H2372.5c1.2,0,2.167-1.478,2.167-3.3Z" transform="translate(-2353.652 -1607.471)" fill="#adc114" opacity="0.75" style="mix-blend-mode: screen;isolation: isolate"/>
          <path id="Trazado_116597" data-name="Trazado 116597" d="M2561.811,1610.772c0-1.823-.97-3.3-2.167-3.3h-19.779c-1.2,0-2.167,1.478-2.167,3.3h0c0,1.823.97,3.3,2.167,3.3h19.779c1.2,0,2.167-1.478,2.167-3.3Z" transform="translate(-2479.333 -1607.471)" fill="#adc114" opacity="0.5" style="mix-blend-mode: multiply;isolation: isolate"/>
          <path id="Trazado_116598" data-name="Trazado 116598" d="M2579.863,1610.772c0-1.823-.97-3.3-2.167-3.3h-12.034c-1.2,0-2.167,1.478-2.167,3.3h0c0,1.823.97,3.3,2.167,3.3H2577.7c1.2,0,2.167-1.478,2.167-3.3Z" transform="translate(-2497.385 -1607.471)" fill="#adc114" opacity="0.5" style="mix-blend-mode: multiply;isolation: isolate"/>
        </g>
        <g id="Grupo_59865" data-name="Grupo 59865" transform="translate(21.286 43.582)">
          <path id="Trazado_116599" data-name="Trazado 116599" d="M2501.187,1827.773a8.314,8.314,0,0,0,.6,2.274,12.022,12.022,0,0,0,6.725-10.782q0-.321-.017-.639a8.291,8.291,0,0,0-2.279.581c0,.019,0,.038,0,.057A9.721,9.721,0,0,1,2501.187,1827.773Z" transform="translate(-2475.068 -1798.819)" fill="#001a0f"/>
          <path id="Trazado_116600" data-name="Trazado 116600" d="M2445.6,1818.627c-.011.211-.017.425-.017.639a12.023,12.023,0,0,0,6.726,10.782,7.552,7.552,0,0,0,.6-2.274,9.721,9.721,0,0,1-5.032-8.507c0-.019,0-.038,0-.057A8.281,8.281,0,0,0,2445.6,1818.627Z" transform="translate(-2436.154 -1798.819)" fill="#001a0f"/>
          <path id="Trazado_116601" data-name="Trazado 116601" d="M2464.707,1784.534a9.632,9.632,0,0,1,10.294,0,8.329,8.329,0,0,0,1.6-1.7,11.982,11.982,0,0,0-13.5,0A8.327,8.327,0,0,0,2464.707,1784.534Z" transform="translate(-2448.419 -1772.313)" fill="#001a0f"/>
          <path id="Trazado_116602" data-name="Trazado 116602" d="M2451.445,1769.119a11.409,11.409,0,0,0-5.722-1.537c-.1,0-.2,0-.3,0a11.466,11.466,0,0,0-2.685-14.94,9.174,9.174,0,1,1-14.236,0,11.467,11.467,0,0,0-2.685,14.94q-.15,0-.3,0a11.465,11.465,0,0,0-11.33,9.8,9.173,9.173,0,1,1,8.582,12.445,9.241,9.241,0,0,1-1.464-.117,11.54,11.54,0,0,0,4.24.809,7.459,7.459,0,0,1,14.436-1.537,11.4,11.4,0,0,0,5.717,1.537,11.533,11.533,0,0,0,4.24-.809,9.237,9.237,0,0,1-1.464.117,9.174,9.174,0,1,1,8.582-12.445A11.444,11.444,0,0,0,2451.445,1769.119Zm-15.826,5.975a2,2,0,1,1,2-2A2,2,0,0,1,2435.619,1775.094Z" transform="translate(-2414.184 -1752.646)" fill="#001a0f"/>
        </g>
      </g>
      <g id="Grupo_59875" data-name="Grupo 59875" transform="translate(859.701 1545.421)">
        <g id="Grupo_59867" data-name="Grupo 59867" transform="translate(18.227)">
          <path id="Trazado_116603" data-name="Trazado 116603" d="M2331.068,1786.5a.315.315,0,0,0-.306-.241h-21.141a.315.315,0,0,0-.306.241,12.331,12.331,0,0,0,0,5.868.315.315,0,0,0,.306.24h21.141a.315.315,0,0,0,.306-.24A12.325,12.325,0,0,0,2331.068,1786.5Z" transform="translate(-2308.96 -1786.261)" fill="#162f42"/>
          <path id="Trazado_116604" data-name="Trazado 116604" d="M2320.583,1786.5a.315.315,0,0,1,.307-.241h4.476a.316.316,0,0,0-.307.241,12.337,12.337,0,0,0,0,5.868.316.316,0,0,0,.307.24h-4.476a.316.316,0,0,1-.307-.24A12.337,12.337,0,0,1,2320.583,1786.5Z" transform="translate(-2316.846 -1786.261)" fill="#162f42" opacity="0.5" style="mix-blend-mode: screen;isolation: isolate"/>
        </g>
        <g id="Grupo_59868" data-name="Grupo 59868" transform="translate(1.211 6.349)">
          <path id="Trazado_116605" data-name="Trazado 116605" d="M2306.56,1820.142a5.079,5.079,0,0,0-2.612-3.763l-13.276-7.2h0v-1.771h-20.292v1.771l-13.279,7.2a5.082,5.082,0,0,0-2.611,3.758,215.816,215.816,0,0,0-.254,59.772,5.082,5.082,0,0,0,5.041,4.421h42.5a5.083,5.083,0,0,0,5.042-4.425,215.433,215.433,0,0,0-.253-59.765Z" transform="translate(-2252.278 -1807.41)" fill="#dce9f2"/>
          <path id="Trazado_116606" data-name="Trazado 116606" d="M2269.638,1879.906a215.42,215.42,0,0,1,.253-59.765h0a2.654,2.654,0,0,1,2.628-2.28h15.311a1.013,1.013,0,0,0,.875-1.522l-4.162-7.159v-1.771h-4.506v1.771l-13.276,7.2a5.081,5.081,0,0,0-2.612,3.763,215.42,215.42,0,0,0-.253,59.765,5.082,5.082,0,0,0,5.042,4.425h5.742A5.082,5.082,0,0,1,2269.638,1879.906Z" transform="translate(-2259.037 -1807.41)" fill="#dce9f2" opacity="0.3" style="mix-blend-mode: screen;isolation: isolate"/>
          <path id="Trazado_116607" data-name="Trazado 116607" d="M2369.3,1820.142a5.079,5.079,0,0,0-2.612-3.763l-13.276-7.2.056-1.771h-7.83v1.771l8.093,7.2a5.082,5.082,0,0,1,2.612,3.763,215.432,215.432,0,0,1,.252,59.765,5.082,5.082,0,0,1-5.042,4.425h12.957a5.083,5.083,0,0,0,5.042-4.425,215.42,215.42,0,0,0-.253-59.765Z" transform="translate(-2317.614 -1807.41)" fill="#adc5d6" opacity="0.25" style="mix-blend-mode: multiply;isolation: isolate"/>
          <path id="Trazado_116608" data-name="Trazado 116608" d="M2374.04,1820.142a5.08,5.08,0,0,0-2.612-3.763l-13.276-7.2.056-1.771h-5.8v1.771l13.276,7.2a5.08,5.08,0,0,1,2.612,3.763,215.408,215.408,0,0,1,.253,59.765,5.083,5.083,0,0,1-5.042,4.425h5.742a5.082,5.082,0,0,0,5.042-4.425,215.42,215.42,0,0,0-.253-59.765Z" transform="translate(-2322.35 -1807.41)" fill="#adc5d6" opacity="0.25" style="mix-blend-mode: multiply;isolation: isolate"/>
        </g>
        <g id="Grupo_59869" data-name="Grupo 59869" transform="translate(0 20.61)">
          <path id="Trazado_116609" data-name="Trazado 116609" d="M2307.244,1857.85l-.1-1.759a1.249,1.249,0,0,0-1.247-1.176H2249.7a1.25,1.25,0,0,0-1.241,1.1l-.207,1.752a1.365,1.365,0,0,0,1.356,1.526h56.272A1.366,1.366,0,0,0,2307.244,1857.85Z" transform="translate(-2248.244 -1854.915)" fill="#dce9f2"/>
          <path id="Trazado_116610" data-name="Trazado 116610" d="M2307.162,1856.091a1.249,1.249,0,0,0-1.247-1.176h-56.191a1.249,1.249,0,0,0-1.241,1.1l-.207,1.048h58.99Z" transform="translate(-2248.266 -1854.915)" fill="#dce9f2" opacity="0.3" style="mix-blend-mode: screen;isolation: isolate"/>
          <path id="Trazado_116611" data-name="Trazado 116611" d="M2256.854,1869.507c-.016.381-.11.765-.125,1.15h53.813c-.037-.392-.082-.745-.126-1.15Z" transform="translate(-2254.182 -1865.126)" fill="#adc5d6"/>
        </g>
        <g id="Grupo_59870" data-name="Grupo 59870" transform="translate(0 68.602)">
          <path id="Trazado_116612" data-name="Trazado 116612" d="M2305.881,2014.777h-56.272a1.365,1.365,0,0,0-1.356,1.526l.207,1.752a1.25,1.25,0,0,0,1.241,1.1h56.191a1.249,1.249,0,0,0,1.247-1.176l.1-1.759A1.366,1.366,0,0,0,2305.881,2014.777Z" transform="translate(-2248.244 -2014.777)" fill="#dce9f2"/>
          <path id="Trazado_116613" data-name="Trazado 116613" d="M2305.881,2014.777h-56.272a1.365,1.365,0,0,0-1.356,1.526l.079.665H2307.2l.044-.744A1.366,1.366,0,0,0,2305.881,2014.777Z" transform="translate(-2248.244 -2014.777)" fill="#dce9f2" opacity="0.3" style="mix-blend-mode: screen;isolation: isolate"/>
          <path id="Trazado_116614" data-name="Trazado 116614" d="M2310.308,2030.519c.022-.381.1-.764.123-1.15h-53.963c.02.386.118.77.139,1.15Z" transform="translate(-2253.999 -2024.988)" fill="#adc5d6"/>
        </g>
        <g id="Grupo_59874" data-name="Grupo 59874" transform="translate(10.68 30.403)">
          <g id="Grupo_59871" data-name="Grupo 59871" transform="translate(0 27.901)">
            <path id="Trazado_116615" data-name="Trazado 116615" d="M2286.286,1982.793v-.03a.737.737,0,0,0,.49-.3,1.063,1.063,0,0,0,.185-.645.924.924,0,0,0-.421-.844,2.631,2.631,0,0,0-1.354-.265h-1.365v4.385h1.64a1.875,1.875,0,0,0,1.177-.336,1.117,1.117,0,0,0,.433-.936,1.129,1.129,0,0,0-.185-.678A.964.964,0,0,0,2286.286,1982.793Zm-1.535-1.326h.489a1.186,1.186,0,0,1,.583.109.387.387,0,0,1,.184.361.436.436,0,0,1-.169.387.987.987,0,0,1-.547.117h-.54Zm1.172,2.708a.9.9,0,0,1-.567.147h-.606v-1.143h.575q.78,0,.78.546A.541.541,0,0,1,2285.923,1984.176Z" transform="translate(-2283.821 -1980.637)"/>
            <rect id="Rectángulo_6256" data-name="Rectángulo 6256" width="0.93" height="4.384" transform="translate(4.126 0.069)"/>
            <path id="Trazado_116616" data-name="Trazado 116616" d="M2305.783,1980.476a2.025,2.025,0,0,0-1.552.577,2.356,2.356,0,0,0-.541,1.672,2.388,2.388,0,0,0,.54,1.679,2.34,2.34,0,0,0,3.095,0,2.872,2.872,0,0,0,0-3.347A2,2,0,0,0,2305.783,1980.476Zm-.006,3.734a.976.976,0,0,1-.834-.372,2.327,2.327,0,0,1,0-2.215.983.983,0,0,1,.837-.373q1.106,0,1.106,1.482T2305.777,1984.21Z" transform="translate(-2297.725 -1980.476)"/>
            <path id="Trazado_116617" data-name="Trazado 116617" d="M2323.288,1982.424h-1.737v-1.718h-.93v4.384h.93V1983.2h1.737v1.892h.927v-4.384h-.927Z" transform="translate(-2309.574 -1980.637)"/>
            <path id="Trazado_116618" data-name="Trazado 116618" d="M2335.985,1980.646l-1.547,4.4h1l.318-1.044h1.6l.318,1.044h1l-1.553-4.4Zm.006,2.579q.468-1.514.566-1.9.024.108.08.294t.5,1.6Z" transform="translate(-2319.243 -1980.595)"/>
            <path id="Trazado_116619" data-name="Trazado 116619" d="M2352.249,1981.306v-.6H2349.1v.768h2.045l-2.1,3.014v.6h3.263v-.768h-2.156Z" transform="translate(-2329.463 -1980.637)"/>
            <path id="Trazado_116620" data-name="Trazado 116620" d="M2361.948,1980.646l-1.548,4.4h1l.317-1.044h1.6l.318,1.044h1l-1.553-4.4Zm.006,2.579q.468-1.514.567-1.9.024.108.079.294t.5,1.6Z" transform="translate(-2337.411 -1980.595)"/>
            <path id="Trazado_116621" data-name="Trazado 116621" d="M2379.17,1982.708a1.3,1.3,0,0,0-.216-1.676,2.185,2.185,0,0,0-1.322-.325h-1.278v4.385h.93v-1.682h.495l1.047,1.682h1.032q-.3-.432-1.29-1.911A1.408,1.408,0,0,0,2379.17,1982.708Zm-.936-.2a1.149,1.149,0,0,1-.651.147h-.3v-1.185h.282a1.3,1.3,0,0,1,.664.132.479.479,0,0,1,.214.444A.524.524,0,0,1,2378.234,1982.505Z" transform="translate(-2348.575 -1980.637)"/>
            <path id="Trazado_116622" data-name="Trazado 116622" d="M2392.9,1981.273a2.318,2.318,0,0,0-1.667-.567h-1.377v4.385h1.241a2.514,2.514,0,0,0,1.78-.576,2.159,2.159,0,0,0,.616-1.658A2.086,2.086,0,0,0,2392.9,1981.273Zm-1.716,3.05h-.4v-2.855h.495q1.248,0,1.248,1.412Q2392.532,1984.323,2391.188,1984.323Z" transform="translate(-2358.027 -1980.637)"/>
          </g>
          <g id="Grupo_59873" data-name="Grupo 59873" transform="translate(3.184)">
            <path id="Trazado_116623" data-name="Trazado 116623" d="M2323.331,1910.922l-13.078-22.652a1.471,1.471,0,0,0-2.548,0l-13.078,22.652a1.471,1.471,0,0,0,1.274,2.207h26.156a1.471,1.471,0,0,0,1.274-2.207Zm-.854.978a.468.468,0,0,1-.419.242H2295.9a.485.485,0,0,1-.419-.727l13.078-22.652a.485.485,0,0,1,.84,0l13.078,22.652A.468.468,0,0,1,2322.477,1911.9Z" transform="translate(-2294.428 -1887.535)" fill="#001a0f"/>
            <g id="Grupo_59872" data-name="Grupo 59872" transform="translate(5.825 7.884)">
              <path id="Trazado_116624" data-name="Trazado 116624" d="M2349.251,1944.384a3.378,3.378,0,0,0,.244.926,4.895,4.895,0,0,0,2.738-4.389c0-.087,0-.174-.007-.26a3.371,3.371,0,0,0-.928.237c0,.008,0,.016,0,.023A3.958,3.958,0,0,1,2349.251,1944.384Z" transform="translate(-2338.617 -1932.596)" fill="#001a0f"/>
              <path id="Trazado_116625" data-name="Trazado 116625" d="M2326.619,1940.66c0,.086-.007.173-.007.26a4.894,4.894,0,0,0,2.739,4.39,3.426,3.426,0,0,0,.155-.441,3.349,3.349,0,0,0,.089-.485,3.958,3.958,0,0,1-2.049-3.464c0-.008,0-.016,0-.023A3.367,3.367,0,0,0,2326.619,1940.66Z" transform="translate(-2322.775 -1932.596)" fill="#001a0f"/>
              <path id="Trazado_116626" data-name="Trazado 116626" d="M2334.4,1926.78a3.92,3.92,0,0,1,4.191,0,3.4,3.4,0,0,0,.652-.694,4.878,4.878,0,0,0-5.495,0A3.385,3.385,0,0,0,2334.4,1926.78Z" transform="translate(-2327.769 -1921.804)" fill="#001a0f"/>
              <path id="Trazado_116627" data-name="Trazado 116627" d="M2329,1920.5a4.647,4.647,0,0,0-2.33-.626h-.123a4.669,4.669,0,0,0-1.093-6.082,3.735,3.735,0,1,1-5.8,0,4.669,4.669,0,0,0-1.093,6.082h-.123a4.667,4.667,0,0,0-4.613,3.989,3.734,3.734,0,1,1,3.494,5.067,3.769,3.769,0,0,1-.6-.048,4.7,4.7,0,0,0,1.726.33,3.037,3.037,0,0,1,5.877-.625,4.644,4.644,0,0,0,2.327.625,4.7,4.7,0,0,0,1.727-.33,3.771,3.771,0,0,1-.6.048,3.735,3.735,0,1,1,3.494-5.067A4.659,4.659,0,0,0,2329,1920.5Zm-6.443,2.433a.815.815,0,1,1,.815-.815A.815.815,0,0,1,2322.557,1922.937Z" transform="translate(-2313.83 -1913.797)" fill="#001a0f"/>
            </g>
          </g>
        </g>
      </g>
    </g>
  </g>
</svg>
