<svg xmlns="http://www.w3.org/2000/svg" width="658.875" height="243.634" viewBox="0 0 658.875 243.634">
  <g id="Grupo_60215" data-name="Grupo 60215" transform="translate(-1131.529 -1057.07)">
    <g id="Grupo_60169" data-name="Grupo 60169" transform="translate(1131.529 1072.076)">
      <g id="wind" transform="translate(0 0)">
        <path id="Trazado_116844" data-name="Trazado 116844" d="M1536.438,1120.377c0,.655-.269,1.186-.6,1.186h-48.511c-.331,0-.6-.531-.6-1.186h0c0-.655.269-1.186.6-1.186h48.511c.331,0,.6.531.6,1.186Z" transform="translate(-1400.925 -1119.191)" fill="#d1d3d4"/>
        <path id="Trazado_116845" data-name="Trazado 116845" d="M1373.627,1179.7a1.088,1.088,0,0,1-.952,1.186h-76.95a1.088,1.088,0,0,1-.951-1.186h0a1.088,1.088,0,0,1,.951-1.186h76.95a1.088,1.088,0,0,1,.952,1.186Z" transform="translate(-1255.34 -1164.182)" fill="#d1d3d4"/>
        <path id="Trazado_116846" data-name="Trazado 116846" d="M1235.1,1427.86a1.767,1.767,0,0,1-1.767,1.768H1133.3a1.767,1.767,0,0,1-1.767-1.768h0a1.768,1.768,0,0,1,1.767-1.768h100.035a1.767,1.767,0,0,1,1.767,1.768Z" transform="translate(-1131.529 -1351.956)" fill="#d1d3d4"/>
        <path id="Trazado_116847" data-name="Trazado 116847" d="M1483.8,1302.586a1.3,1.3,0,0,1-1.3,1.3h-38.117a1.3,1.3,0,0,1-1.3-1.3h0a1.3,1.3,0,0,1,1.3-1.3H1482.5a1.3,1.3,0,0,1,1.3,1.3Z" transform="translate(-1367.828 -1257.302)" fill="#d1d3d4"/>
        <path id="Trazado_116848" data-name="Trazado 116848" d="M1195.831,1489.665a1.482,1.482,0,0,1-1.482,1.482h-43.854a1.482,1.482,0,0,1-1.482-1.482h0a1.482,1.482,0,0,1,1.482-1.482h43.854a1.482,1.482,0,0,1,1.482,1.482Z" transform="translate(-1144.79 -1399.048)" fill="#d1d3d4"/>
        <path id="Trazado_116849" data-name="Trazado 116849" d="M1450.991,1489.665a1.482,1.482,0,0,1-1.482,1.482h-43.854a1.482,1.482,0,0,1-1.482-1.482h0a1.482,1.482,0,0,1,1.482-1.482h43.854a1.482,1.482,0,0,1,1.482,1.482Z" transform="translate(-1338.312 -1399.048)" fill="#d1d3d4"/>
      </g>
      <g id="wind-2" data-name="wind" transform="translate(405.691 0)">
        <path id="Trazado_116850" data-name="Trazado 116850" d="M3215.878,1120.377c0,.655-.269,1.186-.6,1.186h-48.511c-.332,0-.6-.531-.6-1.186h0c0-.655.268-1.186.6-1.186h48.511c.331,0,.6.531.6,1.186Z" transform="translate(-3080.365 -1119.191)" fill="#d1d3d4"/>
        <path id="Trazado_116851" data-name="Trazado 116851" d="M3053.068,1179.7a1.088,1.088,0,0,1-.952,1.186h-76.95a1.088,1.088,0,0,1-.951-1.186h0a1.088,1.088,0,0,1,.951-1.186h76.95a1.088,1.088,0,0,1,.952,1.186Z" transform="translate(-2934.781 -1164.182)" fill="#d1d3d4"/>
        <path id="Trazado_116852" data-name="Trazado 116852" d="M2914.54,1427.86a1.768,1.768,0,0,1-1.768,1.768H2812.737a1.767,1.767,0,0,1-1.767-1.768h0a1.767,1.767,0,0,1,1.767-1.768h100.034a1.768,1.768,0,0,1,1.768,1.768Z" transform="translate(-2810.97 -1351.956)" fill="#d1d3d4"/>
        <path id="Trazado_116853" data-name="Trazado 116853" d="M3163.237,1302.586a1.3,1.3,0,0,1-1.3,1.3h-38.116a1.3,1.3,0,0,1-1.3-1.3h0a1.3,1.3,0,0,1,1.3-1.3h38.116a1.3,1.3,0,0,1,1.3,1.3Z" transform="translate(-3047.268 -1257.302)" fill="#d1d3d4"/>
        <path id="Trazado_116854" data-name="Trazado 116854" d="M2875.271,1489.665a1.483,1.483,0,0,1-1.482,1.482h-43.854a1.483,1.483,0,0,1-1.482-1.482h0a1.482,1.482,0,0,1,1.482-1.482h43.854a1.482,1.482,0,0,1,1.482,1.482Z" transform="translate(-2824.229 -1399.048)" fill="#d1d3d4"/>
        <path id="Trazado_116855" data-name="Trazado 116855" d="M3130.431,1489.665a1.483,1.483,0,0,1-1.482,1.482H3085.1a1.482,1.482,0,0,1-1.482-1.482h0a1.482,1.482,0,0,1,1.482-1.482h43.854a1.482,1.482,0,0,1,1.482,1.482Z" transform="translate(-3017.753 -1399.048)" fill="#d1d3d4"/>
      </g>
    </g>
    <path id="shadow" d="M313.568,0C486.747,0,627.136,3.188,627.136,7.121s-140.389,7.121-313.568,7.121S0,11.054,0,7.121,140.389,0,313.568,0Z" transform="translate(1163.268 1286.462)" fill="#bcbec0" opacity="0.4"/>
    <g id="Grupo_60214" data-name="Grupo 60214" transform="translate(1165.345 1057.07)">
      <g id="Grupo_60171" data-name="Grupo 60171" transform="translate(474.273 52.454)">
        <g id="Grupo_60170" data-name="Grupo 60170" transform="translate(0 59.111)">
          <path id="Trazado_116856" data-name="Trazado 116856" d="M3238.74,1539.049s-2.474,4.8-3.5,3.734c-1.453-1.505,1.813-10.565,1.788-12.781-.028-2.45,7.959-11.086,7.959-11.086l4.707,2.2s-.636,12.81-1.83,15.1c-1.128,2.159-9.161,7.539-9.161,7.539s-1.228,1.343-1.479-.4Z" transform="translate(-3234.866 -1518.915)" fill="#f9bb94"/>
        </g>
        <path id="Trazado_116857" data-name="Trazado 116857" d="M3307.91,1274.212s-25.462,13.2-30.887,18.666c-8.063,8.129-22.829,43.469-22.829,43.469l10.837,3.782,23.776-35.846,19.51-4.411S3327.857,1281.924,3307.91,1274.212Z" transform="translate(-3249.526 -1274.212)" fill="#265a84"/>
      </g>
      <g id="Grupo_60173" data-name="Grupo 60173" transform="translate(118.879 57.513)">
        <path id="Trazado_116858" data-name="Trazado 116858" d="M1994.986,1465.825s7.773-2.537,10.4-2.133c2.716.418,8.472,4.715,8.516,6.951.048,2.457-5.043,6.522-7.654,7.024-3.19.613-12.064-4.824-12.064-4.824Z" transform="translate(-1938.489 -1422.947)" fill="#f9bb94"/>
        <g id="Grupo_60172" data-name="Grupo 60172">
          <path id="Trazado_116859" data-name="Trazado 116859" d="M1820.684,1336.833v9.59s-34.276,4.109-43.911-1.206c-3.26-1.792-7.4-8.336-10.148-13.206-1.784-3.153-2.985-5.6-2.985-5.6l1.094-5.755,4.846-25.5,5,6.507,4.813,13.223,3.478,9.536,2.959,8.13Z" transform="translate(-1763.64 -1295.158)" fill="#004176"/>
          <path id="Trazado_116860" data-name="Trazado 116860" d="M1782.873,1386.367l-16.248,7.588c-1.784-3.153-2.985-5.6-2.985-5.6l1.094-5.755,14.662-5.767Z" transform="translate(-1763.64 -1357.102)" fill="#bf3009"/>
        </g>
      </g>
      <g id="patient" transform="translate(167.509 88.121)">
        <g id="Grupo_60174" data-name="Grupo 60174" transform="translate(16.134 15.021)">
          <path id="Trazado_116861" data-name="Trazado 116861" d="M2336.465,1510.823H2055.584l-22.743-20.9a3.383,3.383,0,1,1,4.578-4.982l20.8,19.114h278.244a3.383,3.383,0,0,1,0,6.766Z" transform="translate(-2031.747 -1484.05)" fill="#fbb040"/>
        </g>
        <path id="Trazado_116862" data-name="Trazado 116862" d="M2374.766,1560.316H2098.115a14.479,14.479,0,0,1,14.328-11.721h248c.467,0,.931.021,1.389.063A14.456,14.456,0,0,1,2374.766,1560.316Z" transform="translate(-2065.949 -1517.982)" fill="#fe5e53"/>
        <path id="Trazado_116863" data-name="Trazado 116863" d="M3162.136,1560.512h-25.873a13.006,13.006,0,0,1,25.873,0Z" transform="translate(-2853.319 -1518.178)" fill="#fe7e75"/>
        <g id="Grupo_60175" data-name="Grupo 60175" transform="translate(1.02 14.712)">
          <path id="Trazado_116864" data-name="Trazado 116864" d="M1972.3,1494.979a3.123,3.123,0,0,1-1.127-6.036l15.41-5.96a3.123,3.123,0,1,1,2.253,5.824l-15.409,5.96A3.107,3.107,0,0,1,1972.3,1494.979Z" transform="translate(-1969.178 -1482.771)" fill="#fbb040"/>
        </g>
        <g id="Grupo_60186" data-name="Grupo 60186" transform="translate(38.288)">
          <g id="Grupo_60176" data-name="Grupo 60176" transform="translate(39.801 16.379)">
            <path id="Trazado_116865" data-name="Trazado 116865" d="M2303.139,1493.372l-.189,8.158a26.511,26.511,0,0,0-14.061.557c-2.461.813,2.48-5.636,5.638-9.553,1.336-1.658,2.357-2.861,2.357-2.861l1.941,1.152Z" transform="translate(-2288.225 -1489.672)" fill="#fcae88"/>
            <path id="Trazado_116866" data-name="Trazado 116866" d="M2313.646,1490.824a38.867,38.867,0,0,1-5.881,6.693l1.583-4.984c1.336-1.658,2.357-2.861,2.357-2.861Z" transform="translate(-2303.045 -1489.672)" fill="#b06d4d" opacity="0.32"/>
          </g>
          <path id="Trazado_116867" data-name="Trazado 116867" d="M2330.167,1439.441s4.606,4.886-.888,10l8.3,7.559,78.961-.658V1430.74C2367.8,1406.568,2330.167,1439.441,2330.167,1439.441Z" transform="translate(-2279.56 -1421.866)" fill="#006975"/>
          <path id="Trazado_116868" data-name="Trazado 116868" d="M2690.516,1458.6l89.358,13.687v11.5h-89.358Z" transform="translate(-2553.536 -1449.726)" fill="#9d9e9f"/>
          <g id="Grupo_60177" data-name="Grupo 60177" transform="translate(82.883 22.631)">
            <path id="Trazado_116869" data-name="Trazado 116869" d="M2466.57,1515.554s48.988,3.118,59.485,6.941a26.674,26.674,0,0,0,5.3,4.486l-64.2.162Z" transform="translate(-2466.57 -1515.554)" fill="#fcae88"/>
            <path id="Trazado_116870" data-name="Trazado 116870" d="M2704.578,1538.08s14.873-3.938,14.9-.7,2.8,2.384,2.166,3.734c-2.086,4.432-19.689,1.469-19.689,1.469Z" transform="translate(-2645.093 -1531.14)" fill="#fcae88"/>
          </g>
          <path id="Trazado_116871" data-name="Trazado 116871" d="M2379.158,1506.829l16.9-.818-.044,13.893h-16.851S2364.775,1512.77,2379.158,1506.829Z" transform="translate(-2312.542 -1485.685)" fill="#338791"/>
          <g id="Grupo_60178" data-name="Grupo 60178" transform="translate(195.975 9.152)">
            <path id="Trazado_116872" data-name="Trazado 116872" d="M2935.973,1490.583a7.4,7.4,0,0,1,2.563-.507,34.743,34.743,0,0,1,5.943.313c.562.065,1.142.143,1.738.229,2.02.293,4.2.681,6.46,1.131.563.11,1.13.227,1.7.346.678.138,1.358.287,2.042.436.6.133,1.2.265,1.8.4,2,.456,3.988.936,5.915,1.412q.857.214,1.7.428c1.694.43,3.329.857,4.853,1.266.449.121.885.239,1.313.357,1.215.326,2.347.641,3.368.925.422.121.824.231,1.208.339,2.758.782,4.467,1.294,4.467,1.294l.564,7.844-5.82.465-1,.078-10.048.8-2.585.206-9.171.733-1.679.133-2.183.176-3.681.3s-12.374-13.164-10.509-18.037a2.534,2.534,0,0,1,.176-.364A1.858,1.858,0,0,1,2935.973,1490.583Z" transform="translate(-2934.736 -1482.728)" fill="#4d9893"/>
            <path id="Trazado_116873" data-name="Trazado 116873" d="M3128.358,1459.8c.429-.241,1.5.44,1.78.847a31.648,31.648,0,0,1,2.479,5.948c.131.4.264.813.391,1.234,1.255,4.11,2.247,9.062,1.5,12.459a7.223,7.223,0,0,1-.294,1.025c-.923,2.5-3.119,3.78-7.4,2.506-.234-3.2-.44-6.1-.526-7.283-.025-.363-.038-.56-.038-.56s-.012-.285-.023-.777c-.024-.985-.054-2.811,0-4.87.017-.671.041-1.367.077-2.068.016-.323.035-.648.057-.969.042-.571.087-1.139.144-1.69C3126.8,1462.793,3127.35,1460.365,3128.358,1459.8Z" transform="translate(-3079.952 -1459.754)" fill="#4d9893"/>
            <path id="Trazado_116874" data-name="Trazado 116874" d="M3128.872,1459.8c.429-.241,1.5.44,1.78.847a31.638,31.638,0,0,1,2.479,5.948c.131.4.263.813.391,1.234l-6.642-.539c.042-.571.087-1.139.145-1.69C3127.317,1462.793,3127.864,1460.365,3128.872,1459.8Z" transform="translate(-3080.466 -1459.754)" fill="#f1f2f2"/>
            <path id="Trazado_116875" data-name="Trazado 116875" d="M3129.326,1459.8c.429-.241,1.5.44,1.78.847a31.638,31.638,0,0,1,2.479,5.948,38.207,38.207,0,0,1-6.106-1C3127.771,1462.793,3128.317,1460.365,3129.326,1459.8Z" transform="translate(-3080.919 -1459.754)" fill="#fcae88"/>
            <path id="Trazado_116876" data-name="Trazado 116876" d="M2938.536,1488.5c-7.285,5.248,10.582,19.315,10.582,19.315l-3.681.3s-12.374-13.164-10.509-18.037a14.539,14.539,0,0,1,1.046-1.067C2937.183,1487.9,2938.109,1487.584,2938.536,1488.5Z" transform="translate(-2934.736 -1481.148)" fill="#f1f2f2"/>
            <path id="Trazado_116877" data-name="Trazado 116877" d="M2976.8,1491.7l5.34,14.731,1.12-13.6q.844.165,1.7.346l-1.4,16.988-1.679.132-.052-.141-6.771-18.684C2975.629,1491.534,2976.209,1491.612,2976.8,1491.7Z" transform="translate(-2965.324 -1483.808)" fill="#85d5d0" opacity="0.4"/>
            <path id="Trazado_116878" data-name="Trazado 116878" d="M3026.3,1500.732l4.917,13.57,1-12.157q.857.214,1.7.428l-1.1,13.373-2.585.206-5.732-15.819C3025.1,1500.465,3025.7,1500.6,3026.3,1500.732Z" transform="translate(-3002.816 -1490.53)" fill="#85d5d0" opacity="0.4"/>
            <path id="Trazado_116879" data-name="Trazado 116879" d="M3084.875,1515.2l2.808,7.745.56-6.82c.422.121.824.231,1.207.339l-.759,9.264-.029.339-1,.078-.194-.54-3.9-10.763C3084.012,1514.966,3084.447,1515.084,3084.875,1515.2Z" transform="translate(-3047.612 -1501.537)" fill="#85d5d0" opacity="0.4"/>
            <path id="Trazado_116880" data-name="Trazado 116880" d="M3126.406,1494.978l8.093,11.865.11.163a7.214,7.214,0,0,1-.294,1.025l-.846-.51-7.078-4.268-.038-.56s-.012-.285-.023-.777l5.635,3.4-5.635-8.27C3126.347,1496.375,3126.371,1495.679,3126.406,1494.978Z" transform="translate(-3080.048 -1486.469)" fill="#85d5d0" opacity="0.4"/>
          </g>
          <g id="Grupo_60185" data-name="Grupo 60185" transform="translate(0 7.213)">
            <path id="Trazado_116881" data-name="Trazado 116881" d="M2142.547,1551.76s-5.485,1.647-7.126-3.169c.72.808,3.144,3.49,6.49,1.238C2142.316,1551.007,2142.547,1551.76,2142.547,1551.76Z" transform="translate(-2132.531 -1525.191)" fill="#482b0e"/>
            <path id="Trazado_116882" data-name="Trazado 116882" d="M2161.483,1467.125c3.583-3.611,11.147-2.947,11.147-2.947l-4.171,7.942-6.248.787S2160.457,1468.159,2161.483,1467.125Z" transform="translate(-2152.053 -1461.133)" fill="#482b0e"/>
            <path id="Trazado_116883" data-name="Trazado 116883" d="M2173.133,1452.45l.08-.015c.872-.186,1.771-.341,2.689-.454a32.414,32.414,0,0,1,5.655-.217q.8.039,1.576.117l.008,0a27.936,27.936,0,0,1,3.251.529c6.273,1.419,10.81,4.934,11.388,9.529.59,4.681-3.062,9.281-8.96,12.2-.654.325-1.332.631-2.039.909-.23.091-.462.181-.694.265v0c-.486.179-.983.346-1.5.5a32.749,32.749,0,0,1-5.533,1.194c-.914.113-1.814.186-2.7.225-10.044.446-18.37-3.837-19.171-10.182C2156.384,1460.726,2163.347,1454.539,2173.133,1452.45Z" transform="translate(-2148.99 -1451.724)" fill="#fcae88"/>
            <path id="Trazado_116884" data-name="Trazado 116884" d="M2264.8,1452.364l.008,0a27.924,27.924,0,0,1,3.25.529c6.273,1.419,10.811,4.934,11.388,9.529.59,4.681-3.062,9.281-8.96,12.2-.654.325-1.333.631-2.039.909,0,0-1.67-3.027-1.725-4.15C2266.489,1466.609,2270.956,1457.447,2264.8,1452.364Z" transform="translate(-2230.659 -1452.207)" fill="#482b0e"/>
            <path id="Trazado_116885" data-name="Trazado 116885" d="M2164.256,1545.782l17.266-4.954-2.8-4.8-14.769-3.163s-5.224,4.192-4.695,5.759C2159.6,1539.648,2164.256,1545.782,2164.256,1545.782Z" transform="translate(-2150.582 -1513.261)" fill="#482b0e"/>
            <g id="Grupo_60179" data-name="Grupo 60179" transform="translate(26.436 5.772)">
              <path id="Trazado_116886" data-name="Trazado 116886" d="M2232.9,1480.292l8.927-1.125c-.313-8.507-8.748.923-8.924,1.121Z" transform="translate(-2232.898 -1475.617)" fill="#fcae88"/>
              <path id="Trazado_116887" data-name="Trazado 116887" d="M2241.834,1479.167c-.313-8.507-8.748.923-8.923,1.121C2233.085,1480.131,2240.8,1473.35,2241.834,1479.167Z" transform="translate(-2232.908 -1475.617)" fill="#b06d4d"/>
            </g>
            <g id="Grupo_60180" data-name="Grupo 60180" transform="translate(20.184 1.631)">
              <path id="Trazado_116888" data-name="Trazado 116888" d="M2211.875,1502.276l.946-.12-.067-.531-1.042.133-.512-1.624s2.155-.754,2.689-.34c1.472,1.144.932,7.394.932,7.394l-1.345.169Z" transform="translate(-2210.189 -1489.719)" fill="#482b0e"/>
              <path id="Trazado_116889" data-name="Trazado 116889" d="M2207.135,1463.963l.945-.118.067.531-1.043.132-.092,1.7s2.273.2,2.688-.338c1.142-1.471-.932-7.393-.932-7.393l-1.343.17Z" transform="translate(-2207.013 -1458.475)" fill="#482b0e"/>
            </g>
            <path id="Trazado_116890" data-name="Trazado 116890" d="M2286.993,1470.621s-1.444,4.831,1.493,7.623C2286.755,1477.458,2283.254,1474.726,2286.993,1470.621Z" transform="translate(-2246.23 -1466.056)" fill="#f1f2f2"/>
            <g id="Grupo_60181" data-name="Grupo 60181" transform="translate(0 4.42)">
              <path id="Trazado_116891" data-name="Trazado 116891" d="M2132.506,1470.022c-.091.718,4.3,9.088,4.835,14.927a8.951,8.951,0,0,1-.1,2.714c-.026.111-.053.219-.089.327a3.656,3.656,0,0,1-1.683,2.205c-.064.034-.125.07-.193.1a7.373,7.373,0,0,1-3.7.66s-11.492-3.91-7.129-12.506a13.384,13.384,0,0,1,.9-1.511,21.927,21.927,0,0,1,2.833-3.288c.174-.167.353-.336.535-.5C2129.506,1472.415,2131.492,1470.8,2132.506,1470.022Z" transform="translate(-2123.459 -1470.022)" fill="#482b0e"/>
              <path id="Trazado_116892" data-name="Trazado 116892" d="M2128.446,1498.654c.465,3.282,2.311,8.182,9.033,12.575.349.228.709.455,1.089.681-.064.034-.125.07-.193.1-.35-.179-.727-.379-1.13-.606-3.623-2.019-9.037-5.88-9.694-11.24A13.365,13.365,0,0,1,2128.446,1498.654Z" transform="translate(-2126.562 -1491.738)" fill="#36200b"/>
              <path id="Trazado_116893" data-name="Trazado 116893" d="M2142.606,1482.964c-.048,2.639.459,8.572,7.769,13.972.242.183.5.362.757.543-.026.111-.053.219-.089.327-.284-.164-.578-.343-.876-.527-4.278-2.652-9.712-7.4-8.1-13.813C2142.245,1483.3,2142.424,1483.13,2142.606,1482.964Z" transform="translate(-2137.354 -1479.838)" fill="#36200b"/>
            </g>
            <path id="Trazado_116894" data-name="Trazado 116894" d="M2162.829,1531.815a8.959,8.959,0,0,1-.1,2.714c-.026.111-.054.219-.089.327a3.654,3.654,0,0,1-1.683,2.205c-.064.034-.125.069-.193.1a7.372,7.372,0,0,1-3.695.659,8.437,8.437,0,0,0,2.565-1.265c.079-.057.157-.114.235-.175a8.128,8.128,0,0,0,1.9-2.051c.073-.113.141-.225.208-.343A8.164,8.164,0,0,0,2162.829,1531.815Z" transform="translate(-2148.947 -1512.468)" fill="#36200b"/>
            <path id="Trazado_116895" data-name="Trazado 116895" d="M2235.024,1507.844c.909-.16,1.73.193,1.834.785s-.548,1.2-1.458,1.365-1.73-.193-1.834-.787S2234.115,1508,2235.024,1507.844Z" transform="translate(-2206.961 -1494.258)" fill="#482b0e"/>
            <path id="Trazado_116896" data-name="Trazado 116896" d="M2228.2,1468.961c.909-.16,1.73.192,1.835.785s-.549,1.2-1.458,1.363-1.731-.192-1.834-.784S2227.292,1469.12,2228.2,1468.961Z" transform="translate(-2201.787 -1464.768)" fill="#482b0e"/>
            <g id="Grupo_60183" data-name="Grupo 60183" transform="translate(2.398 0.033)">
              <g id="Grupo_60182" data-name="Grupo 60182">
                <path id="Trazado_116897" data-name="Trazado 116897" d="M2151.738,1452.141c.634,6.474,2.741,14.519,4.519,20.482v0c1.474,4.943,2.725,8.453,2.725,8.453l-.069.029c-.218.085-.916.355-1.894.727-.692.265-1.522.58-2.422.916-.793.293-1.642.6-2.495.9-1.355.484-2.723.948-3.9,1.311a14.137,14.137,0,0,1-3.068.724c-1.284,0-3.065-2.108-4.859-5.192a62.673,62.673,0,0,1-6.214-15.621,20.226,20.226,0,0,1-.656-5.5,4,4,0,0,1,.683-2.252,2.558,2.558,0,0,1,.438-.4,18.4,18.4,0,0,1,4.151-1.941c1.389-.5,2.955-.992,4.506-1.424C2147.482,1452.165,2151.668,1451.43,2151.738,1452.141Z" transform="translate(-2133.386 -1451.862)" fill="#f3ebe2"/>
                <path id="Trazado_116898" data-name="Trazado 116898" d="M2134.526,1472q.616.85,1.292,1.753c3.393,4.583,7.719,10.122,12.09,14.9a61.3,61.3,0,0,0,9.111,8.456c-.692.265-1.522.58-2.422.915-.793.293-1.642.6-2.495.9-4.931-4.162-12.533-11.135-18.041-18.778a20.224,20.224,0,0,1-.656-5.5,4,4,0,0,1,.683-2.252A2.558,2.558,0,0,1,2134.526,1472Z" transform="translate(-2133.386 -1467.136)" fill="#fdfbf9"/>
                <path id="Trazado_116899" data-name="Trazado 116899" d="M2159.793,1458.069c.48,1.09.994,2.238,1.541,3.433,3.846,8.4,9.2,18.848,14.188,24.314-.218.085-.916.355-1.894.727-.691.265-1.522.58-2.422.916-1.818-2.337-4.236-5.605-6.689-9.372a83.322,83.322,0,0,1-8.361-16.013q-.481-1.293-.869-2.581C2156.676,1458.99,2158.243,1458.5,2159.793,1458.069Z" transform="translate(-2149.997 -1456.57)" fill="#fdfbf9"/>
                <path id="Trazado_116900" data-name="Trazado 116900" d="M2161.9,1570.405l7.927,4.468a14.155,14.155,0,0,1-3.068.724C2165.476,1575.6,2163.694,1573.489,2161.9,1570.405Z" transform="translate(-2155.012 -1541.769)" fill="#fdfbf9"/>
              </g>
              <path id="Trazado_116901" data-name="Trazado 116901" d="M2151.795,1452.141c.633,6.474,2.741,14.519,4.519,20.482-3.381-6.037-7.361-12.893-9-14.746a3.787,3.787,0,0,0-2.531-1.083,16.42,16.42,0,0,0-5.179.572c-1.292.313-2.577.714-3.729,1.114-.91.315-1.735.633-2.413.9a4,4,0,0,1,.684-2.252,2.546,2.546,0,0,1,.438-.4,18.4,18.4,0,0,1,4.151-1.941c1.389-.5,2.956-.992,4.506-1.424C2147.539,1452.165,2151.726,1451.43,2151.795,1452.141Z" transform="translate(-2133.444 -1451.862)" fill="#b6b0aa" opacity="0.25"/>
            </g>
            <g id="Grupo_60184" data-name="Grupo 60184" transform="translate(25.899 20.654)">
              <path id="Trazado_116902" data-name="Trazado 116902" d="M2237.346,1543.928c2.555-1.646,3.852-4.183,2.9-5.667s-3.8-1.354-6.358.292-3.854,4.183-2.9,5.668S2234.79,1545.575,2237.346,1543.928Z" transform="translate(-2230.672 -1537.227)" fill="#fcae88"/>
              <path id="Trazado_116903" data-name="Trazado 116903" d="M2240.845,1551.241s-.021,5.981,4.636-.584C2244.5,1550.784,2243.881,1553.346,2240.845,1551.241Z" transform="translate(-2238.388 -1547.413)" fill="#b06d4d"/>
            </g>
          </g>
        </g>
        <g id="Grupo_60188" data-name="Grupo 60188" transform="translate(0 21.267)">
          <g id="Grupo_60187" data-name="Grupo 60187">
            <path id="Trazado_116904" data-name="Trazado 116904" d="M2274.36,1536.677H1988.794l-22.743-20.9a3.383,3.383,0,0,1,4.578-4.982l20.8,19.115H2274.36a3.383,3.383,0,0,1,0,6.766Z" transform="translate(-1964.957 -1509.905)" fill="#fbb040"/>
          </g>
          <path id="Trazado_116905" data-name="Trazado 116905" d="M2142.318,1596.892a.661.661,0,0,1-.661.66h-62.44a.661.661,0,0,1-.661-.66h0a.661.661,0,0,1,.661-.661h62.44a.661.661,0,0,1,.661.661Z" transform="translate(-2051.115 -1575.378)" fill="#fdd08c"/>
          <path id="Trazado_116906" data-name="Trazado 116906" d="M3106.5,1597.669a.554.554,0,0,1-.554.554H3070.41a.554.554,0,0,1-.554-.554h0a.554.554,0,0,1,.554-.554h35.531a.554.554,0,0,1,.554.554Z" transform="translate(-2802.953 -1576.048)" fill="#fdd08c"/>
        </g>
        <g id="Grupo_60193" data-name="Grupo 60193" transform="translate(103.331 2.847)">
          <g id="Grupo_60190" data-name="Grupo 60190">
            <path id="Trazado_116907" data-name="Trazado 116907" d="M2405.366,1437.288v39.626a3.58,3.58,0,0,1-3.528,3.63,3.477,3.477,0,0,1-2.5-1.065,3.667,3.667,0,0,1-1.036-2.565v-39.626a3.587,3.587,0,0,1,3.535-3.636,3.475,3.475,0,0,1,2.5,1.065A3.69,3.69,0,0,1,2405.366,1437.288Z" transform="translate(-2396.954 -1433.652)" fill="#fbb040"/>
            <g id="Grupo_60189" data-name="Grupo 60189" transform="translate(0 8.407)">
              <rect id="Rectángulo_6313" data-name="Rectángulo 6313" width="9.763" height="6.126" fill="#d1d3d4"/>
              <rect id="Rectángulo_6314" data-name="Rectángulo 6314" width="7.065" height="4.433" transform="translate(1.349 0.847)" fill="#fbb040"/>
            </g>
            <path id="Trazado_116908" data-name="Trazado 116908" d="M2405.366,1527.159v7.1l-7.062,2.53v-7.13Z" transform="translate(-2396.954 -1504.571)" fill="#fdd08c"/>
          </g>
          <g id="Grupo_60192" data-name="Grupo 60192" transform="translate(127.413 11.47)">
            <path id="Trazado_116909" data-name="Trazado 116909" d="M2932.819,1483.879v29.934c0,1.512-1.576,2.742-3.528,2.742a4.083,4.083,0,0,1-2.5-.805,2.467,2.467,0,0,1-1.036-1.937v-29.934c0-1.517,1.582-2.746,3.534-2.746a4.091,4.091,0,0,1,2.5.8A2.484,2.484,0,0,1,2932.819,1483.879Z" transform="translate(-2924.407 -1481.133)" fill="#fbb040"/>
            <g id="Grupo_60191" data-name="Grupo 60191" transform="translate(0 3.887)">
              <rect id="Rectángulo_6315" data-name="Rectángulo 6315" width="9.764" height="6.127" fill="#d1d3d4"/>
              <rect id="Rectángulo_6316" data-name="Rectángulo 6316" width="7.066" height="4.433" transform="translate(1.349 0.847)" fill="#fbb040"/>
            </g>
            <path id="Trazado_116910" data-name="Trazado 116910" d="M2932.819,1527.159v7.1l-7.062,2.53v-7.13Z" transform="translate(-2924.407 -1516.041)" fill="#fdd08c"/>
          </g>
        </g>
      </g>
      <g id="manback" transform="translate(0 1.35)">
        <g id="Grupo_60195" data-name="Grupo 60195" transform="translate(0 150.989)">
          <path id="Trazado_116911" data-name="Trazado 116911" d="M1305.089,1707.529l25.618-.833.678-9.287-25.616.835Z" transform="translate(-1296.98 -1695.065)" fill="#231f20"/>
          <g id="Grupo_60194" data-name="Grupo 60194">
            <path id="Trazado_116912" data-name="Trazado 116912" d="M1271.518,1720.739c.047-.887,1.112-8.392,2.207-15.994,1.208-8.33,2.451-16.785,2.451-16.785a9.4,9.4,0,0,1,1.419-.205,16.482,16.482,0,0,1,5.923.637,17.631,17.631,0,0,1,2.278.841,8.591,8.591,0,0,0,2.015.321c-2.174,1.769,1.193,10.432-.465,13.192a2.355,2.355,0,0,1-.959.6c-.4.175-.766.291-.766.291s-6.193,12.041-8.818,15.715l-.028.037a6.037,6.037,0,0,1-4.029,1.724A2.043,2.043,0,0,1,1271.518,1720.739Z" transform="translate(-1271.518 -1687.706)" fill="#866c57"/>
            <path id="Trazado_116913" data-name="Trazado 116913" d="M1315.9,1756.733c-.319-.094-.438-.655-.262-1.253s.576-1.007.9-.913.438.654.263,1.252S1316.219,1756.826,1315.9,1756.733Z" transform="translate(-1304.917 -1738.405)" fill="#43362c"/>
            <path id="Trazado_116914" data-name="Trazado 116914" d="M1305.386,1774.839c-.32-.094-.438-.655-.262-1.253s.576-1.007.9-.913.438.655.263,1.254S1305.706,1774.933,1305.386,1774.839Z" transform="translate(-1296.944 -1752.138)" fill="#43362c"/>
            <path id="Trazado_116915" data-name="Trazado 116915" d="M1271.518,1774.236c.047-.887,1.112-8.392,2.207-15.994a38.678,38.678,0,0,1,1.85,6.7c.489,3.282.97,6.3,1.229,7.9l-.028.036a6.036,6.036,0,0,1-4.029,1.724A2.043,2.043,0,0,1,1271.518,1774.236Z" transform="translate(-1271.518 -1741.203)" fill="#43362c"/>
            <path id="Trazado_116916" data-name="Trazado 116916" d="M1271.518,1720.891c.1-1.867,4.658-32.779,4.658-32.779a9.436,9.436,0,0,1,1.419-.206l-4.848,33.355A2.043,2.043,0,0,1,1271.518,1720.891Z" transform="translate(-1271.518 -1687.858)" fill="#b6a79a"/>
          </g>
        </g>
        <g id="Grupo_60196" data-name="Grupo 60196" transform="translate(17.197 123.244)">
          <path id="Trazado_116917" data-name="Trazado 116917" d="M1346.2,1692.745l-3.494.822,1.274,10.836,4.481.332Z" transform="translate(-1342.707 -1663.783)" fill="#1d4463"/>
          <path id="Trazado_116918" data-name="Trazado 116918" d="M1449.856,1578.453s-8.541,10.461-17.942,20.367c-2.5,2.639-5.068,5.237-7.55,7.588-4.732,4.485-9.154,8.073-12.262,9.31a6.853,6.853,0,0,1-1.344.4c-2.84.51-6.638.938-10.934,1.266-6.951.531-15.2.79-22.821.7-4.423-.057-8.624-.235-12.232-.555a46.222,46.222,0,0,1-8.682-1.406c-1.405-.427-2.63-2.425-3.481-4.924v0c-1.694-4.994-1.874-12.006,1.015-12.545a69.665,69.665,0,0,1,8.767-.9c3.827-.2,8.122-.255,12.43-.234,13.313.079,26.729.954,26.729.954l3.231-7.531,7.756-18.09Z" transform="translate(-1349.288 -1572.851)" fill="#265a84"/>
          <path id="Trazado_116919" data-name="Trazado 116919" d="M1622.552,1643.511c-2.5,2.639-5.068,5.237-7.55,7.588-4.732,4.485-9.155,8.073-12.262,9.31,5.862-11.928,19.257-28.633,19.257-28.633Z" transform="translate(-1539.925 -1617.542)" fill="#517b9d" opacity="0.4"/>
          <path id="Trazado_116920" data-name="Trazado 116920" d="M1617.51,1578.453s-13.7,16.775-25.492,27.955a40.513,40.513,0,0,1-19.582-15.467l7.756-18.09Z" transform="translate(-1516.942 -1572.851)" fill="#1d4463"/>
          <path id="Trazado_116921" data-name="Trazado 116921" d="M1411.566,1695.514c-4.423-.058-8.624-.235-12.233-.555l-2.38-19.774c3.827-.2,8.122-.255,12.43-.234Z" transform="translate(-1383.849 -1650.284)" fill="#ff400c"/>
          <path id="Trazado_116922" data-name="Trazado 116922" d="M1403.672,1737.755c-6.951.531-15.2.79-22.821.7-4.423-.057-8.624-.235-12.232-.555a46.2,46.2,0,0,1-8.682-1.406c-1.405-.427-2.63-2.425-3.481-4.924v0l0,0S1385.459,1735.548,1403.672,1737.755Z" transform="translate(-1353.136 -1693.219)" fill="#1d4463" opacity="0.3"/>
        </g>
        <path id="Trazado_116923" data-name="Trazado 116923" d="M1637.891,1321.258c-1.135,4.381-2.294,8.574-3.329,12.179-1.949,6.8-3.448,11.509-3.448,11.509s-35.4,2.026-40.742-8.858c13.975-22.323,10.358-49.879,20-64.113,1.479-2.183,7.834-7,7.834-7l19.96,6.605s4.944,13.621,5.183,17.745C1643.752,1296.32,1640.928,1309.49,1637.891,1321.258Z" transform="translate(-1513.348 -1216.099)" fill="#3378b0"/>
        <g id="Grupo_60198" data-name="Grupo 60198" transform="translate(155.716 202.021)">
          <path id="Trazado_116924" data-name="Trazado 116924" d="M1936.062,1922.036l-11.163-23.072-8.762,3.151,11.165,23.07Z" transform="translate(-1916.137 -1898.964)" fill="#231f20"/>
          <g id="Grupo_60197" data-name="Grupo 60197" transform="translate(6.901 14.955)">
            <path id="Trazado_116925" data-name="Trazado 116925" d="M1979.818,1968.051c-.829.317-8.12,2.39-15.512,4.477-8.1,2.279-16.335,4.576-16.335,4.576a9.422,9.422,0,0,1-.763-1.214,16.46,16.46,0,0,1-1.823-5.672,17.607,17.607,0,0,1-.157-2.423,8.6,8.6,0,0,0-.525-1.973c2.5,1.269,9.049-5.326,12.244-4.931a2.349,2.349,0,0,1,.935.633c.321.293.577.582.577.582s13.519.771,17.942,1.677l.045.011a6.036,6.036,0,0,1,3.212,2.982A2.042,2.042,0,0,1,1979.818,1968.051Z" transform="translate(-1944.703 -1960.874)" fill="#866c57"/>
            <path id="Trazado_116926" data-name="Trazado 116926" d="M2008.947,1972.289c.044.33-.421.666-1.039.749s-1.155-.117-1.2-.449.42-.665,1.037-.749S2008.9,1971.958,2008.947,1972.289Z" transform="translate(-1991.729 -1969.177)" fill="#43362c"/>
            <path id="Trazado_116927" data-name="Trazado 116927" d="M2029.761,1974.542c.045.331-.42.666-1.038.75s-1.154-.118-1.2-.448.421-.667,1.039-.75S2029.717,1974.212,2029.761,1974.542Z" transform="translate(-2007.516 -1970.886)" fill="#43362c"/>
            <path id="Trazado_116928" data-name="Trazado 116928" d="M2041.367,1977.187c-.829.317-8.12,2.391-15.512,4.477a38.661,38.661,0,0,1,5.372-4.411c2.8-1.78,5.368-3.446,6.723-4.333l.044.011a6.035,6.035,0,0,1,3.212,2.982A2.042,2.042,0,0,1,2041.367,1977.187Z" transform="translate(-2006.252 -1970.01)" fill="#43362c"/>
            <path id="Trazado_116929" data-name="Trazado 116929" d="M1987.684,1986.585c-1.748.662-31.846,9.052-31.846,9.052a9.389,9.389,0,0,1-.763-1.214l32.449-9.113A2.043,2.043,0,0,1,1987.684,1986.585Z" transform="translate(-1952.569 -1979.408)" fill="#b6a79a"/>
          </g>
        </g>
        <g id="Grupo_60200" data-name="Grupo 60200" transform="translate(105.942)">
          <g id="Grupo_60199" data-name="Grupo 60199" transform="translate(3.277 34.849)">
            <path id="Trazado_116930" data-name="Trazado 116930" d="M1740.483,1216.644l-4.245,6.338-.3.553-1.564,2.831-10.715-7.611,7.241-11.476,2.243-.358Z" transform="translate(-1723.655 -1206.921)" fill="#f9ab85"/>
            <path id="Trazado_116931" data-name="Trazado 116931" d="M1761.39,1216.643l-4.245,6.338-.3.553c-3.378-3.426-6.881-7.217-5.172-14.343l2.377-2.27Z" transform="translate(-1744.562 -1206.921)" fill="#b06d4d" opacity="0.39"/>
          </g>
          <path id="Trazado_116932" data-name="Trazado 116932" d="M1768.054,1115.727c-.058.267-.119.539-.181.814-.1.415-.2.839-.3,1.265-3.424,18.333-24.387,1.344-20.831-7.049,6.214-14.67,4.542-39.414,20.19-21.8C1771.552,1094.152,1772.032,1098.262,1768.054,1115.727Z" transform="translate(-1737.584 -1077.986)" fill="#fcae88"/>
          <path id="Trazado_116933" data-name="Trazado 116933" d="M1833.828,1175.422l3.447,6.51c-.8,1.572-6.988,1-6.988,1Z" transform="translate(-1801.251 -1148.182)" fill="#fcae88"/>
          <path id="Trazado_116934" data-name="Trazado 116934" d="M1823.278,1160.486c0,.968-.4,1.753-.89,1.753s-.889-.785-.889-1.753.4-1.752.889-1.752S1823.278,1159.518,1823.278,1160.486Z" transform="translate(-1794.586 -1135.525)" fill="#482b0e"/>
          <path id="Trazado_116935" data-name="Trazado 116935" d="M1820.106,1218.891c-.057.267-.119.539-.181.814h-4.546a.407.407,0,0,1,0-.814Z" transform="translate(-1789.636 -1181.151)" fill="#bd8366"/>
          <path id="Trazado_116936" data-name="Trazado 116936" d="M1741.775,1076.853a8.484,8.484,0,0,0-6.515-.76c-3.317,1.031-5.886,4.427-6.21,9.922a24.153,24.153,0,0,0,.345,5.476c.053.3-1.706,1-1.92,1.208-3.5,3.424-7.517,8.673-9.626,10.707-.041.037-.078.074-.115.111l-.021.021h0a4.841,4.841,0,0,1-1.25.908h0l0,0,0,0v0c-5.857-11.513-8.911-26.536-3.658-27.609a4.817,4.817,0,0,1,.288-6.026c-.271.871-1.069,3.506,1.015,5.282-2.08-14.255,12.2-13.461,16.955-13.408a7.131,7.131,0,0,0-2.4,2.7c.309.012.58.025.81.037,2.495-2.643,3.876-1.114,6.7-.309a1.931,1.931,0,0,1,1.726-.337c6.309.913,6.507,8.562,9.318,5.138C1750.172,1079.981,1741.775,1076.853,1741.775,1076.853Z" transform="translate(-1710.088 -1062.657)" fill="#482b0e"/>
          <path id="Trazado_116937" data-name="Trazado 116937" d="M1748.953,1164.324c.053.3-1.706,1-1.92,1.208-3.5,3.424-7.517,8.673-9.626,10.707-.041.037-.078.074-.115.111l-.021.021h0a4.846,4.846,0,0,1-1.25.908h0a.015.015,0,0,0-.009,0s-1.779-18.344,7.88-18.575a40.418,40.418,0,0,1,4.723.148A24.138,24.138,0,0,0,1748.953,1164.324Z" transform="translate(-1729.647 -1135.49)" fill="#36200b"/>
          <path id="Trazado_116938" data-name="Trazado 116938" d="M1758.342,1170.229c1.055,2.619.431,5.338-1.395,6.073s-4.159-.792-5.214-3.411-.43-5.337,1.4-6.073S1757.287,1167.611,1758.342,1170.229Z" transform="translate(-1741.284 -1141.517)" fill="#fcae88"/>
          <path id="Trazado_116939" data-name="Trazado 116939" d="M1809.666,1140.748l.026.929.522-.014-.029-1.024,1.625-.342s.527,2.164.073,2.642c-1.249,1.321-7.265.2-7.265.2l-.037-1.322Z" transform="translate(-1781.754 -1121.541)" fill="#482b0e"/>
          <path id="Trazado_116940" data-name="Trazado 116940" d="M1716.451,1079.648c-9.626-2.561-.2,24.234,0,24.794-5.857-11.513-8.911-26.536-3.658-27.609a4.817,4.817,0,0,1,.288-6.026c-.271.871-1.069,3.506,1.015,5.282-2.08-14.255,12.2-13.461,16.955-13.408C1710.438,1065.932,1716.311,1075.666,1716.451,1079.648Z" transform="translate(-1710.088 -1062.657)" fill="#95510e" opacity="0.23"/>
          <path id="Trazado_116941" data-name="Trazado 116941" d="M1820.792,1099.628a8.483,8.483,0,0,0-6.515-.76l0,0s2.428-4.121,7.362-1.09,4.591-5.088,4.591-5.088C1829.19,1102.756,1820.792,1099.628,1820.792,1099.628Z" transform="translate(-1789.106 -1085.432)" fill="#36200b"/>
        </g>
        <path id="Trazado_116942" data-name="Trazado 116942" d="M1692.325,1415.912c-1.135,4.381-2.294,8.574-3.329,12.179-19.754-3.152-26.853-38.084-26.853-38.084C1664.831,1387.434,1683.2,1406.6,1692.325,1415.912Z" transform="translate(-1567.782 -1310.753)" fill="#265a84" opacity="0.43"/>
        <path id="Trazado_116943" data-name="Trazado 116943" d="M1749.892,1287.414l3.593,21.6-8.846,46.378h.735l9.146-46.378-3.956-21.6Z" transform="translate(-1630.35 -1233.121)" fill="#265a84"/>
        <path id="Trazado_116944" data-name="Trazado 116944" d="M1706.493,1244.956c3.708,0,10.714,10.257,10.714,10.257l-2.438,6.551-13.742-11.6S1704.605,1244.954,1706.493,1244.956Z" transform="translate(-1597.274 -1200.919)" fill="#00569d"/>
        <path id="Trazado_116945" data-name="Trazado 116945" d="M1768.01,1276.79l2.862,6.377s8.5-.646-.993-9.761Z" transform="translate(-1648.076 -1222.497)" fill="#00569d"/>
        <g id="Grupo_60201" data-name="Grupo 60201" transform="translate(73.375 119.989)">
          <path id="Trazado_116946" data-name="Trazado 116946" d="M1936.838,1949.592l1.439,2.645,10.041-2.9-.588-3.334Z" transform="translate(-1849.497 -1852.605)" fill="#1d4463"/>
          <path id="Trazado_116947" data-name="Trazado 116947" d="M1675.511,1652.4c-.39,2.442-5.216,4.226-9.5,4.55-2.627.2-5.048-.148-6.12-1.22a34.365,34.365,0,0,1-5.122-7.982c-1.693-3.293-3.5-7.239-5.388-11.468-4.974-11.144-10.543-24.272-16.208-32.615-78.207-13.116-54.692-43.726-54.26-44.277a.014.014,0,0,0,0-.009l32.2,5.048s33.5,23.268,41.548,34.013c5.114,6.826,12.52,20.831,17.527,33.183a111.6,111.6,0,0,1,4.032,11.488C1675.326,1647.044,1675.844,1650.308,1675.511,1652.4Z" transform="translate(-1575.271 -1559.374)" fill="#3378b0"/>
          <path id="Trazado_116948" data-name="Trazado 116948" d="M1906.91,1869.932l-19.45,4.637c-1.693-3.293-3.5-7.239-5.388-11.468l20.806-4.657A111.635,111.635,0,0,1,1906.91,1869.932Z" transform="translate(-1807.959 -1786.2)" fill="#ff400c"/>
          <path id="Trazado_116949" data-name="Trazado 116949" d="M1666.013,1656.972c-2.627.2-5.048-.148-6.12-1.22a34.365,34.365,0,0,1-5.122-7.982c-1.693-3.293-3.5-7.239-5.388-11.468-4.974-11.144-10.543-24.272-16.208-32.615-78.207-13.116-54.692-43.726-54.26-44.277-.1.641-5.163,32.776,55.062,41.527C1637.45,1605.634,1657.623,1653.734,1666.013,1656.972Z" transform="translate(-1575.271 -1559.401)" fill="#1d4463" opacity="0.2"/>
        </g>
        <path id="Trazado_116950" data-name="Trazado 116950" d="M1954.1,1519.341s7.848-2.215,10.47-1.811c2.716.418,8.471,4.715,8.515,6.951.048,2.458-5.043,6.522-7.654,7.024-3.19.613-12.064-4.824-12.064-4.824Z" transform="translate(-1788.656 -1407.612)" fill="#f9bb94"/>
        <g id="Grupo_60203" data-name="Grupo 60203" transform="translate(94.045 65.714)">
          <g id="Grupo_60202" data-name="Grupo 60202">
            <path id="Trazado_116951" data-name="Trazado 116951" d="M1732.75,1378.2l-1.25,10.863s-38.843.535-48.831-5.754c-3.708-2.331-7.662-7.592-11.189-13.289-2.281-3.691-4.385-7.563-6.132-10.95-1.13-2.2-2.109-4.184-2.885-5.787-2.265-4.661-4.48-26.166,10.5-15.8,3.847,2.663,7.736,8.385,11,14.254,1.957,3.519,3.688,7.087,5.056,10.083,1.455,3.194,2.495,5.734,2.947,6.865.168.415.255.641.255.641l2.733.6Z" transform="translate(-1660.837 -1334.692)" fill="#3378b0"/>
            <path id="Trazado_116952" data-name="Trazado 116952" d="M1703.192,1415.347l-17.543,8.2c-2.281-3.691-4.386-7.563-6.132-10.95l18.62-7.329C1700.092,1408.783,1701.823,1412.35,1703.192,1415.347Z" transform="translate(-1675.004 -1388.216)" fill="#ff400c"/>
          </g>
          <path id="Trazado_116953" data-name="Trazado 116953" d="M1785.81,1476.657l-5.188.094,2.2-1.332c.169.415.255.641.255.641Z" transform="translate(-1751.686 -1441.425)" fill="#1d4463"/>
        </g>
      </g>
      <g id="manfront" transform="translate(418.28 0)">
        <g id="Grupo_60205" data-name="Grupo 60205" transform="translate(162.644 203.371)">
          <path id="Trazado_116954" data-name="Trazado 116954" d="M3696.294,1922.036l-11.163-23.072-8.762,3.151,11.165,23.07Z" transform="translate(-3676.369 -1898.964)" fill="#231f20"/>
          <g id="Grupo_60204" data-name="Grupo 60204" transform="translate(6.901 14.955)">
            <path id="Trazado_116955" data-name="Trazado 116955" d="M3740.051,1968.051c-.83.317-8.121,2.39-15.512,4.477-8.1,2.279-16.334,4.576-16.334,4.576a9.35,9.35,0,0,1-.764-1.214,16.456,16.456,0,0,1-1.823-5.672,17.455,17.455,0,0,1-.157-2.423,8.655,8.655,0,0,0-.525-1.973c2.5,1.269,9.048-5.326,12.244-4.931a2.347,2.347,0,0,1,.935.633c.321.293.577.582.577.582s13.519.771,17.942,1.677l.044.011a6.038,6.038,0,0,1,3.212,2.982A2.047,2.047,0,0,1,3740.051,1968.051Z" transform="translate(-3704.936 -1960.874)" fill="#866c57"/>
            <path id="Trazado_116956" data-name="Trazado 116956" d="M3769.178,1972.289c.044.33-.421.666-1.038.749s-1.155-.117-1.2-.449.42-.665,1.038-.749S3769.134,1971.958,3769.178,1972.289Z" transform="translate(-3751.961 -1969.177)" fill="#43362c"/>
            <path id="Trazado_116957" data-name="Trazado 116957" d="M3789.995,1974.542c.044.331-.42.666-1.039.75s-1.154-.118-1.2-.448.42-.667,1.038-.75S3789.951,1974.212,3789.995,1974.542Z" transform="translate(-3767.75 -1970.886)" fill="#43362c"/>
            <path id="Trazado_116958" data-name="Trazado 116958" d="M3801.6,1977.187c-.83.317-8.121,2.391-15.512,4.477a38.647,38.647,0,0,1,5.372-4.411c2.8-1.78,5.368-3.446,6.723-4.333l.044.011a6.035,6.035,0,0,1,3.211,2.982A2.047,2.047,0,0,1,3801.6,1977.187Z" transform="translate(-3766.484 -1970.01)" fill="#43362c"/>
            <path id="Trazado_116959" data-name="Trazado 116959" d="M3747.917,1986.585c-1.748.662-31.847,9.052-31.847,9.052a9.417,9.417,0,0,1-.764-1.214l32.449-9.113A2.048,2.048,0,0,1,3747.917,1986.585Z" transform="translate(-3712.802 -1979.408)" fill="#b6a79a"/>
          </g>
        </g>
        <g id="Grupo_60206" data-name="Grupo 60206" transform="translate(80.303 121.338)">
          <path id="Trazado_116960" data-name="Trazado 116960" d="M3697.072,1949.592l1.438,2.645,10.041-2.9-.587-3.334Z" transform="translate(-3609.73 -1852.605)" fill="#1d4463"/>
          <path id="Trazado_116961" data-name="Trazado 116961" d="M3435.743,1652.4c-.39,2.442-5.216,4.226-9.5,4.55-2.627.2-5.047-.148-6.12-1.22a34.349,34.349,0,0,1-5.122-7.982c-1.693-3.293-3.5-7.239-5.388-11.468-4.975-11.144-10.544-24.272-16.208-32.615-78.207-13.116-54.692-43.726-54.26-44.277a.014.014,0,0,0,0-.009l32.2,5.048s33.5,23.268,41.548,34.013c5.114,6.826,12.52,20.831,17.526,33.183a111.594,111.594,0,0,1,4.032,11.488C3435.559,1647.044,3436.077,1650.308,3435.743,1652.4Z" transform="translate(-3335.502 -1559.374)" fill="#265a84"/>
          <path id="Trazado_116962" data-name="Trazado 116962" d="M3667.143,1869.932l-19.45,4.637c-1.693-3.293-3.5-7.239-5.388-11.468l20.806-4.657A111.444,111.444,0,0,1,3667.143,1869.932Z" transform="translate(-3568.192 -1786.2)" fill="#ff400c"/>
          <path id="Trazado_116963" data-name="Trazado 116963" d="M3426.245,1656.972c-2.627.2-5.047-.148-6.12-1.22a34.349,34.349,0,0,1-5.122-7.982c-1.693-3.293-3.5-7.239-5.388-11.468-4.975-11.144-10.544-24.272-16.208-32.615-78.207-13.116-54.692-43.726-54.26-44.277-.1.641-5.163,32.776,55.063,41.527C3397.682,1605.634,3417.855,1653.734,3426.245,1656.972Z" transform="translate(-3335.502 -1559.401)" fill="#1d4463" opacity="0.2"/>
        </g>
        <g id="Grupo_60210" data-name="Grupo 60210" transform="translate(0 119.44)">
          <g id="Grupo_60208" data-name="Grupo 60208" transform="translate(0 54.002)">
            <path id="Trazado_116964" data-name="Trazado 116964" d="M3029.843,1788.393l25.477-2.81-.042-9.311-25.475,2.811Z" transform="translate(-3023.345 -1775.982)" fill="#231f20"/>
            <g id="Grupo_60207" data-name="Grupo 60207">
              <path id="Trazado_116965" data-name="Trazado 116965" d="M3003.073,1808.617c-.022-.888.46-8.452.964-16.117.561-8.4,1.148-16.924,1.148-16.924a9.308,9.308,0,0,1,1.4-.314,16.481,16.481,0,0,1,5.955.178,17.638,17.638,0,0,1,2.337.662,8.6,8.6,0,0,0,2.034.165c-2.032,1.932,2,10.309.556,13.189a2.35,2.35,0,0,1-.91.669c-.383.205-.742.349-.742.349s-5.245,12.483-7.578,16.35c-.009.014-.017.024-.025.039a6.041,6.041,0,0,1-3.884,2.03A2.044,2.044,0,0,1,3003.073,1808.617Z" transform="translate(-3003.072 -1775.072)" fill="#866c57"/>
              <path id="Trazado_116966" data-name="Trazado 116966" d="M3042.431,1842.774c-.326-.069-.487-.619-.358-1.229s.5-1.049.823-.98.487.618.359,1.228S3042.757,1842.843,3042.431,1842.774Z" transform="translate(-3032.618 -1824.739)" fill="#43362c"/>
              <path id="Trazado_116967" data-name="Trazado 116967" d="M3033.349,1861.64c-.326-.068-.487-.618-.359-1.229s.5-1.049.823-.98.488.619.359,1.229S3033.675,1861.709,3033.349,1861.64Z" transform="translate(-3025.729 -1839.047)" fill="#43362c"/>
              <path id="Trazado_116968" data-name="Trazado 116968" d="M3003.073,1863.336c-.022-.888.46-8.452.964-16.116a38.72,38.72,0,0,1,2.362,6.538c.741,3.235,1.453,6.211,1.836,7.784-.009.014-.017.024-.025.039a6.04,6.04,0,0,1-3.884,2.03A2.044,2.044,0,0,1,3003.073,1863.336Z" transform="translate(-3003.072 -1829.792)" fill="#43362c"/>
              <path id="Trazado_116969" data-name="Trazado 116969" d="M3003.073,1809.212c-.041-1.869,2.112-33.041,2.112-33.041a9.366,9.366,0,0,1,1.4-.314l-2.257,33.63A2.047,2.047,0,0,1,3003.073,1809.212Z" transform="translate(-3003.072 -1775.667)" fill="#b6a79a"/>
            </g>
          </g>
          <g id="Grupo_60209" data-name="Grupo 60209" transform="translate(14.752)">
            <path id="Trazado_116970" data-name="Trazado 116970" d="M3067.56,1776.007l-3.42,1.09,2.107,10.7,4.493-.015Z" transform="translate(-3064.14 -1721.779)" fill="#1d4463"/>
            <path id="Trazado_116971" data-name="Trazado 116971" d="M3180.186,1564.12s-18.625,21.927-27.23,32.528c-2.291,2.826-4.648,5.614-6.941,8.15-4.372,4.835-8.5,8.756-11.505,10.228a6.7,6.7,0,0,1-1.308.5c-2.793.727-6.546,1.449-10.8,2.108-6.891,1.064-15.1,1.961-22.7,2.456-4.415.284-8.617.431-12.238.39a46.194,46.194,0,0,1-8.766-.73,4.751,4.751,0,0,1-2.575-2.226c-.208-.316-.41-.658-.608-1.021-.233-.438-.457-.9-.667-1.394v0a23.323,23.323,0,0,1-1.812-7.644,12.661,12.661,0,0,1,0-1.32c.1-1.89.664-3.3,1.855-3.622a69.733,69.733,0,0,1,8.672-1.571c3.8-.491,8.077-.879,12.375-1.193,13.28-.95,26.722-1.113,26.722-1.113l2.64-7.76s7.687-24.962,12.885-34.575a16.087,16.087,0,0,1,1.885-2.889l0-.005a6.1,6.1,0,0,1,3.89-1.791C3155.041,1550.151,3180.186,1564.12,3180.186,1564.12Z" transform="translate(-3070.871 -1551.517)" fill="#3378b0"/>
            <path id="Trazado_116972" data-name="Trazado 116972" d="M3132.8,1771.564c-4.414.285-8.616.433-12.239.392l-3.9-19.532c3.8-.493,8.078-.881,12.375-1.194Z" transform="translate(-3103.975 -1702.987)" fill="#ff400c"/>
            <path id="Trazado_116973" data-name="Trazado 116973" d="M3128.138,1817.289c-6.89,1.066-15.1,1.961-22.7,2.455-4.414.285-8.615.433-12.239.392a46.219,46.219,0,0,1-8.764-.731c-1.435-.318-2.81-2.215-3.851-4.64v0l0,0S3109.809,1816.495,3128.138,1817.289Z" transform="translate(-3076.613 -1751.167)" fill="#1d4463" opacity="0.3"/>
          </g>
        </g>
        <path id="Trazado_116974" data-name="Trazado 116974" d="M3398.118,1321.259c-1.135,4.382-2.293,8.576-3.33,12.179-1.946,6.8-4.073,13.356-4.073,13.356s-32.107.167-39.36-9.479a7.575,7.575,0,0,1-.755-1.224l0,0c8.6-13.733,10.538-29.446,13-42.817,1.542-8.368,3.287-15.819,7-21.3,1.48-2.185,7.833-7,7.833-7l19.96,6.6s4.944,13.622,5.183,17.745C3403.98,1296.321,3401.157,1309.491,3398.118,1321.259Z" transform="translate(-3266.648 -1214.75)" fill="#3378b0"/>
        <g id="Grupo_60211" data-name="Grupo 60211" transform="translate(116.147 36.199)">
          <path id="Trazado_116975" data-name="Trazado 116975" d="M3500.715,1216.644l-4.245,6.338-.3.553-1.563,2.831-10.715-7.611,7.241-11.476,2.243-.358Z" transform="translate(-3483.887 -1206.921)" fill="#f9ab85"/>
          <path id="Trazado_116976" data-name="Trazado 116976" d="M3521.623,1216.643l-4.245,6.338-.3.553c-3.378-3.426-6.881-7.217-5.172-14.343l2.377-2.27Z" transform="translate(-3504.794 -1206.921)" fill="#b06d4d" opacity="0.39"/>
        </g>
        <path id="Trazado_116977" data-name="Trazado 116977" d="M3528.286,1115.727c-.058.267-.119.539-.181.814-.1.415-.2.839-.3,1.265-3.424,18.333-24.387,1.344-20.831-7.049,6.214-14.67,4.542-39.414,20.19-21.8C3531.784,1094.152,3532.265,1098.262,3528.286,1115.727Z" transform="translate(-3384.946 -1076.637)" fill="#fcae88"/>
        <path id="Trazado_116978" data-name="Trazado 116978" d="M3502.8,1068.685a2.449,2.449,0,0,1-2.112-2.933,27813.591,27813.591,0,0,1-4.9-4.9,2.442,2.442,0,0,1-3.082-1.495,2.44,2.44,0,0,1-3.167-.955,2.446,2.446,0,0,1-4.026-1.333,2.447,2.447,0,0,1-4.233.514,2.444,2.444,0,0,0-2.354,3.12q-.317.118-.634.249a2.449,2.449,0,0,0-4.361,1.531c0,.038,0,.075.006.112a6.227,6.227,0,0,1-7.53,2.338,15.644,15.644,0,0,1-4.066,8.651c0,.006,0,.012,0,.018a9.167,9.167,0,0,1-2.164,6.858,2.446,2.446,0,0,1,0,3.076,2.443,2.443,0,0,1,2.163,3.477,2.445,2.445,0,0,1,.287,3.9,2.445,2.445,0,0,1,1.33,3.612,2.45,2.45,0,0,0,3.412,2.253c.51,1.165,1.05,2.312,1.617,3.427v0l0,0,0,0h0a4.856,4.856,0,0,0,1.25-.908h0l.021-.021c.037-.037.074-.074.115-.111,2.109-2.035,6.128-7.283,9.626-10.707.214-.21,1.973-.912,1.919-1.208a24.178,24.178,0,0,1-.345-5.475c.324-5.5,2.893-8.891,6.21-9.922,1.995-.629,7.467,8.932,12.554,1.69a16.56,16.56,0,0,0,2.448-4.861Z" transform="translate(-3349.759 -1057.07)" fill="#482b0e"/>
        <path id="Trazado_116979" data-name="Trazado 116979" d="M3594.061,1175.422l3.447,6.51c-.8,1.572-6.988,1-6.988,1Z" transform="translate(-3448.614 -1146.833)" fill="#fcae88"/>
        <path id="Trazado_116980" data-name="Trazado 116980" d="M3583.509,1160.486c0,.968-.4,1.753-.889,1.753s-.89-.785-.89-1.753.4-1.752.89-1.752S3583.509,1159.518,3583.509,1160.486Z" transform="translate(-3441.947 -1134.176)" fill="#482b0e"/>
        <path id="Trazado_116981" data-name="Trazado 116981" d="M3580.337,1218.891c-.058.267-.119.539-.181.814h-4.545a.407.407,0,1,1,0-.814Z" transform="translate(-3436.997 -1179.801)" fill="#bd8366"/>
        <path id="Trazado_116982" data-name="Trazado 116982" d="M3509.186,1164.324c.054.3-1.706,1-1.919,1.208-3.5,3.424-7.518,8.673-9.626,10.707-.041.037-.078.074-.115.111l-.021.021h0a4.856,4.856,0,0,1-1.25.908h0a.014.014,0,0,0-.009,0s-1.779-18.344,7.88-18.575a40.419,40.419,0,0,1,4.723.148A24.151,24.151,0,0,0,3509.186,1164.324Z" transform="translate(-3377.009 -1134.14)" fill="#36200b"/>
        <path id="Trazado_116983" data-name="Trazado 116983" d="M3518.574,1170.229c1.056,2.619.431,5.338-1.395,6.073s-4.16-.792-5.214-3.411-.43-5.337,1.4-6.073S3517.52,1167.611,3518.574,1170.229Z" transform="translate(-3388.647 -1140.167)" fill="#fcae88"/>
        <path id="Trazado_116984" data-name="Trazado 116984" d="M3575.026,1144.916l2.148-.3s.5,1.306.044,1.6c-1.263.814-7.265.2-7.265.2l-.023-.8Z" transform="translate(-3432.998 -1123.47)" fill="#482b0e"/>
        <path id="Trazado_116985" data-name="Trazado 116985" d="M3510.125,1287.414l3.592,21.6-8.846,46.378h.735l9.145-46.378-3.956-21.6Z" transform="translate(-3383.655 -1231.772)" fill="#265a84"/>
        <path id="Trazado_116986" data-name="Trazado 116986" d="M3466.725,1244.956c3.709,0,10.715,10.257,10.715,10.257l-2.438,6.551-13.742-11.6S3464.838,1244.954,3466.725,1244.956Z" transform="translate(-3350.579 -1199.569)" fill="#00569d"/>
        <path id="Trazado_116987" data-name="Trazado 116987" d="M3528.244,1276.79l2.861,6.377s8.5-.646-.994-9.761Z" transform="translate(-3401.382 -1221.147)" fill="#00569d"/>
        <g id="Grupo_60212" data-name="Grupo 60212" transform="translate(48.071 113.178)">
          <path id="Trazado_116988" data-name="Trazado 116988" d="M3206.181,1548.577s-2.255,5.579-3.506,4.5c-1.765-1.523.935-11.911.681-14.368-.28-2.718,7.7-13.116,7.7-13.116l5.449,1.964s.6,14.282-.491,16.944c-1.032,2.512-9.4,9.3-9.4,9.3s-1.225,1.616-1.682-.288Z" transform="translate(-3202.073 -1525.594)" fill="#f9bb94"/>
        </g>
        <path id="Trazado_116989" data-name="Trazado 116989" d="M3367.94,1383.521s-9,11.217-9.673,17.079c-.524,4.562-3.73,15.616-9.7,22.555a21.5,21.5,0,0,1-3.135,3.016,15.671,15.671,0,0,1-2.64,1.667s0,0-.005,0a16.087,16.087,0,0,1,1.885-2.889l0-.005,0,0c8.6-13.733,10.538-29.446,13-42.817Z" transform="translate(-3260.721 -1303.605)" fill="#265a84" opacity="0.71"/>
        <g id="Grupo_60213" data-name="Grupo 60213" transform="translate(52.628 54.71)">
          <path id="Trazado_116990" data-name="Trazado 116990" d="M3275.06,1309.212l-3.987.9-9.439,2.131-6.083,1.376-23.777,35.847-10.836-3.784s14.765-35.341,22.829-43.468c1.855-1.873,6.06-4.648,10.789-7.491,2.727-1.642,5.626-3.3,8.351-4.828,6.351-3.55,11.747-6.346,11.747-6.346C3294.6,1291.264,3275.06,1309.212,3275.06,1309.212Z" transform="translate(-3220.938 -1283.552)" fill="#3378b0"/>
          <path id="Trazado_116991" data-name="Trazado 116991" d="M3376.622,1330.038l-9.44,2.131-7.078-17.519c2.727-1.642,5.626-3.3,8.351-4.828Z" transform="translate(-3326.487 -1303.476)" fill="#ff400c"/>
        </g>
        <path id="Trazado_116992" data-name="Trazado 116992" d="M3485.363,1212.884a2.45,2.45,0,1,1-2.45-2.45A2.45,2.45,0,0,1,3485.363,1212.884Z" transform="translate(-3365.143 -1173.387)" fill="#482b0e"/>
      </g>
    </g>
  </g>
</svg>
