<svg xmlns="http://www.w3.org/2000/svg" width="327.7" height="316.002" viewBox="0 0 327.7 316.002">
  <g id="Grupo_60141" data-name="Grupo 60141" transform="translate(-418.875 -181.229)">
    <g id="Grupo_60088" data-name="Grupo 60088" transform="translate(418.875 257.811)">
      <g id="Grupo_59955" data-name="Grupo 59955" transform="translate(208.581 90.256)">
        <g id="Grupo_59936" data-name="Grupo 59936" transform="translate(40.281)">
          <g id="Grupo_59935" data-name="Grupo 59935">
            <g id="Grupo_59934" data-name="Grupo 59934">
              <path id="Trazado_116679" data-name="Trazado 116679" d="M689.508,363.032l.26,2.647c-.019-.154,6.789-.355,6.789-.355l0-2.662S689.5,362.869,689.508,363.032Z" transform="translate(-689.508 -362.662)" fill="#fbe366"/>
            </g>
          </g>
        </g>
        <g id="Grupo_59939" data-name="Grupo 59939" transform="translate(29.872 0.769)">
          <g id="Grupo_59938" data-name="Grupo 59938">
            <g id="Grupo_59937" data-name="Grupo 59937">
              <path id="Trazado_116680" data-name="Trazado 116680" d="M678.188,365.161l.852,2.527s.4-.124,1-.3a16.94,16.94,0,0,1,2.224-.592l3.3-.668-.418-2.629s-1.75.351-3.5.705a18.12,18.12,0,0,0-2.38.638C678.621,365.03,678.188,365.161,678.188,365.161Z" transform="translate(-678.188 -363.498)" fill="#fbe366"/>
            </g>
          </g>
        </g>
        <g id="Grupo_59942" data-name="Grupo 59942" transform="translate(20.278 3.647)">
          <g id="Grupo_59941" data-name="Grupo 59941">
            <g id="Grupo_59940" data-name="Grupo 59940">
              <path id="Trazado_116681" data-name="Trazado 116681" d="M667.757,370.086l1.539,2.184c-.129-.215,5.763-3.376,5.842-3.2l-1.086-2.437C673.961,366.451,667.614,369.86,667.757,370.086Z" transform="translate(-667.754 -366.628)" fill="#fbe366"/>
            </g>
          </g>
        </g>
        <g id="Grupo_59945" data-name="Grupo 59945" transform="translate(12.638 9.275)">
          <g id="Grupo_59944" data-name="Grupo 59944">
            <g id="Grupo_59943" data-name="Grupo 59943">
              <path id="Trazado_116682" data-name="Trazado 116682" d="M659.447,378.027l2.1,1.645a20.655,20.655,0,0,1,2.127-2.565,19.571,19.571,0,0,1,2.384-2.335l-1.743-2.025a21.48,21.48,0,0,0-2.568,2.511A23.491,23.491,0,0,0,659.447,378.027Z" transform="translate(-659.447 -372.748)" fill="#fbe366"/>
            </g>
          </g>
        </g>
        <g id="Grupo_59948" data-name="Grupo 59948" transform="translate(7.313 17.462)">
          <g id="Grupo_59947" data-name="Grupo 59947">
            <g id="Grupo_59946" data-name="Grupo 59946">
              <path id="Trazado_116683" data-name="Trazado 116683" d="M653.656,387.935l2.421,1.105s.7-1.55,1.493-3.047c.4-.732.811-1.475,1.109-2.021.336-.529.559-.886.559-.886L657,381.652l-.6.951c-.321.58-.754,1.369-1.181,2.154C654.377,386.329,653.656,387.935,653.656,387.935Z" transform="translate(-653.656 -381.652)" fill="#fbe366"/>
            </g>
          </g>
        </g>
        <g id="Grupo_59951" data-name="Grupo 59951" transform="translate(3.621 26.8)">
          <g id="Grupo_59950" data-name="Grupo 59950">
            <g id="Grupo_59949" data-name="Grupo 59949">
              <path id="Trazado_116684" data-name="Trazado 116684" d="M649.641,398.038l2.188,1.7,1.248-3.361c.657-1.675,1.309-3.345,1.309-3.345l-2.372-1.226s-.6,1.55-1.217,3.1C650.221,396.473,649.641,398.038,649.641,398.038Z" transform="translate(-649.641 -391.807)" fill="#fbe366"/>
            </g>
          </g>
        </g>
        <g id="Grupo_59954" data-name="Grupo 59954" transform="translate(0 36.086)">
          <g id="Grupo_59953" data-name="Grupo 59953">
            <g id="Grupo_59952" data-name="Grupo 59952">
              <path id="Trazado_116685" data-name="Trazado 116685" d="M645.7,408.087l1.837,2.331s.761-1.6,1.422-3.259c.7-1.641,1.317-3.319,1.317-3.319l-2.083-1.936s-.6,1.554-1.2,3.112S645.7,408.087,645.7,408.087Z" transform="translate(-645.703 -401.905)" fill="#fbe366"/>
            </g>
          </g>
        </g>
      </g>
      <g id="Grupo_59977" data-name="Grupo 59977" transform="translate(154.466 128.247)">
        <g id="Grupo_59958" data-name="Grupo 59958" transform="translate(49.091 7.219)">
          <g id="Grupo_59957" data-name="Grupo 59957">
            <g id="Grupo_59956" data-name="Grupo 59956">
              <path id="Trazado_116686" data-name="Trazado 116686" d="M640.24,417.41l1.369,2.791a6.307,6.307,0,0,0,.7-.852c.392-.54.912-1.256,1.429-1.972.472-.751.932-1.509,1.286-2.074.339-.566.524-.966.524-.966l-1.686-2.509s-.788,1.468-1.655,2.893c-.483.682-.965,1.362-1.32,1.874A5.363,5.363,0,0,1,640.24,417.41Z" transform="translate(-640.24 -411.827)" fill="#fbe366"/>
            </g>
          </g>
        </g>
        <g id="Grupo_59961" data-name="Grupo 59961" transform="translate(41.318 15.158)">
          <g id="Grupo_59960" data-name="Grupo 59960">
            <g id="Grupo_59959" data-name="Grupo 59959">
              <path id="Trazado_116687" data-name="Trazado 116687" d="M631.787,424.124l.784,3.092s.4-.2.995-.494a13.142,13.142,0,0,0,2.12-1.2,18.959,18.959,0,0,0,2.82-2.146l-1.191-2.911a17.136,17.136,0,0,1-2.625,2.048,11.209,11.209,0,0,1-1.977,1.143C632.156,423.939,631.787,424.124,631.787,424.124Z" transform="translate(-631.787 -420.461)" fill="#fbe366"/>
            </g>
          </g>
        </g>
        <g id="Grupo_59964" data-name="Grupo 59964" transform="translate(31.701 19.948)">
          <g id="Grupo_59963" data-name="Grupo 59963">
            <g id="Grupo_59962" data-name="Grupo 59962">
              <path id="Trazado_116688" data-name="Trazado 116688" d="M621.328,426.745l.132,3.209s1.766-.177,3.534-.366c.872-.185,1.739-.365,2.4-.509a10.233,10.233,0,0,0,1.082-.253l-.577-3.157s-.4.128-1.015.249-1.425.305-2.24.478C622.98,426.568,621.328,426.745,621.328,426.745Z" transform="translate(-621.328 -425.67)" fill="#fbe366"/>
            </g>
          </g>
        </g>
        <g id="Grupo_59967" data-name="Grupo 59967" transform="translate(21.283 20.472)">
          <g id="Grupo_59966" data-name="Grupo 59966">
            <g id="Grupo_59965" data-name="Grupo 59965">
              <path id="Trazado_116689" data-name="Trazado 116689" d="M610.527,426.24,610,429.416s.43.094,1.087.225l2.436.208c.886.072,1.773.147,2.437.2.664,0,1.108,0,1.108,0l.087-3.217s-.416,0-1.046,0c-.614-.052-1.448-.117-2.281-.185l-2.274-.2C610.934,426.326,610.527,426.24,610.527,426.24Z" transform="translate(-609.999 -426.24)" fill="#fbe366"/>
            </g>
          </g>
        </g>
        <g id="Grupo_59970" data-name="Grupo 59970" transform="translate(11.743 16.395)">
          <g id="Grupo_59969" data-name="Grupo 59969">
            <g id="Grupo_59968" data-name="Grupo 59968">
              <path id="Trazado_116690" data-name="Trazado 116690" d="M600.776,421.806l-1.15,2.961a24.994,24.994,0,0,0,2.95,1.965,11.727,11.727,0,0,0,2.2,1.037c.614.253,1.026.418,1.026.418l.743-3.119-.962-.4a10.753,10.753,0,0,1-2.06-.984A23.665,23.665,0,0,1,600.776,421.806Z" transform="translate(-599.625 -421.806)" fill="#fbe366"/>
            </g>
          </g>
        </g>
        <g id="Grupo_59973" data-name="Grupo 59973" transform="translate(4.813 8.882)">
          <g id="Grupo_59972" data-name="Grupo 59972">
            <g id="Grupo_59971" data-name="Grupo 59971">
              <path id="Trazado_116691" data-name="Trazado 116691" d="M593.754,413.636l-1.666,2.572s1.011,1.457,2.017,2.911c1.161,1.34,2.327,2.679,2.327,2.679l1.335-2.855s-1.076-1.275-2.15-2.543C594.682,415.016,593.754,413.636,593.754,413.636Z" transform="translate(-592.088 -413.636)" fill="#fbe366"/>
            </g>
          </g>
        </g>
        <g id="Grupo_59976" data-name="Grupo 59976">
          <g id="Grupo_59975" data-name="Grupo 59975">
            <g id="Grupo_59974" data-name="Grupo 59974">
              <path id="Trazado_116692" data-name="Trazado 116692" d="M588.936,403.977,586.854,406s.694,1.644,1.448,3.259a28.9,28.9,0,0,0,1.607,3.172l1.818-2.4a27.438,27.438,0,0,1-1.467-2.995C589.573,405.515,588.936,403.977,588.936,403.977Z" transform="translate(-586.854 -403.977)" fill="#fbe366"/>
            </g>
          </g>
        </g>
      </g>
      <g id="Grupo_59999" data-name="Grupo 59999" transform="translate(139.613 58.431)">
        <g id="Grupo_59980" data-name="Grupo 59980" transform="translate(11.387 60.413)">
          <g id="Grupo_59979" data-name="Grupo 59979">
            <g id="Grupo_59978" data-name="Grupo 59978">
              <path id="Trazado_116693" data-name="Trazado 116693" d="M585.469,393.751l-2.383,1.351s.5,1.723,1.067,3.421c.532,1.712,1.147,3.39,1.147,3.39l2.191-1.813s-.558-1.573-1.048-3.165C585.925,395.355,585.469,393.751,585.469,393.751Z" transform="translate(-583.085 -393.751)" fill="#fbe366"/>
            </g>
          </g>
        </g>
        <g id="Grupo_59983" data-name="Grupo 59983" transform="translate(8.75 50.777)">
          <g id="Grupo_59982" data-name="Grupo 59982">
            <g id="Grupo_59981" data-name="Grupo 59981">
              <path id="Trazado_116694" data-name="Trazado 116694" d="M582.8,383.272l-2.587.638s.411,1.738.826,3.481.871,3.485.871,3.485l2.464-1.116s-.434-1.606-.807-3.232S582.8,383.272,582.8,383.272Z" transform="translate(-580.218 -383.272)" fill="#fbe366"/>
            </g>
          </g>
        </g>
        <g id="Grupo_59986" data-name="Grupo 59986" transform="translate(6.687 40.737)">
          <g id="Grupo_59985" data-name="Grupo 59985">
            <g id="Grupo_59984" data-name="Grupo 59984">
              <path id="Trazado_116695" data-name="Trazado 116695" d="M580.6,372.354l-2.621.483,1.346,6.838,2.606-.558Z" transform="translate(-577.974 -372.354)" fill="#fbe366"/>
            </g>
          </g>
        </g>
        <g id="Grupo_59989" data-name="Grupo 59989" transform="translate(4.922 30.592)">
          <g id="Grupo_59988" data-name="Grupo 59988">
            <g id="Grupo_59987" data-name="Grupo 59987">
              <path id="Trazado_116696" data-name="Trazado 116696" d="M578.68,361.321l-2.625.43,1.165,6.849,2.621-.464Z" transform="translate(-576.055 -361.321)" fill="#fbe366"/>
            </g>
          </g>
        </g>
        <g id="Grupo_59992" data-name="Grupo 59992" transform="translate(3.296 20.404)">
          <g id="Grupo_59991" data-name="Grupo 59991">
            <g id="Grupo_59990" data-name="Grupo 59990">
              <path id="Trazado_116697" data-name="Trazado 116697" d="M576.912,350.242l-2.625.415,1.079,6.857,2.629-.43Z" transform="translate(-574.287 -350.242)" fill="#fbe366"/>
            </g>
          </g>
        </g>
        <g id="Grupo_59995" data-name="Grupo 59995" transform="translate(1.693 10.198)">
          <g id="Grupo_59994" data-name="Grupo 59994">
            <g id="Grupo_59993" data-name="Grupo 59993">
              <path id="Trazado_116698" data-name="Trazado 116698" d="M575.172,339.143l-2.629.423,1.079,6.841,2.629-.411Z" transform="translate(-572.543 -339.143)" fill="#fbe366"/>
            </g>
          </g>
        </g>
        <g id="Grupo_59998" data-name="Grupo 59998">
          <g id="Grupo_59997" data-name="Grupo 59997">
            <g id="Grupo_59996" data-name="Grupo 59996">
              <path id="Trazado_116699" data-name="Trazado 116699" d="M573.32,328.053l-2.617.464,1.15,6.811,2.625-.426Z" transform="translate(-570.702 -328.053)" fill="#fbe366"/>
            </g>
          </g>
        </g>
      </g>
      <g id="Grupo_60021" data-name="Grupo 60021" transform="translate(103.964 0.831)">
        <g id="Grupo_60002" data-name="Grupo 60002" transform="translate(33.722 47.421)">
          <g id="Grupo_60001" data-name="Grupo 60001">
            <g id="Grupo_60000" data-name="Grupo 60000">
              <path id="Trazado_116700" data-name="Trazado 116700" d="M571.2,316.983l-2.595.531.687,3.383c.32,1.7.63,3.394.63,3.394l2.624-.486s-.313-1.709-.634-3.417C571.56,318.683,571.2,316.983,571.2,316.983Z" transform="translate(-568.606 -316.983)" fill="#fbe366"/>
            </g>
          </g>
        </g>
        <g id="Grupo_60005" data-name="Grupo 60005" transform="translate(31.376 37.286)">
          <g id="Grupo_60004" data-name="Grupo 60004">
            <g id="Grupo_60003" data-name="Grupo 60003">
              <path id="Trazado_116701" data-name="Trazado 116701" d="M568.631,305.962l-2.576.694s.429,1.663.856,3.326c.393,1.674.781,3.349.781,3.349l2.595-.577s-.392-1.7-.788-3.4C569.065,307.662,568.631,305.962,568.631,305.962Z" transform="translate(-566.055 -305.962)" fill="#fbe366"/>
            </g>
          </g>
        </g>
        <g id="Grupo_60008" data-name="Grupo 60008" transform="translate(28.336 27.321)">
          <g id="Grupo_60007" data-name="Grupo 60007">
            <g id="Grupo_60006" data-name="Grupo 60006">
              <path id="Trazado_116702" data-name="Trazado 116702" d="M565.238,295.125l-2.489.924s.607,1.588,1.139,3.218c.5,1.644,1.007,3.277,1.007,3.277l2.554-.75s-.513-1.678-1.034-3.353C565.868,296.77,565.238,295.125,565.238,295.125Z" transform="translate(-562.749 -295.125)" fill="#fbe366"/>
            </g>
          </g>
        </g>
        <g id="Grupo_60011" data-name="Grupo 60011" transform="translate(24.131 17.7)">
          <g id="Grupo_60010" data-name="Grupo 60010">
            <g id="Grupo_60009" data-name="Grupo 60009">
              <path id="Trazado_116703" data-name="Trazado 116703" d="M560.431,284.662l-2.255,1.426s.792,1.47,1.576,2.949c.759,1.493,1.4,3.074,1.4,3.081l2.448-1.056s-.66-1.629-1.468-3.229C561.283,286.246,560.431,284.662,560.431,284.662Z" transform="translate(-558.176 -284.662)" fill="#fbe366"/>
            </g>
          </g>
        </g>
        <g id="Grupo_60014" data-name="Grupo 60014" transform="translate(17.734 9.58)">
          <g id="Grupo_60013" data-name="Grupo 60013">
            <g id="Grupo_60012" data-name="Grupo 60012">
              <path id="Trazado_116704" data-name="Trazado 116704" d="M552.97,275.832l-1.75,2.01s.32.268.792.679a13.255,13.255,0,0,1,1.671,1.565l1.49,1.75a4.682,4.682,0,0,1,.645.822l2.1-1.641a5.228,5.228,0,0,0-.687-.886c-.44-.513-1.022-1.2-1.61-1.881a14.616,14.616,0,0,0-1.8-1.686C553.309,276.123,552.97,275.832,552.97,275.832Z" transform="translate(-551.22 -275.832)" fill="#fbe366"/>
            </g>
          </g>
        </g>
        <g id="Grupo_60017" data-name="Grupo 60017" transform="translate(9.301 3.846)">
          <g id="Grupo_60016" data-name="Grupo 60016">
            <g id="Grupo_60015" data-name="Grupo 60015">
              <path id="Trazado_116705" data-name="Trazado 116705" d="M543.278,269.6l-1.229,2.358a7.171,7.171,0,0,1,.935.494c.543.325,1.278.754,2.006,1.181a27.921,27.921,0,0,1,2.832,1.818l1.55-2.177a32.2,32.2,0,0,0-3.018-1.924c-.754-.449-1.519-.9-2.093-1.233A7.234,7.234,0,0,0,543.278,269.6Z" transform="translate(-542.049 -269.597)" fill="#fbe366"/>
            </g>
          </g>
        </g>
        <g id="Grupo_60020" data-name="Grupo 60020">
          <g id="Grupo_60019" data-name="Grupo 60019">
            <g id="Grupo_60018" data-name="Grupo 60018">
              <path id="Trazado_116706" data-name="Trazado 116706" d="M532.553,265.414,531.934,268l3.206.936c1.562.618,3.127,1.229,3.127,1.229l1.068-2.433L536,266.425C534.283,265.923,532.553,265.414,532.553,265.414Z" transform="translate(-531.934 -265.414)" fill="#fbe366"/>
            </g>
          </g>
        </g>
      </g>
      <g id="Grupo_60043" data-name="Grupo 60043" transform="translate(64.973 0)">
        <g id="Grupo_60024" data-name="Grupo 60024" transform="translate(28.842)">
          <g id="Grupo_60023" data-name="Grupo 60023">
            <g id="Grupo_60022" data-name="Grupo 60022">
              <path id="Trazado_116707" data-name="Trazado 116707" d="M520.9,264.809l.4,2.633s.4-.072,1.014-.162c.6-.064,1.434-.064,2.247-.1a29.7,29.7,0,0,1,3.289.174l.332-2.644a33.666,33.666,0,0,0-3.643-.2c-.909.046-1.825.053-2.509.125C521.349,264.737,520.9,264.809,520.9,264.809Z" transform="translate(-520.897 -264.51)" fill="#fbe366"/>
            </g>
          </g>
        </g>
        <g id="Grupo_60027" data-name="Grupo 60027" transform="translate(18.76 1.083)">
          <g id="Grupo_60026" data-name="Grupo 60026">
            <g id="Grupo_60025" data-name="Grupo 60025">
              <path id="Trazado_116708" data-name="Trazado 116708" d="M509.933,268.838l1.479,2.217s.343-.23.849-.574c.543-.293,1.271-.682,1.987-1.07.744-.348,1.513-.619,2.078-.863a8.2,8.2,0,0,1,.966-.317l-.777-2.543a4.908,4.908,0,0,0-1.093.362c-.634.264-1.5.569-2.323.962-.807.434-1.615.863-2.214,1.192C510.311,268.589,509.933,268.838,509.933,268.838Z" transform="translate(-509.933 -265.688)" fill="#fbe366"/>
            </g>
          </g>
        </g>
        <g id="Grupo_60030" data-name="Grupo 60030" transform="translate(11.01 6.382)">
          <g id="Grupo_60029" data-name="Grupo 60029">
            <g id="Grupo_60028" data-name="Grupo 60028">
              <path id="Trazado_116709" data-name="Trazado 116709" d="M501.505,276.713l2.108,1.617s.253-.338.634-.833c.419-.472.962-1.1,1.513-1.735,1.154-1.2,2.4-2.3,2.4-2.3l-1.735-2.015s-1.366,1.2-2.61,2.5c-.592.682-1.184,1.357-1.626,1.87C501.78,276.347,501.505,276.713,501.505,276.713Z" transform="translate(-501.505 -271.451)" fill="#fbe366"/>
            </g>
          </g>
        </g>
        <g id="Grupo_60033" data-name="Grupo 60033" transform="translate(5.578 14.503)">
          <g id="Grupo_60032" data-name="Grupo 60032">
            <g id="Grupo_60031" data-name="Grupo 60031">
              <path id="Trazado_116710" data-name="Trazado 116710" d="M495.6,286.52,498,287.637a53.136,53.136,0,0,1,3.24-5.91l-2.233-1.445s-.954,1.512-1.829,3.062C496.349,284.917,495.6,286.52,495.6,286.52Z" transform="translate(-495.598 -280.282)" fill="#fbe366"/>
            </g>
          </g>
        </g>
        <g id="Grupo_60036" data-name="Grupo 60036" transform="translate(1.98 23.936)">
          <g id="Grupo_60035" data-name="Grupo 60035">
            <g id="Grupo_60034" data-name="Grupo 60034">
              <path id="Trazado_116711" data-name="Trazado 116711" d="M491.685,297.261l2.568.693s.453-1.637.97-3.251c.546-1.611,1.169-3.187,1.169-3.187l-2.481-.977s-.646,1.648-1.215,3.326C492.153,295.552,491.69,297.261,491.685,297.261Z" transform="translate(-491.685 -290.54)" fill="#fbe366"/>
            </g>
          </g>
        </g>
        <g id="Grupo_60039" data-name="Grupo 60039" transform="translate(0.098 34.021)">
          <g id="Grupo_60038" data-name="Grupo 60038">
            <g id="Grupo_60037" data-name="Grupo 60037">
              <path id="Trazado_116712" data-name="Trazado 116712" d="M489.639,308.549l2.655.185s.129-1.66.4-3.334.614-3.33.614-3.33l-2.606-.563s-.373,1.735-.637,3.49C489.774,306.747,489.639,308.549,489.639,308.549Z" transform="translate(-489.639 -301.507)" fill="#fbe366"/>
            </g>
          </g>
        </g>
        <g id="Grupo_60042" data-name="Grupo 60042" transform="translate(0 44.51)">
          <g id="Grupo_60041" data-name="Grupo 60041">
            <g id="Grupo_60040" data-name="Grupo 60040">
              <path id="Trazado_116713" data-name="Trazado 116713" d="M490.2,319.985l2.648-.268-.487-4.552c-.086-.743-.135-1.5-.169-2.252l-2.663.075c.038.807.087,1.622.185,2.425Z" transform="translate(-489.532 -312.914)" fill="#fbe366"/>
            </g>
          </g>
        </g>
      </g>
      <g id="Grupo_60065" data-name="Grupo 60065" transform="translate(60.258 54.705)">
        <g id="Grupo_60046" data-name="Grupo 60046" transform="translate(5.706)">
          <g id="Grupo_60045" data-name="Grupo 60045">
            <g id="Grupo_60044" data-name="Grupo 60044">
              <path id="Trazado_116714" data-name="Trazado 116714" d="M491.158,331.121l2.655-.181-.55-6.94-2.652.241Z" transform="translate(-490.611 -324)" fill="#fbe366"/>
            </g>
          </g>
        </g>
        <g id="Grupo_60049" data-name="Grupo 60049" transform="translate(6.468 10.338)">
          <g id="Grupo_60048" data-name="Grupo 60048">
            <g id="Grupo_60047" data-name="Grupo 60047">
              <path id="Trazado_116715" data-name="Trazado 116715" d="M491.737,342.284l2.659-.075s-.056-1.743-.12-3.488c-.091-1.728-.177-3.478-.177-3.478l-2.659.151s.087,1.723.177,3.447C491.677,340.561,491.737,342.284,491.737,342.284Z" transform="translate(-491.439 -335.243)" fill="#fbe366"/>
            </g>
          </g>
        </g>
        <g id="Grupo_60052" data-name="Grupo 60052" transform="translate(6.838 20.71)">
          <g id="Grupo_60051" data-name="Grupo 60051">
            <g id="Grupo_60050" data-name="Grupo 60050">
              <path id="Trazado_116716" data-name="Trazado 116716" d="M491.845,353.451l2.659.045s.011-1.743.027-3.489c-.016-1.746-.03-3.485-.03-3.485l-2.659.038s.016,1.724.027,3.444C491.86,351.727,491.845,353.451,491.845,353.451Z" transform="translate(-491.841 -346.522)" fill="#fbe366"/>
            </g>
          </g>
        </g>
        <g id="Grupo_60055" data-name="Grupo 60055" transform="translate(6.382 31.003)">
          <g id="Grupo_60054" data-name="Grupo 60054">
            <g id="Grupo_60053" data-name="Grupo 60053">
              <path id="Trazado_116717" data-name="Trazado 116717" d="M491.345,364.583l2.652.2s.1-1.743.211-3.489c.128-1.743.159-3.485.159-3.485l-2.663-.1s-.034,1.723-.152,3.435S491.345,364.583,491.345,364.583Z" transform="translate(-491.345 -357.716)" fill="#fbe366"/>
            </g>
          </g>
        </g>
        <g id="Grupo_60058" data-name="Grupo 60058" transform="translate(5.231 41.216)">
          <g id="Grupo_60057" data-name="Grupo 60057">
            <g id="Grupo_60056" data-name="Grupo 60056">
              <path id="Trazado_116718" data-name="Trazado 116718" d="M490.094,375.63l2.633.4s.237-1.735.463-3.467c.246-1.739.393-3.481.393-3.481l-2.651-.264s-.14,1.716-.385,3.41C490.331,373.933,490.094,375.63,490.094,375.63Z" transform="translate(-490.094 -368.822)" fill="#fbe366"/>
            </g>
          </g>
        </g>
        <g id="Grupo_60061" data-name="Grupo 60061" transform="translate(3.198 51.328)">
          <g id="Grupo_60060" data-name="Grupo 60060">
            <g id="Grupo_60059" data-name="Grupo 60059">
              <path id="Trazado_116719" data-name="Trazado 116719" d="M487.883,386.49l2.58.668s.452-1.7.807-3.417c.4-1.709.7-3.439.7-3.439l-2.613-.483s-.294,1.689-.687,3.349C488.324,384.85,487.883,386.49,487.883,386.49Z" transform="translate(-487.883 -379.819)" fill="#fbe366"/>
            </g>
          </g>
        </g>
        <g id="Grupo_60064" data-name="Grupo 60064" transform="translate(0 61.217)">
          <g id="Grupo_60063" data-name="Grupo 60063">
            <g id="Grupo_60062" data-name="Grupo 60062">
              <path id="Trazado_116720" data-name="Trazado 116720" d="M484.405,396.947l2.452,1.033a29.811,29.811,0,0,0,1.283-3.292c.577-1.667,1.124-3.342,1.124-3.342l-2.542-.773s-.54,1.614-1.087,3.218A28.262,28.262,0,0,1,484.405,396.947Z" transform="translate(-484.405 -390.573)" fill="#fbe366"/>
            </g>
          </g>
        </g>
      </g>
      <g id="Grupo_60087" data-name="Grupo 60087" transform="translate(0 125.313)">
        <g id="Grupo_60068" data-name="Grupo 60068" transform="translate(55.518)">
          <g id="Grupo_60067" data-name="Grupo 60067">
            <g id="Grupo_60066" data-name="Grupo 60066">
              <path id="Trazado_116721" data-name="Trazado 116721" d="M479.25,406.542l2.138,1.6s1.015-1.493,1.954-3.013l1.678-3.157-2.383-1.188s-.784,1.486-1.573,2.96Z" transform="translate(-479.25 -400.786)" fill="#fbe366"/>
            </g>
          </g>
        </g>
        <g id="Grupo_60071" data-name="Grupo 60071" transform="translate(48.789 8.339)">
          <g id="Grupo_60070" data-name="Grupo 60070">
            <g id="Grupo_60069" data-name="Grupo 60069">
              <path id="Trazado_116722" data-name="Trazado 116722" d="M471.932,414.512l1.607,2.143c.158.192,5.261-4.874,5.114-5.013l-1.98-1.788A35.406,35.406,0,0,1,471.932,414.512Z" transform="translate(-471.932 -409.854)" fill="#fbe366"/>
            </g>
          </g>
        </g>
        <g id="Grupo_60074" data-name="Grupo 60074" transform="translate(40.092 14.898)">
          <g id="Grupo_60073" data-name="Grupo 60073">
            <g id="Grupo_60072" data-name="Grupo 60072">
              <path id="Trazado_116723" data-name="Trazado 116723" d="M462.474,419.759l.931,2.509s.427-.147,1.064-.377a13.086,13.086,0,0,0,2.278-.939c1.584-.834,3.176-1.667,3.176-1.667l-1.4-2.3s-1.482.781-2.949,1.55a11.854,11.854,0,0,1-2.12.871C462.874,419.623,462.474,419.759,462.474,419.759Z" transform="translate(-462.474 -416.987)" fill="#fbe366"/>
            </g>
          </g>
        </g>
        <g id="Grupo_60077" data-name="Grupo 60077" transform="translate(30.368 18.556)">
          <g id="Grupo_60076" data-name="Grupo 60076">
            <g id="Grupo_60075" data-name="Grupo 60075">
              <path id="Trazado_116724" data-name="Trazado 116724" d="M451.9,421.826l.177,2.655s1.788-.128,3.584-.268c1.772-.242,3.522-.664,3.526-.668l-.691-2.58s-1.622.393-3.274.612Z" transform="translate(-451.9 -420.965)" fill="#fbe366"/>
            </g>
          </g>
        </g>
        <g id="Grupo_60080" data-name="Grupo 60080" transform="translate(19.977 18.684)">
          <g id="Grupo_60079" data-name="Grupo 60079">
            <g id="Grupo_60078" data-name="Grupo 60078">
              <path id="Trazado_116725" data-name="Trazado 116725" d="M441.034,421.105l-.434,2.625s1.754.264,3.5.535c1.772.154,3.564.2,3.564.2l.063-2.662s-1.674-.041-3.345-.181C442.709,421.362,441.034,421.105,441.034,421.105Z" transform="translate(-440.6 -421.105)" fill="#fbe366"/>
            </g>
          </g>
        </g>
        <g id="Grupo_60083" data-name="Grupo 60083" transform="translate(9.783 16.297)">
          <g id="Grupo_60082" data-name="Grupo 60082">
            <g id="Grupo_60081" data-name="Grupo 60081">
              <path id="Trazado_116726" data-name="Trazado 116726" d="M430.306,418.509l-.792,2.542c-.057.158,6.8,1.834,6.8,1.834l.574-2.6S430.268,418.671,430.306,418.509Z" transform="translate(-429.514 -418.509)" fill="#fbe366"/>
            </g>
          </g>
        </g>
        <g id="Grupo_60086" data-name="Grupo 60086" transform="translate(0 12.726)">
          <g id="Grupo_60085" data-name="Grupo 60085">
            <g id="Grupo_60084" data-name="Grupo 60084">
              <path id="Trazado_116727" data-name="Trazado 116727" d="M419.911,414.625l-1.036,2.459s1.617.671,3.232,1.346a19.789,19.789,0,0,0,2.255.849c.623.215,1.037.354,1.037.354l.886-2.508s-.407-.136-1.011-.343a20.58,20.58,0,0,1-2.2-.83C421.5,415.292,419.911,414.625,419.911,414.625Z" transform="translate(-418.875 -414.625)" fill="#fbe366"/>
            </g>
          </g>
        </g>
      </g>
    </g>
    <g id="Grupo_60094" data-name="Grupo 60094" transform="translate(577.991 320.919)">
      <g id="Grupo_60090" data-name="Grupo 60090" transform="translate(65.527 64.744)">
        <g id="Grupo_60089" data-name="Grupo 60089">
          <path id="Trazado_116728" data-name="Trazado 116728" d="M700.665,423.113a18.757,18.757,0,1,1-17.93-19.549A18.718,18.718,0,0,1,700.665,423.113Z" transform="translate(-663.17 -403.547)" fill="#cbe9f4"/>
        </g>
      </g>
      <g id="Grupo_60091" data-name="Grupo 60091">
        <path id="Trazado_116729" data-name="Trazado 116729" d="M741.426,406.218a25.389,25.389,0,0,1-7.857-21.774c.731-4.737,14.056-12.985,14.056-12.985l-19.876-21.6s-9.327,12.638-14.095,12.967a23.817,23.817,0,0,1-19.986-9.3c-2.818-3.877.834-19.118.834-19.118l-29.362-1.263s2.3,15.517-.822,19.114a20.372,20.372,0,0,1-18.356,6.247c-4.7-.932-12.3-14.637-12.3-14.637l-22.49,18.891s12.175,9.867,12.3,14.637a26.988,26.988,0,0,1-10.786,21.656c-3.908,2.784-19.133-1.063-19.133-1.063l-1.645,29.339s15.517-2.131,19.07,1.045a25.471,25.471,0,0,1,7.871,21.789c-.728,4.729-14.076,12.974-14.076,12.974l19.876,21.6s9.32-12.627,14.1-12.959a23.965,23.965,0,0,1,20,9.3c2.814,3.885-.811,19.115-.811,19.115l29.339,1.267s-2.323-15.509.8-19.115a20.468,20.468,0,0,1,18.39-6.242c4.68.947,12.288,14.642,12.288,14.642l22.487-18.9s-12.168-9.871-12.311-14.646a27.048,27.048,0,0,1,10.795-21.653c3.907-2.764,19.144,1.082,19.144,1.082l1.622-29.331S745,409.4,741.426,406.218Zm-67.3,59.022a48.652,48.652,0,1,1,50.7-46.507A48.649,48.649,0,0,1,674.128,465.24Z" transform="translate(-591.911 -333.139)" fill="#ffefc6"/>
      </g>
      <g id="Grupo_60093" data-name="Grupo 60093" transform="translate(47.14 46.97)">
        <g id="Grupo_60092" data-name="Grupo 60092">
          <path id="Trazado_116730" data-name="Trazado 116730" d="M717.492,423.01a37.176,37.176,0,1,1-35.536-38.757A37.157,37.157,0,0,1,717.492,423.01Z" transform="translate(-643.175 -384.219)" fill="#ffefc6"/>
        </g>
      </g>
    </g>
    <g id="Grupo_60097" data-name="Grupo 60097" transform="translate(549.974 219.081)">
      <g id="Grupo_60095" data-name="Grupo 60095">
        <path id="Trazado_116731" data-name="Trazado 116731" d="M618.732,276.251c.313-2.3-1.1-9.086-7.378-11.044-8.4-2.61-26.006.8-34.22-8.127-8.237-8.973-5.74-16.776-4.771-22.23.991-5.465,3.952-7.173,4.16-10.409.226-3.255-3.632-3.342-7.317,5.035-1.766,4-12.819,22.739-4.993,35.2C574.46,281.015,616.782,289.832,618.732,276.251Z" transform="translate(-561.442 -222.392)" fill="#fbc6b4"/>
      </g>
      <g id="Grupo_60096" data-name="Grupo 60096" transform="translate(23.144 37.33)">
        <path id="Trazado_116732" data-name="Trazado 116732" d="M622.408,275.244s.543,9.629-13.747,10.836-20.692-.249-20.692-.249-3.5-8.7.744-22.8C588.713,263.031,623.589,261.6,622.408,275.244Z" transform="translate(-586.611 -262.988)" fill="#eda503"/>
      </g>
    </g>
    <g id="Grupo_60098" data-name="Grupo 60098" transform="translate(584.744 257.921)">
      <path id="Trazado_116733" data-name="Trazado 116733" d="M646.817,268.639l-.023-.049c-4.82-2.606-10.994-3.195-15.732-3.688-10.431-1.094-27.468.361-30.72,18.636-1.059,6.023-1.368,14.833-.826,23.828.09,1.958.208,3.957.46,5.917.834,8.781-1.818,14.683,1.317,19.164,9.1,13.013,61.8,24.022,53.323,7.837-.167-.37-2.06-5.725,1.731-7.343-2.662-7.483-2.383-16.433-3.609-22.649a47.019,47.019,0,0,1-.736-5.657,47.848,47.848,0,0,1,1.252-14.653C656.11,277.767,652.433,271.789,646.817,268.639Z" transform="translate(-599.254 -264.63)" fill="#ffb502"/>
    </g>
    <g id="Grupo_60102" data-name="Grupo 60102" transform="translate(560.162 364.372)">
      <g id="Grupo_60100" data-name="Grupo 60100">
        <g id="Grupo_60099" data-name="Grupo 60099">
          <path id="Trazado_116734" data-name="Trazado 116734" d="M578.045,402.559c10.149,10.749,26.7,22.746,32.315,30.987.9,1.312,1.018,1.913-2.678,5.7-3.727,3.76,1.983,3.986,9.568-.344,7.593-4.349-17-38.76-30.316-53.907C575.3,371.745,566.251,390.086,578.045,402.559Z" transform="translate(-572.522 -380.394)" fill="#fbc6b4"/>
        </g>
      </g>
      <g id="Grupo_60101" data-name="Grupo 60101" transform="translate(31.7 53.016)">
        <path id="Trazado_116735" data-name="Trazado 116735" d="M621.279,438.048s-5.129,6.541-10.824,5.836c0,0-6.963,5.189-1.136,4.65C615.166,447.983,625.247,444.751,621.279,438.048Z" transform="translate(-606.995 -438.048)" fill="#ffb502"/>
      </g>
    </g>
    <g id="Grupo_60103" data-name="Grupo 60103" transform="translate(581.895 258.408)">
      <path id="Trazado_116736" data-name="Trazado 116736" d="M639.251,281.468c-1.822,9.082-6.348,23.044,14.517,34.11,0,0-36.049,43.569-57.612,21.265,0,0,2.855-39.4,8.136-55.2,1.515-4.533,5.114-16.976,14.966-16.47,0,0-14.714,22.3-8.121,27.92s12.468.509,15.135-3.978c4.289-7.216,13.774-22.822,13.774-22.822l5.771,1.98A30.472,30.472,0,0,0,639.251,281.468Z" transform="translate(-596.156 -265.16)" fill="#1c2745"/>
    </g>
    <g id="Grupo_60107" data-name="Grupo 60107" transform="translate(602.475 224.113)">
      <g id="Grupo_60104" data-name="Grupo 60104" transform="translate(1.737 21.082)">
        <path id="Trazado_116737" data-name="Trazado 116737" d="M640.9,250.791s-5.865,6.394-1.837,12.054c4.145,5.813-20.434,10.425-18.534,6.2,2.437-5.461,6.382-7.913,5.646-15.29Z" transform="translate(-620.426 -250.791)" fill="#f7b2a0"/>
      </g>
      <g id="Grupo_60105" data-name="Grupo 60105" transform="translate(0 2.119)">
        <path id="Trazado_116738" data-name="Trazado 116738" d="M633.241,231.142c-6.258,3.04-17.667,21.4-13.989,27.39,1.633,2.6,11.382,3.274,19.865-3.727,3.489-2.847,8.523-8.708,7-16.64C645.418,234.57,640.493,227.608,633.241,231.142Z" transform="translate(-618.537 -230.169)" fill="#fbc6b4"/>
      </g>
      <g id="Grupo_60106" data-name="Grupo 60106" transform="translate(8.031)">
        <path id="Trazado_116739" data-name="Trazado 116739" d="M628.271,231.836c-1.845,2.177-1.72,2.843,5.472,6.348,7.177,3.519,8.637,3.41,7.306,4.963-3.907,4.59,1.795,5.228-2.934,10.667s2.806,3.6,7.2-.694c.863-.872,5.623-4.948,4.4-13.925C648.3,228.7,635.093,223.862,628.271,231.836Z" transform="translate(-627.271 -227.865)" fill="#1d1b3a"/>
      </g>
    </g>
    <g id="Grupo_60108" data-name="Grupo 60108" transform="translate(604.398 224.187)">
      <path id="Trazado_116740" data-name="Trazado 116740" d="M635.841,245.326s-17.369-8.252-14.989-15.377c1.471-4.383,14.763-.208,14.763-.208Z" transform="translate(-620.628 -227.946)" fill="#eda503"/>
    </g>
    <g id="Grupo_60109" data-name="Grupo 60109" transform="translate(610.562 221.946)">
      <path id="Trazado_116741" data-name="Trazado 116741" d="M627.339,232.585c.635,7.392,5.172,11.564,19.964,18.421,0,0,10.237-12.567,1.464-21.717C641.019,221.221,626.94,227.867,627.339,232.585Z" transform="translate(-627.331 -225.508)" fill="#ffb502"/>
    </g>
    <g id="Grupo_60110" data-name="Grupo 60110" transform="translate(536.602 321.364)">
      <path id="Trazado_116742" data-name="Trazado 116742" d="M597.331,333.623s-42.7,14.388-49.861,26.763,55.6,69.078,55.6,69.078,10.037-6.616,7.728-14.989c-8.656-31.388-12.088-41.571-12.088-41.571l41.394-22.274Z" transform="translate(-546.901 -333.623)" fill="#1c2745"/>
    </g>
    <g id="Grupo_60114" data-name="Grupo 60114" transform="translate(602.292 392.004)">
      <g id="Grupo_60112" data-name="Grupo 60112" transform="translate(2.991)">
        <g id="Grupo_60111" data-name="Grupo 60111">
          <path id="Trazado_116743" data-name="Trazado 116743" d="M622.537,428.537c1.553,14.7,7.43,34.276,6.9,44.233-.083,1.584-.347,2.146-5.589,2.911-5.239.732-.841,4.372,7.822,5.534,8.671,1.143,9.991-41.13,8.589-61.255C639.041,402.374,620.734,411.466,622.537,428.537Z" transform="translate(-621.591 -410.443)" fill="#fbc6b4"/>
        </g>
      </g>
      <g id="Grupo_60113" data-name="Grupo 60113" transform="translate(0 65.238)">
        <path id="Trazado_116744" data-name="Trazado 116744" d="M635.74,483.317s-8.052,2.089-12.152-1.928c0,0-8.679-.094-3.719,3C624.851,487.507,634.827,491.044,635.74,483.317Z" transform="translate(-618.338 -481.389)" fill="#ffb502"/>
      </g>
    </g>
    <g id="Grupo_60115" data-name="Grupo 60115" transform="translate(602.669 308.826)">
      <path id="Trazado_116745" data-name="Trazado 116745" d="M655.585,319.989a186.656,186.656,0,0,1,4.749,41.756c.151,29.007-19.05,96.254-19.05,96.254s.761,2.433-15.834-3.164c-4.473-1.515-6.7-98.881-6.7-98.881l10.96-24.9Z" transform="translate(-618.748 -319.989)" fill="#1c2745"/>
    </g>
    <g id="Grupo_60116" data-name="Grupo 60116" transform="translate(618.585 321.545)">
      <path id="Trazado_116746" data-name="Trazado 116746" d="M636.962,459.015l-.906-.332c16.848-46.134,13.1-124.03,13.061-124.81l.966-.052C650.122,334.6,653.879,412.7,636.962,459.015Z" transform="translate(-636.056 -333.82)" fill="#fff"/>
    </g>
    <g id="Grupo_60124" data-name="Grupo 60124" transform="translate(515.631 333.863)">
      <g id="Grupo_60117" data-name="Grupo 60117" transform="translate(23.18)">
        <path id="Trazado_116747" data-name="Trazado 116747" d="M655.277,507.671,591.75,351.078H555.037l62.935,155.145-3.579,1.448L549.3,347.216h45.048l64.5,159.007Z" transform="translate(-549.304 -347.216)" fill="#464f72"/>
      </g>
      <g id="Grupo_60118" data-name="Grupo 60118" transform="translate(54.357 69.79)">
        <rect id="Rectángulo_6262" data-name="Rectángulo 6262" width="40.881" height="3.862" fill="#464f72"/>
      </g>
      <g id="Grupo_60119" data-name="Grupo 60119" transform="translate(62.541 88.953)">
        <rect id="Rectángulo_6263" data-name="Rectángulo 6263" width="40.881" height="3.862" fill="#464f72"/>
      </g>
      <g id="Grupo_60120" data-name="Grupo 60120" transform="translate(69.617 108.301)">
        <rect id="Rectángulo_6264" data-name="Rectángulo 6264" width="40.88" height="3.862" fill="#464f72"/>
      </g>
      <g id="Grupo_60121" data-name="Grupo 60121" transform="translate(78.491 128.031)">
        <rect id="Rectángulo_6265" data-name="Rectángulo 6265" width="40.885" height="3.862" fill="#464f72"/>
      </g>
      <g id="Grupo_60122" data-name="Grupo 60122" transform="translate(0 46.067)">
        <rect id="Rectángulo_6266" data-name="Rectángulo 6266" width="120.684" height="3.863" transform="translate(0 112.989) rotate(-69.429)" fill="#464f72"/>
      </g>
      <g id="Grupo_60123" data-name="Grupo 60123" transform="translate(42.416 49.022)">
        <rect id="Rectángulo_6267" data-name="Rectángulo 6267" width="120.688" height="3.863" transform="translate(0 112.988) rotate(-69.422)" fill="#464f72"/>
      </g>
    </g>
    <g id="Grupo_60129" data-name="Grupo 60129" transform="translate(530.228 181.229)">
      <g id="Grupo_60125" data-name="Grupo 60125" transform="translate(17.44 50.31)">
        <path id="Trazado_116748" data-name="Trazado 116748" d="M585.392,249.167a13.229,13.229,0,1,1-13.231-13.227A13.233,13.233,0,0,1,585.392,249.167Z" transform="translate(-558.935 -235.94)" fill="#ffcf03"/>
      </g>
      <g id="Grupo_60126" data-name="Grupo 60126" transform="translate(28.163)">
        <rect id="Rectángulo_6268" data-name="Rectángulo 6268" width="4.997" height="35.431" fill="#464f72"/>
      </g>
      <g id="Grupo_60127" data-name="Grupo 60127" transform="translate(24.53 27.254)">
        <rect id="Rectángulo_6269" data-name="Rectángulo 6269" width="12.265" height="16.354" fill="#6d76a1"/>
      </g>
      <g id="Grupo_60128" data-name="Grupo 60128" transform="translate(0 34.974)">
        <path id="Trazado_116749" data-name="Trazado 116749" d="M570.633,219.263a30.666,30.666,0,0,0-30.664,30.663h61.322A30.665,30.665,0,0,0,570.633,219.263Z" transform="translate(-539.969 -219.263)" fill="#c1e4fa"/>
      </g>
    </g>
    <g id="Grupo_60132" data-name="Grupo 60132" transform="translate(578.598 237.282)">
      <g id="Grupo_60130" data-name="Grupo 60130">
        <path id="Trazado_116750" data-name="Trazado 116750" d="M652.536,275.053c-.445-2.177-3.417-6.442-9.677-6.137-8.392.382-23.071,9.169-33.341,3.821-10.3-5.367-10.6-13.178-11.5-18.39-.882-5.213,1.2-7.706.351-10.678-.861-2.994-4.361-1.813-4.933,6.887-.272,4.164-4.108,24.565,6.962,33.2C614.9,295.08,655.207,287.853,652.536,275.053Z" transform="translate(-592.571 -242.186)" fill="#fbc6b4"/>
      </g>
      <g id="Grupo_60131" data-name="Grupo 60131" transform="translate(25.794 25.124)">
        <path id="Trazado_116751" data-name="Trazado 116751" d="M654.819,275.115s3.613,8.467-8.83,14.192c-12.416,5.714-18.624,6.506-18.624,6.506s-5.967-6.682-6.744-20.695C620.622,275.119,651.436,262.5,654.819,275.115Z" transform="translate(-620.622 -269.507)" fill="#eda503"/>
      </g>
    </g>
    <g id="Grupo_60134" data-name="Grupo 60134" transform="translate(511.823 291.817)">
      <g id="Grupo_60133" data-name="Grupo 60133">
        <path id="Trazado_116752" data-name="Trazado 116752" d="M528.108,317.788a8.149,8.149,0,1,1,8.15-8.151A8.161,8.161,0,0,1,528.108,317.788Zm0-12.665a4.513,4.513,0,1,0,4.514,4.514A4.523,4.523,0,0,0,528.108,305.123Z" transform="translate(-519.954 -301.491)" fill="#64b4d7"/>
      </g>
    </g>
    <g id="Grupo_60137" data-name="Grupo 60137" transform="translate(469.701 437.065)">
      <g id="Grupo_60136" data-name="Grupo 60136">
        <g id="Grupo_60135" data-name="Grupo 60135">
          <rect id="Rectángulo_6270" data-name="Rectángulo 6270" width="33.435" height="2.584" fill="#27355c"/>
        </g>
      </g>
    </g>
    <g id="Grupo_60140" data-name="Grupo 60140" transform="translate(482.754 428.624)">
      <g id="Grupo_60139" data-name="Grupo 60139">
        <g id="Grupo_60138" data-name="Grupo 60138">
          <rect id="Rectángulo_6271" data-name="Rectángulo 6271" width="18.432" height="2.58" fill="#27355c"/>
        </g>
      </g>
    </g>
  </g>
</svg>
