<svg xmlns="http://www.w3.org/2000/svg" xmlns:xlink="http://www.w3.org/1999/xlink" width="552.759" height="367.257" viewBox="0 0 552.759 367.257">
  <defs>
    <radialGradient id="radial-gradient" cx="0.5" cy="0.5" r="0.5" gradientUnits="objectBoundingBox">
      <stop offset="0" stop-opacity="0.749"/>
      <stop offset="1" stop-opacity="0"/>
    </radialGradient>
  </defs>
  <g id="Grupo_63258" data-name="Grupo 63258" transform="translate(1605.654 -224.071)">
    <path id="Trazado_122071" data-name="Trazado 122071" d="M85.84,13.211A4.025,4.025,0,0,1,84.484,16.1a4.76,4.76,0,0,1-3.223,1.055,4.28,4.28,0,0,1-3.441-1.473,6.038,6.038,0,0,1-1.254-4.043v-.7a6.819,6.819,0,0,1,.578-2.891A4.332,4.332,0,0,1,78.8,6.137a5.164,5.164,0,0,1,5.668.387,4.326,4.326,0,0,1,1.391,2.961H83.512a2.376,2.376,0,0,0-.613-1.6,2.271,2.271,0,0,0-1.605-.5,1.991,1.991,0,0,0-1.754.84,4.707,4.707,0,0,0-.6,2.605V11.7a5.038,5.038,0,0,0,.559,2.7,1.954,1.954,0,0,0,1.762.852,2.314,2.314,0,0,0,1.621-.5,2.241,2.241,0,0,0,.613-1.535Zm6.453,2.93a2.831,2.831,0,0,1-2.312,1.016,2.67,2.67,0,0,1-2.074-.781,3.335,3.335,0,0,1-.73-2.289V8.547h2.258v5.467q0,1.322,1.2,1.322a1.63,1.63,0,0,0,1.578-.8V8.547H94.48V17H92.355Zm7.781,1.016a4.15,4.15,0,0,1-3.027-1.141,4.054,4.054,0,0,1-1.168-3.039v-.219a5.106,5.106,0,0,1,.492-2.277,3.612,3.612,0,0,1,1.395-1.547,3.914,3.914,0,0,1,2.059-.543,3.508,3.508,0,0,1,2.73,1.094,4.444,4.444,0,0,1,1,3.1v.922H98.168a2.1,2.1,0,0,0,.66,1.328,2,2,0,0,0,1.395.5,2.437,2.437,0,0,0,2.039-.945l1.109,1.242A3.389,3.389,0,0,1,102,16.754,4.511,4.511,0,0,1,100.074,17.156Zm-.258-6.945a1.411,1.411,0,0,0-1.09.455,2.357,2.357,0,0,0-.535,1.3h3.141v-.181a1.681,1.681,0,0,0-.406-1.165A1.456,1.456,0,0,0,99.816,10.211Zm9.766.453a6.134,6.134,0,0,0-.812-.062,1.654,1.654,0,0,0-1.68.867V17h-2.258V8.547h2.133l.063,1.008a2.092,2.092,0,0,1,1.883-1.164,2.366,2.366,0,0,1,.7.1Zm8.7,2.188a5.07,5.07,0,0,1-.887,3.129A2.843,2.843,0,0,1,115,17.156a2.633,2.633,0,0,1-2.07-.891V20.25h-2.258V8.547h2.094l.078.828a2.654,2.654,0,0,1,2.141-.984,2.862,2.862,0,0,1,2.43,1.156,5.207,5.207,0,0,1,.867,3.188Zm-2.258-.164a3.327,3.327,0,0,0-.418-1.82,1.361,1.361,0,0,0-1.215-.641,1.478,1.478,0,0,0-1.461.813V14.5a1.5,1.5,0,0,0,1.477.836Q116.02,15.336,116.02,12.688Zm3.3.008a5.013,5.013,0,0,1,.484-2.242A3.546,3.546,0,0,1,121.2,8.93a4.069,4.069,0,0,1,2.113-.539,3.849,3.849,0,0,1,2.793,1.047,4.2,4.2,0,0,1,1.207,2.844l.016.578a4.418,4.418,0,0,1-1.086,3.121,4.209,4.209,0,0,1-5.832,0,4.5,4.5,0,0,1-1.09-3.187Zm2.258.16a3.16,3.16,0,0,0,.453,1.843,1.628,1.628,0,0,0,2.578.008,3.457,3.457,0,0,0,.461-2.015,3.128,3.128,0,0,0-.461-1.831,1.5,1.5,0,0,0-1.3-.649,1.474,1.474,0,0,0-1.281.646A3.516,3.516,0,0,0,121.582,12.856Zm15.016,4.3a4.15,4.15,0,0,1-3.027-1.141,4.054,4.054,0,0,1-1.168-3.039v-.219a5.106,5.106,0,0,1,.492-2.277,3.612,3.612,0,0,1,1.395-1.547,3.914,3.914,0,0,1,2.059-.543,3.508,3.508,0,0,1,2.73,1.094,4.444,4.444,0,0,1,1,3.1v.922h-5.383a2.1,2.1,0,0,0,.66,1.328,2,2,0,0,0,1.395.5,2.437,2.437,0,0,0,2.039-.945l1.109,1.242a3.389,3.389,0,0,1-1.375,1.121A4.511,4.511,0,0,1,136.6,17.156Zm-.258-6.945a1.411,1.411,0,0,0-1.09.455,2.357,2.357,0,0,0-.535,1.3h3.141v-.181a1.681,1.681,0,0,0-.406-1.165A1.456,1.456,0,0,0,136.34,10.211Zm7.094-1.664.07.977a2.951,2.951,0,0,1,2.43-1.133,2.453,2.453,0,0,1,2,.789,3.682,3.682,0,0,1,.672,2.359V17h-2.258V11.594a1.465,1.465,0,0,0-.312-1.043A1.4,1.4,0,0,0,145,10.227a1.553,1.553,0,0,0-1.43.813V17h-2.258V8.547Zm9.586-2.078V8.547h1.445V10.2H153.02v4.219a1.007,1.007,0,0,0,.18.672.9.9,0,0,0,.688.2,3.6,3.6,0,0,0,.664-.055v1.711a4.648,4.648,0,0,1-1.367.2,2.156,2.156,0,0,1-2.422-2.4V10.2h-1.234V8.547h1.234V6.469Zm6.594,10.688a4.15,4.15,0,0,1-3.027-1.141,4.054,4.054,0,0,1-1.168-3.039v-.219a5.106,5.106,0,0,1,.492-2.277A3.612,3.612,0,0,1,157.3,8.934a3.914,3.914,0,0,1,2.059-.543,3.508,3.508,0,0,1,2.73,1.094,4.444,4.444,0,0,1,1,3.1v.922h-5.383a2.1,2.1,0,0,0,.66,1.328,2,2,0,0,0,1.395.5,2.437,2.437,0,0,0,2.039-.945l1.109,1.242a3.389,3.389,0,0,1-1.375,1.121A4.511,4.511,0,0,1,159.613,17.156Zm-.258-6.945a1.411,1.411,0,0,0-1.09.455,2.357,2.357,0,0,0-.535,1.3h3.141v-.181a1.681,1.681,0,0,0-.406-1.165A1.456,1.456,0,0,0,159.355,10.211Zm9.766.453a6.134,6.134,0,0,0-.812-.062,1.654,1.654,0,0,0-1.68.867V17h-2.258V8.547H166.5l.063,1.008a2.092,2.092,0,0,1,1.883-1.164,2.366,2.366,0,0,1,.7.1Zm.453,2.031a5.013,5.013,0,0,1,.484-2.242,3.546,3.546,0,0,1,1.395-1.523,4.069,4.069,0,0,1,2.113-.539,3.849,3.849,0,0,1,2.793,1.047,4.2,4.2,0,0,1,1.207,2.844l.016.578A4.418,4.418,0,0,1,176.5,15.98a4.209,4.209,0,0,1-5.832,0,4.5,4.5,0,0,1-1.09-3.187Zm2.258.16a3.16,3.16,0,0,0,.453,1.843,1.628,1.628,0,0,0,2.578.008,3.457,3.457,0,0,0,.461-2.015,3.128,3.128,0,0,0-.461-1.831,1.5,1.5,0,0,0-1.3-.649,1.474,1.474,0,0,0-1.281.646A3.516,3.516,0,0,0,171.832,12.856Z" transform="translate(-1651 571)" fill="#12263f"/>
    <path id="Trazado_122072" data-name="Trazado 122072" d="M88.055,14.016A1.2,1.2,0,0,0,87.586,13a6.148,6.148,0,0,0-1.687-.75,11.963,11.963,0,0,1-1.93-.777,3.153,3.153,0,0,1-1.937-2.82A2.747,2.747,0,0,1,82.551,7a3.389,3.389,0,0,1,1.492-1.129,5.616,5.616,0,0,1,2.184-.406A5.112,5.112,0,0,1,88.4,5.91a3.458,3.458,0,0,1,1.48,1.246,3.261,3.261,0,0,1,.527,1.828H88.063A1.534,1.534,0,0,0,87.57,7.77a2.023,2.023,0,0,0-1.383-.434,2.162,2.162,0,0,0-1.336.363,1.146,1.146,0,0,0-.477.957,1.1,1.1,0,0,0,.559.93,6.311,6.311,0,0,0,1.645.7,7.106,7.106,0,0,1,2.914,1.492A2.972,2.972,0,0,1,90.406,14a2.737,2.737,0,0,1-1.117,2.316,4.891,4.891,0,0,1-3.008.84,5.808,5.808,0,0,1-2.391-.48,3.783,3.783,0,0,1-1.645-1.316,3.371,3.371,0,0,1-.566-1.937h2.352q0,1.883,2.25,1.883a2.189,2.189,0,0,0,1.3-.34A1.106,1.106,0,0,0,88.055,14.016Zm7.68,3.141a4.15,4.15,0,0,1-3.027-1.141,4.054,4.054,0,0,1-1.168-3.039v-.219a5.106,5.106,0,0,1,.492-2.277,3.612,3.612,0,0,1,1.395-1.547,3.914,3.914,0,0,1,2.059-.543,3.508,3.508,0,0,1,2.73,1.094,4.444,4.444,0,0,1,1,3.1v.922H93.828a2.1,2.1,0,0,0,.66,1.328,2,2,0,0,0,1.395.5,2.437,2.437,0,0,0,2.039-.945l1.109,1.242a3.389,3.389,0,0,1-1.375,1.121A4.511,4.511,0,0,1,95.734,17.156Zm-.258-6.945a1.411,1.411,0,0,0-1.09.455,2.357,2.357,0,0,0-.535,1.3h3.141v-.181a1.681,1.681,0,0,0-.406-1.165A1.456,1.456,0,0,0,95.477,10.211Zm4.688,2.5a4.954,4.954,0,0,1,.926-3.133,3,3,0,0,1,2.5-1.187,2.631,2.631,0,0,1,2.164.953l.094-.8h2.047v8.172a3.613,3.613,0,0,1-.5,1.93,3.236,3.236,0,0,1-1.418,1.25,4.985,4.985,0,0,1-2.141.43,4.635,4.635,0,0,1-1.812-.371A3.217,3.217,0,0,1,100.68,19l1-1.375a2.645,2.645,0,0,0,2.047.945,1.936,1.936,0,0,0,1.4-.48,1.8,1.8,0,0,0,.5-1.363v-.453a2.612,2.612,0,0,1-2.055.883,2.992,2.992,0,0,1-2.465-1.191,4.953,4.953,0,0,1-.941-3.16Zm2.258.168a3.085,3.085,0,0,0,.461,1.8,1.466,1.466,0,0,0,1.266.653,1.568,1.568,0,0,0,1.477-.775V11a1.564,1.564,0,0,0-1.461-.775,1.476,1.476,0,0,0-1.277.665A3.477,3.477,0,0,0,102.422,12.879Zm9.32-4.332.07.945a2.971,2.971,0,0,1,2.43-1.1,2.255,2.255,0,0,1,2.242,1.289,2.9,2.9,0,0,1,2.539-1.289,2.521,2.521,0,0,1,2.047.8,3.681,3.681,0,0,1,.672,2.41V17h-2.266V11.609a1.61,1.61,0,0,0-.281-1.051,1.246,1.246,0,0,0-.992-.332,1.409,1.409,0,0,0-1.406.969L116.8,17h-2.258V11.617a1.59,1.59,0,0,0-.289-1.062,1.259,1.259,0,0,0-.984-.328,1.463,1.463,0,0,0-1.391.8V17h-2.258V8.547Zm15.625,8.609a4.15,4.15,0,0,1-3.027-1.141,4.054,4.054,0,0,1-1.168-3.039v-.219a5.106,5.106,0,0,1,.492-2.277,3.612,3.612,0,0,1,1.395-1.547,3.914,3.914,0,0,1,2.059-.543,3.508,3.508,0,0,1,2.73,1.094,4.444,4.444,0,0,1,1,3.1v.922h-5.383a2.1,2.1,0,0,0,.66,1.328,2,2,0,0,0,1.395.5,2.437,2.437,0,0,0,2.039-.945l1.109,1.242a3.389,3.389,0,0,1-1.375,1.121A4.511,4.511,0,0,1,127.367,17.156Zm-.258-6.945a1.411,1.411,0,0,0-1.09.455,2.357,2.357,0,0,0-.535,1.3h3.141v-.181a1.681,1.681,0,0,0-.406-1.165A1.456,1.456,0,0,0,127.109,10.211ZM134.2,8.547l.07.977a2.951,2.951,0,0,1,2.43-1.133,2.453,2.453,0,0,1,2,.789,3.682,3.682,0,0,1,.672,2.359V17h-2.258V11.594a1.465,1.465,0,0,0-.312-1.043,1.4,1.4,0,0,0-1.039-.324,1.553,1.553,0,0,0-1.43.813V17h-2.258V8.547Zm9.586-2.078V8.547h1.445V10.2h-1.445v4.219a1.007,1.007,0,0,0,.18.672.9.9,0,0,0,.688.2,3.6,3.6,0,0,0,.664-.055v1.711a4.648,4.648,0,0,1-1.367.2,2.156,2.156,0,0,1-2.422-2.4V10.2H140.3V8.547h1.234V6.469ZM151.391,17a2.507,2.507,0,0,1-.227-.758,2.732,2.732,0,0,1-2.133.914,3,3,0,0,1-2.059-.719,2.312,2.312,0,0,1-.816-1.812,2.389,2.389,0,0,1,1-2.062,4.915,4.915,0,0,1,2.879-.727h1.039v-.484a1.393,1.393,0,0,0-.3-.937,1.183,1.183,0,0,0-.949-.352,1.345,1.345,0,0,0-.895.273.929.929,0,0,0-.324.75h-2.258a2.268,2.268,0,0,1,.453-1.359,3,3,0,0,1,1.281-.98,4.669,4.669,0,0,1,1.859-.355,3.689,3.689,0,0,1,2.48.785,2.747,2.747,0,0,1,.918,2.207v3.664a4.041,4.041,0,0,0,.336,1.82V17Zm-1.867-1.57a1.945,1.945,0,0,0,.922-.223,1.462,1.462,0,0,0,.625-.6V13.156h-.844q-1.7,0-1.8,1.172l-.008.133a.9.9,0,0,0,.3.7A1.153,1.153,0,0,0,149.523,15.43Zm10.3-4.766a6.134,6.134,0,0,0-.812-.062,1.654,1.654,0,0,0-1.68.867V17H155.07V8.547H157.2l.063,1.008a2.092,2.092,0,0,1,1.883-1.164,2.366,2.366,0,0,1,.7.1ZM163.289,17h-2.266V8.547h2.266Zm-2.4-10.641a1.112,1.112,0,0,1,.34-.836,1.465,1.465,0,0,1,1.848,0,1.105,1.105,0,0,1,.344.836,1.109,1.109,0,0,1-.348.844,1.448,1.448,0,0,1-1.836,0A1.109,1.109,0,0,1,160.891,6.359ZM170.047,17a2.507,2.507,0,0,1-.227-.758,2.732,2.732,0,0,1-2.133.914,3,3,0,0,1-2.059-.719,2.312,2.312,0,0,1-.816-1.812,2.389,2.389,0,0,1,1-2.062,4.915,4.915,0,0,1,2.879-.727h1.039v-.484a1.393,1.393,0,0,0-.3-.937,1.183,1.183,0,0,0-.949-.352,1.345,1.345,0,0,0-.895.273.929.929,0,0,0-.324.75H165a2.268,2.268,0,0,1,.453-1.359,3,3,0,0,1,1.281-.98,4.669,4.669,0,0,1,1.859-.355,3.689,3.689,0,0,1,2.48.785,2.747,2.747,0,0,1,.918,2.207v3.664a4.041,4.041,0,0,0,.336,1.82V17Zm-1.867-1.57a1.945,1.945,0,0,0,.922-.223,1.462,1.462,0,0,0,.625-.6V13.156h-.844q-1.7,0-1.8,1.172l-.008.133a.9.9,0,0,0,.3.7A1.153,1.153,0,0,0,168.18,15.43Z" transform="translate(-1292 571)" fill="#12263f"/>
    <g id="Grupo_59932" data-name="Grupo 59932">
      <ellipse id="Elipse_4203" data-name="Elipse 4203" cx="16" cy="3.5" rx="16" ry="3.5" transform="translate(-1572 557)" opacity="0.6" fill="url(#radial-gradient)"/>
      <ellipse id="Elipse_4204" data-name="Elipse 4204" cx="16" cy="3.5" rx="16" ry="3.5" transform="translate(-1494 556)" opacity="0.6" fill="url(#radial-gradient)"/>
      <g id="Grupo_59931" data-name="Grupo 59931" transform="translate(-2113.126 167.363)">
        <g id="Grupo_59930" data-name="Grupo 59930">
          <g id="Grupo_59935" data-name="Grupo 59935">
            <g id="Grupo_59928" data-name="Grupo 59928">
              <path id="Trazado_116679" data-name="Trazado 116679" d="M558.932,392.636h11.517l-1.025-3.418h-4.18Z" fill="#a3703c"/>
              <path id="Trazado_116680" data-name="Trazado 116680" d="M546.249,390.774v.952a.9.9,0,0,0,.9.9h14.172a4.611,4.611,0,0,0,3.347-1.221c1.324-1.387,2.656-1.224,3.151.108.235.63.58,1.118,2.226,1.113h.7a1.153,1.153,0,0,0,1.155-1.151V389.1a1.155,1.155,0,0,0-1.15-1.158h-3.87a6.363,6.363,0,0,0-3.349.965,8.787,8.787,0,0,1-4.022.962H547.148a.9.9,0,0,0-.9.9Z" fill="#c69c6d"/>
              <path id="Trazado_116681" data-name="Trazado 116681" d="M547.575,389.881h11.933a8.812,8.812,0,0,0,4.027-.97,6.411,6.411,0,0,1,3.349-.957h3.853a25.144,25.144,0,0,0-.849-8.038l-5.928-.48-6.883-.556c-.451,1.089-.28,2.577-4.146,3.027-.293.042-.612.069-.944.1S546.009,382.186,547.575,389.881Z" fill="#a14a1d"/>
              <path id="Trazado_116682" data-name="Trazado 116682" d="M552.932,381.906c1.661.174,7.492,1.316,10.071,1.25,2.5-.053,2.424-2.487,2.7-3.576l-8.629-.7C556.627,379.968,556.8,381.456,552.932,381.906Z" fill="#c45a24"/>
              <path id="Trazado_116683" data-name="Trazado 116683" d="M564.064,380.889a.771.771,0,0,0-.071-1.532l-5.952-.4a.77.77,0,0,0-.22,1.525.814.814,0,0,0,.121.007l5.955.4A.78.78,0,0,0,564.064,380.889Z" fill="#c7b299"/>
              <path id="Trazado_116684" data-name="Trazado 116684" d="M563.243,382.85a.77.77,0,0,0,.069-1.53l-6.393-.8a.77.77,0,1,0-.235,1.522h0l6.4.8A.651.651,0,0,0,563.243,382.85Z" fill="#c7b299"/>
            </g>
            <g id="Grupo_59929" data-name="Grupo 59929">
              <path id="Trazado_116685" data-name="Trazado 116685" d="M632.569,392.636H621.053l1.024-3.418h4.181Z" fill="#a3703c"/>
              <path id="Trazado_116686" data-name="Trazado 116686" d="M645.254,390.774v.952a.9.9,0,0,1-.9.9h-14.17a4.611,4.611,0,0,1-3.347-1.221c-1.324-1.387-2.656-1.224-3.151.108-.235.63-.58,1.118-2.226,1.113h-.7a1.153,1.153,0,0,1-1.155-1.151V389.1a1.155,1.155,0,0,1,1.15-1.158h3.863a6.36,6.36,0,0,1,3.352.965,8.8,8.8,0,0,0,4.019.962H644.35a.9.9,0,0,1,.9.9Z" fill="#c69c6d"/>
              <path id="Trazado_116687" data-name="Trazado 116687" d="M643.927,389.881H631.993a8.812,8.812,0,0,1-4.027-.97,6.411,6.411,0,0,0-3.349-.957h-3.853a25.118,25.118,0,0,1,.849-8.038l5.928-.48,6.883-.556c.451,1.089.28,2.577,4.146,3.027.293.042.612.069.944.1S645.493,382.186,643.927,389.881Z" fill="#a14a1d"/>
              <path id="Trazado_116688" data-name="Trazado 116688" d="M638.571,381.906c-1.661.174-7.492,1.316-10.071,1.25-2.5-.053-2.424-2.487-2.7-3.576l8.629-.7C634.876,379.968,634.7,381.456,638.571,381.906Z" fill="#c45a24"/>
              <path id="Trazado_116689" data-name="Trazado 116689" d="M627.439,380.889a.771.771,0,0,1,.071-1.532l5.952-.4a.77.77,0,0,1,.092,1.538l-5.952.4A.742.742,0,0,1,627.439,380.889Z" fill="#c7b299"/>
              <path id="Trazado_116690" data-name="Trazado 116690" d="M628.259,382.85a.77.77,0,0,1-.069-1.53l6.392-.8a.77.77,0,1,1,.267,1.517l-.035.005-6.393.8A.678.678,0,0,1,628.259,382.85Z" fill="#c7b299"/>
            </g>
            <path id="Trazado_116691" data-name="Trazado 116691" d="M564.661,233.5c-.011.92.053,1.822-.037,2.727-9.792,98.842-8.115,142.606-8.115,142.606l15.285,4.467c6.524-68.91,18.215-96.482,22.5-106.186,4.924,9.7,18.885,37.277,25.409,106.186l15.283-4.467S633.6,335.073,623.8,236.231c-.09-.9-.026-1.806-.037-2.727Z" fill="#186a94"/>
            <path id="Trazado_116692" data-name="Trazado 116692" d="M625.008,180.2c-2.149,4.6,0,59.537,0,59.537H563.63s.92-8.592-4.91-59.229c-1.308-11.369-8.4-16.179-6.192-22.609,4.557-13.252,22.622-21.219,30-22.469a31.549,31.549,0,0,1,8.726-.343,39.833,39.833,0,0,1,12.48,1.413c11.989,3.465,27.01,12.263,29.608,21.4C636.165,167.839,625.987,178.1,625.008,180.2Z" fill="#94e3ff"/>
            <path id="Trazado_116693" data-name="Trazado 116693" d="M644.239,173.445s25.575,28.848-4.7,60.969l-10.23-1.841s24.347-21.688-.614-49.716Z" fill="#fcba7e"/>
            <path id="Trazado_116694" data-name="Trazado 116694" d="M619.689,152.577s11.047-11.456,31.3,20.051L626.848,189.4S605.772,163.215,619.689,152.577Z" fill="#bde5ff"/>
            <path id="Trazado_116695" data-name="Trazado 116695" d="M539.408,173.445s-25.575,28.848,4.7,60.969l10.23-1.841s-24.346-21.688.615-49.716Z" fill="#fcba7e"/>
            <path id="Trazado_116696" data-name="Trazado 116696" d="M563.957,152.577s-11.047-11.456-31.3,20.051L556.8,189.4S577.869,163.215,563.957,152.577Z" fill="#bde5ff"/>
            <path id="Trazado_116697" data-name="Trazado 116697" d="M603.734,136.5c-1.068,4.088-3.769,9.33-10.509,9.33-8.112,0-10.174-6.778-10.7-10.4a31.549,31.549,0,0,1,8.726-.343A39.851,39.851,0,0,1,603.734,136.5Z" fill="#f2a057"/>
            <path id="Trazado_116698" data-name="Trazado 116698" d="M573.779,99.129s-.672,39.74,19.1,39.74,18.3-40.615,18.3-40.615,1.754-16.364-17.825-16.364S574.071,95.332,573.779,99.129Z" fill="#fcba7e"/>
            <g id="Grupo_59930-2" data-name="Grupo 59930">
              <path id="Trazado_116699" data-name="Trazado 116699" d="M603.27,115.216c-.05,1.994-1.034,3.589-2.2,3.56s-2.068-1.672-2.017-3.668,1.034-3.589,2.2-3.56S603.323,113.219,603.27,115.216Z" fill="#333"/>
              <path id="Trazado_116700" data-name="Trazado 116700" d="M601.648,113.4a.98.98,0,1,1-1.121-.815A.98.98,0,0,1,601.648,113.4Z" fill="#e6e6e6"/>
            </g>
            <path id="Trazado_116701" data-name="Trazado 116701" d="M596.727,110.414a4.443,4.443,0,0,1,8.861.678h0Z" fill="#d49c6a"/>
            <g id="Grupo_59931-2" data-name="Grupo 59931">
              <path id="Trazado_116702" data-name="Trazado 116702" d="M587.415,115.216c-.05,1.994-1.036,3.589-2.2,3.56s-2.068-1.672-2.017-3.668,1.036-3.589,2.2-3.56S587.467,113.219,587.415,115.216Z" fill="#333"/>
              <path id="Trazado_116703" data-name="Trazado 116703" d="M585.791,113.4a.979.979,0,1,1-1.119-.814h0A.979.979,0,0,1,585.791,113.4Z" fill="#e6e6e6"/>
            </g>
            <path id="Trazado_116704" data-name="Trazado 116704" d="M580.408,111.266a4.444,4.444,0,0,1,8.827-1.044Z" fill="#d49c6a"/>
            <path id="Trazado_116705" data-name="Trazado 116705" d="M585.386,126.559a5.61,5.61,0,0,1,3.676-1.981,14.026,14.026,0,0,1,1.878-.1c2.178-.018,4.81-.248,6.849.67a4.051,4.051,0,0,1,.878.527c.472.356,2.228,1.764,2.21,2.4-.024.831-1.213.166-1.661.119a4.879,4.879,0,0,0-1.8.148,18.515,18.515,0,0,1-2.756.878,14.932,14.932,0,0,1-5.6-.388,13.745,13.745,0,0,0-1.7-.409,5.405,5.405,0,0,0-2.065.137,1.241,1.241,0,0,1-.672.055c-.575-.287-.116-.651.1-1.068A6,6,0,0,1,585.386,126.559Z" fill="#4d4d4d"/>
            <g id="Grupo_59932-2" data-name="Grupo 59932">
              <path id="Trazado_116706" data-name="Trazado 116706" d="M592.447,114.778c-.134.622-.221.963-.351,1.588-.164.622-.324,1.543-.472,2.144a4.47,4.47,0,0,1-.641,1.569,3.3,3.3,0,0,1-.417.467l-.4.214a2.433,2.433,0,0,0-.554.372l.042-.04a2.275,2.275,0,0,0-.628.783,2.046,2.046,0,0,0-.185,1.065,2.663,2.663,0,0,0,.1.485,1.8,1.8,0,0,0,.256.525,2.178,2.178,0,0,0,.786.675,3.275,3.275,0,0,0,.854.3,6.569,6.569,0,0,0,.778.1,12.256,12.256,0,0,0,1.472.011,9.582,9.582,0,0,0,1.511-.156,2.822,2.822,0,0,0,1.466-.692,1.344,1.344,0,0,0,.461-.847,1.587,1.587,0,0,0-.141-.853c-.282-.525-.7-.707-.96-1.121.069.477.427.923.475,1.287a.763.763,0,0,1-.359.831,2.425,2.425,0,0,1-1.134.224c-.43,0-.849.029-1.313,0s-.9-.074-1.332-.124a5.753,5.753,0,0,1-.612-.105,1.725,1.725,0,0,1-.461-.169.98.98,0,0,1-.282-.222.374.374,0,0,1-.055-.1,1.052,1.052,0,0,1-.047-.2.674.674,0,0,1,.272-.617l.042-.04a1.1,1.1,0,0,1,.229-.171c.127-.079.272-.164.438-.28a2.091,2.091,0,0,0,.266-.214,1.232,1.232,0,0,0,.148-.158c.047-.061.058-.082.09-.127a4.031,4.031,0,0,0,.287-.472,5.271,5.271,0,0,0,.522-2.054c.032-.662.04-1.292.034-1.938,0-.319,0-.643-.018-.971A2.759,2.759,0,0,0,592.447,114.778Z" fill="#d49c6a"/>
              <path id="Trazado_116707" data-name="Trazado 116707" d="M589.644,123.2a1.788,1.788,0,0,0,1.561,1.039,14.3,14.3,0,0,0,2.447.124,6.829,6.829,0,0,0,1.15-.121,2.431,2.431,0,0,0,1.013-.411,1.044,1.044,0,0,0,.393-.936c-.053-.662-.5-.847-.783-1.527l-2.977-6.59a13.48,13.48,0,0,1-.2,2.743,6.22,6.22,0,0,1-1.039,3.354c-.235.3-.839.5-1.094.757A1.374,1.374,0,0,0,589.644,123.2Z" fill="#fcba7e"/>
            </g>
            <path id="Trazado_116708" data-name="Trazado 116708" d="M613.713,111.468c-.53,2.627-2.075,4.518-3.452,4.22s-2.065-2.666-1.535-5.293,2.075-4.518,3.455-4.222S614.243,108.839,613.713,111.468Z" fill="#fcba7e"/>
            <path id="Trazado_116709" data-name="Trazado 116709" d="M571.515,111.468c.53,2.627,2.075,4.518,3.455,4.22s2.065-2.666,1.535-5.293-2.078-4.518-3.455-4.222S570.985,108.839,571.515,111.468Z" fill="#fcba7e"/>
            <path id="Trazado_116710" data-name="Trazado 116710" d="M626.346,230.9l.1,9.66-27.421,1.229-1.559-9.9-.9-5.7-2.455-15.517-1.621,15.5-.6,5.72-1.042,9.895H561.79s-.05-4.655-.282-10.878c-.05-1.767-.137-3.658-.221-5.609-.245-4.971-.591-10.325-1.092-14.879-.235-2.147-.5-4.111-.812-5.794a18.708,18.708,0,0,0-1.263-4.578s18.426-20.058,0-55.447c0,0,11.857-8.8,21.261-10.841,0,0,5.327,30.689,14.325,42.142,0,0,10.644-25.47,13.909-40.963,0,0,14.325,4.961,20.058,11.1,0,0-21.348,41.736-1.669,53.189l.061,5.317.061,5.6.161,14.963Z" fill="#fad369"/>
            <path id="Trazado_116711" data-name="Trazado 116711" d="M626.124,210.137c-11.121-.464-51.47-1.975-65.93.282-.235-2.147-.5-4.111-.812-5.794a513.383,513.383,0,0,1,66.681-.084Z" fill="#ffffc4"/>
            <path id="Trazado_116712" data-name="Trazado 116712" d="M561.286,225.3c5.683.232,18.228.712,31.2.873l-.6,5.72c-9-.037-19.259-.309-30.38-.984C561.457,229.139,561.37,227.249,561.286,225.3Z" fill="#ffffc4"/>
            <path id="Trazado_116713" data-name="Trazado 116713" d="M626.345,230.9c-4.75.343-14.987.92-28.882.994l-.9-5.7c11.638.087,23.089-.148,29.718-1.094Z" fill="#ffffc4"/>
            <path id="Trazado_116714" data-name="Trazado 116714" d="M629.3,227.15s10.2.614,15.114,5.831l-6.981,6.751-12.047-2.455Z" fill="#ffd242"/>
            <path id="Trazado_116715" data-name="Trazado 116715" d="M621.612,242.988a7.488,7.488,0,0,0-1.2,2.584,3.768,3.768,0,0,0-.174,1.487.593.593,0,0,0,.15.369.662.662,0,0,0,.277.14,2.718,2.718,0,0,0,2.065.1,5.125,5.125,0,0,0,1.1-1.081,10.473,10.473,0,0,0,.939-.873,3.352,3.352,0,0,0,.567-1.73,2.628,2.628,0,0,0-.024-1.015C624.694,240.778,622.574,241.73,621.612,242.988Z" fill="#ffd242"/>
            <path id="Trazado_116716" data-name="Trazado 116716" d="M561.61,242.988a7.561,7.561,0,0,1,1.2,2.584,3.806,3.806,0,0,1,.174,1.487.592.592,0,0,1-.15.369.692.692,0,0,1-.277.14,2.718,2.718,0,0,1-2.065.1,5.125,5.125,0,0,1-1.1-1.081,10.637,10.637,0,0,1-.941-.873,3.349,3.349,0,0,1-.564-1.73,2.626,2.626,0,0,1,.024-1.015C558.531,240.778,560.647,241.73,561.61,242.988Z" fill="#ffd242"/>
            <g id="Grupo_59933" data-name="Grupo 59933">
              <rect id="Rectángulo_6262" data-name="Rectángulo 6262" width="4.987" height="6.962" transform="matrix(0.002, -1, 1, 0.002, 565.71, 243.732)" fill="#191919"/>
              <rect id="Rectángulo_6263" data-name="Rectángulo 6263" width="7.433" height="25.236" transform="translate(539.577 244.916) rotate(-89.916)" fill="#191919"/>
              <path id="Trazado_116717" data-name="Trazado 116717" d="M538,235.375h.654a.98.98,0,0,1,.939,1.013l-.013,9.373a.981.981,0,0,1-.944,1.01h-.654a.981.981,0,0,1-.939-1.013l.013-9.375A.983.983,0,0,1,538,235.375Z" fill="#333"/>
              <path id="Trazado_116718" data-name="Trazado 116718" d="M565.933,233.558h-.6a.53.53,0,0,0-.509.546l-.021,14.267a.528.528,0,0,0,.509.546h.593a.529.529,0,0,0,.512-.546l.021-14.267A.53.53,0,0,0,565.933,233.558Z" fill="#333"/>
              <rect id="Rectángulo_6264" data-name="Rectángulo 6264" width="6.962" height="4.987" transform="translate(611.512 238.755) rotate(-0.091)" fill="#191919"/>
              <rect id="Rectángulo_6265" data-name="Rectángulo 6265" width="25.235" height="7.433" transform="translate(619.369 237.52) rotate(-0.084)" fill="#191919"/>
              <path id="Trazado_116719" data-name="Trazado 116719" d="M646.2,235.375h-.654a.977.977,0,0,0-.939,1.013l.013,9.373a.98.98,0,0,0,.941,1.01h.654a.977.977,0,0,0,.939-1.013l-.013-9.375A.98.98,0,0,0,646.2,235.375Z" fill="#333"/>
              <path id="Trazado_116720" data-name="Trazado 116720" d="M618.26,233.558h.593a.533.533,0,0,1,.512.546l.021,14.267a.529.529,0,0,1-.509.546h-.6a.53.53,0,0,1-.509-.546l-.021-14.267a.529.529,0,0,1,.511-.546Z" fill="#333"/>
              <path id="Trazado_116721" data-name="Trazado 116721" d="M612.835,225.764v39.9H602.329V236.087a4.332,4.332,0,0,0-4.333-4.33H585.941a4.331,4.331,0,0,0-4.333,4.327v29.58H571.1v-39.9a8.742,8.742,0,0,1,8.74-8.74H604.1A8.742,8.742,0,0,1,612.835,225.764Z" fill="#b7c0c5"/>
              <path id="Trazado_116722" data-name="Trazado 116722" d="M593.5,392.637h-3.069l-2.148-66.207h7.366Z" fill="#a4b8d1"/>
              <rect id="Rectángulo_6266" data-name="Rectángulo 6266" width="12.889" height="13.503" transform="translate(585.523 314.308)" fill="#666667"/>
              <path id="Trazado_116723" data-name="Trazado 116723" d="M612.835,265.046v3.842a11.2,11.2,0,0,0-11.2,11.2v36.681H582.294V280.083a11.192,11.192,0,0,0-11.189-11.2H571.1v-3.842h9.9V235.475a4.331,4.331,0,0,1,4.329-4.333h13.284a4.331,4.331,0,0,1,4.333,4.329v29.575Z" fill="#e77c20"/>
            </g>
            <path id="Trazado_116724" data-name="Trazado 116724" d="M621.7,232.325a1.675,1.675,0,0,1,1.883-.467,3.741,3.741,0,0,1,1.163,1.052c.446.522,1.838,1.58,2.94.409a8.3,8.3,0,0,0,.918-1.7,1.688,1.688,0,0,1,1.867-.865,3.044,3.044,0,0,1,1.719,1.408c.538.839,1.036,1.988,1.9,2,1.21.021,1.809-1.482,2.993-1.184,1.134.285,1.229,3.476,2.337,3.89.962.359,1.959-1.05,2.911-.641.707.3.918,1.429.881,2.366-.127,3.194-1.785,5.947-3.4,8.442-.158.245-.694.63-.936.551-1.477-.491-.659-.984-1.295-1.268-.57-.253-1.179.319-1.469.984s-.055.831-.361,1.482a1.541,1.541,0,0,1-1.88.728c-.665-.4-.636-1.031-1.321-1.377-.649-.327-.883.332-1.287,1.052-.251.446-.462.781-1.535.728a.833.833,0,0,1-.886-.657,2.937,2.937,0,0,0-.81-1.387c-.446-.29-1.137.578-1.237.683a2.08,2.08,0,0,1-1.134.287c-1.007-.369-3.241-4.879-3.721-6.042C620.979,240.477,620.254,233.823,621.7,232.325Z" fill="#ffe100"/>
            <path id="Trazado_116725" data-name="Trazado 116725" d="M554.343,227.15s-10.2.614-15.114,5.831l6.981,6.751,12.047-2.455Z" fill="#ffd242"/>
            <path id="Trazado_116726" data-name="Trazado 116726" d="M561.948,232.325a1.675,1.675,0,0,0-1.883-.467,3.741,3.741,0,0,0-1.163,1.052c-.446.522-1.841,1.58-2.94.409a8.305,8.305,0,0,1-.918-1.7,1.693,1.693,0,0,0-1.87-.865,3.044,3.044,0,0,0-1.717,1.408c-.538.839-1.036,1.988-1.9,2-1.21.021-1.809-1.482-2.993-1.184-1.134.285-1.232,3.476-2.337,3.89-.965.359-1.959-1.05-2.911-.641-.709.3-.918,1.429-.881,2.366.127,3.194,1.785,5.947,3.4,8.442.161.245.7.63.939.551,1.477-.491.659-.984,1.295-1.268.567-.253,1.179.319,1.469.984s.053.831.361,1.482a1.539,1.539,0,0,0,1.88.728c.665-.4.636-1.031,1.321-1.377.649-.327.883.332,1.287,1.052.25.446.461.781,1.535.728a.838.838,0,0,0,.889-.657,2.883,2.883,0,0,1,.807-1.387c.446-.29,1.137.578,1.237.683a2.06,2.06,0,0,0,1.134.287c1.007-.369,3.238-4.879,3.721-6.042C562.668,240.477,563.393,233.823,561.948,232.325Z" fill="#ffe100"/>
            <path id="Trazado_116727" data-name="Trazado 116727" d="M611.319,100.45a6.612,6.612,0,0,0-2.6-4.462,5.22,5.22,0,0,0-1.754-1.619c-5.826-3.194-13.906-2.7-20.341-2.9-4.13-.134-10.984-.161-11.709,5.314a1.2,1.2,0,0,0,.037.451,7.51,7.51,0,0,0-1.313,3.22,19.513,19.513,0,0,0,.105,5.375c.314,2.782.883,11.324,1.435,12.107.746,1.058,1.342-.087,1.3-.984l-.293-5.894a16.548,16.548,0,0,1,.243-4.9,5.59,5.59,0,0,1,2.869-3.8,16.187,16.187,0,0,1,4.019-.7,5.326,5.326,0,0,0,.976-.261c3.993-.045,8-.111,11.973.034,2.234.082,6.5,1.221,9.467.97a5.6,5.6,0,0,1,2.8,3.758,16.447,16.447,0,0,1,.245,4.9q-.145,2.948-.3,5.894c-.045.9.551,2.041,1.3.984.554-.783,1.123-9.325,1.435-12.107A19.431,19.431,0,0,0,611.319,100.45Z" fill="#4d4d4d"/>
            <g id="Grupo_59934" data-name="Grupo 59934">
              <path id="Trazado_116728" data-name="Trazado 116728" d="M610.694,102s1.825,5.427,4.132,6.058l-.058-4.792s-1.1-.047-1.994-3.009Z" fill="#e6e6e6"/>
              <path id="Trazado_116729" data-name="Trazado 116729" d="M573.293,102s-1.825,5.427-4.132,6.058l.058-4.792s1.1-.047,1.994-3.009Z" fill="#e6e6e6"/>
              <path id="Trazado_116730" data-name="Trazado 116730" d="M568.823,101.147s24.344,8.384,46.351.235l.016-.227c.084-1.654.417-11.989-3.874-19.8a16.617,16.617,0,0,0-7.9-7.542A31.33,31.33,0,0,0,587.688,71.4c-6.582.662-13.787,4.536-15.91,10.127C569.97,86.287,569.444,89.929,568.823,101.147Z" fill="#ffd138"/>
              <path id="Trazado_116731" data-name="Trazado 116731" d="M609.127,103.317l6.063-2.162c.084-1.654.417-11.989-3.874-19.8-2.223-.712-2.938.876-2.962,5.048C608.32,92.164,609.127,103.317,609.127,103.317Z" fill="#ffe30a"/>
              <path id="Trazado_116732" data-name="Trazado 116732" d="M575.368,103.009l-6.427-1.759c-.137-1.648-1.319-12.295,2.9-20.222,2.284-.775,3.6,1.113,3.75,5.282C575.8,92.067,575.368,103.009,575.368,103.009Z" fill="#ffe30a"/>
              <path id="Trazado_116733" data-name="Trazado 116733" d="M616.363,102.038c-5.984,2.558-28.181,6.954-48.862-.306-.206-.074-.556-.116-.562-.522h0c-.021-.256.232-.731.5-.63,6.118,2.31,29.85,6.6,49.2.119.356-.121.63.356.617.691h0C617.234,101.8,616.785,101.859,616.363,102.038Z" fill="#ff6"/>
              <path id="Trazado_116734" data-name="Trazado 116734" d="M584.8,104.773l15.346-.153-1.327-32.387a10.327,10.327,0,0,0-12.242-.686Z" fill="#ffe30a"/>
            </g>
            <path id="Trazado_116735" data-name="Trazado 116735" d="M587.5,128.99a.975.975,0,0,0-.074.556c.032.079.1.061.153.092l.343.111a4.821,4.821,0,0,0,.7.169,8.565,8.565,0,0,0,1.448.111c.97-.008,1.9-.055,2.832-.047s1.872.071,2.843.013a6.711,6.711,0,0,0,1.437-.211,3.914,3.914,0,0,0,.691-.229c.224-.084.5-.1.414-.82a.885.885,0,0,1,.759,1.6c-.535-.525-.72-.348-.952-.24s-.462.211-.7.309c-.467.2-.931.427-1.416.617a8.35,8.35,0,0,1-3.046.749,7.734,7.734,0,0,1-3.088-.514L588.4,130.7l-.712-.28-.356-.142c-.066-.013-.108-.076-.193-.047s-.2.169-.414.414a.91.91,0,1,1,.716-1.673l.054.025Z" fill="#bd6855"/>
          </g>
          <path id="Trazado_116736" data-name="Trazado 116736" d="M522.523,175.832c-7.4,12.7-4.1,36.1-4.1,36.1" fill="none" stroke="#9d988c" stroke-width="1"/>
          <path id="Trazado_116737" data-name="Trazado 116737" d="M516.681,179.64c-6.023,9.945-3.728,28.495-3.728,28.495" fill="none" stroke="#9d988c" stroke-miterlimit="4.001" stroke-width="1"/>
          <path id="Trazado_116738" data-name="Trazado 116738" d="M510.364,184.006c-3.627,6.429-1.755,18.124-1.755,18.124" fill="none" stroke="#9d988c" stroke-width="1"/>
          <g id="Grupo_59936" data-name="Grupo 59936">
            <path id="Trazado_116741" data-name="Trazado 116741" d="M661.123,175.832c7.4,12.7,4.1,36.1,4.1,36.1" fill="none" stroke="#9d988c" stroke-width="1"/>
            <path id="Trazado_116740" data-name="Trazado 116740" d="M666.887,178.861c6.023,9.945,3.728,28.5,3.728,28.5" fill="none" stroke="#9d988c" stroke-miterlimit="4.001" stroke-width="1"/>
            <path id="Trazado_116739" data-name="Trazado 116739" d="M673.273,184.005c3.633,6.427,1.764,18.125,1.764,18.125" fill="none" stroke="#9d988c" stroke-miterlimit="4.001" stroke-width="1"/>
          </g>
          <g id="Grupo_59937" data-name="Grupo 59937">
            <path id="Trazado_116741-2" data-name="Trazado 116741-2" d="M636.123,297.832c7.4,12.7,4.1,36.1,4.1,36.1" fill="none" stroke="#9d988c" stroke-width="1"/>
            <path id="Trazado_116740-2" data-name="Trazado 116740-2" d="M640.545,300.861c6.022,9.945,3.727,28.495,3.727,28.495" fill="none" stroke="#9d988c" stroke-miterlimit="4.001" stroke-width="1"/>
            <path id="Trazado_116739-2" data-name="Trazado 116739-2" d="M645.873,306.005c3.633,6.427,1.764,18.125,1.764,18.125" fill="none" stroke="#9d988c" stroke-miterlimit="4.001" stroke-width="1"/>
          </g>
          <g id="Grupo_59939" data-name="Grupo 59939">
            <path id="Trazado_116741-3" data-name="Trazado 116741-3" d="M573.31,67.783c13.3-6.265,36.32-.938,36.32-.938" fill="none" stroke="#9d988c" stroke-width="1"/>
            <path id="Trazado_116740-3" data-name="Trazado 116740-3" d="M576.713,63.643c10.431-5.134,28.711-1.23,28.711-1.23" fill="none" stroke="#9d988c" stroke-miterlimit="4.001" stroke-width="1"/>
            <path id="Trazado_116739-3" data-name="Trazado 116739-3" d="M582.3,58.782c6.72-3.059,18.21-.177,18.21-.177" fill="none" stroke="#9d988c" stroke-miterlimit="4.001" stroke-width="1"/>
          </g>
          <g id="Grupo_59938" data-name="Grupo 59938">
            <path id="Trazado_116741-4" data-name="Trazado 116741-4" d="M555.323,297.832c-7.4,12.7-4.1,36.1-4.1,36.1" fill="none" stroke="#9d988c" stroke-width="1"/>
            <path id="Trazado_116740-4" data-name="Trazado 116740-4" d="M550.915,300.866c-6.023,9.945-3.727,28.495-3.727,28.495" fill="none" stroke="#9d988c" stroke-miterlimit="4.001" stroke-width="1"/>
            <path id="Trazado_116739-4" data-name="Trazado 116739-4" d="M545.564,306.008c-3.633,6.427-1.764,18.125-1.764,18.125" fill="none" stroke="#9d988c" stroke-miterlimit="4.001" stroke-width="1"/>
          </g>
        </g>
      </g>
    </g>
    <g id="Grupo_59933-2" data-name="Grupo 59933">
      <ellipse id="Elipse_4205" data-name="Elipse 4205" cx="16" cy="3.5" rx="16" ry="3.5" transform="translate(-1219 553)" opacity="0.6" fill="url(#radial-gradient)"/>
      <ellipse id="Elipse_4206" data-name="Elipse 4206" cx="26.5" cy="3.5" rx="26.5" ry="3.5" transform="translate(-1165 553)" opacity="0.6" fill="url(#radial-gradient)"/>
      <g id="Grupo_59929-2" data-name="Grupo 59929" transform="translate(-2113.126 167.363)">
        <g id="Grupo_59928-2" data-name="Grupo 59928">
          <path id="Trazado_116761" data-name="Trazado 116761" d="M932.484,102.729s-21.989-10.791-16.292,55.657c0,0,7.967,5.126,23.281,0C939.468,158.388,943.349,113.74,932.484,102.729Z" fill="#3a231f"/>
          <g id="Grupo_59942" data-name="Grupo 59942">
            <path id="Trazado_116742" data-name="Trazado 116742" d="M1044.206,170.759s3.776,2.13,3.389,3.68a11.494,11.494,0,0,1-1.68,3.293l-3.678-3.035Z" fill="#dd836b"/>
            <path id="Trazado_116743" data-name="Trazado 116743" d="M1051.875,173.846a1.743,1.743,0,0,0-2.405.54,5.973,5.973,0,0,1-1.88,1.854c-.067.017-3,.74-3.093-2.124a4.513,4.513,0,0,1,1.607-3.869,5.273,5.273,0,0,1,1.918.276,2.931,2.931,0,0,1,1.747,1.726,1.743,1.743,0,1,0,3.207-1.367,6.451,6.451,0,0,0-3.75-3.63c-4.186-1.548-9.553,1-10.151,1.3a1.75,1.75,0,0,0-.307.194,7.62,7.62,0,0,0-1.349,1.014l-3.458,2.774c-2.8,2.619-3.33,6.6-1.228,8.843s8.792,1.037,12.149-.481h0a10.823,10.823,0,0,0,7.532-4.644,1.743,1.743,0,0,0-.538-2.4Z" fill="#fcba7e"/>
            <g id="Grupo_59941" data-name="Grupo 59941">
              <path id="Trazado_116744" data-name="Trazado 116744" d="M1047.8,171.058l11.639,4.748.792,1.208-1.376.227-11.636-4.751Z" fill="#c1c1c1"/>
              <path id="Trazado_116745" data-name="Trazado 116745" d="M1049.135,173.474l-.387.008-.358-2.381.387-.008Z" fill="#9b9b9b"/>
              <path id="Trazado_116746" data-name="Trazado 116746" d="M1050.571,174.06l-.387.008-.359-2.381.387-.008Z" fill="#9b9b9b"/>
              <path id="Trazado_116747" data-name="Trazado 116747" d="M1052,174.645l-.387.008-.358-2.381.387-.008Z" fill="#9b9b9b"/>
              <path id="Trazado_116748" data-name="Trazado 116748" d="M1053.439,175.23l-.387.008-.358-2.381.387-.008Z" fill="#9b9b9b"/>
              <path id="Trazado_116749" data-name="Trazado 116749" d="M1054.875,175.815l-.387.008-.359-2.381.388-.008Z" fill="#9b9b9b"/>
              <path id="Trazado_116750" data-name="Trazado 116750" d="M1056.309,176.4l-.387.008-.358-2.381.387-.008Z" fill="#9b9b9b"/>
              <path id="Trazado_116751" data-name="Trazado 116751" d="M1057.746,176.981l-.387.008-.358-2.381.387-.008Z" fill="#9b9b9b"/>
              <path id="Trazado_116752" data-name="Trazado 116752" d="M1059.178,177.571l-.387.008-.359-2.381.388-.008Z" fill="#9b9b9b"/>
              <path id="Trazado_116753" data-name="Trazado 116753" d="M1047.8,171.737c-.343.842-1.006,1.368-1.479,1.175s-.579-1.033-.236-1.875,1.006-1.368,1.479-1.174S1048.139,170.9,1047.8,171.737Z" fill="#9b9b9b"/>
            </g>
          </g>
          <g id="Grupo_59943" data-name="Grupo 59943">
            <path id="Trazado_116754" data-name="Trazado 116754" d="M963.488,154.519c.065.07,6.627,7.085,14.184,14.3,11.75,11.216,16.491,13.977,17.933,14.635,6.419-1.42,27.879-7.91,36.77-10.668l3.752,13.031c-7,2.172-32.543,9.983-39.041,11.17-4.792.875-11.007-1.636-27.166-16.835-8.516-8.011-16.025-16.04-16.342-16.378a6.779,6.779,0,0,1,9.91-9.253Z" fill="#d1d1d1"/>
          </g>
          <g id="Grupo_59945" data-name="Grupo 59945">
            <path id="Trazado_116755" data-name="Trazado 116755" d="M930.578,151.572s13.4-4.373,23.854-.423h0c5.036.438,6.683,1.823,6.683,1.823l3.563,10.966c5.961,7.63,7.644,12.065,7.7,14.283.126,4.991-5.612,9.427-5.612,9.427l-.755,25.616c-19.827,7.707-33.572.441-33.572.441-2.2-14.979-14.275-43.349-14.275-43.349l.055-14.192C921.262,154.384,927.487,152.332,930.578,151.572Z" fill="#e5e5e5"/>
            <g id="Grupo_59944" data-name="Grupo 59944">
              <path id="Trazado_116756" data-name="Trazado 116756" d="M947.666,146.32l.092,4.487s-1.222,2.647-5.785,2.665-5.766-2.728-5.766-2.728l-.068-7.211A17.557,17.557,0,0,0,947.666,146.32Z" fill="#faa284"/>
              <path id="Trazado_116757" data-name="Trazado 116757" d="M936.144,143.537l-.037-9.431,11.515-.045.049,12.264A17.494,17.494,0,0,1,936.144,143.537Z" fill="#ef8d72"/>
            </g>
            <path id="Trazado_116758" data-name="Trazado 116758" d="M938.471,181.86c7.6,2.532,24.07-1.978,33.9-3.305-.123,4.853-5.606,9.1-5.606,9.1l-.756,25.616c-19.826,7.707-33.538.441-33.538.441-2.2-14.979-14.31-43.349-14.31-43.349l2.667-.412C926.64,173.465,933.172,180.093,938.471,181.86Z" fill="#d1d1d1"/>
            <path id="Trazado_116759" data-name="Trazado 116759" d="M969.148,174.957c-4.943-16.1-11.7-22.7-11.7-22.7-2.24-1.694-6.306-1.945-6.306-1.945,8.244,6.544,13.252,24.934,13.252,24.934l-17.837.856c-4.433-16.921-13-25.393-13-25.393-4.438-.107-6.3,1.718-6.3,1.718,6.307,4.273,12.6,23.612,12.6,23.612l-.547,24.336-11.331,3.8,2.155,9.091s17.988,9.483,37.265,0l4.949-34.711Z" fill="#fad369"/>
            <path id="Trazado_116760" data-name="Trazado 116760" d="M969.433,181.8l-25.287.57s-3.616,16.723,13.5,16.732C971.271,199.109,969.433,181.8,969.433,181.8Z" fill="#e5ba46"/>
          </g>
          <path id="Trazado_116762" data-name="Trazado 116762" d="M961.732,119.555S972.341,88.486,946.5,92.373c0,0-25-9.45-24.179,25.731C922.319,118.105,946.331,138.915,961.732,119.555Z" fill="#492c27"/>
          <path id="Trazado_116763" data-name="Trazado 116763" d="M963.829,104.857c-.293-4.5-1.778-8.854-5.83-11.149-10.006,10.562-19.7,4.08-24.958-1.264-3.324,1.393-6.508,4.2-8.534,9.513C933.047,104.578,949.728,108.525,963.829,104.857Z" fill="#c66f54"/>
          <g id="Grupo_59950" data-name="Grupo 59950">
            <path id="Trazado_116764" data-name="Trazado 116764" d="M926.1,117.712l1.445.552c13.5-6.26,18-20.542,18-20.542,3.294,8.227,11.7,19.823,16.19,21.833a82.311,82.311,0,0,1-.907,10.517c-.961,7.19-4.933,12.315-12.083,13.689-17.241,3.314-21.378-13.106-21.378-13.106s-6.424-.133-6.823-8.466C920.214,115.377,926.1,117.712,926.1,117.712Z" fill="#fcba7e"/>
            <path id="Trazado_116765" data-name="Trazado 116765" d="M928.938,128.954s4.128,12.187,13.645,13.879c5.792,1.03,10.9-1.248,14.021-3.188a14.305,14.305,0,0,1-7.862,4.113c-17.241,3.314-21.378-13.106-21.378-13.106s-5.087-.146-6.485-5.983C924.9,130.77,928.938,128.954,928.938,128.954Z" fill="#ef8d72"/>
            <path id="Trazado_116790" data-name="Trazado 116790" d="M944.607,121.466s-8.267-1.42-13.22-5.336c10.055-6.759,14.158-18.41,14.158-18.41,2.928,7.312,9.9,17.281,14.559,20.819C958.469,119.659,954.062,122.944,944.607,121.466Z" fill="#ef8d72"/>
            <g id="Grupo_59948" data-name="Grupo 59948">
              <path id="Trazado_116791" data-name="Trazado 116791" d="M951.321,133.644s-4.46,1.192-11.458-.5c0,0,1.47,5.792,6.291,5.622C950.447,138.617,951.321,133.644,951.321,133.644Z" fill="#56362e"/>
              <path id="Trazado_116792" data-name="Trazado 116792" d="M951.143,133.924a21.184,21.184,0,0,1-11-.478s.98,2.435,6.046,2.493C950.687,135.991,951.143,133.924,951.143,133.924Z" fill="#fff"/>
            </g>
            <path id="Trazado_116793" data-name="Trazado 116793" d="M952.168,116.729s3.138-1.539,7.219,1.6a3.159,3.159,0,0,0-.887-1.359,5.943,5.943,0,0,0-5.5-1.479S951.431,115.978,952.168,116.729Z" fill="#3b221d"/>
            <path id="Trazado_116794" data-name="Trazado 116794" d="M943.485,117.3a9.037,9.037,0,0,0-8.152.922s-.014-.515.9-1.323a7.269,7.269,0,0,1,6.257-1.13S944.329,116.3,943.485,117.3Z" fill="#3b221d"/>
            <g id="Grupo_59949" data-name="Grupo 59949">
              <path id="Trazado_116795" data-name="Trazado 116795" d="M946.12,131.3c3.338,1.673,5.328.2,5.6-1.422a2.348,2.348,0,0,0-1.34-2.531c-2.036-.991-3.258-4.343-3.27-4.378h0a6.959,6.959,0,0,0,3,5.364c.549.382.88.765.794,1.287-.153.908-1.585,2.169-4.782,1.68Z" fill="#db7c65"/>
            </g>
            <path id="Trazado_116796" data-name="Trazado 116796" d="M955.243,119.871s2.131.014,2.423-.787a1.273,1.273,0,0,1-.989,1.506l-.025.005a3.22,3.22,0,0,1,.681,2.02c.009,1.523-.912,2.762-2.058,2.768s-2.081-1.221-2.09-2.744S954.1,119.878,955.243,119.871Z" fill="#56362e"/>
            <path id="Trazado_116797" data-name="Trazado 116797" d="M938.889,119.967s2.13.014,2.423-.787a1.273,1.273,0,0,1-.987,1.506l-.026.005a3.219,3.219,0,0,1,.681,2.02c.009,1.523-.913,2.762-2.057,2.769s-2.082-1.222-2.091-2.745S937.746,119.974,938.889,119.967Z" fill="#56362e"/>
          </g>
          <g id="Grupo_59951" data-name="Grupo 59951">
            <path id="Trazado_116798" data-name="Trazado 116798" d="M964.672,104.453s10.592,4.231-1.883,5.372c0,0,5.1,5.976-12.467,6.149s-20.1-5.279-20.1-5.279-21.92-.4-8.9-6.283S964.672,104.453,964.672,104.453Z" fill="#ffe30a"/>
            <path id="Trazado_116799" data-name="Trazado 116799" d="M964.27,107.255a137.659,137.659,0,0,1-42.413-.039s-5.754-25.28,20.876-26.33C969.454,79.83,964.27,107.255,964.27,107.255Z" fill="#ffd138"/>
            <path id="Trazado_116800" data-name="Trazado 116800" d="M924.767,89.154c3.7,16.043,27.344,18.318,36.177,18.6a141.3,141.3,0,0,1-39.087-.543S919.5,96.882,924.767,89.154Z" fill="#e8b934"/>
            <path id="Trazado_116801" data-name="Trazado 116801" d="M942.741,109.883l-2.419-1.055s1.691-21.84-4.44-27l.456-1.738S949.328,82.13,942.741,109.883Z" fill="#e8b934"/>
            <path id="Trazado_116802" data-name="Trazado 116802" d="M942.742,109.882s2.053-25.831-6.4-29.8c0,0,4.414-1.672,12.426-.524,0,0,8.565,6.111,5.323,29.76A51.153,51.153,0,0,1,942.742,109.882Z" fill="#ffe30a"/>
          </g>
          <g id="Grupo_59961" data-name="Grupo 59961">
            <g id="Grupo_59954" data-name="Grupo 59954">
              <g id="Grupo_59953" data-name="Grupo 59953">
                <path id="Trazado_116803" data-name="Trazado 116803" d="M918.766,385.488H898.752s-1.19-5.772,3.039-13.284l13.655.22A24.31,24.31,0,0,1,918.766,385.488Z" fill="#a14a1d"/>
                <rect id="Rectángulo_6267" data-name="Rectángulo 6267" width="20.143" height="3.486" transform="translate(899.039 385.487)" fill="#c69c6d"/>
              </g>
              <path id="Trazado_116805" data-name="Trazado 116805" d="M912.984,375.877c0-.414-.627-.848-1.019-.848h-5.912c-.393,0-.429.433-.429.848v.048c0,.415.036.654.429.654h5.912c.392,0,1.019-.239,1.019-.654Z" fill="#cea97c"/>
              <path id="Trazado_116806" data-name="Trazado 116806" d="M912.984,373.166c0-.415-.627-.849-1.019-.849h-5.912c-.393,0-.429.434-.429.849v.047c0,.415.036.654.429.654h5.912c.392,0,1.019-.239,1.019-.654Z" fill="#cea97c"/>
            </g>
            <g id="Grupo_59960" data-name="Grupo 59960">
              <g id="Grupo_59955" data-name="Grupo 59955">
                <path id="Trazado_116807" data-name="Trazado 116807" d="M957.015,370.916s-1.453,8.374-.268,14.572h38.045s1.3-8.8-15.289-8.782l-10.645-7.6Z" fill="#a14a1d"/>
                <path id="Trazado_116808" data-name="Trazado 116808" d="M957,389.009l38.106-.177v-3.345H956.748Z" fill="#c69c6d"/>
                <path id="Trazado_116810" data-name="Trazado 116810" d="M968.956,385.488s-.37-10.205-12.512-10.267c0,0-.645,6.781.3,10.267Z" fill="#913f1a"/>
              </g>
              <g id="Grupo_59959" data-name="Grupo 59959">
                <g id="Grupo_59956" data-name="Grupo 59956">
                  <path id="Trazado_116811" data-name="Trazado 116811" d="M975.444,379.2a.681.681,0,0,0,.482-.2l3.289-3.211a.781.781,0,0,0,.04-1.062.685.685,0,0,0-.966-.073l-.034.031-3.289,3.211a.782.782,0,0,0-.04,1.062A.691.691,0,0,0,975.444,379.2Z" fill="#cea97c"/>
                </g>
                <g id="Grupo_59957" data-name="Grupo 59957">
                  <path id="Trazado_116812" data-name="Trazado 116812" d="M972.245,376.945a.681.681,0,0,0,.482-.2l3.289-3.211a.781.781,0,0,0,.04-1.061.686.686,0,0,0-.967-.072l-.033.03-3.29,3.211a.783.783,0,0,0-.04,1.062A.7.7,0,0,0,972.245,376.945Z" fill="#cea97c"/>
                </g>
                <g id="Grupo_59958" data-name="Grupo 59958">
                  <path id="Trazado_116813" data-name="Trazado 116813" d="M969.405,374.692a.685.685,0,0,0,.483-.2l3.289-3.211a.781.781,0,0,0,.04-1.061.686.686,0,0,0-.966-.074l-.034.031-3.289,3.211a.782.782,0,0,0-.04,1.062A.689.689,0,0,0,969.405,374.692Z" fill="#cea97c"/>
                </g>
              </g>
            </g>
            <path id="Trazado_116814" data-name="Trazado 116814" d="M975.668,371.407s-8.489,7.634-19.153,2.012c0,0-6.092-96.057-7.267-118.46,0,0-8.371,48.953-9.666,54.952-4.154,19.229-13.849,39.257-20.694,63.087l-18.415-2.213c7.169-30.007,16.558-50.607,17.71-67.1,3.524-50.458-9.555-55.708,11.957-90.57h37.265C981.646,249.135,975.441,319.827,975.668,371.407Z" fill="#fad369"/>
            <path id="Trazado_116815" data-name="Trazado 116815" d="M949.248,254.978s9.038-4.432,11.722-8.186-6.541,22.217-10.7,26.3Z" fill="#e5ba46"/>
            <path id="Trazado_116816" data-name="Trazado 116816" d="M955.245,366.179l.735,8.647s8.59,3.307,20.713-2.158l.036-8.752A68.668,68.668,0,0,1,955.245,366.179Z" fill="#e5ba46"/>
            <path id="Trazado_116817" data-name="Trazado 116817" d="M899.851,364.076l-1.155,8.6s7.648,5.293,20.632,2.9l1.929-8.512A68.667,68.667,0,0,1,899.851,364.076Z" fill="#e5ba46"/>
          </g>
          <g id="Grupo_59965" data-name="Grupo 59965">
            <g id="Grupo_59964" data-name="Grupo 59964">
              <path id="Trazado_116818" data-name="Trazado 116818" d="M991.443,179.608a1.741,1.741,0,0,1-1.932-1.529h0a1.743,1.743,0,0,1,1.529-1.932h0l3.848-.447a1.744,1.744,0,0,1,1.933,1.53h0a1.743,1.743,0,0,1-1.531,1.933Z" fill="#295950"/>
              <rect id="Rectángulo_6268" data-name="Rectángulo 6268" width="4.259" height="3.485" transform="matrix(0.993, -0.115, 0.115, 0.993, 1009.267, 163.5)" fill="#332c26"/>
              <g id="Grupo_59963" data-name="Grupo 59963">
                <path id="Trazado_116819" data-name="Trazado 116819" d="M1029.783,163.459l-12.552,1.457-.178-1.54,12.552-1.456,1.408.7Z" fill="#c1c1c1"/>
                <g id="Grupo_59962" data-name="Grupo 59962">
                  <path id="Trazado_116820" data-name="Trazado 116820" d="M1028.274,164.236l-.44-.4,1.594-2.352.44.406Z" fill="#9b9b9b"/>
                  <path id="Trazado_116821" data-name="Trazado 116821" d="M1026.355,164.459l-.44-.406,1.594-2.352.44.4Z" fill="#9b9b9b"/>
                  <path id="Trazado_116822" data-name="Trazado 116822" d="M1024.438,164.682l-.44-.4,1.594-2.352.44.4Z" fill="#9b9b9b"/>
                  <path id="Trazado_116823" data-name="Trazado 116823" d="M1022.517,164.9l-.44-.406,1.593-2.352.441.406Z" fill="#9b9b9b"/>
                  <path id="Trazado_116824" data-name="Trazado 116824" d="M1020.6,165.127l-.44-.4,1.594-2.352.44.4Z" fill="#9b9b9b"/>
                </g>
              </g>
              <path id="Trazado_116825" data-name="Trazado 116825" d="M991.51,191.779a2.357,2.357,0,0,1-2.05,2.1l-7.479.868a1.491,1.491,0,0,1-1.745-1.184,1.465,1.465,0,0,1-.014-.472l1.184-15.8a2.47,2.47,0,0,1,2.037-2.214l7.479-.868a1.584,1.584,0,0,1,1.773,1.365,1.625,1.625,0,0,1,0,.406Z" fill="#377f73"/>
              <path id="Trazado_116826" data-name="Trazado 116826" d="M986.57,172.9c.2,1.744-1.963,3.429-4.635,3.738h0c-2.672.31-5.166-.834-5.369-2.577l-1.154-9.944c-.2-1.744,1.964-3.428,4.635-3.738h0c2.672-.31,5.166.833,5.369,2.577Z" fill="#295950"/>
              <path id="Trazado_116827" data-name="Trazado 116827" d="M1000.86,158.263s7.3-.961,9.96,1.816l1.123,9.675s-1.93,3.536-9.249,4.318Z" fill="#295950"/>
              <path id="Trazado_116828" data-name="Trazado 116828" d="M1014.535,168.738a1.916,1.916,0,0,1-2.125-1.683l-.5-4.271a1.919,1.919,0,0,1,1.684-2.126l4.271-.5a1.919,1.919,0,0,1,2.126,1.684l.5,4.271a1.917,1.917,0,0,1-1.684,2.126Z" fill="#9b9b9b"/>
              <rect id="Rectángulo_6269" data-name="Rectángulo 6269" width="0.775" height="7.748" transform="translate(1013.617 160.656) rotate(-6.616)" fill="#332c26"/>
              <rect id="Rectángulo_6270" data-name="Rectángulo 6270" width="1.162" height="7.747" transform="translate(1017.08 160.254) rotate(-6.616)" fill="#332c26"/>
              <path id="Trazado_116829" data-name="Trazado 116829" d="M983.653,178.172a1.916,1.916,0,0,1-2.126-1.682h0l-1.835-15.815a1.915,1.915,0,0,1,1.681-2.124h0l17.354-2.015a1.918,1.918,0,0,1,2.126,1.683h0l1.836,15.815a1.917,1.917,0,0,1-1.684,2.125h0Z" fill="#377f73"/>
              <path id="Trazado_116830" data-name="Trazado 116830" d="M993.669,175.45a.945.945,0,0,1-1.05-.831v-.043a.948.948,0,0,1,.832-1.05l1.581-.183a.947.947,0,0,1,1.05.83h0v.043a.947.947,0,0,1-.831,1.05Z" fill="#295950"/>
              <path id="Trazado_116831" data-name="Trazado 116831" d="M998.791,170.682c.049.419-.288.7-.724.748l-13.644,1.583c-.436.051-.59-.169-.638-.589l-.475-4.089c-.049-.42.007-1.043.443-1.094l13.644-1.583c.436-.051.871.516.919.936Z" fill="#295950"/>
              <path id="Trazado_116832" data-name="Trazado 116832" d="M981.592,160.473a.362.362,0,0,1-.4-.318l-.006-.052a.363.363,0,0,1,.317-.4l7.362-.855a.362.362,0,0,1,.4.318h0l.006.051a.362.362,0,0,1-.317.4Z" fill="#594d41"/>
              <path id="Trazado_116833" data-name="Trazado 116833" d="M981.771,162.013a.362.362,0,0,1-.4-.318l-.006-.051a.363.363,0,0,1,.317-.4l7.362-.855a.364.364,0,0,1,.4.318l.006.051a.362.362,0,0,1-.317.4Z" fill="#594d41"/>
              <path id="Trazado_116834" data-name="Trazado 116834" d="M981.95,163.551a.361.361,0,0,1-.4-.317l-.006-.052a.361.361,0,0,1,.317-.4l7.362-.854a.362.362,0,0,1,.4.317l.007.052a.363.363,0,0,1-.318.4Z" fill="#594d41"/>
              <path id="Trazado_116835" data-name="Trazado 116835" d="M982.129,165.09a.362.362,0,0,1-.4-.318l-.006-.052a.36.36,0,0,1,.315-.4h0l7.363-.855a.362.362,0,0,1,.4.318l.006.051a.362.362,0,0,1-.318.4Z" fill="#594d41"/>
              <path id="Trazado_116836" data-name="Trazado 116836" d="M982.307,166.63a.362.362,0,0,1-.4-.318l-.006-.051a.361.361,0,0,1,.317-.4l7.362-.855a.362.362,0,0,1,.4.318l.006.051a.363.363,0,0,1-.318.4Z" fill="#594d41"/>
              <path id="Trazado_116837" data-name="Trazado 116837" d="M992.77,159.565a.723.723,0,0,1-.8-.635l-.012-.1a.724.724,0,0,1,.634-.8l6.26-.726a.723.723,0,0,1,.8.634l.011.1a.723.723,0,0,1-.635.8Z" fill="#fff"/>
              <path id="Trazado_116838" data-name="Trazado 116838" d="M1003.831,159.1a.518.518,0,1,1-.575-.455A.518.518,0,0,1,1003.831,159.1Z" fill="#fff"/>
              <path id="Trazado_116839" data-name="Trazado 116839" d="M1005.366,159.191a.654.654,0,1,1-.726-.574A.656.656,0,0,1,1005.366,159.191Z" fill="#fff"/>
              <path id="Trazado_116840" data-name="Trazado 116840" d="M1013.947,162.177a.542.542,0,0,1-.6-.475l-.009-.079a.541.541,0,0,1,.474-.6h0l3.928-.456a.541.541,0,0,1,.6.473h0l.009.08a.54.54,0,0,1-.473.6h0Z" fill="#fff"/>
            </g>
          </g>
          <path id="Trazado_116842" data-name="Trazado 116842" d="M975.748,189.711s-2.537-6.175,7.534-10.8c0,0,3.092-1.859,4.518.067,0,0,5.719-3.356,6.278.114,0,0,1.958,10.144-2.991,12.391S978.552,196.391,975.748,189.711Z" fill="#fcba7e"/>
          <g id="Grupo_59966" data-name="Grupo 59966">
            <path id="Trazado_116843" data-name="Trazado 116843" d="M926.753,160.667c.026.086,2.637,8.763,6.054,18.034,4.167,11.307,6.92,16.412,8.359,18.621,7.631-2.923,25.929-10.589,33.822-13.939l5.129,12.551c-6.358,2.7-31.514,13.3-37.617,15.331a8.7,8.7,0,0,1-6.8-.614c-3.49-1.813-7.743-6.221-15.15-26.025-3.793-10.141-6.658-19.662-6.778-20.062a6.78,6.78,0,0,1,12.986-3.9Z" fill="#e5e5e5"/>
          </g>
          <g id="Grupo_59936-2" data-name="Grupo 59936">
            <path id="Trazado_116741-2-2" data-name="Trazado 116741" d="M945.1,218.492c-8.325.367-17.372-8.346-17.372-8.346" fill="none" stroke="#9d988c" stroke-width="0.594"/>
            <path id="Trazado_116740-2-2" data-name="Trazado 116740" d="M941.63,220.8c-6.6.414-13.9-6.315-13.9-6.315" fill="none" stroke="#9d988c" stroke-miterlimit="4.001" stroke-width="0.594"/>
            <path id="Trazado_116739-2-2" data-name="Trazado 116739" d="M937,222.824c-4.171.124-8.612-4.354-8.612-4.354" fill="none" stroke="#9d988c" stroke-miterlimit="4.001" stroke-width="0.594"/>
          </g>
          <g id="Grupo_59936-3" data-name="Grupo 59936">
            <path id="Trazado_116741-3-2" data-name="Trazado 116741" d="M997.268,190.939c-1.4,8.213-11.831,15.213-11.831,15.213" fill="none" stroke="#9d988c" stroke-width="0.594"/>
            <path id="Trazado_116740-3-2" data-name="Trazado 116740" d="M998.786,194.819c-.992,6.541-9.111,12.244-9.111,12.244" fill="none" stroke="#9d988c" stroke-miterlimit="4.001" stroke-width="0.594"/>
            <path id="Trazado_116739-3-2" data-name="Trazado 116739" d="M999.789,199.773c-.762,4.1-6.078,7.5-6.078,7.5" fill="none" stroke="#9d988c" stroke-miterlimit="4.001" stroke-width="0.594"/>
          </g>
        </g>
      </g>
    </g>
  </g>
</svg>
