<svg xmlns="http://www.w3.org/2000/svg" width="353.403" height="338.653" viewBox="0 0 353.403 338.653">
  <g id="Grupo_63332" data-name="Grupo 63332" transform="translate(-348.906 -558.887)">
    <g id="Clouds" transform="translate(377.191 578.114)">
      <path id="Cloud" d="M755.456,592.919l5.727,3.307a6.9,6.9,0,0,1-.048-.759v-1.659c0-2.953,2.073-4.15,4.63-2.673a8.956,8.956,0,0,1,2.759,2.654c.419-3.713,3.332-5.1,6.869-3.054a15.312,15.312,0,0,1,6.927,12v2.483a6.533,6.533,0,0,1-.587,2.876l4.757,2.746a5.676,5.676,0,0,1,2.568,4.448c0,1.638-1.149,2.3-2.568,1.483L755.456,598.85a5.677,5.677,0,0,1-2.569-4.448C752.887,592.764,754.037,592.1,755.456,592.919Z" transform="translate(-478.089 -585.833)" fill="#fff"/>
      <path id="Cloud-2" data-name="Cloud" d="M411.967,586.876l-4.322,2.5a5.12,5.12,0,0,0,.037-.572v-1.252c0-2.229-1.564-3.132-3.495-2.017a6.764,6.764,0,0,0-2.083,2c-.316-2.8-2.514-3.846-5.184-2.3a11.554,11.554,0,0,0-5.227,9.054v1.873a4.934,4.934,0,0,0,.442,2.17l-3.59,2.072a4.285,4.285,0,0,0-1.939,3.357c0,1.236.868,1.738,1.939,1.119l23.422-13.523A4.283,4.283,0,0,0,413.906,588C413.906,586.759,413.038,586.258,411.967,586.876Z" transform="translate(-386.607 -584.515)" fill="#fff"/>
    </g>
    <g id="Floor" transform="translate(357.044 693.542)">
      <path id="Trazado_122297" data-name="Trazado 122297" d="M529.493,934.238l-169.74-98L529.492,738.37l169.74,97.869Z" transform="translate(-359.754 -738.37)" fill="#8e7749"/>
      <path id="Trazado_122298" data-name="Trazado 122298" d="M529.493,934.238l-169.74-98L529.492,738.37l169.74,97.869Z" transform="translate(-359.754 -738.37)" fill="#fff" opacity="0.3"/>
      <path id="Trazado_122299" data-name="Trazado 122299" d="M359.754,868.819v8.13l169.74,98v-8.13Z" transform="translate(-359.754 -770.951)" fill="#8e7749"/>
      <path id="Trazado_122300" data-name="Trazado 122300" d="M359.754,868.819v8.13l169.74,98v-8.13Z" transform="translate(-359.754 -770.951)" opacity="0.15"/>
      <path id="Trazado_122301" data-name="Trazado 122301" d="M586,974.949l169.739-98v-8.13L586,966.819Z" transform="translate(-416.261 -770.951)" fill="#8e7749"/>
    </g>
    <g id="Tree" transform="translate(348.906 669.172)">
      <path id="Bush" d="M373.128,865.329c4.907.783,9.305-.573,10.057-5.885a47.142,47.142,0,0,0,.005-13.163c-.222-1.577-.783-3.44-2.322-3.849a2.937,2.937,0,0,0-3.162,1.777,8.573,8.573,0,0,0-.537,3.862c-.777-1.721-1.932-3.708-3.82-3.75-1.746-.039-3.064,1.794-3.123,3.538a10.149,10.149,0,0,0,1.6,4.923c-1.32-.18-2.819-.276-3.825.6-1.2,1.045-1.07,3.059-.142,4.356a9.779,9.779,0,0,0,3.85,2.753,1.739,1.739,0,0,0-2.337,1.143,2.638,2.638,0,0,0,1,2.64A5.749,5.749,0,0,0,373.128,865.329Z" transform="translate(-353.456 -739.973)" fill="#263238"/>
      <g id="Tree-2" data-name="Tree">
        <path id="Trazado_122302" data-name="Trazado 122302" d="M385,777.561a4.989,4.989,0,0,0-2.709.489,27.718,27.718,0,0,0-4.419,3.128,8.926,8.926,0,0,1-4.9,2.117c-1.807.06-3.759-1.065-4.085-2.843a2.592,2.592,0,0,0-.232-.906,1.321,1.321,0,0,0-1.543-.4,8.249,8.249,0,0,0-1.488.859c-1.829,1.08-4.12.834-6.222.529-1.748-.254-3.953-1.026-3.946-2.793,0-1.152,1.01-2,1.8-2.839s1.437-2.179.712-3.073a2.1,2.1,0,0,0-1.011-.62c-2.186-.712-4.86.236-6.706-1.132a3.855,3.855,0,0,1-.969-4.624,5.868,5.868,0,0,1,3.937-3c1.467-.374,3.333-.547,3.879-1.959.479-1.238-.483-2.576-1.57-3.337s-2.4-1.293-3.152-2.384a3.777,3.777,0,0,1-.106-3.912,4.778,4.778,0,0,1,3.293-2.26,7.27,7.27,0,0,0,2-.438,1.333,1.333,0,0,0,.74-1.684c-.2-.36-.616-.547-.855-.882a1.593,1.593,0,0,1,.589-2.079,8.085,8.085,0,0,1,2.233-.855c1.585-.53,3.122-2.065,2.652-3.668-.489-1.669-2.765-2.21-3.441-3.812-.6-1.419.351-3.071,1.622-3.94a29.337,29.337,0,0,1,4.209-1.876c1.392-.658,2.738-1.819,2.851-3.354.116-1.573-1.065-2.9-2.026-4.146s-1.779-3-.939-4.332c.808-1.285,2.6-1.358,4.047-1.816a6.57,6.57,0,0,0,3.982-3.593c.385-.888.57-1.858,1.031-2.708,1.431-2.648,5.035-3.807,7.824-3.48a3.159,3.159,0,0,1,2.657,1.805,4.189,4.189,0,0,1,.975,1.831c.21,1.279-.464,2.9.741,3.88,1.831,1.482,4.638-.512,4.539,2.8a14.165,14.165,0,0,1-.617,4.131c-.5,1.392-1.5,2-.668,3.555,1.077,2.022,1.78,2.011,3.937,2.007,1.561,0,2.865-.087,4.011,1.1,2.014,2.081.816,3.967-.972,5.572-2.033,1.825-.954,2.623-.69,4.988.128,1.137-.131,1.488.886,2.243,1.924,1.428,3,.946,2.458,3.744-.494,2.554.267,1.678,2.48,2.63,1.963.844,3.259,2.957,4.849,4.276,1.02.847,2.58,1.5,2.676,2.99.182,2.847-3.357,2.224-5.041,2.9-2.751,1.111-1.932,4.718.216,6.069,2.273,1.43,5.589,1.958,5.772,5.219.14,2.5-1.281,3.055-3.222,3.892-1.548.669-1.352.863-1.35,2.712.005,3.731-1.254,4.786-4.93,4.178-1.008-.166-2.543-.593-3.547-.291-1.407.424-.932.77-.972,1.945-.1,3.011-3.606,2.163-5.09.873C389.467,779.512,387.317,777.788,385,777.561Z" transform="translate(-348.906 -705.886)" fill="#8e7749"/>
        <path id="Trazado_122303" data-name="Trazado 122303" d="M373.884,784.4a8.926,8.926,0,0,0,4.9-2.117,27.718,27.718,0,0,1,4.419-3.128,4.989,4.989,0,0,1,2.709-.489c2.32.227,4.47,1.951,6.18,3.436,1.485,1.29,4.991,2.137,5.09-.873.04-1.176-.436-1.522.972-1.945,1-.3,2.54.125,3.547.291,3.676.608,4.935-.447,4.93-4.178,0-1.849-.2-2.044,1.35-2.712,1.941-.837,3.362-1.39,3.222-3.892-.182-3.261-3.5-3.789-5.772-5.219-2.148-1.35-2.967-4.958-.216-6.069,1.684-.68,5.223-.057,5.041-2.9-.1-1.488-1.656-2.143-2.676-2.99-1.59-1.319-2.886-3.432-4.849-4.276-2.213-.953-2.974-.076-2.48-2.63.541-2.8-.534-2.317-2.458-3.744-1.017-.755-.759-1.107-.886-2.243-.263-2.366-1.343-3.164.69-4.988,1.788-1.606,2.985-3.491.972-5.572-1.146-1.185-2.45-1.1-4.011-1.1-2.157,0-2.861.015-3.937-2.007-.831-1.56.169-2.164.668-3.555a14.165,14.165,0,0,0,.617-4.131c.1-3.315-2.708-1.32-4.539-2.8-1.2-.975-.531-2.6-.741-3.88a2.641,2.641,0,0,0-.091-.375,9.4,9.4,0,0,0-1.041,3.124,4.09,4.09,0,0,0,1.676,3.994,7.038,7.038,0,0,1,1.241.716,2.522,2.522,0,0,1,.269,2.848c-.416.932-1.1,1.727-1.473,2.678a4.515,4.515,0,0,0,1.776,5.3c1.744,1.08,4.536,1.31,4.837,3.339.428,2.893-5.178,4.063-4.543,6.919.272,1.223,1.6,1.837,2.514,2.691a5.942,5.942,0,0,1,1.533,5.5,10.132,10.132,0,0,1-3,5.052c-1.042,1.017-2.343,2.414-1.648,3.693s2.679,1.014,3.726,2.005c.893.845.8,2.3.389,3.459a12.185,12.185,0,0,0-1.119,3.492,7.42,7.42,0,0,0,1.58,4.051,6.664,6.664,0,0,1,1.437,4.086c-.377,3.611-4.578,2.552-6.456,1.193a6.377,6.377,0,0,0-8.472,1.233c-.722.939-1.16,2.071-1.876,3.014a3.2,3.2,0,0,1-3.029,1.455,2.682,2.682,0,0,1-1.87-2.233c-.246-1.083.044-2.417-1.23-2.916a4.89,4.89,0,0,0-3.9.61,9.885,9.885,0,0,1-1.731.843,9.12,9.12,0,0,1-2.124.318,3.5,3.5,0,0,1-1.288-.154,1.592,1.592,0,0,1-.953-.837,5.658,5.658,0,0,1-.126-1.6c-.14-1.33-1.165-1.6-2.2-2.07a8.366,8.366,0,0,0-3.888-.76,19.908,19.908,0,0,0-2.971.469,14.628,14.628,0,0,0,2.978.2l.2,0c.083,0,.166.006.249.01.157.007.312.016.467.03.039,0,.078,0,.117.009.191.018.378.046.565.079.049.008.1.018.146.028a5.218,5.218,0,0,1,.574.146,2.924,2.924,0,0,1,.554.24,1.52,1.52,0,0,1,.67,1.939,4.061,4.061,0,0,1-.925,1.515c-.792.837-1.8,1.687-1.8,2.839a1.959,1.959,0,0,0,.56,1.38,2.744,2.744,0,0,0,.224.213,3.949,3.949,0,0,0,.828.53,8.193,8.193,0,0,0,2.333.671,18.388,18.388,0,0,0,3.213.254c.266-.008.53-.029.79-.061a5.729,5.729,0,0,0,2.218-.722c.247-.146.483-.315.725-.47a3.482,3.482,0,0,1,.763-.389,1.713,1.713,0,0,1,.429-.084,1.379,1.379,0,0,1,.824.187.916.916,0,0,1,.29.295,1.036,1.036,0,0,1,.1.212,2.653,2.653,0,0,1,.1.46c.012.079.023.157.037.234C370.125,783.333,372.076,784.458,373.884,784.4Z" transform="translate(-349.821 -706.99)" opacity="0.15"/>
        <path id="Trazado_122304" data-name="Trazado 122304" d="M396.81,751.073l-10.034,19.893v-9.155l-1.02-38.992-1.484,38.992v6.158l-11.028-19.28,11.028,23.666v61.32a.622.622,0,0,0,.367.511,1.954,1.954,0,0,0,1.771,0,.622.622,0,0,0,.367-.511V776.041Z" transform="translate(-354.985 -710.115)" fill="#37474f"/>
      </g>
      <g id="Bush-2" data-name="Bush" transform="translate(20.897 107.692)">
        <path id="Bush-3" data-name="Bush" d="M384.051,869.187s9.538-5.5,11.732-6.773a9.34,9.34,0,0,0,2.548-2.4,6.686,6.686,0,0,0,1.43-3.038,1.58,1.58,0,0,0-.122-1.156c-.423-.621-1.426-.405-1.985.1s-1.006.945-1.6,1.578a17.635,17.635,0,0,0,.226-4.073,1.818,1.818,0,0,0-.492-1.353,1.52,1.52,0,0,0-1.64.035c-1.537.831-2.192,2.657-2.72,4.323a14,14,0,0,0-.156-5.179c-.407-1.85-2.528-2.573-3.25-.807a10.372,10.372,0,0,0-.621,2.951,12.134,12.134,0,0,0,.263,3.9,12.249,12.249,0,0,0-3.127-4.332,1.893,1.893,0,0,0-1.8-.631c-.74.286-.868,1.274-.789,2.064a11.1,11.1,0,0,0,1.6,4.72,9.879,9.879,0,0,0-3.966-1.541,1.184,1.184,0,0,0-1.245.4,1.6,1.6,0,0,0,.271,1.629,9.865,9.865,0,0,0,3.156,2.93,10.263,10.263,0,0,0-3.841-.4,1.326,1.326,0,0,0-1.028.432c-.335.489.056,1.145.482,1.557a11.554,11.554,0,0,0,2.744,1.636,3.958,3.958,0,0,0-1.693.285,1.352,1.352,0,0,0-.806,1.391,1.716,1.716,0,0,0,1.241,1.091C381.139,869.3,381.775,869.56,384.051,869.187Z" transform="translate(-376.76 -849.43)" fill="#8e7749"/>
        <path id="Bush-4" data-name="Bush" d="M384.051,869.187s9.538-5.5,11.732-6.773a9.34,9.34,0,0,0,2.548-2.4,6.686,6.686,0,0,0,1.43-3.038,1.58,1.58,0,0,0-.122-1.156c-.423-.621-1.426-.405-1.985.1s-1.006.945-1.6,1.578a17.635,17.635,0,0,0,.226-4.073,1.818,1.818,0,0,0-.492-1.353,1.52,1.52,0,0,0-1.64.035c-1.537.831-2.192,2.657-2.72,4.323a14,14,0,0,0-.156-5.179c-.407-1.85-2.528-2.573-3.25-.807a10.372,10.372,0,0,0-.621,2.951,12.134,12.134,0,0,0,.263,3.9,12.249,12.249,0,0,0-3.127-4.332,1.893,1.893,0,0,0-1.8-.631c-.74.286-.868,1.274-.789,2.064a11.1,11.1,0,0,0,1.6,4.72,9.879,9.879,0,0,0-3.966-1.541,1.184,1.184,0,0,0-1.245.4,1.6,1.6,0,0,0,.271,1.629,9.865,9.865,0,0,0,3.156,2.93,10.263,10.263,0,0,0-3.841-.4,1.326,1.326,0,0,0-1.028.432c-.335.489.056,1.145.482,1.557a11.554,11.554,0,0,0,2.744,1.636,3.958,3.958,0,0,0-1.693.285,1.352,1.352,0,0,0-.806,1.391,1.716,1.716,0,0,0,1.241,1.091C381.139,869.3,381.775,869.56,384.051,869.187Z" transform="translate(-376.76 -849.43)" opacity="0.25"/>
      </g>
    </g>
    <g id="Tree-3" data-name="Tree" transform="translate(645.847 676.862)">
      <path id="Bush-5" data-name="Bush" d="M792.624,862.779c-4.513.719-8.558-.527-9.249-5.412a43.364,43.364,0,0,1-.005-12.106c.2-1.45.72-3.164,2.135-3.54a2.7,2.7,0,0,1,2.909,1.634,7.88,7.88,0,0,1,.494,3.552c.714-1.584,1.777-3.411,3.513-3.45,1.605-.036,2.818,1.65,2.872,3.255a9.341,9.341,0,0,1-1.467,4.528c1.214-.167,2.592-.254,3.518.548a3.086,3.086,0,0,1,.131,4.006,9,9,0,0,1-3.541,2.533,1.6,1.6,0,0,1,2.149,1.051,2.426,2.426,0,0,1-.921,2.428A5.284,5.284,0,0,1,792.624,862.779Z" transform="translate(-754.254 -747.487)" fill="#263238"/>
      <g id="Tree-4" data-name="Tree">
        <path id="Trazado_122305" data-name="Trazado 122305" d="M767.97,782.058a4.59,4.59,0,0,1,2.492.449,25.516,25.516,0,0,1,4.064,2.877,8.207,8.207,0,0,0,4.507,1.946,3.629,3.629,0,0,0,3.757-2.615,2.388,2.388,0,0,1,.213-.833,1.214,1.214,0,0,1,1.419-.366,7.588,7.588,0,0,1,1.368.79c1.683.993,3.789.767,5.722.486,1.608-.233,3.636-.944,3.63-2.568,0-1.059-.929-1.843-1.657-2.612s-1.323-2-.655-2.826a1.935,1.935,0,0,1,.93-.57c2.011-.655,4.47.218,6.169-1.041a3.548,3.548,0,0,0,.891-4.253,5.4,5.4,0,0,0-3.621-2.759c-1.35-.344-3.065-.5-3.567-1.8-.44-1.139.444-2.369,1.443-3.069s2.2-1.19,2.9-2.193a3.472,3.472,0,0,0,.1-3.6,4.392,4.392,0,0,0-3.029-2.078,6.694,6.694,0,0,1-1.837-.4,1.226,1.226,0,0,1-.681-1.548c.182-.332.566-.5.786-.811a1.466,1.466,0,0,0-.542-1.913,7.44,7.44,0,0,0-2.053-.786c-1.457-.487-2.871-1.9-2.439-3.374.45-1.535,2.543-2.032,3.165-3.506.551-1.3-.323-2.825-1.492-3.624a27.133,27.133,0,0,0-3.87-1.726,4.115,4.115,0,0,1-2.622-3.084c-.107-1.446.979-2.663,1.863-3.813s1.635-2.756.864-3.984c-.743-1.182-2.391-1.249-3.721-1.671a6.038,6.038,0,0,1-3.662-3.3c-.354-.815-.525-1.708-.948-2.491-1.317-2.435-4.63-3.5-7.2-3.2a2.906,2.906,0,0,0-2.444,1.659,3.865,3.865,0,0,0-.9,1.684c-.194,1.176.426,2.672-.682,3.569-1.684,1.363-4.266-.472-4.174,2.578a13.006,13.006,0,0,0,.568,3.8c.459,1.281,1.379,1.836.614,3.27-.99,1.86-1.637,1.849-3.621,1.846-1.436,0-2.635-.08-3.689,1.01-1.852,1.914-.75,3.648.894,5.125,1.87,1.678.877,2.412.634,4.588-.116,1.046.122,1.368-.815,2.063-1.769,1.313-2.758.87-2.26,3.444.454,2.349-.246,1.543-2.281,2.419-1.805.777-3,2.72-4.459,3.934-.939.778-2.373,1.381-2.461,2.75-.168,2.618,3.087,2.046,4.636,2.671,2.531,1.023,1.777,4.34-.2,5.582-2.091,1.315-5.141,1.8-5.309,4.8-.129,2.3,1.179,2.81,2.963,3.579,1.424.614,1.243.794,1.241,2.495,0,3.431,1.153,4.4,4.534,3.843a8.409,8.409,0,0,1,3.263-.268c1.293.389.857.708.893,1.789.092,2.769,3.317,1.99,4.682.8C763.859,783.851,765.836,782.266,767.97,782.058Z" transform="translate(-744.701 -716.137)" fill="#8e7749"/>
        <path id="Trazado_122306" data-name="Trazado 122306" d="M767.97,782.058a4.59,4.59,0,0,1,2.492.449,25.516,25.516,0,0,1,4.064,2.877,8.207,8.207,0,0,0,4.507,1.946,3.629,3.629,0,0,0,3.757-2.615,2.388,2.388,0,0,1,.213-.833,1.214,1.214,0,0,1,1.419-.366,7.588,7.588,0,0,1,1.368.79c1.683.993,3.789.767,5.722.486,1.608-.233,3.636-.944,3.63-2.568,0-1.059-.929-1.843-1.657-2.612s-1.323-2-.655-2.826a1.935,1.935,0,0,1,.93-.57c2.011-.655,4.47.218,6.169-1.041a3.548,3.548,0,0,0,.891-4.253,5.4,5.4,0,0,0-3.621-2.759c-1.35-.344-3.065-.5-3.567-1.8-.44-1.139.444-2.369,1.443-3.069s2.2-1.19,2.9-2.193a3.472,3.472,0,0,0,.1-3.6,4.392,4.392,0,0,0-3.029-2.078,6.694,6.694,0,0,1-1.837-.4,1.226,1.226,0,0,1-.681-1.548c.182-.332.566-.5.786-.811a1.466,1.466,0,0,0-.542-1.913,7.44,7.44,0,0,0-2.053-.786c-1.457-.487-2.871-1.9-2.439-3.374.45-1.535,2.543-2.032,3.165-3.506.551-1.3-.323-2.825-1.492-3.624a27.133,27.133,0,0,0-3.87-1.726,4.115,4.115,0,0,1-2.622-3.084c-.107-1.446.979-2.663,1.863-3.813s1.635-2.756.864-3.984c-.743-1.182-2.391-1.249-3.721-1.671a6.038,6.038,0,0,1-3.662-3.3c-.354-.815-.525-1.708-.948-2.491-1.317-2.435-4.63-3.5-7.2-3.2a2.906,2.906,0,0,0-2.444,1.659,3.865,3.865,0,0,0-.9,1.684c-.194,1.176.426,2.672-.682,3.569-1.684,1.363-4.266-.472-4.174,2.578a13.006,13.006,0,0,0,.568,3.8c.459,1.281,1.379,1.836.614,3.27-.99,1.86-1.637,1.849-3.621,1.846-1.436,0-2.635-.08-3.689,1.01-1.852,1.914-.75,3.648.894,5.125,1.87,1.678.877,2.412.634,4.588-.116,1.046.122,1.368-.815,2.063-1.769,1.313-2.758.87-2.26,3.444.454,2.349-.246,1.543-2.281,2.419-1.805.777-3,2.72-4.459,3.934-.939.778-2.373,1.381-2.461,2.75-.168,2.618,3.087,2.046,4.636,2.671,2.531,1.023,1.777,4.34-.2,5.582-2.091,1.315-5.141,1.8-5.309,4.8-.129,2.3,1.179,2.81,2.963,3.579,1.424.614,1.243.794,1.241,2.495,0,3.431,1.153,4.4,4.534,3.843a8.409,8.409,0,0,1,3.263-.268c1.293.389.857.708.893,1.789.092,2.769,3.317,1.99,4.682.8C763.859,783.851,765.836,782.266,767.97,782.058Z" transform="translate(-744.701 -716.137)" opacity="0.15"/>
        <path id="Trazado_122307" data-name="Trazado 122307" d="M779.033,788.345a8.207,8.207,0,0,1-4.507-1.946,25.516,25.516,0,0,0-4.064-2.877,4.59,4.59,0,0,0-2.492-.449c-2.134.209-4.111,1.794-5.684,3.16-1.365,1.187-4.589,1.966-4.682-.8-.036-1.081.4-1.4-.893-1.789a8.409,8.409,0,0,0-3.263.268c-3.381.559-4.539-.412-4.534-3.843,0-1.7.183-1.88-1.241-2.495-1.785-.77-3.093-1.278-2.963-3.579.168-3,3.218-3.486,5.309-4.8,1.975-1.242,2.729-4.559.2-5.582-1.549-.625-4.8-.052-4.636-2.671.088-1.368,1.522-1.972,2.461-2.75,1.462-1.214,2.654-3.157,4.459-3.934,2.035-.876,2.735-.07,2.281-2.419-.5-2.573.491-2.131,2.26-3.444.936-.695.7-1.017.815-2.063.243-2.176,1.236-2.91-.634-4.588-1.645-1.477-2.746-3.211-.894-5.125,1.054-1.089,2.253-1.012,3.689-1.01,1.984,0,2.632.014,3.621-1.846.765-1.435-.155-1.99-.614-3.27a13.006,13.006,0,0,1-.568-3.8c-.091-3.05,2.49-1.215,4.174-2.578,1.108-.9.488-2.392.682-3.569a2.476,2.476,0,0,1,.083-.345,8.655,8.655,0,0,1,.958,2.873,3.764,3.764,0,0,1-1.542,3.674,6.44,6.44,0,0,0-1.141.658,2.319,2.319,0,0,0-.247,2.62c.382.857,1.015,1.588,1.353,2.463a4.151,4.151,0,0,1-1.633,4.87c-1.6.993-4.172,1.2-4.448,3.071-.395,2.661,4.762,3.738,4.178,6.364-.251,1.125-1.471,1.69-2.313,2.475a5.465,5.465,0,0,0-1.41,5.057,9.314,9.314,0,0,0,2.763,4.647c.959.936,2.155,2.22,1.516,3.4s-2.465.932-3.427,1.844a3.021,3.021,0,0,0-.358,3.182,11.205,11.205,0,0,1,1.029,3.212,6.813,6.813,0,0,1-1.453,3.725,6.132,6.132,0,0,0-1.321,3.759c.347,3.321,4.21,2.347,5.937,1.1a5.864,5.864,0,0,1,7.791,1.134c.664.864,1.068,1.9,1.726,2.771a2.938,2.938,0,0,0,2.786,1.339,2.465,2.465,0,0,0,1.72-2.053c.227-1-.04-2.223,1.132-2.682a4.5,4.5,0,0,1,3.588.56,9.062,9.062,0,0,0,1.592.776,8.349,8.349,0,0,0,1.954.293,3.217,3.217,0,0,0,1.185-.141,1.463,1.463,0,0,0,.876-.769,5.18,5.18,0,0,0,.116-1.476c.129-1.224,1.072-1.468,2.023-1.9a7.685,7.685,0,0,1,3.575-.7,18.3,18.3,0,0,1,2.732.431,13.44,13.44,0,0,1-2.739.185l-.188,0-.23.009c-.143.006-.287.015-.429.027-.036,0-.072,0-.108.008-.175.017-.347.043-.519.073-.045.008-.09.016-.134.026a4.608,4.608,0,0,0-.527.134,2.621,2.621,0,0,0-.509.221,1.4,1.4,0,0,0-.616,1.783,3.724,3.724,0,0,0,.851,1.393c.728.769,1.654,1.552,1.657,2.612a1.8,1.8,0,0,1-.515,1.268,2.441,2.441,0,0,1-.206.2,3.638,3.638,0,0,1-.762.487,7.5,7.5,0,0,1-2.146.617,16.971,16.971,0,0,1-2.955.235c-.245-.008-.487-.026-.727-.057a5.261,5.261,0,0,1-2.04-.664c-.227-.134-.444-.29-.667-.433a3.2,3.2,0,0,0-.7-.357,1.582,1.582,0,0,0-.395-.077,1.264,1.264,0,0,0-.758.173.837.837,0,0,0-.267.271.943.943,0,0,0-.089.194,2.378,2.378,0,0,0-.089.423c-.01.072-.021.144-.035.215A3.629,3.629,0,0,1,779.033,788.345Z" transform="translate(-744.701 -717.152)" opacity="0.15"/>
        <path id="Trazado_122308" data-name="Trazado 122308" d="M768.687,757.7l9.229,18.3v-8.421l.939-35.861,1.365,35.861v5.664L790.361,755.5l-10.143,21.767v56.4a.573.573,0,0,1-.337.47,1.8,1.8,0,0,1-1.629,0,.574.574,0,0,1-.338-.47V780.66Z" transform="translate(-750.692 -720.027)" fill="#37474f"/>
      </g>
      <g id="Bush-6" data-name="Bush" transform="translate(16.042 99.046)">
        <path id="Bush-7" data-name="Bush" d="M780.579,866.328s-8.771-5.058-10.79-6.23a8.593,8.593,0,0,1-2.343-2.206,6.152,6.152,0,0,1-1.315-2.794,1.452,1.452,0,0,1,.113-1.063c.389-.572,1.311-.373,1.825.089s.925.87,1.469,1.452a16.228,16.228,0,0,1-.209-3.746,1.676,1.676,0,0,1,.453-1.245,1.4,1.4,0,0,1,1.508.031c1.414.765,2.017,2.444,2.5,3.976a12.9,12.9,0,0,1,.144-4.763c.374-1.7,2.324-2.367,2.989-.743a9.526,9.526,0,0,1,.571,2.715,11.134,11.134,0,0,1-.242,3.583,11.277,11.277,0,0,1,2.876-3.984,1.739,1.739,0,0,1,1.659-.58c.681.263.8,1.172.726,1.9a10.241,10.241,0,0,1-1.467,4.341,9.072,9.072,0,0,1,3.647-1.417,1.091,1.091,0,0,1,1.146.371,1.471,1.471,0,0,1-.25,1.5,9.066,9.066,0,0,1-2.9,2.695,9.455,9.455,0,0,1,3.533-.371,1.221,1.221,0,0,1,.945.4c.308.45-.052,1.053-.443,1.433a10.618,10.618,0,0,1-2.523,1.5,3.639,3.639,0,0,1,1.557.263,1.242,1.242,0,0,1,.742,1.278,1.577,1.577,0,0,1-1.141,1C783.257,866.432,782.672,866.67,780.579,866.328Z" transform="translate(-766.084 -848.156)" fill="#8e7749"/>
        <path id="Bush-8" data-name="Bush" d="M780.579,866.328s-8.771-5.058-10.79-6.23a8.593,8.593,0,0,1-2.343-2.206,6.152,6.152,0,0,1-1.315-2.794,1.452,1.452,0,0,1,.113-1.063c.389-.572,1.311-.373,1.825.089s.925.87,1.469,1.452a16.228,16.228,0,0,1-.209-3.746,1.676,1.676,0,0,1,.453-1.245,1.4,1.4,0,0,1,1.508.031c1.414.765,2.017,2.444,2.5,3.976a12.9,12.9,0,0,1,.144-4.763c.374-1.7,2.324-2.367,2.989-.743a9.526,9.526,0,0,1,.571,2.715,11.134,11.134,0,0,1-.242,3.583,11.277,11.277,0,0,1,2.876-3.984,1.739,1.739,0,0,1,1.659-.58c.681.263.8,1.172.726,1.9a10.241,10.241,0,0,1-1.467,4.341,9.072,9.072,0,0,1,3.647-1.417,1.091,1.091,0,0,1,1.146.371,1.471,1.471,0,0,1-.25,1.5,9.066,9.066,0,0,1-2.9,2.695,9.455,9.455,0,0,1,3.533-.371,1.221,1.221,0,0,1,.945.4c.308.45-.052,1.053-.443,1.433a10.618,10.618,0,0,1-2.523,1.5,3.639,3.639,0,0,1,1.557.263,1.242,1.242,0,0,1,.742,1.278,1.577,1.577,0,0,1-1.141,1C783.257,866.432,782.672,866.67,780.579,866.328Z" transform="translate(-766.084 -848.156)" opacity="0.25"/>
      </g>
    </g>
    <g id="House" transform="translate(381.497 570.603)">
      <g id="Walls" transform="translate(13.725 13.184)">
        <path id="Trazado_122309" data-name="Trazado 122309" d="M587.143,723.915V592.076l127.877,73.83V797.745Z" transform="translate(-454.724 -592.076)" fill="#8e7749"/>
        <path id="Trazado_122310" data-name="Trazado 122310" d="M587.143,723.915V592.076l127.877,73.83V797.745Z" transform="translate(-454.724 -592.076)" fill="#fff" opacity="0.7"/>
        <path id="Trazado_122311" data-name="Trazado 122311" d="M544.573,723.915V592.076L416.7,665.906V797.745Z" transform="translate(-412.153 -592.076)" fill="#8e7749"/>
        <path id="Trazado_122312" data-name="Trazado 122312" d="M544.573,723.915V592.076L416.7,665.906V797.745Z" transform="translate(-412.153 -592.076)" fill="#fff" opacity="0.7"/>
        <path id="Trazado_122313" data-name="Trazado 122313" d="M544.573,723.915V592.076L416.7,665.906V797.745Z" transform="translate(-412.153 -592.076)" opacity="0.1"/>
        <path id="Trazado_122314" data-name="Trazado 122314" d="M544.584,915.47l127.864-73.836L544.573,767.805,416.7,841.634Z" transform="translate(-412.153 -635.966)" fill="#8e7749"/>
        <path id="Trazado_122315" data-name="Trazado 122315" d="M544.584,915.47l127.864-73.836L544.573,767.805,416.7,841.634Z" transform="translate(-412.153 -635.966)" fill="#fff" opacity="0.7"/>
        <path id="Trazado_122316" data-name="Trazado 122316" d="M587.159,901.427v-5.268l127.864-73.836V690.484l4.567,2.637-.551,132.157Z" transform="translate(-454.728 -616.655)" fill="#455a64"/>
        <path id="Trazado_122317" data-name="Trazado 122317" d="M543.072,900.549v-5.268L415.207,821.445V689.607l-4.567-2.637.551,137.431Z" transform="translate(-410.64 -615.777)" fill="#37474f"/>
        <path id="Trazado_122318" data-name="Trazado 122318" d="M715.019,839.2V831.88L587.143,758.051v7.318Z" transform="translate(-454.723 -633.53)" fill="#fafafa"/>
        <path id="Trazado_122319" data-name="Trazado 122319" d="M416.7,839.2V831.88l127.878-73.829v7.318Z" transform="translate(-412.152 -633.53)" fill="#ebebeb"/>
      </g>
      <g id="Roof" transform="translate(0 0)">
        <g id="Grupo_63285" data-name="Grupo 63285">
          <path id="Trazado_122320" data-name="Trazado 122320" d="M460.851,574.5l-68.5,87.013,45.687,26.374,68.5-87.014Z" transform="translate(-392.346 -574.504)" fill="#455a64"/>
          <path id="Trazado_122321" data-name="Trazado 122321" d="M392.346,690.484v5.274l45.686,26.374v-5.273Z" transform="translate(-392.346 -603.471)" fill="#263238"/>
          <path id="Trazado_122322" data-name="Trazado 122322" d="M521.746,609.658v5.274l-68.5,87.013v-5.273Z" transform="translate(-407.556 -583.284)" fill="#37474f"/>
        </g>
        <g id="Grupo_63286" data-name="Grupo 63286" transform="translate(68.505)">
          <path id="Trazado_122323" data-name="Trazado 122323" d="M568.716,588.943,483.657,574.5l137.01,79.1,85.059,14.439Z" transform="translate(-483.657 -574.504)" fill="#37474f"/>
          <path id="Trazado_122324" data-name="Trazado 122324" d="M544.551,614.932l91.326,52.729,0-5.274-91.324-52.729Z" transform="translate(-498.866 -583.284)" fill="#263238"/>
          <path id="Trazado_122325" data-name="Trazado 122325" d="M666.28,685.215l85.057,14.439V694.38l-85.059-14.439Z" transform="translate(-529.268 -600.838)" fill="#455a64"/>
        </g>
      </g>
    </g>
    <path id="Shadow" d="M550.975,882.851a17.853,17.853,0,0,1,2.262,3.69c1.044,2.555.851,5.423,1.229,8.157a19.339,19.339,0,0,0,9.768,14.165c5.868,3.167,14.456,2.684,20.5.362a7.67,7.67,0,0,0,4.28-3.184,6.1,6.1,0,0,0-.207-5.377,21.316,21.316,0,0,0-3.3-4.48c-3.837-4.46-7.637-9.253-10.04-14.589-2.439-5.417-4.325-11.147-4.342-17.146a4.706,4.706,0,0,1,.572-2.669c.981-1.46,3.075-1.5,4.832-1.395l35.726,2.251c5.646.356,11.341.72,16.795,2.227,5.012,1.384,9.766,3.72,14.9,4.566a26.642,26.642,0,0,0,18.694-3.933c1.26-.822,2.574-2.011,2.47-3.511-.128-1.838-2.212-2.78-3.97-3.333-11.422-3.591-22.32-9.237-33.3-14.084-7.466-3.3-14.941-6.6-22.638-9.31-16.123-5.681-31.333-10.863-47.77-14.012-18.849-3.612-30.476-7.038-58.668,10.4-4.675,2.891-12.167,7.914-12.948,13.356-.63,4.393.5,10.268,19.336,15.924a170.686,170.686,0,0,0,17.461,4.412c5.934,1.119,10.993,2.446,16.313,5.314C544.23,873.5,547.436,878.009,550.975,882.851Z" transform="translate(-34.165 -64.796)" opacity="0.15"/>
    <g id="Character" transform="translate(404.317 621.102)">
      <g id="Top" transform="translate(0 0)">
        <path id="Trazado_122326" data-name="Trazado 122326" d="M578.385,719.807c8.875.972,11.04,1.942,19.234,11.287s19.3,20.528,19.3,20.528,13.178-5.838,17.261-7.94,6.147-3.243,7.175-5,1.05-7.774,1.924-12.316,1.63-10.623,2.151-13.38.87-5.282,3.3-4.867c1.909.326,1.487,3.25,1.322,5.331-.152,1.9-.466,4.634-.515,6.492-.03,1.158.029,1.7.343,1.824.374.153.715-.613.971-1.992.4-2.177.648-4.339.921-6.091.784-5.024.985-8.562,3.447-8.43s1.685,3.39,1.461,7.038-.631,5.566-.719,7.439-.149,2.891.31,3,.764-.416,1.347-3.563c.652-3.519,1.762-10.453,4.227-9.719s1.242,5.261.857,8.394c-.314,2.561-1.972,11.677-2.035,12.9s1.467,1.276,2.145.376,2.188-4.465,3.95-5.862,3.793-1.086,3.047,1.1-2.269,6.588-3.728,10.95-5.356,9.115-10.011,11.029-21.428,15.78-30.368,21.176c-6.8,4.1-12.7,4.4-18.911-.927-9.458-8.1-27.242-23.22-27.242-23.22Z" transform="translate(-461.632 -657.657)" fill="#f9c5c5"/>
        <path id="Trazado_122327" data-name="Trazado 122327" d="M576.706,724.013c6.959,1.26,7.919.913,12.19,4.156s19.465,21.067,19.465,21.067a26.637,26.637,0,0,1-7.275,10.539c-5.162,4.337-7.972,4.445-7.972,4.445L575.548,749.3C570.851,740.7,569.494,724.013,576.706,724.013Z" transform="translate(-459.952 -662.344)" fill="#8e7749"/>
        <path id="Trazado_122328" data-name="Trazado 122328" d="M576.706,724.013c6.959,1.26,7.919.913,12.19,4.156s19.465,21.067,19.465,21.067a26.637,26.637,0,0,1-7.275,10.539c-5.162,4.337-7.972,4.445-7.972,4.445L575.548,749.3C570.851,740.7,569.494,724.013,576.706,724.013Z" transform="translate(-459.952 -662.344)" opacity="0.15"/>
        <g id="Grupo_63292" data-name="Grupo 63292" transform="translate(53.113)">
          <path id="Trazado_122329" data-name="Trazado 122329" d="M527.984,720.791c-4.835.527-15.582,2.441-19.546,3.246,0,0-13.659,26.777-14.748,49.954-.587,12.5.691,33.867,5.825,41.229,10.04-13.96,39.19-33.746,66.837-31.671,0,0-1.293-7.138-4.773-10.812a59.686,59.686,0,0,0,2.6-11.678c1.078-7.661,4.386-29.054-6.984-37.851l-14.433-2.269Z" transform="translate(-493.558 -661.539)" fill="#8e7749"/>
          <g id="Grupo_63291" data-name="Grupo 63291" transform="translate(19.897)">
            <g id="Grupo_63290" data-name="Grupo 63290">
              <g id="Grupo_63289" data-name="Grupo 63289">
                <g id="Grupo_63287" data-name="Grupo 63287">
                  <path id="Trazado_122330" data-name="Trazado 122330" d="M531.76,658.6s-4.212-1.007-7.172,3.415C522,665.875,524,673.522,525.9,681.531a60.352,60.352,0,0,0,5.194,14.581,6.1,6.1,0,0,0,3.511,2.866l-.144-9.484-.281-6.61s3.972-3.077,4.805-10.494c.686-6.1-.607-8.615-.607-8.615Z" transform="translate(-520.898 -645.982)" fill="#37474f"/>
                  <path id="Trazado_122331" data-name="Trazado 122331" d="M542.741,667.164a17.707,17.707,0,1,0,17.814-17.6A17.707,17.707,0,0,0,542.741,667.164Z" transform="translate(-525.739 -643.75)" fill="#37474f"/>
                  <path id="Trazado_122332" data-name="Trazado 122332" d="M552.454,703.442l-.978,4.146c-.822,7.134-17.628,8.073-22.5,0l2.2-15.326s-2.064,1.7-5.724-.054c-3.25-1.557-6.931-7.164-4.7-11.823,2.209-4.575,7.082-3.137,8.661-2.017,2.519,1.789,2.233,4.415,4.192,3.632,1.072-.429,1.9.011,1.9-2.419.013-3.145,2.451-6.973,2.035-15.635,10.293-6.393,26.285-5.66,31.123-1.837,2.781,14.726,3.177,26.1,1.017,33.654-1.347,4.7-4.114,8.123-8.47,8.763-2.611.391-8.767-1.084-8.767-1.084" transform="translate(-520.079 -646.153)" fill="#f9c5c5"/>
                  <circle id="Elipse_4315" data-name="Elipse 4315" cx="2.366" cy="2.366" r="2.366" transform="translate(27.1 32.169)" fill="#f4b3b3"/>
                  <path id="Trazado_122333" data-name="Trazado 122333" d="M577.591,685.117a2.366,2.366,0,1,0,2.306-2.425A2.366,2.366,0,0,0,577.591,685.117Z" transform="translate(-534.443 -652.024)" fill="#f4b3b3"/>
                  <circle id="Elipse_4316" data-name="Elipse 4316" cx="1.947" cy="1.947" r="1.947" transform="translate(27.686 31.047)" fill="#263238"/>
                  <path id="Trazado_122334" data-name="Trazado 122334" d="M576.807,683.482a1.947,1.947,0,1,0,1.9-2A1.948,1.948,0,0,0,576.807,683.482Z" transform="translate(-534.247 -651.723)" fill="#263238"/>
                  <path id="Trazado_122335" data-name="Trazado 122335" d="M574.13,648.076a.492.492,0,0,0-.3-.054,1.072,1.072,0,0,0-.531.328,5.387,5.387,0,0,1-2.915,1.329c.479-2.083.682-4.441-.534-6.2a1.687,1.687,0,0,0-1.2-.83,2.166,2.166,0,0,0-1.314.581,8.916,8.916,0,0,1-5.085,1.79,6.031,6.031,0,0,0,.959-1.768,2.177,2.177,0,0,0-.015-1.44,23.426,23.426,0,0,1-7.714,1.659c-2.59.218-5.232-.413-7.851-.354-5.361.122-11.851,2.242-14.32,7.433-1.129,2.374-1.343,4.886.83,6.555a15.109,15.109,0,0,0,6.512,2.5c10.662,1.957,24.174,7.2,32.161-2.684a9.336,9.336,0,0,0,1.843-8.005A1.315,1.315,0,0,0,574.13,648.076Z" transform="translate(-523.175 -641.814)" fill="#37474f"/>
                </g>
                <g id="Grupo_63288" data-name="Grupo 63288" transform="translate(26.104 23.469)">
                  <path id="Trazado_122336" data-name="Trazado 122336" d="M554.873,678.147l3.308-3.421a2.5,2.5,0,0,1,.046,3.456A2.322,2.322,0,0,1,554.873,678.147Z" transform="translate(-554.873 -673.503)" fill="#263238"/>
                  <path id="Trazado_122337" data-name="Trazado 122337" d="M577.774,673.1l3.309,3.47a2.3,2.3,0,0,1-3.341,0A2.517,2.517,0,0,1,577.774,673.1Z" transform="translate(-560.416 -673.096)" fill="#263238"/>
                  <path id="Trazado_122338" data-name="Trazado 122338" d="M568.2,679.582l.968,11.753,6.4-2.312Z" transform="translate(-558.203 -674.716)" fill="#f4b3b3"/>
                </g>
              </g>
            </g>
            <path id="Trazado_122339" data-name="Trazado 122339" d="M539.237,684.134c.824,9.276,3.838,11.338,7.068,12.222,5.147,1.408,8.634-1.873,14.585-3.092,3.961-.812,6.7.5,9.518,1.257.542.145,1.172.277,1.771.389a2.058,2.058,0,0,0,2.426-1.92,73.268,73.268,0,0,0-.115-10.644l-.262-2.787s1.966,12.695,1.667,17.105-.751,7.954-4.195,10.671-10.756,4.1-19.583,2.531c-8.7-1.547-12.374-4.274-13.36-7.388-2.422-7.655-3.376-15.16-3.876-17.119C537.256,688.016,539.12,686.275,539.237,684.134Z" transform="translate(-523.776 -651.241)" fill="#455a64"/>
            <path id="Trazado_122340" data-name="Trazado 122340" d="M565.887,705.269c-.2.889-.927-.212-2.071-.475s-2.275.415-2.071-.474a2.193,2.193,0,0,1,4.142.949Z" transform="translate(-530.48 -657.125)" fill="#263238"/>
          </g>
        </g>
        <g id="Grupo_63294" data-name="Grupo 63294" transform="translate(0 62.498)">
          <path id="Trazado_122341" data-name="Trazado 122341" d="M444.248,798.125c2.247-.455,20.864-17.839,20.864-17.839s9.886-31.638,11.936-38.631c3.063-10.447,7.822-13.522,18.544-15.706,2.919,7.345,3.236,18.857.53,30.218-4.948,14.075-10.782,29.24-12.129,32.355s-3.683,5.324-7.387,7.867c-10.284,7.062-21.965,14.943-25.771,14.943" transform="translate(-428.13 -725.326)" fill="#f9c5c5"/>
          <g id="Grupo_63293" data-name="Grupo 63293" transform="translate(0 42.921)">
            <path id="Trazado_122342" data-name="Trazado 122342" d="M446.064,825.347c-9.63,1.639-14.159-2.474-17.217-10.591s-5.087-19.118-5.789-22c-.708-2.9-.058-4.056,1.067-4.465.423-.153,2.366-.06,3.21,3,1.539,5.579,2.4,9.029,3.474,8.768s.032-4.419-1.229-10.119c-.85-3.837-1.4-7.111.754-7.553,2.284-.47,3.327,1.7,4.513,6.895s1.835,9.071,3.257,8.887c1.129-.146-.236-5.625-.719-9.244-.487-3.646-.928-5.743,1.309-6.156,2.028-.374,3.165,2.381,3.805,5.909.591,3.258,2.7,13.12,3.316,14.272,1.043,1.941,2.135-3.574,3.269-5.978,1.859-3.943,5.3-3.023,4.679.347a62.679,62.679,0,0,0-1.05,12.5C452.828,813.785,453.225,823.911,446.064,825.347Z" transform="translate(-422.764 -782.328)" fill="#f9c5c5"/>
            <path id="Trazado_122343" data-name="Trazado 122343" d="M446.876,816.839s-5.233,6.685-2.463,12.977a8.657,8.657,0,0,1-1.93-8.618A6.633,6.633,0,0,1,446.876,816.839Z" transform="translate(-427.581 -790.947)" fill="#f4b3b3"/>
            <path id="Trazado_122344" data-name="Trazado 122344" d="M460.559,811.143c.194,2.048.262,4.054.341,6.072a31.239,31.239,0,0,1-.074,6.168,14.506,14.506,0,0,1-1.976,5.947,7.443,7.443,0,0,1-2.263,2.236,6.906,6.906,0,0,1-2.939.973,7.705,7.705,0,0,0,4.378-3.7,16.841,16.841,0,0,0,1.579-5.608,53.331,53.331,0,0,0,.339-5.987C460.026,815.2,460.279,813.151,460.559,811.143Z" transform="translate(-430.477 -789.525)" fill="#f4b3b3"/>
          </g>
          <path id="Trazado_122345" data-name="Trazado 122345" d="M504.261,725.118c-8.26,1.332-10.877,2.084-15.724,8.334s-11.7,33.723-11.7,33.723a23.17,23.17,0,0,0,9.143,5.658,44.162,44.162,0,0,0,11.837,1.649l7.066-16.78a41.961,41.961,0,0,0,2.6-12.656C507.766,739.081,507.412,730.935,504.261,725.118Z" transform="translate(-436.268 -725.118)" fill="#8e7749"/>
          <path id="Trazado_122346" data-name="Trazado 122346" d="M504.261,725.118c-8.26,1.332-10.877,2.084-15.724,8.334s-11.7,33.723-11.7,33.723a23.17,23.17,0,0,0,9.143,5.658,44.162,44.162,0,0,0,11.837,1.649l7.066-16.78a41.961,41.961,0,0,0,2.6-12.656C507.766,739.081,507.412,730.935,504.261,725.118Z" transform="translate(-436.268 -725.118)" opacity="0.15"/>
        </g>
      </g>
      <g id="Bottom" transform="translate(55.815 77.107)">
        <g id="Grupo_63299" data-name="Grupo 63299" transform="translate(24.369)">
          <g id="Grupo_63297" data-name="Grupo 63297" transform="translate(74.18 27.422)">
            <path id="Trazado_122347" data-name="Trazado 122347" d="M647.909,830.294c3.883,7.643,13.324,6.415,20.455,1.164l-17.425-50.316-22.423,15.2Z" transform="translate(-628.516 -781.141)" fill="#f9c5c5"/>
            <g id="Grupo_63296" data-name="Grupo 63296" transform="translate(13.668 42.671)">
              <g id="Grupo_63295" data-name="Grupo 63295">
                <path id="Trazado_122348" data-name="Trazado 122348" d="M703.588,869.011a5.514,5.514,0,0,1-.077,4.06c-.522,1.206-6.583,4.925-14.954,4.67a34.794,34.794,0,0,1-17.491-5.4c-3.26-1.99-9.067-2.617-13.211-2.7s-9.65-1.945-10.628-3.845-.058-5.27-.058-5.27Z" transform="translate(-646.745 -843.639)" fill="#263238"/>
                <path id="Trazado_122349" data-name="Trazado 122349" d="M683.088,848.432a110.811,110.811,0,0,0,11.569,5.614,23.345,23.345,0,0,1,5.471,2.476c3.359,2.087,5,7.2,1.344,9.53-3.15,2.009-11.548,4.37-20.529,2.182-4.892-1.193-12.935-6.523-19.307-6.785-4.053-.167-11.737-1.02-14.451-3.992-.987-4.432.112-5.688,1.029-9.451,0-.993.347-2.11.44-3.117a14.483,14.483,0,0,0-.054-2.994c-.119-1.005-.322-1.406,0-1.96a1.217,1.217,0,0,1,.935-.581l.757,1.326a3.376,3.376,0,0,0,2.714,1.795c3.255.4,4,3.24,5.012,5.437a2.449,2.449,0,0,0,.605.943.741.741,0,0,0,1.016-.025.971.971,0,0,0,.155-.428,22.226,22.226,0,0,0,.1-3.578,5.411,5.411,0,0,1,.981-3.378,6.669,6.669,0,0,1,3.067-1.764,22.23,22.23,0,0,1,4.737-1.3c1.179-.143,2.805-.686,3.922-.091a22.027,22.027,0,0,0,2.523,4.174A42.083,42.083,0,0,0,683.088,848.432Z" transform="translate(-646.75 -838.017)" fill="#37474f"/>
                <path id="Trazado_122350" data-name="Trazado 122350" d="M648.639,847.175c-.122.921-.443,2.122-.662,3.023-.917,3.763-1.8,5.114-.808,9.545,2.086,2.284,7.1,3.314,11.152,3.745C659.4,855.807,654.364,849.893,648.639,847.175Z" transform="translate(-646.735 -840.305)" fill="#455a64"/>
              </g>
              <path id="Trazado_122351" data-name="Trazado 122351" d="M712.082,861.849a53.872,53.872,0,0,0-7.721-3.192c-10.488,2.794-13.378,8.073-13.314,14.462,9.087,2.961,18.623.194,21.574-1.687C716.274,869.1,715.441,863.936,712.082,861.849Z" transform="translate(-657.802 -843.172)" fill="#455a64"/>
            </g>
          </g>
          <g id="Grupo_63298" data-name="Grupo 63298">
            <path id="Trazado_122352" data-name="Trazado 122352" d="M529.641,819.323c8.237,14.771,34.631,10.557,43.529,3.519,21.185-16.758,49.553-50,47.483-66.039-1.078-7.781-6.73-11.943-17.542-9.98q-8.609,1.563-21.662,8.656C560.354,766.945,534.195,808.649,529.641,819.323Z" transform="translate(-529.641 -745.027)" fill="#455a64"/>
            <path id="Trazado_122353" data-name="Trazado 122353" d="M529.641,818.886c8.237,14.771,34.631,10.557,43.529,3.519,21.185-16.758,49.966-50.014,47.9-66.048-1.077-7.781-7.472-13.333-18.285-11.369-5.739,1.042-12.606,3.758-21.332,10.054C561.977,769.088,534.195,808.212,529.641,818.886Z" transform="translate(-529.641 -744.59)" fill="#455a64"/>
            <path id="Trazado_122354" data-name="Trazado 122354" d="M573.17,828.98c13.544-10.713,30.023-28.166,39.608-43.553l-16.529-14.51c-2.873,10.641,2.179,21.111-7.992,33.431-7.676,9.3-15.678,14.516-27.6,19.354-7.614,3.09-22.38,4.618-31.015,1.759C537.878,840.232,564.272,836.018,573.17,828.98Z" transform="translate(-529.641 -751.166)" fill="#37474f"/>
            <path id="Trazado_122355" data-name="Trazado 122355" d="M634.758,746.873c4.332,1.018,7.174,2.9,12.034,16.826,6.9,19.77,11.755,38.105,11.755,38.105s-10.85,5.758-20.5,7.038c0,0-7.916-10.779-11.6-17.457-5.62-10.19-10.16-14.905-7.058-31.809C621.708,746.934,631.179,746.031,634.758,746.873Z" transform="translate(-551.805 -745.103)" fill="#455a64"/>
          </g>
        </g>
        <g id="Grupo_63303" data-name="Grupo 63303" transform="translate(0 10.928)">
          <g id="Grupo_63301" data-name="Grupo 63301" transform="translate(55.165 47.65)">
            <path id="Trazado_122356" data-name="Trazado 122356" d="M578.216,873.466c4.537,1.673,11.885.53,16.631-2.926l-1.128-47.871-23.03,5.276Z" transform="translate(-570.69 -822.669)" fill="#f9c5c5"/>
            <g id="Grupo_63300" data-name="Grupo 63300" transform="translate(4.029 40.655)">
              <path id="Trazado_122357" data-name="Trazado 122357" d="M576.2,894.512a7.873,7.873,0,0,0,.143,3.555c.846,1.8,2.993,3.813,3.153,7.719.192,4.688.224,6.438.577,9.768a14.062,14.062,0,0,0,6.5,9.9c4.26,2.818,9.372,3.815,17.487,1.7a10.483,10.483,0,0,0,6.693-5.284,10.7,10.7,0,0,0,.1-2.819Z" transform="translate(-576.061 -881.267)" fill="#263238"/>
              <path id="Trazado_122358" data-name="Trazado 122358" d="M577.444,876.971a1.5,1.5,0,0,0-.759.981,3.664,3.664,0,0,0-.055,1.261c.1,1.107.331,2.2.351,3.313a33.434,33.434,0,0,1-.631,4.953,14.6,14.6,0,0,0-.271,3.267,6.993,6.993,0,0,0,1.365,2.4,12.212,12.212,0,0,1,3.465,7.632c.433,3.444.173,6.586.755,9.673.753,4,3.277,6.939,7.476,9.632,2.877,1.845,9.011,1.736,12.251,1.245,4.853-.735,9.247-4.307,9.451-7.826a7.171,7.171,0,0,0-1.952-5.226c-2.2-2.92-4.985-5.863-5.723-7.236-3.819-7.1-4.872-15.082-6.408-22.885a1.281,1.281,0,0,0-.3-.716,1.216,1.216,0,0,0-.624-.252c-4.784-.915-10.441.741-15,2.333-.39.136-.83.335-.93.735a1.337,1.337,0,0,0,.011.518,14.176,14.176,0,0,1,.131,2.791c-.012.229-.085.519-.312.547s-.853-1.846-.915-2.073l-.936-5.18A1.177,1.177,0,0,0,577.444,876.971Z" transform="translate(-576.06 -876.858)" fill="#37474f"/>
              <path id="Trazado_122359" data-name="Trazado 122359" d="M613.207,920.809c-.2-1.633-2.849-4.865-3.917-5.751-7.6-3.531-19.928,1.2-23.814,8.52a15.49,15.49,0,0,0,6.739,6.412,22.062,22.062,0,0,0,12.049.666c3.429-.833,6-2.121,7.365-3.873A6.708,6.708,0,0,0,613.207,920.809Z" transform="translate(-578.412 -886.1)" fill="#455a64"/>
            </g>
          </g>
          <g id="Grupo_63302" data-name="Grupo 63302">
            <path id="Trazado_122360" data-name="Trazado 122360" d="M500.487,825.759c7.476,15.171,26.326,17.774,38.21,12.692,21.061-9.006,35.67-55.107,34.639-66.951-.867-9.956-7.646-16.7-21.332-9.026a86.4,86.4,0,0,0-11.8,9.025c-10.88,9.836-19.1,22.011-27.874,34.83-3.069,4.486-10.32,9.651-15.167,9.972A46.546,46.546,0,0,0,500.487,825.759Z" transform="translate(-497.16 -759.156)" fill="#455a64"/>
            <path id="Trazado_122361" data-name="Trazado 122361" d="M551.479,782.82c-7.97,12.983-5.338,28.018-1.487,42.1-2.269,7.64-7.688,13.672-18.055,16.126-12.527,2.966-22.5-.586-26.638-4.925,8.464,11.291,24.9,12.749,35.431,8.245,13.636-5.831,26.878-28.621,34.246-47.183Z" transform="translate(-499.193 -765.066)" fill="#37474f"/>
            <path id="Trazado_122362" data-name="Trazado 122362" d="M579.107,759.166c11.355.476,16.061,10.395,14.916,30.989-1.213,21.815-1.405,42.711-1.405,42.711S581.912,836,572.226,835.01c0,0-2.843-11.272-6.57-23.588-4.024-13.294-3.3-23.838.217-34.51S579.107,759.166,579.107,759.166Z" transform="translate(-513.586 -759.158)" fill="#455a64"/>
            <path id="Trazado_122363" data-name="Trazado 122363" d="M584.494,759.166a13.916,13.916,0,0,1,7.554,2.126,14.646,14.646,0,0,1,5.024,6.116,27.667,27.667,0,0,1,2.185,7.644,60.483,60.483,0,0,1,.68,7.907c-.015,1.32,0,2.643-.043,3.962l-.173,3.953c-.128,2.627-.227,5.255-.382,7.881l-.434,7.88c-.172,2.627-.318,5.253-.512,7.88.025-2.632.1-5.262.145-7.893l.225-7.893c.064-2.632.184-5.261.276-7.892l.138-3.933c.034-1.311,0-2.621.011-3.931a59.734,59.734,0,0,0-.605-7.815,29.229,29.229,0,0,0-2.035-7.512,13.231,13.231,0,0,0-12.055-8.48Z" transform="translate(-518.973 -759.158)" fill="#37474f"/>
          </g>
        </g>
      </g>
    </g>
    <g id="Lines" transform="translate(409.387 654.606)">
      <g id="Grupo_63307" data-name="Grupo 63307" transform="translate(155.423 76.401)">
        <g id="Grupo_63304" data-name="Grupo 63304">
          <path id="Trazado_122364" data-name="Trazado 122364" d="M637.06,862.6a.384.384,0,0,1-.188-.049.378.378,0,0,1-.188-.326v-44.7a.375.375,0,0,1,.188-.325l49.97-28.85a.375.375,0,0,1,.563.325v44.7a.377.377,0,0,1-.188.325l-49.97,28.85A.378.378,0,0,1,637.06,862.6Zm.375-44.854v43.83l49.219-28.417v-43.83Z" transform="translate(-636.685 -788.306)" fill="#fafafa"/>
        </g>
        <path id="Trazado_122365" data-name="Trazado 122365" d="M685.317,793.868v39.2l-45.209,26.1v-39.2l45.209-26.1m-45.209,25.668h0m45.959-26.967-46.709,26.967v40.933L686.067,833.5V792.569Z" transform="translate(-637.353 -789.371)" fill="#fafafa"/>
        <g id="Grupo_63305" data-name="Grupo 63305" transform="translate(26.751 15.933)">
          <path id="Trazado_122366" data-name="Trazado 122366" d="M672.717,850a.374.374,0,0,1-.375-.375V809.918a.375.375,0,0,1,.75,0v39.706A.375.375,0,0,1,672.717,850Z" transform="translate(-672.342 -809.543)" fill="#fafafa"/>
        </g>
        <g id="Grupo_63306" data-name="Grupo 63306" transform="translate(24.311 17.282)">
          <path id="Trazado_122367" data-name="Trazado 122367" d="M669.464,851.8a.375.375,0,0,1-.375-.375V811.716a.375.375,0,0,1,.75,0v39.706A.375.375,0,0,1,669.464,851.8Z" transform="translate(-669.089 -811.341)" fill="#fafafa"/>
        </g>
      </g>
      <g id="Grupo_63311" data-name="Grupo 63311" transform="translate(0 51.779)">
        <g id="Grupo_63308" data-name="Grupo 63308">
          <path id="Trazado_122368" data-name="Trazado 122368" d="M479.866,829.784a.378.378,0,0,1-.188-.05l-49.97-28.85a.374.374,0,0,1-.188-.325v-44.7a.375.375,0,0,1,.563-.325l49.97,28.85a.376.376,0,0,1,.188.325v44.7a.377.377,0,0,1-.188.325A.382.382,0,0,1,479.866,829.784Zm-49.595-29.442,49.219,28.417v-43.83l-49.219-28.417Z" transform="translate(-429.521 -755.487)" fill="#fafafa"/>
        </g>
        <path id="Trazado_122369" data-name="Trazado 122369" d="M432.944,761.049l45.209,26.1v39.2l-45.209-26.1v-39.2m-.75-1.3v40.932L478.9,827.65V786.718L432.194,759.75Z" transform="translate(-430.189 -756.552)" fill="#fafafa"/>
        <g id="Grupo_63309" data-name="Grupo 63309" transform="translate(23.218 15.933)">
          <path id="Trazado_122370" data-name="Trazado 122370" d="M460.844,817.181a.374.374,0,0,1-.375-.375V777.1a.375.375,0,0,1,.75,0v39.706A.375.375,0,0,1,460.844,817.181Z" transform="translate(-460.469 -776.724)" fill="#fafafa"/>
        </g>
        <g id="Grupo_63310" data-name="Grupo 63310" transform="translate(25.659 17.282)">
          <path id="Trazado_122371" data-name="Trazado 122371" d="M464.1,818.979a.374.374,0,0,1-.375-.375V778.9a.375.375,0,1,1,.75,0V818.6A.375.375,0,0,1,464.1,818.979Z" transform="translate(-463.722 -778.522)" fill="#fafafa"/>
        </g>
      </g>
      <g id="Grupo_63315" data-name="Grupo 63315" transform="translate(155.423 9.54)">
        <g id="Grupo_63312" data-name="Grupo 63312">
          <path id="Trazado_122372" data-name="Trazado 122372" d="M637.06,773.484a.384.384,0,0,1-.188-.05.376.376,0,0,1-.188-.325v-44.7a.374.374,0,0,1,.188-.325l49.97-28.85a.375.375,0,0,1,.563.326v44.7a.376.376,0,0,1-.188.325l-49.97,28.85A.378.378,0,0,1,637.06,773.484Zm.375-44.855v43.831l49.219-28.417v-43.83Z" transform="translate(-636.685 -699.187)" fill="#fafafa"/>
        </g>
        <path id="Trazado_122373" data-name="Trazado 122373" d="M685.317,704.75v39.2l-45.209,26.1v-39.2l45.209-26.1m-45.209,25.668h0m45.959-26.967-46.709,26.967v40.932l46.709-26.967V703.451Z" transform="translate(-637.353 -700.252)" fill="#fafafa"/>
        <g id="Grupo_63313" data-name="Grupo 63313" transform="translate(26.751 15.98)">
          <path id="Trazado_122374" data-name="Trazado 122374" d="M672.717,761a.374.374,0,0,1-.375-.375V720.862a.375.375,0,0,1,.75,0v39.767A.375.375,0,0,1,672.717,761Z" transform="translate(-672.342 -720.487)" fill="#fafafa"/>
        </g>
        <g id="Grupo_63314" data-name="Grupo 63314" transform="translate(24.311 17.329)">
          <path id="Trazado_122375" data-name="Trazado 122375" d="M669.464,762.9a.375.375,0,0,1-.375-.375V722.66a.375.375,0,0,1,.75,0v39.865A.375.375,0,0,1,669.464,762.9Z" transform="translate(-669.089 -722.285)" fill="#fafafa"/>
        </g>
      </g>
      <g id="Grupo_63323" data-name="Grupo 63323" transform="translate(60.628 76.225)">
        <g id="Grupo_63316" data-name="Grupo 63316" transform="translate(3.047 5.279)">
          <path id="Trazado_122376" data-name="Trazado 122376" d="M555.92,914.628a.375.375,0,0,1-.375-.375v-94.8l-40.4-23.325V890.5a.375.375,0,0,1-.75,0V795.483a.375.375,0,0,1,.563-.325l41.15,23.758a.376.376,0,0,1,.188.325v95.012A.375.375,0,0,1,555.92,914.628Z" transform="translate(-514.394 -795.108)" fill="#fafafa"/>
        </g>
        <g id="Grupo_63317" data-name="Grupo 63317">
          <path id="Trazado_122377" data-name="Trazado 122377" d="M557.953,914.63a.375.375,0,0,1-.375-.375V815.94L511.082,789.1v97.881a.375.375,0,0,1-.75,0V788.447a.375.375,0,0,1,.563-.325L558.14,815.4a.374.374,0,0,1,.188.325v98.531A.375.375,0,0,1,557.953,914.63Z" transform="translate(-510.332 -788.072)" fill="#fafafa"/>
        </g>
        <g id="Grupo_63320" data-name="Grupo 63320" transform="translate(33.45 69.504)">
          <g id="Grupo_63318" data-name="Grupo 63318" transform="translate(1.605)">
            <path id="Trazado_122378" data-name="Trazado 122378" d="M563.527,899.118a.379.379,0,0,1-.188-.05l-6.095-3.519a.374.374,0,0,1-.188-.325v-4.7a.375.375,0,0,1,.75,0v4.484l5.345,3.085V884.826l-5.345-3.086v2.05a.375.375,0,0,1-.75,0v-2.7a.375.375,0,0,1,.563-.325l6.095,3.519a.374.374,0,0,1,.188.325v14.134a.375.375,0,0,1-.375.375Z" transform="translate(-557.057 -880.715)" fill="#fafafa"/>
          </g>
          <g id="Grupo_63319" data-name="Grupo 63319" transform="translate(0 3.005)">
            <path id="Trazado_122379" data-name="Trazado 122379" d="M559.7,893.349a3.129,3.129,0,0,1-1.549-.47,7.067,7.067,0,0,1-3.23-5.606,2.224,2.224,0,0,1,3.611-2.085h0a7.046,7.046,0,0,1,3.23,5.607,2.5,2.5,0,0,1-1.084,2.3A1.941,1.941,0,0,1,559.7,893.349Zm-2.715-7.878a1.2,1.2,0,0,0-.608.154,1.794,1.794,0,0,0-.705,1.648,6.339,6.339,0,0,0,2.856,4.956,1.495,1.495,0,0,0,2.484-1.435,6.321,6.321,0,0,0-2.855-4.956A2.41,2.41,0,0,0,556.982,885.471Z" transform="translate(-554.918 -884.721)" fill="#fafafa"/>
          </g>
        </g>
        <g id="Grupo_63321" data-name="Grupo 63321" transform="translate(7.627 11.441)">
          <path id="Trazado_122380" data-name="Trazado 122380" d="M534.789,850.816a.378.378,0,0,1-.188-.05l-13.916-8.034a.378.378,0,0,1-.188-.326V803.7a.375.375,0,0,1,.563-.325l13.916,8.034a.376.376,0,0,1,.188.325v38.709a.376.376,0,0,1-.188.325A.38.38,0,0,1,534.789,850.816Zm-13.541-8.626,13.166,7.6V811.948l-13.166-7.6Z" transform="translate(-520.498 -803.322)" fill="#fafafa"/>
        </g>
        <g id="Grupo_63322" data-name="Grupo 63322" transform="translate(25.913 21.999)">
          <path id="Trazado_122381" data-name="Trazado 122381" d="M558.968,864.776a.378.378,0,0,1-.188-.05L545.059,856.8a.375.375,0,0,1-.188-.325V817.769a.375.375,0,0,1,.563-.325l13.722,7.922a.376.376,0,0,1,.188.325V864.4a.376.376,0,0,1-.188.325A.38.38,0,0,1,558.968,864.776Zm-13.347-8.514,12.972,7.49V825.908l-12.972-7.489Z" transform="translate(-544.871 -817.394)" fill="#fafafa"/>
        </g>
      </g>
      <g id="Grupo_63324" data-name="Grupo 63324" transform="translate(117.88 75.35)">
        <path id="Trazado_122382" data-name="Trazado 122382" d="M587.03,920.616a.375.375,0,0,1-.375-.375l-.011-132.96a.375.375,0,0,1,.75,0l.011,132.96A.375.375,0,0,1,587.03,920.616Z" transform="translate(-586.644 -786.905)" fill="#fafafa"/>
      </g>
      <g id="Grupo_63325" data-name="Grupo 63325" transform="translate(17.421)">
        <path id="Trazado_122383" data-name="Trazado 122383" d="M544.443,774.235a.374.374,0,0,1-.187-.05l-91.327-52.73a.375.375,0,1,1,.375-.65l91.045,52.567,68.3-86.758a.375.375,0,1,1,.589.464l-68.5,87.014A.376.376,0,0,1,544.443,774.235Z" transform="translate(-452.742 -686.471)" fill="#fafafa"/>
      </g>
    </g>
    <g id="Sad_Face" data-name="Sad Face" transform="translate(587.056 558.887)">
      <g id="Grupo_63326" data-name="Grupo 63326" transform="translate(16.222 44.175)">
        <path id="Trazado_122384" data-name="Trazado 122384" d="M690.262,617.768l6.69,3.873-2.657,5.973a.606.606,0,0,1-.254.285c-.317.18-2.194,1.266-2.3,1.326a.614.614,0,0,1-.9-.357L687.96,619.1Z" transform="translate(-687.96 -617.768)" fill="#8e7749"/>
        <path id="Trazado_122385" data-name="Trazado 122385" d="M690.262,617.768l6.69,3.873-2.657,5.973a.606.606,0,0,1-.254.285c-.317.18-2.194,1.266-2.3,1.326a.614.614,0,0,1-.9-.357L687.96,619.1Z" transform="translate(-687.96 -617.768)" opacity="0.2"/>
        <path id="Trazado_122386" data-name="Trazado 122386" d="M694.65,623.413l-2.657,5.973a.613.613,0,0,1-1.147-.076l-2.885-9.771Z" transform="translate(-687.96 -618.211)" fill="#8e7749"/>
      </g>
      <g id="Grupo_63327" data-name="Grupo 63327" transform="translate(6.096)">
        <path id="Trazado_122387" data-name="Trazado 122387" d="M711.461,592.021c0-11.3-7.932-25.038-17.718-30.688-4.488-2.591-8.605-3.068-11.728-1.694h0l-7.551,4.378,3.414,6.491c-.028.463-.049.933-.049,1.421,0,10.848,7.314,23.942,16.559,29.971l3.362,6.394,7.489-4.3h0C709.278,601.384,711.461,598.254,711.461,592.021Z" transform="translate(-674.464 -558.887)" fill="#8e7749"/>
        <path id="Trazado_122388" data-name="Trazado 122388" d="M711.461,592.021c0-11.3-7.932-25.038-17.718-30.688-4.488-2.591-8.605-3.068-11.728-1.694h0l-7.551,4.378,3.414,6.491c-.028.463-.049.933-.049,1.421,0,10.848,7.314,23.942,16.559,29.971l3.362,6.394,7.489-4.3h0C709.277,601.384,711.461,598.254,711.461,592.021Z" transform="translate(-674.464 -558.887)" opacity="0.15"/>
      </g>
      <g id="Grupo_63331" data-name="Grupo 63331" transform="translate(0 4.329)">
        <path id="Trazado_122389" data-name="Trazado 122389" d="M666.338,577.332c0,11.323,7.95,25.091,17.754,30.752s17.755,1.072,17.755-10.25-7.949-25.091-17.755-30.752S666.338,566.01,666.338,577.332Z" transform="translate(-666.338 -564.657)" fill="#a88e5e"/>
        <path id="Trazado_122390" data-name="Trazado 122390" d="M677.394,589.214c0,.909-.552,1.326-1.233.933a2.954,2.954,0,0,1-1.233-2.357,3.181,3.181,0,0,1,1.233-2.485A10.638,10.638,0,0,1,677.394,589.214Z" transform="translate(-668.483 -569.814)" fill="#fafafa" opacity="0.4"/>
        <g id="Grupo_63328" data-name="Grupo 63328" transform="translate(11.189 23.144)">
          <path id="Trazado_122391" data-name="Trazado 122391" d="M681.337,598.494a4.052,4.052,0,0,1,1.035-1.717,4.318,4.318,0,0,1,4.961-.848,10.313,10.313,0,0,1,5.467,5.664,8.58,8.58,0,0,1,.75,3.64c0,1.332-.958,1.833-1.705.869a19.569,19.569,0,0,0-5.083-5.049,6.206,6.206,0,0,0-3.857-.87C681.731,600.226,680.993,599.56,681.337,598.494Z" transform="translate(-681.252 -595.506)" fill="#37474f"/>
        </g>
        <g id="Grupo_63330" data-name="Grupo 63330" transform="translate(8.031 10.837)">
          <g id="Grupo_63329" data-name="Grupo 63329">
            <path id="Trazado_122392" data-name="Trazado 122392" d="M697.353,592.388a4.266,4.266,0,0,0,1.781,3.4c.984.568,1.781-.034,1.781-1.347a4.266,4.266,0,0,0-1.781-3.4C698.151,590.473,697.353,591.075,697.353,592.388Z" transform="translate(-682.115 -582.03)" fill="#37474f"/>
            <path id="Trazado_122393" data-name="Trazado 122393" d="M677.042,580.661a4.264,4.264,0,0,0,1.782,3.4c.984.568,1.781-.034,1.781-1.347a4.266,4.266,0,0,0-1.781-3.4C677.839,578.747,677.042,579.349,677.042,580.661Z" transform="translate(-677.042 -579.101)" fill="#37474f"/>
          </g>
        </g>
      </g>
    </g>
  </g>
</svg>
