<svg xmlns="http://www.w3.org/2000/svg" width="515" height="212.53" viewBox="0 0 515 212.53">
  <g id="Grupo_63261" data-name="Grupo 63261" transform="translate(-800 -1569.5)">
    <g id="Grupo_61706" data-name="Grupo 61706">
      <circle id="Elipse_4069-3" data-name="Elipse 4069-3" cx="106.016" cy="106.016" r="106.016" transform="translate(951.5 1569.5)" fill="#fff" opacity="0"/>
      <g id="Grupo_61705" data-name="Grupo 61705" transform="translate(974 1592)">
        <g id="Grupo_61649" data-name="Grupo 61649" transform="translate(2.29 41.279)">
          <path id="Trazado_121152" data-name="Trazado 121152" d="M1657,2025.849a.778.778,0,0,1-.583-.262,81.779,81.779,0,0,1-5.765-7.3.78.78,0,1,1,1.276-.9,80.352,80.352,0,0,0,5.655,7.158.78.78,0,0,1-.583,1.3Zm-10.56-15.058a.781.781,0,0,1-.686-.408,81.444,81.444,0,0,1-3.961-8.414.78.78,0,0,1,1.447-.582,79.736,79.736,0,0,0,3.885,8.252.779.779,0,0,1-.313,1.057A.77.77,0,0,1,1646.442,2010.792Zm-6.864-17.061a.78.78,0,0,1-.751-.574,80.449,80.449,0,0,1-1.93-9.1.779.779,0,1,1,1.541-.234,79.006,79.006,0,0,0,1.893,8.919.78.78,0,0,1-.752.986Zm-2.768-18.176a.779.779,0,0,1-.778-.752c-.033-.943-.05-1.9-.05-2.848,0-2.14.087-4.31.257-6.45a.78.78,0,0,1,1.554.124c-.167,2.1-.252,4.228-.252,6.326,0,.929.017,1.869.049,2.793a.779.779,0,0,1-.751.807Zm1.458-18.336a.8.8,0,0,1-.151-.015.78.78,0,0,1-.615-.915,81.136,81.136,0,0,1,2.31-9.01.78.78,0,0,1,1.486.474,79.668,79.668,0,0,0-2.266,8.836A.78.78,0,0,1,1638.269,1957.219Zm5.585-17.524a.771.771,0,0,1-.32-.069.779.779,0,0,1-.39-1.031,80.807,80.807,0,0,1,4.309-8.244.78.78,0,1,1,1.338.8,79.3,79.3,0,0,0-4.225,8.084A.78.78,0,0,1,1643.854,1939.695Z" transform="translate(-1635.982 -1929.972)" fill="#003887"/>
        </g>
        <g id="Grupo_61650" data-name="Grupo 61650" transform="translate(118.737 122.616)">
          <path id="Trazado_121153" data-name="Trazado 121153" d="M1950.847,2182.162a.78.78,0,0,1-.354-1.475,79.579,79.579,0,0,0,7.877-4.6.78.78,0,1,1,.862,1.3,81.217,81.217,0,0,1-8.032,4.691A.774.774,0,0,1,1950.847,2182.162Zm15.324-10.171a.78.78,0,0,1-.5-1.375c.619-.522,1.239-1.061,1.843-1.6,1.654-1.483,3.264-3.053,4.786-4.667a.78.78,0,1,1,1.134,1.07c-1.551,1.645-3.193,3.246-4.879,4.757-.615.552-1.247,1.1-1.878,1.633A.777.777,0,0,1,1966.172,2171.991Zm12.617-13.384a.779.779,0,0,1-.624-1.246,79.52,79.52,0,0,0,5.024-7.614.78.78,0,0,1,1.349.782,81.054,81.054,0,0,1-5.123,7.764A.779.779,0,0,1,1978.788,2158.608Z" transform="translate(-1950.067 -2149.36)" fill="#003887"/>
        </g>
        <g id="Grupo_61651" data-name="Grupo 61651" transform="translate(50.509 2.395)">
          <path id="Trazado_121154" data-name="Trazado 121154" d="M1868.976,1868.181a.779.779,0,0,1-.684-.4c-1.252-2.276-2.632-4.518-4.1-6.663a.78.78,0,0,1,1.286-.882c1.5,2.187,2.906,4.473,4.182,6.794a.78.78,0,0,1-.682,1.156Zm-9.774-14.018a.778.778,0,0,1-.589-.268,80.234,80.234,0,0,0-6.363-6.538.78.78,0,1,1,1.054-1.149,81.894,81.894,0,0,1,6.487,6.665.78.78,0,0,1-.589,1.291Zm-13.562-12.426a.774.774,0,0,1-.457-.149,79.5,79.5,0,0,0-7.682-4.92.78.78,0,0,1,.764-1.359,81.037,81.037,0,0,1,7.833,5.017.78.78,0,0,1-.458,1.411Zm-78.821-8.571a.78.78,0,0,1-.311-1.495,80.993,80.993,0,0,1,8.729-3.211.78.78,0,0,1,.453,1.492,79.352,79.352,0,0,0-8.561,3.149A.777.777,0,0,1,1766.819,1833.166Zm62.785-.437a.771.771,0,0,1-.3-.061,78.983,78.983,0,0,0-8.606-3.025.779.779,0,1,1,.431-1.5,80.55,80.55,0,0,1,8.776,3.084.78.78,0,0,1-.3,1.5Zm-45.188-4.905a.78.78,0,0,1-.138-1.547,80.912,80.912,0,0,1,9.233-1.126.78.78,0,0,1,.1,1.556,79.133,79.133,0,0,0-9.054,1.1A.814.814,0,0,1,1784.417,1827.824Zm27.514-.181a.8.8,0,0,1-.129-.01c-1.617-.269-3.266-.491-4.9-.66-1.374-.143-2.776-.251-4.167-.322a.78.78,0,1,1,.079-1.557c1.418.072,2.847.183,4.248.328,1.668.173,3.349.4,5,.673a.78.78,0,0,1-.127,1.549Z" transform="translate(-1766.039 -1825.093)" fill="#003887"/>
        </g>
        <path id="Trazado_121209" data-name="Trazado 121209" d="M58.832,0A58.832,58.832,0,1,1,0,58.832,58.832,58.832,0,0,1,58.832,0Z" transform="translate(0 83.201) rotate(-45)" fill="#4fa3b1"/>
        <g id="Grupo_61675" data-name="Grupo 61675" transform="translate(28.65 79.662)">
          <g id="Grupo_61652" data-name="Grupo 61652" transform="translate(0 46.787)">
            <path id="Trazado_121155" data-name="Trazado 121155" d="M1785.262,2189.651l-5.24-17.8A8.292,8.292,0,0,0,1774,2165.8c-4.278-1.087-11.123-1.919-14.96-3.025a4.743,4.743,0,0,1-1.735-.922l-21.367-.053a4.744,4.744,0,0,1-1.8.975c-3.837,1.106-9.694,2.254-13.971,3.341a8.292,8.292,0,0,0-6.022,6.051l-4.961,17.524Z" transform="translate(-1708.405 -2161.022)" fill="#fff"/>
            <path id="Trazado_121156" data-name="Trazado 121156" d="M1707.862,2189.15a.781.781,0,0,1-.751-.992l4.962-17.524a9.046,9.046,0,0,1,6.58-6.594c1.792-.456,3.9-.93,5.929-1.388,2.852-.644,5.8-1.308,8.018-1.947a3.945,3.945,0,0,0,1.5-.815.782.782,0,0,1,.511-.19l21.369.053a.782.782,0,0,1,.5.182,3.94,3.94,0,0,0,1.45.771c2,.577,4.927,1.093,7.756,1.593,2.531.447,5.149.909,7.18,1.425a9.058,9.058,0,0,1,6.587,6.621l5.231,17.764a.78.78,0,0,1-1.5.44l-5.24-17.8a7.516,7.516,0,0,0-5.466-5.516c-1.974-.5-4.563-.959-7.067-1.4-2.869-.506-5.836-1.03-7.917-1.63a5.5,5.5,0,0,1-1.792-.893l-20.818-.052a5.5,5.5,0,0,1-1.859.944c-2.26.651-5.233,1.321-8.107,1.969-2.024.456-4.116.928-5.888,1.378a7.5,7.5,0,0,0-5.457,5.482l-4.968,17.551A.78.78,0,0,1,1707.862,2189.15Z" transform="translate(-1707.081 -2159.699)" fill="#003887"/>
          </g>
          <g id="Grupo_61658" data-name="Grupo 61658" transform="translate(21.898 2.329)">
            <g id="Grupo_61656" data-name="Grupo 61656" transform="translate(4.836 36.828)">
              <g id="Grupo_61653" data-name="Grupo 61653" transform="translate(21.315 7.618)">
                <path id="Trazado_121157" data-name="Trazado 121157" d="M1837.459,2161.226a.781.781,0,1,1,.65-.348A.78.78,0,0,1,1837.459,2161.226Z" transform="translate(-1836.679 -2159.666)" fill="#003887"/>
              </g>
              <g id="Grupo_61654" data-name="Grupo 61654">
                <path id="Trazado_121158" data-name="Trazado 121158" d="M1800.969,2141.246l-18.014-.026-.052,4.732a4.775,4.775,0,0,1-1.593,2.9l-.019.061.232.541.229.133a20.788,20.788,0,0,0,20.511.16l.343-.905a4.773,4.773,0,0,1-1.572-2.808Z" transform="translate(-1780.511 -2140.44)" fill="#fff"/>
                <path id="Trazado_121159" data-name="Trazado 121159" d="M1790.828,2151.812a21.577,21.577,0,0,1-10.789-2.875l-.228-.132a.777.777,0,0,1-.327-.369l-.232-.542a.778.778,0,0,1-.029-.534l.018-.06a.782.782,0,0,1,.235-.362,3.99,3.99,0,0,0,1.325-2.374l.052-4.676a.78.78,0,0,1,.78-.771l18.015.025a.779.779,0,0,1,.778.769l.064,4.724a4,4,0,0,0,1.265,2.26.782.782,0,0,1,.258.9l-.343.9a.78.78,0,0,1-.35.405A21.568,21.568,0,0,1,1790.828,2151.812Zm-9.869-4.146a20.113,20.113,0,0,0,19.354.21l.058-.154a5.567,5.567,0,0,1-1.429-2.886.764.764,0,0,1-.011-.118l-.054-4.018-16.474-.024-.044,3.96a.763.763,0,0,1-.008.106A5.553,5.553,0,0,1,1780.959,2147.667Z" transform="translate(-1779.188 -2139.118)" fill="#003887"/>
              </g>
              <g id="Grupo_61655" data-name="Grupo 61655" transform="translate(0.237 8.235)">
                <path id="Trazado_121160" data-name="Trazado 121160" d="M1802.656,2163.717a20.788,20.788,0,0,1-20.511-.16l-.229-.132,11.073,25.836,9.663-25.534Z" transform="translate(-1781.142 -2162.647)" fill="#5d9af0"/>
                <path id="Trazado_121161" data-name="Trazado 121161" d="M1791.675,2188.722a.779.779,0,0,1-.716-.473l-11.067-25.822a.789.789,0,0,1,.2-.9.777.777,0,0,1,.9-.1l.229.132a20.107,20.107,0,0,0,19.743.155.78.78,0,0,1,1.106.963l-9.665,25.538a.78.78,0,0,1-.712.5Zm-9.492-24.907,9.448,22.044,8.281-21.881A21.717,21.717,0,0,1,1782.183,2163.815Z" transform="translate(-1779.828 -2161.33)" fill="#003887"/>
              </g>
            </g>
            <g id="Grupo_61657" data-name="Grupo 61657">
              <path id="Trazado_121162" data-name="Trazado 121162" d="M1774.748,2078.349l6.2,3.375a8.449,8.449,0,0,0,6.575-.134l5.235-3.24c0-.014.587-.672.587-.672a11.978,11.978,0,0,0,2.917-6.222,1.784,1.784,0,0,0,1.791-1.4c.7-4.335,1.2-4.522,1.2-6.427s-.707-2.355-1.558-1.863a11.681,11.681,0,0,0,.433-2.919c.291-10.241-6.465-16.956-14.382-16.956s-14.673,6.715-14.382,16.956a11.679,11.679,0,0,0,.433,2.919c-.851-.492-1.557-.039-1.557,1.863s.5,2.092,1.2,6.427a1.784,1.784,0,0,0,1.791,1.4,11.975,11.975,0,0,0,2.917,6.222l.587.657Z" transform="translate(-1767.469 -2041.107)" fill="#fff"/>
              <path id="Trazado_121163" data-name="Trazado 121163" d="M1782.755,2081.777a9.229,9.229,0,0,1-3.415-.652.707.707,0,0,1-.084-.039l-6.2-3.375a.784.784,0,0,1-.282-.262l-.514-.575a12.72,12.72,0,0,1-3.007-6.046,2.384,2.384,0,0,1-1.889-1.975,38.519,38.519,0,0,0-.824-3.957,8.872,8.872,0,0,1-.39-2.593c0-1.359.341-2.245,1.012-2.633a1.442,1.442,0,0,1,.316-.135,13.389,13.389,0,0,1-.2-1.994,18.107,18.107,0,0,1,4.751-13.332,14.458,14.458,0,0,1,20.82,0,18.105,18.105,0,0,1,4.752,13.332,13.431,13.431,0,0,1-.2,1.993,1.43,1.43,0,0,1,.316.135c.671.387,1.012,1.273,1.012,2.632a8.887,8.887,0,0,1-.39,2.593,38.379,38.379,0,0,0-.825,3.957,2.382,2.382,0,0,1-1.889,1.974,12.72,12.72,0,0,1-3.007,6.047l-.527.59a.755.755,0,0,1-.231.225l-5.235,3.24a.8.8,0,0,1-.092.049A9.244,9.244,0,0,1,1782.755,2081.777Zm-2.8-2.083a7.715,7.715,0,0,0,5.879-.118l5.066-3.135.54-.6a11.17,11.17,0,0,0,2.728-5.817.779.779,0,0,1,.771-.665c.151,0,.908-.046,1.022-.748a39.815,39.815,0,0,1,.854-4.1,7.363,7.363,0,0,0,.34-2.2,2.324,2.324,0,0,0-.22-1.263.681.681,0,0,0-.168.074.78.78,0,0,1-1.139-.893,10.974,10.974,0,0,0,.4-2.723,16.568,16.568,0,0,0-4.311-12.2,12.9,12.9,0,0,0-18.584,0,16.566,16.566,0,0,0-4.311,12.2,10.955,10.955,0,0,0,.4,2.723.78.78,0,0,1-1.139.893.7.7,0,0,0-.167-.074,2.323,2.323,0,0,0-.22,1.263,7.37,7.37,0,0,0,.34,2.2,39.859,39.859,0,0,1,.855,4.1c.113.7.871.747,1.022.748a.788.788,0,0,1,.771.665,11.167,11.167,0,0,0,2.727,5.817l.522.584Z" transform="translate(-1766.145 -2039.785)" fill="#003887"/>
            </g>
          </g>
          <g id="Grupo_61659" data-name="Grupo 61659" transform="translate(21.847)">
            <path id="Trazado_121164" data-name="Trazado 121164" d="M1792.2,2044.936l-4.184,3.706a9.81,9.81,0,0,1-6.506,2.467h-3.875a9.468,9.468,0,0,0-6.168,2.285l-1,.86-.827,4.193-.854-.162S1763.5,2035.6,1783.3,2035.6c16.1,0,15.627,13.991,15.391,21.562l-1.055.642-.833-6.35Z" transform="translate(-1767.351 -2034.825)" fill="#ffce3b"/>
            <path id="Trazado_121165" data-name="Trazado 121165" d="M1768.3,2057.9a.783.783,0,0,1-.146-.014l-.854-.162a.779.779,0,0,1-.614-.589c-.11-.471-2.627-11.612,2.833-18.491,2.711-3.416,6.9-5.147,12.444-5.147,5.137,0,9.108,1.41,11.8,4.19,4.781,4.932,4.533,12.87,4.369,18.122v.054a.778.778,0,0,1-.374.641l-1.055.643a.78.78,0,0,1-1.178-.565l-.807-6.159-3.993-5.654-3.533,3.129a10.58,10.58,0,0,1-7.023,2.663h-3.875a8.692,8.692,0,0,0-5.66,2.1l-.8.684-.775,3.928A.78.78,0,0,1,1768.3,2057.9Zm13.663-22.843c-5.047,0-8.823,1.533-11.223,4.557-3.8,4.788-3.3,12.161-2.833,15.465l.454-2.3a.779.779,0,0,1,.257-.441l1-.86a10.252,10.252,0,0,1,6.676-2.473h3.875a9.024,9.024,0,0,0,5.989-2.271l4.184-3.706a.779.779,0,0,1,1.154.134l4.607,6.523a.779.779,0,0,1,.136.349l.4,3.053c.045-4.737-.391-10.595-3.993-14.31C1790.252,2036.311,1786.657,2035.061,1781.958,2035.061Z" transform="translate(-1766.007 -2033.502)" fill="#003887"/>
          </g>
          <g id="Grupo_61665" data-name="Grupo 61665" transform="translate(23.519 20.307)">
            <g id="Grupo_61660" data-name="Grupo 61660" transform="translate(11.528 2.639)">
              <path id="Trazado_121166" data-name="Trazado 121166" d="M1807.224,2097.542a.776.776,0,0,1-.359-.088,4.412,4.412,0,0,0-4.116,0,.78.78,0,1,1-.719-1.384,6.03,6.03,0,0,1,5.553,0,.78.78,0,0,1-.36,1.471Z" transform="translate(-1801.61 -2095.393)" fill="#003887"/>
            </g>
            <g id="Grupo_61661" data-name="Grupo 61661" transform="translate(23.919 1.896)">
              <path id="Trazado_121167" data-name="Trazado 121167" d="M1835.811,2095.8a.78.78,0,0,1-.168-1.541l3.81-.847a.78.78,0,0,1,.338,1.522l-3.81.846A.794.794,0,0,1,1835.811,2095.8Z" transform="translate(-1835.032 -2093.39)" fill="#003887"/>
            </g>
            <g id="Grupo_61662" data-name="Grupo 61662" transform="translate(0 1.897)">
              <path id="Trazado_121168" data-name="Trazado 121168" d="M1775.2,2096.175a.789.789,0,0,1-.233-.036l-3.909-1.224a.78.78,0,0,1,.466-1.488l3.909,1.224a.78.78,0,0,1-.233,1.524Z" transform="translate(-1770.516 -2093.391)" fill="#003887"/>
            </g>
            <g id="Grupo_61663" data-name="Grupo 61663" transform="translate(3.833)">
              <path id="Trazado_121169" data-name="Trazado 121169" d="M1785.522,2097.609a4.667,4.667,0,1,1,4.667-4.667A4.673,4.673,0,0,1,1785.522,2097.609Zm0-7.776a3.108,3.108,0,1,0,3.108,3.108A3.112,3.112,0,0,0,1785.522,2089.834Z" transform="translate(-1780.855 -2088.275)" fill="#003887"/>
            </g>
            <g id="Grupo_61664" data-name="Grupo 61664" transform="translate(16.315)">
              <path id="Trazado_121170" data-name="Trazado 121170" d="M1819.189,2097.609a4.667,4.667,0,1,1,4.667-4.667A4.673,4.673,0,0,1,1819.189,2097.609Zm0-7.776a3.108,3.108,0,1,0,3.108,3.108A3.112,3.112,0,0,0,1819.189,2089.834Z" transform="translate(-1814.522 -2088.275)" fill="#003887"/>
            </g>
          </g>
          <g id="Grupo_61674" data-name="Grupo 61674" transform="translate(13.393 46.773)">
            <g id="Grupo_61666" data-name="Grupo 61666" transform="translate(34.657)">
              <path id="Trazado_121171" data-name="Trazado 121171" d="M1847.021,2173.392a.78.78,0,0,1-.614-.3l-9.559-12.171a.779.779,0,0,1,1.226-.963l9.559,12.171a.78.78,0,0,1-.613,1.261Z" transform="translate(-1836.682 -2159.661)" fill="#003887"/>
            </g>
            <g id="Grupo_61667" data-name="Grupo 61667" transform="translate(42.95 11.576)">
              <ellipse id="Elipse_4304" data-name="Elipse 4304" cx="3.076" cy="3.076" rx="3.076" ry="3.076" transform="translate(0.779 0.78)" fill="#ffce3b"/>
              <path id="Trazado_121172" data-name="Trazado 121172" d="M1862.907,2198.6a3.856,3.856,0,1,1,3.856-3.856A3.86,3.86,0,0,1,1862.907,2198.6Zm0-6.153a2.3,2.3,0,1,0,2.3,2.3A2.3,2.3,0,0,0,1862.907,2192.444Z" transform="translate(-1859.051 -2190.885)" fill="#003887"/>
            </g>
            <g id="Grupo_61673" data-name="Grupo 61673" transform="translate(0 0.034)">
              <g id="Grupo_61668" data-name="Grupo 61668" transform="translate(10.501)">
                <path id="Trazado_121173" data-name="Trazado 121173" d="M1772.308,2168.457a.781.781,0,0,1-.725-1.067l2.824-7.145a.78.78,0,1,1,1.45.573l-2.824,7.145A.78.78,0,0,1,1772.308,2168.457Z" transform="translate(-1771.528 -2159.752)" fill="#003887"/>
              </g>
              <g id="Grupo_61672" data-name="Grupo 61672" transform="translate(0 6.886)">
                <g id="Grupo_61669" data-name="Grupo 61669">
                  <path id="Trazado_121174" data-name="Trazado 121174" d="M1754.6,2196.667a.78.78,0,0,1-.742-1.02c2.714-8.377,2.2-15,.037-15.7s-6.46,4.359-9.173,12.736a.78.78,0,1,1-1.483-.48c2.465-7.611,7.2-15.01,11.137-13.739s3.432,10.049.966,17.66A.78.78,0,0,1,1754.6,2196.667Z" transform="translate(-1743.204 -2178.324)" fill="#003887"/>
                </g>
                <g id="Grupo_61670" data-name="Grupo 61670" transform="translate(0 13.343)">
                  <path id="Trazado_121175" data-name="Trazado 121175" d="M1746.274,2216.378a7.245,7.245,0,0,1-2.576-.56.78.78,0,0,1,.572-1.451,4.281,4.281,0,0,0,2.5.39.78.78,0,0,1,.478,1.484A3.211,3.211,0,0,1,1746.274,2216.378Z" transform="translate(-1743.204 -2214.313)" fill="#003887"/>
                </g>
                <g id="Grupo_61671" data-name="Grupo 61671" transform="translate(8.115 15.51)">
                  <path id="Trazado_121176" data-name="Trazado 121176" d="M1768.4,2222.99a.792.792,0,0,1-.194-.024,6.47,6.47,0,0,1-2.885-1.477.779.779,0,1,1,1.1-1.1,5.063,5.063,0,0,0,2.172,1.07.78.78,0,0,1-.193,1.535Z" transform="translate(-1765.092 -2220.157)" fill="#003887"/>
                </g>
              </g>
            </g>
          </g>
        </g>
        <g id="Grupo_61682" data-name="Grupo 61682" transform="translate(13.286 12.414)">
          <g id="Grupo_61676" data-name="Grupo 61676" transform="translate(21.32 37.405)">
            <path id="Trazado_121177" data-name="Trazado 121177" d="M1725.248,1975.012l14.737-19.9Z" transform="translate(-1724.468 -1954.331)" fill="#5d9af0"/>
            <path id="Trazado_121178" data-name="Trazado 121178" d="M1723.924,1974.469a.779.779,0,0,1-.626-1.243l14.737-19.9a.78.78,0,1,1,1.253.928l-14.737,19.9A.779.779,0,0,1,1723.924,1974.469Z" transform="translate(-1723.145 -1953.009)" fill="#003887"/>
          </g>
          <g id="Grupo_61680" data-name="Grupo 61680" transform="translate(5.459)">
            <g id="Grupo_61677" data-name="Grupo 61677" transform="translate(0 1.488)">
              <path id="Trazado_121179" data-name="Trazado 121179" d="M1734.375,1862.385s-29.676-9.595-51.907.079a22.912,22.912,0,0,1,3.735,18.088s15.875,3.832,22.276,19.542c0,0,18.1,3.235,25.975,13.9,0,0,9.63-6.392,17.35-1.213C1755.08,1899.189,1744.171,1872.242,1734.375,1862.385Z" transform="translate(-1681.688 -1857.397)" fill="#fff"/>
              <path id="Trazado_121180" data-name="Trazado 121180" d="M1733.131,1913.507a.779.779,0,0,1-.628-.316c-7.6-10.288-25.307-13.565-25.485-13.6a.782.782,0,0,1-.585-.473c-6.179-15.166-21.582-19.042-21.737-19.079a.78.78,0,0,1-.578-.93,22.317,22.317,0,0,0-3.587-17.432.781.781,0,0,1,.3-1.2c22.244-9.68,52.159-.2,52.458-.106a.776.776,0,0,1,.313.192c10.3,10.369,20.908,37.544,17.634,51.13a.78.78,0,0,1-1.192.465c-7.189-4.823-16.393,1.155-16.485,1.215A.776.776,0,0,1,1733.131,1913.507Zm-25.416-15.367c2.8.558,18.05,3.981,25.608,13.555,2.219-1.295,9.846-5.146,16.62-1.42,2.324-13.205-7.782-38.743-17.309-48.472-2.462-.755-29.583-8.719-50.292-.265a23.609,23.609,0,0,1,3.45,17.2C1689,1879.727,1701.944,1884.487,1707.715,1898.14Z" transform="translate(-1680.365 -1856.13)" fill="#003887"/>
            </g>
            <g id="Grupo_61678" data-name="Grupo 61678" transform="translate(8.623 5.695)">
              <path id="Trazado_121181" data-name="Trazado 121181" d="M1705.727,1883.885s18.071-14.413,43.284-14.3c0,0-22.642,32.217-22.641,32.662Z" transform="translate(-1704.948 -1868.802)" fill="#fff"/>
              <path id="Trazado_121182" data-name="Trazado 121182" d="M1725.047,1901.7a.779.779,0,0,1-.779-.779c0-.32,0-.68,21.912-31.872-23.876.452-41.115,13.983-41.29,14.122a.78.78,0,0,1-.972-1.219c.183-.145,18.57-14.561,43.773-14.473a.78.78,0,0,1,.635,1.228c-8.707,12.389-21.82,31.155-22.548,32.486A.78.78,0,0,1,1725.047,1901.7Z" transform="translate(-1703.624 -1867.479)" fill="#003887"/>
            </g>
            <g id="Grupo_61679" data-name="Grupo 61679" transform="translate(51.907)">
              <path id="Trazado_121183" data-name="Trazado 121183" d="M1822.7,1904.159a.781.781,0,0,1-.753-.983c.067-.248,6.614-25.05-1.517-44.279a.781.781,0,0,1,.094-.77l4.258-5.7a.78.78,0,1,1,1.249.933l-3.992,5.339c8.079,19.67,1.482,44.628,1.414,44.88A.78.78,0,0,1,1822.7,1904.159Z" transform="translate(-1820.372 -1852.117)" fill="#003887"/>
            </g>
          </g>
          <g id="Grupo_61681" data-name="Grupo 61681" transform="translate(0 55.033)">
            <path id="Trazado_121184" data-name="Trazado 121184" d="M1687.443,2003.21c-2.794,1.056-7.167,10.481-10.439,10.694-4.619.3-4.773-6.361-.975-7.117a2.311,2.311,0,0,0-.822-4c-2.374-.738-6.6,1.864-7.332,6.314a8.857,8.857,0,0,0,7.357,10.444c5.711,1.03,8.744-3.647,11.631-7.21C1691.028,2008.047,1693.454,2002.727,1687.443,2003.21Z" transform="translate(-1666.965 -2001.88)" fill="#ffce3b"/>
            <path id="Trazado_121185" data-name="Trazado 121185" d="M1675.464,2019.142a9.873,9.873,0,0,1-9.683-11.495,8.949,8.949,0,0,1,4.06-6.089,5.358,5.358,0,0,1,4.272-.843,2.964,2.964,0,0,1,2.2,2.72,2.85,2.85,0,0,1-1.286,2.735.772.772,0,0,1-.176.057,2.833,2.833,0,0,0-2.027,3.291,2.471,2.471,0,0,0,2.8,2.283c1.448-.094,3.647-3.105,5.414-5.525,1.79-2.45,3.336-4.567,4.8-5.12a.772.772,0,0,1,.213-.048c2.2-.178,3.611.359,4.191,1.591,1.068,2.269-1.425,6.042-4.124,8.826-.258.319-.517.647-.779.978C1682.977,2015.5,1680.092,2019.142,1675.464,2019.142Zm-2.46-17.029a4.661,4.661,0,0,0-2.345.772,7.369,7.369,0,0,0-3.34,5.015,8.08,8.08,0,0,0,6.726,9.551c4.723.85,7.443-2.588,10.074-5.915.274-.346.544-.688.813-1.02.015-.018.03-.036.047-.053,3.184-3.276,4.35-6.052,3.856-7.1-.344-.73-1.685-.767-2.534-.71-1.033.481-2.606,2.635-4,4.542-2.261,3.1-4.4,6.02-6.573,6.161a4.026,4.026,0,0,1-4.446-3.636,4.389,4.389,0,0,1,3.13-4.993,1.68,1.68,0,0,0,.345-1.237,1.422,1.422,0,0,0-1.108-1.288A2.17,2.17,0,0,0,1673,2002.113Z" transform="translate(-1665.64 -2000.555)" fill="#003887"/>
          </g>
        </g>
        <g id="Grupo_61704" data-name="Grupo 61704" transform="translate(94.527 40.806)">
          <g id="Grupo_61684" data-name="Grupo 61684" transform="translate(11.9 7.961)">
            <g id="Grupo_61683" data-name="Grupo 61683">
              <path id="Trazado_121186" data-name="Trazado 121186" d="M1918.968,1982.221V1954.8a2.531,2.531,0,0,1,2.531-2.531h47.479a2.531,2.531,0,0,1,2.531,2.531v64.961a2.531,2.531,0,0,1-2.531,2.531H1924.85Z" transform="translate(-1918.188 -1951.493)" fill="#ffce3b"/>
              <path id="Trazado_121187" data-name="Trazado 121187" d="M1967.654,2021.752h-44.128a.78.78,0,0,1,0-1.559h44.128a1.754,1.754,0,0,0,1.751-1.752V1953.48a1.754,1.754,0,0,0-1.751-1.751h-47.478a1.753,1.753,0,0,0-1.752,1.751V1980.9a.78.78,0,0,1-1.559,0V1953.48a3.315,3.315,0,0,1,3.311-3.31h47.478a3.314,3.314,0,0,1,3.31,3.31v64.961A3.314,3.314,0,0,1,1967.654,2021.752Z" transform="translate(-1916.865 -1950.17)" fill="#003887"/>
            </g>
          </g>
          <g id="Grupo_61685" data-name="Grupo 61685" transform="translate(16.449 12.511)">
            <path id="Trazado_121188" data-name="Trazado 121188" d="M1938.08,1964.544h-5.195a1.646,1.646,0,0,0-1.646,1.646v30.551l2.3,28.666h39.492a1.647,1.647,0,0,0,1.647-1.647V1966.19a1.646,1.646,0,0,0-1.647-1.646H1938.08Z" transform="translate(-1930.459 -1963.764)" fill="#fff"/>
            <path id="Trazado_121189" data-name="Trazado 121189" d="M1971.71,2024.863h-39.492a.779.779,0,0,1-.777-.717l-2.3-28.665c0-.021,0-.042,0-.063v-30.551a2.429,2.429,0,0,1,2.426-2.426h40.148a2.429,2.429,0,0,1,2.426,2.426v57.57A2.429,2.429,0,0,1,1971.71,2024.863Zm-38.772-1.559h38.772a.868.868,0,0,0,.867-.867v-57.57a.869.869,0,0,0-.867-.867h-40.148a.869.869,0,0,0-.867.867v30.52Z" transform="translate(-1929.136 -1962.441)" fill="#003887"/>
          </g>
          <g id="Grupo_61689" data-name="Grupo 61689" transform="translate(22.95 19.663)">
            <g id="Grupo_61686" data-name="Grupo 61686" transform="translate(0 1.847)">
              <path id="Trazado_121190" data-name="Trazado 121190" d="M1951.825,1998.072h-2.67a2.487,2.487,0,0,1-2.484-2.484.779.779,0,0,1,1.559,0,.927.927,0,0,0,.926.925h2.67a.926.926,0,0,0,.925-.925V1994.1a.926.926,0,0,0-.925-.925h-2.67a2.487,2.487,0,0,1-2.484-2.484V1989.2a2.487,2.487,0,0,1,2.484-2.484h2.67a2.487,2.487,0,0,1,2.484,2.484.78.78,0,0,1-1.559,0,.926.926,0,0,0-.925-.925h-2.67a.927.927,0,0,0-.926.925v1.488a.926.926,0,0,0,.926.925h2.67a2.487,2.487,0,0,1,2.484,2.484v1.488A2.487,2.487,0,0,1,1951.825,1998.072Z" transform="translate(-1946.67 -1986.717)" fill="#003887"/>
            </g>
            <g id="Grupo_61687" data-name="Grupo 61687" transform="translate(3.04 11.643)">
              <path id="Trazado_121191" data-name="Trazado 121191" d="M1955.649,2016.356a.78.78,0,0,1-.78-.78v-1.659a.78.78,0,0,1,1.559,0v1.659A.78.78,0,0,1,1955.649,2016.356Z" transform="translate(-1954.869 -2013.138)" fill="#003887"/>
            </g>
            <g id="Grupo_61688" data-name="Grupo 61688" transform="translate(3.04)">
              <path id="Trazado_121192" data-name="Trazado 121192" d="M1955.649,1985.14a.78.78,0,0,1-.78-.78v-1.847a.78.78,0,1,1,1.559,0v1.847A.78.78,0,0,1,1955.649,1985.14Z" transform="translate(-1954.869 -1981.734)" fill="#003887"/>
            </g>
          </g>
          <g id="Grupo_61690" data-name="Grupo 61690" transform="translate(32.765 23.853)">
            <path id="Trazado_121193" data-name="Trazado 121193" d="M1992.773,1994.594h-18.851a.78.78,0,0,1,0-1.559h18.851a.78.78,0,0,1,0,1.559Z" transform="translate(-1973.142 -1993.035)" fill="#003887"/>
          </g>
          <g id="Grupo_61691" data-name="Grupo 61691" transform="translate(32.765 30.451)">
            <path id="Trazado_121194" data-name="Trazado 121194" d="M1992.773,2012.39h-18.851a.78.78,0,1,1,0-1.559h18.851a.78.78,0,1,1,0,1.559Z" transform="translate(-1973.142 -2010.831)" fill="#003887"/>
          </g>
          <g id="Grupo_61692" data-name="Grupo 61692" transform="translate(24.725 36.78)">
            <path id="Trazado_121195" data-name="Trazado 121195" d="M1979.127,2029.461h-26.891a.78.78,0,1,1,0-1.559h26.891a.78.78,0,1,1,0,1.559Z" transform="translate(-1951.456 -2027.902)" fill="#003887"/>
          </g>
          <g id="Grupo_61693" data-name="Grupo 61693" transform="translate(24.725 43.378)">
            <path id="Trazado_121196" data-name="Trazado 121196" d="M1979.127,2047.256h-26.891a.78.78,0,1,1,0-1.559h26.891a.78.78,0,1,1,0,1.559Z" transform="translate(-1951.456 -2045.697)" fill="#003887"/>
          </g>
          <g id="Grupo_61694" data-name="Grupo 61694" transform="translate(28.545 49.707)">
            <path id="Trazado_121197" data-name="Trazado 121197" d="M1985.612,2064.327h-23.071a.779.779,0,0,1,0-1.559h23.071a.779.779,0,1,1,0,1.559Z" transform="translate(-1961.762 -2062.768)" fill="#003887"/>
          </g>
          <g id="Grupo_61695" data-name="Grupo 61695" transform="translate(28.545 56.304)">
            <path id="Trazado_121198" data-name="Trazado 121198" d="M1985.612,2082.122h-23.071a.78.78,0,0,1,0-1.559h23.071a.78.78,0,1,1,0,1.559Z" transform="translate(-1961.762 -2080.563)" fill="#003887"/>
          </g>
          <g id="Grupo_61696" data-name="Grupo 61696" transform="translate(29.526 62.95)">
            <path id="Trazado_121199" data-name="Trazado 121199" d="M1987.277,2100.049h-22.09a.78.78,0,0,1,0-1.559h22.09a.78.78,0,0,1,0,1.559Z" transform="translate(-1964.408 -2098.49)" fill="#003887"/>
          </g>
          <g id="Grupo_61701" data-name="Grupo 61701" transform="translate(0 35.492)">
            <g id="Grupo_61697" data-name="Grupo 61697" transform="translate(1.362)">
              <path id="Trazado_121200" data-name="Trazado 121200" d="M1892.1,2053.264a23.958,23.958,0,0,0,8.425,11.679s5.255,3.927,6.481,3.927c1.107,0,6.234-3.927,6.234-3.927a23.176,23.176,0,0,0,9.275-15.642l.232-3.572.474-8.691a1.364,1.364,0,0,0-.978-1.326,37.594,37.594,0,0,1-14.148-8.692,1.8,1.8,0,0,0-2.439-.008,39.016,39.016,0,0,1-14.147,8.7,1.361,1.361,0,0,0-.965,1.321l.6,11.04q.033.619.1,1.232Z" transform="translate(-1889.765 -2025.758)" fill="#fff"/>
              <path id="Trazado_121201" data-name="Trazado 121201" d="M1905.685,2068.321c-1.341,0-5.305-2.855-6.948-4.082a24.694,24.694,0,0,1-8.7-12.068c-.008-.024-.014-.048-.019-.073l-.85-3.963c-.005-.024-.009-.049-.012-.074-.049-.423-.085-.853-.108-1.279l-.6-11.04a2.138,2.138,0,0,1,1.48-2.1,38.436,38.436,0,0,0,13.869-8.523,2.573,2.573,0,0,1,3.528.013,37,37,0,0,0,13.859,8.512,2.138,2.138,0,0,1,1.5,2.1l-.474,8.691-.233,3.58a23.906,23.906,0,0,1-9.579,16.21C1910.4,2065.76,1906.879,2068.321,1905.685,2068.321Zm-14.152-16.586a23.143,23.143,0,0,0,8.145,11.261c2.372,1.772,5.36,3.712,6.016,3.767.614-.085,3.473-2.022,5.751-3.767a22.351,22.351,0,0,0,8.975-15.112l.228-3.533.474-8.683a.6.6,0,0,0-.458-.548,38.531,38.531,0,0,1-14.437-8.873,1.024,1.024,0,0,0-1.351,0,39.988,39.988,0,0,1-14.426,8.87.6.6,0,0,0-.45.545l.6,11.041c.021.382.053.768.1,1.148Z" transform="translate(-1888.441 -2024.428)" fill="#003887"/>
            </g>
            <g id="Grupo_61698" data-name="Grupo 61698" transform="translate(7.854 12.45)">
              <path id="Trazado_121202" data-name="Trazado 121202" d="M1926.212,2066.694a.781.781,0,0,1-.764-.94,9.162,9.162,0,0,0,.2-1.873,4.308,4.308,0,0,0-8.34-1.521.78.78,0,0,1-1.458,0,4.308,4.308,0,0,0-8.34,1.521,10.187,10.187,0,0,0,.18,1.889.78.78,0,1,1-1.532.289,11.763,11.763,0,0,1-.207-2.178,50.858,50.858,0,0,0,15.387-5.87,5.877,5.877,0,0,1,5.87,5.87,10.717,10.717,0,0,1-.234,2.194A.781.781,0,0,1,1926.212,2066.694Z" transform="translate(-1905.951 -2058.01)" fill="#003887"/>
            </g>
            <g id="Grupo_61699" data-name="Grupo 61699" transform="translate(10.857 25.694)">
              <path id="Trazado_121203" data-name="Trazado 121203" d="M1921.677,2101.843a.779.779,0,0,1-.425-.126,29.76,29.76,0,0,1-7.052-6.749.78.78,0,0,1,1.262-.916,28.609,28.609,0,0,0,6.2,6.052,32.829,32.829,0,0,0,6.054-6.057.78.78,0,1,1,1.252.929,33.851,33.851,0,0,1-6.839,6.725A.777.777,0,0,1,1921.677,2101.843Z" transform="translate(-1914.052 -2093.731)" fill="#003887"/>
            </g>
            <g id="Grupo_61700" data-name="Grupo 61700" transform="translate(0 17.896)">
              <path id="Trazado_121204" data-name="Trazado 121204" d="M1901.367,2081.739a.789.789,0,0,1-.734-.515l-2.014-5.583-1.235,3a.78.78,0,0,1-.721.483h-11.115a.779.779,0,1,1,0-1.559h10.593l1.806-4.386a.78.78,0,0,1,1.454.032l2.033,5.635,1.552-3.576a.779.779,0,0,1,1.394-.072l1.333,2.366h15.162a.779.779,0,1,1,0,1.559h-15.617a.779.779,0,0,1-.679-.4l-.786-1.4-1.709,3.938A.78.78,0,0,1,1901.367,2081.739Z" transform="translate(-1884.768 -2072.698)" fill="#003887"/>
            </g>
          </g>
          <g id="Grupo_61702" data-name="Grupo 61702" transform="translate(24.896)">
            <path id="Trazado_121205" data-name="Trazado 121205" d="M1962.92,1935.175a4.376,4.376,0,0,1,8.751,0h7.212a1.687,1.687,0,0,1,1.687,1.688v8.571a1.687,1.687,0,0,1-1.687,1.687h-23.174a1.687,1.687,0,0,1-1.687-1.687v-8.571a1.687,1.687,0,0,1,1.687-1.687Z" transform="translate(-1953.242 -1930.02)" fill="#5d9af0"/>
            <path id="Trazado_121206" data-name="Trazado 121206" d="M1977.559,1946.577h-23.174a2.47,2.47,0,0,1-2.467-2.467v-8.571a2.47,2.47,0,0,1,2.467-2.467h6.491a5.156,5.156,0,0,1,10.192,0h6.491a2.47,2.47,0,0,1,2.467,2.467v8.571A2.47,2.47,0,0,1,1977.559,1946.577Zm-23.174-11.946a.909.909,0,0,0-.907.908v8.571a.908.908,0,0,0,.907.907h23.174a.909.909,0,0,0,.908-.907v-8.571a.909.909,0,0,0-.908-.908h-7.211a.78.78,0,0,1-.78-.78,3.6,3.6,0,0,0-7.192,0,.779.779,0,0,1-.78.78Z" transform="translate(-1951.918 -1928.697)" fill="#003887"/>
          </g>
          <g id="Grupo_61703" data-name="Grupo 61703" transform="translate(36.612 2.993)">
            <path id="Trazado_121207" data-name="Trazado 121207" d="M1985.622,1940.432a1.558,1.558,0,1,0,1.558-1.558A1.558,1.558,0,0,0,1985.622,1940.432Z" transform="translate(-1984.842 -1938.094)" fill="#fff"/>
            <path id="Trazado_121208" data-name="Trazado 121208" d="M1985.857,1941.447a2.338,2.338,0,1,1,2.338-2.338A2.341,2.341,0,0,1,1985.857,1941.447Zm0-3.116a.779.779,0,1,0,.779.779A.779.779,0,0,0,1985.857,1938.33Z" transform="translate(-1983.519 -1936.771)" fill="#003887"/>
          </g>
        </g>
      </g>
    </g>
    <rect id="Rectángulo_7551" data-name="Rectángulo 7551" width="515" height="212.03" transform="translate(800 1570)" fill="none"/>
  </g>
</svg>
