<svg xmlns="http://www.w3.org/2000/svg" width="86.93" height="86.93" viewBox="0 0 86.93 86.93">
  <g id="Project-Innovation-Idea-Management-Control" transform="translate(0 0)">
    <path id="Trazado_110810" data-name="Trazado 110810" d="M333.559,139.6V206.33a5.9,5.9,0,0,1-.993,3.293,5.978,5.978,0,0,1-.643.812,5.532,5.532,0,0,1-3.96,1.7H277.6a5.7,5.7,0,0,1-5.6-5.8V133.8a5.7,5.7,0,0,1,5.6-5.8h44.77v8.7a2.86,2.86,0,0,0,2.8,2.9Z" transform="translate(-270.601 -126.601)" fill="#e6e7e8"/>
    <path id="Trazado_110811" data-name="Trazado 110811" d="M557.991,420.631v23.127a5.551,5.551,0,0,1-.993,3.176,13.759,13.759,0,0,1-1.931-.951l-3.764,2.826-3.959-3.959,2.826-3.764a13.715,13.715,0,0,1-1.525-3.666L544,436.762v-5.6l4.645-.658a13.716,13.716,0,0,1,1.525-3.666l-2.826-3.763,3.959-3.959,3.764,2.826A13.817,13.817,0,0,1,557.991,420.631Z" transform="translate(-492.943 -363.823)" fill="#d8d7da"/>
    <path id="Trazado_110812" data-name="Trazado 110812" d="M559.732,405.644a13.7,13.7,0,0,1-1.525,3.666l2.826,3.763-3.959,3.959-3.763-2.826a13.706,13.706,0,0,1-3.666,1.525l-.658,4.645h-5.6l-.238-1.637-.42-3.008a13.707,13.707,0,0,1-3.666-1.525l-3.764,2.826-3.959-3.959,2.826-3.763a13.706,13.706,0,0,1-1.525-3.666L528,404.986v-5.6l4.645-.658a13.705,13.705,0,0,1,1.525-3.666l-2.826-3.764,3.959-3.959,3.764,2.826a13.708,13.708,0,0,1,3.666-1.525l.658-4.645h5.6l.658,4.645a13.713,13.713,0,0,1,3.666,1.525l3.763-2.826,3.959,3.959-2.826,3.764a13.715,13.715,0,0,1,1.525,3.666l4.645.658v5.6Z" transform="translate(-478.846 -334.845)" fill="#ff9811"/>
    <path id="Trazado_110813" data-name="Trazado 110813" d="M598.956,448a6.6,6.6,0,0,0-1.4.14,7,7,0,0,0,0,13.711,6.6,6.6,0,0,0,1.4.14,7,7,0,0,0,0-13.991Z" transform="translate(-531.613 -387.652)" fill="#ffd422"/>
    <path id="Trazado_110814" data-name="Trazado 110814" d="M417.592,223.994a9.933,9.933,0,0,0-9.626,9.43,9.731,9.731,0,0,0,2.924,7.331,8.612,8.612,0,0,1,2.672,6.128v5.093a1.4,1.4,0,0,0,1.4,1.4h5.6a1.4,1.4,0,0,0,1.4-1.4v-5.093a8.306,8.306,0,0,1,2.574-6.03,9.793,9.793,0,0,0-6.939-16.859Z" transform="translate(-381.615 -204.811)" fill="#d8d7da"/>
    <path id="Trazado_110815" data-name="Trazado 110815" d="M432.394,344v4.2a1.4,1.4,0,0,1-1.4,1.4h-5.6a1.4,1.4,0,0,1-1.4-1.4V344Z" transform="translate(-394.913 -303.333)" fill="#ee8700"/>
    <path id="Trazado_110816" data-name="Trazado 110816" d="M405.957,230.883v.9h-8.394v-.9a8.612,8.612,0,0,0-2.672-6.128,9.731,9.731,0,0,1-2.924-7.331,9.933,9.933,0,0,1,9.626-9.43,9.793,9.793,0,0,1,6.939,16.859,8.306,8.306,0,0,0-2.574,6.03Z" transform="translate(-368.543 -191.84)" fill="#ffd422"/>
    <path id="Trazado_110817" data-name="Trazado 110817" d="M571.193,139.193H562.8a2.807,2.807,0,0,1-2.8-2.8V128Z" transform="translate(-506.11 -126.601)" fill="#bcbec0"/>
    <path id="Trazado_110818" data-name="Trazado 110818" d="M266.928,199.686V127.244a4.369,4.369,0,0,1,4.392-4.346H316.7v7.244a4.369,4.369,0,0,0,4.392,4.346h7.32v28.977h2.928V133.04a1.44,1.44,0,0,0-.429-1.024L319.2,120.425a1.471,1.471,0,0,0-1.035-.425H271.32a7.291,7.291,0,0,0-7.32,7.244v72.442a7.291,7.291,0,0,0,7.32,7.244H316.7v-2.9H271.32A4.369,4.369,0,0,1,266.928,199.686Zm52.7-69.544v-5.2l6.714,6.644H321.1A1.457,1.457,0,0,1,319.631,130.142Z" transform="translate(-264 -120)"/>
    <path id="Trazado_110819" data-name="Trazado 110819" d="M406.392,211.185A11.192,11.192,0,0,0,395.2,199.991l-.192,0a11.319,11.319,0,0,0-10.994,10.78,11.2,11.2,0,0,0,3.338,8.38,7.233,7.233,0,0,1,2.2,4.624H386.8v2.8h2.8v2.8a2.8,2.8,0,0,0,2.8,2.8H398a2.8,2.8,0,0,0,2.8-2.8v-2.8h2.8v-2.8h-2.746a6.967,6.967,0,0,1,2.1-4.52A11.073,11.073,0,0,0,406.392,211.185ZM392.4,229.373v-2.8H398v2.8Zm5.61-5.6h-5.624a10.025,10.025,0,0,0-3.078-6.619,8.287,8.287,0,0,1-2.5-6.283,8.389,8.389,0,1,1,14.376,6.175q-.091.093-.185.183a9.805,9.805,0,0,0-2.984,6.545Z" transform="translate(-362.002 -185.195)"/>
    <path id="Trazado_110820" data-name="Trazado 110820" d="M428.2,265.4a1.4,1.4,0,0,1-1.4-1.4H424a4.2,4.2,0,0,0,2.8,3.94v5.854h2.8V267.94a4.2,4.2,0,0,0,2.8-3.94h-2.8A1.4,1.4,0,0,1,428.2,265.4Z" transform="translate(-394.913 -237.803)"/>
    <path id="Trazado_110821" data-name="Trazado 110821" d="M440,168h2.8v2.8H440Z" transform="translate(-408.088 -159.606)"/>
    <path id="Trazado_110822" data-name="Trazado 110822" d="M393.072,178.243l2.423-1.4,1.4,2.423-2.423,1.4Z" transform="translate(-369.658 -166.903)"/>
    <path id="Trazado_110823" data-name="Trazado 110823" d="M360.86,211.514l1.4-2.423,2.423,1.4-1.4,2.423Z" transform="translate(-343.289 -192.93)"/>
    <path id="Trazado_110824" data-name="Trazado 110824" d="M352,256h2.8v2.8H352Z" transform="translate(-336.044 -231.341)"/>
    <path id="Trazado_110825" data-name="Trazado 110825" d="M360.861,298.451l2.423-1.4,1.4,2.423-2.423,1.4Z" transform="translate(-343.29 -264.935)"/>
    <path id="Trazado_110826" data-name="Trazado 110826" d="M513.288,299.531l1.4-2.423,2.423,1.4-1.4,2.423Z" transform="translate(-468.067 -264.981)"/>
    <path id="Trazado_110827" data-name="Trazado 110827" d="M528,256h2.8v2.8H528Z" transform="translate(-480.132 -231.341)"/>
    <path id="Trazado_110828" data-name="Trazado 110828" d="M513.269,210.439l2.423-1.4,1.4,2.423-2.423,1.4Z" transform="translate(-468.051 -192.888)"/>
    <path id="Trazado_110829" data-name="Trazado 110829" d="M481.084,179.311l1.4-2.423,2.423,1.4-1.4,2.423Z" transform="translate(-441.705 -166.939)"/>
    <path id="Trazado_110830" data-name="Trazado 110830" d="M557.973,391.4l-3.752-.536a15.182,15.182,0,0,0-.95-2.293l2.273-3.03a1.4,1.4,0,0,0-.13-1.829l-3.957-3.957a1.4,1.4,0,0,0-1.827-.13L546.6,381.9a15.258,15.258,0,0,0-2.293-.949l-.536-3.752a1.4,1.4,0,0,0-1.385-1.2h-5.6a1.4,1.4,0,0,0-1.385,1.2l-.536,3.752a15.186,15.186,0,0,0-2.293.949l-3.032-2.272a1.4,1.4,0,0,0-1.827.13l-3.957,3.957a1.4,1.4,0,0,0-.13,1.829l2.274,3.03a15.19,15.19,0,0,0-.95,2.293l-3.752.536a1.4,1.4,0,0,0-1.2,1.385v5.6a1.4,1.4,0,0,0,1.2,1.385l3.752.536a15.192,15.192,0,0,0,.95,2.293l-2.274,3.03a1.4,1.4,0,0,0,.13,1.829l3.957,3.957a1.4,1.4,0,0,0,1.827.13l3.032-2.272a15.179,15.179,0,0,0,2.293.949l.536,3.752a1.4,1.4,0,0,0,1.385,1.2h5.6a1.4,1.4,0,0,0,1.385-1.2l.536-3.752a15.258,15.258,0,0,0,2.293-.949l3.032,2.272a1.4,1.4,0,0,0,1.827-.13l3.957-3.957a1.4,1.4,0,0,0,.13-1.829l-2.273-3.03a15.185,15.185,0,0,0,.95-2.293l3.752-.536a1.4,1.4,0,0,0,1.2-1.385v-5.6A1.4,1.4,0,0,0,557.973,391.4Zm-1.6,5.768-3.446.492a1.4,1.4,0,0,0-1.157,1.038,12.473,12.473,0,0,1-1.367,3.3,1.4,1.4,0,0,0,.085,1.554l2.088,2.784-2.239,2.239-2.786-2.087a1.4,1.4,0,0,0-1.553-.084,12.4,12.4,0,0,1-3.3,1.364,1.4,1.4,0,0,0-1.041,1.158l-.492,3.447H538l-.491-3.446a1.4,1.4,0,0,0-1.041-1.158,12.4,12.4,0,0,1-3.3-1.364,1.4,1.4,0,0,0-1.553.084l-2.786,2.087L526.6,406.34l2.087-2.784A1.4,1.4,0,0,0,528.77,402a12.48,12.48,0,0,1-1.367-3.3,1.4,1.4,0,0,0-1.157-1.038l-3.447-.494V394l3.446-.492a1.4,1.4,0,0,0,1.157-1.038,12.48,12.48,0,0,1,1.367-3.3,1.4,1.4,0,0,0-.086-1.554l-2.087-2.784,2.238-2.238,2.786,2.087a1.4,1.4,0,0,0,1.553.084,12.4,12.4,0,0,1,3.3-1.364,1.4,1.4,0,0,0,1.041-1.158L538,378.8h3.17l.491,3.446A1.4,1.4,0,0,0,542.7,383.4a12.4,12.4,0,0,1,3.3,1.364,1.4,1.4,0,0,0,1.553-.084l2.786-2.087,2.238,2.239-2.087,2.784a1.4,1.4,0,0,0-.085,1.554,12.478,12.478,0,0,1,1.367,3.3,1.4,1.4,0,0,0,1.157,1.038l3.447.494Z" transform="translate(-472.244 -328.244)"/>
    <path id="Trazado_110831" data-name="Trazado 110831" d="M592.394,440a8.394,8.394,0,1,0,8.394,8.394A8.394,8.394,0,0,0,592.394,440Zm0,13.991a5.6,5.6,0,1,1,5.6-5.6A5.6,5.6,0,0,1,592.394,453.991Z" transform="translate(-525.051 -381.052)"/>
    <path id="Trazado_110832" data-name="Trazado 110832" d="M624,408h2.8v2.8H624Z" transform="translate(-558.725 -355.78)"/>
    <path id="Trazado_110833" data-name="Trazado 110833" d="M569.707,427.674l1.978-1.978,1.978,1.978-1.978,1.978Z" transform="translate(-514.248 -370.239)"/>
    <path id="Trazado_110834" data-name="Trazado 110834" d="M552,480h2.8v2.8H552Z" transform="translate(-499.78 -414.725)"/>
    <path id="Trazado_110835" data-name="Trazado 110835" d="M569.7,529.568l1.978-1.978,1.978,1.978-1.978,1.978Z" transform="translate(-514.239 -453.324)"/>
    <path id="Trazado_110836" data-name="Trazado 110836" d="M624,552h2.8v2.8H624Z" transform="translate(-558.725 -473.465)"/>
    <path id="Trazado_110837" data-name="Trazado 110837" d="M671.51,529.474l1.978-1.978,1.978,1.978-1.978,1.978Z" transform="translate(-597.257 -453.246)"/>
    <path id="Trazado_110838" data-name="Trazado 110838" d="M696,480h2.8v2.8H696Z" transform="translate(-617.464 -414.725)"/>
    <path id="Trazado_110839" data-name="Trazado 110839" d="M671.529,427.86l1.978-1.978,1.978,1.978-1.978,1.978Z" transform="translate(-597.273 -370.392)"/>
    <path id="Trazado_110840" data-name="Trazado 110840" d="M312,416h25.183v2.8H312Z" transform="translate(-303.606 -362.33)"/>
    <path id="Trazado_110841" data-name="Trazado 110841" d="M472,416h5.6v2.8H472Z" transform="translate(-434.238 -362.33)"/>
    <path id="Trazado_110842" data-name="Trazado 110842" d="M312,448h33.578v2.8H312Z" transform="translate(-303.606 -388.528)"/>
    <path id="Trazado_110843" data-name="Trazado 110843" d="M312,480h2.8v2.8H312Z" transform="translate(-303.606 -414.725)"/>
    <path id="Trazado_110844" data-name="Trazado 110844" d="M344,480h27.981v2.8H344Z" transform="translate(-329.263 -414.725)"/>
    <path id="Trazado_110845" data-name="Trazado 110845" d="M312,512h33.578v2.8H312Z" transform="translate(-303.606 -440.46)"/>
  </g>
</svg>
