<svg xmlns="http://www.w3.org/2000/svg" width="515" height="212.53" viewBox="0 0 515 212.53">
  <g id="Grupo_63260" data-name="Grupo 63260" transform="translate(-285 -1569.5)">
    <g id="Grupo_61707" data-name="Grupo 61707">
      <circle id="Elipse_4069-3" data-name="Elipse 4069-3" cx="106.016" cy="106.016" r="106.016" transform="translate(436.5 1569.5)" fill="#fff" opacity="0"/>
      <g id="Grupo_61648" data-name="Grupo 61648" transform="translate(463 1594)">
        <g id="Grupo_61585" data-name="Grupo 61585" transform="translate(25.845 142.51)">
          <path id="Trazado_121072" data-name="Trazado 121072" d="M1006.9,2306.012h-.492a.779.779,0,1,1,.01-1.559h.483a79.12,79.12,0,0,0,8.557-.465.78.78,0,1,1,.169,1.55A80.812,80.812,0,0,1,1006.9,2306.012Zm-9.612-.575a.758.758,0,0,1-.093-.006,81.932,81.932,0,0,1-9.089-1.611.78.78,0,0,1,.359-1.518,80.327,80.327,0,0,0,8.915,1.581.78.78,0,0,1-.092,1.554Zm27.267-1.4a.78.78,0,0,1-.172-1.54,78.975,78.975,0,0,0,8.7-2.511.78.78,0,1,1,.518,1.471,80.521,80.521,0,0,1-8.868,2.561A.768.768,0,0,1,1024.55,2304.032Zm-45.031-2.8a.77.77,0,0,1-.265-.047,80.128,80.128,0,0,1-8.485-3.634.779.779,0,1,1,.7-1.4,78.579,78.579,0,0,0,8.319,3.562.78.78,0,0,1-.265,1.513Zm-16.332-8.144a.776.776,0,0,1-.426-.127,80.359,80.359,0,0,1-7.423-5.484.78.78,0,0,1,1-1.2,78.848,78.848,0,0,0,7.278,5.378.779.779,0,0,1-.427,1.432Z" transform="translate(-955.058 -2286.098)" fill="#003887"/>
        </g>
        <g id="Grupo_61586" data-name="Grupo 61586" transform="translate(127.168 18.984)">
          <path id="Trazado_121073" data-name="Trazado 121073" d="M1257.871,2027.758a.858.858,0,0,1-.111-.008.779.779,0,0,1-.662-.882c.143-1,.268-2.025.373-3.034.206-1.986.338-4,.394-5.985a.8.8,0,0,1,.8-.758.78.78,0,0,1,.757.8c-.057,2.025-.192,4.078-.4,6.1-.106,1.03-.234,2.07-.38,3.094A.78.78,0,0,1,1257.871,2027.758Zm.5-18.244a.779.779,0,0,1-.776-.712,78.728,78.728,0,0,0-1.3-8.955.779.779,0,1,1,1.527-.313,80.206,80.206,0,0,1,1.329,9.134.779.779,0,0,1-.709.844C1258.421,2009.513,1258.4,2009.513,1258.375,2009.513Zm-3.664-17.876a.779.779,0,0,1-.74-.537,79.289,79.289,0,0,0-3.314-8.421.779.779,0,1,1,1.415-.653,80.7,80.7,0,0,1,3.38,8.588.781.781,0,0,1-.741,1.023Zm-7.643-16.572a.779.779,0,0,1-.667-.375,80.1,80.1,0,0,0-5.134-7.455.78.78,0,0,1,1.232-.956,81.625,81.625,0,0,1,5.235,7.6.78.78,0,0,1-.665,1.185Zm-11.189-14.42a.777.777,0,0,1-.558-.235,79.877,79.877,0,0,0-6.681-6.108.78.78,0,0,1,.984-1.209,81.343,81.343,0,0,1,6.812,6.228.78.78,0,0,1-.558,1.324Z" transform="translate(-1228.353 -1952.919)" fill="#003887"/>
        </g>
        <g id="Grupo_61587" data-name="Grupo 61587" transform="translate(5.833 11.716)">
          <path id="Trazado_121074" data-name="Trazado 121074" d="M901.859,1967.479a.78.78,0,0,1-.692-1.137,80.684,80.684,0,0,1,4.7-7.945.78.78,0,0,1,1.294.869,79.248,79.248,0,0,0-4.608,7.791A.78.78,0,0,1,901.859,1967.479Zm10.177-15.151a.78.78,0,0,1-.593-1.286,81.257,81.257,0,0,1,6.381-6.668.78.78,0,1,1,1.063,1.14,79.67,79.67,0,0,0-6.258,6.54A.777.777,0,0,1,912.036,1952.328Zm13.35-12.448a.78.78,0,0,1-.464-1.406,81.169,81.169,0,0,1,7.722-5.056.78.78,0,0,1,.779,1.351,79.6,79.6,0,0,0-7.574,4.959A.779.779,0,0,1,925.386,1939.88Z" transform="translate(-901.08 -1933.313)" fill="#003887"/>
        </g>
        <path id="Trazado_121210" data-name="Trazado 121210" d="M58.718,0A58.718,58.718,0,1,1,0,58.718,58.718,58.718,0,0,1,58.718,0Z" transform="translate(18.885 23.038)" fill="#e77c20"/>
        <g id="Grupo_61608" data-name="Grupo 61608" transform="translate(70.954 61.547)">
          <g id="Grupo_61588" data-name="Grupo 61588" transform="translate(0 66.043)">
            <path id="Trazado_121075" data-name="Trazado 121075" d="M1102.832,2247.956c7.3,0,13.272,5.723,13.272,12.719v7.115a2.735,2.735,0,0,1-2.748,2.721h-31.776a2.734,2.734,0,0,1-2.748-2.721v-7.115c0-7,5.972-12.719,13.272-12.719Z" transform="translate(-1078.052 -2247.176)" fill="#ffce3b"/>
            <path id="Trazado_121076" data-name="Trazado 121076" d="M1112.033,2269.967h-31.776a3.518,3.518,0,0,1-3.527-3.5v-7.115c0-7.443,6.3-13.5,14.051-13.5a.78.78,0,1,1,0,1.559c-6.888,0-12.492,5.355-12.492,11.939v7.115a1.957,1.957,0,0,0,1.968,1.941h31.776a1.957,1.957,0,0,0,1.969-1.941v-7.115c0-6.583-5.6-11.939-12.492-11.939a.78.78,0,1,1,0-1.559c7.748,0,14.051,6.055,14.051,13.5v7.115A3.518,3.518,0,0,1,1112.033,2269.967Z" transform="translate(-1076.729 -2245.853)" fill="#003887"/>
          </g>
          <g id="Grupo_61589" data-name="Grupo 61589" transform="translate(42.987 36.693)">
            <path id="Trazado_121077" data-name="Trazado 121077" d="M1218.779,2168.792c7.3,0,13.272,5.723,13.272,12.719v7.116a2.735,2.735,0,0,1-2.749,2.72h-31.776a2.734,2.734,0,0,1-2.748-2.72v-7.116c0-7,5.972-12.719,13.271-12.719Z" transform="translate(-1193.998 -2168.012)" fill="#5d9af0"/>
            <path id="Trazado_121078" data-name="Trazado 121078" d="M1227.979,2190.8H1196.2a3.517,3.517,0,0,1-3.528-3.5v-7.116c0-7.443,6.3-13.5,14.051-13.5a.78.78,0,1,1,0,1.559c-6.888,0-12.492,5.355-12.492,11.939v7.116a1.957,1.957,0,0,0,1.969,1.94h31.776a1.957,1.957,0,0,0,1.969-1.94v-7.116c0-6.583-5.6-11.939-12.492-11.939a.78.78,0,0,1,0-1.559c7.748,0,14.051,6.055,14.051,13.5v7.116A3.517,3.517,0,0,1,1227.979,2190.8Z" transform="translate(-1192.675 -2166.689)" fill="#003887"/>
          </g>
          <g id="Grupo_61590" data-name="Grupo 61590" transform="translate(35.026 64.096)">
            <path id="Trazado_121079" data-name="Trazado 121079" d="M1215.664,2242.706h-42.358l7.96,6.96v12.178a2.87,2.87,0,0,0,2.876,2.846h31.522a2.87,2.87,0,0,0,2.875-2.846v-16.291A2.87,2.87,0,0,0,1215.664,2242.706Z" transform="translate(-1172.526 -2241.926)" fill="#fff"/>
            <path id="Trazado_121080" data-name="Trazado 121080" d="M1214.341,2264.146h-31.522a3.645,3.645,0,0,1-3.655-3.626V2248.7l-7.694-6.727a.78.78,0,0,1,.513-1.367h42.358a3.645,3.645,0,0,1,3.655,3.626v16.291A3.645,3.645,0,0,1,1214.341,2264.146Zm-40.282-21.984,6.4,5.594a.78.78,0,0,1,.267.587v12.178a2.084,2.084,0,0,0,2.1,2.067h31.522a2.084,2.084,0,0,0,2.1-2.067v-16.291a2.084,2.084,0,0,0-2.1-2.067Z" transform="translate(-1171.203 -2240.603)" fill="#003887"/>
          </g>
          <g id="Grupo_61591" data-name="Grupo 61591" transform="translate(48.138 71.774)">
            <path id="Trazado_121081" data-name="Trazado 121081" d="M1208.671,2263.416h0Z" transform="translate(-1207.891 -2262.636)" fill="#fff"/>
            <path id="Trazado_121082" data-name="Trazado 121082" d="M1223.494,2262.872h-16.146a.78.78,0,1,1,0-1.559h16.146a.78.78,0,1,1,0,1.559Z" transform="translate(-1206.568 -2261.313)" fill="#003887"/>
          </g>
          <g id="Grupo_61592" data-name="Grupo 61592" transform="translate(48.138 78.556)">
            <path id="Trazado_121083" data-name="Trazado 121083" d="M1208.671,2281.708h0Z" transform="translate(-1207.891 -2280.928)" fill="#fff"/>
            <path id="Trazado_121084" data-name="Trazado 121084" d="M1223.494,2281.164h-16.146a.78.78,0,1,1,0-1.559h16.146a.78.78,0,1,1,0,1.559Z" transform="translate(-1206.568 -2279.605)" fill="#003887"/>
          </g>
          <g id="Grupo_61593" data-name="Grupo 61593" transform="translate(69.332 70.887)">
            <path id="Trazado_121085" data-name="Trazado 121085" d="M1265.838,2263.323a2.324,2.324,0,1,1,3.714,1.843,3.733,3.733,0,0,0-1.391,2.645Z" transform="translate(-1265.058 -2260.244)" fill="#fff"/>
            <path id="Trazado_121086" data-name="Trazado 121086" d="M1266.839,2267.267a.78.78,0,0,1-.779-.76,4.509,4.509,0,0,1,1.689-3.277,1.516,1.516,0,0,0,.634-1.23,1.544,1.544,0,0,0-3.088,0,.779.779,0,1,1-1.559,0,3.1,3.1,0,1,1,4.958,2.469,2.963,2.963,0,0,0-1.076,2,.778.778,0,0,1-.76.8Z" transform="translate(-1263.735 -2258.921)" fill="#003887"/>
          </g>
          <g id="Grupo_61594" data-name="Grupo 61594" transform="translate(13.295 64.096)">
            <path id="Trazado_121087" data-name="Trazado 121087" d="M1125.374,2242.706v2.334c0,1.973-2.4,3.588-5.341,3.588s-5.34-1.615-5.34-3.588v-2.334Z" transform="translate(-1113.913 -2241.926)" fill="#fff"/>
            <path id="Trazado_121088" data-name="Trazado 121088" d="M1118.71,2248.083c-3.375,0-6.12-1.959-6.12-4.367v-2.333a.78.78,0,1,1,1.559,0v2.333c0,1.522,2.088,2.808,4.561,2.808s4.561-1.286,4.561-2.808v-2.333a.78.78,0,1,1,1.559,0v2.333C1124.831,2246.124,1122.085,2248.083,1118.71,2248.083Z" transform="translate(-1112.59 -2240.603)" fill="#003887"/>
          </g>
          <g id="Grupo_61595" data-name="Grupo 61595" transform="translate(1.638 34.088)">
            <path id="Trazado_121089" data-name="Trazado 121089" d="M1100.248,2161.766a12.826,12.826,0,0,0-12.859,11.415l-.057,0a3.973,3.973,0,1,0,0,7.942l.057,0a12.951,12.951,0,0,0,25.719,0l.056,0a3.973,3.973,0,1,0,0-7.942l-.056,0Z" transform="translate(-1082.47 -2160.986)" fill="#fff"/>
            <path id="Trazado_121090" data-name="Trazado 121090" d="M1098.925,2191.989a13.7,13.7,0,0,1-13.554-11.453,4.738,4.738,0,0,1,0-9.419,13.7,13.7,0,0,1,13.554-11.453.78.78,0,0,1,0,1.559,12.1,12.1,0,0,0-12.083,10.709.779.779,0,0,1-.776.706l-.086,0a3.193,3.193,0,1,0,.029,6.384.344.344,0,0,1,.057,0,.78.78,0,0,1,.776.706,12.172,12.172,0,0,0,24.167,0,.78.78,0,0,1,.776-.706l.086,0a3.193,3.193,0,1,0-.03-6.384.262.262,0,0,1-.056,0,.78.78,0,1,1,0-1.559.327.327,0,0,1,.056,0,4.745,4.745,0,0,1,.638,9.46A13.7,13.7,0,0,1,1098.925,2191.989Z" transform="translate(-1081.147 -2159.663)" fill="#003887"/>
          </g>
          <g id="Grupo_61596" data-name="Grupo 61596" transform="translate(5.799 34.088)">
            <path id="Trazado_121091" data-name="Trazado 121091" d="M1115.013,2168.167v7.658a2.565,2.565,0,0,0,2.913,2.519,2.615,2.615,0,0,0,2.222-2.614v-10.922a3.057,3.057,0,0,0-3.074-3.042h-9.763c-11.748.834-12.834,11.379-12.838,11.414v2.644a2.565,2.565,0,0,0,2.913,2.519,2.615,2.615,0,0,0,2.222-2.614V2171.7a19.558,19.558,0,0,0,15.4-2.3Z" transform="translate(-1093.693 -2160.987)" fill="#ffce3b"/>
            <path id="Trazado_121092" data-name="Trazado 121092" d="M1116.263,2177.823a3.366,3.366,0,0,1-2.22-.833,3.314,3.314,0,0,1-1.133-2.487v-5.06a20.318,20.318,0,0,1-13.846,1.937v3.028a3.349,3.349,0,0,1-5.561,2.582,3.313,3.313,0,0,1-1.133-2.487v-2.643c0-.026,0-.054,0-.08a14.089,14.089,0,0,1,13.557-12.113l.055,0h9.765a3.841,3.841,0,0,1,3.853,3.821v10.922a3.39,3.39,0,0,1-2.9,3.387A3.351,3.351,0,0,1,1116.263,2177.823Zm-1.794-9.74v6.419a1.754,1.754,0,0,0,.6,1.315,1.785,1.785,0,0,0,1.43.431,1.828,1.828,0,0,0,1.544-1.841v-10.922a2.281,2.281,0,0,0-2.294-2.262h-9.737c-10.7.775-12,9.919-12.085,10.677v2.6a1.754,1.754,0,0,0,.6,1.315,1.787,1.787,0,0,0,1.43.431,1.828,1.828,0,0,0,1.543-1.841v-4.033a.78.78,0,0,1,1.018-.742,18.98,18.98,0,0,0,14.387-1.991v-.8a.779.779,0,1,1,1.559,0v1.214Q1114.469,2168.07,1114.469,2168.083Z" transform="translate(-1092.37 -2159.664)" fill="#003887"/>
          </g>
          <g id="Grupo_61597" data-name="Grupo 61597" transform="translate(56.284 34.349)">
            <path id="Trazado_121093" data-name="Trazado 121093" d="M1241.325,2162.471v2.333c0,1.972-2.4,3.587-5.341,3.587s-5.34-1.615-5.34-3.587v-2.333Z" transform="translate(-1229.865 -2161.691)" fill="#fff"/>
            <path id="Trazado_121094" data-name="Trazado 121094" d="M1234.662,2167.848c-3.375,0-6.12-1.959-6.12-4.367v-2.333a.779.779,0,1,1,1.559,0v2.333c0,1.522,2.089,2.808,4.561,2.808s4.562-1.286,4.562-2.808v-2.333a.779.779,0,1,1,1.559,0v2.333C1240.782,2165.889,1238.037,2167.848,1234.662,2167.848Z" transform="translate(-1228.542 -2160.368)" fill="#003887"/>
          </g>
          <g id="Grupo_61598" data-name="Grupo 61598" transform="translate(44.627 4.34)">
            <path id="Trazado_121095" data-name="Trazado 121095" d="M1216.2,2081.529a12.828,12.828,0,0,0-12.86,11.416c-.019,0-.038,0-.057,0a3.973,3.973,0,1,0,0,7.943l.057,0a12.951,12.951,0,0,0,25.719,0l.057,0a3.973,3.973,0,1,0,0-7.943c-.019,0-.038,0-.057,0Z" transform="translate(-1198.422 -2080.749)" fill="#fff"/>
            <path id="Trazado_121096" data-name="Trazado 121096" d="M1214.877,2111.752a13.7,13.7,0,0,1-13.555-11.454,4.738,4.738,0,0,1,0-9.419,13.7,13.7,0,0,1,13.555-11.453.78.78,0,0,1,0,1.559,12.1,12.1,0,0,0-12.084,10.709.786.786,0,0,1-.807.705l-.06,0a3.193,3.193,0,1,0,.034,6.384l.036,0a.777.777,0,0,1,.8.706,12.172,12.172,0,0,0,24.167,0,.772.772,0,0,1,.8-.707l.057,0a3.193,3.193,0,1,0-.02-6.384l-.027,0a.78.78,0,1,1-.061-1.558c.021,0,.054,0,.088,0a4.745,4.745,0,0,1,.638,9.46A13.7,13.7,0,0,1,1214.877,2111.752Z" transform="translate(-1197.099 -2079.426)" fill="#003887"/>
          </g>
          <g id="Grupo_61599" data-name="Grupo 61599" transform="translate(18.636 70.131)">
            <path id="Trazado_121097" data-name="Trazado 121097" d="M1129.1,2258.982v0Z" transform="translate(-1128.318 -2258.202)" fill="#fff"/>
            <path id="Trazado_121098" data-name="Trazado 121098" d="M1127.775,2269.262a.779.779,0,0,1-.78-.779v-10.823a.779.779,0,0,1,1.559,0v10.823A.779.779,0,0,1,1127.775,2269.262Z" transform="translate(-1126.995 -2256.88)" fill="#003887"/>
          </g>
          <g id="Grupo_61600" data-name="Grupo 61600" transform="translate(48.611)">
            <path id="Rectángulo_7519" data-name="Rectángulo 7519" d="M7.578,0H18.243a7.578,7.578,0,0,1,7.578,7.578v5.934a1.547,1.547,0,0,1-1.547,1.547H1.547A1.547,1.547,0,0,1,0,13.512V7.578A7.578,7.578,0,0,1,7.578,0Z" transform="translate(0.78 0.78)" fill="#5d9af0"/>
            <path id="Trazado_121099" data-name="Trazado 121099" d="M1233.873,2084.338H1209.2a1.355,1.355,0,0,1-1.353-1.353v-11.676a3.593,3.593,0,0,1,3.589-3.589h20.2a3.593,3.593,0,0,1,3.589,3.589v11.676A1.355,1.355,0,0,1,1233.873,2084.338Zm-24.468-1.559h24.262v-11.47a2.032,2.032,0,0,0-2.03-2.03h-20.2a2.032,2.032,0,0,0-2.03,2.03Z" transform="translate(-1207.845 -2067.72)" fill="#003887"/>
          </g>
          <g id="Grupo_61601" data-name="Grupo 61601" transform="translate(71.656 80.54)">
            <path id="Trazado_121100" data-name="Trazado 121100" d="M1272.1,2287.057v0Z" transform="translate(-1271.325 -2286.278)" fill="#fff"/>
            <path id="Trazado_121101" data-name="Trazado 121101" d="M1270.782,2287.3a.779.779,0,0,1-.78-.779v-.782a.78.78,0,1,1,1.559,0v.782A.779.779,0,0,1,1270.782,2287.3Z" transform="translate(-1270.002 -2284.955)" fill="#003887"/>
          </g>
          <g id="Grupo_61604" data-name="Grupo 61604" transform="translate(68.076 38.03)">
            <g id="Grupo_61602" data-name="Grupo 61602" transform="translate(2.641)">
              <path id="Trazado_121102" data-name="Trazado 121102" d="M1269.574,2172.4a11.735,11.735,0,0,1,.655,7.358Z" transform="translate(-1268.794 -2171.618)" fill="#fff"/>
              <path id="Trazado_121103" data-name="Trazado 121103" d="M1268.905,2179.212a.781.781,0,0,1-.754-.98,11.025,11.025,0,0,0-.6-6.813.78.78,0,0,1,1.4-.688,12.437,12.437,0,0,1,.708,7.9A.779.779,0,0,1,1268.905,2179.212Z" transform="translate(-1267.47 -2170.295)" fill="#003887"/>
            </g>
            <g id="Grupo_61603" data-name="Grupo 61603" transform="translate(0 7.266)">
              <ellipse id="Elipse_4301" data-name="Elipse 4301" cx="2.61" cy="2.61" rx="2.61" ry="2.61" transform="translate(0.78 0.78)" fill="#fff"/>
              <path id="Trazado_121104" data-name="Trazado 121104" d="M1263.736,2196.671a3.389,3.389,0,1,1,3.389-3.389A3.393,3.393,0,0,1,1263.736,2196.671Zm0-5.219a1.83,1.83,0,1,0,1.83,1.83A1.832,1.832,0,0,0,1263.736,2191.452Z" transform="translate(-1260.347 -2189.893)" fill="#003887"/>
            </g>
          </g>
          <g id="Grupo_61607" data-name="Grupo 61607" transform="translate(47.138 38.104)">
            <g id="Grupo_61605" data-name="Grupo 61605" transform="translate(4.308)">
              <path id="Trazado_121105" data-name="Trazado 121105" d="M1216.344,2178.251a.78.78,0,0,1-.773-.684,14.843,14.843,0,0,1,.818-6.589.78.78,0,0,1,1.442.593,13.3,13.3,0,0,0-.713,5.805.779.779,0,0,1-.678.869A.75.75,0,0,1,1216.344,2178.251Z" transform="translate(-1215.491 -2170.495)" fill="#003887"/>
            </g>
            <g id="Grupo_61606" data-name="Grupo 61606" transform="translate(0 6.18)">
              <path id="Trazado_121106" data-name="Trazado 121106" d="M1204.731,2200.174a.78.78,0,0,1-.774-.688,19.349,19.349,0,0,1,.777-7.311c.939-3.048,2.394-4.773,4.207-4.987s3.631,1.123,5.255,3.867a19.352,19.352,0,0,1,2.461,6.929.779.779,0,0,1-.683.865l-2,.237a.78.78,0,1,1-.183-1.549l1.194-.141a18.716,18.716,0,0,0-2.133-5.547c-1.249-2.111-2.609-3.249-3.73-3.113s-2.178,1.553-2.9,3.9a18.721,18.721,0,0,0-.78,5.891l1.451-.172a.78.78,0,1,1,.183,1.549l-2.256.267A.768.768,0,0,1,1204.731,2200.174Z" transform="translate(-1203.872 -2187.165)" fill="#003887"/>
            </g>
          </g>
        </g>
        <g id="Grupo_61623" data-name="Grupo 61623" transform="translate(44.599 0)">
          <g id="Grupo_61612" data-name="Grupo 61612">
            <g id="Grupo_61609" data-name="Grupo 61609">
              <path id="Trazado_121107" data-name="Trazado 121107" d="M1042.072,1947.438a23.225,23.225,0,1,1,7.156-34.748Z" transform="translate(-1006.965 -1903.036)" fill="#fff"/>
              <path id="Trazado_121108" data-name="Trazado 121108" d="M1029.644,1949.717a24,24,0,1,1,18.874-38.832.78.78,0,0,1-1.225.964,22.439,22.439,0,1,0-6.917,33.581.78.78,0,0,1,.747,1.369A24.035,24.035,0,0,1,1029.644,1949.717Z" transform="translate(-1005.642 -1901.713)" fill="#003887"/>
            </g>
            <g id="Grupo_61611" data-name="Grupo 61611" transform="translate(8.79 10.26)">
              <g id="Grupo_61610" data-name="Grupo 61610">
                <path id="Trazado_121109" data-name="Trazado 121109" d="M1042.064,1957.314a3.689,3.689,0,0,1-2.61-1.081l-6.92-6.92a3.69,3.69,0,0,1,5.219-5.219l3.911,3.91,11.286-15.048a3.691,3.691,0,1,1,5.905,4.428l-13.839,18.453a3.69,3.69,0,0,1-2.691,1.467C1042.238,1957.311,1042.151,1957.314,1042.064,1957.314Z" transform="translate(-1030.674 -1930.704)" fill="#5d9af0"/>
                <path id="Trazado_121110" data-name="Trazado 121110" d="M1040.741,1956.775a4.44,4.44,0,0,1-3.161-1.31l-6.92-6.92a4.47,4.47,0,0,1,6.322-6.321l3.276,3.275L1051,1931.171a4.47,4.47,0,1,1,7.153,5.364l-13.839,18.453a4.466,4.466,0,0,1-3.26,1.777C1040.952,1956.771,1040.847,1956.775,1040.741,1956.775Zm-6.92-14.3a2.909,2.909,0,0,0-2.059,4.967l6.92,6.92a2.874,2.874,0,0,0,2.264.845,2.907,2.907,0,0,0,2.123-1.156l13.839-18.453a2.911,2.911,0,1,0-4.658-3.493l-11.286,15.048a.78.78,0,0,1-1.175.083l-3.911-3.911A2.9,2.9,0,0,0,1033.821,1942.476Z" transform="translate(-1029.351 -1929.385)" fill="#003887"/>
              </g>
            </g>
          </g>
          <g id="Grupo_61622" data-name="Grupo 61622" transform="translate(25.806 12.856)">
            <g id="Grupo_61621" data-name="Grupo 61621">
              <g id="Grupo_61614" data-name="Grupo 61614" transform="translate(0 43.777)">
                <g id="Grupo_61613" data-name="Grupo 61613">
                  <ellipse id="Elipse_4302" data-name="Elipse 4302" cx="6.369" cy="6.284" rx="6.369" ry="6.284" transform="translate(0.78 0.779)" fill="#ffce3b"/>
                  <path id="Trazado_121111" data-name="Trazado 121111" d="M1082.4,2068.591a7.064,7.064,0,1,1,7.148-7.063A7.114,7.114,0,0,1,1082.4,2068.591Zm0-12.568a5.505,5.505,0,1,0,5.589,5.5A5.553,5.553,0,0,0,1082.4,2056.023Z" transform="translate(-1075.247 -2054.464)" fill="#003887"/>
                </g>
              </g>
              <g id="Grupo_61615" data-name="Grupo 61615" transform="translate(9.821 23.496)">
                <path id="Trazado_121112" data-name="Trazado 121112" d="M1142.665,2001.864h-6.386a13.028,13.028,0,0,1-26.054,0h-6.386a19.238,19.238,0,0,0,16.356,18.916v5.368h6.114v-5.368A19.238,19.238,0,0,0,1142.665,2001.864Z" transform="translate(-1103.059 -2001.085)" fill="#ffce3b"/>
                <path id="Trazado_121113" data-name="Trazado 121113" d="M1124.986,2025.6h-6.115a.779.779,0,0,1-.78-.78v-4.711a19.9,19.9,0,0,1-16.356-19.573.779.779,0,0,1,.78-.779h6.386a.779.779,0,0,1,.78.779,12.249,12.249,0,0,0,24.5,0,.779.779,0,0,1,.78-.779h6.385a.78.78,0,0,1,.78.779,19.894,19.894,0,0,1-16.355,19.573v4.711A.779.779,0,0,1,1124.986,2025.6Zm-5.335-1.559h4.556v-4.589a.78.78,0,0,1,.659-.77,18.361,18.361,0,0,0,15.68-17.366h-4.832a13.818,13.818,0,0,1-27.569,0h-4.832a18.361,18.361,0,0,0,15.68,17.366.78.78,0,0,1,.659.77Z" transform="translate(-1101.736 -1999.762)" fill="#003887"/>
              </g>
              <g id="Grupo_61616" data-name="Grupo 61616" transform="translate(17.624)">
                <path id="Trazado_121114" data-name="Trazado 121114" d="M1130.471,1942.81h-3.426a2.16,2.16,0,1,1,0-4.319h3.426a2.16,2.16,0,1,1,0,4.319Z" transform="translate(-1124.106 -1937.711)" fill="#ffce3b"/>
                <path id="Trazado_121115" data-name="Trazado 121115" d="M1129.148,1942.266h-3.426a2.939,2.939,0,1,1,0-5.878h3.426a2.939,2.939,0,1,1,0,5.878Zm-3.426-4.319a1.38,1.38,0,0,0,0,2.76h3.426a1.38,1.38,0,1,0,0-2.76Z" transform="translate(-1122.783 -1936.388)" fill="#003887"/>
              </g>
              <g id="Grupo_61617" data-name="Grupo 61617" transform="translate(32.934)">
                <path id="Trazado_121116" data-name="Trazado 121116" d="M1171.766,1942.81h-3.426a2.16,2.16,0,1,1,0-4.319h3.426a2.16,2.16,0,1,1,0,4.319Z" transform="translate(-1165.402 -1937.711)" fill="#ffce3b"/>
                <path id="Trazado_121117" data-name="Trazado 121117" d="M1170.444,1942.266h-3.426a2.939,2.939,0,0,1,0-5.878h3.426a2.939,2.939,0,1,1,0,5.878Zm-3.426-4.319a1.38,1.38,0,1,0,0,2.76h3.426a1.38,1.38,0,1,0,0-2.76Z" transform="translate(-1164.079 -1936.388)" fill="#003887"/>
              </g>
              <g id="Grupo_61618" data-name="Grupo 61618" transform="translate(12.737 2.16)">
                <path id="Trazado_121118" data-name="Trazado 121118" d="M1110.382,1965.108a.779.779,0,0,1-.779-.779v-17.841a4.3,4.3,0,0,1,4.322-4.275h1.344a.779.779,0,1,1,0,1.559h-1.344a2.743,2.743,0,0,0-2.763,2.716v17.841A.779.779,0,0,1,1110.382,1965.108Z" transform="translate(-1109.603 -1942.213)" fill="#003887"/>
              </g>
              <g id="Grupo_61619" data-name="Grupo 61619" transform="translate(40.679 2.16)">
                <path id="Trazado_121119" data-name="Trazado 121119" d="M1190.635,1965.108a.78.78,0,0,1-.78-.779v-17.841a2.743,2.743,0,0,0-2.763-2.716h-1.344a.779.779,0,1,1,0-1.559h1.344a4.3,4.3,0,0,1,4.322,4.275v17.841A.779.779,0,0,1,1190.635,1965.108Z" transform="translate(-1184.969 -1942.213)" fill="#003887"/>
              </g>
              <g id="Grupo_61620" data-name="Grupo 61620" transform="translate(6.368 47.78)">
                <path id="Trazado_121120" data-name="Trazado 121120" d="M1104.636,2089.951a12.151,12.151,0,0,1-12.212-12.06v-3.285a.78.78,0,1,1,1.559,0v3.285a10.654,10.654,0,0,0,21.306,0v-11.85a.78.78,0,0,1,1.559,0v11.85A12.151,12.151,0,0,1,1104.636,2089.951Z" transform="translate(-1092.424 -2065.262)" fill="#003887"/>
              </g>
            </g>
          </g>
        </g>
        <g id="Radiology_department" data-name="Radiology department" transform="translate(0 47.567)">
          <g id="Grupo_61637" data-name="Grupo 61637">
            <g id="Grupo_61629" data-name="Grupo 61629">
              <g id="Grupo_61624" data-name="Grupo 61624" transform="translate(0 9.176)">
                <path id="Trazado_121121" data-name="Trazado 121121" d="M936.729,2085.081v-26.322a1.9,1.9,0,0,0-1.895-1.895H889.346a1.894,1.894,0,0,0-1.895,1.895v56.12h25.073Z" transform="translate(-886.671 -2056.084)" fill="#fff"/>
                <path id="Trazado_121122" data-name="Trazado 121122" d="M911.2,2114.334H886.128a.779.779,0,0,1-.78-.78v-56.12a2.677,2.677,0,0,1,2.674-2.674h45.489a2.677,2.677,0,0,1,2.674,2.674v26.322a.78.78,0,1,1-1.559,0v-26.322a1.116,1.116,0,0,0-1.115-1.115H888.022a1.116,1.116,0,0,0-1.115,1.115v55.34H911.2a.78.78,0,1,1,0,1.559Z" transform="translate(-885.348 -2054.761)" fill="#003887"/>
              </g>
              <g id="Grupo_61627" data-name="Grupo 61627" transform="translate(10.376)">
                <g id="Grupo_61625" data-name="Grupo 61625" transform="translate(0 5.131)">
                  <path id="Trazado_121123" data-name="Trazado 121123" d="M915.436,2045.955h0Z" transform="translate(-914.657 -2045.175)" fill="#fff"/>
                  <path id="Trazado_121124" data-name="Trazado 121124" d="M943.341,2045.411H914.113a.779.779,0,0,1,0-1.559h29.228a.779.779,0,1,1,0,1.559Z" transform="translate(-913.334 -2043.852)" fill="#003887"/>
                </g>
                <g id="Grupo_61626" data-name="Grupo 61626" transform="translate(3.06)">
                  <rect id="Rectángulo_7520" data-name="Rectángulo 7520" width="23.274" height="5.131" transform="translate(0.78 0.78)" fill="#5d9af0"/>
                  <path id="Trazado_121125" data-name="Trazado 121125" d="M945.641,2036.7H922.368a.779.779,0,0,1-.78-.779v-5.131a.78.78,0,0,1,.78-.78h23.274a.779.779,0,0,1,.78.78v5.131A.779.779,0,0,1,945.641,2036.7Zm-22.494-1.559h21.715v-3.572H923.147Z" transform="translate(-921.588 -2030.012)" fill="#003887"/>
                </g>
              </g>
              <g id="Grupo_61628" data-name="Grupo 61628" transform="translate(0 9.176)">
                <path id="Trazado_121126" data-name="Trazado 121126" d="M886.128,2114.334a.779.779,0,0,1-.78-.78v-56.12a2.677,2.677,0,0,1,2.674-2.674h45.489a2.677,2.677,0,0,1,2.674,2.674v26.322a.78.78,0,1,1-1.559,0v-26.322a1.116,1.116,0,0,0-1.115-1.115H888.022a1.116,1.116,0,0,0-1.115,1.115v56.12A.779.779,0,0,1,886.128,2114.334Z" transform="translate(-885.348 -2054.761)" fill="#003887"/>
              </g>
            </g>
            <g id="Grupo_61636" data-name="Grupo 61636" transform="translate(7.201 15.673)">
              <g id="Grupo_61630" data-name="Grupo 61630" transform="translate(32.758 1.499)">
                <path id="Trazado_121127" data-name="Trazado 121127" d="M995.232,2078.433h0Z" transform="translate(-994.452 -2077.653)" fill="#fff"/>
                <path id="Trazado_121128" data-name="Trazado 121128" d="M996.925,2077.889h-3.016a.779.779,0,1,1,0-1.559h3.016a.779.779,0,1,1,0,1.559Z" transform="translate(-993.129 -2076.33)" fill="#003887"/>
              </g>
              <g id="Grupo_61631" data-name="Grupo 61631" transform="translate(24.771 1.499)">
                <path id="Trazado_121129" data-name="Trazado 121129" d="M973.688,2078.433h0Z" transform="translate(-972.908 -2077.653)" fill="#fff"/>
                <path id="Trazado_121130" data-name="Trazado 121130" d="M978.573,2077.889h-6.208a.779.779,0,1,1,0-1.559h6.208a.779.779,0,1,1,0,1.559Z" transform="translate(-971.585 -2076.33)" fill="#003887"/>
              </g>
              <g id="Grupo_61632" data-name="Grupo 61632" transform="translate(24.555 8.22)">
                <path id="Trazado_121131" data-name="Trazado 121131" d="M973.105,2096.559h0Z" transform="translate(-972.325 -2095.779)" fill="#fff"/>
                <path id="Trazado_121132" data-name="Trazado 121132" d="M983.507,2096.015H971.782a.78.78,0,1,1,0-1.559h11.725a.78.78,0,1,1,0,1.559Z" transform="translate(-971.002 -2094.456)" fill="#003887"/>
              </g>
              <g id="Grupo_61633" data-name="Grupo 61633" transform="translate(24.555 14.94)">
                <path id="Trazado_121133" data-name="Trazado 121133" d="M973.105,2114.685h0Z" transform="translate(-972.325 -2113.905)" fill="#fff"/>
                <path id="Trazado_121134" data-name="Trazado 121134" d="M983.507,2114.141H971.782a.78.78,0,1,1,0-1.559h11.725a.78.78,0,1,1,0,1.559Z" transform="translate(-971.002 -2112.582)" fill="#003887"/>
              </g>
              <g id="Grupo_61635" data-name="Grupo 61635">
                <g id="Grupo_61634" data-name="Grupo 61634">
                  <path id="Trazado_121135" data-name="Trazado 121135" d="M916.3,2089.895l6.2-5.476c2.742-2.742,3.159-4.338,2.692-6.207a4.912,4.912,0,0,0-3.616-3.675c-1.922-.539-4,.455-5.416,1.857l-.032.032-.032-.032c-1.42-1.4-3.494-2.4-5.416-1.857a4.913,4.913,0,0,0-3.616,3.675c-.467,1.869-.215,3.3,2.758,6.274l6.134,5.41A.258.258,0,0,0,916.3,2089.895Z" transform="translate(-906.102 -2073.608)" fill="#ffce3b"/>
                  <path id="Trazado_121136" data-name="Trazado 121136" d="M914.8,2089.416a1.036,1.036,0,0,1-.687-.26l-6.134-5.409c-3.225-3.223-3.536-4.9-3-7.048a5.7,5.7,0,0,1,4.162-4.237,10.883,10.883,0,0,0,11.316,0,5.7,5.7,0,0,1,4.162,4.237c.591,2.362-.194,4.245-2.9,6.947l-6.236,5.51A1.038,1.038,0,0,1,914.8,2089.416Zm-4.343-15.573a3.3,3.3,0,0,0-.894.121,4.147,4.147,0,0,0-3.071,3.114c-.36,1.44-.377,2.6,2.553,5.533l5.754,5.072,5.856-5.171c2.556-2.559,2.838-3.888,2.451-5.434a4.147,4.147,0,0,0-3.07-3.114c-1.708-.48-3.526.544-4.657,1.661a.819.819,0,0,1-1.134.025A5.771,5.771,0,0,0,910.461,2073.843Z" transform="translate(-904.772 -2072.286)" fill="#003887"/>
                </g>
              </g>
            </g>
          </g>
          <g id="Grupo_61647" data-name="Grupo 61647" transform="translate(9.394 36.601)">
            <g id="Grupo_61638" data-name="Grupo 61638">
              <path id="Rectángulo_7521" data-name="Rectángulo 7521" d="M3.586,0H44.751a3.585,3.585,0,0,1,3.585,3.585V44.751a3.586,3.586,0,0,1-3.586,3.586H3.586A3.586,3.586,0,0,1,0,44.751V3.586A3.586,3.586,0,0,1,3.586,0Z" transform="translate(0.78 0.779)" fill="#fff"/>
              <path id="Trazado_121137" data-name="Trazado 121137" d="M958.471,2178.628H912.794a2.111,2.111,0,0,1-2.109-2.109v-45.677a2.111,2.111,0,0,1,2.109-2.109h45.677a2.111,2.111,0,0,1,2.109,2.109v45.677A2.111,2.111,0,0,1,958.471,2178.628Zm-45.677-48.336a.551.551,0,0,0-.55.55v45.677a.551.551,0,0,0,.55.55h45.677a.551.551,0,0,0,.55-.55v-45.677a.551.551,0,0,0-.55-.55Z" transform="translate(-910.685 -2128.733)" fill="#003887"/>
            </g>
            <g id="Grupo_61646" data-name="Grupo 61646" transform="translate(10.049 3.223)">
              <g id="Grupo_61639" data-name="Grupo 61639" transform="translate(19.812 39.303)">
                <path id="Trazado_121138" data-name="Trazado 121138" d="M995.768,2245.538a4.4,4.4,0,0,1-2.438.736Z" transform="translate(-992.55 -2244.758)" fill="#fff"/>
                <path id="Trazado_121139" data-name="Trazado 121139" d="M992.007,2245.73a.779.779,0,1,1,0-1.559,3.619,3.619,0,0,0,2.007-.606.78.78,0,1,1,.862,1.3A5.173,5.173,0,0,1,992.007,2245.73Z" transform="translate(-991.227 -2243.435)" fill="#003887"/>
              </g>
              <g id="Grupo_61640" data-name="Grupo 61640" transform="translate(3.766 31.182)">
                <path id="Trazado_121140" data-name="Trazado 121140" d="M954.48,2232.49a4.429,4.429,0,1,1,0-8.857H966.1a4.442,4.442,0,0,1,4.429,4.429,4.387,4.387,0,0,1-.118,1.016Z" transform="translate(-949.271 -2222.853)" fill="#fff"/>
                <path id="Trazado_121141" data-name="Trazado 121141" d="M953.157,2231.947a5.208,5.208,0,1,1,0-10.417h11.617a5.208,5.208,0,0,1,5.069,6.4.78.78,0,0,1-1.517-.359,3.648,3.648,0,0,0-3.552-4.486H953.157a3.649,3.649,0,1,0,0,7.3.78.78,0,1,1,0,1.559Z" transform="translate(-947.948 -2221.53)" fill="#003887"/>
              </g>
              <g id="Grupo_61641" data-name="Grupo 61641" transform="translate(13.642 5.119)">
                <path id="Trazado_121142" data-name="Trazado 121142" d="M976.688,2153.334v0Z" transform="translate(-975.908 -2152.554)" fill="#fff"/>
                <path id="Trazado_121143" data-name="Trazado 121143" d="M975.364,2178.9a.779.779,0,0,1-.779-.779v-26.11a.779.779,0,1,1,1.559,0v26.11A.779.779,0,0,1,975.364,2178.9Z" transform="translate(-974.585 -2151.231)" fill="#003887"/>
              </g>
              <g id="Grupo_61642" data-name="Grupo 61642" transform="translate(0 9.063)">
                <path id="Trazado_121144" data-name="Trazado 121144" d="M939.892,2171.582c0-4.2,6.108-7.608,13.642-7.608s13.642,3.406,13.642,7.608Z" transform="translate(-939.112 -2163.194)" fill="#fff"/>
                <path id="Trazado_121145" data-name="Trazado 121145" d="M965.852,2171.038a.779.779,0,0,1-.779-.779c0-3.7-5.89-6.828-12.863-6.828s-12.862,3.126-12.862,6.828a.78.78,0,0,1-1.559,0c0-4.7,6.335-8.387,14.421-8.387s14.422,3.684,14.422,8.387A.779.779,0,0,1,965.852,2171.038Z" transform="translate(-937.789 -2161.871)" fill="#003887"/>
              </g>
              <g id="Grupo_61643" data-name="Grupo 61643" transform="translate(4.379 15.872)">
                <path id="Trazado_121146" data-name="Trazado 121146" d="M951.7,2187.505c0-2.853,4.147-5.166,9.263-5.166s9.263,2.313,9.263,5.166Z" transform="translate(-950.923 -2181.56)" fill="#fff"/>
                <path id="Trazado_121147" data-name="Trazado 121147" d="M968.906,2186.962a.779.779,0,0,1-.779-.78c0-2.377-3.885-4.386-8.484-4.386s-8.484,2.009-8.484,4.386a.779.779,0,1,1-1.559,0c0-3.334,4.411-5.945,10.042-5.945s10.043,2.612,10.043,5.945A.779.779,0,0,1,968.906,2186.962Z" transform="translate(-949.6 -2180.237)" fill="#003887"/>
              </g>
              <g id="Grupo_61644" data-name="Grupo 61644" transform="translate(8.766 21.837)">
                <path id="Trazado_121148" data-name="Trazado 121148" d="M963.537,2202.841a4.9,4.9,0,0,1,9.751,0Z" transform="translate(-962.757 -2197.647)" fill="#fff"/>
                <path id="Trazado_121149" data-name="Trazado 121149" d="M971.965,2202.3a.78.78,0,0,1-.78-.78,4.125,4.125,0,0,0-8.192,0,.78.78,0,0,1-1.559,0,5.676,5.676,0,0,1,11.31,0A.78.78,0,0,1,971.965,2202.3Z" transform="translate(-961.434 -2196.324)" fill="#003887"/>
              </g>
              <g id="Grupo_61645" data-name="Grupo 61645" transform="translate(13.548)">
                <path id="Trazado_121150" data-name="Trazado 121150" d="M976.434,2139.528v0Z" transform="translate(-975.654 -2138.748)" fill="#fff"/>
                <path id="Trazado_121151" data-name="Trazado 121151" d="M975.111,2140.956a.779.779,0,0,1-.78-.779V2138.2a.78.78,0,0,1,1.559,0v1.972A.779.779,0,0,1,975.111,2140.956Z" transform="translate(-974.331 -2137.425)" fill="#003887"/>
              </g>
            </g>
          </g>
        </g>
      </g>
    </g>
    <rect id="Rectángulo_7550" data-name="Rectángulo 7550" width="515" height="212.03" transform="translate(285 1570)" fill="none"/>
  </g>
</svg>
