<svg xmlns="http://www.w3.org/2000/svg" width="400" height="266.862" viewBox="0 0 400 266.862">
  <g id="Grupo_61336" data-name="Grupo 61336" transform="translate(-816.812 -490.074)">
    <g id="Grupo_61185" data-name="Grupo 61185" transform="translate(821.926 490.074)">
      <path id="Trazado_120385" data-name="Trazado 120385" d="M923.586,746.978c57.385,14.4,151.193,16.006,214.507-14.3,58.486-27.993,70.524-130.915,30.385-189.293-28.525-41.486-83.175-58.037-135.579-52.157-61.834,6.937-78.239,49.695-119.269,80.416-25.531,19.113-77.675,14.411-87.523,70.182C814.892,705.384,883.966,737.035,923.586,746.978Z" transform="translate(-824.892 -490.074)" fill="#feefe6"/>
    </g>
    <g id="Grupo_61224" data-name="Grupo 61224" transform="translate(816.812 589.33)">
      <g id="Grupo_61190" data-name="Grupo 61190" transform="translate(304.587 20.667)">
        <g id="Grupo_61187" data-name="Grupo 61187">
          <path id="Trazado_120386" data-name="Trazado 120386" d="M1298.072,815c7.361-127.693,62.9-143.414,71.625-132.668C1387.969,704.838,1324.527,775.3,1298.072,815Z" transform="translate(-1298.072 -679.557)" fill="#d49ba0"/>
          <g id="Grupo_61186" data-name="Grupo 61186" transform="translate(1.506 7.826)">
            <path id="Trazado_120387" data-name="Trazado 120387" d="M1364.52,691.922a299.189,299.189,0,0,0-64.068,126.6" transform="translate(-1300.452 -691.922)" fill="none" stroke="#f2cdbf" stroke-linecap="round" stroke-miterlimit="10" stroke-width="1"/>
            <path id="Trazado_120388" data-name="Trazado 120388" d="M1375.792,693.652a55.98,55.98,0,0,1,2.911,16.607,92.247,92.247,0,0,1,18.069-2.057" transform="translate(-1328.11 -692.557)" fill="none" stroke="#f2cdbf" stroke-linecap="round" stroke-miterlimit="10" stroke-width="1"/>
            <path id="Trazado_120389" data-name="Trazado 120389" d="M1342.012,728.622a70.589,70.589,0,0,1,7.626,19.48,98.585,98.585,0,0,1,21.5-2.183" transform="translate(-1315.709 -705.395)" fill="none" stroke="#f2cdbf" stroke-linecap="round" stroke-miterlimit="10" stroke-width="1"/>
            <path id="Trazado_120390" data-name="Trazado 120390" d="M1318.732,779.332a93.167,93.167,0,0,1,7.5,14.379,53.864,53.864,0,0,1,21.588-3.892" transform="translate(-1307.163 -724.011)" fill="none" stroke="#f2cdbf" stroke-linecap="round" stroke-miterlimit="10" stroke-width="1"/>
            <path id="Trazado_120391" data-name="Trazado 120391" d="M1330.148,822.63a45.778,45.778,0,0,0-13.392,1,43.009,43.009,0,0,0-4.8-10.278" transform="translate(-1304.674 -736.499)" fill="none" stroke="#f2cdbf" stroke-linecap="round" stroke-miterlimit="10" stroke-width="1"/>
          </g>
        </g>
        <g id="Grupo_61189" data-name="Grupo 61189" transform="translate(0 63.277)">
          <path id="Trazado_120392" data-name="Trazado 120392" d="M1298.072,851.7c40.822-65,92.934-86.416,95.3-62.929C1396.658,821.3,1326.255,842.526,1298.072,851.7Z" transform="translate(-1298.072 -779.537)" fill="#d49ba0"/>
          <g id="Grupo_61188" data-name="Grupo 61188" transform="translate(1.006 4.75)">
            <path id="Trazado_120393" data-name="Trazado 120393" d="M1387.47,797.762a345.485,345.485,0,0,0-87.808,60.112" transform="translate(-1299.662 -790.977)" fill="none" stroke="#f2cdbf" stroke-linecap="round" stroke-miterlimit="10" stroke-width="1"/>
            <path id="Trazado_120394" data-name="Trazado 120394" d="M1419.4,787.042a54.419,54.419,0,0,1-1.291,13.506,23.181,23.181,0,0,1,12.266,5.006" transform="translate(-1343.145 -787.042)" fill="none" stroke="#f2cdbf" stroke-linecap="round" stroke-miterlimit="10" stroke-width="1"/>
            <path id="Trazado_120395" data-name="Trazado 120395" d="M1385.772,802.922a68.08,68.08,0,0,1,.988,14.481,36.727,36.727,0,0,1,16.961,5.994" transform="translate(-1331.273 -792.872)" fill="none" stroke="#f2cdbf" stroke-linecap="round" stroke-miterlimit="10" stroke-width="1"/>
            <path id="Trazado_120396" data-name="Trazado 120396" d="M1353.232,826.592a26.685,26.685,0,0,1,2.266,11.955,35.968,35.968,0,0,1,15.835,5.12" transform="translate(-1319.328 -801.561)" fill="none" stroke="#f2cdbf" stroke-linecap="round" stroke-miterlimit="10" stroke-width="1"/>
          </g>
        </g>
      </g>
      <g id="Grupo_61214" data-name="Grupo 61214" transform="translate(232.982 34.176)">
        <g id="Grupo_61199" data-name="Grupo 61199" transform="translate(0 19.924)">
          <rect id="Rectángulo_7403" data-name="Rectángulo 7403" width="90.504" height="9.493" fill="#f2cdbf"/>
          <g id="Grupo_61191" data-name="Grupo 61191" transform="translate(2.665 9.493)">
            <path id="Trazado_120397" data-name="Trazado 120397" d="M1274.311,747.382V839.9h-8.019v-5.063h-69.163V839.9h-7.987V747.382Z" transform="translate(-1189.142 -747.382)" fill="#f2cdbf"/>
            <rect id="Rectángulo_7404" data-name="Rectángulo 7404" width="85.162" height="1.899" fill="#d4a59b"/>
          </g>
          <g id="Grupo_61198" data-name="Grupo 61198" transform="translate(10.487 15.886)">
            <g id="Grupo_61193" data-name="Grupo 61193">
              <g id="Grupo_61192" data-name="Grupo 61192">
                <rect id="Rectángulo_7405" data-name="Rectángulo 7405" width="67.878" height="20.569" transform="translate(0.696 1.899)" fill="#d4a59b"/>
                <rect id="Rectángulo_7406" data-name="Rectángulo 7406" width="69.27" height="20.569" fill="#faded2"/>
              </g>
            </g>
            <g id="Grupo_61195" data-name="Grupo 61195" transform="translate(0 25.949)">
              <g id="Grupo_61194" data-name="Grupo 61194">
                <rect id="Rectángulo_7407" data-name="Rectángulo 7407" width="67.878" height="20.569" transform="translate(0.696 1.899)" fill="#d4a59b"/>
                <rect id="Rectángulo_7408" data-name="Rectángulo 7408" width="69.27" height="20.569" fill="#faded2"/>
              </g>
            </g>
            <g id="Grupo_61197" data-name="Grupo 61197" transform="translate(0 51.897)">
              <g id="Grupo_61196" data-name="Grupo 61196">
                <rect id="Rectángulo_7409" data-name="Rectángulo 7409" width="67.878" height="20.569" transform="translate(0.696 1.899)" fill="#d4a59b"/>
                <rect id="Rectángulo_7410" data-name="Rectángulo 7410" width="69.27" height="20.569" fill="#faded2"/>
              </g>
            </g>
          </g>
        </g>
        <g id="Grupo_61213" data-name="Grupo 61213" transform="translate(15.74)">
          <g id="Grupo_61210" data-name="Grupo 61210" transform="translate(5.747 0)">
            <g id="Grupo_61201" data-name="Grupo 61201">
              <g id="Grupo_61200" data-name="Grupo 61200">
                <path id="Trazado_120398" data-name="Trazado 120398" d="M1220.012,716.74v-14.4h3.956v14.4a1.74,1.74,0,0,1-1.741,1.74h-.475A1.74,1.74,0,0,1,1220.012,716.74Z" transform="translate(-1219.297 -701.431)" fill="#fff"/>
                <path id="Trazado_120399" data-name="Trazado 120399" d="M1218.882,701.358h0a.458.458,0,0,1,.456-.456h4.475a.458.458,0,0,1,.456.456h0a.458.458,0,0,1-.456.456h-4.475A.462.462,0,0,1,1218.882,701.358Z" transform="translate(-1218.882 -700.902)" fill="#fff"/>
              </g>
              <path id="Trazado_120400" data-name="Trazado 120400" d="M1221.012,719.259v-9.417h2.69v9.417a1.342,1.342,0,0,1-1.342,1.342h0A1.344,1.344,0,0,1,1221.012,719.259Z" transform="translate(-1219.664 -704.184)" fill="#f0d3d8"/>
            </g>
            <g id="Grupo_61203" data-name="Grupo 61203" transform="translate(7.911)">
              <g id="Grupo_61202" data-name="Grupo 61202">
                <path id="Trazado_120401" data-name="Trazado 120401" d="M1232.512,716.74v-14.4h3.956v14.4a1.739,1.739,0,0,1-1.74,1.74h-.475A1.739,1.739,0,0,1,1232.512,716.74Z" transform="translate(-1231.797 -701.431)" fill="#fff"/>
                <path id="Trazado_120402" data-name="Trazado 120402" d="M1231.382,701.358h0a.458.458,0,0,1,.456-.456h4.475a.458.458,0,0,1,.456.456h0a.458.458,0,0,1-.456.456h-4.475A.462.462,0,0,1,1231.382,701.358Z" transform="translate(-1231.382 -700.902)" fill="#fff"/>
              </g>
              <path id="Trazado_120403" data-name="Trazado 120403" d="M1233.512,719.259v-9.417h2.69v9.417a1.342,1.342,0,0,1-1.342,1.342h0A1.344,1.344,0,0,1,1233.512,719.259Z" transform="translate(-1232.164 -704.184)" fill="#f0d3d8"/>
            </g>
            <g id="Grupo_61205" data-name="Grupo 61205" transform="translate(16.297)">
              <g id="Grupo_61204" data-name="Grupo 61204">
                <path id="Trazado_120404" data-name="Trazado 120404" d="M1245.762,716.74v-14.4h3.956v14.4a1.739,1.739,0,0,1-1.741,1.74h-.475A1.739,1.739,0,0,1,1245.762,716.74Z" transform="translate(-1245.047 -701.431)" fill="#fff"/>
                <path id="Trazado_120405" data-name="Trazado 120405" d="M1244.632,701.358h0a.458.458,0,0,1,.456-.456h4.475a.458.458,0,0,1,.456.456h0a.458.458,0,0,1-.456.456h-4.475A.462.462,0,0,1,1244.632,701.358Z" transform="translate(-1244.632 -700.902)" fill="#fff"/>
              </g>
              <path id="Trazado_120406" data-name="Trazado 120406" d="M1246.762,719.259v-9.417h2.69v9.417a1.342,1.342,0,0,1-1.342,1.342h0A1.344,1.344,0,0,1,1246.762,719.259Z" transform="translate(-1245.414 -704.184)" fill="#f0d3d8"/>
            </g>
            <g id="Grupo_61207" data-name="Grupo 61207" transform="translate(24.841)">
              <g id="Grupo_61206" data-name="Grupo 61206">
                <path id="Trazado_120407" data-name="Trazado 120407" d="M1259.262,716.74v-14.4h3.956v14.4a1.739,1.739,0,0,1-1.74,1.74H1261A1.74,1.74,0,0,1,1259.262,716.74Z" transform="translate(-1258.547 -701.431)" fill="#fff"/>
                <path id="Trazado_120408" data-name="Trazado 120408" d="M1258.132,701.358h0a.458.458,0,0,1,.456-.456h4.475a.458.458,0,0,1,.456.456h0a.458.458,0,0,1-.456.456h-4.475A.462.462,0,0,1,1258.132,701.358Z" transform="translate(-1258.132 -700.902)" fill="#fff"/>
              </g>
              <path id="Trazado_120409" data-name="Trazado 120409" d="M1260.262,719.259v-9.417h2.69v9.417a1.342,1.342,0,0,1-1.342,1.342h0A1.344,1.344,0,0,1,1260.262,719.259Z" transform="translate(-1258.914 -704.184)" fill="#f0d3d8"/>
            </g>
            <g id="Grupo_61209" data-name="Grupo 61209" transform="translate(34.018)">
              <g id="Grupo_61208" data-name="Grupo 61208">
                <path id="Trazado_120410" data-name="Trazado 120410" d="M1273.762,716.74v-14.4h3.956v14.4a1.739,1.739,0,0,1-1.741,1.74h-.474A1.739,1.739,0,0,1,1273.762,716.74Z" transform="translate(-1273.047 -701.431)" fill="#fff"/>
                <path id="Trazado_120411" data-name="Trazado 120411" d="M1272.632,701.358h0a.458.458,0,0,1,.456-.456h4.474a.458.458,0,0,1,.456.456h0a.458.458,0,0,1-.456.456h-4.474A.462.462,0,0,1,1272.632,701.358Z" transform="translate(-1272.632 -700.902)" fill="#fff"/>
              </g>
              <path id="Trazado_120412" data-name="Trazado 120412" d="M1274.762,719.259v-9.417h2.69v9.417a1.342,1.342,0,0,1-1.342,1.342h0A1.344,1.344,0,0,1,1274.762,719.259Z" transform="translate(-1273.414 -704.184)" fill="#f0d3d8"/>
            </g>
          </g>
          <g id="Grupo_61212" data-name="Grupo 61212">
            <rect id="Rectángulo_7411" data-name="Rectángulo 7411" width="48.733" height="1.266" transform="translate(2.551 1.74)" fill="#a7c2d9"/>
            <rect id="Rectángulo_7412" data-name="Rectángulo 7412" width="54.429" height="3.164" transform="translate(0 16.759)" fill="#d49ba0"/>
            <g id="Grupo_61211" data-name="Grupo 61211" transform="translate(2.158)">
              <rect id="Rectángulo_7413" data-name="Rectángulo 7413" width="1.386" height="18.335" fill="#d49ba0"/>
              <rect id="Rectángulo_7414" data-name="Rectángulo 7414" width="1.386" height="18.335" transform="translate(48.296)" fill="#d49ba0"/>
            </g>
          </g>
        </g>
      </g>
      <g id="Grupo_61223" data-name="Grupo 61223">
        <g id="Grupo_61221" data-name="Grupo 61221">
          <g id="Grupo_61216" data-name="Grupo 61216" transform="translate(38.486)">
            <path id="Trazado_120413" data-name="Trazado 120413" d="M891.248,746.26A71.173,71.173,0,0,0,881.071,646.9a356.844,356.844,0,0,1-1.677,40.543c-1.259,12.81-3.2,25.911-.133,38.417A39.332,39.332,0,0,0,891.248,746.26Z" transform="translate(-877.622 -646.902)" fill="#bf828b"/>
            <g id="Grupo_61215" data-name="Grupo 61215" transform="translate(2.557 8.12)">
              <path id="Trazado_120414" data-name="Trazado 120414" d="M894.211,767.394c0-45.271,12.012-59.885-5.588-107.662" transform="translate(-884.217 -659.732)" fill="none" stroke="#f2cdbf" stroke-linecap="round" stroke-miterlimit="10" stroke-width="1"/>
              <path id="Trazado_120415" data-name="Trazado 120415" d="M895.665,672.142q-1.842,3.93-3.683,7.867a19.163,19.163,0,0,0-7-1.911" transform="translate(-882.881 -664.288)" fill="none" stroke="#f2cdbf" stroke-linecap="round" stroke-miterlimit="10" stroke-width="1"/>
              <path id="Trazado_120416" data-name="Trazado 120416" d="M882.492,712.246a30.871,30.871,0,0,1,13.246,3.6,42.848,42.848,0,0,1,9.494-8.645" transform="translate(-881.967 -677.159)" fill="none" stroke="#f2cdbf" stroke-linecap="round" stroke-miterlimit="10" stroke-width="1"/>
              <path id="Trazado_120417" data-name="Trazado 120417" d="M881.662,745.9a21.171,21.171,0,0,1,13.265,3.392,58.663,58.663,0,0,1,12.835-10.234" transform="translate(-881.662 -688.854)" fill="none" stroke="#f2cdbf" stroke-linecap="round" stroke-miterlimit="10" stroke-width="1"/>
              <path id="Trazado_120418" data-name="Trazado 120418" d="M884.972,775.951a14.816,14.816,0,0,1,9.171,4.582,39.809,39.809,0,0,1,9.057-8.911" transform="translate(-882.877 -700.807)" fill="none" stroke="#f2cdbf" stroke-linecap="round" stroke-miterlimit="10" stroke-width="1"/>
            </g>
          </g>
          <g id="Grupo_61218" data-name="Grupo 61218" transform="translate(53.062 11.62)">
            <path id="Trazado_120419" data-name="Trazado 120419" d="M910.1,751.621a53.473,53.473,0,0,1,2.74-44.657c6.9-12.892,21.8-28.582,40.391-41.7,0,0-8.848,48.163-19.841,68.3A35.8,35.8,0,0,1,910.1,751.621Z" transform="translate(-902.792 -665.262)" fill="#d49ba0"/>
            <g id="Grupo_61217" data-name="Grupo 61217" transform="translate(0 9.323)">
              <path id="Trazado_120420" data-name="Trazado 120420" d="M944.366,679.992c-19.2,30.847-32.873,64.5-43.714,99.13" transform="translate(-900.652 -679.992)" fill="none" stroke="#f2cdbf" stroke-linecap="round" stroke-miterlimit="10" stroke-width="1"/>
              <path id="Trazado_120421" data-name="Trazado 120421" d="M950.422,692.062a51.281,51.281,0,0,1,2.753,8.3,79.631,79.631,0,0,1,9.867-1.241" transform="translate(-918.923 -684.423)" fill="none" stroke="#f2cdbf" stroke-linecap="round" stroke-miterlimit="10" stroke-width="1"/>
              <path id="Trazado_120422" data-name="Trazado 120422" d="M926.322,722.642a52.276,52.276,0,0,1,6.462,12.392,55,55,0,0,1,16.145-4.9" transform="translate(-910.076 -695.649)" fill="none" stroke="#f2cdbf" stroke-linecap="round" stroke-miterlimit="10" stroke-width="1"/>
              <path id="Trazado_120423" data-name="Trazado 120423" d="M912.152,748.5a43.419,43.419,0,0,1,7.335,14.2,88.222,88.222,0,0,1,17.81-5.373" transform="translate(-904.874 -705.142)" fill="none" stroke="#f2cdbf" stroke-linecap="round" stroke-miterlimit="10" stroke-width="1"/>
              <path id="Trazado_120424" data-name="Trazado 120424" d="M908.312,779.622a77.12,77.12,0,0,1,5.335,6.664,58,58,0,0,1,13.133-3.658" transform="translate(-903.464 -716.567)" fill="none" stroke="#f2cdbf" stroke-linecap="round" stroke-miterlimit="10" stroke-width="1"/>
            </g>
          </g>
          <g id="Grupo_61220" data-name="Grupo 61220" transform="translate(0 20.879)">
            <path id="Trazado_120425" data-name="Trazado 120425" d="M858.8,761.308s8.449-11.981,2.2-32.759c-8.557-28.468-44.2-48.657-44.2-48.657s9.557,38.948,17.012,58.353C841.375,757.877,858.8,761.308,858.8,761.308Z" transform="translate(-816.812 -679.892)" fill="#d49ba0"/>
            <g id="Grupo_61219" data-name="Grupo 61219" transform="translate(4.721 5.456)">
              <path id="Trazado_120426" data-name="Trazado 120426" d="M863.746,774.915s-4.861-39.176-39.474-86.4" transform="translate(-824.272 -688.512)" fill="none" stroke="#f2cdbf" stroke-linecap="round" stroke-miterlimit="10" stroke-width="1"/>
              <path id="Trazado_120427" data-name="Trazado 120427" d="M838.6,701.562a27.248,27.248,0,0,0-2.006,7.386,27.212,27.212,0,0,0-7.456-1.025" transform="translate(-826.06 -693.303)" fill="none" stroke="#f2cdbf" stroke-linecap="round" stroke-miterlimit="10" stroke-width="1"/>
              <path id="Trazado_120428" data-name="Trazado 120428" d="M836.872,737.141a32.283,32.283,0,0,1,14.183.994,25.632,25.632,0,0,1,5.728-11.512" transform="translate(-828.898 -702.503)" fill="none" stroke="#f2cdbf" stroke-linecap="round" stroke-miterlimit="10" stroke-width="1"/>
              <path id="Trazado_120429" data-name="Trazado 120429" d="M872.01,756.152a37.084,37.084,0,0,0-7.386,12.183,21.437,21.437,0,0,0-14.322-.911" transform="translate(-833.828 -713.343)" fill="none" stroke="#f2cdbf" stroke-linecap="round" stroke-miterlimit="10" stroke-width="1"/>
              <path id="Trazado_120430" data-name="Trazado 120430" d="M866.222,794.657a28.3,28.3,0,0,1,9.354-.126,21.646,21.646,0,0,1,4.532-6.658" transform="translate(-839.672 -724.988)" fill="none" stroke="#f2cdbf" stroke-linecap="round" stroke-miterlimit="10" stroke-width="1"/>
            </g>
          </g>
        </g>
        <g id="Grupo_61222" data-name="Grupo 61222" transform="translate(27.987 105.592)">
          <path id="Trazado_120431" data-name="Trazado 120431" d="M907.531,813.742l-1.335,7.531-1.462,8.285-.772,4.342-1.462,8.291-3.9,22.069H870.133l-3.974-22.069-1.494-8.291-.778-4.342-1.5-8.285-1.354-7.531Z" transform="translate(-861.032 -813.742)" fill="#d49ba0"/>
          <path id="Trazado_120432" data-name="Trazado 120432" d="M906.981,825.642l-1.462,8.285H864.672l-1.5-8.285Z" transform="translate(-861.818 -818.11)" fill="#faded2"/>
          <path id="Trazado_120433" data-name="Trazado 120433" d="M906.069,845.592l-1.462,8.291H868.266l-1.494-8.291Z" transform="translate(-863.139 -825.434)" fill="#faded2"/>
        </g>
      </g>
    </g>
    <g id="Grupo_61326" data-name="Grupo 61326" transform="translate(891.968 532.292)">
      <g id="Grupo_61292" data-name="Grupo 61292" transform="translate(0 29.684)">
        <g id="Grupo_61250" data-name="Grupo 61250" transform="translate(0 7.102)">
          <g id="Grupo_61230" data-name="Grupo 61230" transform="translate(0.247 112.149)">
            <g id="Grupo_61228" data-name="Grupo 61228" transform="translate(0 9.468)">
              <rect id="Rectángulo_7415" data-name="Rectángulo 7415" width="46.625" height="4.335" transform="translate(4.272 43.195)" fill="#326894"/>
              <g id="Grupo_61225" data-name="Grupo 61225" transform="translate(0 0.466)">
                <path id="Trazado_120434" data-name="Trazado 120434" d="M948.2,810.389a2.886,2.886,0,0,1-.025.329l-.722,5.975-6.449,53.233a2.539,2.539,0,0,1-2.829,2.26,2.583,2.583,0,0,1-2.228-2.576,2.872,2.872,0,0,1,.025-.329l6.367-52.587.8-6.614a2.539,2.539,0,0,1,5.063.31Z" transform="translate(-935.952 -807.798)" fill="#4d8ab3"/>
                <path id="Trazado_120435" data-name="Trazado 120435" d="M951.916,810.389a2.886,2.886,0,0,1-.025.329l-.721,5.975h-5.107l.8-6.614a2.535,2.535,0,0,1,5.057.31Z" transform="translate(-939.663 -807.798)" fill="#326894"/>
              </g>
              <g id="Grupo_61226" data-name="Grupo 61226" transform="translate(25.683)">
                <path id="Trazado_120436" data-name="Trazado 120436" d="M981.615,809.67v59.657a2.563,2.563,0,0,1-2.532,2.6,2.492,2.492,0,0,1-1.791-.766,2.624,2.624,0,0,1-.74-1.842V809.663a2.567,2.567,0,0,1,2.532-2.6,2.47,2.47,0,0,1,1.791.766A2.658,2.658,0,0,1,981.615,809.67Z" transform="translate(-976.539 -807.062)" fill="#4d8ab3"/>
                <path id="Trazado_120437" data-name="Trazado 120437" d="M980.861,807.841a2.608,2.608,0,0,1,.74,1.842v6.747h-5.07v-6.747a2.567,2.567,0,0,1,2.532-2.6A2.445,2.445,0,0,1,980.861,807.841Z" transform="translate(-976.532 -807.069)" fill="#326894"/>
              </g>
              <g id="Grupo_61227" data-name="Grupo 61227" transform="translate(43.993 0.455)">
                <path id="Trazado_120438" data-name="Trazado 120438" d="M1017.708,869.59a2.574,2.574,0,0,1-2.221,2.582,2.547,2.547,0,0,1-2.829-2.259l-6.449-53.233-.721-5.975a2.871,2.871,0,0,1-.025-.329,2.588,2.588,0,0,1,2.228-2.576,2.551,2.551,0,0,1,2.829,2.259l.8,6.614,6.367,52.587A2,2,0,0,1,1017.708,869.59Z" transform="translate(-1005.462 -807.78)" fill="#4d8ab3"/>
                <path id="Trazado_120439" data-name="Trazado 120439" d="M1011.326,816.68h-5.108l-.721-5.975a2.871,2.871,0,0,1-.025-.329,2.588,2.588,0,0,1,2.228-2.576,2.551,2.551,0,0,1,2.829,2.259Z" transform="translate(-1005.466 -807.78)" fill="#326894"/>
              </g>
            </g>
            <g id="Grupo_61229" data-name="Grupo 61229" transform="translate(2.285)">
              <path id="Trazado_120440" data-name="Trazado 120440" d="M998.13,797.45v1.69a5.345,5.345,0,0,1-5.348,5.348H944.91a5.345,5.345,0,0,1-5.348-5.348v-1.69a5.345,5.345,0,0,1,5.348-5.348h47.872A5.341,5.341,0,0,1,998.13,797.45Z" transform="translate(-939.562 -792.102)" fill="#994403"/>
              <path id="Trazado_120441" data-name="Trazado 120441" d="M1000.693,797.45v1.69a5.345,5.345,0,0,1-5.348,5.348H951.89a5.346,5.346,0,0,1-5.348-5.348v-1.69a5.346,5.346,0,0,1,5.348-5.348h43.455A5.341,5.341,0,0,1,1000.693,797.45Z" transform="translate(-942.124 -792.102)" fill="#852e03"/>
            </g>
          </g>
          <g id="Grupo_61249" data-name="Grupo 61249">
            <path id="Trazado_120442" data-name="Trazado 120442" d="M946.669,628.661c-.6,1.228-1.209,2.462-1.747,3.645a26.6,26.6,0,0,0,0,6.424,18.246,18.246,0,0,1-.361,6.4,7.169,7.169,0,0,1-4.063,4.81c-1.342.513-2.943.551-3.981,1.525-1.177,1.108-1.1,2.968-.665,4.5a6.992,6.992,0,0,0,1.949,3.456c1.019.892,2.658,1.475,3.772.829a2.723,2.723,0,0,1,3.361.8c.8.975,1.171,2.234,1.956,3.221a6.342,6.342,0,0,0,4.81,2.177,9.687,9.687,0,0,0,5-.975c2.614-1.639,5.873-2.728,8.55-1.19,1.411.81,2.525,2.1,4.051,2.683a4.977,4.977,0,0,0,4.032-.247c1.221-.646,1.69-2.025,2.456-3.082,1.4-1.937,4.81-.374,7.164-1.013a5.168,5.168,0,0,0,3.626-5.93c-.589-2.475-3.329-3.354-5.772-3.721-1.677-.253-2.367-2.386-2.753-3.981a17.713,17.713,0,0,1-.247-4.911c.145-3.348,1.671-11.158.7-12.208a16.208,16.208,0,0,0-3.095-2.253q-4.766-2.174-9.531-4.354c-2.892-1.323-5.924-2.671-9.12-2.582C953.574,622.749,948.96,624,946.669,628.661Z" transform="translate(-935.562 -617.756)" fill="#732d02"/>
            <g id="Grupo_61232" data-name="Grupo 61232" transform="translate(6.35 32.898)">
              <path id="Trazado_120443" data-name="Trazado 120443" d="M961.365,679.762s-14.1,2.228-15.595,7.221,7.069,39.936,7.069,39.936l31.683-1.937s2.3-40.277-2.734-42.8S961.365,679.762,961.365,679.762Z" transform="translate(-945.596 -671.61)" fill="#ebf5ff"/>
              <g id="Grupo_61231" data-name="Grupo 61231" transform="translate(10.384)">
                <path id="Trazado_120444" data-name="Trazado 120444" d="M979.685,676.42s-2.057,7.006-5.791,8.538S962,677.148,962,677.148c1.645-1.044,2.266-3.557,2.468-5.848a25.488,25.488,0,0,0-.025-4.418l11.329,2.177c-.291,3.506.741,5.348,1.823,6.316A4.137,4.137,0,0,0,979.685,676.42Z" transform="translate(-962.002 -666.882)" fill="#fbbd9a"/>
                <path id="Trazado_120445" data-name="Trazado 120445" d="M979.014,675.385c-5.38.709-10.253-1.987-13.126-4.076a25.48,25.48,0,0,0-.025-4.418l11.329,2.177C976.893,672.569,977.931,674.417,979.014,675.385Z" transform="translate(-963.419 -666.886)" fill="#f0997f"/>
              </g>
            </g>
            <g id="Grupo_61239" data-name="Grupo 61239" transform="translate(6.949 82.694)">
              <g id="Grupo_61234" data-name="Grupo 61234" transform="translate(24.1 6.563)">
                <g id="Grupo_61233" data-name="Grupo 61233" transform="translate(11.626 62.935)">
                  <path id="Trazado_120446" data-name="Trazado 120446" d="M1025.415,876.989c-1.221,2.032-22.423-11.038-22.423-13.291,0-1.468,2.766-3.595,4.69-4.886,1.032-.7,1.816-1.158,1.816-1.158l4.949-2.272,2.228,1.2a123.112,123.112,0,0,1,7.9,15.481C1025.5,874.451,1025.871,876.236,1025.415,876.989Z" transform="translate(-1002.992 -855.376)" fill="#d43226"/>
                  <path id="Trazado_120447" data-name="Trazado 120447" d="M1027.3,872.049c-6.076.253-14.107-9.576-16.892-13.247,1.032-.7,1.817-1.158,1.817-1.158l4.949-2.272,2.228,1.2A122.228,122.228,0,0,1,1027.3,872.049Z" transform="translate(-1005.716 -855.372)" fill="#f0997f"/>
                </g>
                <path id="Trazado_120448" data-name="Trazado 120448" d="M996.856,755.932s38.594,4.886,39.9,14.766-24.208,53.473-24.208,53.473l-9.177-2.392,11.974-38.974-30.727-13.038,6.12-13.835Z" transform="translate(-984.622 -755.932)" fill="#002a42"/>
              </g>
              <g id="Grupo_61238" data-name="Grupo 61238">
                <g id="Grupo_61235" data-name="Grupo 61235" transform="translate(26.347 70.625)">
                  <path id="Trazado_120449" data-name="Trazado 120449" d="M1010.6,878.769c-1.222,2.032-22.424-11.038-22.424-13.291,0-1.468,2.766-3.595,4.69-4.886,1.032-.7,1.817-1.158,1.817-1.158l4.949-2.272,2.228,1.2a123.1,123.1,0,0,1,7.9,15.481C1010.678,876.231,1011.051,878.016,1010.6,878.769Z" transform="translate(-988.172 -857.156)" fill="#eb4a2a"/>
                  <path id="Trazado_120450" data-name="Trazado 120450" d="M1012.484,873.829c-6.076.253-14.107-9.576-16.892-13.246,1.032-.7,1.816-1.158,1.816-1.158l4.949-2.272,2.228,1.2A122.25,122.25,0,0,1,1012.484,873.829Z" transform="translate(-990.896 -857.152)" fill="#fbbd9a"/>
                </g>
                <g id="Grupo_61237" data-name="Grupo 61237">
                  <path id="Trazado_120451" data-name="Trazado 120451" d="M950.327,748.815s-13.373,26.442,10.158,29.3c17.094,2.076,28.423,1.658,28.778,2.607.582,1.525-11.12,38.448-11.12,38.448l11.525,3.646s23.854-51.233,22.556-55.695c-1.07-3.671-33.987-9.272-33.987-9.272,2.772-1.317,4.81-6.107,4.513-12.285Z" transform="translate(-946.542 -745.562)" fill="#06384f"/>
                  <g id="Grupo_61236" data-name="Grupo 61236" transform="translate(3.581 0.962)">
                    <path id="Trazado_120452" data-name="Trazado 120452" d="M956.113,747.082s-7.671,16.879-1.532,23.727c7.234,8.069,38.873,5.468,41.075,8.323,1.766,2.285-12.221,39.607-12.221,39.607" transform="translate(-952.2 -747.082)" fill="none" stroke="#27788f" stroke-linecap="round" stroke-miterlimit="10" stroke-width="1"/>
                    <line id="Línea_212" data-name="Línea 212" x2="11.152" y2="3.399" transform="translate(28.95 71.093)" fill="none" stroke="#27788f" stroke-linecap="round" stroke-miterlimit="10" stroke-width="1"/>
                  </g>
                </g>
              </g>
            </g>
            <g id="Grupo_61243" data-name="Grupo 61243" transform="translate(6.689)">
              <path id="Trazado_120453" data-name="Trazado 120453" d="M995.871,647.642c2.72-.308,5.107,1.052,5.331,3.039s-1.8,3.847-4.516,4.155-5.107-1.053-5.331-3.039S993.152,647.95,995.871,647.642Z" transform="translate(-962.726 -626.905)" fill="#f0997f"/>
              <g id="Grupo_61240" data-name="Grupo 61240" transform="translate(6.222 3.582)">
                <path id="Trazado_120454" data-name="Trazado 120454" d="M955.962,637.555c0-9.386,5.962-16.993,13.968-16.993s14.5,7.607,14.5,16.993-4.095,17.462-11.633,17.753C965.2,655.6,955.962,646.935,955.962,637.555Z" transform="translate(-955.962 -620.562)" fill="#fbbd9a"/>
                <path id="Trazado_120455" data-name="Trazado 120455" d="M957.192,640.705a16.9,16.9,0,0,0,8.829-9.291,14.375,14.375,0,0,0,8.2,4.253,43.5,43.5,0,0,0,9.209.386,5.569,5.569,0,0,1,1.861,3.209,18.9,18.9,0,0,0-.867-8.31q-11.962-3.645-23.778-7.74C959.471,628.826,958.293,634.44,957.192,640.705Z" transform="translate(-956.414 -621.535)" fill="#f0997f"/>
              </g>
              <g id="Grupo_61241" data-name="Grupo 61241" transform="translate(2.497)">
                <path id="Trazado_120456" data-name="Trazado 120456" d="M968.163,624.066c1.715,3.234,5.031,5.386,8.519,6.5a39.692,39.692,0,0,0,10.9,1.4,24.584,24.584,0,0,1,.7,6.512,22.639,22.639,0,0,0,2.057-7.943c.032-.709.032-1.43.013-2.19a12.5,12.5,0,0,0-5.19-10.3A16.239,16.239,0,0,0,975.15,614.9c-3.576,0-5.848.81-7.209,2.221a5.461,5.461,0,0,0-1.114,1.709C966.245,620.2,966.9,621.687,968.163,624.066Z" transform="translate(-956.147 -614.902)" fill="#8c4206"/>
                <path id="Trazado_120457" data-name="Trazado 120457" d="M950.169,640.4c-.12-4.589-.411-12.443,1.437-16.2a8.544,8.544,0,0,1,6.209-4.867c2.715-.361,5.715,1.316,6.342,3.981a31.947,31.947,0,0,1-8.683,16.259A8.756,8.756,0,0,1,950.169,640.4Z" transform="translate(-950.076 -616.511)" fill="#8c4206"/>
                <path id="Trazado_120458" data-name="Trazado 120458" d="M968.7,617.133a18.175,18.175,0,0,1,15.455,3.114,19.939,19.939,0,0,1,6.955,10.3c.032-.709.032-1.43.013-2.19a12.5,12.5,0,0,0-5.19-10.3,16.239,16.239,0,0,0-10.019-3.139C972.335,614.912,970.063,615.722,968.7,617.133Z" transform="translate(-956.914 -614.906)" fill="#a66317"/>
              </g>
              <ellipse id="Elipse_4269" data-name="Elipse 4269" cx="3.62" cy="4.956" rx="3.62" ry="4.956" transform="matrix(0.248, -0.969, 0.969, 0.248, 0, 27.537)" fill="#fbbd9a"/>
              <g id="Grupo_61242" data-name="Grupo 61242" transform="translate(16.153 19.167)">
                <ellipse id="Elipse_4270" data-name="Elipse 4270" cx="0.753" cy="1.203" rx="0.753" ry="1.203" transform="translate(3.823 4.89)" fill="#2f344d"/>
                <ellipse id="Elipse_4271" data-name="Elipse 4271" cx="0.753" cy="1.203" rx="0.753" ry="1.203" transform="translate(14.297 4.896)" fill="#2f344d"/>
                <path id="Trazado_120459" data-name="Trazado 120459" d="M991.952,645.815a5.265,5.265,0,0,1,4.4.532" transform="translate(-979.104 -645.324)" fill="none" stroke="#8c4206" stroke-linecap="round" stroke-miterlimit="10" stroke-width="2"/>
                <path id="Trazado_120460" data-name="Trazado 120460" d="M976.873,645.544c-1.411-.627-4-.494-5.221.9" transform="translate(-971.652 -645.186)" fill="none" stroke="#8c4206" stroke-linecap="round" stroke-miterlimit="10" stroke-width="2"/>
                <path id="Trazado_120461" data-name="Trazado 120461" d="M987.165,653.662a6.622,6.622,0,0,1-.323,3.867" transform="translate(-977.228 -648.298)" fill="none" stroke="#d45e4e" stroke-linecap="round" stroke-miterlimit="10" stroke-width="2"/>
                <path id="Trazado_120462" data-name="Trazado 120462" d="M982.721,664.481c-1.671.329-4.7-.627-5.519-2.019" transform="translate(-973.689 -651.528)" fill="none" stroke="#d45e4e" stroke-linecap="round" stroke-miterlimit="10" stroke-width="2"/>
              </g>
            </g>
            <g id="Grupo_61246" data-name="Grupo 61246" transform="translate(32.504 41.411)">
              <g id="Grupo_61245" data-name="Grupo 61245" transform="translate(5.039 0.715)">
                <path id="Trazado_120463" data-name="Trazado 120463" d="M995.432,686.713l5.652-3.411s4.766.405,7.993,6.335c3.209,5.9,9.253,24.968,11.158,25.81s25.126,1.139,25.126,1.139l.317,6.8s-28.443,4.513-31.835,2.646-14.373-23.86-14.373-23.86Z" transform="translate(-995.084 -682.138)" fill="#fbbd9a"/>
                <path id="Trazado_120464" data-name="Trazado 120464" d="M994.882,685.272l1.089-3.81s6.24.266,9.43,2.766,5.8,9.3,5.8,9.3l-8.114,13.1Z" transform="translate(-994.882 -681.462)" fill="#de3b26"/>
                <path id="Trazado_120465" data-name="Trazado 120465" d="M1010.092,723.5s8.715-7.525,10.057-9.4c.665-.93,5.38,10.025,4.582,11.367-1.272,2.139-9.215,7.278-9.658,6.981S1010.092,723.5,1010.092,723.5Z" transform="translate(-1000.466 -693.423)" fill="#163649"/>
                <path id="Trazado_120466" data-name="Trazado 120466" d="M1006.219,710.457q3.94-6.256,7.873-12.506a1.991,1.991,0,0,1,.525-.62,1.366,1.366,0,0,1,1.867.835,3.88,3.88,0,0,1-.127,2.316,1.661,1.661,0,0,1,1.7,1.532,4.21,4.21,0,0,1-.658,2.43,22.684,22.684,0,0,1-11.316,10.284C1005.864,713.3,1005.428,711.71,1006.219,710.457Z" transform="translate(-998.877 -687.23)" fill="#b82621"/>
                <g id="Grupo_61244" data-name="Grupo 61244" transform="translate(46.689 28.315)">
                  <path id="Trazado_120467" data-name="Trazado 120467" d="M1068.652,733.4c3.253-2.285,9.544-6.816,10.019-7.031a17.142,17.142,0,0,1,6.462.354,7.163,7.163,0,0,1,4.772,4.114c.209.576.266,1.342-.24,1.677a1.082,1.082,0,0,1-1.127-.057,4.232,4.232,0,0,1-.867-.816,6.3,6.3,0,0,0-4.937-2.234,6.217,6.217,0,0,1,5.24,4.715c.158.525.222,1.19-.2,1.532a1.06,1.06,0,0,1-1.2-.038,4.136,4.136,0,0,1-.88-.937,9.226,9.226,0,0,0-3.81-2.854,6.752,6.752,0,0,1,3.949,5.139,1.839,1.839,0,0,1-.057.981.76.76,0,0,1-.772.494,1.152,1.152,0,0,1-.608-.437,16.06,16.06,0,0,0-3.513-3.538c1.367,1.823,2.519,4.785,2.234,5.557-.089.234-.671.639-1.323-.006-.741-.74-1.26-2.006-2.411-3.418a8.489,8.489,0,0,1-8.019,2.57C1070.43,737.214,1069.519,735.258,1068.652,733.4Z" transform="translate(-1068.652 -726.201)" fill="#fbbd9a"/>
                  <path id="Trazado_120468" data-name="Trazado 120468" d="M1077.982,731.7a66.469,66.469,0,0,1,7.057-2.108,2.8,2.8,0,0,1,.968-.114.994.994,0,0,1,.791.5.961.961,0,0,1-.146.949,2.549,2.549,0,0,1-.772.646,32.52,32.52,0,0,1-3.2,1.7,4.668,4.668,0,0,1-3.089,3.747" transform="translate(-1072.077 -727.4)" fill="#fbbd9a" stroke="#d45e4e" stroke-linecap="round" stroke-miterlimit="10" stroke-width="1"/>
                </g>
              </g>
              <path id="Trazado_120469" data-name="Trazado 120469" d="M986.934,680.434c1.354,1.177,2.234,7.81,2.93,12.025,1.044,6.316,6.361,33.778,6.677,35.721.563,3.43,11.424,3.2,11.86,1.405.082-.329-3.171-1.842-3.69-4.032-.462-1.962-4.07-40.2-5.81-42.208C996.6,680.687,986.5,680.054,986.934,680.434Z" transform="translate(-986.92 -680.333)" fill="#eb4a2a"/>
            </g>
            <g id="Grupo_61248" data-name="Grupo 61248" transform="translate(2.525 41.509)">
              <path id="Trazado_120470" data-name="Trazado 120470" d="M955.577,680.491c1.133.405,4.69,7.962,6.38,14.879,3.532,14.449,1.43,35.9,0,38.74s-15.291,4.082-17.645,3.329c-1.367-.437-2.854-43.689-1.911-49.119C943.033,684.7,955.235,680.37,955.577,680.491Z" transform="translate(-940.489 -680.488)" fill="#eb4a2a"/>
              <path id="Trazado_120471" data-name="Trazado 120471" d="M995.809,754.986c2.924-1.07,11.386-3.3,12.557-3.177a4.371,4.371,0,0,1,3.139,1.532,6.694,6.694,0,0,1,.93,2.215l1.082,3.8a3.351,3.351,0,0,1,.19,1.361,1.031,1.031,0,0,1-.81.943c-.608.051-.987-.677-1.209-1.291-.57-1.576-1.139-3.152-1.7-4.7.373,1.943.74,3.892,1.114,5.835a3.344,3.344,0,0,1,.07,1.392,1.037,1.037,0,0,1-.9.873c-.646-.013-.956-.842-1.1-1.525a41.991,41.991,0,0,0-1.152-4.551,12.986,12.986,0,0,1,.279,6.677,1.968,1.968,0,0,1-.405.93.639.639,0,0,1-.873.1,1.119,1.119,0,0,1-.247-.721c-.2-1.962-.392-3.93-.589-5.892a16.616,16.616,0,0,1-.209,6.183,2.023,2.023,0,0,1-.5.949.728.728,0,0,1-.943.089,1.312,1.312,0,0,1-.3-.975c-.044-1.234-.089-2.468-.1-3.911a6.976,6.976,0,0,1-4.183,2.367,10.7,10.7,0,0,1-4.816-.62C995.271,760.575,995.4,758.271,995.809,754.986Z" transform="translate(-959.956 -706.669)" fill="#fbbd9a"/>
              <path id="Trazado_120472" data-name="Trazado 120472" d="M953.761,695.366c-.886-4.095-4.557-10.734-7.551-9.361-1.715.791-6.658,2.443-6.658,13.272,0,14.639,1.924,33.873,6.658,37.094,2.405,1.639,28.708,3.247,28.708,3.247l1.924-9.424s-19.386-3.595-20.278-6.253C955.3,720.188,956.115,706.258,953.761,695.366Z" transform="translate(-939.552 -682.446)" fill="#eb4a2a"/>
              <g id="Grupo_61247" data-name="Grupo 61247" transform="translate(2.918 10.673)">
                <path id="Trazado_120473" data-name="Trazado 120473" d="M958.382,697.352c3.253,11,3.937,29.714,4.418,30.841.437,1.025,2.911,1.456,4.854,2.12" transform="translate(-949.382 -697.352)" fill="none" stroke="#b82621" stroke-linecap="round" stroke-miterlimit="10" stroke-width="1"/>
                <path id="Trazado_120474" data-name="Trazado 120474" d="M956.877,762.582c-3.607-.361-8.088-1.063-9.088-1.81-1.177-.88-2.614-5.183-3.627-8.12" transform="translate(-944.162 -717.653)" fill="none" stroke="#b82621" stroke-linecap="round" stroke-miterlimit="10" stroke-width="1"/>
                <path id="Trazado_120475" data-name="Trazado 120475" d="M963.422,721.689c1.3-1.626,1.829-4.323,1.937-7.607" transform="translate(-951.232 -703.494)" fill="none" stroke="#b82621" stroke-linecap="round" stroke-miterlimit="10" stroke-width="1"/>
              </g>
            </g>
          </g>
        </g>
        <g id="Grupo_61291" data-name="Grupo 61291" transform="translate(59.948)">
          <g id="Grupo_61288" data-name="Grupo 61288" transform="translate(24.725)">
            <g id="Grupo_61256" data-name="Grupo 61256" transform="translate(24.742 119.251)">
              <g id="Grupo_61254" data-name="Grupo 61254" transform="translate(0 9.474)">
                <rect id="Rectángulo_7416" data-name="Rectángulo 7416" width="46.625" height="4.221" transform="translate(4.266 42.062)" fill="#326894"/>
                <g id="Grupo_61251" data-name="Grupo 61251" transform="translate(0 0.435)">
                  <path id="Trazado_120476" data-name="Trazado 120476" d="M1120.695,810.293a2.789,2.789,0,0,1-.025.323l-.722,5.816-6.449,51.84a2.538,2.538,0,0,1-5.057-.3,2.763,2.763,0,0,1,.025-.323l6.367-51.22.8-6.443a2.542,2.542,0,0,1,5.063.31Z" transform="translate(-1108.442 -807.76)" fill="#4d8ab3"/>
                  <path id="Trazado_120477" data-name="Trazado 120477" d="M1124.406,810.3a2.764,2.764,0,0,1-.025.323l-.721,5.816h-5.108l.8-6.443a2.538,2.538,0,0,1,5.057.3Z" transform="translate(-1112.154 -807.763)" fill="#326894"/>
                </g>
                <g id="Grupo_61252" data-name="Grupo 61252" transform="translate(25.683)">
                  <path id="Trazado_120478" data-name="Trazado 120478" d="M1154.1,809.6v58.1a2.532,2.532,0,1,1-5.063,0V809.6a2.531,2.531,0,0,1,2.532-2.532,2.528,2.528,0,0,1,2.531,2.532Z" transform="translate(-1149.026 -807.072)" fill="#4d8ab3"/>
                  <path id="Trazado_120479" data-name="Trazado 120479" d="M1153.351,807.813a2.509,2.509,0,0,1,.74,1.791v6.576h-5.07V809.6a2.538,2.538,0,0,1,4.329-1.791Z" transform="translate(-1149.022 -807.072)" fill="#326894"/>
                </g>
                <g id="Grupo_61253" data-name="Grupo 61253" transform="translate(43.993 0.442)">
                  <path id="Trazado_120480" data-name="Trazado 120480" d="M1190.2,867.97a2.535,2.535,0,0,1-5.051.317l-6.449-51.841-.722-5.816a2.762,2.762,0,0,1-.025-.323,2.538,2.538,0,0,1,5.057-.3l.8,6.443,6.367,51.22A1.637,1.637,0,0,1,1190.2,867.97Z" transform="translate(-1177.952 -807.773)" fill="#4d8ab3"/>
                  <path id="Trazado_120481" data-name="Trazado 120481" d="M1183.816,816.435h-5.108l-.722-5.816a2.764,2.764,0,0,1-.025-.323,2.538,2.538,0,0,1,5.057-.3Z" transform="translate(-1177.956 -807.77)" fill="#326894"/>
                </g>
              </g>
              <g id="Grupo_61255" data-name="Grupo 61255" transform="translate(2.285)">
                <path id="Trazado_120482" data-name="Trazado 120482" d="M1170.62,797.45v1.69a5.345,5.345,0,0,1-5.348,5.348H1117.4a5.346,5.346,0,0,1-5.348-5.348v-1.69a5.346,5.346,0,0,1,5.348-5.348h47.872A5.341,5.341,0,0,1,1170.62,797.45Z" transform="translate(-1112.052 -792.102)" fill="#994403"/>
                <path id="Trazado_120483" data-name="Trazado 120483" d="M1173.186,797.45v1.69a5.345,5.345,0,0,1-5.348,5.348H1124.39a5.345,5.345,0,0,1-5.348-5.348v-1.69a5.345,5.345,0,0,1,5.348-5.348h43.448A5.341,5.341,0,0,1,1173.186,797.45Z" transform="translate(-1114.618 -792.102)" fill="#852e03"/>
              </g>
            </g>
            <g id="Grupo_61263" data-name="Grupo 61263" transform="translate(10.745 37.094)">
              <g id="Grupo_61262" data-name="Grupo 61262">
                <g id="Grupo_61258" data-name="Grupo 61258">
                  <g id="Grupo_61257" data-name="Grupo 61257">
                    <path id="Trazado_120484" data-name="Trazado 120484" d="M1098.475,673.348c.962-1.576.026-3.627.329-5.449a2.153,2.153,0,0,1,.7-1.342,1.1,1.1,0,0,1,1.411-.006c.449.437.3,1.171.291,1.8a15.329,15.329,0,0,0,.759,3.272c.57,2.671-.848,4.867-2.2,7.171a13.188,13.188,0,0,1-5.424,2.146c-.9.089-5.5-2.449-7.3-7.9-.905-2.734-.8-3.867-.494-4.24a.982.982,0,0,1,1.285-.26,1.451,1.451,0,0,1,.437.734c.576,1.639,1.146,3.278,1.709,4.981a10.541,10.541,0,0,1-3.285-8.2c.032-.582.209-1.285.766-1.456a1.048,1.048,0,0,1,1.019.316,3.189,3.189,0,0,1,.589.949c.8,1.728,1.6,3.449,2.721,5.5a7.978,7.978,0,0,1-2.177-7.69c.12-.456.392-.987.867-.994s.766.525.937.981q1.215,3.256,2.43,6.519a9.229,9.229,0,0,1-1.367-6.152c.1-.772.494-1.7,1.278-1.734a1.292,1.292,0,0,1,1.089.665,4.316,4.316,0,0,1,.437,1.259C1095.887,666.7,1096.988,669.051,1098.475,673.348Z" transform="translate(-1086.327 -662.291)" fill="#fdbd9b"/>
                    <path id="Trazado_120485" data-name="Trazado 120485" d="M1087.442,672.207c.721-.2,1.228.057,1.506,1.1.392,1.475,1.437,4.892,2.513,5.652" transform="translate(-1086.736 -665.909)" fill="none" stroke="#b0514a" stroke-linecap="round" stroke-miterlimit="10" stroke-width="0.5"/>
                  </g>
                  <path id="Trazado_120486" data-name="Trazado 120486" d="M1103.573,686.232l2.652,6.183-7.012,4.247-3.12-8.253Z" transform="translate(-1089.912 -671.08)" fill="#fdbd9b"/>
                </g>
                <g id="Grupo_61261" data-name="Grupo 61261" transform="translate(2.533 2.463)">
                  <g id="Grupo_61259" data-name="Grupo 61259" transform="translate(0 0.057)">
                    <path id="Trazado_120487" data-name="Trazado 120487" d="M1101.167,671.626a6.078,6.078,0,0,0-5.076-5.158l-.038-.2s-1.272.228-1.7.323c-2.772.62-4.487,3.728-3.918,6.943s3.26,5.531,6.076,5.158c.43-.057,1.7-.285,1.7-.285l-.038-.2A6.05,6.05,0,0,0,1101.167,671.626Z" transform="translate(-1090.33 -666.272)" fill="#316382"/>
                  </g>
                  <path id="Trazado_120488" data-name="Trazado 120488" d="M1096.664,666.258c2.959-.528,5.843,1.764,6.442,5.119s-1.316,6.5-4.275,7.031-5.844-1.765-6.442-5.12S1093.7,666.786,1096.664,666.258Z" transform="translate(-1091.046 -666.183)" fill="#407c91"/>
                  <g id="Grupo_61260" data-name="Grupo 61260" transform="translate(2.479 1.423)">
                    <path id="Trazado_120489" data-name="Trazado 120489" d="M1102.586,672.425a4.5,4.5,0,0,0-4.962-3.937.8.8,0,0,0-.12.025,4.8,4.8,0,0,0,1.671,9.335.8.8,0,0,0,.12-.019A4.489,4.489,0,0,0,1102.586,672.425Z" transform="translate(-1094.247 -668.431)" fill="#ebf5ff"/>
                  </g>
                </g>
              </g>
              <path id="Trazado_120490" data-name="Trazado 120490" d="M1124.237,681.717l-4.316-3.285a11.523,11.523,0,0,0-4.317,4.93c-1.5,3.335-3.487,14.468-3.487,14.468l-8.063-13.392-10.272,7.291s11.392,28.835,18.253,29.183,11.69-6.006,11.69-6.006Z" transform="translate(-1089.064 -668.216)" fill="#fff"/>
            </g>
            <g id="Grupo_61270" data-name="Grupo 61270" transform="translate(0 92.454)">
              <g id="Grupo_61265" data-name="Grupo 61265" transform="translate(0 82.093)">
                <path id="Trazado_120491" data-name="Trazado 120491" d="M1088.142,880.124l1.31,8.259,5.405,2.2,6.209-2.968-1.127-8.139Z" transform="translate(-1076.248 -879.472)" fill="#fbbd9a"/>
                <g id="Grupo_61264" data-name="Grupo 61264" transform="translate(0 7.405)">
                  <path id="Trazado_120492" data-name="Trazado 120492" d="M1097.66,902.811l-28.018-.405a7.12,7.12,0,0,1-.266-1.424,5.046,5.046,0,0,1,1.734-4.57c2.354-1.829,6.095-2.082,8.525-3.025a5.416,5.416,0,0,0,2.335-2l3.987.228s.329,2.221,1.81,2.088,6.373-2.532,6.373-2.532a24.645,24.645,0,0,1,3.474,9.81A10.043,10.043,0,0,1,1097.66,902.811Z" transform="translate(-1069.349 -891.172)" fill="#502202"/>
                  <path id="Trazado_120493" data-name="Trazado 120493" d="M1097.676,908.5l-28.018-.405a7.125,7.125,0,0,1-.266-1.424h28.233A9.793,9.793,0,0,1,1097.676,908.5Z" transform="translate(-1069.365 -896.862)" fill="#855321"/>
                </g>
              </g>
              <g id="Grupo_61269" data-name="Grupo 61269" transform="translate(7.197)">
                <g id="Grupo_61267" data-name="Grupo 61267" transform="translate(26.309 82.093)">
                  <path id="Trazado_120494" data-name="Trazado 120494" d="M1141.082,880.124l1.31,8.259,5.4,2.2,6.209-2.968-1.127-8.139Z" transform="translate(-1129.188 -879.472)" fill="#fbbd9a"/>
                  <g id="Grupo_61266" data-name="Grupo 61266" transform="translate(0 7.405)">
                    <path id="Trazado_120495" data-name="Trazado 120495" d="M1150.6,902.811l-28.018-.405a7.131,7.131,0,0,1-.266-1.424,5.045,5.045,0,0,1,1.734-4.57c2.354-1.829,6.095-2.082,8.525-3.025a5.414,5.414,0,0,0,2.335-2l3.987.228s.329,2.221,1.81,2.088,6.373-2.532,6.373-2.532a24.649,24.649,0,0,1,3.474,9.81A10.067,10.067,0,0,1,1150.6,902.811Z" transform="translate(-1122.289 -891.172)" fill="#502202"/>
                    <path id="Trazado_120496" data-name="Trazado 120496" d="M1150.616,908.5,1122.6,908.1a7.147,7.147,0,0,1-.266-1.424h28.234A9.807,9.807,0,0,1,1150.616,908.5Z" transform="translate(-1122.305 -896.862)" fill="#855321"/>
                  </g>
                </g>
                <g id="Grupo_61268" data-name="Grupo 61268">
                  <path id="Trazado_120497" data-name="Trazado 120497" d="M1117.278,751.5l-4.589,7.436s-26.272,4-30.525,10.436c-3.924,5.937,1.392,66.112,1.392,66.112H1101.6s-1.38-44.448,0-48.562,42.752-3.88,45.125-9.462,3.164-25.17,3.164-25.17" transform="translate(-1080.72 -750.401)" fill="#112c45"/>
                  <path id="Trazado_120498" data-name="Trazado 120498" d="M1165.808,759.445s1.019,16.107-4.272,19.962c-4.595,3.348-16.278,4.221-16.278,4.221l2.253,50.1-17.253,1.127s-8.569-58.473-8.164-64.081,17-9.664,15.867-10.462c0,0-12.791-4.342-8.05-9.114.108-.108.228-.221.348-.329,1.1-.975,14.576.032,14.576.032l12.424-1.139,4.918,5.576Z" transform="translate(-1095.904 -749.762)" fill="#163a4a"/>
                </g>
              </g>
            </g>
            <path id="Trazado_120499" data-name="Trazado 120499" d="M1169.674,764.543c-.108.791-.228,1.639-.354,2.5-2.127-2.7-5.563-6.658-8.595-8.323-6.284-3.456-26.373-5.816-26.373-5.816l.076-1.715c.108-.108.228-.221.348-.329,1.1-.975,14.576.032,14.576.032l12.424-1.139,4.918,5.576Z" transform="translate(-1093.212 -657.304)" fill="#112c45"/>
            <g id="Grupo_61280" data-name="Grupo 61280" transform="translate(37.751)">
              <g id="Grupo_61271" data-name="Grupo 61271" transform="translate(10.174 32.392)">
                <path id="Trazado_120500" data-name="Trazado 120500" d="M1165.287,664.988s-7.4,9.557-12.006,9.069-8.209-5.589-8.209-5.589,1.848-.684,2.645-3.7a16.731,16.731,0,0,0-.221-7.873l13.7-2.032a18.964,18.964,0,0,0,.513,4.747C1162.224,661.71,1163.249,663.95,1165.287,664.988Z" transform="translate(-1145.072 -654.862)" fill="#fdbd9b"/>
                <path id="Trazado_120501" data-name="Trazado 120501" d="M1149.124,664.777a16.734,16.734,0,0,0-.222-7.873l13.7-2.031a18.971,18.971,0,0,0,.513,4.747A23.256,23.256,0,0,1,1149.124,664.777Z" transform="translate(-1146.478 -654.866)" fill="#f0997f"/>
              </g>
              <g id="Grupo_61279" data-name="Grupo 61279">
                <g id="Grupo_61273" data-name="Grupo 61273" transform="translate(0 23.45)">
                  <path id="Trazado_120502" data-name="Trazado 120502" d="M1129.013,643.606c.21-1.851,2.435-3.119,4.97-2.832s4.421,2.021,4.211,3.872-2.435,3.119-4.971,2.832S1128.8,645.457,1129.013,643.606Z" transform="translate(-1128.997 -640.734)" fill="#f0997f"/>
                  <g id="Grupo_61272" data-name="Grupo 61272" transform="translate(2.402 2.214)">
                    <path id="Trazado_120503" data-name="Trazado 120503" d="M1135.608,645.384v-.051a1.1,1.1,0,0,0-1.1-1.1h-.614a1.1,1.1,0,0,0-1.1,1.1v.051a1.1,1.1,0,0,0,1.1,1.1h.614A1.1,1.1,0,0,0,1135.608,645.384Z" transform="translate(-1132.792 -644.232)" fill="#4b8394"/>
                    <rect id="Rectángulo_7417" data-name="Rectángulo 7417" width="0.924" height="2.532" transform="translate(0 1.126)" fill="#4b8394"/>
                  </g>
                </g>
                <g id="Grupo_61274" data-name="Grupo 61274" transform="translate(3.617 5.69)">
                  <path id="Trazado_120504" data-name="Trazado 120504" d="M1162.189,628.513c0-8.747-6.05-15.841-13.519-15.841s-13.519,4.671-13.519,15.841c0,8.747,3.392,16.335,11.43,16.867C1154.031,645.867,1162.189,637.266,1162.189,628.513Z" transform="translate(-1134.874 -612.672)" fill="#fdbd9b"/>
                  <path id="Trazado_120505" data-name="Trazado 120505" d="M1160.433,634.439a19.015,19.015,0,0,1-5.209-8.8,4.122,4.122,0,0,1-3.626-.551,10.057,10.057,0,0,1-8.493-.487,7.077,7.077,0,0,1-6.3-.2,13.438,13.438,0,0,0-2.095,4.3q.285-4.519.582-9.044,10.7-1.51,21.493-2.1a2.349,2.349,0,0,1,1.2.146,2.32,2.32,0,0,1,.949,1.494A34.337,34.337,0,0,1,1160.433,634.439Z" transform="translate(-1134.712 -614.459)" fill="#f0997f"/>
                </g>
                <g id="Grupo_61275" data-name="Grupo 61275" transform="translate(2.536)">
                  <path id="Trazado_120506" data-name="Trazado 120506" d="M1163.246,613.6c-.3,4.494-.588,10.291-.886,14.728-.418,1.525-1.728,1.468-3.506,2.038a43.978,43.978,0,0,1-3.278-12,8.712,8.712,0,0,1-5.367-.354,11.451,11.451,0,0,1-8.361-.019,9.648,9.648,0,0,1-6.215.114,38.771,38.771,0,0,0-1.272,7.917c-.253-2.158-1.089-8.835-1.3-13.411a15.463,15.463,0,0,1,.158-4.209c.848-2.487,3.595-1.684,4.329-.829a4.116,4.116,0,0,1,2.791-2.329,4.526,4.526,0,0,1,3.7.88,4.718,4.718,0,0,1,3.968-2.437,3.93,3.93,0,0,1,3.8,2.43,8.285,8.285,0,0,1,2.386-.962,3.48,3.48,0,0,1,2.494.386,2.689,2.689,0,0,1,.873.93,3.837,3.837,0,0,1,.487,1.424,2.524,2.524,0,0,1,3.158-.589,4.113,4.113,0,0,1,1.937,2.8A11.952,11.952,0,0,1,1163.246,613.6Z" transform="translate(-1133.008 -603.685)" fill="#502202"/>
                  <path id="Trazado_120507" data-name="Trazado 120507" d="M1157.559,606.473a4.666,4.666,0,0,0-2.873-.278,4.291,4.291,0,0,0-2.886,2.215,3.944,3.944,0,0,0-3.778-2.494,4.6,4.6,0,0,0-3.848,3.171,4.177,4.177,0,0,0-3.607-1.424,3.976,3.976,0,0,0-3.165,2.354,1.8,1.8,0,0,0-1.968-.4,3.476,3.476,0,0,0-1.582,1.392,7.664,7.664,0,0,0-.8,1.595,15.458,15.458,0,0,1,.158-4.209c.848-2.487,3.6-1.683,4.329-.829a4.117,4.117,0,0,1,2.791-2.329,4.527,4.527,0,0,1,3.7.88,4.717,4.717,0,0,1,3.968-2.437,3.93,3.93,0,0,1,3.8,2.43,8.285,8.285,0,0,1,2.386-.962,3.48,3.48,0,0,1,2.493.386A2.723,2.723,0,0,1,1157.559,606.473Z" transform="translate(-1133.004 -603.681)" fill="#6b4019"/>
                </g>
                <g id="Grupo_61276" data-name="Grupo 61276" transform="translate(5.94 20.746)">
                  <path id="Trazado_120508" data-name="Trazado 120508" d="M1141.819,636.575a4.4,4.4,0,0,0-3.437.627" transform="translate(-1138.382 -636.46)" fill="none" stroke="#502202" stroke-linecap="round" stroke-miterlimit="10" stroke-width="2"/>
                  <path id="Trazado_120509" data-name="Trazado 120509" d="M1157.922,636.812a4.164,4.164,0,0,1,3.949.386" transform="translate(-1145.555 -636.469)" fill="none" stroke="#502202" stroke-linecap="round" stroke-miterlimit="10" stroke-width="2"/>
                  <path id="Trazado_120510" data-name="Trazado 120510" d="M1149.362,644.642a26.361,26.361,0,0,0,.367,3.734" transform="translate(-1142.413 -639.464)" fill="none" stroke="#b0514a" stroke-linecap="round" stroke-miterlimit="10" stroke-width="2"/>
                  <path id="Trazado_120511" data-name="Trazado 120511" d="M1152.152,655.146a5.894,5.894,0,0,0,4.171-1.544" transform="translate(-1143.437 -642.753)" fill="none" stroke="#b0514a" stroke-linecap="round" stroke-miterlimit="10" stroke-width="2"/>
                  <path id="Trazado_120512" data-name="Trazado 120512" d="M1158.379,644.2c.382-.067.763.283.851.782a.832.832,0,0,1-.532,1.025c-.382.068-.763-.282-.851-.782A.833.833,0,0,1,1158.379,644.2Z" transform="translate(-1145.521 -639.298)" fill="#2d3a5e"/>
                  <path id="Trazado_120513" data-name="Trazado 120513" d="M1141.638,644.428c.382-.068.763.282.851.782a.832.832,0,0,1-.532,1.026c-.382.067-.763-.283-.851-.782A.832.832,0,0,1,1141.638,644.428Z" transform="translate(-1139.375 -639.382)" fill="#2d3a5e"/>
                </g>
                <g id="Grupo_61278" data-name="Grupo 61278" transform="translate(25.627 23.43)">
                  <path id="Trazado_120514" data-name="Trazado 120514" d="M1173.628,640.761c2.528-.348,4.783.865,5.038,2.711s-1.589,3.625-4.116,3.973-4.783-.865-5.037-2.71S1171.1,641.11,1173.628,640.761Z" transform="translate(-1169.489 -640.702)" fill="#fdbd9b"/>
                  <g id="Grupo_61277" data-name="Grupo 61277" transform="translate(3.996 2.234)">
                    <path id="Trazado_120515" data-name="Trazado 120515" d="M1175.8,645.384v-.051a1.1,1.1,0,0,1,1.1-1.1h.614a1.1,1.1,0,0,1,1.1,1.1v.051a1.1,1.1,0,0,1-1.1,1.1h-.614A1.1,1.1,0,0,1,1175.8,645.384Z" transform="translate(-1175.802 -644.232)" fill="#4b8394"/>
                    <rect id="Rectángulo_7418" data-name="Rectángulo 7418" width="0.924" height="2.532" transform="translate(1.892 1.126)" fill="#4b8394"/>
                  </g>
                </g>
              </g>
            </g>
            <g id="Grupo_61281" data-name="Grupo 61281" transform="translate(41.564 40.309)">
              <path id="Trazado_120516" data-name="Trazado 120516" d="M1159.914,667.552s-7.5,4.531-8.8,6.158a9.808,9.808,0,0,0-1.7,3.861,34.743,34.743,0,0,0-2.2-4.107c-.405-.316-3.55-3.3-3.55-3.3l-3.69,2.8-4.943,2.57.209,47.48,33.43,2.266.861-51.524Z" transform="translate(-1135.022 -667.438)" fill="#69c5c9"/>
              <path id="Trazado_120517" data-name="Trazado 120517" d="M1155.779,683.822c-1.582,13.316,1.165,36.588-3.3,45.625" transform="translate(-1141.432 -673.41)" fill="none" stroke="#3e7c8a" stroke-linecap="round" stroke-miterlimit="10" stroke-width="0.5"/>
              <path id="Trazado_120518" data-name="Trazado 120518" d="M1158.712,675.53a6.926,6.926,0,0,1,1.861-3.139c1.3-1.038,7.987-4.975,8.164-5.019s3.462,2.247,3.462,2.247l-4.962,7.044s-5.088-3.576-6.278-3.272C1159.82,673.688,1158.712,675.53,1158.712,675.53Z" transform="translate(-1143.719 -667.371)" fill="#9bebe7"/>
              <path id="Trazado_120519" data-name="Trazado 120519" d="M1151.407,676.755a7.41,7.41,0,0,0-1.063-2.316,28.155,28.155,0,0,0-3.646-3.747c-.266.013-2.9,1.595-3.367,2.551s-.2,5.475-.2,5.475,4.443-4.228,6.177-3.747A4.738,4.738,0,0,1,1151.407,676.755Z" transform="translate(-1137.97 -668.59)" fill="#9bebe7"/>
            </g>
            <g id="Grupo_61282" data-name="Grupo 61282" transform="translate(61.837 40.975)">
              <path id="Trazado_120520" data-name="Trazado 120520" d="M1174.805,669.622s-5.8,5.456-6.677,10.993-.538,34.676,4.835,44.372c4.658,8.411,5.1,35.2,5.1,47.638l16.3-5.62s-.07-22.31-5.335-42.967c-4.082-16.012-.165-45.271-2.5-48.132C1184.906,673.907,1174.805,669.622,1174.805,669.622Z" transform="translate(-1167.313 -668.863)" fill="#fff"/>
              <path id="Trazado_120521" data-name="Trazado 120521" d="M1167.667,700.276s-1.348-15.392-.044-20.348,5.076-11.253,6.095-11.474c1.683-.361,5.449,2.557,5.449,2.557a37.167,37.167,0,0,0-3.949,13.285c-.082.721-6.063,2.93-6.063,2.93s4.671,3.418,4.608,3.753S1167.667,700.276,1167.667,700.276Z" transform="translate(-1167.054 -668.423)" fill="#dae8f7"/>
            </g>
            <g id="Grupo_61285" data-name="Grupo 61285" transform="translate(45.412 44.364)">
              <g id="Grupo_61283" data-name="Grupo 61283" transform="translate(0 48.602)">
                <ellipse id="Elipse_4272" data-name="Elipse 4272" cx="6.335" cy="3.943" rx="6.335" ry="3.943" transform="translate(0 2.146)" fill="#407c91"/>
                <path id="Trazado_120522" data-name="Trazado 120522" d="M1157.683,751.5l-6.456-.854a3.108,3.108,0,0,0-1.721.1,2.323,2.323,0,0,0-1.127,2.038c1.076.095,2.152.183,3.24.361a21.235,21.235,0,0,1-4.747,4.715,5.21,5.21,0,0,0-1.133.968,1.535,1.535,0,0,0-.323,1.4,1.464,1.464,0,0,0,1.12.88,12.449,12.449,0,0,0,1.57.044,1.713,1.713,0,0,0,.829,1.867,2.057,2.057,0,0,0,2.152-.279,2.292,2.292,0,0,0,1.665,1.171,5.1,5.1,0,0,0,2.044-.323,2.7,2.7,0,0,0,2.057.924,3.424,3.424,0,0,0,2.165-.943,16.651,16.651,0,0,0,4.31-6.057A46.2,46.2,0,0,1,1157.683,751.5Z" transform="translate(-1142.664 -750.57)" fill="#fbbd9a"/>
              </g>
              <g id="Grupo_61284" data-name="Grupo 61284" transform="translate(12.152)">
                <path id="Trazado_120523" data-name="Trazado 120523" d="M1173.6,683.3c-.158-3.057,1.392-8.81,3.595-9.411,3.43-.93,9.259,4.221,10.791,8.323s6.158,29.234,4.861,32.657c-1.778,4.671-25.265,17.234-25.265,17.234l-7.278-10.639s16.284-8.835,17.253-11.645C1178.156,708.058,1173.973,690.47,1173.6,683.3Z" transform="translate(-1160.302 -673.778)" fill="#fff"/>
                <path id="Trazado_120524" data-name="Trazado 120524" d="M1186.053,680.5s-2.626,3.437-2.626,9.626,1.519,20.848,1.164,21.386-11.829,7.981-11.829,7.981" transform="translate(-1164.876 -676.246)" fill="none" stroke="#b8c8e3" stroke-linecap="round" stroke-miterlimit="10" stroke-width="1"/>
                <path id="Trazado_120525" data-name="Trazado 120525" d="M1187.9,706.42a16.089,16.089,0,0,1-3.468-6.968" transform="translate(-1169.16 -683.203)" fill="none" stroke="#b8c8e3" stroke-linecap="round" stroke-miterlimit="10" stroke-width="1"/>
                <path id="Trazado_120526" data-name="Trazado 120526" d="M1180.062,757.423a98.012,98.012,0,0,0,12.367-7.791" transform="translate(-1167.556 -701.624)" fill="none" stroke="#b8c8e3" stroke-linecap="round" stroke-miterlimit="10" stroke-width="1"/>
              </g>
            </g>
            <g id="Grupo_61287" data-name="Grupo 61287" transform="translate(28.071 42.405)">
              <path id="Trazado_120527" data-name="Trazado 120527" d="M1134.891,671.332a45.489,45.489,0,0,0-.987,10.4c0,11.076-1.443,41.872-7.272,46.423-4.582,3.576-10.323,3.348-12.93,3.348,0,0,5.424-2.886,7.449-6.234,2.253-3.721,2.633-15.55,2.93-21.715.316-6.532.9-24.531,1.652-26.1C1127.354,674.066,1134.891,671.332,1134.891,671.332Z" transform="translate(-1113.702 -670.921)" fill="#fff"/>
              <path id="Trazado_120528" data-name="Trazado 120528" d="M1140.378,702.048a175.5,175.5,0,0,0,1.323-17.67,64.845,64.845,0,0,1,1.336-13.7s-4.608,1.462-5.114,2.209-2.892,5.031-4.114,13.152c-.2,1.342,5.24,2.449,5.24,2.449s-4.2,3.259-4.2,4.076C1134.859,694.15,1140.378,702.048,1140.378,702.048Z" transform="translate(-1121.081 -670.682)" fill="#dae8f7"/>
              <g id="Grupo_61286" data-name="Grupo 61286" transform="translate(9.272 9.753)">
                <path id="Trazado_120529" data-name="Trazado 120529" d="M1130.935,686.092a264.153,264.153,0,0,1-2.373,36.689" transform="translate(-1128.429 -686.092)" fill="none" stroke="#b8c8e3" stroke-linecap="round" stroke-miterlimit="10" stroke-width="1"/>
                <path id="Trazado_120530" data-name="Trazado 120530" d="M1128.352,696.092a14.909,14.909,0,0,0,2.234,5.8" transform="translate(-1128.352 -689.763)" fill="none" stroke="#b8c8e3" stroke-linecap="round" stroke-miterlimit="10" stroke-width="1"/>
              </g>
            </g>
          </g>
          <g id="Grupo_61290" data-name="Grupo 61290" transform="translate(0 29.253)">
            <path id="Trazado_120531" data-name="Trazado 120531" d="M1133.492,649.934s.867,20.373,13.082,21.151c10.31.658,16.031-12.012,16.031-21.183" transform="translate(-1068.171 -649.902)" fill="none" stroke="#163649" stroke-miterlimit="10" stroke-width="1"/>
            <g id="Grupo_61289" data-name="Grupo 61289" transform="translate(0 21.436)">
              <path id="Trazado_120532" data-name="Trazado 120532" d="M1109.645,683.772s-7.512,27.455-28.354,32.417c-25.506,6.076-50.5-.753-50.5-.753" transform="translate(-1030.469 -683.772)" fill="none" stroke="#163649" stroke-linecap="round" stroke-miterlimit="10" stroke-width="1"/>
              <path id="Trazado_120533" data-name="Trazado 120533" d="M1075.962,685s2.88,16.645-10.025,25.265c-11.43,7.639-35.145,5.278-35.145,5.278" transform="translate(-1030.469 -684.224)" fill="none" stroke="#163649" stroke-linecap="round" stroke-miterlimit="10" stroke-width="1"/>
              <path id="Trazado_120534" data-name="Trazado 120534" d="M1100.85,750.4s-46.746.095-70.568-16.6" transform="translate(-1030.282 -702.138)" fill="none" stroke="#163649" stroke-linecap="round" stroke-miterlimit="10" stroke-width="1"/>
            </g>
          </g>
        </g>
      </g>
      <g id="Grupo_61325" data-name="Grupo 61325" transform="translate(175.008 0)">
        <path id="Trazado_120535" data-name="Trazado 120535" d="M1296.4,568.224a10.85,10.85,0,0,1,20.664-5.215c1.81,3.873,1.19,8.411.316,12.6s-1.949,8.525-.956,12.683c.842,3.5,3.1,6.588,3.551,10.158a10.669,10.669,0,0,1-7.633,11.259c-2.709.7-6.209-.165-7.069-2.829-.8-2.468,1.025-5.095.658-7.658-.31-2.152-2.063-3.747-3.506-5.367C1297.112,587.869,1297.036,579.243,1296.4,568.224Z" transform="translate(-1243.031 -556.779)" fill="#381b07"/>
        <g id="Grupo_61294" data-name="Grupo 61294" transform="translate(0 49.038)">
          <path id="Trazado_120536" data-name="Trazado 120536" d="M1220.506,661.328c-2.424-2.766-4.2-7.747-4.2-9.424,0-1.981-.317-4.013.38-5.867a14.709,14.709,0,0,1,1.462-2.683c.626-.981,1.247-1.962,1.873-2.943a1.979,1.979,0,0,1,1.019-.962c.779-.209,1.494.671,1.456,1.481a3.162,3.162,0,0,1-1.494,2.2,8.73,8.73,0,0,1,2.133-3.956,1.178,1.178,0,0,1,1.032-.494c.639.152.62,1.063.449,1.7-.43,1.589-.854,3.177-1.2,4.544,1.354,2.582,1.234,5.645,1.26,8.557s.31,6.063,2.234,8.253C1225.07,662.543,1222.892,659.315,1220.506,661.328Z" transform="translate(-1213.608 -635.879)" fill="#db8e62"/>
          <path id="Trazado_120537" data-name="Trazado 120537" d="M1222.542,669.67s6.424,21.949,11.278,22.4c5.873.551,10.645-4.88,10.645-4.88l3.835-19.658-8.7-5.209-4.8,15.753-6.848-7.74Z" transform="translate(-1215.922 -644.563)" fill="#db8e62"/>
          <path id="Trazado_120538" data-name="Trazado 120538" d="M1259.919,660.508c-4.785-1.81-9.588-3.582-14.367-5.418,1.3-6.247,3.114-13.734,4.7-16.126a10.619,10.619,0,0,1,7.747-4.7l2.183,6.462-.259,19.651Z" transform="translate(-1224.369 -634.262)" fill="#1d9fb3"/>
          <g id="Grupo_61293" data-name="Grupo 61293" transform="translate(0 2.804)">
            <path id="Trazado_120539" data-name="Trazado 120539" d="M1243.22,674.849l-13.987-36.157-17.151,4.449,15.873,40.258Z" transform="translate(-1212.082 -638.692)" fill="#b23f37"/>
            <path id="Trazado_120540" data-name="Trazado 120540" d="M1242.18,674.015l-12.6-32.183-13.987,3.791,13.778,35.214Z" transform="translate(-1213.371 -639.845)" fill="#ebf5ff"/>
            <path id="Trazado_120541" data-name="Trazado 120541" d="M1227.347,640.452l.873,2.335-5.487,1.525-.981-2.386Z" transform="translate(-1215.632 -639.338)" fill="#678ca8"/>
          </g>
        </g>
        <g id="Grupo_61298" data-name="Grupo 61298" transform="translate(22.873 98.487)">
          <g id="Grupo_61297" data-name="Grupo 61297" transform="translate(0 95.504)">
            <g id="Grupo_61296" data-name="Grupo 61296">
              <g id="Grupo_61295" data-name="Grupo 61295" transform="translate(0 11.329)">
                <path id="Trazado_120542" data-name="Trazado 120542" d="M1248.222,894.565c.051,2.373,24.942,1.57,26.063-.386.728-1.279-.614-4.494-1.639-6.576-.544-1.12-1-1.911-1-1.911l-3.165-4.43-2.525-.07a122,122,0,0,0-14.55,9.506C1249.418,892.331,1248.2,893.685,1248.222,894.565Z" transform="translate(-1248.222 -881.192)" fill="#136d94"/>
                <path id="Trazado_120543" data-name="Trazado 120543" d="M1253.252,890.708c5.146,3.24,17-1.291,21.24-3.095-.544-1.12-1-1.911-1-1.911l-3.165-4.43-2.525-.07A121.543,121.543,0,0,0,1253.252,890.708Z" transform="translate(-1250.068 -881.196)" fill="#db8e62"/>
              </g>
              <path id="Trazado_120544" data-name="Trazado 120544" d="M1265.322,864.861l.88,9.7.316,3.481.222,2.392,10.069-1.057.083-1.69v-.006l.082-1.772.557-11.468.057-1.152-6.133.785Z" transform="translate(-1254.499 -863.292)" fill="#db8e62"/>
            </g>
            <path id="Trazado_120545" data-name="Trazado 120545" d="M1265.322,865.317l.88,9.7,5.038.627h.006l4.247.538,1.481.184.557-11.468-6.076-.367Z" transform="translate(-1254.499 -863.747)" fill="#cf6e4a"/>
          </g>
          <path id="Trazado_120546" data-name="Trazado 120546" d="M1252,712.392s-4.329,11.974-3.475,29,8.031,76.4,8.031,76.4l17.886-.842-3.063-76.644-4.316-23.734" transform="translate(-1248.293 -712.392)" fill="#1d9fb3"/>
        </g>
        <g id="Grupo_61303" data-name="Grupo 61303" transform="translate(24.012 94.632)">
          <g id="Grupo_61301" data-name="Grupo 61301" transform="translate(36.847 90.042)">
            <g id="Grupo_61300" data-name="Grupo 61300">
              <g id="Grupo_61299" data-name="Grupo 61299" transform="translate(6.333 10.519)">
                <path id="Trazado_120547" data-name="Trazado 120547" d="M1318.681,888.455c1.576,1.772,20-14.987,19.588-17.2-.272-1.443-3.38-3.019-5.512-3.937-1.139-.494-2-.8-2-.8l-5.285-1.316-1.968,1.582a121.637,121.637,0,0,0-4.9,16.671C1318.137,885.974,1318.1,887.8,1318.681,888.455Z" transform="translate(-1318.248 -865.196)" fill="#136d94"/>
                <path id="Trazado_120548" data-name="Trazado 120548" d="M1318.8,883.445c6.019-.873,12.1-12.012,14.158-16.133-1.139-.494-2-.8-2-.8l-5.285-1.316-1.968,1.582A121.384,121.384,0,0,0,1318.8,883.445Z" transform="translate(-1318.452 -865.192)" fill="#db8e62"/>
              </g>
              <path id="Trazado_120549" data-name="Trazado 120549" d="M1308.242,857.724l4.183,4.095,5.272,5.158,1.721,1.677,6.981-7.329-1.038-1.348-3.019-3.911-5.785-7.493Z" transform="translate(-1308.242 -848.572)" fill="#db8e62"/>
            </g>
            <path id="Trazado_120550" data-name="Trazado 120550" d="M1308.242,857.724l4.183,4.095,9.918-5.753-5.785-7.493Z" transform="translate(-1308.242 -848.572)" fill="#cf6e4a"/>
          </g>
          <g id="Grupo_61302" data-name="Grupo 61302">
            <path id="Trazado_120551" data-name="Trazado 120551" d="M1250.212,721.409c1.74,4.835,14.848,13.354,14.848,13.354s-.127,33.752.361,42.258,18.114,36.278,18.114,36.278l16.519-14.664s-12.8-21.411-13.683-26.442,4.658-31.493,4.658-42.265a41.583,41.583,0,0,0-.487-6.082A75.858,75.858,0,0,0,1287.6,711.7c-1.057-3.259-1.949-5.4-1.949-5.4a162.847,162.847,0,0,0-17.936,3.81c-8.2,2.291-16.373,5.6-17.62,9.823A2.383,2.383,0,0,0,1250.212,721.409Z" transform="translate(-1250.023 -706.302)" fill="#25b2c2"/>
            <path id="Trazado_120552" data-name="Trazado 120552" d="M1250.213,723.619a106.41,106.41,0,0,0,13.6,6.785,20.438,20.438,0,0,1,.987-2.335c.411.892.829,1.772,1.335,2.981,8.076-2.025,16.227-3.74,24.411-4.994a75.843,75.843,0,0,0-2.943-12.145q-9.93-.93-19.885-1.589c-8.2,2.291-16.373,5.6-17.62,9.823A2.335,2.335,0,0,0,1250.213,723.619Z" transform="translate(-1250.023 -708.512)" fill="#1d9fb3"/>
          </g>
        </g>
        <path id="Trazado_120553" data-name="Trazado 120553" d="M1294.432,637.75c-.627-3.8-15-8.677-19.886-8.234-10.493.956-18.094,2.861-20.487,4.361s-4.576,15.512-4.576,19.417c0,4.62,1.589,13.689,1.164,17.348-.823,7.095-5.127,22.12-5.127,22.12l15.816,5.544,1.962-3.456,1.791,4.38,26.139-5.994s-2-20.816-2-24.468C1289.236,665.268,1295.242,642.648,1294.432,637.75Z" transform="translate(-1224.358 -583.471)" fill="#27b8c1"/>
        <g id="Grupo_61305" data-name="Grupo 61305" transform="translate(38.917 56.76)">
          <path id="Trazado_120554" data-name="Trazado 120554" d="M1280.313,646.462c-5.253,27.36-5.544,35.2-6.741,54.416" transform="translate(-1273.572 -646.462)" fill="none" stroke="#51dbdb" stroke-linecap="round" stroke-miterlimit="10" stroke-width="1"/>
          <g id="Grupo_61304" data-name="Grupo 61304" transform="translate(1.778 4.538)">
            <circle id="Elipse_4273" data-name="Elipse 4273" cx="0.88" cy="0.88" r="0.88" transform="translate(4.778)" fill="#136d94"/>
            <circle id="Elipse_4274" data-name="Elipse 4274" cx="0.88" cy="0.88" r="0.88" transform="translate(2.576 11.968)" fill="#136d94"/>
            <circle id="Elipse_4275" data-name="Elipse 4275" cx="0.88" cy="0.88" r="0.88" transform="translate(0.88 24.582)" fill="#136d94"/>
            <circle id="Elipse_4276" data-name="Elipse 4276" cx="0.88" cy="0.88" r="0.88" transform="translate(0 39.043)" fill="#136d94"/>
          </g>
        </g>
        <g id="Grupo_61314" data-name="Grupo 61314" transform="translate(15.151 50.326)">
          <g id="Grupo_61313" data-name="Grupo 61313" transform="translate(0 15.193)">
            <g id="Grupo_61311" data-name="Grupo 61311">
              <g id="Grupo_61310" data-name="Grupo 61310">
                <g id="Grupo_61307" data-name="Grupo 61307" transform="translate(0 0.129)">
                  <path id="Trazado_120555" data-name="Trazado 120555" d="M1236.022,668.554l2.62.209.2.019,17.569-4.614a1.926,1.926,0,0,0,1.12-2.43,1.988,1.988,0,0,0-2.538-1.114l-16.759,5.924-.171.152Z" transform="translate(-1236.022 -660.506)" fill="#136d94"/>
                  <g id="Grupo_61306" data-name="Grupo 61306" transform="translate(0 6.193)">
                    <path id="Trazado_120556" data-name="Trazado 120556" d="M1236.022,672.146l.722.057,1.9.152a1.237,1.237,0,0,1-.171-.146.869.869,0,0,1-.26-.848c.038-.127.114-.26.063-.38a.609.609,0,0,0-.114-.139.63.63,0,0,1-.1-.551l-1.5,1.367Z" transform="translate(-1236.022 -670.292)" fill="#d68a5a"/>
                    <path id="Trazado_120557" data-name="Trazado 120557" d="M1236.022,672.939l.722.057a.7.7,0,0,1-.158-.285.71.71,0,0,1-.026-.26Z" transform="translate(-1236.022 -671.085)" fill="#24151a"/>
                  </g>
                </g>
                <g id="Grupo_61309" data-name="Grupo 61309" transform="translate(4.661)">
                  <path id="Trazado_120558" data-name="Trazado 120558" d="M1259.485,672.384c-1.728-3.2-3.449-6.4-5.291-9.614a17.417,17.417,0,0,0-4.475-2.468,12.449,12.449,0,0,0-5.082,3.234c-.355.373-.728.9-.563,1.4a.815.815,0,0,0,.854.519,2.44,2.44,0,0,0,.994-.4c.956-.557,1.911-1.12,3.019-1.658a8.117,8.117,0,0,1,.854.8,7.245,7.245,0,0,0-2.063.24,32.548,32.548,0,0,0-3.614,1.994,1.324,1.324,0,0,0-.728.905.841.841,0,0,0,.449.8,1.571,1.571,0,0,0,.886.127,5.846,5.846,0,0,0,3.1-1.158,4.074,4.074,0,0,1,1.013.392,5.147,5.147,0,0,0-1.392.4,1.935,1.935,0,0,0-.911,2.747.733.733,0,0,0-.38.722,2.038,2.038,0,0,0,.266.816,16.182,16.182,0,0,0,.892,1.551,2.836,2.836,0,0,0,1.152,1.12,1.138,1.138,0,0,0,1.449-.551,6.46,6.46,0,0,0,6.114,3.323A19.62,19.62,0,0,0,1259.485,672.384Z" transform="translate(-1243.387 -660.302)" fill="#db8e62"/>
                  <g id="Grupo_61308" data-name="Grupo 61308" transform="translate(3.237 3.848)">
                    <path id="Trazado_120559" data-name="Trazado 120559" d="M1255.78,666.8a6.914,6.914,0,0,0-1.968-.418" transform="translate(-1250.451 -666.382)" fill="none" stroke="#a8473e" stroke-linecap="round" stroke-miterlimit="10" stroke-width="0.5"/>
                    <path id="Trazado_120560" data-name="Trazado 120560" d="M1253.91,671.4a7.234,7.234,0,0,0-1.728.051" transform="translate(-1249.853 -668.212)" fill="none" stroke="#a8473e" stroke-linecap="round" stroke-miterlimit="10" stroke-width="0.5"/>
                    <path id="Trazado_120561" data-name="Trazado 120561" d="M1248.5,675.944a6.263,6.263,0,0,1,3.335-.639" transform="translate(-1248.502 -669.646)" fill="none" stroke="#a8473e" stroke-linecap="round" stroke-miterlimit="10" stroke-width="0.5"/>
                    <path id="Trazado_120562" data-name="Trazado 120562" d="M1252.865,681.051a6.725,6.725,0,0,1-.7-1.9" transform="translate(-1249.846 -671.07)" fill="none" stroke="#a8473e" stroke-linecap="round" stroke-miterlimit="10" stroke-width="0.5"/>
                    <path id="Trazado_120563" data-name="Trazado 120563" d="M1251.821,680.782a5.716,5.716,0,0,1-1.139.089" transform="translate(-1249.302 -671.668)" fill="none" stroke="#a8473e" stroke-linecap="round" stroke-miterlimit="10" stroke-width="0.5"/>
                  </g>
                </g>
              </g>
            </g>
            <g id="Grupo_61312" data-name="Grupo 61312" transform="translate(16.24 2.494)">
              <path id="Trazado_120564" data-name="Trazado 120564" d="M1261.682,678.254s21.873,18.55,27.778,16.462c2.348-.835,4.677-7.645,6.367-13.987,1.557-5.829,2.57-11.253,2.57-11.253L1286,664.242s-.829,5.62-1.664,10.19c-.551,3.082-1.108,5.683-1.405,5.759-1.266.354-17.322-6.791-17.322-6.791Z" transform="translate(-1261.682 -664.242)" fill="#db8e62"/>
              <path id="Trazado_120565" data-name="Trazado 120565" d="M1297.482,674.442a69.619,69.619,0,0,0,11.481,6.3c1.557-5.829,2.57-11.253,2.57-11.253l-12.392-5.234S1298.317,669.872,1297.482,674.442Z" transform="translate(-1274.824 -664.246)" fill="#cf6e4a"/>
            </g>
          </g>
          <path id="Trazado_120566" data-name="Trazado 120566" d="M1311.033,665.818a92.238,92.238,0,0,1-14.911-3.778c.734-6.088,2.449-17.1,3.842-20.493.988-2.405,4.867-6.633,9.24-4.8s6.051,4.715,5.589,12.329C1314.622,651.781,1312.046,660.306,1311.033,665.818Z" transform="translate(-1258.085 -636.297)" fill="#32c9cf"/>
        </g>
        <g id="Grupo_61324" data-name="Grupo 61324" transform="translate(29.955 3.1)">
          <g id="Grupo_61317" data-name="Grupo 61317" transform="translate(10.853 32.546)">
            <g id="Grupo_61315" data-name="Grupo 61315" transform="translate(0.849)">
              <path id="Trazado_120567" data-name="Trazado 120567" d="M1277.9,626.273s1.272,5.759,3.728,7.443,11.753-8.671,11.753-8.671c-1.6-1.494-1.988-4.424-1.969-7.019a30.093,30.093,0,0,1,.462-4.924l-11.329,3.272a22.73,22.73,0,0,1-.468,6.266C1279.307,625.785,1277.9,626.273,1277.9,626.273Z" transform="translate(-1277.902 -613.102)" fill="#db8e62"/>
              <path id="Trazado_120568" data-name="Trazado 120568" d="M1281.352,622.64c5.222,1.108,9.215-2.215,11.329-4.614a30.045,30.045,0,0,1,.462-4.924l-11.329,3.272A22.506,22.506,0,0,1,1281.352,622.64Z" transform="translate(-1279.168 -613.102)" fill="#cf6e4a"/>
            </g>
            <g id="Grupo_61316" data-name="Grupo 61316" transform="translate(0 8.694)">
              <path id="Trazado_120569" data-name="Trazado 120569" d="M1284.441,638.961a14.6,14.6,0,0,1,.949-4.247c.367-.335,9.3-8.158,9.829-7.867.778.418,2.063,2.9,2.063,2.9a32.711,32.711,0,0,1-5.3,5.3C1289.606,636.974,1285.808,639.2,1284.441,638.961Z" transform="translate(-1279.447 -626.84)" fill="#136d94"/>
              <path id="Trazado_120570" data-name="Trazado 120570" d="M1281.555,639.754a16.1,16.1,0,0,0-.43-4.4,14.962,14.962,0,0,1-1.994-6.3s-2.253.854-2.531,1.348.949,4.152,1.892,5.892C1280.093,639.223,1281.4,639.913,1281.555,639.754Z" transform="translate(-1276.561 -627.652)" fill="#136d94"/>
            </g>
          </g>
          <g id="Grupo_61323" data-name="Grupo 61323" transform="translate(0)">
            <g id="Grupo_61320" data-name="Grupo 61320">
              <ellipse id="Elipse_4277" data-name="Elipse 4277" cx="3.443" cy="4.715" rx="3.443" ry="4.715" transform="matrix(0.113, -0.994, 0.994, 0.113, 0, 29.845)" fill="#cf6e4a"/>
              <g id="Grupo_61318" data-name="Grupo 61318" transform="translate(4.338 5.376)">
                <path id="Trazado_120571" data-name="Trazado 120571" d="M1293.841,586.33c0-8.924-6.171-16.158-13.785-16.158s-13.784,7.234-13.784,16.158,3.8,17.8,11.519,17.481C1285.392,603.494,1293.841,595.254,1293.841,586.33Z" transform="translate(-1266.269 -570.172)" fill="#db8e62"/>
                <path id="Trazado_120572" data-name="Trazado 120572" d="M1290.782,590.464a15.093,15.093,0,0,1-2.861-6.424,7.541,7.541,0,0,1-4.316-3.892c-2.335,2.335-11.209,3.652-14.171,2.88-2.107,2.6-2.171,3.892-2.918,7.215a36.329,36.329,0,0,1,.627-12.183,130.555,130.555,0,0,0,16.247-6.468c.9-.43,1.974-.867,2.835-.361a3.346,3.346,0,0,1,1.12,1.525,19.358,19.358,0,0,0,4.974,6.323c.538.449,1.152.956,1.177,1.652a2.508,2.508,0,0,1-.443,1.272C1292.061,583.831,1292.231,588.23,1290.782,590.464Z" transform="translate(-1266.267 -570.477)" fill="#cf6e4a"/>
              </g>
              <g id="Grupo_61319" data-name="Grupo 61319" transform="translate(1.999)">
                <path id="Trazado_120573" data-name="Trazado 120573" d="M1262.572,577.747c-.044,3.38,2.709,10.4,2.709,10.4s.019-5.778,2.652-9.531c5.449,0,11.487-.253,14.829-3.354a7.4,7.4,0,0,0,4.639,4.557c-.063,3.063,1.342,5.93,2.222,8.506,1.715-1.044,3.006-.6,4.405-2.253.81-2.994,1.671-7.671,1.424-10.563a14.563,14.563,0,0,0-2.1-6.639,10.3,10.3,0,0,0-1.012-1.336,8.245,8.245,0,0,0-7.842-2.715,9.011,9.011,0,0,0-6.361-3.114,12.647,12.647,0,0,0-6.886,1.816,16.3,16.3,0,0,0-8.316,10.917A17.38,17.38,0,0,0,1262.572,577.747Z" transform="translate(-1262.571 -561.682)" fill="#412408"/>
                <path id="Trazado_120574" data-name="Trazado 120574" d="M1262.572,577.743a13.3,13.3,0,0,1,.411-1.291,18.369,18.369,0,0,1,3.5-5.557,17.335,17.335,0,0,1,8.145-5.589A9.843,9.843,0,0,1,1284,567.3a9.289,9.289,0,0,1,9.348,1.557,10.3,10.3,0,0,0-1.013-1.335,8.244,8.244,0,0,0-7.842-2.715,9.01,9.01,0,0,0-6.361-3.114,12.647,12.647,0,0,0-6.886,1.816,16.3,16.3,0,0,0-8.316,10.917A18.042,18.042,0,0,0,1262.572,577.743Z" transform="translate(-1262.572 -561.678)" fill="#664216"/>
              </g>
              <path id="Trazado_120575" data-name="Trazado 120575" d="M1306.3,598.972c2.523-.646,4.95.324,5.422,2.166s-1.191,3.859-3.714,4.505-4.951-.324-5.422-2.166S1303.782,599.618,1306.3,598.972Z" transform="translate(-1275.234 -575.296)" fill="#db8e62"/>
            </g>
            <g id="Grupo_61322" data-name="Grupo 61322" transform="translate(6.24 21.439)">
              <g id="Grupo_61321" data-name="Grupo 61321">
                <ellipse id="Elipse_4278" data-name="Elipse 4278" cx="0.601" cy="0.962" rx="0.601" ry="0.962" transform="translate(12.221 5.107)" fill="#411f00"/>
                <ellipse id="Elipse_4279" data-name="Elipse 4279" cx="0.601" cy="0.962" rx="0.601" ry="0.962" transform="translate(1.177 5.107)" fill="#411f00"/>
                <path id="Trazado_120576" data-name="Trazado 120576" d="M1272.822,595.793a4.482,4.482,0,0,0-3.55.285" transform="translate(-1269.272 -595.553)" fill="none" stroke="#412408" stroke-linecap="round" stroke-miterlimit="10" stroke-width="2"/>
                <path id="Trazado_120577" data-name="Trazado 120577" d="M1288.052,596.528a4.244,4.244,0,0,1,4.025.392" transform="translate(-1276.166 -595.788)" fill="none" stroke="#412408" stroke-linecap="round" stroke-miterlimit="10" stroke-width="2"/>
                <path id="Trazado_120578" data-name="Trazado 120578" d="M1278.57,606.3a11.684,11.684,0,0,0,.013,2.7" transform="translate(-1272.659 -599.499)" fill="none" stroke="#a8473e" stroke-linecap="round" stroke-miterlimit="10" stroke-width="2"/>
              </g>
              <path id="Trazado_120579" data-name="Trazado 120579" d="M1279.682,614.172a3.474,3.474,0,0,0,4.335-1.07" transform="translate(-1273.094 -601.996)" fill="none" stroke="#a8473e" stroke-linecap="round" stroke-miterlimit="10" stroke-width="2"/>
            </g>
          </g>
        </g>
      </g>
    </g>
    <g id="Grupo_61335" data-name="Grupo 61335" transform="translate(891.975 494.978)">
      <g id="Grupo_61328" data-name="Grupo 61328" transform="translate(0 7.595)">
        <circle id="Elipse_4280" data-name="Elipse 4280" cx="23.221" cy="23.221" r="23.221" fill="#ffa8b1"/>
        <g id="Grupo_61327" data-name="Grupo 61327" transform="translate(6.373 11.905)">
          <path id="Trazado_120580" data-name="Trazado 120580" d="M947.929,532.138c5.082-9.468,15.133,3.24,15.133,3.24s10.069-10.86,15.132-3.8c5.26,7.323-15.132,24.379-15.132,24.379S943.606,540.2,947.929,532.138Z" transform="translate(-946.251 -528.633)" fill="#b82621"/>
          <path id="Trazado_120581" data-name="Trazado 120581" d="M945.642,544.038l7.044.076,2.19-8.569,4.512,16.291,3.569-19.734,3.88,17.772,2.316-12.886,2.481,6.759,7.7.209" transform="translate(-945.642 -529.906)" fill="none" stroke="#fff" stroke-linecap="round" stroke-miterlimit="10" stroke-width="1"/>
        </g>
      </g>
      <g id="Grupo_61330" data-name="Grupo 61330" transform="translate(63.764 43.271)">
        <circle id="Elipse_4281" data-name="Elipse 4281" cx="23.734" cy="23.734" r="23.734" fill="#ffa8b1"/>
        <g id="Grupo_61329" data-name="Grupo 61329" transform="translate(7.445 11.326)">
          <path id="Trazado_120582" data-name="Trazado 120582" d="M1077.038,597.546l-18.164,10.4a7.206,7.206,0,1,1-7.165-12.506l18.164-10.4a7.2,7.2,0,0,1,10.531,8.145A7.138,7.138,0,0,1,1077.038,597.546Z" transform="translate(-1048.085 -584.088)" fill="#fff"/>
          <path id="Trazado_120583" data-name="Trazado 120583" d="M1084.4,597.546l-9.088,5.2-7.164-12.506,9.089-5.2a7.2,7.2,0,0,1,10.531,8.145A7.137,7.137,0,0,1,1084.4,597.546Z" transform="translate(-1055.452 -584.088)" fill="#b82621"/>
        </g>
      </g>
      <g id="Grupo_61334" data-name="Grupo 61334" transform="translate(124.636)">
        <circle id="Elipse_4282" data-name="Elipse 4282" cx="23.221" cy="23.221" r="23.221" fill="#ffa8b1"/>
        <g id="Grupo_61333" data-name="Grupo 61333" transform="translate(11.379 8.202)">
          <g id="Grupo_61331" data-name="Grupo 61331">
            <path id="Trazado_120584" data-name="Trazado 120584" d="M1174.159,514.149v15.917a11.526,11.526,0,0,1-5.253,9.652l-6.582,3.842-6.038-3.918a11.556,11.556,0,0,1-5.8-9.994v-15.5l11.759-3.367.082.025Z" transform="translate(-1150.482 -510.782)" fill="#fff"/>
            <path id="Trazado_120585" data-name="Trazado 120585" d="M1181.027,514.164v15.917a11.525,11.525,0,0,1-5.253,9.652l-6.582,3.842V510.822Z" transform="translate(-1157.351 -510.797)" fill="#f2e4e5"/>
          </g>
          <g id="Grupo_61332" data-name="Grupo 61332" transform="translate(2.842 7.392)">
            <rect id="Rectángulo_7419" data-name="Rectángulo 7419" width="5.462" height="17.987" transform="translate(6.265)" fill="#b82621"/>
            <rect id="Rectángulo_7420" data-name="Rectángulo 7420" width="17.987" height="5.462" transform="translate(0 6.264)" fill="#b82621"/>
          </g>
        </g>
      </g>
    </g>
  </g>
</svg>
