<svg xmlns="http://www.w3.org/2000/svg" width="295" height="354" viewBox="0 0 295 354">
  <g id="Grupo_61718" data-name="Grupo 61718" transform="translate(-285 -1424)">
    <rect id="Rectángulo_7513" data-name="Rectángulo 7513" width="295" height="354" transform="translate(285 1424)" fill="#fff"/>
    <g id="Grupo_61717" data-name="Grupo 61717" transform="translate(-2582 551.458)">
      <path id="Trazado_121211" data-name="Trazado 121211" d="M3304.83,1373.418c-7.049,6.876-17.064,14.507-25.313,17.793l12.254,2.769-50.62,71.628-100.893,34.844-119.4,152.8,94.052-.039,47.923-92.329,96.013-68.451,37.289-95.357,7.944,11.539C3302.494,1398.358,3303.223,1384.148,3304.83,1373.418Z" transform="translate(-144.33 -430.34)" fill="#f7cc7f"/>
      <g id="Grupo_61709" data-name="Grupo 61709" transform="translate(3018.516 1130.306)">
        <rect id="Rectángulo_7522" data-name="Rectángulo 7522" width="1.107" height="25.366" transform="translate(54.868 92.662) rotate(169.264)" fill="#3c8f7c"/>
        <path id="Trazado_121212" data-name="Trazado 121212" d="M3939.933,2597.347h-1.308l4.875-25.246,1.088.206Z" transform="translate(-3936.478 -2504.363)" fill="#3c8f7c"/>
        <path id="Trazado_121213" data-name="Trazado 121213" d="M4159.683,2597.347h-1.308l4.876-25.246,1.087.206Z" transform="translate(-4118.037 -2504.363)" fill="#3c8f7c"/>
        <path id="Trazado_121214" data-name="Trazado 121214" d="M3992.4,2597.885l1.062.012-4.674-25.146-1.088.206Z" transform="translate(-3977.021 -2504.901)" fill="#184655"/>
        <path id="Trazado_121215" data-name="Trazado 121215" d="M3960.473,2256.6c5.807.622,13.322,1.278,20.866,14.08,8.245,13.992,3.905,34.893-2.6,40.7s-27.763,12.979-45.63,2.243c0,0-10.789-6.506-5.252-17.3,8.521-16.617,7.316-20.082,11.126-26.594S3948.147,2255.281,3960.473,2256.6Z" transform="translate(-3926.273 -2243.577)" fill="#f47458"/>
        <path id="Trazado_121216" data-name="Trazado 121216" d="M3998,2276.082c-5.149-8.738-10.284-11.817-14.873-13.09a38.4,38.4,0,0,1,5.375,7.255c8.245,13.992,3.905,34.894-2.6,40.7-5.771,5.151-23.14,11.372-39.459,5.227a16.556,16.556,0,0,0,3.327,2.851c17.867,10.736,39.123,3.565,45.63-2.243S4006.248,2290.074,3998,2276.082Z" transform="translate(-3942.938 -2248.977)" fill="#b75742"/>
        <path id="Trazado_121217" data-name="Trazado 121217" d="M4008.686,2379.662l-1.492,4.478,4.549-1.79Z" transform="translate(-3993.129 -2345.37)" fill="#f79c8d"/>
        <path id="Trazado_121218" data-name="Trazado 121218" d="M4013.435,2302.994c-.3.012-1.134.29-2.349,2.578-1.552,2.922-3.819,11.751-3.819,11.751l6.77,2.512.869-1.842,1.433-14.187S4013.519,2302.991,4013.435,2302.994Z" transform="translate(-3993.19 -2282.027)" fill="#6394db"/>
        <path id="Trazado_121219" data-name="Trazado 121219" d="M4049.669,2295.672a41.522,41.522,0,0,0-8.948,1.273s-1.634,13.989,1.47,24.619c.695,2.38-.575,9.864-.575,9.864l20.059-.263s-2.376-18.094-1.481-21.017.917-13.108.917-13.108-.138-.021-4.507-.774A45.564,45.564,0,0,0,4049.669,2295.672Z" transform="translate(-4020.475 -2275.977)" fill="#86b1f2"/>
        <path id="Trazado_121220" data-name="Trazado 121220" d="M4100.045,2650.8s-.443,5.1-1.259,6.518.043,3.817.085,4.146,1.718.8,4.38.518,2.62-.9,2.405-1.885-1.632-2.261-1.718-3.2a24.507,24.507,0,0,1,.816-4.335Z" transform="translate(-4068.515 -2569.389)" fill="#f7a491"/>
        <path id="Trazado_121221" data-name="Trazado 121221" d="M3974.5,2475.677s-13.847-.766-16.939,1.1.559,5.7.559,5.7,11.273,4.885,30.145,5.971c4.469.257,4.854-11.614,4.019-12.6S3974.5,2475.677,3974.5,2475.677Z" transform="translate(-3951.1 -2424.439)" fill="#e5b05c"/>
        <path id="Trazado_121222" data-name="Trazado 121222" d="M4102.214,2694.829c2.742-.291,2.4-1.633,2.182-2.652a9.02,9.02,0,0,0-1.394-2.1,4.57,4.57,0,0,1-1.834.889c-1.236.364-2.932-.356-4.011-.808a13.139,13.139,0,0,0-.367,3.524C4096.834,2694.02,4099.473,2695.12,4102.214,2694.829Z" transform="translate(-4067.144 -2601.834)" fill="#f47458"/>
        <path id="Trazado_121223" data-name="Trazado 121223" d="M4103.7,2486.2c-.553,4.172-3.292,24.941-3.292,24.941l6.356.785s7.815-27.109,7.415-31.255-3.326-4.5-3.326-4.5S4105.166,2475.158,4103.7,2486.2Z" transform="translate(-4070.145 -2425.091)" fill="#f7cc7f"/>
        <path id="Trazado_121224" data-name="Trazado 121224" d="M4050.564,2312.385c-1.875-.7-2.793,16.14-3.046,23.073a82.019,82.019,0,0,1-10.552-.105c-.678-.051-2.241-.621-2.915-.71a6.784,6.784,0,0,0-1.657-.078,31.376,31.376,0,0,0-3.882,1.742c-.368.384-1.36,1.351-1.193,1.77s1.91-1.166,1.91-1.166l.851-.476c-1.06,1.032-3.082,2.391-2.791,2.886s2.108-.9,3.407-1.837c-1.115,1-2.5,2.8-2.181,3.079.287.252,1.862-1.827,3.546-2.426.624-.222,1.245.393,1.736.467a3.537,3.537,0,0,0,1.272.071l1.823-.515c.621.056.636.422,1.263.555.728.154,1.923.317,2.85.543,5.338,1.3,7.119,1.9,8.753,1.9C4054.71,2341.156,4055,2314.042,4050.564,2312.385Z" transform="translate(-4009.71 -2289.769)" fill="#f7a491"/>
        <path id="Trazado_121225" data-name="Trazado 121225" d="M4145.657,2320.715c.352-7.1.3-15.853-3.695-17.345-1.575-.589-4.354,2.953-3.854,17.49A30.121,30.121,0,0,0,4145.657,2320.715Z" transform="translate(-4101.243 -2282.287)" fill="#86b1f2"/>
        <path id="Trazado_121226" data-name="Trazado 121226" d="M3969.385,2675.928a3.439,3.439,0,0,1-.439,2.944c-.993,1.172-5.119,2.322-5.661,2.956a1.776,1.776,0,0,0-.5,1.175l11.582-.318-.126-3.486-.533-2.5Z" transform="translate(-3956.439 -2590.146)" fill="#f7a491"/>
        <path id="Trazado_121227" data-name="Trazado 121227" d="M3959.731,2694.966s2.976,1.2,4.413.489,1.394-.907,1.81-.642.565,3.826.565,3.826l-13.023.088c-.906-.021-1.364-.686-.628-1.255a10.577,10.577,0,0,1,1.42-.841A40.807,40.807,0,0,1,3959.731,2694.966Z" transform="translate(-3947.944 -2605.655)" fill="#f47458"/>
        <path id="Trazado_121228" data-name="Trazado 121228" d="M3954.821,2480.3c-.9-1.877-2.931-4.322-6.513-2.849-3.417,1.4-4.333,4.855-3.256,8.388s8.174,24.305,8.422,27.161l5.665.038s-1.03-16.448-1.282-20.424A38.375,38.375,0,0,0,3954.821,2480.3Z" transform="translate(-3941.436 -2425.789)" fill="#f7cc7f"/>
        <path id="Trazado_121229" data-name="Trazado 121229" d="M3944.49,2385.907h18.939a1.236,1.236,0,0,1,1.143.766l5.832,14.223h10.441a.528.528,0,0,1,.529.528h0a.528.528,0,0,1-.529.528h-29.717a2.075,2.075,0,0,1-1.893-1.225l-5.871-13.081A1.235,1.235,0,0,1,3944.49,2385.907Z" transform="translate(-3940.303 -2350.53)" fill="#355389"/>
        <path id="Trazado_121230" data-name="Trazado 121230" d="M4008.913,2427.015a1.042,1.042,0,1,0,.781-1.359A1.113,1.113,0,0,0,4008.913,2427.015Z" transform="translate(-3994.528 -2383.355)" fill="#fff"/>
        <path id="Trazado_121231" data-name="Trazado 121231" d="M4081.6,2259.448l.927,6.107s-3.384,7.272-5.4,6.642c-1.7-.529-.652-6.964-.652-6.964s.924-3.456.647-5.185S4081.6,2259.448,4081.6,2259.448Z" transform="translate(-4050.103 -2245.75)" fill="#f7a491"/>
        <path id="Trazado_121232" data-name="Trazado 121232" d="M4081.137,2260.049c-.277-1.729,4.483-.6,4.483-.6l.077.507a2.82,2.82,0,0,1-.517.851,6.265,6.265,0,0,1-4.162,1.883A9.449,9.449,0,0,0,4081.137,2260.049Z" transform="translate(-4054.124 -2245.75)" fill="#f47458" opacity="0.2"/>
        <g id="Grupo_61708" data-name="Grupo 61708" transform="translate(24.148 0)">
          <path id="Trazado_121233" data-name="Trazado 121233" d="M4073.347,2202.382c.135-.049,1.079,6.956-.712,8.884s-5.281,2.558-6.532,1.04c-1.385-1.679-1.316-9.208,1.469-11.191S4073.347,2202.382,4073.347,2202.382Z" transform="translate(-4065.219 -2197.324)" fill="#f7a491"/>
          <path id="Trazado_121234" data-name="Trazado 121234" d="M4073.359,2182.4a7.733,7.733,0,0,1,4.059,2.315c.977.115,2.306.656,3.678,2.927a5.679,5.679,0,0,1-1.523,7.4,4.427,4.427,0,0,0-1.936,3.271l-.31-.907a5.065,5.065,0,0,1-.246-2.136,4.154,4.154,0,0,1,.318-1.284c.472-1.014-1.015-1.687-1.431-2.531-.321-.65-.336-2.135-.842-3.209l-.6-.819a3.839,3.839,0,0,0-2.757-.779C4070.4,2186.955,4070.6,2181.833,4073.359,2182.4Z" transform="translate(-4069.946 -2182.353)" fill="#f7cc7f"/>
          <path id="Trazado_121235" data-name="Trazado 121235" d="M4100.388,2234.617c-.014.854.374,1.554.868,1.563s.905-.678.919-1.532-.375-1.554-.868-1.562S4100.4,2233.762,4100.388,2234.617Z" transform="translate(-4094.275 -2224.268)" fill="#f7a491"/>
        </g>
        <path id="Trazado_121236" data-name="Trazado 121236" d="M4073.64,2254.869l-2.7-.14a1.183,1.183,0,0,0,1.195,1.125C4073.58,2255.97,4073.64,2254.869,4073.64,2254.869Z" transform="translate(-4045.797 -2242.15)" fill="#fff"/>
      </g>
      <g id="Grupo_61710" data-name="Grupo 61710" transform="translate(3093.477 1098.089)">
        <path id="Trazado_121237" data-name="Trazado 121237" d="M4395.264,2023.026c.295,1.21.826,3.123.826,3.123-.042.526-.2,2.714-.383,5.4l3.943-1.578a42.824,42.824,0,0,1,.128-4.638c.149-.226.4.056,1.607-1.673a3.379,3.379,0,0,0,.414-1.391s.071-1.1-.175-1.2a.512.512,0,0,0-.618.251c-.09.19-.066.632-.155.821a1.368,1.368,0,0,1-.9.407c-.239-.012.03-3.247.03-3.247s.134-.918.2-1.218c.058-.256.291-1.006.291-1.006s.273-1.089-.064-1.172c-.2-.049-.708.836-1.056,1.774a18.888,18.888,0,0,1-.7,2.069c-.251-.034-.117-1.808-.117-1.808a5.724,5.724,0,0,0,.244-1.2c.237-.47.394-1.341-.023-1.413a7.286,7.286,0,0,0-.626,1.094s-.217.779-.343,1.144a21.332,21.332,0,0,0-.371,2.1c-.1.372-.184.219-.224.234a9.272,9.272,0,0,1,.085-1.207,7.133,7.133,0,0,1,.089-1.17,8.529,8.529,0,0,0,.17-1.235c.066-.917-.511-.823-.711.015-.076.32-.155.668-.235,1.022-.311,1.375-.3,2.7-.45,2.711a9.991,9.991,0,0,1-.065-2.4s-.3-1.335-.589-.1a10.784,10.784,0,0,0-.3,2.663A10.425,10.425,0,0,0,4395.264,2023.026Z" transform="translate(-4395.12 -2012.139)" fill="#f8a492"/>
        <path id="Trazado_121238" data-name="Trazado 121238" d="M4605.6,2004.68c-.294,1.21-.826,3.123-.826,3.123.042.526.2,2.714.382,5.4l-3.943-1.578a42.7,42.7,0,0,0-.128-4.638c-.149-.226-.4.056-1.607-1.673a3.382,3.382,0,0,1-.415-1.391s-.072-1.1.175-1.2a.512.512,0,0,1,.619.251c.089.19.066.631.155.821a1.365,1.365,0,0,0,.9.407c.24-.012-.03-3.247-.03-3.247s-.134-.917-.2-1.218c-.058-.256-.291-1.007-.291-1.007s-.274-1.089.064-1.172c.2-.049.707.836,1.055,1.774a18.9,18.9,0,0,0,.695,2.069c.251-.034.118-1.807.118-1.807a5.728,5.728,0,0,1-.244-1.2c-.237-.47-.394-1.342.023-1.414a7.221,7.221,0,0,1,.626,1.094s.216.78.342,1.144c.223.643.255,1.658.372,2.105.1.372.184.219.223.235a9.2,9.2,0,0,0-.084-1.207,7.081,7.081,0,0,0-.089-1.171,8.378,8.378,0,0,1-.168-1.235c-.068-.918.51-.823.709.015.077.32.156.668.236,1.022.31,1.375.3,2.7.451,2.712a10,10,0,0,0,.065-2.4s.3-1.335.589-.1a10.864,10.864,0,0,1,.3,2.662A10.468,10.468,0,0,1,4605.6,2004.68Z" transform="translate(-4563.61 -1996.981)" fill="#f8a492"/>
        <path id="Trazado_121239" data-name="Trazado 121239" d="M4559.553,2632.965a30.192,30.192,0,0,0,2.731,3.044c.545.333-.243,4.271-1.726,4.529-.836.146-1.3-.775-1.3-.775l.24-1.134-3.123-3.218Z" transform="translate(-4528.348 -2522.433)" fill="#f7a491"/>
        <path id="Trazado_121240" data-name="Trazado 121240" d="M4493.4,2636.817a30.175,30.175,0,0,0,2.32,3.368c.5.4-.787,4.205-2.292,4.272-.847.037-1.19-.934-1.19-.934l.383-1.094-2.687-3.59Z" transform="translate(-4473.453 -2525.615)" fill="#f7a491"/>
        <path id="Trazado_121241" data-name="Trazado 121241" d="M4494.324,2655.523a23.021,23.021,0,0,1-1.618,1.866,19.252,19.252,0,0,1-1.681,1.356s-1.069,1.94-1.362,2.618c-.65,1.507-1.381,3.187-1.275,4.031.033.271.642.557,1.149.4,2.111-.649,7.511-5.588,8.192-6.914C4498.516,2657.352,4494.324,2655.523,4494.324,2655.523Z" transform="translate(-4472.17 -2541.07)" fill="#13375b"/>
        <path id="Trazado_121242" data-name="Trazado 121242" d="M4423.908,2388.185c.2-.549.384-1.056.566-1.534,2.247.49,4.783,1.029,7.392,1.585l.318,9.565c0-.739-1.961,15.255-1.961,15.255s5.07,11.227,8.538,17.77a11.944,11.944,0,0,1-4.152,3.559c-5.383-6.454-12.428-18.262-12.721-20.227C4421.719,2413.029,4421.567,2394.771,4423.908,2388.185Z" transform="translate(-4417.165 -2318.927)" fill="#3c8f7c"/>
        <path id="Trazado_121243" data-name="Trazado 121243" d="M4491.793,2398.488c-.687,7.453-2.212,21.7-2.085,22.846.383,1.429,7.169,14.613,8.391,16.533a8.229,8.229,0,0,1-4.086,3.476c-.319.086-11.518-15.852-12.129-17.116-.69-1.43-1.84-9.231-1.86-18.889l-.318-9.564C4484.053,2396.7,4488.051,2397.609,4491.793,2398.488Z" transform="translate(-4465.005 -2326.464)" fill="#50bfa5"/>
        <path id="Trazado_121244" data-name="Trazado 121244" d="M4432.366,2215.921l5.118.7s4.095.074,4.6.074,3.73,18.695,4.662,25.721.209,8.27.209,8.27-6.489,1.459-11.29,1.034a36.828,36.828,0,0,1-10.608-3.138s4.267-13.5,5.113-17.717S4432.366,2215.921,4432.366,2215.921Z" transform="translate(-4419.856 -2177.87)" fill="#355389"/>
        <path id="Trazado_121245" data-name="Trazado 121245" d="M4395.222,2082.3s-.329,13.919.2,14.984c.764,1.549,9.356,12.53,9.356,12.53s-4.1,17.179-5.831,23.112c-.173.6-.943,4.457-.943,4.833,0,.834,3.632,1.893,4.063,1.83.386-.056,3.554-16.4,5.577-24.394a22.89,22.89,0,0,1,3.469-7.555l1.407-2-10.8-10.821s-1.331-12.045-1.331-13.042C4400.391,2081.512,4395.746,2081.316,4395.222,2082.3Z" transform="translate(-4395.121 -2066.862)" fill="#86b1f2"/>
        <path id="Trazado_121246" data-name="Trazado 121246" d="M4503.433,2087.06l13.463-13.717s1.875-12.972,2.009-13.46,3.474-.739,4.821-.871c.433-.042-.226,13.816-.87,16.139-.761,2.745-10.937,15.248-10.937,15.248s-1.825,6.772-1.385,11.74c.729,8.25,2.7,19.6,2.344,19.956-2.188,1.378-10.585,1.526-11.116.67C4495.892,2113.312,4503.433,2087.06,4503.433,2087.06Z" transform="translate(-4481.38 -2048.231)" fill="#86b1f2"/>
        <path id="Trazado_121247" data-name="Trazado 121247" d="M4567.438,2649.894a23.116,23.116,0,0,1-1.366,2.057,19.313,19.313,0,0,1-1.494,1.559s-.812,2.061-1.016,2.77c-.453,1.578-.964,3.483-.751,4.306.068.265.649.77,1.129.457,1.852-1.205,6.8-6.852,7.3-8.254C4571.83,2651.172,4567.438,2649.894,4567.438,2649.894Z" transform="translate(-4533.625 -2536.419)" fill="#13375b"/>
        <path id="Trazado_121248" data-name="Trazado 121248" d="M4477.253,2117.116a13.837,13.837,0,0,0,1.716-.034,7.984,7.984,0,0,1,1.942,0,4.381,4.381,0,0,1,3.1,2.221c.657,1.626,3,1.383.223,7.55-3.149,6.98-6.828,4.695-6.879,4.537s-1.819-5.912-1.819-5.912-2.2,2.183-2.166,2.086S4470.375,2116.868,4477.253,2117.116Z" transform="translate(-4459.246 -2096.16)" fill="#0e2e35"/>
        <path id="Trazado_121249" data-name="Trazado 121249" d="M4493.757,2184.936l-.367,2.731s-.822,3.934.236,4.693,4.5-4.8,4.5-4.8l-.363-6.919Z" transform="translate(-4476.059 -2148.716)" fill="#f7a491"/>
        <path id="Trazado_121250" data-name="Trazado 121250" d="M4499.587,2182.877a7.832,7.832,0,0,1-4.429,4.373l.311-2.315,4-4.3Z" transform="translate(-4477.771 -2148.716)" fill="#f47458"/>
        <path id="Trazado_121251" data-name="Trazado 121251" d="M4482.775,2133.348a3.641,3.641,0,0,0-5.223,1.965,27.727,27.727,0,0,0-.95,3.385c-.657,3.121.374,6.478,1.792,6.748s5.726-1.01,6.72-5.429C4485.729,2137.287,4484.84,2134.533,4482.775,2133.348Z" transform="translate(-4462.273 -2109.256)" fill="#f7a491"/>
        <path id="Trazado_121252" data-name="Trazado 121252" d="M4520.015,2169.753a1.06,1.06,0,1,0,1.26-1.057A1.173,1.173,0,0,0,4520.015,2169.753Z" transform="translate(-4498.285 -2138.841)" fill="#f7a491"/>
        <path id="Trazado_121253" data-name="Trazado 121253" d="M4492.383,2134.848s-1.759-.208-1.966-1.468-1.5-4.3-4.561-4.4,3.237-1.349,3.454-1.267,2.829,1.047,2.829,1.047,1.384,2.41,1.388,2.618-.164,2.406-.164,2.406Z" transform="translate(-4469.394 -2104.991)" fill="#0e2e35"/>
        <path id="Trazado_121254" data-name="Trazado 121254" d="M4486.152,2184.624l-3.138-.545a1.392,1.392,0,0,0,1.236,1.488C4485.925,2185.908,4486.152,2184.624,4486.152,2184.624Z" transform="translate(-4467.735 -2151.562)" fill="#fff"/>
      </g>
      <path id="Trazado_121255" data-name="Trazado 121255" d="M3593.607,1454.4c-1.364-.92-2.761-1.793-4.106-2.741a1.192,1.192,0,0,1-.435-.91c.177-1.9.463-3.786.627-5.686a1.008,1.008,0,0,1,.7-1.049c1.867-.73,3.715-1.511,5.57-2.274.3-.124.6-.258,1.116-.483l-2.659-8.546c-2.388.474-4.565.869-6.722,1.354a1.322,1.322,0,0,1-1.665-.623c-1-1.442-2.2-2.742-3.279-4.133a1.08,1.08,0,0,1-.14-.892c.733-1.9,1.464-3.8,2.311-5.649a1.148,1.148,0,0,0-.591-1.777,5.529,5.529,0,0,1-.829-.646l-4.115-2.213a2.866,2.866,0,0,1-.516-.107c-1.673-.685-1.351-.671-2.3.726-1.158,1.7-2.288,3.424-3.279,4.911l-7.435-.7-2.9-7.042a28.587,28.587,0,0,0-8.519,2.649c.471,2.348.924,4.637,1.394,6.924a.79.79,0,0,1-.343.959c-1.574,1.178-3.121,2.4-4.61,3.68a.931.931,0,0,1-1.167.178c-1.9-.8-3.827-1.557-5.734-2.35a.8.8,0,0,0-1.132.281,25.477,25.477,0,0,0-3.528,6.837c-.174.481.057.69.421.926,1.682,1.094,3.338,2.228,5.028,3.31a1,1,0,0,1,.538,1.209c-.336,2.174-.546,4.367-.824,6.729l-6.757,2.783a26.663,26.663,0,0,0,2.59,8.642l7.3-1.5c1.406,1.621,2.675,3.162,4.037,4.614a1.277,1.277,0,0,1,.305,1.64c-.8,1.805-1.534,3.642-2.276,5.474-.146.362-.435.783.13,1.082q3.449,1.821,6.9,3.643c.489.258.8.093,1.093-.367,1.1-1.713,2.277-3.378,3.348-5.108.413-.668.858-.693,1.551-.6a46.839,46.839,0,0,0,5.159.467,1.124,1.124,0,0,1,1.266.871c.8,2.122,1.694,4.213,2.533,6.272a25.541,25.541,0,0,0,8.662-2.695c-.473-2.259-.928-4.549-1.447-6.823a.969.969,0,0,1,.475-1.156c1.4-1.105,2.731-2.309,4.125-3.429a1.177,1.177,0,0,1,.978-.187c1.7.665,3.378,1.39,5.054,2.115.937.405,1.314.572,1.674.331l3.927-7.3C3595.118,1455.429,3594.711,1455.149,3593.607,1454.4Zm-14.592-2.561a13.419,13.419,0,0,1-18.174,5.464h0a13.419,13.419,0,0,1-5.463-18.174h0a13.418,13.418,0,0,1,18.173-5.463h0a13.419,13.419,0,0,1,5.463,18.173Z" transform="translate(-571.365 -418.825)" fill="#cae1f9"/>
      <path id="Trazado_121256" data-name="Trazado 121256" d="M3109.022,1689.736c-2.207.215-4.406.507-6.616.678a1.607,1.607,0,0,1-1.233-.572c-1.445-2.123-2.769-4.328-4.228-6.441a1.358,1.358,0,0,1-.171-1.693c1.313-2.361,2.561-4.758,3.831-7.142.206-.387.4-.781.744-1.459l-10.1-6.591c-2.072,2.541-3.993,4.82-5.817,7.175a1.781,1.781,0,0,1-2.263.782c-2.276-.638-4.64-.957-6.952-1.476a1.454,1.454,0,0,1-.911-.806c-.868-2.6-1.742-5.2-2.449-7.848-.339-1.27-.96-1.591-2.139-1.338a7.464,7.464,0,0,1-1.414.04l-6.173,1.234a3.773,3.773,0,0,1-.627.331c-2.326.726-1.979.463-1.766,2.73.258,2.761.563,5.518.81,7.913l-8.316,5.66-9.056-4.821a38.506,38.506,0,0,0-6.571,10.061c2.5,2.033,4.939,4.022,7.389,5.992a1.065,1.065,0,0,1,.467,1.291c-.624,2.574-1.183,5.168-1.629,7.778a1.253,1.253,0,0,1-1.059,1.186c-2.664.8-5.309,1.667-7.97,2.481a1.079,1.079,0,0,0-.933,1.263,34.33,34.33,0,0,0,2.2,10.126c.233.65.652.667,1.233.6,2.685-.309,5.377-.552,8.06-.879a1.353,1.353,0,0,1,1.6.793c1.516,2.546,3.181,5,4.919,7.694l-4.627,8.689a35.9,35.9,0,0,0,10.106,6.749l6.294-7.826c2.851.476,5.49.987,8.151,1.325a1.722,1.722,0,0,1,1.725,1.441c.717,2.563,1.533,5.1,2.335,7.637.158.5.221,1.187,1.063,1.012q5.142-1.069,10.286-2.136c.729-.152.908-.587.82-1.319-.327-2.723-.536-5.461-.909-8.177-.144-1.048.3-1.456,1.095-1.954a63.079,63.079,0,0,0,5.757-3.944,1.514,1.514,0,0,1,2.062-.182c2.658,1.512,5.375,2.92,8.013,4.338,1.911-1.58,5.769-7.515,6.681-10.232-2.43-1.939-4.867-3.926-7.358-5.843a1.306,1.306,0,0,1-.5-1.608c.51-2.353.854-4.742,1.34-7.1a1.59,1.59,0,0,1,.855-1.034c2.336-.768,4.7-1.455,7.063-2.141,1.321-.383,1.856-.533,2.023-1.093l-2.191-10.952C3111.47,1689.5,3110.807,1689.562,3109.022,1689.736Zm-17.349,9.865a18.075,18.075,0,0,1-14.179,21.27h0a18.075,18.075,0,0,1-21.27-14.18h0a18.076,18.076,0,0,1,14.179-21.27h0a18.075,18.075,0,0,1,21.27,14.179Z" transform="translate(-155.08 -622.895)" fill="#9bc1f9"/>
      <path id="Trazado_121257" data-name="Trazado 121257" d="M3279.88,1393.534c-.885-.419-1.784-.808-2.659-1.245a.71.71,0,0,1-.337-.5c-.065-1.132-.065-2.267-.138-3.4a.6.6,0,0,1,.32-.68c1.033-.6,2.05-1.22,3.073-1.834.166-.1.328-.205.613-.384l-2.326-4.787c-1.361.491-2.606.918-3.832,1.4a.786.786,0,0,1-1.034-.218c-.717-.758-1.54-1.416-2.3-2.138a.643.643,0,0,1-.162-.512c.262-1.181.522-2.365.855-3.528.16-.558,0-.82-.506-.992a3.3,3.3,0,0,1-.544-.306l-2.617-.934a1.683,1.683,0,0,1-.313-.017c-1.045-.253-.854-.274-1.288.632-.529,1.1-1.04,2.217-1.49,3.18l-4.433.255-2.334-3.881a17,17,0,0,0-4.773,2.317c.486,1.338.957,2.645,1.438,3.947a.471.471,0,0,1-.116.595c-.821.833-1.622,1.688-2.383,2.575a.554.554,0,0,1-.671.208c-1.191-.3-2.388-.574-3.581-.87a.477.477,0,0,0-.64.266,15.155,15.155,0,0,0-1.465,4.335c-.06.3.1.4.33.507,1.087.493,2.162,1.012,3.252,1.5a.6.6,0,0,1,.425.663c0,1.308.068,2.616.115,4.03l-3.724,2.239a15.834,15.834,0,0,0,2.294,4.85l4.16-1.534c.971.828,1.854,1.62,2.785,2.352a.76.76,0,0,1,.326.937c-.311,1.133-.577,2.279-.85,3.422-.054.226-.186.5.173.625l4.379,1.527c.31.108.477-.016.61-.313.495-1.105,1.037-2.189,1.513-3.3.183-.429.442-.484.858-.491a27.756,27.756,0,0,0,3.075-.186.669.669,0,0,1,.822.4c.663,1.176,1.372,2.326,2.049,3.462a15.189,15.189,0,0,0,4.853-2.357c-.479-1.286-.951-2.592-1.459-3.883a.577.577,0,0,1,.176-.722c.728-.775,1.4-1.6,2.12-2.384a.7.7,0,0,1,.558-.2c1.059.24,2.11.516,3.161.793.587.154.823.219,1.013.045l1.657-4.644C3280.86,1394,3280.595,1393.874,3279.88,1393.534Zm-8.808-.2a7.98,7.98,0,0,1-10.2,4.833h0a7.98,7.98,0,0,1-4.834-10.2h0a7.981,7.981,0,0,1,10.2-4.833h0a7.98,7.98,0,0,1,4.833,10.2Z" transform="translate(-330.527 -383.614)" fill="#9bc1f9" opacity="0.2"/>
      <g id="Grupo_61713" data-name="Grupo 61713" transform="translate(2886.839 1094.057)">
        <path id="Trazado_121258" data-name="Trazado 121258" d="M3098.406,2004.238s-5.468-9.8-6.8-11.885-4.8-10.363-4.92-10.69,2.386-4.245,1.826-4.379-1.181,2.066-1.779,1.8-2.344-5.559-2.685-5.3c-.637.492.941,3.285.6,3.461s-1.37-3.074-2.037-2.978,1.269,2.979,1.083,3.233-2.2-2.462-2.561-1.883c-.2.314,1.849,2.371,1.456,2.564s-2.213-1.135-2.406-.752,1.683.907,2.244,1.939,1.516,1.478,1.913,3.39.99,8.827,3.022,12.278,6.5,11.088,6.5,11.088Z" transform="translate(-3080.173 -1973.782)" fill="#f79c8d"/>
        <path id="Trazado_121259" data-name="Trazado 121259" d="M3155.975,2130.744s6.049,6.52,6.948,9.147-.877,6.386-3.329,6.55-7.91-11.571-7.91-11.571Z" transform="translate(-3139.255 -2103.464)" fill="#355389"/>
        <path id="Trazado_121260" data-name="Trazado 121260" d="M3275.746,2269.5c-.44-.368-.972-.2-2.5-.908a9.354,9.354,0,0,0-1.423-.425.175.175,0,0,1-.135-.127c-.464-1.758-2.5-9.883-2.723-12.226-.228-2.4-1.774-12.555-2.009-14.1a.178.178,0,0,0-.223-.144l-4.44,1.239a.177.177,0,0,0-.125.21c.274,1.211,1.981,8.813,2.482,12.662.4,3.067,4.969,12.908,5.061,13.538l0,.018a.384.384,0,0,0,.381.329h4.948C3275.231,2269.571,3275.884,2269.62,3275.746,2269.5Z" transform="translate(-3230.534 -2195.028)" fill="#f48c7f"/>
        <path id="Trazado_121261" data-name="Trazado 121261" d="M3259.64,2184.579c-2.363-7.167-5.005-6.862-5.005-6.862l2.043,15.067c1.459-.4,3.359-1.287,4.816-1.7A65.879,65.879,0,0,0,3259.64,2184.579Z" transform="translate(-3224.313 -2142.272)" fill="#13375b"/>
        <path id="Trazado_121262" data-name="Trazado 121262" d="M3199.405,2078.854c-.723-4.714-4.988-8.1-9.448-5.816a10.587,10.587,0,0,0-3.053,2.447c-1.873,2.4-2.352,5.373-4.287,7.707a19.1,19.1,0,0,0,2.594,1.647l1.2-1.606-.414,2a29.4,29.4,0,0,0,13.005,2.582A25.006,25.006,0,0,0,3199.405,2078.854Z" transform="translate(-3164.812 -2055.183)" fill="#f7cc7f"/>
        <path id="Trazado_121263" data-name="Trazado 121263" d="M3234.294,2400.272a19.087,19.087,0,0,0-3.4-1.887c-.142-.069-.658-.4-.844-.511a6.544,6.544,0,0,1-1.354-1.2,6.759,6.759,0,0,1-.663-2.939c.224-2.481,3.819-42.275,4.578-46.582.782-4.447-.41-11.229-.41-11.229l-2.775-1.047-5.269,18.262.415,13.9a37.153,37.153,0,0,0-1.4,6.4c-.157,2.394,1.791,21.83,1.791,21.83h0a10.127,10.127,0,0,1-.1,1.716c-.143.727-.939,2.223-.574,2.907a1.834,1.834,0,0,0,.783.855l9.468.153C3235.051,2400.911,3234.71,2400.578,3234.294,2400.272Z" transform="translate(-3198.312 -2272.119)" fill="#f48c7f"/>
        <path id="Trazado_121264" data-name="Trazado 121264" d="M3137.183,2325.374s-3.288,4.96-4.07,9.065.574,16.719-.931,22.1c-.815,2.912-3.9,7.408-4.375,11.171s-2.1,14.622-2.1,14.622h0a9.59,9.59,0,0,1-1.137,3.206,9.462,9.462,0,0,0-1.239,1.634,4.814,4.814,0,0,0,.167,3.735c.217.475-.016.474.48.627a3.039,3.039,0,0,0,3.651-1.718,8.745,8.745,0,0,0,.716-3.157,14.737,14.737,0,0,1,.518-3.337h0l10.509-25.779,7.607-22.247,1.949-11.458Z" transform="translate(-3115.57 -2262.997)" fill="#f79c8d"/>
        <path id="Trazado_121265" data-name="Trazado 121265" d="M3126.38,2690.094a4.661,4.661,0,0,1-4.575-1.917,5.043,5.043,0,0,0-.435,3.748c.375.818,1.469.8,2.331.827a2.249,2.249,0,0,0,2.068-1.269A7.582,7.582,0,0,0,3126.38,2690.094Z" transform="translate(-3114.041 -2564.018)" fill="#86b1f2"/>
        <path id="Trazado_121266" data-name="Trazado 121266" d="M3234.824,2696.335a8.553,8.553,0,0,1-5.39-.212,4.364,4.364,0,0,0-.433,2.258c.229.672.557.823.846.831,2.287.06,8.378.142,10.121.165a.285.285,0,0,0,.221-.469C3239.758,2698.391,3235.011,2696.449,3234.824,2696.335Z" transform="translate(-3203.092 -2570.582)" fill="#86b1f2"/>
        <path id="Trazado_121267" data-name="Trazado 121267" d="M3180.958,2358.713q.295.02.593.038l.031,0,.587.033.036,0,.592.028h.03q.3.013.6.023a39.158,39.158,0,0,0,6.795-.257c.907-9.077,1.245-17.362,1.58-19.2.814-4.447-.709-11.466-.709-11.466l-.727-.131.46-2.6-12.211,1.54s-3.419,4.959-4.233,9.064.6,16.719-.969,22.1C3173.419,2357.895,3176.9,2358.438,3180.958,2358.713Z" transform="translate(-3157.212 -2264.118)" fill="#f7cc7f"/>
        <path id="Trazado_121268" data-name="Trazado 121268" d="M3189.392,2170.253s-4.353-.278-6.075,1.6,3.82,16.763,4.133,19.157-1.6,8.76-1.6,8.76,10.226,2.063,13.148.124c0,0,.313-17.217,0-18.928s-2.922-8.666-3.549-9.35S3189.392,2170.253,3189.392,2170.253Z" transform="translate(-3165.117 -2136.095)" fill="#355389"/>
        <path id="Trazado_121269" data-name="Trazado 121269" d="M3220.594,2136.317s-.023.129-.063.347a33.108,33.108,0,0,1-1.447,5.485c-.61,1.156,2.089,4.843,4.687,4.393.774-.134-.653-3.387-.585-3.732.131-.66.31-1.56.491-2.483l.3-1.544c.278-1.41.5-2.563.5-2.563Z" transform="translate(-3194.87 -2107.989)" fill="#f7a491"/>
        <path id="Trazado_121270" data-name="Trazado 121270" d="M3227.26,2136.665c.041-.219.063-.347.063-.347l3.893-.1s-.227,1.153-.5,2.563c-.1.494-.2,1.018-.3,1.536a3.649,3.649,0,0,1-1.859-.934,4.921,4.921,0,0,1-1.407-2.1C3227.19,2137.04,3227.23,2136.827,3227.26,2136.665Z" transform="translate(-3201.6 -2107.989)" fill="#f47458"/>
        <path id="Trazado_121271" data-name="Trazado 121271" d="M3222.972,2085.7a3.5,3.5,0,0,0-2.985,1.278c-1.15,1.491-2.39,6.1.467,8.609s5.68-.331,6.1-3.34S3227.134,2085.594,3222.972,2085.7Z" transform="translate(-3194.628 -2066.242)" fill="#f7a491"/>
        <path id="Trazado_121272" data-name="Trazado 121272" d="M3261.283,2115.354c-.341.664-.913,1.032-1.279.822s-.385-.92-.044-1.584.913-1.032,1.279-.822S3261.624,2114.69,3261.283,2115.354Z" transform="translate(-3228.513 -2089.391)" fill="#f7a491"/>
        <path id="Trazado_121273" data-name="Trazado 121273" d="M3215.019,2082.694s-2.451,4.385-4.2,4.587-1.984,2.532-1.984,2.532.626-5.369,2.363-6.4A6.435,6.435,0,0,1,3215.019,2082.694Z" transform="translate(-3186.47 -2063.727)" fill="#f7cc7f"/>
        <path id="Trazado_121274" data-name="Trazado 121274" d="M3214.171,2109.767c.143.778-.144,1.493-.641,1.595s-1.014-.446-1.157-1.225.144-1.492.64-1.594S3214.029,2108.989,3214.171,2109.767Z" transform="translate(-3189.367 -2085.111)" fill="#f7a491"/>
        <path id="Trazado_121275" data-name="Trazado 121275" d="M3235.267,2131.92l2.653.522a1.182,1.182,0,0,1-1.433.8C3235.057,2133,3235.267,2131.92,3235.267,2131.92Z" transform="translate(-3208.303 -2104.436)" fill="#fff"/>
        <path id="Trazado_121276" data-name="Trazado 121276" d="M3603.549,2561.559l-2.626-.01c.346-11.46.652-28.865.073-29.841a.429.429,0,0,0,.175.131l2.132-.556c.344.173.552.278.624,5.152.037,2.508.023,5.971-.042,10.294C3603.773,2554.087,3603.551,2561.485,3603.549,2561.559Z" transform="translate(-3510.417 -2434.39)" fill="#355389"/>
        <path id="Trazado_121277" data-name="Trazado 121277" d="M3569.051,2704.685h-17.719a1.478,1.478,0,0,0-1.478,1.478h0a.258.258,0,0,0,.259.258h20.157a.258.258,0,0,0,.258-.258h0A1.478,1.478,0,0,0,3569.051,2704.685Z" transform="translate(-3468.224 -2577.656)" fill="#355389"/>
        <path id="Trazado_121278" data-name="Trazado 121278" d="M3598.539,2696.3h-2.17a1.163,1.163,0,0,0-1.163,1.163h0a1.163,1.163,0,0,0,1.163,1.163h2.17a1.163,1.163,0,0,0,1.163-1.163h0A1.163,1.163,0,0,0,3598.539,2696.3Z" transform="translate(-3505.694 -2570.727)" fill="#355389"/>
        <rect id="Rectángulo_7523" data-name="Rectángulo 7523" width="1.049" height="52.241" transform="translate(28.974 76.49)" fill="#13375b"/>
        <path id="Trazado_121279" data-name="Trazado 121279" d="M3556.885,2201.5a14.056,14.056,0,0,1,1.284-6.776,5.746,5.746,0,0,1,5.122-2.918c6.4-.008,7.218,8.453,11.294,11.717,1.246,1,2.637,1.809,3.816,2.885,4.352,3.971,2.392,11.322-1.6,14.8-2.773,2.416-7.132,3.789-10.549,1.9a10.75,10.75,0,0,1-4.1-4.42,60.468,60.468,0,0,1-3.226-8.2A30.622,30.622,0,0,1,3556.885,2201.5Z" transform="translate(-3474.02 -2153.911)" fill="#13375b"/>
        <path id="Trazado_121280" data-name="Trazado 121280" d="M3436.772,2325.189l13.935-3.885s2.936-3.944,6.713-9.234c1.235,1.223,1.921,3.1,3.166,4.311l-9.224,10.2a1.763,1.763,0,0,1-1.3.581l-12.805.042-4.382.349v-2.8Z" transform="translate(-3371.574 -2253.276)" fill="#f48c7f"/>
        <path id="Trazado_121281" data-name="Trazado 121281" d="M3548.631,2313.4s4.783-4.9,6.013-7.034-.838-.744-2.951-1.3c-.8-.212-.6-4.9-2.11-3.377a69.581,69.581,0,0,0-5.6,6.873Z" transform="translate(-3463.372 -2244.442)" fill="#96d9c9"/>
        <path id="Trazado_121282" data-name="Trazado 121282" d="M3569.9,2289.708s4.292-.847,6.25.789-.419,16.185-.418,18.6a80.8,80.8,0,0,0,1.345,9.226s-13.008,2.277-15.075-1.344c0,0-.587-13.794-.5-15.528a48.114,48.114,0,0,1,2.549-9.588C3564.585,2291.1,3569.9,2289.708,3569.9,2289.708Z" transform="translate(-3477.841 -2234.62)" fill="#50bfa5"/>
        <path id="Trazado_121283" data-name="Trazado 121283" d="M3591.456,2252.088s.023.128.063.346a33.028,33.028,0,0,0,1.451,5.478c.612,1.155-2.095,4.837-4.7,4.388-.776-.134.655-3.384.586-3.728-.132-.659-.31-1.558-.493-2.479-.1-.52-.208-1.047-.306-1.543-.279-1.408-.506-2.559-.506-2.559Z" transform="translate(-3499.37 -2203.639)" fill="#f7a491"/>
        <path id="Trazado_121284" data-name="Trazado 121284" d="M3591.519,2252.435c-.04-.219-.063-.346-.063-.346l-3.9-.1s.227,1.152.506,2.559l.3,1.534a3.667,3.667,0,0,0,1.864-.933,4.912,4.912,0,0,0,1.412-2.1C3591.589,2252.809,3591.549,2252.6,3591.519,2252.435Z" transform="translate(-3499.37 -2203.639)" fill="#f47458"/>
        <path id="Trazado_121285" data-name="Trazado 121285" d="M3576.854,2201.538a3.522,3.522,0,0,1,2.994,1.277c1.154,1.489,2.4,6.094-.469,8.6s-5.7-.33-6.117-3.335S3572.679,2201.43,3576.854,2201.538Z" transform="translate(-3487.395 -2161.946)" fill="#f7a491"/>
        <path id="Trazado_121286" data-name="Trazado 121286" d="M3568.192,2231.153c.342.664.916,1.031,1.283.821s.385-.919.043-1.582-.916-1.031-1.282-.821S3567.85,2230.49,3568.192,2231.153Z" transform="translate(-3483.173 -2185.066)" fill="#f7a491"/>
        <path id="Trazado_121287" data-name="Trazado 121287" d="M3593.711,2198.535s2.458,4.379,4.218,4.581,1.99,2.529,1.99,2.529-.629-5.361-2.37-6.4A6.481,6.481,0,0,0,3593.711,2198.535Z" transform="translate(-3504.459 -2159.435)" fill="#13375b"/>
        <path id="Trazado_121288" data-name="Trazado 121288" d="M3615.15,2225.573c-.143.778.145,1.49.642,1.592s1.017-.445,1.161-1.223-.145-1.49-.642-1.593S3615.292,2224.795,3615.15,2225.573Z" transform="translate(-3522.142 -2180.791)" fill="#f7a491"/>
        <g id="Grupo_61711" data-name="Grupo 61711" transform="translate(38.418 82.287)">
          <path id="Trazado_121289" data-name="Trazado 121289" d="M3520.116,2632.381s3.948,4.735,3.975,5.146-.156,4.908-.626,5.321-1.849.7-1.405,1.167c.335.351,2.914.275,4.623.181.5-.027,1.125-4.008,1.322-4.593.287-.85.985-2.763.724-3.355a4.969,4.969,0,0,0-1.593-1.435c-.9-.583-4.349-5.38-4.349-5.38Z" transform="translate(-3482.073 -2597.77)" fill="#f48c7f"/>
          <path id="Trazado_121290" data-name="Trazado 121290" d="M3533.7,2660.225s-2.652,7.465-3.689,7.825c-.275.1-1.6.339-1.847.924a2.538,2.538,0,0,0,0,.765h5.526s.7-3.29.975-4.734c0,0,1.463-3.532,1.3-3.853S3533.7,2660.225,3533.7,2660.225Z" transform="translate(-3488.698 -2623.21)" fill="#b75742"/>
          <path id="Trazado_121291" data-name="Trazado 121291" d="M3319.059,2648.67s-3.224,4.54-2.941,5.976c.152.769.828,1.775.44,2.5a1.948,1.948,0,0,1-.832.9l-10.058.162c-.548.009-.186-.343.256-.667a20.305,20.305,0,0,1,3.616-2c.151-.073.7-.421.9-.541a6.972,6.972,0,0,0,1.438-1.269c.722-.8,3.9-7.342,3.9-7.342Z" transform="translate(-3304.667 -2611.784)" fill="#f7a491"/>
          <path id="Trazado_121292" data-name="Trazado 121292" d="M3306.994,2694.865a9.126,9.126,0,0,0,5.727-.225,4.6,4.6,0,0,1,.46,2.389c-.244.71-.592.871-.9.879-2.43.064-8.9.151-10.753.175a.3.3,0,0,1-.235-.5C3301.753,2697.039,3306.8,2694.985,3306.994,2694.865Z" transform="translate(-3301.222 -2651.644)" fill="#b75742"/>
          <path id="Trazado_121293" data-name="Trazado 121293" d="M3425.263,2456.126a72.09,72.09,0,0,0,5.011,5.279c1.019.722,10.792,18.718,10.792,18.718l-3.482,2.542s-8.734-10.891-12.836-16.716c-3.469-4.925-2.191-4.613-4.23-7.611a4.006,4.006,0,0,1,.612-5.222c.185-.167.385-.341.6-.522,3.019-2.516,23.714-5.348,23.714-5.348l13.237,1.3s-10.815,7.584-11.219,7.785-14.934,2.321-15.237,2.321S3425.263,2456.126,3425.263,2456.126Z" transform="translate(-3399.208 -2447.246)" fill="#b75742"/>
          <path id="Trazado_121294" data-name="Trazado 121294" d="M3405.792,2453.029s2.271,6.811-1.135,9.99-23.638,2.825-30.3,2.825c0,0-2.725,7.468-3.028,8.678s-13.521,16.852-13.521,16.852l-3.633-2.321s14.228-27.649,15.338-28.86,16.953-6.054,20.888-7.165S3405.792,2453.029,3405.792,2453.029Z" transform="translate(-3344.974 -2451.616)" fill="#f47458"/>
        </g>
        <path id="Trazado_121295" data-name="Trazado 121295" d="M3481.147,2322.5l12.082-2.673s4.369-5.614,8.566-10.446c1.235,1.222,1.921,3.1,3.165,4.311l-9.224,10.2a1.761,1.761,0,0,1-1.3.58l-12.805.043-4.382.349v-2.8Z" transform="translate(-3408.236 -2251.055)" fill="#f7a491"/>
        <path id="Trazado_121296" data-name="Trazado 121296" d="M3593.007,2304.53s4.782-4.9,6.013-7.034.318-5.7-1.8-6.261-8.868,8.453-8.868,8.453Z" transform="translate(-3500.035 -2236.041)" fill="#96d9c9"/>
        <g id="Grupo_61712" data-name="Grupo 61712" transform="translate(46.789 57.692)">
          <path id="Trazado_121297" data-name="Trazado 121297" d="M3350.687,2305.733h19.926a1.3,1.3,0,0,1,1.2.806l6.135,14.964h10.985a.556.556,0,0,1,.556.556h0a.556.556,0,0,1-.556.556H3357.67a2.182,2.182,0,0,1-1.991-1.289l-6.178-13.762A1.3,1.3,0,0,1,3350.687,2305.733Z" transform="translate(-3349.386 -2305.733)" fill="#b75742"/>
          <path id="Trazado_121298" data-name="Trazado 121298" d="M3418.466,2348.983a1.1,1.1,0,1,0,.822-1.43A1.172,1.172,0,0,0,3418.466,2348.983Z" transform="translate(-3406.437 -2340.27)" fill="#fff"/>
        </g>
        <path id="Trazado_121299" data-name="Trazado 121299" d="M3300.029,2405.393H3240.5a1.262,1.262,0,0,1-1.262-1.262h0a1.262,1.262,0,0,1,1.262-1.262h59.532a1.262,1.262,0,0,1,1.262,1.262h0A1.262,1.262,0,0,1,3300.029,2405.393Z" transform="translate(-3211.59 -2328.294)" fill="#184655"/>
        <path id="Trazado_121300" data-name="Trazado 121300" d="M3588.524,2248.217l2.7-.14a1.182,1.182,0,0,1-1.195,1.125C3588.584,2249.318,3588.524,2248.217,3588.524,2248.217Z" transform="translate(-3500.174 -2200.405)" fill="#fff"/>
        <path id="Trazado_121301" data-name="Trazado 121301" d="M3532.393,2468.713l1.219-5.075a8.233,8.233,0,0,1,7.643-6.28l15.442-.624.477-1.572-15.981.646a9.792,9.792,0,0,0-9.09,7.468l-1.3,5.393C3531.247,2468.687,3531.782,2468.7,3532.393,2468.713Z" transform="translate(-3452.489 -2371.5)" fill="#355389"/>
        <path id="Trazado_121302" data-name="Trazado 121302" d="M3534.832,2375.554s-21.215.363-23.427,0-3.169,2.41-2.509,3.863,2.476,2.014,5.15,2.146,24.924.759,25.551.165c.512-.485,7.257-23.545,9.712-31.978a3.181,3.181,0,0,0-2.161-3.941h0a3.184,3.184,0,0,0-3.943,2.131Z" transform="translate(-3434.215 -2281.044)" fill="#184655"/>
        <rect id="Rectángulo_7524" data-name="Rectángulo 7524" width="1.049" height="52.241" transform="translate(87.395 76.49)" fill="#13375b"/>
        <rect id="Rectángulo_7525" data-name="Rectángulo 7525" width="59.207" height="0.562" transform="translate(28.974 79.871)" fill="#13375b"/>
      </g>
      <g id="Grupo_61715" data-name="Grupo 61715" transform="translate(3014.645 881.197) rotate(-3)">
        <path id="Trazado_121303" data-name="Trazado 121303" d="M4215.865,967.525s7.692,4.979,26.65,4.3c0,0-20.32,7.674-28.265,8.86l-3.27-12.914Z" transform="translate(-4146.691 -957.353)" fill="#e25a44"/>
        <path id="Trazado_121304" data-name="Trazado 121304" d="M4226.933,989.127a19.585,19.585,0,0,1-5.241,6.659l-1.7-6.73.11-3.256Z" transform="translate(-4154.134 -972.452)" fill="#b75742"/>
        <path id="Trazado_121305" data-name="Trazado 121305" d="M4091.717,921.608s22.212-1.5,25.667-.232l3.571,14.1a70.07,70.07,0,0,0-24.96,3.022Z" transform="translate(-4048.156 -918.804)" fill="#f47458"/>
        <path id="Trazado_121306" data-name="Trazado 121306" d="M3979.282,1815.177s-1.07,1.746-.974,2.264,1.384,5.993,2.093,6.355,2.5.291,2.1,1c-.3.538-3.514,1.252-5.655,1.67-.625.122-2.644-4.6-3.07-5.261-.621-.96-2.081-3.106-1.944-3.919a6.335,6.335,0,0,1,1.518-2.271,9.973,9.973,0,0,0,1.591-2.873Z" transform="translate(-3949.101 -1655.18)" fill="#f48c7f"/>
        <path id="Trazado_121307" data-name="Trazado 121307" d="M4102.43,1820.332s-.363,3.915-.361,3.925c.049.593.033,2.094.165,2.611.492,1.944,8.35-3.87,6.166-4.234a2.141,2.141,0,0,1-1.139-1.162,4.7,4.7,0,0,1,.157-2.485Z" transform="translate(-4056.708 -1660.833)" fill="#f7a491"/>
        <path id="Trazado_121308" data-name="Trazado 121308" d="M4024.908,1421.723s2.271,6.279,2.294,6.375c2.638,10.419,9.857,30.249,9.959,32.307.252,5.021-3.89,32.006-3.89,32.006l-5.743.745-.125-31.022-5.647-11.069-9.661-22.261Z" transform="translate(-3982.372 -1332.613)" fill="#3c8f7c"/>
        <path id="Trazado_121309" data-name="Trazado 121309" d="M3983.183,1438.92l.488,6.373,3.5,25.85-4.681,27.315s2.438,3.185,4.826,3.114l10.962-29.6,2.606-34.988-2.193-7.071Z" transform="translate(-3957.912 -1339.377)" fill="#50bfa5"/>
        <path id="Trazado_121310" data-name="Trazado 121310" d="M3969.02,1828.373s5.611,8.394,7.005,8.514c.371.032,2.08-.082,2.571.563a7.758,7.758,0,0,1,.461,1.166l-7.039,2.026s-1.9-4.364-2.7-6.062c0,0-2.912-3.905-2.812-4.352S3969.02,1828.373,3969.02,1828.373Z" transform="translate(-3944.708 -1668.588)" fill="#13375b"/>
        <path id="Trazado_121311" data-name="Trazado 121311" d="M4101,1845.137l.214-3.654a8.986,8.986,0,0,0,3.351-.058,32.922,32.922,0,0,0,2.924-1.531c4.559.319,8.177.119,7.831,1.392h0Z" transform="translate(-4055.827 -1678.108)" fill="#13375b"/>
        <path id="Trazado_121312" data-name="Trazado 121312" d="M4163.681,1269.355l3.036,2.329c.585-.451,1.864-2.349,2.692-2.941l-2.773-3.026h0a.8.8,0,0,1-.325-.725,2.485,2.485,0,0,1,.077-.466c.086-.239.164-.524.25-.764s-.486-.72-.787-.805-.4,1.068-.531,1.411a37.52,37.52,0,0,0-.958,4.334Z" transform="translate(-4107.612 -1201.437)" fill="#f48c7f"/>
        <path id="Trazado_121313" data-name="Trazado 121313" d="M4028.583,1300.245c-.853-.909-2.056-1.42-2.949-2.365l-13.471,9.276s-10.415-12.316-16.071-7.952a93.984,93.984,0,0,0,6.995,10.064c3.459,4.283,8.74,6.326,9.771,5.853C4014.021,1314.589,4028.281,1300.612,4028.583,1300.245Z" transform="translate(-3969.151 -1230.294)" fill="#13375b"/>
        <path id="Trazado_121314" data-name="Trazado 121314" d="M3841.583,1095.089c.446,1.187,1.217,3.055,1.217,3.055.021.536.132,2.766.273,5.5l3.79-2.076a43.2,43.2,0,0,1-.437-4.7c.123-.247.409.008,1.418-1.887a3.435,3.435,0,0,0,.249-1.456s-.062-1.118-.323-1.191a.521.521,0,0,0-.594.33c-.067.2.01.646-.057.849a1.393,1.393,0,0,1-.86.521c-.244.017-.367-3.285-.367-3.285s.023-.943.055-1.255c.027-.266.171-1.052.171-1.052s.144-1.134-.208-1.177c-.207-.025-.612.931-.849,1.922a19.26,19.26,0,0,1-.449,2.175c-.259,0-.341-1.812-.341-1.812a5.783,5.783,0,0,0,.1-1.238c.182-.5.234-1.4-.2-1.426a7.342,7.342,0,0,0-.5,1.182s-.123.814-.206,1.2a21.522,21.522,0,0,0-.118,2.172c-.052.388-.159.244-.2.265a9.592,9.592,0,0,1-.062-1.23,7.267,7.267,0,0,1-.053-1.193,8.756,8.756,0,0,0,.02-1.269c-.044-.935-.616-.77-.716.1-.038.332-.076.694-.113,1.062-.145,1.427.025,2.765-.123,2.795a10.162,10.162,0,0,1-.36-2.415s-.462-1.313-.607-.025a11,11,0,0,0,.022,2.727A10.607,10.607,0,0,0,3841.583,1095.089Z" transform="translate(-3841.073 -1055.968)" fill="#f8a492"/>
        <path id="Trazado_121315" data-name="Trazado 121315" d="M3952.593,1196.4a2.2,2.2,0,0,0-3.6.905,1.634,1.634,0,0,0-2.072.81s-2.352-.409-2.492,3.052c0,0-1.195-.079-1.181,1.328a3.462,3.462,0,0,0,.831,2.247,1.677,1.677,0,0,0-.144,1.812,1.591,1.591,0,0,0,1.3,1.111s.464,1.8,1.324,2.255a2.605,2.605,0,0,0,1.907.06,1.232,1.232,0,0,0,1.322.757c.915-.2,1.954-1.22,3.038-.949a11.147,11.147,0,0,0,3.722-.473s2.857-1.71,1.58-4.686a2.272,2.272,0,0,0-.183-3.175s.688-2.811-1.509-4.155A5.267,5.267,0,0,0,3952.593,1196.4Z" transform="translate(-3925.49 -1145.933)" fill="#f47458"/>
        <path id="Trazado_121316" data-name="Trazado 121316" d="M3982.612,1299.9l-4.652-2.393s-4.133.6-4.646.665-1.479,19.317-1.559,26.53.8,8.381.8,8.381,6.735.681,11.533-.336a37.474,37.474,0,0,0,10.335-4.467s-5.962-13.12-7.332-17.276S3982.612,1299.9,3982.612,1299.9Z" transform="translate(-3949.039 -1229.984)" fill="#f7cc7f"/>
        <path id="Trazado_121317" data-name="Trazado 121317" d="M3867.778,1177.906l-15.28-12.214s-3.481-12.877-3.675-13.354-3.6-.322-4.978-.29c-.442.01,1.917,13.932,2.852,16.2,1.1,2.68,12.915,14.069,12.915,14.069s2.671,6.62,2.834,11.693c.271,8.426-.327,20.133.072,20.45,2.379,1.125,10.881.247,11.314-.683C3878.606,1203.509,3867.778,1177.906,3867.778,1177.906Z" transform="translate(-3843.318 -1109.767)" fill="#13375b"/>
        <path id="Trazado_121318" data-name="Trazado 121318" d="M3983.664,1265.03l.7,2.678s1.3,3.823.33,4.707-5.077-4.246-5.077-4.246l-.472-6.943Z" transform="translate(-3955.146 -1200.01)" fill="#f7a491"/>
        <path id="Trazado_121319" data-name="Trazado 121319" d="M3979.3,1263.476a7.885,7.885,0,0,0,4.959,3.825l-.591-2.271-4.522-3.8Z" transform="translate(-3955.146 -1200.01)" fill="#f47458"/>
        <path id="Trazado_121320" data-name="Trazado 121320" d="M3943.394,1228.32c.127,1.051.828,1.831,1.565,1.741s1.231-1.013,1.1-2.064-.828-1.83-1.565-1.741S3943.266,1227.269,3943.394,1228.32Z" transform="translate(-3925.594 -1171.112)" fill="#f47458"/>
        <path id="Trazado_121321" data-name="Trazado 121321" d="M3963.654,1205.63c.073.6.859,1.005,1.756.9s1.565-.686,1.491-1.29-.859-1.005-1.756-.9S3963.581,1205.026,3963.654,1205.63Z" transform="translate(-3942.345 -1152.996)" fill="#f47458"/>
        <path id="Trazado_121322" data-name="Trazado 121322" d="M3974.329,1216.089a3.665,3.665,0,0,1,5.113,2.323,27.7,27.7,0,0,1,.719,3.458c.442,3.173-.83,6.467-2.273,6.642s-5.684-1.4-6.375-5.9C3971.086,1219.837,3972.172,1217.137,3974.329,1216.089Z" transform="translate(-3948.767 -1162.417)" fill="#f7a491"/>
        <path id="Trazado_121323" data-name="Trazado 121323" d="M3968.388,1251.2a1.068,1.068,0,1,1-1.192-1.145A1.181,1.181,0,0,1,3968.388,1251.2Z" transform="translate(-3944.536 -1190.778)" fill="#f7a491"/>
        <path id="Trazado_121324" data-name="Trazado 121324" d="M4001.457,1201.1c1.634,1,2.374,2.733,1.653,3.869s-2.633,1.244-4.267.243-2.375-2.734-1.653-3.869S3999.822,1200.1,4001.457,1201.1Z" transform="translate(-3969.829 -1149.769)" fill="#f47458"/>
        <path id="Trazado_121325" data-name="Trazado 121325" d="M3988.1,1208.953c.062.514-.508,1-1.272,1.1s-1.435-.249-1.5-.762.507-1,1.272-1.1S3988.038,1208.44,3988.1,1208.953Z" transform="translate(-3960.255 -1156.18)" fill="#f47458"/>
        <path id="Trazado_121326" data-name="Trazado 121326" d="M4016.469,1227.473a1.191,1.191,0,1,1-1.327-1.052A1.2,1.2,0,0,1,4016.469,1227.473Z" transform="translate(-3984.025 -1171.246)" fill="#f47458"/>
        <path id="Trazado_121327" data-name="Trazado 121327" d="M4017.406,1303.6s6.459,15.267,8.756,20.648c.249.582,1.5,4.387,1.544,4.768.1.843-3.438,2.357-3.881,2.346-.4-.01-5.6-16.133-8.618-23.966a23.277,23.277,0,0,0-4.43-7.21l-1.468-1.211-.142-.454S4015.727,1299.108,4017.406,1303.6Z" transform="translate(-3979.953 -1230.826)" fill="#13375b"/>
        <rect id="Rectángulo_7526" data-name="Rectángulo 7526" width="1.195" height="107.258" transform="translate(42.309 0.293) rotate(-14.208)" fill="#13375b"/>
        <g id="Grupo_61714" data-name="Grupo 61714" transform="translate(58.326 62.671)">
          <path id="Trazado_121328" data-name="Trazado 121328" d="M4180.707,1272.876a3.655,3.655,0,0,0-.21-.7,1.982,1.982,0,0,0-.4-.641,1.223,1.223,0,0,1-.2-.424.766.766,0,0,0-.091-.168l0,0a1.689,1.689,0,0,0-.4-.383,1.8,1.8,0,0,1-.427-.465,1.29,1.29,0,0,0-.48-.424c-.192-.093-.339-.1-.408.022-.317.546-1.906,2.287-1.262,3.129a20.108,20.108,0,0,1,1.385,1.771c.2.457.9.425,1.314.266A1.59,1.59,0,0,0,4180.707,1272.876Z" transform="translate(-4176.669 -1269.599)" fill="#f7a491"/>
        </g>
      </g>
      <rect id="Rectángulo_7527" data-name="Rectángulo 7527" width="266.962" height="1.2" transform="translate(2869 1222.374)" fill="#184655"/>
      <g id="Grupo_61716" data-name="Grupo 61716" transform="translate(3036.392 943.078)">
        <path id="Trazado_121329" data-name="Trazado 121329" d="M4058.923,1162.862a.246.246,0,0,1,.385-.059c.167.173.337.344.507.516.374.38.377.406.433.4.134-.021.138-.262.131-.351a2.918,2.918,0,0,1-.055-.592.435.435,0,0,1,.729-.328c.293.239.576.5.855.755.022-.425.032-.851.06-1.275a.168.168,0,0,1,.281-.125l1.291,1.009c.066.052.345.328.426.278s.067-.342.074-.408c.041-.364.059-.493.217-1.675a.2.2,0,0,1,.327-.1c.908,1.088,1.046.974,1.128,1.3a.093.093,0,0,1-.109.116c-.175-.018-.215-.034-.669-.473q-.177-.17-.344-.349c-.164,1.439-.171,1.806-.531,1.914-.25.075-.292,0-1.754-1.152,0,.447-.028.891-.047,1.339a.192.192,0,0,1-.32.142c-1.048-.862-1.04-.927-1.152-.978,0,0,0-.078-.02.033-.031.189.149.6.016.94a.578.578,0,0,1-.767.375c-.185-.091-.236-.183-.8-.721a4.957,4.957,0,0,1-.634.992.774.774,0,0,1-.374.277.2.2,0,0,1-.256-.241C4058.087,1164.016,4058.451,1163.919,4058.923,1162.862Z" transform="translate(-4037.567 -1151.159)" fill="#f47458"/>
        <path id="Trazado_121330" data-name="Trazado 121330" d="M4029.537,1124.08a6.713,6.713,0,0,0,1.19.1c.078,0,.224.016.275-.062.123-.189-.2-.482-.341-1.221-.062-.321-.219-.978.212-1.109a2.41,2.41,0,0,1,.724-.009c.172,0,.345,0,.518,0-.309-1.2-.38-1.135-.256-1.4a.152.152,0,0,1,.205-.061c.242.161.172.128.576,1.639a.236.236,0,0,1-.216.3c-.234-.006-1.291-.091-1.422-.08.008.012,0,.069,0,.082a3.865,3.865,0,0,0,.351,1.379c.144.374.134.878-.341.984a4.678,4.678,0,0,1-1.194-.027c.215.732.435,1.463.645,2.2a.259.259,0,0,1-.239.331c-.473-.042-.944-.069-1.418-.091a4.391,4.391,0,0,0,.582,1.211c.188.274-.2.609-.624-.115a4.231,4.231,0,0,1-.543-1.3.261.261,0,0,1,.239-.332c.469.009.939.039,1.406.078-.205-.732-.4-1.466-.608-2.2A.241.241,0,0,1,4029.537,1124.08Z" transform="translate(-4012.996 -1117.656)" fill="#66ccb2"/>
        <path id="Trazado_121331" data-name="Trazado 121331" d="M3971.106,1107.425a.241.241,0,0,1-.24-.226,5.582,5.582,0,0,1,0-1.923c.067-.335.554-.209.509.119a6.781,6.781,0,0,0-.07,1.563,5.227,5.227,0,0,0,1.127-.143.248.248,0,0,1,.315.228c-.025.414-.166,1.98-.183,1.994a.074.074,0,0,1,.041,0c.164.032.725-.083.979-.068.286.018.376.405.391.639.03.475-.324,1-.158,1.461.16.446.862-.045,1.387.32.4.281.264.755.1,1.5a.578.578,0,0,1-.264.453.124.124,0,0,1-.146-.016c-.2-.228-.1-.5.037-1.182.018-.087.073-.234.012-.312-.2-.261-.8.11-1.276-.2a1.1,1.1,0,0,1-.367-1.126c.048-.317.243-.707.141-1.031-.272.014-.547.036-.818.03a.468.468,0,0,1-.511-.467,8.16,8.16,0,0,1,.067-1.017c.018-.225.034-.45.053-.674A5.9,5.9,0,0,1,3971.106,1107.425Z" transform="translate(-3965.549 -1105.079)" fill="#07345a"/>
        <path id="Trazado_121332" data-name="Trazado 121332" d="M4074.46,1208.763c1.132,1.45.066,2.154-.408,1.733a.4.4,0,0,1,.026-.645c.109-.07.284.04.239.174-.037.11.088.139.139.023.07-.157-.042-.353-.111-.491-.161-.323-.366-.744-.764-.807-.594-.094-1.239.5-.912,1.408a1.6,1.6,0,0,0,2.974-.076,1.95,1.95,0,0,0-.694-2.03c-.118-.092.027-.25.146-.2a1.946,1.946,0,0,1,.894,2.441,1.975,1.975,0,0,1-2.223,1.178,1.879,1.879,0,0,1-1.623-2.021A1.293,1.293,0,0,1,4074.46,1208.763Z" transform="translate(-4049.283 -1189.982)" fill="#3c8f7c"/>
        <path id="Trazado_121333" data-name="Trazado 121333" d="M3942.481,1141.551c.157.236.245.718-.075.867a.261.261,0,0,1-.38-.147c-.051-.169.042-.323-.109-.455a.351.351,0,0,0-.442.047c-.369.3-.274.96-.082,1.333a.89.89,0,0,0,1.553.089,2,2,0,0,0,.219-.645c.031-.122.228-.178.29-.046a1.2,1.2,0,0,1-.529,1.405,1.423,1.423,0,0,1-1.536-.023,1.836,1.836,0,0,1-.717-1.575C3940.714,1141.184,3941.974,1140.787,3942.481,1141.551Z" transform="translate(-3940.671 -1134.89)" fill="#f7cc7f"/>
      </g>
      <path id="Trazado_121334" data-name="Trazado 121334" d="M3620.649,2114.3a1.182,1.182,0,0,0,1.6.346c1.3-.646.781-1.621.781-1.621Z" transform="translate(-639.876 -994.766)" fill="#fff"/>
      <path id="Trazado_121335" data-name="Trazado 121335" d="M3998.967,1268.235a1.181,1.181,0,0,0,1.3,1.006c1.45-.021,1.406-1.123,1.406-1.123Z" transform="translate(-952.444 -296.705)" fill="#fff"/>
    </g>
  </g>
</svg>
