<svg xmlns="http://www.w3.org/2000/svg" xmlns:xlink="http://www.w3.org/1999/xlink" width="295" height="237.249" viewBox="0 0 295 237.249">
  <defs>
    <linearGradient id="linear-gradient" x1="0.5" y1="2.379" x2="0.5" y2="-1.34" gradientUnits="objectBoundingBox">
      <stop offset="0" stop-color="#ff9f55"/>
      <stop offset="1" stop-color="#ffd255"/>
    </linearGradient>
    <linearGradient id="linear-gradient-2" x1="0.5" y1="1.98" x2="0.5" y2="-0.664" xlink:href="#linear-gradient"/>
    <linearGradient id="linear-gradient-3" x1="0.5" y1="1.852" x2="0.5" y2="-0.446" xlink:href="#linear-gradient"/>
    <linearGradient id="linear-gradient-4" x1="0.5" y1="1.808" x2="0.5" y2="-0.371" xlink:href="#linear-gradient"/>
    <linearGradient id="linear-gradient-5" y1="0.5" x2="1" y2="0.5" gradientUnits="objectBoundingBox">
      <stop offset="0" stop-color="#40d5e6"/>
      <stop offset="1" stop-color="#57f"/>
    </linearGradient>
    <linearGradient id="linear-gradient-8" x1="0.5" y1="1.181" x2="0.5" y2="0.484" gradientUnits="objectBoundingBox">
      <stop offset="0" stop-color="#7db3e0"/>
      <stop offset="1" stop-color="#fff"/>
    </linearGradient>
    <linearGradient id="linear-gradient-9" x1="0.557" y1="5.233" x2="0.424" y2="-5.763" xlink:href="#linear-gradient"/>
    <linearGradient id="linear-gradient-10" x1="0.638" y1="5.266" x2="0.319" y2="-5.73" xlink:href="#linear-gradient"/>
    <linearGradient id="linear-gradient-11" x1="0.322" y1="-0.146" x2="0.748" y2="1.402" xlink:href="#linear-gradient-5"/>
    <linearGradient id="linear-gradient-12" x1="0.322" y1="-0.146" x2="0.748" y2="1.402" xlink:href="#linear-gradient-5"/>
  </defs>
  <g id="Grupo_61566" data-name="Grupo 61566" transform="translate(-3285.102 -1049.229)">
    <g id="Grupo_61565" data-name="Grupo 61565" transform="translate(3285.102 1049.229)">
      <g id="Grupo_61426" data-name="Grupo 61426" transform="translate(151.313 84.084)">
        <rect id="Rectángulo_7445" data-name="Rectángulo 7445" width="1.08" height="113.354" fill="#f3f3f3"/>
      </g>
      <rect id="Rectángulo_7446" data-name="Rectángulo 7446" width="11.647" height="2.955" transform="translate(151.853 70.116)" fill="#fff"/>
      <rect id="Rectángulo_7447" data-name="Rectángulo 7447" width="9.32" height="2.955" transform="translate(151.853 75.578)" fill="#fff"/>
      <rect id="Rectángulo_7448" data-name="Rectángulo 7448" width="12.222" height="3.94" transform="translate(152.394 204.153)" fill="#fff"/>
      <g id="Grupo_61436" data-name="Grupo 61436" transform="translate(180.67)">
        <g id="Grupo_61429" data-name="Grupo 61429" transform="translate(0 26.594)">
          <g id="Grupo_61428" data-name="Grupo 61428">
            <g id="Grupo_61427" data-name="Grupo 61427">
              <path id="Trazado_120966" data-name="Trazado 120966" d="M4511.739,1213.495s28.745,34.083,10.51,56.153-23.25.43-23.25.43-10.914,2.026,7.989-25.579C4515.9,1231.488,4511.739,1213.495,4511.739,1213.495Z" transform="translate(-4495.864 -1213.495)" fill="#dcedef"/>
            </g>
          </g>
        </g>
        <g id="Grupo_61432" data-name="Grupo 61432" transform="translate(20.498)">
          <g id="Grupo_61431" data-name="Grupo 61431">
            <g id="Grupo_61430" data-name="Grupo 61430">
              <path id="Trazado_120967" data-name="Trazado 120967" d="M4680.858,1049.229s21.355,31.519-15.825,67.827-34.417,57.963-34.417,57.963S4592.6,1100.607,4680.858,1049.229Z" transform="translate(-4622.476 -1049.229)" fill="#dcedef"/>
            </g>
          </g>
        </g>
        <g id="Grupo_61435" data-name="Grupo 61435" transform="translate(15.884 38.62)">
          <g id="Grupo_61434" data-name="Grupo 61434">
            <g id="Grupo_61433" data-name="Grupo 61433">
              <path id="Trazado_120968" data-name="Trazado 120968" d="M4599.792,1361.246c-15.6,1.407,2.5-40.769,26.87-51.78s44.986-10.076,59.235-21.694C4685.9,1287.773,4676.6,1354.315,4599.792,1361.246Z" transform="translate(-4593.976 -1287.773)" fill="#dcedef"/>
            </g>
          </g>
        </g>
      </g>
      <g id="Grupo_61437" data-name="Grupo 61437" transform="translate(43.957 84.084)">
        <rect id="Rectángulo_7449" data-name="Rectángulo 7449" width="1.08" height="113.354" fill="#e0e0e0"/>
      </g>
      <g id="Grupo_61438" data-name="Grupo 61438" transform="translate(120.778 84.084)">
        <rect id="Rectángulo_7450" data-name="Rectángulo 7450" width="1.08" height="113.354" fill="#f3f3f3"/>
      </g>
      <g id="Grupo_61439" data-name="Grupo 61439" transform="translate(197.599 84.084)">
        <rect id="Rectángulo_7451" data-name="Rectángulo 7451" width="1.08" height="113.354" fill="#f3f3f3"/>
      </g>
      <rect id="Rectángulo_7452" data-name="Rectángulo 7452" width="18.4" height="2.955" transform="translate(44.497 70.116)" fill="#e0e0e0"/>
      <rect id="Rectángulo_7453" data-name="Rectángulo 7453" width="26.1" height="2.955" transform="translate(44.497 75.578)" fill="#e0e0e0"/>
      <rect id="Rectángulo_7454" data-name="Rectángulo 7454" width="21.603" height="2.955" transform="translate(120.491 70.116)" fill="#fff"/>
      <rect id="Rectángulo_7455" data-name="Rectángulo 7455" width="13.813" height="2.955" transform="translate(120.491 75.578)" fill="#fff"/>
      <rect id="Rectángulo_7456" data-name="Rectángulo 7456" width="13.387" height="2.955" transform="translate(198.68 70.116)" fill="#fff"/>
      <rect id="Rectángulo_7457" data-name="Rectángulo 7457" width="15.603" height="2.955" transform="translate(198.68 75.578)" fill="#fff"/>
      <rect id="Rectángulo_7458" data-name="Rectángulo 7458" width="19.499" height="2.955" transform="translate(275.501 70.116)" fill="#fff"/>
      <rect id="Rectángulo_7459" data-name="Rectángulo 7459" width="15.603" height="2.955" transform="translate(275.501 75.578)" fill="#fff"/>
      <rect id="Rectángulo_7460" data-name="Rectángulo 7460" width="12.222" height="3.94" transform="translate(121.319 204.153)" fill="#fff"/>
      <rect id="Rectángulo_7461" data-name="Rectángulo 7461" width="12.222" height="3.94" transform="translate(198.68 204.153)" fill="#fff"/>
      <g id="Grupo_61449" data-name="Grupo 61449" transform="translate(0 114.99)">
        <g id="Grupo_61441" data-name="Grupo 61441" transform="translate(0 11.262)">
          <rect id="Rectángulo_7462" data-name="Rectángulo 7462" width="3.691" height="15.94" fill="#e0e0e0"/>
        </g>
        <g id="Grupo_61442" data-name="Grupo 61442" transform="translate(9.166 4.787)">
          <rect id="Rectángulo_7463" data-name="Rectángulo 7463" width="3.691" height="22.415" fill="#e0e0e0"/>
        </g>
        <g id="Grupo_61443" data-name="Grupo 61443" transform="translate(18.332 1.408)">
          <rect id="Rectángulo_7464" data-name="Rectángulo 7464" width="3.692" height="25.794" fill="#e0e0e0"/>
        </g>
        <g id="Grupo_61444" data-name="Grupo 61444" transform="translate(27.499)">
          <rect id="Rectángulo_7465" data-name="Rectángulo 7465" width="3.692" height="27.202" fill="#e0e0e0"/>
        </g>
        <g id="Grupo_61445" data-name="Grupo 61445" transform="translate(0 17.202)">
          <rect id="Rectángulo_7466" data-name="Rectángulo 7466" width="3.691" height="10" fill="url(#linear-gradient)"/>
        </g>
        <g id="Grupo_61446" data-name="Grupo 61446" transform="translate(9.166 13.139)">
          <rect id="Rectángulo_7467" data-name="Rectángulo 7467" width="3.691" height="14.063" fill="url(#linear-gradient-2)"/>
        </g>
        <g id="Grupo_61447" data-name="Grupo 61447" transform="translate(18.332 11.019)">
          <rect id="Rectángulo_7468" data-name="Rectángulo 7468" width="3.692" height="16.183" fill="url(#linear-gradient-3)"/>
        </g>
        <g id="Grupo_61448" data-name="Grupo 61448" transform="translate(27.499 10.136)">
          <rect id="Rectángulo_7469" data-name="Rectángulo 7469" width="3.692" height="17.066" fill="url(#linear-gradient-4)"/>
        </g>
      </g>
      <g id="Grupo_61450" data-name="Grupo 61450" transform="translate(88.871 35.326)">
        <rect id="Rectángulo_7470" data-name="Rectángulo 7470" width="134.971" height="178.573" rx="59.945" transform="translate(134.971 178.573) rotate(180)" fill="#4fa3b1"/>
      </g>
      <path id="Rectángulo_7471" data-name="Rectángulo 7471" d="M40.255,0H119a0,0,0,0,1,0,0V190.678a0,0,0,0,1,0,0H0a0,0,0,0,1,0,0V40.255A40.255,40.255,0,0,1,40.255,0Z" transform="translate(96.857 14.216)" fill="#f5f5f5"/>
      <rect id="Rectángulo_7472" data-name="Rectángulo 7472" width="35.087" height="4.438" transform="translate(169.68 51.374)" fill="url(#linear-gradient-5)"/>
      <rect id="Rectángulo_7473" data-name="Rectángulo 7473" width="32.208" height="4.438" transform="translate(169.68 69.977)" fill="url(#linear-gradient-5)"/>
      <rect id="Rectángulo_7474" data-name="Rectángulo 7474" width="27.867" height="4.438" transform="translate(169.68 60.676)" fill="url(#linear-gradient-5)"/>
      <g id="Grupo_61451" data-name="Grupo 61451" transform="translate(104.397 24.56)">
        <path id="Trazado_120970" data-name="Trazado 120970" d="M4052.382,1256.2a27.4,27.4,0,0,1-11.422-2.463,27.637,27.637,0,1,1,22.844,0A27.4,27.4,0,0,1,4052.382,1256.2Zm0-53.815a26.182,26.182,0,1,0,26.179,26.178A26.207,26.207,0,0,0,4052.382,1202.386Z" transform="translate(-4024.745 -1200.927)" fill="url(#linear-gradient-8)"/>
      </g>
      <g id="Grupo_61455" data-name="Grupo 61455" transform="translate(104.397 90.959)">
        <g id="Grupo_61452" data-name="Grupo 61452">
          <rect id="Rectángulo_7475" data-name="Rectángulo 7475" width="40.316" height="3.957" fill="#4e7ed6"/>
        </g>
        <g id="Grupo_61453" data-name="Grupo 61453" transform="translate(0 10.646)">
          <rect id="Rectángulo_7476" data-name="Rectángulo 7476" width="40.316" height="3.957" fill="#e0e0e0"/>
        </g>
        <g id="Grupo_61454" data-name="Grupo 61454" transform="translate(0 21.292)">
          <rect id="Rectángulo_7477" data-name="Rectángulo 7477" width="40.316" height="3.957" fill="#e0e0e0"/>
        </g>
      </g>
      <g id="Grupo_61459" data-name="Grupo 61459" transform="translate(152.941 90.959)">
        <g id="Grupo_61456" data-name="Grupo 61456">
          <rect id="Rectángulo_7478" data-name="Rectángulo 7478" width="6.73" height="3.957" fill="#4e7ed6"/>
        </g>
        <g id="Grupo_61457" data-name="Grupo 61457" transform="translate(0 10.646)">
          <rect id="Rectángulo_7479" data-name="Rectángulo 7479" width="6.73" height="3.957" fill="#e0e0e0"/>
        </g>
        <g id="Grupo_61458" data-name="Grupo 61458" transform="translate(0 21.292)">
          <rect id="Rectángulo_7480" data-name="Rectángulo 7480" width="6.73" height="3.957" fill="#e0e0e0"/>
        </g>
      </g>
      <rect id="Rectángulo_7481" data-name="Rectángulo 7481" width="80.548" height="122.314" rx="40.274" transform="translate(169.275 86.973)" fill="#f5f5f5" style="mix-blend-mode: hard-light;isolation: isolate"/>
      <g id="Grupo_61465" data-name="Grupo 61465" transform="translate(214.803 96.417)">
        <g id="Grupo_61461" data-name="Grupo 61461">
          <path id="Trazado_120972" data-name="Trazado 120972" d="M4732.3,1653.518a13.185,13.185,0,1,0-24.83,8.88c.1.279.208.554.324.822a13.186,13.186,0,0,0,24.506-9.7Zm-9.087,13.748a9.878,9.878,0,0,1-12.394-5.363c-.086-.2-.167-.407-.243-.616a9.886,9.886,0,1,1,12.637,5.979Z" transform="translate(-4706.697 -1644.77)" fill="#e0e0e0"/>
        </g>
        <g id="Grupo_61462" data-name="Grupo 61462" transform="translate(0.602 0.006)">
          <path id="Trazado_120973" data-name="Trazado 120973" d="M4713.565,1655.042l-3.15-.984a13.2,13.2,0,0,1,12.193-9.253l.1,3.3a9.9,9.9,0,0,0-9.14,6.938Z" transform="translate(-4710.415 -1644.806)" fill="#537ffd"/>
        </g>
        <g id="Grupo_61463" data-name="Grupo 61463" transform="translate(0 9.259)">
          <path id="Trazado_120974" data-name="Trazado 120974" d="M4710.82,1709.832l-3.025,1.317c-.116-.268-.225-.543-.324-.822a13.125,13.125,0,0,1-.172-8.37l3.15.984a9.843,9.843,0,0,0,.128,6.275Q4710.691,1709.53,4710.82,1709.832Z" transform="translate(-4706.697 -1701.957)" fill="#4ba6f3"/>
        </g>
        <g id="Grupo_61464" data-name="Grupo 61464" transform="translate(1.098 17.134)">
          <path id="Trazado_120975" data-name="Trazado 120975" d="M4715.525,1755.2a13.1,13.1,0,0,1-2.043-3.282l3.025-1.317a9.84,9.84,0,0,0,1.532,2.461Z" transform="translate(-4713.481 -1750.599)" fill="#46bbed"/>
        </g>
      </g>
      <g id="Grupo_61466" data-name="Grupo 61466" transform="translate(220.768 181.674)">
        <rect id="Rectángulo_7482" data-name="Rectángulo 7482" width="7.108" height="23.304" fill="#46bbed"/>
      </g>
      <g id="Grupo_61467" data-name="Grupo 61467" transform="translate(210.202 188.21)">
        <rect id="Rectángulo_7483" data-name="Rectángulo 7483" width="7.107" height="16.768" fill="#46bbed"/>
      </g>
      <g id="Grupo_61468" data-name="Grupo 61468" transform="translate(231.018 170.874)">
        <rect id="Rectángulo_7484" data-name="Rectángulo 7484" width="7.107" height="34.105" fill="#46bbed"/>
      </g>
      <g id="Grupo_61469" data-name="Grupo 61469" transform="translate(179.418 132.34)">
        <path id="Trazado_120976" data-name="Trazado 120976" d="M4488.751,1913.59l-.618-.474,11.582-15.069,14.294.776,10.779-17.165,11.612-1.2,6.978-13.8.7.352-7.17,14.18-11.657,1.2-10.821,17.232-14.341-.778Z" transform="translate(-4488.133 -1866.657)" fill="#46bbed"/>
      </g>
      <path id="Trazado_120977" data-name="Trazado 120977" d="M4510.655,1669.776h-20.212a2.311,2.311,0,0,1-2.311-2.311h0a2.31,2.31,0,0,1,2.311-2.31h20.212a2.31,2.31,0,0,1,2.31,2.31h0A2.31,2.31,0,0,1,4510.655,1669.776Z" transform="translate(-4308.715 -1565.438)" fill="#4e7ed6"/>
      <path id="Trazado_120978" data-name="Trazado 120978" d="M4510.655,1719.566h-20.212a2.311,2.311,0,0,1-2.311-2.31h0a2.31,2.31,0,0,1,2.311-2.31h20.212a2.31,2.31,0,0,1,2.31,2.31h0A2.31,2.31,0,0,1,4510.655,1719.566Z" transform="translate(-4308.715 -1607.167)" fill="#e0e0e0"/>
      <path id="Trazado_120979" data-name="Trazado 120979" d="M4510.655,1769.357h-20.212a2.311,2.311,0,0,1-2.311-2.31h0a2.311,2.311,0,0,1,2.311-2.311h20.212a2.31,2.31,0,0,1,2.31,2.311h0A2.31,2.31,0,0,1,4510.655,1769.357Z" transform="translate(-4308.715 -1648.897)" fill="#e0e0e0"/>
      <g id="Grupo_61499" data-name="Grupo 61499" transform="translate(106.069 90.588)">
        <path id="Trazado_120980" data-name="Trazado 120980" d="M4129.715,2047.189a39.238,39.238,0,0,0-17.784,0l4.692-24.035S4128.337,2035.574,4129.715,2047.189Z" transform="translate(-4099.488 -1956.066)" fill="#b3b7c4"/>
        <g id="Grupo_61472" data-name="Grupo 61472" transform="translate(53.663 49.689)">
          <g id="Grupo_61471" data-name="Grupo 61471">
            <g id="Grupo_61470" data-name="Grupo 61470">
              <path id="Trazado_120981" data-name="Trazado 120981" d="M4368.47,1915.679s1.8,1.287,2.327,1.126a11.427,11.427,0,0,1,1.93.045c.5-.053,1.825-.684,2.354-.55a14.613,14.613,0,0,0,1.872.976c.452.065,1.382.086,1.32.471s-.9.592-.9.592.408.084.459.44a.925.925,0,0,1-.264.936s.364.354.332.651a1.172,1.172,0,0,1-.429.881,1.114,1.114,0,0,1,.01.769,1,1,0,0,1-.76.623s-.076.735-.481.834a3.578,3.578,0,0,1-1.09-.053,13.651,13.651,0,0,1-4.924-2.5,16.47,16.47,0,0,0-3.691-2.37Z" transform="translate(-4366.536 -1915.679)" fill="#eea987"/>
            </g>
          </g>
        </g>
        <g id="Grupo_61473" data-name="Grupo 61473" transform="translate(12.016 0.032)">
          <path id="Trazado_120982" data-name="Trazado 120982" d="M4116.016,1609.442s-2.683-1.722-5.1,1.339-1.548,6-1.043,8.75c.5,2.724,2.941,8.96,1.905,11.706s.288,4.177.288,4.177,8.322,2.13,7.351-10.386S4116.016,1609.442,4116.016,1609.442Z" transform="translate(-4109.293 -1608.96)" fill="#fccca2"/>
        </g>
        <g id="Grupo_61474" data-name="Grupo 61474" transform="translate(20.003 24.096)">
          <path id="Trazado_120983" data-name="Trazado 120983" d="M4160.928,1757.649s3.168-.434,5.295,1.16,3.582,4.58,4.232,5.517,8.243,9.319,8.621,9.471,5.1,2.76,8.289,4.867,8.2,4.645,8.2,4.645l-2.721,3.337s-13.4-4.8-16.193-7.393c-2.978-2.771-16.75-16.523-16.75-16.523S4156.438,1759.933,4160.928,1757.649Z" transform="translate(-4158.626 -1757.596)" fill="#dbdff0"/>
        </g>
        <g id="Grupo_61475" data-name="Grupo 61475" transform="translate(38.705 133.411)">
          <path id="Trazado_120984" data-name="Trazado 120984" d="M4280.794,2440.121s3.428,4.614,2.958,5.346-4.075.835-6.269,0-2.246-6.244-3.239-8.567c-.416-.973.474-3.844,1.724-4.052a5.261,5.261,0,0,1,2.61.4S4277.281,2436.523,4280.794,2440.121Z" transform="translate(-4274.141 -2432.804)" fill="#1d3b54"/>
        </g>
        <g id="Grupo_61477" data-name="Grupo 61477" transform="translate(39.738 133.344)">
          <g id="Grupo_61476" data-name="Grupo 61476">
            <path id="Trazado_120985" data-name="Trazado 120985" d="M4283.95,2432.87a21.777,21.777,0,0,1,.984,3.841c.219,1.556,2.441,4.859,2.337,5.277s-2.926.8-4.075-.281-1.889-4.21-2.141-6.084a15.029,15.029,0,0,0-.534-2.608S4282.853,2431.721,4283.95,2432.87Z" transform="translate(-4280.522 -2432.395)" fill="#eea886"/>
          </g>
        </g>
        <g id="Grupo_61478" data-name="Grupo 61478" transform="translate(38.716 137.1)">
          <path id="Trazado_120986" data-name="Trazado 120986" d="M4274.213,2455.592v4.831h.627v-3.734Z" transform="translate(-4274.213 -2455.592)" fill="#1d3b54"/>
        </g>
        <g id="Grupo_61479" data-name="Grupo 61479" transform="translate(8.749 133.413)">
          <path id="Trazado_120987" data-name="Trazado 120987" d="M4095.889,2440.209s3.3,4.538,2.834,5.269-4.075.836-6.269,0-2.246-6.244-3.239-8.567c-.416-.973.473-3.844,1.724-4.052a5.617,5.617,0,0,1,2.716.448S4092.377,2436.612,4095.889,2440.209Z" transform="translate(-4089.113 -2432.819)" fill="#1d3b54"/>
        </g>
        <g id="Grupo_61481" data-name="Grupo 61481" transform="translate(10.296 133.242)">
          <g id="Grupo_61480" data-name="Grupo 61480">
            <path id="Trazado_120988" data-name="Trazado 120988" d="M4101.666,2432.422a30.981,30.981,0,0,0,.68,3.656c.417,1.515,2.664,4.962,2.559,5.38s-2.925.8-4.074-.281-2.038-4.2-2.142-6.084a10.058,10.058,0,0,1,.261-3.119A2.55,2.55,0,0,1,4101.666,2432.422Z" transform="translate(-4098.67 -2431.762)" fill="#eea886"/>
          </g>
        </g>
        <g id="Grupo_61482" data-name="Grupo 61482" transform="translate(8.76 137.1)">
          <path id="Trazado_120989" data-name="Trazado 120989" d="M4089.184,2455.592v4.831h.627v-3.734Z" transform="translate(-4089.184 -2455.592)" fill="#1d3b54"/>
        </g>
        <g id="Grupo_61484" data-name="Grupo 61484" transform="translate(5.815 48.517)">
          <g id="Grupo_61483" data-name="Grupo 61483">
            <path id="Trazado_120990" data-name="Trazado 120990" d="M4094.978,1918.7s2.941,13.682,3.616,17.126,2.567,20.129,2.77,22.966,3.068,13.526,2.934,14.539,4.411,21.118,4.411,21.118-4.679,1.272-5.466.415c-.669-.728-7.391-19.113-7.391-24.178,0-7-5.282-15.918-5.95-17.485-6.207-14.553-4.881-19.229-5.691-20.174s-.881.584-1.354,2.678-1.485,20.2-2.093,22.493-.136,10.064-.474,13.982-.727,21.47-.727,21.47-3.389.779-5,.029c-.464-.217-1.636-19.554-1.7-24.214s-.14-11.088-.27-13.1c-1.251-19.313-3.1-22.054.517-35.74C4080.04,1894.373,4094.978,1918.7,4094.978,1918.7Z" transform="translate(-4070.991 -1908.438)" fill="#3b3b40"/>
          </g>
        </g>
        <g id="Grupo_61485" data-name="Grupo 61485" transform="translate(6.941 22.169)">
          <path id="Trazado_120991" data-name="Trazado 120991" d="M4093.194,1745.857a32.091,32.091,0,0,0,4.135,1.663c1.065.213,5.2,5.585,5.926,7.547s0,4.9-1.492,8.356-.085,4.6-.768,8.058-.035,11.548.093,13.467-15.688,4.356-21.767-1.77c0,0,3.3-6.2,3.811-7.05s.085-5.5-.384-6.694-3.59-11.346-3.59-11.346-2.554-7.8-.247-9.588c2-1.556,7.466-2.111,8.446-2.452A16.751,16.751,0,0,1,4093.194,1745.857Z" transform="translate(-4077.945 -1745.697)" fill="#e8734d"/>
        </g>
        <g id="Grupo_61486" data-name="Grupo 61486" transform="translate(23.08 21.238)">
          <path id="Trazado_120992" data-name="Trazado 120992" d="M4177.722,1747.879l1.866-2.184-1.619-5.75A37.967,37.967,0,0,0,4177.722,1747.879Z" transform="translate(-4177.633 -1739.944)" fill="#d6c5be"/>
        </g>
        <g id="Grupo_61487" data-name="Grupo 61487" transform="translate(16.352 14.586)">
          <path id="Trazado_120993" data-name="Trazado 120993" d="M4143.376,1703.057a73.234,73.234,0,0,0-.484,7.465s-3.189,3.2-6.818-3.731a9.508,9.508,0,0,0,.377-6.746C4135.3,1696.154,4143.376,1703.057,4143.376,1703.057Z" transform="translate(-4136.074 -1698.856)" fill="#eea886"/>
        </g>
        <g id="Grupo_61488" data-name="Grupo 61488" transform="translate(19.499 26.252)">
          <path id="Trazado_120994" data-name="Trazado 120994" d="M4159.181,1770.916v2.92l-3.671-2.743Z" transform="translate(-4155.51 -1770.916)" fill="#eea886"/>
        </g>
        <g id="Grupo_61489" data-name="Grupo 61489" transform="translate(14.85 22.169)">
          <path id="Trazado_120995" data-name="Trazado 120995" d="M4135.117,1752.7l-1.523-1.886-5.134-5.117-1.662,1.6Z" transform="translate(-4126.798 -1745.697)" fill="#d6c5be"/>
        </g>
        <g id="Grupo_61490" data-name="Grupo 61490" transform="translate(23.415 21.238)">
          <path id="Trazado_120996" data-name="Trazado 120996" d="M4181.322,1745.694l2.351.649-3.971-6.4Z" transform="translate(-4179.702 -1739.944)" fill="#fae6de"/>
        </g>
        <g id="Grupo_61491" data-name="Grupo 61491" transform="translate(15.113 21.83)">
          <path id="Trazado_120997" data-name="Trazado 120997" d="M4134.953,1749.058l-2.147,2.814-4.386-7.489,1.527-.781Z" transform="translate(-4128.42 -1743.602)" fill="#fae6de"/>
        </g>
        <g id="Grupo_61492" data-name="Grupo 61492" transform="translate(17.57 17.584)">
          <path id="Trazado_120998" data-name="Trazado 120998" d="M4149.553,1719.819l-.105,1.128s-2.535.475-5.853-3.571A7.2,7.2,0,0,0,4149.553,1719.819Z" transform="translate(-4143.595 -1717.376)" fill="#a77860"/>
        </g>
        <g id="Grupo_61493" data-name="Grupo 61493" transform="translate(14.733 0.432)">
          <path id="Trazado_120999" data-name="Trazado 120999" d="M4134.224,1631.108c1-.037,3.787-.363,5.163-6.786,1.679-7.847-2.034-11.917-5.213-12.671s-6.112.351-7.74,4.452c0,0-1.189,3.2.742,8.894S4133.153,1631.147,4134.224,1631.108Z" transform="translate(-4126.071 -1611.431)" fill="#eea987"/>
        </g>
        <g id="Grupo_61494" data-name="Grupo 61494" transform="translate(13.842)">
          <path id="Trazado_121000" data-name="Trazado 121000" d="M4127.063,1614.505s4.27.266,8.238,6.228c0,0,1.858-7.174-3-10.448s-8.256-.459-9.441.968c0,0-1.7.391-1.752,3.614s-2.222,8.089,2.535,10.4c0,0-.453-3.68-.034-4.521S4125.483,1620.469,4127.063,1614.505Z" transform="translate(-4120.57 -1608.764)" fill="#fccca2"/>
        </g>
        <g id="Grupo_61495" data-name="Grupo 61495" transform="translate(15.877 10.01)">
          <path id="Trazado_121001" data-name="Trazado 121001" d="M4134.38,1671.131c-.215-.558-.8-.783-1.125-.184s.062,2.918.924,3.172S4134.816,1672.261,4134.38,1671.131Z" transform="translate(-4133.142 -1670.592)" fill="#eea987"/>
        </g>
        <path id="Trazado_121002" data-name="Trazado 121002" d="M4072.986,1748.429s4.822,5.769,5.328,17.9-3.8,50.86-3.531,55.585l-12.506-6.052s.072-19.543,4.259-31.839c4.914-14.427-.674-18.827-1.185-27.7,0,0,.231-6.5,3.853-7.088A16.909,16.909,0,0,0,4072.986,1748.429Z" transform="translate(-4057.873 -1725.817)" fill="#dbdff0"/>
        <path id="Trazado_121003" data-name="Trazado 121003" d="M4188.28,1753.773s1.961.228,2.581.961,4.5,5.2,4.779,6.516,1.186,2.3-.673,8.424a36.045,36.045,0,0,0-.9,14.094c.345,2.461,6.333,35.717,6.005,36.569s-2.822,2.888-2.822,2.888-5.363-32.813-5.306-38.292S4194.144,1763.136,4188.28,1753.773Z" transform="translate(-4163.476 -1730.296)" fill="#dbdff0"/>
        <g id="Grupo_61496" data-name="Grupo 61496" transform="translate(47.826 38.003)">
          <path id="Trazado_121004" data-name="Trazado 121004" d="M4348.483,1846.288l-4.182,21.53-13.819-2.684,3.642-21.635Z" transform="translate(-4330.482 -1843.5)" fill="#616161"/>
          <path id="Trazado_121005" data-name="Trazado 121005" d="M4352.5,1854.379l-3.714,19.122-12.273-2.384,3.234-19.215Z" transform="translate(-4335.538 -1850.541)" fill="#e0cec7"/>
          <path id="Trazado_121006" data-name="Trazado 121006" d="M4384.541,1853.642l.26-1.342-4.962-.964-.455,1.3Z" transform="translate(-4371.467 -1850.068)" fill="#616161"/>
        </g>
        <g id="Grupo_61498" data-name="Grupo 61498" transform="translate(59.893 51.687)">
          <g id="Grupo_61497" data-name="Grupo 61497">
            <path id="Trazado_121007" data-name="Trazado 121007" d="M4409.394,1928.508s-2.475-.808-3.208-.343.145.8.145.8-.862-.351-1.2.294.707.99.707.99a.717.717,0,0,0-.813.664c-.091.758.841.849.841.849s-1.081.427-.4,1.116a4.241,4.241,0,0,0,3.064.993s.472-.115.508-.851a1.023,1.023,0,0,0,.775-1.421s.922-1.008.009-1.545C4409.818,1930.059,4410.791,1928.908,4409.394,1928.508Z" transform="translate(-4405.014 -1928.021)" fill="#db9c7c"/>
          </g>
        </g>
        <path id="Trazado_121008" data-name="Trazado 121008" d="M4041.824,2007.374a5.96,5.96,0,0,0,.52,3.9c.389.6.014,5.155-.021,5.724-.029.477-.458.883-.636.785s-.215-2.619-.483-3.432c-.226-.682-.426-.939-.548-.721a33.264,33.264,0,0,0,.534,5.088c.239,1.211-.061,3.764-.689,3.352s-2.73-6.08-2.575-7.972a24.857,24.857,0,0,1,.872-4.257Z" transform="translate(-4037.458 -1942.84)" fill="#eea886"/>
        <path id="Trazado_121009" data-name="Trazado 121009" d="M4049.448,1750.495s-4.994-.308-7.5,2.607-2.368,6.376-3.006,7.879-2.1,7.97-2.413,9.017-.63,6.935-1.086,11.671-.363,13.581-.363,13.581l4.778-.866s.192-8.431.313-13.319,4.1-13.526,5.6-17.307S4053.26,1752.866,4049.448,1750.495Z" transform="translate(-4035.073 -1727.541)" fill="#dbdff0"/>
      </g>
      <path id="Trazado_121010" data-name="Trazado 121010" d="M3470.069,2065.883h8.137l-2.491-5.166h-8.137Z" transform="translate(-3453.385 -1896.959)" fill="url(#linear-gradient-9)"/>
      <path id="Trazado_121011" data-name="Trazado 121011" d="M3446.552,2065.883h1.938l-2.49-5.166h-1.939Z" transform="translate(-3433.676 -1896.959)" fill="url(#linear-gradient-10)"/>
      <g id="Grupo_61518" data-name="Grupo 61518" transform="translate(241.181 90.418)">
        <path id="Trazado_121012" data-name="Trazado 121012" d="M4963.22,2073.308a39.241,39.241,0,0,0-17.784,0l4.692-24.035S4961.842,2061.692,4963.22,2073.308Z" transform="translate(-4933.162 -1977.786)" fill="#b3b7c4"/>
        <g id="Grupo_61500" data-name="Grupo 61500" transform="translate(2.177 133.495)">
          <path id="Trazado_121013" data-name="Trazado 121013" d="M4889.372,2435.462s-3.647,6.182-5.187,7.192c-2.09,1.371-.78,2.757.212,2.758s6.063.364,7.18-.9,1.671-5.067,2.71-6.061,1.99-4.66-.506-5.9C4891.043,2431.18,4889.372,2435.462,4889.372,2435.462Z" transform="translate(-4883.07 -2432.276)" fill="#2d2d30"/>
        </g>
        <g id="Grupo_61501" data-name="Grupo 61501" transform="translate(5.014 133.439)">
          <path id="Trazado_121014" data-name="Trazado 121014" d="M4905.424,2431.934s-3.966,7.762-4.686,8.832,1.356,1.068,2.642.56,4.623-5.657,4.985-6.647a5.563,5.563,0,0,0,.1-2.421Z" transform="translate(-4900.59 -2431.934)" fill="#eea886"/>
        </g>
        <g id="Grupo_61502" data-name="Grupo 61502" transform="translate(12.815 137.857)">
          <path id="Trazado_121015" data-name="Trazado 121015" d="M4950.253,2459.22l-.964,7.423-.512.022.16-5.34Z" transform="translate(-4948.777 -2459.22)" fill="#2d2d30"/>
        </g>
        <g id="Grupo_61503" data-name="Grupo 61503" transform="translate(37.364 126.213)">
          <path id="Trazado_121016" data-name="Trazado 121016" d="M5102.8,2391.739s-.874,7.125-1.882,8.665c-1.37,2.092.385,2.84,1.3,2.444s5.7-2.088,6.221-3.7-.492-5.313.064-6.64-.038-5.067-2.823-5.209C5102.621,2387.146,5102.8,2391.739,5102.8,2391.739Z" transform="translate(-5100.412 -2387.299)" fill="#2d2d30"/>
        </g>
        <g id="Grupo_61504" data-name="Grupo 61504" transform="translate(38.923 126.217)">
          <path id="Trazado_121017" data-name="Trazado 121017" d="M5110.827,2388.241s-.536,8.7-.768,9.968,1.669.438,2.645-.542,1.979-7.034,1.916-8.085a5.572,5.572,0,0,0-.876-2.26Z" transform="translate(-5110.04 -2387.323)" fill="#eea886"/>
        </g>
        <g id="Grupo_61505" data-name="Grupo 61505" transform="translate(45.182 129.41)">
          <path id="Trazado_121018" data-name="Trazado 121018" d="M5149.067,2407.045l2.082,7.19-.459.225-1.987-4.959Z" transform="translate(-5148.702 -2407.045)" fill="#2d2d30"/>
        </g>
        <g id="Grupo_61506" data-name="Grupo 61506" transform="translate(0 25.774)">
          <path id="Trazado_121019" data-name="Trazado 121019" d="M4874.861,2011.92a21.71,21.71,0,0,0-.025,2.786,38.3,38.3,0,0,1-1.307,5.379c-.159.44-.374.084-.433-.257-.035-.2.138-1.7.11-2.541-.023-.7-.141-1-.316-.83a14.522,14.522,0,0,0-1.311,3.958c-.108,1.2-1.171,3.73-1.649,3.169s-.405-5.7.263-7.44a24.331,24.331,0,0,1,1.994-3.763Z" transform="translate(-4869.622 -1972.254)" fill="#eea886"/>
          <path id="Trazado_121020" data-name="Trazado 121020" d="M4887.234,1807.579c.2-.554,4.969-8.208,6.11-10.645s2.145-4.676,2.681-5.629c.036-.063.093-.173.171-.32.373-.71,1.186-2.3,2-3.775q.085-.155.172-.308l.144-.587c.574-1.022.242-1.7.353-2.565a2.62,2.62,0,0,1,.258-.839.3.3,0,0,1,.017-.033,19.65,19.65,0,0,0,1.421-3.3c.573-2.33,3.318-12.668,3.318-12.668s-4.433,1.563-5.125,3.151c-1.048,2.41-2.279,6.041-2.616,7.163s-3.468,10.422-4.114,12.312a25.661,25.661,0,0,1-2.025,4.684c-.72,1.209-5.911,12.158-6.277,13.153C4883.729,1807.375,4887.038,1808.133,4887.234,1807.579Z" transform="translate(-4881.444 -1766.912)" fill="#dbdff0"/>
        </g>
        <g id="Grupo_61507" data-name="Grupo 61507" transform="translate(9.225 60.305)">
          <path id="Trazado_121021" data-name="Trazado 121021" d="M4941.9,1996.457c-.181.877-1.344,4.55-2.646,8.63h0c-1.187,3.72-2.49,7.778-3.271,10.368-.292.966-.511,1.728-.625,2.191-.749,3.066.094,7.876.366,11.9s-1.263,24.4-1.263,24.4c-1.021.477-7.58-.37-7.58-.37.75-1.431.982-27.064.574-28.63a23.779,23.779,0,0,1-.273-7.632,6.67,6.67,0,0,0,.134-1.367c.034-2.15-.409-5.7-.679-9.6-.34-4.906,1.567-17.1,1.839-18.192.025-.1.064-.241.115-.415.5-1.71,2.118-6.566,2.118-6.566a16.046,16.046,0,0,1,7.588-.776,5.641,5.641,0,0,1,4.451,3.818C4944.353,1988.64,4942.138,1995.318,4941.9,1996.457Z" transform="translate(-4926.6 -1980.205)" fill="#3b3b40"/>
        </g>
        <g id="Grupo_61508" data-name="Grupo 61508" transform="translate(20.746 56.915)">
          <path id="Trazado_121022" data-name="Trazado 121022" d="M5020.528,2028.564l-5.254,4.256c-.562-2.725-12.635-24.274-13.458-26.386a30.862,30.862,0,0,1-1.7-7.7c0-.268-.02-.719-.058-1.305-.145-2.272-.562-6.557-1.158-9.892-.111-.622-.229-1.211-.352-1.748-.661-2.876-.775-12.7-.783-18.483,0-2.572.014-4.342.014-4.342s.057-.046.165-.126c1.242-.94,9.211-6.672,11.99-1.314a16.047,16.047,0,0,1,1.5,4.52c.892,4.856.017,10.326-.7,15.309-.615,4.263-1.793,10.288-2.133,14.759-.187,2.459-.119,4.449.438,5.417,1.567,2.725,3.1,5.032,6.268,14.648C5016.342,2019.305,5020.528,2028.564,5020.528,2028.564Z" transform="translate(-4997.767 -1959.266)" fill="#3b3b40"/>
        </g>
        <g id="Grupo_61509" data-name="Grupo 61509" transform="translate(18.675)">
          <path id="Trazado_121023" data-name="Trazado 121023" d="M4985.1,1618.723s-1.733-11.212,7.552-11.005,9.163,5.751,9,11.253-3.724,5.089.289,12.743-3.475,7.654-3.475,7.654l-5.811-7.985Z" transform="translate(-4984.971 -1607.715)" fill="#2d3133"/>
        </g>
        <g id="Grupo_61510" data-name="Grupo 61510" transform="translate(18.782 0.948)">
          <path id="Trazado_121024" data-name="Trazado 121024" d="M4992.191,1613.7s-6.289.993-6.537,9.93,1.7,10.84,7.2,8.978,7.24-11.212,7.364-12.661S5000.672,1612.624,4992.191,1613.7Z" transform="translate(-4985.633 -1613.569)" fill="#eea886"/>
        </g>
        <g id="Grupo_61511" data-name="Grupo 61511" transform="translate(11.22 22.789)">
          <path id="Trazado_121025" data-name="Trazado 121025" d="M4964.087,1757.852c.024,3.077-3.513,10.432-4.058,12.7s-1.409,3-.682,5.905,2.98,12.741,2.889,13.6-13.756,5.2-23.312,3.455c0,0,3.72-13.882,3.993-15.472s-.332-7.55-.468-9.231-1.837-5.3-1.78-6.982c.059-1.716.9-3.2,2.08-5.031.366-.568.75-1.147,1.133-1.71a32.454,32.454,0,0,1,3.111-4.071,9.855,9.855,0,0,1,1.252-1l0,0a5.769,5.769,0,0,1,1.287-.679l5.406-.863s3.369,1.219,5.307,1.672C4960.248,1750.151,4964.03,1750.7,4964.087,1757.852Z" transform="translate(-4938.924 -1748.479)" fill="#e55353"/>
        </g>
        <g id="Grupo_61512" data-name="Grupo 61512" transform="translate(14.519 24.332)">
          <path id="Trazado_121026" data-name="Trazado 121026" d="M4965.327,1758.007l-3.133,4.938-2.891,4.557c.006-.025.2-.714.525-2.713.063-.379.129-.806.2-1.284a3.663,3.663,0,0,1,.091-.42h0c1.238-2.853,5.064-5,5.2-5.076Z" transform="translate(-4959.304 -1758.007)" fill="#e55353"/>
        </g>
        <g id="Grupo_61513" data-name="Grupo 61513" transform="translate(21.458 15.829)">
          <path id="Trazado_121027" data-name="Trazado 121027" d="M5010.241,1705.618c-.544,1.029-1.121,7.419-1.121,7.419s-7.692,2.907-6.9,1.263a6.292,6.292,0,0,0,.47-2.55,12.439,12.439,0,0,0-.086-1.552c-.02-.168-.035-.265-.035-.265S5010.787,1704.588,5010.241,1705.618Z" transform="translate(-5002.159 -1705.486)" fill="#eea886"/>
        </g>
        <g id="Grupo_61514" data-name="Grupo 61514" transform="translate(18.803 0.797)">
          <path id="Trazado_121028" data-name="Trazado 121028" d="M4989.733,1619.334s3.228,5.254,6.165,7.323,1.448,3.724,1.448,3.724,7.665-16.135.377-17.252-11.755-1.2-11.961,9.722C4985.762,1622.85,4989.072,1619.251,4989.733,1619.334Z" transform="translate(-4985.762 -1612.64)" fill="#2d3133"/>
        </g>
        <g id="Grupo_61515" data-name="Grupo 61515" transform="translate(21.898 19.883)">
          <path id="Trazado_121029" data-name="Trazado 121029" d="M5009.265,1730.525c-1.181,1.742-4.3,2.21-4.3,2.21h0a12.441,12.441,0,0,0-.086-1.552A8.784,8.784,0,0,0,5009.265,1730.525Z" transform="translate(-5004.88 -1730.525)" fill="#a77860"/>
        </g>
        <path id="Trazado_121030" data-name="Trazado 121030" d="M4962.856,1763.061h0a6.429,6.429,0,0,0-.3,1.738l1.133-1.71s2.023-2.9,2.717-3.655a11.492,11.492,0,0,1,1.646-1.415S4964.065,1759.931,4962.856,1763.061Z" transform="translate(-4947.507 -1733.685)" fill="#dbdff0"/>
        <path id="Trazado_121031" data-name="Trazado 121031" d="M5042.286,1903.582a41.231,41.231,0,0,1-4.386,1.245c-2.111.448.072,2.977.072,2.977s3.657-.338,5.416-.51C5044.238,1907.212,5042.286,1903.582,5042.286,1903.582Z" transform="translate(-5009.885 -1855.682)" fill="#eea886"/>
        <path id="Trazado_121032" data-name="Trazado 121032" d="M5049.893,1768.265s4.937-1.936,6.4-2.049c0,0-.993-7.928-5.842-7.088S5049.893,1768.265,5049.893,1768.265Z" transform="translate(-5019.237 -1734.563)" fill="#e55353"/>
        <path id="Trazado_121033" data-name="Trazado 121033" d="M4990.75,1749.25s-3.625,5.573-2.4,6.06,7.869-.65,10.691-5.943C4999.044,1749.367,4994.822,1747.2,4990.75,1749.25Z" transform="translate(-4968.917 -1725.598)" fill="#eea886"/>
        <path id="Trazado_121034" data-name="Trazado 121034" d="M5022.559,1750.736s-3.843,6.377-4.349,18.5,3.8,50.86,3.53,55.586l11.616-5.019s-4.378-31.674-5.831-37.715,3.137-13.984,3.647-22.858c0,0-.323-6.088-3.854-7.088S5022.559,1750.736,5022.559,1750.736Z" transform="translate(-4994.119 -1727.581)" fill="#dbdff0"/>
        <g id="Grupo_61516" data-name="Grupo 61516" transform="translate(20.669 24.566)">
          <path id="Trazado_121035" data-name="Trazado 121035" d="M5012.821,1764.451s-.869-5.857-5.161-4.892c-4.124.928-.259,8.607.044,9.516s3.357,8.335,3.622,9.309c.837,3.077.053,3.149-1.208,3.875-3.719,2.142-11.367,2-12.249,2.59a1.363,1.363,0,0,0,.652,2.485c1.928.083,12.945-.954,14.482-1.1,1.49-.146,4.457-.27,3.678-5.568C5016.158,1777.094,5012.821,1764.451,5012.821,1764.451Z" transform="translate(-4997.29 -1759.451)" fill="#eea886"/>
        </g>
        <path id="Trazado_121036" data-name="Trazado 121036" d="M4933.2,1753.81a33.929,33.929,0,0,0-4.3,14.816c-.213,8.034-7.694,42.267-6.907,59.8l-1.741-1.686a2.687,2.687,0,0,1-.815-2.09c.3-5.038,1.63-24.271,4.919-34.81,3.806-12.2.607-20.282-.033-22.459s1.4-5.075,2.091-6.111S4928.739,1755.471,4933.2,1753.81Z" transform="translate(-4911.368 -1730.158)" fill="#dbdff0"/>
        <g id="Grupo_61517" data-name="Grupo 61517" transform="translate(16.288 38.148)">
          <path id="Trazado_121037" data-name="Trazado 121037" d="M4984.673,1843.347l3.441,21.661-13.9,2.209-3.986-21.575Z" transform="translate(-4970.227 -1843.347)" fill="#616161"/>
          <path id="Trazado_121038" data-name="Trazado 121038" d="M4989.236,1851.623l3.057,19.238-12.347,1.962-3.54-19.161Z" transform="translate(-4975.406 -1850.284)" fill="#e0cec7"/>
          <path id="Trazado_121039" data-name="Trazado 121039" d="M5005.566,1851.337l-.214-1.35-4.992.793.02,1.381Z" transform="translate(-4995.482 -1848.912)" fill="#616161"/>
        </g>
        <path id="Trazado_121040" data-name="Trazado 121040" d="M4979,1900.2s-2.3.385-2.512.35-1.122-1.522-2.173-1.789a21.519,21.519,0,0,1-2.691-.675c-.324-.2-.413.829.6,1.251s1.264.986-.628,1.365c-1.047.21-4.958-.227-4.634.434.191.388,3.961.665,3.961.665s-4.068-.018-4.206.228c-.272.485,3.808.656,3.978.64,0,0-3.5.2-3.527.514-.037.39,3.5.224,3.472.288,0,0-2.78.192-2.751.428.036.311,2.482.349,2.956.293s5.266-.6,6.068-.761,2.161-.254,2.161-.254Z" transform="translate(-4950.982 -1851.056)" fill="#eea886"/>
        <path id="Trazado_121041" data-name="Trazado 121041" d="M5040.843,1764.293s3.944,14.925,3.616,18.6-14.53,4.361-14.53,4.361v-3.867s7.434-1.65,8.829-3.357c.727-.888-4.127-12.235-4.127-12.235s-4.342-7.1-.226-8.906S5040.29,1762.136,5040.843,1764.293Z" transform="translate(-5003.975 -1734.094)" fill="#dbdff0"/>
      </g>
      <g id="Grupo_61552" data-name="Grupo 61552" transform="translate(4.794 95.262)">
        <g id="Grupo_61520" data-name="Grupo 61520" transform="translate(24.527 32.746)">
          <g id="Grupo_61519" data-name="Grupo 61519">
            <path id="Trazado_121042" data-name="Trazado 121042" d="M3572.47,1872.958a15.464,15.464,0,0,1-4.554,1.38s-2.093-3.07-3.319-5.368c-2.922-5.481-3.785-8.047-3.535-10.151.448-3.783,7.888-18.917,7.888-18.917l8.258,3.187-6.322,11.236c-.59,1.151-1.352,3.023-2.138,4.545-1.031,2,.21,6.561.945,8.467A28.289,28.289,0,0,0,3572.47,1872.958Z" transform="translate(-3561.021 -1839.902)" fill="#eea886"/>
          </g>
        </g>
        <g id="Grupo_61522" data-name="Grupo 61522" transform="translate(0 124.758)">
          <g id="Grupo_61521" data-name="Grupo 61521">
            <path id="Trazado_121043" data-name="Trazado 121043" d="M3419.692,2411.617a5.47,5.47,0,0,0,.7,3.2c.947,1.829,5.194,6.49,4.9,8.4s-5.2,1.688-8.28-1.682-7.657-6.869-7.489-7.678,4.789-5.013,6.4-5.572S3419.692,2411.617,3419.692,2411.617Z" transform="translate(-3409.525 -2408.232)" fill="#353a3d"/>
          </g>
        </g>
        <g id="Grupo_61524" data-name="Grupo 61524" transform="translate(6.224 122.803)">
          <g id="Grupo_61523" data-name="Grupo 61523">
            <path id="Trazado_121044" data-name="Trazado 121044" d="M3453.608,2399.693l-1.735,1.87-3.9-3.327,1.794-2.08Z" transform="translate(-3447.971 -2396.156)" fill="#eea886"/>
          </g>
        </g>
        <g id="Grupo_61525" data-name="Grupo 61525" transform="translate(6.503 95.654)">
          <path id="Trazado_121045" data-name="Trazado 121045" d="M3449.694,2255.614c1.9-2.158,17.267-17.878,17.267-17.878,7.835-9.031,10.9-9.271,10.9-9.271a45.532,45.532,0,0,1,4.667.409c.386.053,1.644.04,2.048.106,4.989.809,5.128.239,3.305,4.327-3,6.72-33.078,26.111-33.078,26.111Z" transform="translate(-3449.694 -2228.465)" fill="#248c9e"/>
        </g>
        <g id="Grupo_61527" data-name="Grupo 61527" transform="translate(71.281 130.927)">
          <g id="Grupo_61526" data-name="Grupo 61526">
            <path id="Trazado_121046" data-name="Trazado 121046" d="M3855.215,2446.409a20.932,20.932,0,0,0,4.635,1.371c2.171.3,7.4-.566,8.887.86s-1.716,5.555-6.534,6.17-10.987,1.635-11.588.993-1.1-6.419-.6-8.158S3855.215,2446.409,3855.215,2446.409Z" transform="translate(-3849.809 -2446.341)" fill="#353a3d"/>
          </g>
        </g>
        <g id="Grupo_61529" data-name="Grupo 61529" transform="translate(70.699 128.442)">
          <g id="Grupo_61528" data-name="Grupo 61528">
            <path id="Trazado_121047" data-name="Trazado 121047" d="M3851.167,2430.988l1.034,2.553-5.2,1.236-.785-2.734Z" transform="translate(-3846.213 -2430.988)" fill="#eea886"/>
          </g>
        </g>
        <g id="Grupo_61530" data-name="Grupo 61530" transform="translate(55.374 94.461)">
          <path id="Trazado_121048" data-name="Trazado 121048" d="M3764.026,2222.8s-2.117-8.075,2.855,10.949c0,0,5.241,20.3,5.818,21.456.137.274-6.571,1.5-6.694,1.452-1.167-.467-11.61-26.476-14.2-31.279C3749.516,2221.151,3764.026,2222.8,3764.026,2222.8Z" transform="translate(-3751.557 -2221.1)" fill="#248c9e"/>
        </g>
        <g id="Grupo_61532" data-name="Grupo 61532" transform="translate(42.059 70.602)">
          <g id="Grupo_61531" data-name="Grupo 61531">
            <path id="Trazado_121049" data-name="Trazado 121049" d="M3695.1,2099.289l-10.438,6.005s-4.107-5.044-6.828-7.1c-.28-.209-.559-.421-.843-.642-.4-.3-.8-.615-1.205-.929-.291-.228-.587-.46-.874-.693a40.858,40.858,0,0,1-4.871-4.374c-2.957-3.414,3.516-25,11.69-15.372C3681.729,2076.181,3692.687,2086.469,3695.1,2099.289Z" transform="translate(-3669.311 -2073.728)" fill="#248c9e"/>
          </g>
        </g>
        <g id="Grupo_61534" data-name="Grupo 61534" transform="translate(30.875 70.496)">
          <g id="Grupo_61533" data-name="Grupo 61533">
            <path id="Trazado_121050" data-name="Trazado 121050" d="M3623.182,2073.07s-5.144,23.635-10.214,31.675c0,0-8.61-2.9-12.565-4.453,0,0-.384-17.081,0-21.544C3600.757,2074.584,3623.182,2073.07,3623.182,2073.07Z" transform="translate(-3600.232 -2073.07)" fill="#248c9e"/>
          </g>
        </g>
        <g id="Grupo_61536" data-name="Grupo 61536" transform="translate(30.011 22.833)">
          <g id="Grupo_61535" data-name="Grupo 61535">
            <path id="Trazado_121051" data-name="Trazado 121051" d="M3594.892,1834.625s2.169-21.238.373-31.12c-1.195-6.569.534-17.23,4.472-22.982a14.026,14.026,0,0,1,1.484-1.849s7.952,2.105,8.747,2.661a16.2,16.2,0,0,1,2.062,2.173h0c2.263,2.775,5.6,7.8,5.929,12.674.235,3.547.431,6.805.652,10.166.066,1.022.137,2.054.21,3.108.178,2.529.381,5.177.636,8.1.141,1.624,1.235,6.776,1.956,11.527Z" transform="translate(-3594.892 -1778.674)" fill="#2aa3b8"/>
          </g>
        </g>
        <path id="Trazado_121052" data-name="Trazado 121052" d="M3705.974,2151.707c-.4-.3-.8-.615-1.205-.93-.291-.228-.587-.46-.874-.693a114.562,114.562,0,0,0,3.576-11.738A37.056,37.056,0,0,1,3705.974,2151.707Z" transform="translate(-3656.237 -2057.283)" fill="#196370"/>
        <path id="Trazado_121053" data-name="Trazado 121053" d="M3714.5,1915.3s-4.627,7.033-5.448-10.336l5.238,7.228C3714.356,1913.218,3714.426,1914.25,3714.5,1915.3Z" transform="translate(-3660.559 -1861.688)" fill="#1d6f7d"/>
        <g id="Grupo_61538" data-name="Grupo 61538" transform="translate(36.129 14.973)">
          <g id="Grupo_61537" data-name="Grupo 61537">
            <path id="Trazado_121054" data-name="Trazado 121054" d="M3632.894,1737.982s.829-4.593-.137-7.264,7.912,4.5,7.912,4.5,0,.372.015.927c.012.434.035.98.075,1.553a11.752,11.752,0,0,0,.5,2.968C3641.849,1742.171,3632.894,1737.982,3632.894,1737.982Z" transform="translate(-3632.684 -1730.123)" fill="#eea886"/>
          </g>
        </g>
        <g id="Grupo_61539" data-name="Grupo 61539" transform="translate(35.487 2.395)">
          <path id="Trazado_121055" data-name="Trazado 121055" d="M3642.406,1656.773s1.871,3.524.929,4.064c-.779.446.883,3.9,1.1,4.468s-1.412.963-1.759,1.323-1.4,4.813-2.74,4.938-7.359-2.012-8.99-3.731-2.928-9.443-1.81-12.689S3639.1,1650.615,3642.406,1656.773Z" transform="translate(-3628.715 -1652.432)" fill="#eea886"/>
        </g>
        <g id="Grupo_61540" data-name="Grupo 61540" transform="translate(33.784)">
          <path id="Trazado_121056" data-name="Trazado 121056" d="M3633.967,1645.138a5.4,5.4,0,0,0-1.534-6.617c-3.494-2.837-10,2.058-10.734,2.242s-5.067,1.567-2.891,8.016c1.974,5.851,2.228,6.511,2.228,6.511s1.2-3.889,1.962-4.435c1.192-.853,3.791-.629,3.791-.629s-1.218-3.3.721-3.751S3632.013,1644.4,3633.967,1645.138Z" transform="translate(-3618.202 -1637.639)" fill="#3b3b40"/>
        </g>
        <g id="Grupo_61541" data-name="Grupo 61541" transform="translate(37.396 9.075)">
          <path id="Trazado_121057" data-name="Trazado 121057" d="M3643.433,1695.307c-.168-.452-.707-2.4-2.378-1.267s1,4.8,1.295,4.85S3644.845,1699.114,3643.433,1695.307Z" transform="translate(-3640.509 -1693.693)" fill="#eea886"/>
        </g>
        <path id="Trazado_121058" data-name="Trazado 121058" d="M3656.1,1757.636c-2.751-.74-5.11-3.726-5.11-3.726.751.734,5.036,2.172,5.036,2.172C3656.041,1756.516,3656.065,1757.063,3656.1,1757.636Z" transform="translate(-3611.9 -1735.087)" fill="#a77860"/>
        <g id="Grupo_61542" data-name="Grupo 61542" transform="translate(55.637 44.55)">
          <path id="Trazado_121059" data-name="Trazado 121059" d="M3772.462,1915.8l-4.48,23.065-14.8-2.876,3.9-23.177Z" transform="translate(-3753.178 -1912.811)" fill="#616161"/>
          <path id="Trazado_121060" data-name="Trazado 121060" d="M3776.768,1924.465l-3.979,20.484-13.148-2.554,3.465-20.584Z" transform="translate(-3758.595 -1920.355)" fill="#e0cec7"/>
          <path id="Trazado_121061" data-name="Trazado 121061" d="M3811.09,1923.676l.279-1.438-5.315-1.032-.487,1.4Z" transform="translate(-3797.085 -1919.846)" fill="#616161"/>
        </g>
        <g id="Grupo_61547" data-name="Grupo 61547" transform="translate(64.766 56.393)">
          <g id="Grupo_61546" data-name="Grupo 61546">
            <g id="Grupo_61545" data-name="Grupo 61545">
              <g id="Grupo_61544" data-name="Grupo 61544">
                <g id="Grupo_61543" data-name="Grupo 61543">
                  <path id="Trazado_121062" data-name="Trazado 121062" d="M3817.991,1993.3a3.213,3.213,0,0,1-.995.253s-.621-.084-1.067-.116a2.942,2.942,0,0,0-.344-.011,5.885,5.885,0,0,1-1.879-.015,39.373,39.373,0,0,1-4.138-1.85l.394-2.052.094-1.974s4.844-1.646,5.623-1.568a2.068,2.068,0,0,1,.221.034,7.538,7.538,0,0,1,1.421.608c.123.041,1.317.521,1.435.888a1.257,1.257,0,0,1-.161,1.212,3.007,3.007,0,0,1-.013,1.654,1.869,1.869,0,0,1-.3,1.623S3818.462,1992.954,3817.991,1993.3Z" transform="translate(-3809.568 -1985.964)" fill="#eea886"/>
                </g>
              </g>
            </g>
          </g>
        </g>
        <g id="Grupo_61549" data-name="Grupo 61549" transform="translate(37.722 35.913)">
          <g id="Grupo_61548" data-name="Grupo 61548">
            <path id="Trazado_121063" data-name="Trazado 121063" d="M3671.17,1881.062a15.469,15.469,0,0,1-1.6,4.48s-3.713-.147-6.288-.532c-6.143-.918-8.718-1.753-10.26-3.207-2.771-2.613-10.5-17.6-10.5-17.6l7.479-4.735,5.259,11.771c.573,1.16,1.623,2.886,2.377,4.425.988,2.017,5.395,3.739,7.364,4.284A28.278,28.278,0,0,0,3671.17,1881.062Z" transform="translate(-3642.522 -1859.464)" fill="#eea886"/>
          </g>
        </g>
        <g id="Grupo_61551" data-name="Grupo 61551" transform="translate(36.077 31.533)">
          <g id="Grupo_61550" data-name="Grupo 61550">
            <path id="Trazado_121064" data-name="Trazado 121064" d="M3645.218,1843.19l-8.5,4.421s-1.686-3.262-2.179-4.322c-1.416-3.041-3.605-7.637-.852-9.579,5.943-4.19,8.5,2.763,9.957,6.576A20.327,20.327,0,0,0,3645.218,1843.19Z" transform="translate(-3632.365 -1832.411)" fill="#2aa3b8"/>
          </g>
        </g>
      </g>
      <g id="Grupo_61553" data-name="Grupo 61553" transform="translate(116.89 37.054)">
        <rect id="Rectángulo_7487" data-name="Rectángulo 7487" width="7.202" height="30.287" transform="translate(11.542)" fill="url(#linear-gradient-11)"/>
        <rect id="Rectángulo_7488" data-name="Rectángulo 7488" width="7.202" height="30.287" transform="translate(30.287 11.542) rotate(90)" fill="url(#linear-gradient-12)"/>
      </g>
      <g id="Grupo_61562" data-name="Grupo 61562" transform="translate(2.067 61.259)">
        <g id="Grupo_61555" data-name="Grupo 61555">
          <g id="Grupo_61554" data-name="Grupo 61554">
            <path id="Trazado_121065" data-name="Trazado 121065" d="M3417.225,1429.267a17.185,17.185,0,1,0-14.7,31.068c.349.165.7.318,1.057.458a17.185,17.185,0,0,0,13.643-31.526Zm4.3,21.044a12.87,12.87,0,0,1-16.364,6.479q-.4-.157-.793-.343a12.884,12.884,0,1,1,17.157-6.136Z" transform="translate(-3392.686 -1427.612)" fill="#e0e0e0"/>
          </g>
        </g>
        <g id="Grupo_61557" data-name="Grupo 61557" transform="translate(0 5.403)">
          <g id="Grupo_61556" data-name="Grupo 61556">
            <path id="Trazado_121066" data-name="Trazado 121066" d="M3398.463,1478.75l-3.81,2a17.206,17.206,0,0,1,2.709-19.764l3.131,2.95a12.9,12.9,0,0,0-2.031,14.818Z" transform="translate(-3392.686 -1460.982)" fill="#2d5bad"/>
          </g>
        </g>
        <g id="Grupo_61559" data-name="Grupo 61559" transform="translate(1.967 23.17)">
          <g id="Grupo_61558" data-name="Grupo 61558">
            <path id="Trazado_121067" data-name="Trazado 121067" d="M3415.339,1576.737l-1.575,4c-.354-.14-.708-.293-1.056-.458a17.109,17.109,0,0,1-7.873-7.556l3.81-2a12.828,12.828,0,0,0,5.9,5.665Q3414.94,1576.579,3415.339,1576.737Z" transform="translate(-3404.835 -1570.729)" fill="#5d96ff"/>
          </g>
        </g>
        <g id="Grupo_61561" data-name="Grupo 61561" transform="translate(10.896 29.178)">
          <g id="Grupo_61560" data-name="Grupo 61560">
            <path id="Trazado_121068" data-name="Trazado 121068" d="M3464.9,1612.981a17.089,17.089,0,0,1-4.909-1.141l1.575-4a12.8,12.8,0,0,0,3.68.856Z" transform="translate(-3459.987 -1607.837)" fill="#5d96ff"/>
          </g>
        </g>
      </g>
    </g>
  </g>
</svg>
