<svg id="Grupo_63184" data-name="Grupo 63184" xmlns="http://www.w3.org/2000/svg" width="204.626" height="196.461" viewBox="0 0 204.626 196.461">
  <path id="Trazado_121901" data-name="Trazado 121901" d="M137.576,4420.136a3.234,3.234,0,0,1-3.233-3.234,75.973,75.973,0,0,1,13.138-42.71,80.539,80.539,0,0,1,33.947-28.347,3.233,3.233,0,1,1,2.638,5.9c-26.277,11.742-43.256,37.315-43.256,65.153A3.234,3.234,0,0,1,137.576,4420.136Z" transform="translate(-112.554 -4300.692)" fill="#f04f4c"/>
  <path id="Trazado_121902" data-name="Trazado 121902" d="M223.427,4527.121a80.952,80.952,0,0,1-42.058-11.746,3.137,3.137,0,1,1,3.259-5.362,74.892,74.892,0,0,0,77.573.015,3.137,3.137,0,1,1,3.257,5.363A80.949,80.949,0,0,1,223.427,4527.121Z" transform="translate(-120.872 -4330.66)" fill="#7eb9c7"/>
  <path id="Trazado_121903" data-name="Trazado 121903" d="M318.692,4419.854a3.234,3.234,0,0,1-3.234-3.234c0-27.365-15.827-51.982-41.3-64.247a3.233,3.233,0,1,1,2.8-5.826,80.455,80.455,0,0,1,32.461,28.313,76,76,0,0,1,12.506,41.76A3.233,3.233,0,0,1,318.692,4419.854Z" transform="translate(-137.768 -4300.813)" fill="#fdc345"/>
  <g id="Grupo_63169" data-name="Grupo 63169" transform="translate(0 126.747)">
    <g id="Grupo_63166" data-name="Grupo 63166" transform="translate(13.249 6)">
      <g id="Grupo_63165" data-name="Grupo 63165">
        <g id="Grupo_63164" data-name="Grupo 63164">
          <path id="Trazado_121904" data-name="Trazado 121904" d="M138.483,4473.31c5.447.3,9.919-4.63,9.643-10.631-.236-5.141-4.027-9.318-8.692-9.578-5.45-.3-9.926,4.631-9.647,10.636C130.026,4468.877,133.818,4473.052,138.483,4473.31Z" transform="translate(-124.968 -4453.088)" fill="#c7ddeb"/>
          <path id="Trazado_121905" data-name="Trazado 121905" d="M154.759,4510.282c2.044,0,3.566-2.242,3.165-4.641-1.7-10.2-8.658-19.323-16.984-19.323s-15.28,9.124-16.983,19.323c-.4,2.4,1.122,4.641,3.166,4.641Z" transform="translate(-123.894 -4459.161)" fill="#c7ddeb"/>
        </g>
      </g>
    </g>
    <g id="Grupo_63168" data-name="Grupo 63168">
      <g id="Grupo_63167" data-name="Grupo 63167">
        <path id="Trazado_121906" data-name="Trazado 121906" d="M134.089,4476.488c-.257,0-.514-.006-.772-.02h0a15.406,15.406,0,1,1,.772.02Zm-.562-4.2a11.189,11.189,0,0,0,11.752-11.76,11.272,11.272,0,0,0-10.587-10.586,11.189,11.189,0,0,0-11.758,11.763,11.275,11.275,0,0,0,10.593,10.583Z" transform="translate(-109.702 -4445.746)" fill="#3d4451"/>
        <path id="Trazado_121907" data-name="Trazado 121907" d="M151.495,4511.368H114.139a6.464,6.464,0,0,1-6.33-7.743c2.677-13.4,13.427-23.507,25.007-23.507s22.332,10.106,25.009,23.507a6.465,6.465,0,0,1-6.331,7.743ZM132.816,4484.3c-10.567,0-18.927,10.242-20.9,20.145a2.3,2.3,0,0,0,.475,1.911,2.236,2.236,0,0,0,1.753.829h37.355a2.236,2.236,0,0,0,1.753-.829,2.292,2.292,0,0,0,.475-1.911C151.746,4494.542,143.385,4484.3,132.816,4484.3Z" transform="translate(-107.682 -4452.027)" fill="#3d4451"/>
      </g>
    </g>
  </g>
  <g id="Grupo_63175" data-name="Grupo 63175" transform="translate(154.356 126.747)">
    <g id="Grupo_63172" data-name="Grupo 63172" transform="translate(13.249 6)">
      <g id="Grupo_63171" data-name="Grupo 63171">
        <g id="Grupo_63170" data-name="Grupo 63170">
          <path id="Trazado_121908" data-name="Trazado 121908" d="M327.354,4473.31c5.446.3,9.918-4.63,9.643-10.631-.236-5.141-4.027-9.318-8.692-9.578-5.45-.3-9.926,4.631-9.647,10.636C318.9,4468.877,322.689,4473.052,327.354,4473.31Z" transform="translate(-313.839 -4453.088)" fill="#c7ddeb"/>
          <path id="Trazado_121909" data-name="Trazado 121909" d="M343.629,4510.282c2.044,0,3.566-2.242,3.166-4.641-1.7-10.2-8.659-19.323-16.984-19.323s-15.28,9.124-16.982,19.323c-.4,2.4,1.121,4.641,3.165,4.641Z" transform="translate(-312.764 -4459.161)" fill="#c7ddeb"/>
        </g>
      </g>
    </g>
    <g id="Grupo_63174" data-name="Grupo 63174">
      <g id="Grupo_63173" data-name="Grupo 63173">
        <path id="Trazado_121910" data-name="Trazado 121910" d="M322.959,4476.488q-.385,0-.772-.02h0a15.4,15.4,0,1,1,.772.02Zm-.562-4.2a11.189,11.189,0,0,0,11.752-11.76,11.271,11.271,0,0,0-10.587-10.586,11.189,11.189,0,0,0-11.757,11.763,11.274,11.274,0,0,0,10.592,10.583Z" transform="translate(-298.573 -4445.746)" fill="#3d4451"/>
        <path id="Trazado_121911" data-name="Trazado 121911" d="M340.365,4511.368H303.01a6.465,6.465,0,0,1-6.331-7.743c2.677-13.4,13.427-23.507,25.007-23.507s22.332,10.106,25.009,23.507a6.465,6.465,0,0,1-6.331,7.743ZM321.686,4484.3c-10.567,0-18.927,10.242-20.9,20.145a2.3,2.3,0,0,0,.475,1.911,2.237,2.237,0,0,0,1.754.829h37.355a2.233,2.233,0,0,0,1.753-.829,2.3,2.3,0,0,0,.476-1.911C340.616,4494.542,332.255,4484.3,321.686,4484.3Z" transform="translate(-296.552 -4452.027)" fill="#3d4451"/>
      </g>
    </g>
  </g>
  <g id="Grupo_63181" data-name="Grupo 63181" transform="translate(77.387 0)">
    <g id="Grupo_63178" data-name="Grupo 63178" transform="translate(13.249 5.999)">
      <g id="Grupo_63177" data-name="Grupo 63177">
        <g id="Grupo_63176" data-name="Grupo 63176">
          <path id="Trazado_121912" data-name="Trazado 121912" d="M233.174,4318.222c5.447.3,9.919-4.629,9.643-10.632-.236-5.141-4.027-9.317-8.692-9.577-5.45-.3-9.926,4.63-9.647,10.635C224.718,4313.789,228.509,4317.963,233.174,4318.222Z" transform="translate(-219.66 -4298)" fill="#c7ddeb"/>
          <path id="Trazado_121913" data-name="Trazado 121913" d="M249.45,4355.193c2.044,0,3.566-2.241,3.166-4.64-1.7-10.2-8.659-19.323-16.984-19.323s-15.28,9.124-16.982,19.323c-.4,2.4,1.121,4.64,3.165,4.64Z" transform="translate(-218.585 -4304.072)" fill="#c7ddeb"/>
        </g>
      </g>
    </g>
    <g id="Grupo_63180" data-name="Grupo 63180">
      <g id="Grupo_63179" data-name="Grupo 63179">
        <path id="Trazado_121914" data-name="Trazado 121914" d="M228.78,4321.4c-.257,0-.514-.006-.772-.019h0a15.451,15.451,0,1,1,.772.019Zm-.562-4.2a11.188,11.188,0,0,0,11.752-11.759,11.272,11.272,0,0,0-10.587-10.587,11.19,11.19,0,0,0-11.758,11.764,11.275,11.275,0,0,0,10.593,10.582Z" transform="translate(-204.394 -4290.659)" fill="#3d4451"/>
        <path id="Trazado_121915" data-name="Trazado 121915" d="M246.186,4356.279H208.831a6.464,6.464,0,0,1-6.33-7.744c2.677-13.4,13.427-23.508,25.007-23.508s22.332,10.106,25.009,23.508a6.465,6.465,0,0,1-6.331,7.744Zm-18.678-27.068c-10.567,0-18.927,10.242-20.9,20.144a2.3,2.3,0,0,0,.475,1.911,2.235,2.235,0,0,0,1.754.83h37.355a2.235,2.235,0,0,0,1.753-.83,2.29,2.29,0,0,0,.475-1.911C246.437,4339.454,238.076,4329.211,227.507,4329.211Z" transform="translate(-202.373 -4296.939)" fill="#3d4451"/>
      </g>
    </g>
  </g>
  <g id="Grupo_63183" data-name="Grupo 63183" transform="translate(39.02 85.77)">
    <g id="Grupo_63182" data-name="Grupo 63182">
      <path id="Trazado_121916" data-name="Trazado 121916" d="M267.387,4418.776l16.2,20.169,12.938-11.132a6.961,6.961,0,0,0,1.029-9.453L287.085,4404.4Z" transform="translate(-175.886 -4397.214)" fill="#7eb9c7"/>
      <path id="Trazado_121917" data-name="Trazado 121917" d="M190.753,4418.156l-14.641,23.425-16.237-10.014a6.388,6.388,0,0,1-1.99-8.94l11.307-17.248Z" transform="translate(-155.685 -4397.393)" fill="#7eb9c7"/>
      <path id="Trazado_121918" data-name="Trazado 121918" d="M261.087,4446.047a1.458,1.458,0,0,1-.915-.322l-9.4-7.537q-6.658-5.334-13.309-10.678c-1.054.4-2.13.839-3.173,1.26a70.237,70.237,0,0,1-9.627,3.352,6.235,6.235,0,0,1-3.005.146,7.079,7.079,0,0,1-4.416-4.649,3.2,3.2,0,0,1,1.113-3.3l11.931-9.647a1.478,1.478,0,0,1,.311-.192,9.4,9.4,0,0,1,6.954-.361l10.087,3.41,5.029-2.775a1.464,1.464,0,0,1,1.855.374l16.107,20.351a1.465,1.465,0,0,1-.125,1.957l-8.392,8.2A1.46,1.46,0,0,1,261.087,4446.047Zm-23.461-21.585c.047,0,.094,0,.143.005a2.25,2.25,0,0,1,1.27.558q6.773,5.448,13.561,10.878l8.392,6.727,6.521-6.371-14.519-18.345-4.508,2.488a1.462,1.462,0,0,1-1.177.1l-10.7-3.616a6.487,6.487,0,0,0-4.635.178l-11.783,9.528c-.093.075-.152.123-.093.392a4.329,4.329,0,0,0,2.256,2.438,3.757,3.757,0,0,0,1.617-.149,67.9,67.9,0,0,0,9.219-3.222c1.174-.473,2.386-.962,3.583-1.416A2.333,2.333,0,0,1,237.625,4424.462Z" transform="translate(-166.706 -4398.898)" fill="#3d4451"/>
      <path id="Trazado_121919" data-name="Trazado 121919" d="M194.5,4446.906l-10.772-9.5,14.055-22.361,4.247,1.788,9.156-3.8a8.18,8.18,0,0,1,6.762.223l.1.055,4.824,2.887-1.5,2.513-4.772-2.854a5.239,5.239,0,0,0-4.29-.12L202.024,4420l-3.084-1.3-11.407,18.148,8.9,7.857Z" transform="translate(-160.599 -4398.676)" fill="#3d4451"/>
      <path id="Trazado_121920" data-name="Trazado 121920" d="M200.751,4460.694a5.322,5.322,0,0,1-4.042-8.773l3.378-3.965a5.322,5.322,0,1,1,8.1,6.9l-3.378,3.965a5.292,5.292,0,0,1-3.628,1.854C201.039,4460.689,200.9,4460.694,200.751,4460.694Zm3.389-11.68a2.389,2.389,0,0,0-1.825.841l-3.378,3.964a2.394,2.394,0,0,0,3.644,3.105l3.379-3.965a2.392,2.392,0,0,0-1.82-3.945Z" transform="translate(-162.739 -4404.832)" fill="#3d4451"/>
      <path id="Trazado_121921" data-name="Trazado 121921" d="M207.942,4466.343a5.3,5.3,0,0,1-3.447-1.269h0a5.322,5.322,0,0,1-.6-7.5l5.172-6.07a5.322,5.322,0,1,1,8.1,6.9L212,4464.476A5.314,5.314,0,0,1,207.942,4466.343Zm-1.549-3.5a2.4,2.4,0,0,0,3.375-.269l5.172-6.069a2.4,2.4,0,0,0-.27-3.375,2.4,2.4,0,0,0-3.374.269l-5.172,6.07a2.393,2.393,0,0,0,.269,3.375Z" transform="translate(-164.051 -4405.479)" fill="#3d4451"/>
      <path id="Trazado_121922" data-name="Trazado 121922" d="M215.961,4471.857a5.166,5.166,0,0,1-3.361-1.237h0l-.2-.173a5.194,5.194,0,0,1-.584-7.313l4.125-4.841a5.189,5.189,0,0,1,7.314-.584l.2.171a5.2,5.2,0,0,1,.584,7.315l-4.124,4.841A5.18,5.18,0,0,1,215.961,4471.857Zm-1.462-3.466a2.262,2.262,0,0,0,3.187-.254l4.124-4.84a2.265,2.265,0,0,0-.254-3.188l-.2-.172a2.264,2.264,0,0,0-3.187.254l-4.125,4.84a2.264,2.264,0,0,0,.255,3.187Z" transform="translate(-165.505 -4406.729)" fill="#3d4451"/>
      <path id="Trazado_121923" data-name="Trazado 121923" d="M224.307,4476.49a5.2,5.2,0,0,1-3.685-1.524h0a5.218,5.218,0,0,1,0-7.37l3.849-3.849a5.211,5.211,0,0,1,7.37,7.369l-3.85,3.85A5.194,5.194,0,0,1,224.307,4476.49Zm-1.615-3.594a2.288,2.288,0,0,0,3.229,0l3.85-3.851a2.283,2.283,0,1,0-3.229-3.229l-3.85,3.849a2.289,2.289,0,0,0,0,3.23Z" transform="translate(-167.062 -4407.78)" fill="#3d4451"/>
      <path id="Trazado_121924" data-name="Trazado 121924" d="M263.607,4458.445a5.289,5.289,0,0,1-3.183-1.066L243.4,4444.926a1.464,1.464,0,0,1,1.729-2.363l17.037,12.463a2.394,2.394,0,1,0,2.887-3.82l-.038-.03-6.621-5.325a1.465,1.465,0,0,1,1.836-2.283l6.6,5.312a5.322,5.322,0,0,1-2.462,9.511A5.377,5.377,0,0,1,263.607,4458.445Z" transform="translate(-171.394 -4404.136)" fill="#3d4451"/>
      <path id="Trazado_121925" data-name="Trazado 121925" d="M258.334,4466.253a5.3,5.3,0,0,1-3.187-1.063l-15.292-11.3a1.464,1.464,0,1,1,1.741-2.355l15.3,11.3a2.394,2.394,0,1,0,2.881-3.824,1.464,1.464,0,0,1,1.758-2.342,5.321,5.321,0,0,1-3.2,9.578Z" transform="translate(-170.747 -4405.775)" fill="#3d4451"/>
      <path id="Trazado_121926" data-name="Trazado 121926" d="M249.771,4470.692a5.283,5.283,0,0,1-3.182-1.066l-12.4-9.176a1.464,1.464,0,1,1,1.742-2.354l12.405,9.182a2.394,2.394,0,1,0,2.881-3.824l-12.422-9.581a1.464,1.464,0,0,1,1.788-2.319l12.406,9.569a5.322,5.322,0,0,1-2.457,9.514A5.366,5.366,0,0,1,249.771,4470.692Z" transform="translate(-169.711 -4405.775)" fill="#3d4451"/>
      <path id="Trazado_121927" data-name="Trazado 121927" d="M280.463,4438.8a1.461,1.461,0,0,1-1.156-.564l-21.8-27.971a1.464,1.464,0,0,1,.284-2.077l14.546-10.766a9.129,9.129,0,0,1,12.675,1.71l12.7,16.18a8.424,8.424,0,0,1-1.527,11.909L281.348,4438.5A1.455,1.455,0,0,1,280.463,4438.8Zm-19.721-29.151,19.986,25.646,13.687-10.406a5.5,5.5,0,0,0,1-7.77l-12.7-16.179a6.216,6.216,0,0,0-8.63-1.164Z" transform="translate(-174.025 -4395.607)" fill="#3d4451"/>
      <path id="Trazado_121928" data-name="Trazado 121928" d="M176.793,4441.063a1.453,1.453,0,0,1-.768-.219l-16.527-10.2a8.571,8.571,0,0,1-2.644-12.024l12.367-18.679a7.977,7.977,0,0,1,11.157-2.178l16.34,11.19a1.462,1.462,0,0,1,.4,2l-19.1,29.441A1.462,1.462,0,0,1,176.793,4441.063Zm-.91-41.771a5.136,5.136,0,0,0-.979.095,5.016,5.016,0,0,0-3.242,2.168L159.3,4420.232a5.642,5.642,0,0,0,1.74,7.916l15.309,9.451,17.541-27.041-15.162-10.383A5.015,5.015,0,0,0,175.884,4399.291Z" transform="translate(-155.427 -4395.745)" fill="#3d4451"/>
      <path id="Trazado_121929" data-name="Trazado 121929" d="M239.768,4475.631a7.794,7.794,0,0,1-3.829-1.009l-.087-.054-3.012-1.984a1.464,1.464,0,0,1,1.61-2.445l2.967,1.954a4.831,4.831,0,0,0,6.145-1.241l.315-.4a1.464,1.464,0,0,1,2.3,1.817l-.315.4A7.752,7.752,0,0,1,239.768,4475.631Z" transform="translate(-169.453 -4409.183)" fill="#3d4451"/>
    </g>
  </g>
</svg>
