<svg xmlns="http://www.w3.org/2000/svg" xmlns:xlink="http://www.w3.org/1999/xlink" width="492.915" height="116.865" viewBox="0 0 492.915 116.865">
  <defs>
    <filter id="Rectángulo_7421" x="0" y="0" width="116.865" height="116.865" filterUnits="userSpaceOnUse">
      <feOffset dx="4.828" dy="4.828" input="SourceAlpha"/>
      <feGaussianBlur result="blur"/>
      <feFlood flood-color="#002d26" flood-opacity="0.149"/>
      <feComposite operator="in" in2="blur"/>
      <feComposite in="SourceGraphic"/>
    </filter>
    <filter id="Rectángulo_7422" x="126.944" y="0" width="116.865" height="116.865" filterUnits="userSpaceOnUse">
      <feOffset dx="4.828" dy="4.828" input="SourceAlpha"/>
      <feGaussianBlur result="blur-2"/>
      <feFlood flood-color="#002d26" flood-opacity="0.149"/>
      <feComposite operator="in" in2="blur-2"/>
      <feComposite in="SourceGraphic"/>
    </filter>
    <filter id="Rectángulo_7423" x="251.714" y="0" width="116.865" height="116.865" filterUnits="userSpaceOnUse">
      <feOffset dx="4.828" dy="4.828" input="SourceAlpha"/>
      <feGaussianBlur result="blur-3"/>
      <feFlood flood-color="#002d26" flood-opacity="0.149"/>
      <feComposite operator="in" in2="blur-3"/>
      <feComposite in="SourceGraphic"/>
    </filter>
    <filter id="Rectángulo_7424" x="376.05" y="0" width="116.865" height="116.865" filterUnits="userSpaceOnUse">
      <feOffset dx="4.828" dy="4.828" input="SourceAlpha"/>
      <feGaussianBlur result="blur-4"/>
      <feFlood flood-color="#002d26" flood-opacity="0.149"/>
      <feComposite operator="in" in2="blur-4"/>
      <feComposite in="SourceGraphic"/>
    </filter>
  </defs>
  <g id="Grupo_61345" data-name="Grupo 61345" transform="translate(-47.146 -156.446)">
    <g transform="matrix(1, 0, 0, 1, 47.15, 156.45)" filter="url(#Rectángulo_7421)">
      <rect id="Rectángulo_7421-2" data-name="Rectángulo 7421" width="112.037" height="112.037" rx="9.436" transform="translate(0 0)" fill="#fff"/>
    </g>
    <g transform="matrix(1, 0, 0, 1, 47.15, 156.45)" filter="url(#Rectángulo_7422)">
      <rect id="Rectángulo_7422-2" data-name="Rectángulo 7422" width="112.037" height="112.037" rx="9.436" transform="translate(126.94 0)" fill="#fff"/>
    </g>
    <g transform="matrix(1, 0, 0, 1, 47.15, 156.45)" filter="url(#Rectángulo_7423)">
      <rect id="Rectángulo_7423-2" data-name="Rectángulo 7423" width="112.037" height="112.037" rx="9.436" transform="translate(251.71 0)" fill="#fff"/>
    </g>
    <g transform="matrix(1, 0, 0, 1, 47.15, 156.45)" filter="url(#Rectángulo_7424)">
      <rect id="Rectángulo_7424-2" data-name="Rectángulo 7424" width="112.037" height="112.037" rx="9.436" transform="translate(376.05 0)" fill="#fff"/>
    </g>
    <path id="Trazado_120586" data-name="Trazado 120586" d="M77.91,234.616c4.933,2.227,8.933,7.374,14.336,7.011,6.038-.406,9.6-7.512,15.468-8.98,5.607-1.4,11.274,2.77,17.025,2.2,5.706-.565,10.713-5.718,16.33-4.568,3.273.669,5.793,3.447,7.061,6.537s1.493,6.494,1.7,9.829c.345,5.483.5,11.577-3.07,15.754-3.945,4.619-10.81,5.047-16.884,5.124l-40.816.516c-6.508.082-13.114.153-19.4-1.531-5.712-1.53-11.178-4.648-14.524-9.523C45.076,242.323,64.1,228.379,77.91,234.616Z" transform="translate(-0.324 -4.612)" fill="#fef6e1"/>
    <g id="Grupo_61337" data-name="Grupo 61337" transform="translate(67.938 177.237)">
      <path id="Trazado_120587" data-name="Trazado 120587" d="M70.463,199.081h9.091a1.136,1.136,0,0,0,1.136-1.137v-3.408h19.318a1.137,1.137,0,0,1,1.137,1.136v6.818a1.135,1.135,0,0,0,1.136,1.137h9.091a1.136,1.136,0,0,0,1.136-1.137v-6.818a12.515,12.515,0,0,0-12.5-12.5H80.69v-3.409a1.135,1.135,0,0,0-1.136-1.136H70.463a1.135,1.135,0,0,0-1.136,1.136v18.182A1.136,1.136,0,0,0,70.463,199.081Zm32.954,2.272v-2.272h6.819v2.272Zm6.819-5.682v1.136h-6.819v-1.136a3.414,3.414,0,0,0-3.409-3.409H85.235v-6.818h14.772A10.238,10.238,0,0,1,110.236,195.672ZM82.963,185.445v6.818H80.69v-6.818ZM71.6,180.9h6.819v15.908H71.6Z" transform="translate(-69.327 -178.626)" fill="#444"/>
      <path id="Trazado_120588" data-name="Trazado 120588" d="M117.053,242.8H103.23a3.783,3.783,0,0,0-.949-3.88L89.448,226.085a1.132,1.132,0,0,0-.8-.333H80.69v-1.136a1.136,1.136,0,0,0-1.136-1.137H70.463a1.136,1.136,0,0,0-1.136,1.137V242.8a1.135,1.135,0,0,0,1.136,1.136h9.091A1.135,1.135,0,0,0,80.69,242.8v-1.137h.731l12.187,9.971a1.134,1.134,0,0,0,.718.257h22.727a4.545,4.545,0,1,0,0-9.091Zm-38.635-1.137H71.6V225.752h6.819Zm38.635,7.955H94.732l-12.188-9.97a1.132,1.132,0,0,0-.718-.257H80.69V228.024h7.484l12.5,12.5a1.608,1.608,0,0,1,0,2.273l-.666.666a1.648,1.648,0,0,1-2.272,0l-6.015-6.014-1.607,1.607,6.015,6.014a3.879,3.879,0,0,0,5.486,0h15.439a2.273,2.273,0,1,1,0,4.545Z" transform="translate(-69.327 -181.434)" fill="#444"/>
      <path id="Trazado_120589" data-name="Trazado 120589" d="M103.27,207.72h2.272v21.591H103.27Z" transform="translate(-71.452 -180.448)" fill="#444"/>
      <path id="Trazado_120590" data-name="Trazado 120590" d="M108.119,210.145h2.272V236.28h-2.272Z" transform="translate(-71.756 -180.599)" fill="#444"/>
      <path id="Trazado_120591" data-name="Trazado 120591" d="M112.968,207.72h2.272v21.591h-2.272Z" transform="translate(-72.059 -180.448)" fill="#444"/>
      <path id="Trazado_120592" data-name="Trazado 120592" d="M134.484,213.781a4.545,4.545,0,1,0,4.545,4.545A4.55,4.55,0,0,0,134.484,213.781Zm0,6.819a2.273,2.273,0,1,1,2.273-2.273A2.275,2.275,0,0,1,134.484,220.6Z" transform="translate(-73.122 -180.827)" fill="#444"/>
      <path id="Trazado_120593" data-name="Trazado 120593" d="M125.923,206.961a5.682,5.682,0,1,0-5.682-5.682A5.688,5.688,0,0,0,125.923,206.961Zm0-9.091a3.409,3.409,0,1,1-3.408,3.409A3.414,3.414,0,0,1,125.923,197.87Z" transform="translate(-72.515 -179.689)" fill="#444"/>
      <path id="Trazado_120594" data-name="Trazado 120594" d="M138.046,178.626a5.682,5.682,0,1,0,5.682,5.682A5.688,5.688,0,0,0,138.046,178.626Zm0,9.091a3.409,3.409,0,1,1,3.409-3.409A3.414,3.414,0,0,1,138.046,187.717Z" transform="translate(-73.274 -178.626)" fill="#444"/>
      <path id="Trazado_120595" data-name="Trazado 120595" d="M130.316,228.1a6.674,6.674,0,0,0-1.554.185,5.669,5.669,0,0,0-10.945,2.089h2.272a3.4,3.4,0,0,1,6.766-.467,1.133,1.133,0,0,0,.576.839,1.146,1.146,0,0,0,1.019.04,4.5,4.5,0,0,1,1.866-.412,4.541,4.541,0,0,1,3.24,7.727,1.135,1.135,0,0,0,0,1.591,4.541,4.541,0,0,1-3.24,7.728v2.272a6.814,6.814,0,0,0,5.534-10.795,6.814,6.814,0,0,0-5.534-10.8Z" transform="translate(-72.363 -181.51)" fill="#444"/>
      <path id="Trazado_120596" data-name="Trazado 120596" d="M122.777,239.616l2.278-6.82,2.156.72-2.279,6.821Z" transform="translate(-72.673 -182.018)" fill="#444"/>
      <path id="Trazado_120597" data-name="Trazado 120597" d="M125.09,241.663h6.819v2.273H125.09Z" transform="translate(-72.818 -182.573)" fill="#444"/>
    </g>
    <path id="Trazado_120598" data-name="Trazado 120598" d="M273.38,232.146c-1.5,6.476-1.626,13.722-5.913,18.8-3.337,3.957-8.576,5.751-13.665,6.695-10.446,1.938-21.576.941-31.1-3.772-5.264-2.606-10.092-6.445-12.869-11.62-2.955-5.5-3.357-12.1-2.3-18.254a36.909,36.909,0,0,1,13.155-22.8c7.074-5.525,16.695-7.908,25.37-5.6,10.339,2.747,16.568,13.779,26.6,16.525,12.24,3.351,5.276,10.746,4.207,12.18A21.329,21.329,0,0,0,273.38,232.146Z" transform="translate(-10.009 -2.397)" fill="#fcf0e5"/>
    <g id="Grupo_61338" data-name="Grupo 61338" transform="translate(183.177 184.369)">
      <path id="Trazado_120599" data-name="Trazado 120599" d="M281.223,212.389a9.143,9.143,0,0,0,4.9-8.137,10.887,10.887,0,0,0-5.375-9.145,9.235,9.235,0,0,0-9.591.279l-1.225.726a44.228,44.228,0,0,1-19.6-6.258c-3.678-2.071-6.855-3.858-12.065-3.6-5.217.23-8.211,2.308-11.678,4.714a44.219,44.219,0,0,1-18.934,8.076l-1.284-.607a9.232,9.232,0,0,0-9.573.622,10.889,10.889,0,0,0-4.493,9.613,8.8,8.8,0,0,0,2.882,5.841,10.724,10.724,0,0,0,2.762,1.8l10.687,4.9.017.007a31.242,31.242,0,0,0,7.619,10.158,43.36,43.36,0,0,0,4.29,3.422c6.733,4.727,15.1,7.855,20.349,7.608s13.288-4.15,19.547-9.489c5.219-4.453,8.817-9.473,10.578-14.643l.012-.006Zm-53.031-19.1c3.362-2.333,5.792-4.02,10.2-4.214,4.4-.222,6.982,1.229,10.549,3.236a46.354,46.354,0,0,0,19.961,6.53l.372,7.9a78.333,78.333,0,0,0-30.314-4.992A75.978,75.978,0,0,0,209.3,209.49l-.369-7.822a46.358,46.358,0,0,0,19.259-8.378Zm-29.073,20.464a6.314,6.314,0,0,1-4.01-5.33,7.987,7.987,0,0,1,3.3-7.048,6.4,6.4,0,0,1,6.753-.384l.938.443.55,11.659a21.438,21.438,0,0,0,.683,4.425Zm59.5,17.023c-6.5,5.543-13.9,8.632-17.85,8.817s-11.607-2.192-18.6-7.1c-.292-.205-.6-.426-.911-.659A83.056,83.056,0,0,1,259.4,230.1q-.4.359-.777.68Zm3.231-3.077a89.448,89.448,0,0,0-21.767-1.758,87.4,87.4,0,0,0-21.482,3.737,31.394,31.394,0,0,1-6.131-7.2,88.359,88.359,0,0,1,21-5.3,1.41,1.41,0,1,0-.339-2.8,91.282,91.282,0,0,0-21.976,5.589,19.4,19.4,0,0,1-1.695-7l-.02-.4c19.541-9.741,39.178-10.644,59.975-2.757l.016.327a19.451,19.451,0,0,1-1.048,7.186A94.3,94.3,0,0,0,246,213.8a1.41,1.41,0,1,0-.087,2.818,91.314,91.314,0,0,1,21.4,3.322,31.445,31.445,0,0,1-5.458,7.758Zm10.138-13.233a21.518,21.518,0,0,0,.262-4.47l-.058-1.219v-.006l-.492-10.433.889-.528a6.408,6.408,0,0,1,6.763-.251,7.983,7.983,0,0,1,3.945,6.7,6.312,6.312,0,0,1-3.49,5.683Z" transform="translate(-192.262 -186.234)" fill="#444"/>
      <path id="Trazado_120600" data-name="Trazado 120600" d="M242.611,215.69a1.41,1.41,0,1,0,.157,2.815h.006a1.41,1.41,0,0,0-.162-2.815Z" transform="translate(-195.331 -188.078)" fill="#444"/>
    </g>
    <path id="Trazado_120601" data-name="Trazado 120601" d="M399.917,242.126c.918-7.472-.383-14.985,1.113-22.362s3.086-14.979,1.644-22.366a26.162,26.162,0,0,0-11.948-17.365,22.841,22.841,0,0,0-20.833-1.328c-8.22,3.779-13.058,12.252-17.361,20.209-4.058,7.5-8.248,15.734-6.834,24.146,1.309,7.776,7.208,13.992,13.6,18.611a71.194,71.194,0,0,0,23.243,10.982C388.294,254.2,398.75,251.622,399.917,242.126Z" transform="translate(-18.675 -1.274)" fill="#dcedef"/>
    <g id="Grupo_61341" data-name="Grupo 61341" transform="translate(318.992 172.863)">
      <g id="Grupo_61340" data-name="Grupo 61340">
        <g id="Grupo_61339" data-name="Grupo 61339">
          <path id="Trazado_120602" data-name="Trazado 120602" d="M399.992,220.412a1.321,1.321,0,0,0-1.321,1.321v30.376a1.321,1.321,0,0,1-1.321,1.321H384.144V233.619a3.962,3.962,0,0,0-3.962-3.962H366.975a3.962,3.962,0,0,0-3.961,3.962V253.43H349.806a1.321,1.321,0,0,1-1.321-1.321V221.733a1.321,1.321,0,1,0-2.642,0v30.376a3.962,3.962,0,0,0,3.962,3.961h47.544a3.962,3.962,0,0,0,3.962-3.961V221.733A1.321,1.321,0,0,0,399.992,220.412ZM381.5,253.43H365.654V233.619a1.321,1.321,0,0,1,1.321-1.321h13.207a1.321,1.321,0,0,1,1.321,1.321V253.43Z" transform="translate(-337.693 -176.868)" fill="#444"/>
          <path id="Trazado_120603" data-name="Trazado 120603" d="M407.772,207.98l-31.924-32.862a4,4,0,0,0-5.629,0L338.3,207.98a4.079,4.079,0,0,0-.823,4.443,3.907,3.907,0,0,0,3.634,2.439h.452a3.927,3.927,0,0,0,2.562-.983,1.838,1.838,0,0,0,.264-.209l28.645-29.507L401.7,213.686a1.855,1.855,0,0,0,.247.2,3.93,3.93,0,0,0,2.558.98h.451a3.907,3.907,0,0,0,3.639-2.439A4.079,4.079,0,0,0,407.772,207.98Zm-1.61,3.416a1.308,1.308,0,0,1-1.206.825h-.451a1.277,1.277,0,0,1-.925-.4c-.008-.011-.023-.013-.033-.023a.323.323,0,0,0-.03-.034l-29.536-30.421-.016-.011-.007-.02a1.067,1.067,0,0,0-.675-.326.713.713,0,0,0-.491,0,1.243,1.243,0,0,0-.249.053,31.847,31.847,0,0,0-.426.273l-.01.016-.016.01-29.543,30.426c-.012.009-.017.022-.029.032a.189.189,0,0,0-.035.024,1.271,1.271,0,0,1-.924.4h-.449a1.307,1.307,0,0,1-1.206-.825,1.436,1.436,0,0,1,.284-1.576h0l31.923-32.861a1.3,1.3,0,0,1,1.841,0l31.928,32.861A1.436,1.436,0,0,1,406.163,211.4Z" transform="translate(-337.149 -173.96)" fill="#444"/>
          <path id="Trazado_120604" data-name="Trazado 120604" d="M380.1,222.083a3.962,3.962,0,0,0,3.962-3.962v-9.245a3.962,3.962,0,0,0-3.962-3.962H369.53a3.963,3.963,0,0,0-3.962,3.962v9.245a3.963,3.963,0,0,0,3.962,3.962Zm-11.886-3.962v-9.245a1.321,1.321,0,0,1,1.321-1.321H380.1a1.32,1.32,0,0,1,1.321,1.321v9.245a1.321,1.321,0,0,1-1.321,1.321H369.53A1.321,1.321,0,0,1,368.21,218.121Z" transform="translate(-338.928 -175.898)" fill="#444"/>
          <path id="Trazado_120605" data-name="Trazado 120605" d="M371.028,242.954h-1.321a1.321,1.321,0,1,0,0,2.642h1.321a1.321,1.321,0,1,0,0-2.642Z" transform="translate(-339.105 -178.279)" fill="#444"/>
        </g>
      </g>
    </g>
    <path id="Trazado_120606" data-name="Trazado 120606" d="M487.575,219.271c4.511-8.136,10.457-16.125,10.733-25.422.1-3.27-.5-6.71.83-9.7,2.355-5.279,10.014-6.364,14.952-3.359s7.542,8.721,8.994,14.317,2.062,11.455,4.376,16.753c2.255,5.166,6.011,9.519,8.8,14.418s4.6,10.9,2.52,16.147c-1.612,4.071-5.355,7-9.42,8.63s-8.481,2.125-12.833,2.606c-10.053,1.111-22.338.542-30.272-6.917C478.736,239.675,483.361,226.87,487.575,219.271Z" transform="translate(-27.242 -1.421)" fill="#d6eaf5"/>
    <g id="Grupo_61344" data-name="Grupo 61344" transform="translate(448.224 179.112)">
      <g id="Grupo_61343" data-name="Grupo 61343">
        <g id="Grupo_61342" data-name="Grupo 61342">
          <path id="Trazado_120607" data-name="Trazado 120607" d="M517.1,204.26c-.4-.238-.811-.484-1.229-.75l0-3.428h0a1.389,1.389,0,0,0,1.389-1.39v-8.338a9.739,9.739,0,0,0-9.727-9.727H492.246a2.782,2.782,0,0,0-2.779,2.779h-2.778a2.782,2.782,0,0,0-2.779,2.779v2.779a2.782,2.782,0,0,0,2.779,2.779h2.778a2.783,2.783,0,0,0,2.779,2.779h1.573L489.7,200.7a1.391,1.391,0,0,0,1.157,2.161h2.779a1.382,1.382,0,0,0,.833-.278l8.894-6.67v2.779a1.389,1.389,0,0,0,1.39,1.39v3.436l-.147.1c-5.141,3.5-9.581,6.529-9.581,28.424v9.728a5.565,5.565,0,0,0,5.559,5.559H520.04a5.565,5.565,0,0,0,5.559-5.559v-9.728C525.6,210.435,522.368,207.408,517.1,204.26Zm-27.631-15.3h-2.778v-2.779h2.778v2.779Zm4.267,10.7,3.425-5.138h3.426Zm-1.488-7.917v-8.338h15.287a6.956,6.956,0,0,1,6.948,6.948V197.3h-8.338v-4.17a1.389,1.389,0,0,0-1.389-1.389Zm13.924,14.172.763-.522a1.387,1.387,0,0,0,.6-1.144v-4.169h5.559l0,4.17a1.385,1.385,0,0,0,.6,1.144c.676.469,1.338.866,1.984,1.251,3.266,1.951,5.968,3.581,6.845,15.669h-24.34C499.225,210.651,502.374,208.5,506.17,205.916Zm16.649,35.856a2.782,2.782,0,0,1-2.779,2.779H500.584a2.782,2.782,0,0,1-2.779-2.779v-2.779h25.014Zm0-5.559H497.8v-4.17c0-2.594.061-4.894.174-6.948h24.7c.091,2.052.14,4.351.14,6.948v4.17Z" transform="translate(-475.57 -180.626)" fill="#444"/>
          <path id="Trazado_120608" data-name="Trazado 120608" d="M480.572,187.945a1.389,1.389,0,0,0-1.389-1.389H476.4a1.39,1.39,0,1,0,0,2.779h2.779A1.389,1.389,0,0,0,480.572,187.945Z" transform="translate(-475.013 -180.997)" fill="#444"/>
          <path id="Trazado_120609" data-name="Trazado 120609" d="M477.264,183.259l2.777,1.389a1.39,1.39,0,0,0,1.243-2.486l-2.777-1.39a1.39,1.39,0,0,0-1.244,2.487Z" transform="translate(-475.106 -180.626)" fill="#444"/>
          <path id="Trazado_120610" data-name="Trazado 120610" d="M480.043,191.15l-2.779,1.389a1.39,1.39,0,0,0,.622,2.633,1.414,1.414,0,0,0,.621-.146l2.779-1.39a1.39,1.39,0,1,0-1.244-2.486Z" transform="translate(-475.106 -181.276)" fill="#444"/>
        </g>
      </g>
    </g>
  </g>
</svg>
