<svg id="Grupo_63163" data-name="Grupo 63163" xmlns="http://www.w3.org/2000/svg" width="167.896" height="188.305" viewBox="0 0 167.896 188.305">
  <g id="Grupo_63136" data-name="Grupo 63136" transform="translate(12.09)">
    <ellipse id="Elipse_4308" data-name="Elipse 4308" cx="57.858" cy="4.751" rx="57.858" ry="4.751" transform="translate(15.376 124.822)" fill="#e0d8c3"/>
    <g id="Grupo_63128" data-name="Grupo 63128" transform="translate(0 15.769)">
      <path id="Trazado_121874" data-name="Trazado 121874" d="M344.911,4087.593c0,3.548-3.148,6.423-7.031,6.423H228.936c-3.883,0-7.031-2.875-7.031-6.423v-61c0-3.546,3.148-6.422,7.031-6.422H337.879c3.883,0,7.031,2.875,7.031,6.422Z" transform="translate(-210.081 -4006.452)" fill="#fff"/>
      <path id="Trazado_121875" data-name="Trazado 121875" d="M326.8,4081.592H205.716v-80.2H326.8Zm-117.477-3.609H323.193V4005H209.326Z" transform="translate(-205.716 -4001.388)" fill="#3d4451"/>
    </g>
    <g id="Grupo_63132" data-name="Grupo 63132" transform="translate(65.575)">
      <g id="Grupo_63129" data-name="Grupo 63129">
        <circle id="Elipse_4309" data-name="Elipse 4309" cx="42.595" cy="42.595" r="42.595" transform="translate(1.885 1.885)" fill="#f5fafc"/>
        <ellipse id="Elipse_4310" data-name="Elipse 4310" cx="35.375" cy="34.697" rx="35.375" ry="34.697" transform="translate(11.668 11.028)" fill="#7eb9c7"/>
        <path id="Trazado_121876" data-name="Trazado 121876" d="M339.979,4068.758a44.48,44.48,0,1,1,44.481-44.481A44.531,44.531,0,0,1,339.979,4068.758Zm0-85.19a40.71,40.71,0,1,0,40.71,40.709A40.755,40.755,0,0,0,339.979,3983.568Z" transform="translate(-295.499 -3979.797)" fill="#3d4451"/>
      </g>
      <g id="Grupo_63130" data-name="Grupo 63130" transform="translate(41.251 1.537)">
        <path id="Trazado_121877" data-name="Trazado 121877" d="M367.765,3984.621l-12.736,40.863,42.772-3.512S395.183,3992.914,367.765,3984.621Z" transform="translate(-352.801 -3982.635)" fill="#f04f4c"/>
        <path id="Trazado_121878" data-name="Trazado 121878" d="M351.978,4026.535,365.89,3981.9l1.514.459a42.623,42.623,0,0,1,26.271,22.609,50.41,50.41,0,0,1,4.894,16.127l.144,1.6Zm16.008-40.635-11.552,37.066,38.729-3.179a50.126,50.126,0,0,0-4.4-13.51C385.786,3996.221,378.129,3989.372,367.986,3985.9Z" transform="translate(-351.978 -3981.902)" fill="#3d4451"/>
      </g>
      <g id="Grupo_63131" data-name="Grupo 63131" transform="translate(40.921 39.887)">
        <path id="Trazado_121879" data-name="Trazado 121879" d="M354.373,4040.345l40.483,16.436s4.683-7.977,3.592-20" transform="translate(-352.294 -4035.047)" fill="#fdc345"/>
        <path id="Trazado_121880" data-name="Trazado 121880" d="M394.766,4058.138l-43.24-17.555,1.2-2.957,40.591,16.48a36.2,36.2,0,0,0,2.772-17.821l-.145-1.59,3.179-.288.144,1.589c1.125,12.391-3.6,20.608-3.805,20.951Z" transform="translate(-351.526 -4034.408)" fill="#3d4451"/>
      </g>
    </g>
    <g id="Grupo_63135" data-name="Grupo 63135" transform="translate(7.945 34.397)">
      <g id="Grupo_63134" data-name="Grupo 63134" transform="translate(15.523)">
        <g id="Grupo_63133" data-name="Grupo 63133">
          <path id="Trazado_121881" data-name="Trazado 121881" d="M251.353,4055.351a14.239,14.239,0,1,0-13.486-13.473A14.24,14.24,0,0,0,251.353,4055.351Z" transform="translate(-237.848 -4026.892)" fill="#3d4451"/>
        </g>
      </g>
      <path id="Trazado_121882" data-name="Trazado 121882" d="M233.895,4095.03l-6.045,14.907a5.846,5.846,0,0,1-7.4,3.262,6.161,6.161,0,0,1-3.553-3.419c-.719-1.734,0-3.689.532-5.4l5.82-18.533c1.642-5.228,3.373-11.227,7.372-15.206,3.723-3.705,8.671-6.388,14.022-6.388,2.262,0,11.392-.03,16.526.292,0,0,26.933-6.887,28.521-7.149a6.8,6.8,0,0,1,4.669.731,4.174,4.174,0,0,1,1.9,2.57,5.61,5.61,0,0,1-1.388,4.993c-2.393,2.638-6.325,3.669-9.548,4.865l-11.47,4.258c-2.315.86-4.628,1.375-6.272,3.323a14.006,14.006,0,0,0-2.673,5.466,38.893,38.893,0,0,0-.972,7.841c-.457,8.242-1.137,16.51-1.132,24.756,0,3.923.125,7.845.126,11.768a6.013,6.013,0,0,1-5.045,5.985,5.952,5.952,0,0,1-6.828-5.871v-20.537h-5.455v19.767a6.02,6.02,0,0,1-5.028,6,5.952,5.952,0,0,1-6.845-5.868v-32.41" transform="translate(-216.595 -4035.085)" fill="#3d4451"/>
      <path id="Trazado_121883" data-name="Trazado 121883" d="M253.928,4071.711h7.734l-2.784,4.64,2.166,13.3-3.4,5.259-3.712-5.259,2.475-13.3Z" transform="translate(-226.661 -4038.976)" fill="#f04f4c"/>
    </g>
    <path id="Trazado_121884" data-name="Trazado 121884" d="M319.787,4058.167l34.781-25.2a1.7,1.7,0,0,0,.393-2.351h0a1.7,1.7,0,0,0-2.263-.479l-36.625,21.974" transform="translate(-235.47 -3993.303)" fill="#3d4451"/>
  </g>
  <g id="Grupo_63162" data-name="Grupo 63162" transform="translate(0 143.485)">
    <g id="Grupo_63161" data-name="Grupo 63161">
      <g id="Grupo_63142" data-name="Grupo 63142">
        <g id="Grupo_63139" data-name="Grupo 63139" transform="translate(10.052 4.64)">
          <g id="Grupo_63138" data-name="Grupo 63138">
            <g id="Grupo_63137" data-name="Grupo 63137">
              <path id="Trazado_121885" data-name="Trazado 121885" d="M214.314,4197.6c4.057.225,7.387-3.433,7.182-7.883a7.222,7.222,0,0,0-6.474-7.1c-4.059-.226-7.393,3.434-7.185,7.887A7.221,7.221,0,0,0,214.314,4197.6Z" transform="translate(-204.248 -4182.604)" fill="#7eb9c7"/>
              <path id="Trazado_121886" data-name="Trazado 121886" d="M225.914,4227.945c1.522,0,2.656-1.663,2.358-3.441-1.268-7.562-6.448-14.328-12.649-14.328s-11.38,6.766-12.648,14.328c-.3,1.779.836,3.441,2.358,3.441Z" transform="translate(-202.927 -4190.038)" fill="#7eb9c7"/>
            </g>
          </g>
        </g>
        <g id="Grupo_63141" data-name="Grupo 63141">
          <g id="Grupo_63140" data-name="Grupo 63140">
            <path id="Trazado_121887" data-name="Trazado 121887" d="M209.995,4199.429c-.194,0-.389,0-.584-.015h0a11.693,11.693,0,1,1,.584.015Zm.026-19.692a8.2,8.2,0,0,0-5.793,2.392,8,8,0,0,0-2.356,6.14,8.189,8.189,0,0,0,7.714,7.666h0a8.22,8.22,0,0,0,6.2-2.381,8.009,8.009,0,0,0,2.358-6.137,8.187,8.187,0,0,0-7.71-7.669C210.3,4179.739,210.158,4179.736,210.021,4179.736Z" transform="translate(-191.647 -4176.251)" fill="#3d4451"/>
            <path id="Trazado_121888" data-name="Trazado 121888" d="M221.978,4228.324H194.157a4.99,4.99,0,0,1-4.9-5.973c2.011-10.024,10.1-17.583,18.806-17.583s16.8,7.559,18.806,17.583a4.99,4.99,0,0,1-4.9,5.973Zm-13.911-20.072c-7.776,0-13.93,7.518-15.388,14.785a1.5,1.5,0,0,0,1.478,1.8h27.821a1.5,1.5,0,0,0,1.479-1.8C222,4215.771,215.845,4208.252,208.067,4208.252Z" transform="translate(-189.163 -4183.94)" fill="#3d4451"/>
          </g>
        </g>
      </g>
      <g id="Grupo_63148" data-name="Grupo 63148" transform="translate(44.582)">
        <g id="Grupo_63145" data-name="Grupo 63145" transform="translate(10.052 4.64)">
          <g id="Grupo_63144" data-name="Grupo 63144">
            <g id="Grupo_63143" data-name="Grupo 63143">
              <path id="Trazado_121889" data-name="Trazado 121889" d="M275.353,4197.6c4.057.225,7.387-3.433,7.182-7.883a7.221,7.221,0,0,0-6.473-7.1c-4.059-.226-7.393,3.434-7.185,7.887A7.22,7.22,0,0,0,275.353,4197.6Z" transform="translate(-265.287 -4182.604)" fill="#7eb9c7"/>
              <path id="Trazado_121890" data-name="Trazado 121890" d="M286.953,4227.945c1.522,0,2.656-1.663,2.358-3.441-1.267-7.562-6.449-14.328-12.649-14.328s-11.38,6.766-12.648,14.328c-.3,1.779.836,3.441,2.358,3.441Z" transform="translate(-263.966 -4190.038)" fill="#7eb9c7"/>
            </g>
          </g>
        </g>
        <g id="Grupo_63147" data-name="Grupo 63147">
          <g id="Grupo_63146" data-name="Grupo 63146">
            <path id="Trazado_121891" data-name="Trazado 121891" d="M271.034,4199.429q-.291,0-.584-.015h0a11.693,11.693,0,1,1,.584.015Zm.026-19.692a8.193,8.193,0,0,0-5.793,2.392,8,8,0,0,0-2.357,6.14,8.19,8.19,0,0,0,7.714,7.666h0a8.22,8.22,0,0,0,6.2-2.381,8.006,8.006,0,0,0,2.358-6.137,8.186,8.186,0,0,0-7.709-7.669C271.336,4179.739,271.2,4179.736,271.06,4179.736Z" transform="translate(-252.686 -4176.251)" fill="#3d4451"/>
            <path id="Trazado_121892" data-name="Trazado 121892" d="M283.018,4228.324H255.2a4.991,4.991,0,0,1-4.9-5.973c2.011-10.024,10.1-17.583,18.806-17.583s16.8,7.559,18.807,17.583a4.99,4.99,0,0,1-4.9,5.973Zm-13.911-20.072c-7.776,0-13.93,7.518-15.388,14.785a1.5,1.5,0,0,0,1.478,1.8h27.822a1.5,1.5,0,0,0,1.478-1.8C283.038,4215.771,276.884,4208.252,269.106,4208.252Z" transform="translate(-250.202 -4183.94)" fill="#3d4451"/>
          </g>
        </g>
      </g>
      <g id="Grupo_63154" data-name="Grupo 63154" transform="translate(87.598 0.435)">
        <g id="Grupo_63151" data-name="Grupo 63151" transform="translate(10.052 4.639)">
          <g id="Grupo_63150" data-name="Grupo 63150">
            <g id="Grupo_63149" data-name="Grupo 63149">
              <path id="Trazado_121893" data-name="Trazado 121893" d="M334.249,4198.194c4.057.223,7.387-3.434,7.182-7.885a7.223,7.223,0,0,0-6.474-7.1c-4.059-.225-7.393,3.435-7.185,7.888A7.223,7.223,0,0,0,334.249,4198.194Z" transform="translate(-324.183 -4183.198)" fill="#7eb9c7"/>
              <path id="Trazado_121894" data-name="Trazado 121894" d="M345.849,4228.541c1.522,0,2.656-1.663,2.358-3.441-1.267-7.562-6.448-14.328-12.649-14.328s-11.38,6.766-12.648,14.328c-.3,1.779.836,3.441,2.358,3.441Z" transform="translate(-322.862 -4190.632)" fill="#7eb9c7"/>
            </g>
          </g>
        </g>
        <g id="Grupo_63153" data-name="Grupo 63153">
          <g id="Grupo_63152" data-name="Grupo 63152">
            <path id="Trazado_121895" data-name="Trazado 121895" d="M329.93,4200.024q-.291,0-.584-.015h0a11.693,11.693,0,1,1,.584.015Zm.026-19.692a8.193,8.193,0,0,0-5.793,2.392,8.005,8.005,0,0,0-2.357,6.139,8.189,8.189,0,0,0,7.714,7.666h0a8.206,8.206,0,0,0,6.2-2.38,8.008,8.008,0,0,0,2.358-6.137,8.187,8.187,0,0,0-7.71-7.669C330.232,4180.335,330.094,4180.332,329.956,4180.332Z" transform="translate(-311.582 -4176.847)" fill="#3d4451"/>
            <path id="Trazado_121896" data-name="Trazado 121896" d="M341.913,4228.919H314.092a4.99,4.99,0,0,1-4.9-5.972c2.011-10.025,10.1-17.584,18.806-17.584s16.8,7.559,18.807,17.584a4.99,4.99,0,0,1-4.9,5.972ZM328,4208.847c-7.776,0-13.93,7.518-15.388,14.785a1.5,1.5,0,0,0,1.478,1.8h27.821a1.506,1.506,0,0,0,1.479-1.8C341.934,4216.365,335.78,4208.847,328,4208.847Z" transform="translate(-309.098 -4184.536)" fill="#3d4451"/>
          </g>
        </g>
      </g>
      <g id="Grupo_63160" data-name="Grupo 63160" transform="translate(130.087 0.435)">
        <g id="Grupo_63157" data-name="Grupo 63157" transform="translate(10.053 4.639)">
          <g id="Grupo_63156" data-name="Grupo 63156">
            <g id="Grupo_63155" data-name="Grupo 63155">
              <path id="Trazado_121897" data-name="Trazado 121897" d="M392.423,4198.194c4.057.223,7.388-3.434,7.182-7.885a7.222,7.222,0,0,0-6.473-7.1c-4.059-.225-7.393,3.435-7.185,7.888A7.223,7.223,0,0,0,392.423,4198.194Z" transform="translate(-382.358 -4183.198)" fill="#7eb9c7"/>
              <path id="Trazado_121898" data-name="Trazado 121898" d="M404.023,4228.541c1.523,0,2.656-1.663,2.358-3.441-1.268-7.562-6.449-14.328-12.649-14.328s-11.38,6.766-12.648,14.328c-.3,1.779.836,3.441,2.358,3.441Z" transform="translate(-381.037 -4190.632)" fill="#7eb9c7"/>
            </g>
          </g>
        </g>
        <g id="Grupo_63159" data-name="Grupo 63159">
          <g id="Grupo_63158" data-name="Grupo 63158">
            <path id="Trazado_121899" data-name="Trazado 121899" d="M388.1,4200.024q-.291,0-.584-.015h0a11.694,11.694,0,1,1,.584.015Zm.026-19.692a8.2,8.2,0,0,0-5.793,2.392,8,8,0,0,0-2.356,6.139,8.189,8.189,0,0,0,7.714,7.666h0a8.2,8.2,0,0,0,6.2-2.38,8,8,0,0,0,2.358-6.137,8.186,8.186,0,0,0-7.709-7.669C388.406,4180.335,388.268,4180.332,388.131,4180.332Z" transform="translate(-369.757 -4176.847)" fill="#3d4451"/>
            <path id="Trazado_121900" data-name="Trazado 121900" d="M400.088,4228.919H372.267a4.99,4.99,0,0,1-4.9-5.972c2.011-10.025,10.1-17.584,18.805-17.584s16.8,7.559,18.807,17.584a4.99,4.99,0,0,1-4.9,5.972Zm-13.911-20.072c-7.776,0-13.93,7.518-15.388,14.785a1.506,1.506,0,0,0,1.479,1.8h27.821a1.5,1.5,0,0,0,1.478-1.8C400.109,4216.365,393.954,4208.847,386.177,4208.847Z" transform="translate(-367.273 -4184.536)" fill="#3d4451"/>
          </g>
        </g>
      </g>
    </g>
  </g>
</svg>
