<svg id="Grupo_63127" data-name="Grupo 63127" xmlns="http://www.w3.org/2000/svg" width="177.675" height="204.741" viewBox="0 0 177.675 204.741">
  <g id="Grupo_63118" data-name="Grupo 63118" transform="translate(0 22.632)">
    <g id="Grupo_63117" data-name="Grupo 63117">
      <g id="Grupo_63116" data-name="Grupo 63116">
        <rect id="Rectángulo_7532" data-name="Rectángulo 7532" width="125.81" height="143.225" rx="4.239" transform="translate(16.488 18.722)" fill="#fff"/>
        <path id="Trazado_121859" data-name="Trazado 121859" d="M275.491,4817.577H155.7a6.11,6.11,0,0,1-6.1-6.1v-137.9a6.11,6.11,0,0,1,6.1-6.1H275.491a6.11,6.11,0,0,1,6.1,6.1v137.9A6.109,6.109,0,0,1,275.491,4817.577ZM155.7,4672.681a.9.9,0,0,0-.894.893v137.9a.9.9,0,0,0,.894.894H275.491a.894.894,0,0,0,.893-.894v-137.9a.894.894,0,0,0-.893-.893Z" transform="translate(-149.597 -4667.471)" fill="#3d4451"/>
      </g>
    </g>
  </g>
  <rect id="Rectángulo_7533" data-name="Rectángulo 7533" width="62.172" height="4.001" transform="translate(49.333 129.352)" fill="#3d4451"/>
  <rect id="Rectángulo_7534" data-name="Rectángulo 7534" width="62.172" height="4.001" transform="translate(49.333 142.487)" fill="#3d4451"/>
  <g id="Grupo_63122" data-name="Grupo 63122" transform="translate(80.911 107.991)">
    <path id="Trazado_121951" data-name="Trazado 121951" d="M29.611,0C45.965,0,59.222,12.881,59.222,28.771S45.965,57.542,29.611,57.542,0,44.661,0,28.771,13.257,0,29.611,0Z" transform="translate(9.54 9.806)" fill="#e2e2e2"/>
    <ellipse id="Elipse_4307" data-name="Elipse 4307" cx="25.998" cy="24.571" rx="25.998" ry="24.571" transform="translate(16.346 18.206)" fill="#f5fafc"/>
    <g id="Grupo_63121" data-name="Grupo 63121">
      <g id="Grupo_63119" data-name="Grupo 63119" transform="translate(0.28 0.415)">
        <path id="Trazado_121860" data-name="Trazado 121860" d="M314.494,4784.9a37.534,37.534,0,1,0,0,53.081A37.533,37.533,0,0,0,314.494,4784.9Zm-5.745,47.337a29.41,29.41,0,1,1,0-41.593A29.411,29.411,0,0,1,308.75,4832.233Z" transform="translate(-249.212 -4772.695)" fill="#e77c20"/>
        <path id="Trazado_121861" data-name="Trazado 121861" d="M287.683,4849.909a38.743,38.743,0,1,1,27.395-11.348A38.486,38.486,0,0,1,287.683,4849.909Zm0-75.068a36.325,36.325,0,1,0,25.687,10.64h0A36.089,36.089,0,0,0,287.683,4774.841Zm0,66.93a30.6,30.6,0,1,1,21.651-8.954h0A30.526,30.526,0,0,1,287.683,4841.771Zm0-58.806a28.2,28.2,0,1,0,19.942,8.261A28.014,28.014,0,0,0,287.683,4782.965Z" transform="translate(-248.942 -4772.425)" fill="#3d4451"/>
      </g>
      <path id="Trazado_121862" data-name="Trazado 121862" d="M358.273,4876.631a3.4,3.4,0,0,1,.349,4.729l-3.207,3.207a3.4,3.4,0,0,1-4.728-.35l-12.2-12.2a3.316,3.316,0,0,1-.285-4.664l3.207-3.207a3.315,3.315,0,0,1,4.663.285Z" transform="translate(-264.821 -4788.619)" fill="#7eb9c7"/>
      <path id="Trazado_121863" data-name="Trazado 121863" d="M287.666,4850.034a39.037,39.037,0,1,1,27.625-11.425A38.942,38.942,0,0,1,287.666,4850.034Zm0-75.049a36,36,0,1,0,25.456,10.544A35.761,35.761,0,0,0,287.666,4774.985Z" transform="translate(-248.599 -4771.917)" fill="#3d4451"/>
      <g id="Grupo_63120" data-name="Grupo 63120" transform="translate(62.62 60.035)">
        <rect id="Rectángulo_7535" data-name="Rectángulo 7535" width="7.585" height="12.605" transform="translate(1.781 7.145) rotate(-45)" fill="#f5fafc"/>
        <path id="Trazado_121864" data-name="Trazado 121864" d="M335.916,4863.216l-10.695-10.695,7.145-7.146,10.7,10.695Zm-7.131-10.695,7.131,7.131,3.581-3.582-7.131-7.132Z" transform="translate(-325.221 -4845.376)" fill="#3d4451"/>
      </g>
      <path id="Trazado_121865" data-name="Trazado 121865" d="M353.673,4881.279a4.319,4.319,0,0,1-3.044-1.263l-12.2-12.2a4.169,4.169,0,0,1-1.237-2.845,3.816,3.816,0,0,1,1.112-2.825l3.444-3.443a3.813,3.813,0,0,1,2.824-1.113,4.167,4.167,0,0,1,2.846,1.236l12.2,12.2a4.318,4.318,0,0,1,1.268,2.868,3.764,3.764,0,0,1-1.08,2.867l-3.443,3.444A3.775,3.775,0,0,1,353.673,4881.279Zm-9.2-22.494a2.624,2.624,0,0,0-1.875.763l-3.443,3.444a2.62,2.62,0,0,0-.762,1.948,2.972,2.972,0,0,0,.887,2.031l12.2,12.2a2.907,2.907,0,0,0,4.044.188l3.443-3.443a2.584,2.584,0,0,0,.731-1.971,3.155,3.155,0,0,0-.919-2.073l-12.2-12.2a2.973,2.973,0,0,0-2.03-.887Z" transform="translate(-264.788 -4787.573)" fill="#3d4451"/>
      <path id="Trazado_121866" data-name="Trazado 121866" d="M353.521,4881.812a4.972,4.972,0,0,1-3.509-1.475l-12.2-12.2a4.823,4.823,0,0,1-1.431-3.3,4.473,4.473,0,0,1,1.306-3.31l3.444-3.443a4.417,4.417,0,0,1,3.31-1.306,4.824,4.824,0,0,1,3.3,1.429l12.2,12.2a4.972,4.972,0,0,1,1.461,3.307,4.417,4.417,0,0,1-1.273,3.364l-3.443,3.444A4.437,4.437,0,0,1,353.521,4881.812Zm-9.2-22.513a1.965,1.965,0,0,0-1.407.57l-3.443,3.443a1.972,1.972,0,0,0-.569,1.464,2.317,2.317,0,0,0,.692,1.579l12.2,12.2a2.241,2.241,0,0,0,3.108.188l3.443-3.443a1.929,1.929,0,0,0,.537-1.474,2.492,2.492,0,0,0-.725-1.634l-12.2-12.2a2.319,2.319,0,0,0-1.579-.693Z" transform="translate(-264.64 -4787.424)" fill="#3d4451"/>
    </g>
  </g>
  <g id="Grupo_63123" data-name="Grupo 63123" transform="translate(101.521 129.118)">
    <path id="Trazado_121867" data-name="Trazado 121867" d="M290.118,4830.763a3.324,3.324,0,0,1-2.31-1.146l-11.214-12.371a2.869,2.869,0,0,1,.333-4.187,3.256,3.256,0,0,1,4.405.3l8.781,9.632,19.066-22.121a3.251,3.251,0,0,1,4.394-.431,2.835,2.835,0,0,1,.452,4.145L292.6,4829.555a3.222,3.222,0,0,1-2.383,1.21Z" transform="translate(-274.188 -4798.135)" fill="#319e2b"/>
    <path id="Trazado_121868" data-name="Trazado 121868" d="M289.887,4832.049h-.168a4.933,4.933,0,0,1-3.5-1.686L275,4817.987a4.478,4.478,0,0,1-1.17-3.378,4.525,4.525,0,0,1,1.687-3.2,4.934,4.934,0,0,1,6.663.469l7.528,8.255,17.851-20.711a4.928,4.928,0,0,1,6.649-.662,4.525,4.525,0,0,1,1.775,3.147,4.447,4.447,0,0,1-1.078,3.385l-21.423,24.97A4.816,4.816,0,0,1,289.887,4832.049Zm-.109-3.3h.121a1.66,1.66,0,0,0,1.08-.636L312.4,4803.14a1.182,1.182,0,0,0,.3-.9,1.253,1.253,0,0,0-.5-.866,1.6,1.6,0,0,0-2.135.2l-20.283,23.532L279.742,4814.1a1.608,1.608,0,0,0-2.145-.128,1.251,1.251,0,0,0-.473.882,1.209,1.209,0,0,0,.32.911l11.219,12.374A1.72,1.72,0,0,0,289.778,4828.746Z" transform="translate(-273.818 -4797.768)" fill="#3d4451"/>
  </g>
  <path id="Trazado_121869" data-name="Trazado 121869" d="M248.543,4661.4H233.122a6.862,6.862,0,0,0,.066-.938c0-4.663-4.7-8.443-10.5-8.443s-10.5,3.781-10.5,8.445a6.862,6.862,0,0,0,.066.938H198.783c-3.328,0-6.026,2.172-6.025,4.848v7.193c0,2.678,2.7,4.848,6.026,4.847l49.761,0c3.328,0,6.026-2.171,6.026-4.848v-7.192C254.569,4663.57,251.871,4661.4,248.543,4661.4Zm-25.852-.184c-2.4,0-4.345-1.564-4.345-3.494s1.944-3.495,4.344-3.5,4.345,1.564,4.345,3.495S225.091,4661.217,222.692,4661.217Z" transform="translate(-157.484 -4642.016)" fill="#fdc345"/>
  <path id="Trazado_121870" data-name="Trazado 121870" d="M196.749,4675.945a8,8,0,0,1-8.122-7.856v-8.875a7.678,7.678,0,0,1,2.407-5.584,8.21,8.21,0,0,1,5.713-2.274h12.045a12.791,12.791,0,0,1,25.467,0h14.06a8,8,0,0,1,8.121,7.855v8.876a7.677,7.677,0,0,1-2.407,5.583,8.213,8.213,0,0,1-5.713,2.273Zm24.775-32.414a8.792,8.792,0,0,0-9,8.543,8.137,8.137,0,0,0,.056.941l.243,2.092-16.076,0a4.475,4.475,0,0,0-3.117,1.23,3.956,3.956,0,0,0-1.25,2.874v8.875a4.247,4.247,0,0,0,4.369,4.1l51.571-.005a4.473,4.473,0,0,0,3.117-1.23,3.955,3.955,0,0,0,1.25-2.873v-8.875a4.247,4.247,0,0,0-4.368-4.1l-18.09,0,.243-2.092a8.321,8.321,0,0,0,.056-.941A8.79,8.79,0,0,0,221.524,4643.532Zm0,15.5a6.444,6.444,0,0,1-4.481-1.783,6.061,6.061,0,0,1,0-8.809,6.443,6.443,0,0,1,4.481-1.784h0a6.441,6.441,0,0,1,4.48,1.784,6.058,6.058,0,0,1,0,8.807,6.446,6.446,0,0,1-4.481,1.785Zm0-8.623a2.713,2.713,0,0,0-1.886.741,2.31,2.31,0,0,0,0,3.388,2.709,2.709,0,0,0,1.885.741v0a2.706,2.706,0,0,0,1.885-.742,2.308,2.308,0,0,0,0-3.387A2.708,2.708,0,0,0,221.525,4650.41Z" transform="translate(-156.729 -4639.779)" fill="#3d4451"/>
  <g id="Grupo_63124" data-name="Grupo 63124" transform="translate(19.61 45.111)">
    <path id="Trazado_121871" data-name="Trazado 121871" d="M179.361,4699.786h-.086l-4.736,2.229-.947-4.027,6.416-3.011h4.908v25.417h-5.554Z" transform="translate(-173.592 -4694.977)" fill="#3d4451"/>
  </g>
  <g id="Grupo_63125" data-name="Grupo 63125" transform="translate(19.643 83.9)">
    <path id="Trazado_121872" data-name="Trazado 121872" d="M173.632,4768.169v-3.441l2.8-3.245c3.617-4.185,6.587-7.665,6.587-11.3a3.268,3.268,0,0,0-3.573-3.48,8.467,8.467,0,0,0-4.22,1.29l-.991-3.988a13.485,13.485,0,0,1,6.243-1.564c6.114,0,8.094,3.714,8.094,7.352,0,4.771-3.272,8.6-6.5,12.005l-1.679,1.8v.078h8.567v4.5Z" transform="translate(-173.632 -4742.439)" fill="#3d4451"/>
  </g>
  <g id="Grupo_63126" data-name="Grupo 63126" transform="translate(20.425 124.957)">
    <path id="Trazado_121873" data-name="Trazado 121873" d="M175.407,4813.558a9.408,9.408,0,0,0,4.176.977c2.712,0,4.22-1.525,4.22-3.675,0-2.816-2.368-4.028-5.253-4.028h-.775v-3.754h.56c2.067-.04,4.736-.821,4.736-3.285,0-1.838-1.292-2.933-3.272-2.933a7.344,7.344,0,0,0-3.531,1.017l-.731-3.871a12.832,12.832,0,0,1,5.769-1.33c4.908,0,7.362,2.894,7.362,6.14a6.2,6.2,0,0,1-4,5.709v.079a6.439,6.439,0,0,1,4.779,6.452c0,3.872-3.272,7.665-9.343,7.665a12.818,12.818,0,0,1-5.511-1.135Z" transform="translate(-174.589 -4792.676)" fill="#3d4451"/>
  </g>
  <rect id="Rectángulo_7536" data-name="Rectángulo 7536" width="62.172" height="4.001" transform="translate(49.333 49.033)" fill="#3d4451"/>
  <rect id="Rectángulo_7537" data-name="Rectángulo 7537" width="62.172" height="4.001" transform="translate(49.333 63.412)" fill="#3d4451"/>
  <rect id="Rectángulo_7538" data-name="Rectángulo 7538" width="62.172" height="4.001" transform="translate(49.333 87.603)" fill="#3d4451"/>
  <rect id="Rectángulo_7539" data-name="Rectángulo 7539" width="62.172" height="4.001" transform="translate(49.333 101.982)" fill="#3d4451"/>
</svg>
