<svg xmlns="http://www.w3.org/2000/svg" width="474.494" height="321.652" viewBox="0 0 474.494 321.652">
  <g id="Grupo_59927" data-name="Grupo 59927" transform="translate(-244.75 -351.587)">
    <g id="Ñëîé_4" data-name="Ñëîé 4" transform="translate(341.477 353.387)">
      <path id="Trazado_116635" data-name="Trazado 116635" d="M987.68,836.488C986,830.747,979.3,823.3,971.741,815.649c-10.213-10.342-22.123-21.053-26.6-28.423-9.378-15.447-13.315-26.115-24.435-40.413-9.14-11.751-26.746-14.833-26.746-14.833s-3.141-5.157-8.885-5.977c-26.378-3.768-56.144-4.892-82.636-1.107-10.372,1.482-30.41,6.557-30.41,6.557s-4.727,1.831-6.663,2.544c-10.606,3.906-17.183,9.154-22.631,18.576-5.365,9.276-9.252,21.42-15.358,30.594a81.66,81.66,0,0,1-9.656,11.391c-7.571,7.368-13.921,16.444-20.472,27.363-3.346,5.575-7.861,14.723-9.021,20.6-1.749,8.853,3.924,22.5,8.464,29.928,6.847,11.2,26.823,2.162,34.731-3.768a138.775,138.775,0,0,0,10.9-9.437c1.416-1.416,6.187-6.815,6.187-6.815s.885,6.794,1.363,8.7c1.857,7.429,1.469,17.491,1.469,25.269,0,18.2-3.776,27.041-3.776,45.084,0,5.624,2.846,22.617,2.593,31.757H906.6c-.908-9.573-4.162-22.9-4.162-29.356,0-7.681,2.65-15.6,2.638-22.176-.018-9.908-.149-16.157-.811-25.584-.539-7.661,2.33-14.918,2.517-24.3.168-8.367.931-39.047.931-39.047s7,8.382,8.175,10.24c1.384,2.185,9.435,13.894,10.242,14.8,8.846,9.988,5.875,9.171,15.318,17.728,6.92,6.27,21.794,9.91,30.773,9.524,4.8-.207,6.261-2.363,7.61-4.1C987.24,861.406,990.066,844.663,987.68,836.488Z" transform="translate(-687.906 -643.386)" fill="#fff" fill-rule="evenodd"/>
      <path id="Trazado_116636" data-name="Trazado 116636" d="M1186.726,597.524c-3.862,3.384-7.8,9.346-11.372,12.916-5.85,5.852-13.668,9.508-15.706,16.758-2.73,9.709,1.769,23.247,5.221,32.116,3.946,10.138,11.93,22.563,21.491,28.029,5.069,2.9,12.434,5.357,18.26,5.169a38.273,38.273,0,0,0,14.5-4.211c4.611-2.469,18.555-15.627,21.487-23.543,5.294-14.3,10.879-33.391,3.368-48.414-7.7-15.407-21.76-21.765-38.366-21.765C1200.832,594.578,1190.7,594.043,1186.726,597.524Z" transform="translate(-1056.024 -543.318)" fill="#ffedde" fill-rule="evenodd"/>
      <path id="Trazado_116637" data-name="Trazado 116637" d="M1014.608,675.738s7.222-9.219,11.07-14.54c2.948-4.076,6.578-10,8.1-14.15,5.9-16.083.882-30.877-2.2-47.827-1.131-6.231-6.279-22.611-14.067-24.169-3.884-.777-3.689,8.281-5.046,13.029-2.221,7.766-3.81,15.228-3.114,19.677.305,1.958,2.386,10.555,2.386,11.4,0,7.356,3.765,15.6-.453,21.7-5.4,7.792-17.991,23.237-17.991,23.237a27.6,27.6,0,0,0,8.639,7.849C1007.261,674.849,1014.608,675.738,1014.608,675.738Z" transform="translate(-926.637 -528.04)" fill="#ffedde" fill-rule="evenodd"/>
      <path id="Trazado_116638" data-name="Trazado 116638" d="M1550.421,675.309s-13.768-17.2-17-22.365c-12.292-19.668-.3-40.48,3.223-61.613,1.086-6.516,1.825-12.133,4.8-18.075.23-.461,2.935-8.476,3.6-8.341,3.606.721,3.516,6.344,3.943,8.225a100.183,100.183,0,0,1,1.7,31.134c-.857,7.426-3.626,19.482-1.778,26.255,1.74,6.382,5.66,13.075,11.227,17.251,1.7,1.274,9.925,8.429,9.925,8.429a26.948,26.948,0,0,1-6.593,10.877C1558.561,671.859,1550.421,675.309,1550.421,675.309Z" transform="translate(-1344.643 -520.151)" fill="#ffedde" fill-rule="evenodd"/>
      <path id="Trazado_116639" data-name="Trazado 116639" d="M1124.168,446.728c8.074.846,12.5-8.118,16.941-14.152,1.357-1.842,5.011-14.15,9.949-15.17,3.307-.684-6.409,15.433,2.6,23.286s15.182,4.517,15.182,4.517,7.475,3.161,8.544,2.065c2.055-2.1-4.579-7.714-5.351-13.407-1.4-10.321,1.553-21.549,2.177-17.477.969,6.317,2.3,12.034,6.025,15.762,6.472,6.473,9.85,10.092,20.178,12.3a95.558,95.558,0,0,0,10.808,1.5s4.779-8.767,5.953-13.265c1.076-4.123-.154-12.248-.01-14.188a47.567,47.567,0,0,1,2.147-10.268,21.545,21.545,0,0,0,1.793-6.838,30.908,30.908,0,0,0-3.36-16.849,32.611,32.611,0,0,0-14.1-13.972,44.728,44.728,0,0,0-9.8-3.561c-6.469-1.079-9.444,1.444-15.776-.139-4.889-1.222-10.511-5.495-16.039-6.6-20.041-4.008-46.559,20.364-49.161,38.579-.624,4.365-.027,15.125-.027,15.125a29.673,29.673,0,0,1,.925,4.127c.417,3.544,2.657,10.665,5.386,17.465C1121.338,441.017,1124.168,446.728,1124.168,446.728Z" transform="translate(-1019.889 -359.835)" fill="#e2bb92" fill-rule="evenodd"/>
    </g>
    <g id="Ñëîé_2" data-name="Ñëîé 2" transform="translate(244.75 351.587)">
      <g id="Grupo_59889" data-name="Grupo 59889" transform="translate(281.129 50.897)">
        <path id="Trazado_116640" data-name="Trazado 116640" d="M1554.159,691.562a.757.757,0,0,1-.631-.339c-1.784-2.709-4.422-5.939-7.216-9.359-4.4-5.388-8.951-10.959-11.157-15.638-3.883-8.233-2.237-17.709-.783-26.071.212-1.224.423-2.434.614-3.625a71.143,71.143,0,0,1,6.893-21.03c3.9-7.124,3.675-12.107,3.386-18.416l-.031-.691c-.293-6.481.394-10.289,2.043-11.317a2.187,2.187,0,0,1,2.333.057c2.6,1.422,3.268,6.239,3.917,10.9.145,1.046.286,2.059.444,2.977.882,5.081,1.981,12.553,1.347,18.761-.353,3.454-.91,6.551-1.452,9.546-1.476,8.187-2.752,15.257,1.614,24.4,2.507,5.249,13.174,16.1,18.512,19.5a.756.756,0,0,1-.812,1.275c-5.609-3.569-16.416-14.578-19.064-20.122-4.575-9.577-3.261-16.87-1.737-25.315.534-2.967,1.089-6.035,1.436-9.431.614-6.023-.466-13.357-1.332-18.35-.162-.933-.305-1.963-.454-3.026-.542-3.887-1.214-8.724-3.146-9.781-.518-.284-.729-.148-.807-.1-.839.524-1.63,3.416-1.335,9.967l.033.69c.3,6.545.537,11.715-3.57,19.211a69.455,69.455,0,0,0-6.725,20.543c-.193,1.2-.4,2.414-.618,3.645-1.484,8.538-3.019,17.367.661,25.167,2.128,4.511,6.619,10.009,10.962,15.327,2.818,3.451,5.48,6.71,7.308,9.482a.755.755,0,0,1-.632,1.172Z" transform="translate(-1532.749 -584.771)" fill="#384154"/>
      </g>
      <g id="Grupo_59890" data-name="Grupo 59890" transform="translate(183.822 58.172)">
        <path id="Trazado_116641" data-name="Trazado 116641" d="M1087.688,709.846a.746.746,0,0,1-.416-.125.756.756,0,0,1-.213-1.047c2.36-3.568,5.235-7.171,8.016-10.655,5.179-6.491,10.071-12.621,11.339-17.948,1.563-6.564.5-12.051-.849-19l-.232-1.2c-1.346-6.969-2.508-12.988-5.6-18.962-2.719-5.242-3.824-10.441-4.8-15.029-.209-.982-.41-1.93-.62-2.836l-.064-.292c-.145-.672-.586-2.718-1.262-3.1a.286.286,0,0,0-.259-.015c-1.023.342-1.363,3.166-1.508,4.371l-.077.6c-.61,4.271.076,7.973.8,11.892a61.357,61.357,0,0,1,1.065,7.5.755.755,0,1,1-1.508.094,60.13,60.13,0,0,0-1.042-7.324c-.75-4.044-1.458-7.864-.813-12.38l.072-.572c.224-1.862.6-4.979,2.53-5.623a1.787,1.787,0,0,1,1.485.135c1.11.632,1.613,2.342,1.991,4.1l.06.272c.211.914.415,1.87.625,2.861.955,4.494,2.038,9.587,4.663,14.648,3.2,6.169,4.379,12.287,5.747,19.371l.233,1.2c1.382,7.126,2.474,12.754.835,19.635-1.346,5.655-6.34,11.913-11.628,18.54-2.76,3.458-5.615,7.035-7.937,10.548A.758.758,0,0,1,1087.688,709.846Z" transform="translate(-1086.933 -618.101)" fill="#384154"/>
      </g>
      <g id="Grupo_59891" data-name="Grupo 59891" transform="translate(180.648 47.874)">
        <path id="Trazado_116642" data-name="Trazado 116642" d="M1075.181,609.676a.756.756,0,0,1-.753-.708,61.631,61.631,0,0,0-1.015-7.241c-.862-4.74-1.675-9.217-.239-14.42.593-2.15,1-4.517,1.4-6.805.919-5.293,1.645-9.474,4.3-9.575a2.239,2.239,0,0,1,1.875.916c1.951,2.4,1.638,9.149,1.564,9.446a.755.755,0,0,1-1.475-.327c.093-.727.12-6.648-1.318-8.234a.736.736,0,0,0-.589-.293c-1.436.055-2.2,4.448-2.871,8.324-.4,2.324-.821,4.728-1.433,6.948-1.344,4.871-.561,9.183.269,13.749a62.834,62.834,0,0,1,1.037,7.417.756.756,0,0,1-.707.8Z" transform="translate(-1072.39 -570.923)" fill="#384154"/>
      </g>
      <g id="Grupo_59892" data-name="Grupo 59892" transform="translate(162.374 66.73)">
        <path id="Trazado_116643" data-name="Trazado 116643" d="M989.423,729.153a.755.755,0,0,1-.6-1.219c1.728-2.217,3.77-4.6,5.932-7.117,6.423-7.483,13.7-15.964,14.221-22.2.437-5.241-.8-10.8-1.993-16.184-1.835-8.269-3.734-16.82.208-24.7a.756.756,0,1,1,1.352.676c-3.7,7.4-1.945,15.32-.084,23.7,1.219,5.49,2.479,11.167,2.023,16.636-.56,6.725-8.009,15.4-14.579,23.059-2.151,2.506-4.182,4.872-5.888,7.061A.755.755,0,0,1,989.423,729.153Z" transform="translate(-988.668 -657.312)" fill="#384154"/>
      </g>
      <g id="Grupo_59893" data-name="Grupo 59893" transform="translate(296.671 45.704)">
        <path id="Trazado_116644" data-name="Trazado 116644" d="M1610.021,588.35a.741.741,0,0,1-.75-.685c-1.186-16.522-1.781-24.8-4.661-25.182a.755.755,0,1,1,.2-1.5c4.1.546,4.606,7.623,5.965,26.54a.769.769,0,0,1-.7.823Z" transform="translate(-1603.955 -560.978)" fill="#384154"/>
      </g>
      <g id="Grupo_59894" data-name="Grupo 59894" transform="translate(160.88 131.293)">
        <path id="Trazado_116645" data-name="Trazado 116645" d="M1007.418,972.416a24.241,24.241,0,0,1-7.027-1.332C990,967.8,984.37,962.4,982.569,958.435a5.978,5.978,0,0,1-.386-4.872.755.755,0,0,1,1.384.6,4.62,4.62,0,0,0,.378,3.643c1.666,3.668,6.982,8.7,16.9,11.833,5.085,1.6,8.536,1.67,9.981.19,1.424-1.462.733-4.311.193-5.881a.755.755,0,1,1,1.428-.49c.8,2.316,1.35,5.487-.54,7.426A5.994,5.994,0,0,1,1007.418,972.416Z" transform="translate(-981.824 -953.109)" fill="#384154"/>
      </g>
      <g id="Grupo_59895" data-name="Grupo 59895" transform="translate(294.075 131.328)">
        <path id="Trazado_116646" data-name="Trazado 116646" d="M1598.643,979.985a6.571,6.571,0,0,1-4.827-2.017c-1.611-1.773-2.117-4.481-1.5-8.047a.756.756,0,1,1,1.49.257c-.531,3.083-.15,5.363,1.132,6.774a5.055,5.055,0,0,0,4.072,1.51c5.323-.4,16.507-9.148,19.886-16.779,1.322-2.989,1.288-5.41-.1-7.2a.755.755,0,1,1,1.192-.928c1.737,2.229,1.837,5.25.294,8.737-3.653,8.251-15.387,17.238-21.153,17.675C1598.966,979.979,1598.807,979.985,1598.643,979.985Z" transform="translate(-1592.06 -953.266)" fill="#384154"/>
      </g>
      <g id="Grupo_59896" data-name="Grupo 59896" transform="translate(155.65 214.902)">
        <path id="Trazado_116647" data-name="Trazado 116647" d="M959.423,1426.128a85.916,85.916,0,0,1,1.055,16.787h1.515a87.265,87.265,0,0,0-1.073-16.993l-.46-3.407c-1.157-8.607-1.686-12.535-.051-25.414.17-1.337.343-2.657.516-3.973,1.866-14.227,3.627-27.667.625-56.284a.755.755,0,1,0-1.5.156c2.983,28.441,1.233,41.794-.621,55.931-.173,1.318-.346,2.641-.516,3.981-1.66,13.074-1.123,17.063.052,25.8Z" transform="translate(-957.861 -1336.166)" fill="#384154"/>
      </g>
      <g id="Grupo_59897" data-name="Grupo 59897" transform="translate(310.284 189.588)">
        <path id="Trazado_116648" data-name="Trazado 116648" d="M1668.306,1337.167c.847,4.784,1.707,9.67,2.178,15.084h1.508c-.484-5.637-1.372-10.682-2.2-15.347-.794-4.488-1.545-8.727-1.875-13.016-.348-4.535.423-8.977,1.169-13.273a78.689,78.689,0,0,0,1.233-9.325A137.934,137.934,0,0,0,1670,1286.1a140.171,140.171,0,0,1-.337-14.71,88.649,88.649,0,0,1,1.232-9.938c.468-2.868.95-5.835,1.168-8.811.81-11.092.873-27.067.873-31.7a.755.755,0,0,0-1.511,0c0,4.618-.063,20.547-.87,31.589-.212,2.908-.689,5.841-1.151,8.677a89.455,89.455,0,0,0-1.25,10.111,141.344,141.344,0,0,0,.335,14.868,136.928,136.928,0,0,1,.319,15.024,77.591,77.591,0,0,1-1.214,9.146c-.761,4.388-1.548,8.923-1.185,13.646C1666.749,1328.366,1667.506,1332.642,1668.306,1337.167Z" transform="translate(-1666.323 -1220.187)" fill="#384154"/>
      </g>
      <g id="Grupo_59898" data-name="Grupo 59898" transform="translate(235.503 155.749)">
        <path id="Trazado_116649" data-name="Trazado 116649" d="M1325.005,1192.065c-.676,12.549-1.364,25.41-1.29,38.99h1.511c-.074-13.543.613-26.382,1.288-38.909.31-5.76.6-11.2.817-16.612a247.6,247.6,0,0,0-1.12-31.968,163.05,163.05,0,0,1-.873-17.776c.128-4.37.662-9.574,1.281-15.6,1.29-12.562,2.9-28.2,1.486-44.351a.755.755,0,0,0-1.505.133c1.4,16.011-.2,31.565-1.483,44.063-.623,6.057-1.16,11.286-1.29,15.71a164.3,164.3,0,0,0,.879,17.946,246.092,246.092,0,0,1,1.114,31.783C1325.608,1180.877,1325.316,1186.311,1325.005,1192.065Z" transform="translate(-1323.71 -1065.153)" fill="#384154"/>
      </g>
      <g id="Grupo_59899" data-name="Grupo 59899" transform="translate(96.188 130.283)">
        <path id="Trazado_116650" data-name="Trazado 116650" d="M706.946,1055.318q-.749,0-1.484-.058a15.334,15.334,0,0,1-10.946-5.646c-4.438-5.325-6.349-11.927-7.792-17.7-1.475-5.892-1.678-10.81-.641-15.482,3.219-14.484,16.188-23.534,28.732-32.286,5.971-4.167,11.612-8.1,15.987-12.478a139.414,139.414,0,0,0,9.173-10.655,139.807,139.807,0,0,1,9.286-10.781c2.2-2.2,5.582-1.716,5.726-1.7a.755.755,0,0,1-.223,1.494c-.027-.005-2.785-.383-4.435,1.269a139.252,139.252,0,0,0-9.178,10.66,140.007,140.007,0,0,1-9.281,10.776c-4.469,4.469-10.163,8.442-16.191,12.649-12.3,8.587-25.03,17.465-28.12,31.375-.985,4.434-.784,9.131.631,14.788,1.4,5.608,3.253,12.019,7.488,17.1a13.873,13.873,0,0,0,9.9,5.108c9.409.754,21.211-6.374,28.436-12.693a56.978,56.978,0,0,0,5.9-5.769c6.545-7.714,10.441-14.172,15.372-22.348l1.481-2.452c5.872-9.7,13.12-24.281,16.476-31.366.82-1.732,1.672-3.38,2.487-4.954,2.954-5.708,5.286-10.219,3.935-14.276a.755.755,0,1,1,1.433-.478c1.554,4.664-1.031,9.661-4.026,15.449-.806,1.558-1.651,3.19-2.464,4.906-4.184,8.833-11.028,22.384-16.548,31.5l-1.48,2.451c-4.967,8.234-8.891,14.74-15.514,22.544a58.09,58.09,0,0,1-6.054,5.928C727.935,1048.39,716.556,1055.318,706.946,1055.318Z" transform="translate(-685.436 -948.48)" fill="#384154"/>
      </g>
      <g id="Grupo_59900" data-name="Grupo 59900" transform="translate(293.858 90.365)">
        <path id="Trazado_116651" data-name="Trazado 116651" d="M1676.752,909.326q-.763,0-1.556-.08c-9.329-.931-19.278-2.811-28.827-10.192-5.372-4.149-10.647-11.786-14.885-17.922-.814-1.18-1.591-2.3-2.321-3.335-5.549-7.833-12.084-16.8-18.475-23.9-1.483-1.649-3.2-3.45-4.962-5.305-3.385-3.559-6.884-7.24-9.437-10.523-4.178-5.376-6.284-8.49-4.692-15.1a.756.756,0,1,1,1.469.354c-1.437,5.964.316,8.547,4.414,13.823,2.507,3.224,5.98,6.875,9.339,10.408,1.776,1.866,3.5,3.678,4.991,5.335,6.441,7.159,13.009,16.166,18.584,24.035.733,1.036,1.512,2.164,2.331,3.349,4.179,6.049,9.379,13.58,14.565,17.585,9.248,7.148,18.949,8.975,28.054,9.885,7.839.783,13.3-5.127,16.706-18.067,3.753-14.269,1.686-22.571-8.2-32.9-3.547-3.708-7.224-7.356-10.779-10.886-7.584-7.523-15.424-15.3-22.3-23.971-4.227-5.328-7.517-11.959-11-18.98-2.436-4.911-4.956-9.988-7.9-14.8-5.707-9.312-14.732-16.011-28.4-21.082a.755.755,0,0,1,.525-1.417c14,5.2,23.272,12.093,29.166,21.709,2.982,4.866,5.516,9.974,7.969,14.914,3.447,6.948,6.7,13.51,10.831,18.713,6.818,8.6,14.627,16.345,22.178,23.838,3.563,3.535,7.247,7.19,10.807,10.912,10.319,10.788,12.481,19.45,8.565,34.33C1690.107,903,1684.615,909.326,1676.752,909.326Z" transform="translate(-1591.065 -765.596)" fill="#384154"/>
      </g>
      <g id="Grupo_59901" data-name="Grupo 59901" transform="translate(102.85 91.268)">
        <path id="Trazado_116652" data-name="Trazado 116652" d="M716.715,864.815a.755.755,0,0,1-.685-1.071c4.095-8.886,12.264-19.567,16.189-24.7l.725-.949c2.23-2.927,4.729-5.639,7.145-8.261,3.531-3.833,7.182-7.795,9.953-12.413a115.774,115.774,0,0,0,6.376-13.333,107.863,107.863,0,0,1,6.123-12.8l.233-.384c4.421-7.3,7.616-12.574,24.647-21.089a.755.755,0,1,1,.676,1.352c-16.64,8.32-19.74,13.437-24.03,20.52l-.233.385a106.849,106.849,0,0,0-6.027,12.614,116.728,116.728,0,0,1-6.469,13.515c-2.851,4.75-6.555,8.771-10.138,12.66-2.393,2.6-4.867,5.282-7.054,8.152l-.727.952c-3.892,5.09-11.992,15.679-16.017,24.414A.754.754,0,0,1,716.715,864.815Z" transform="translate(-715.96 -769.734)" fill="#384154"/>
      </g>
      <g id="Grupo_59902" data-name="Grupo 59902" transform="translate(318.306 130.959)">
        <path id="Trazado_116653" data-name="Trazado 116653" d="M1781.236,1017.272a.756.756,0,0,1-.671-.409c-8.214-15.867-19.327-21.326-28.254-25.714a60.552,60.552,0,0,1-9.336-5.255c-9.177-6.825-15.512-12.323-21.181-18.382-.96-1.027-2.007-2.227-3.11-3.491-4.509-5.168-10.676-12.243-14.576-10.712a.755.755,0,1,1-.555-1.4c4.873-1.933,10.93,5,16.269,11.123,1.09,1.25,2.126,2.436,3.075,3.451,5.6,5.99,11.877,11.433,20.98,18.2a59.42,59.42,0,0,0,9.1,5.112c9.128,4.485,20.488,10.065,28.932,26.376a.756.756,0,0,1-.325,1.018A.746.746,0,0,1,1781.236,1017.272Z" transform="translate(-1703.075 -951.576)" fill="#384154"/>
      </g>
      <g id="Grupo_59903" data-name="Grupo 59903" transform="translate(243.937 100.408)">
        <path id="Trazado_116654" data-name="Trazado 116654" d="M1363.145,829.964a.755.755,0,0,1-.534-1.289c.251-.25.5-.482.744-.706,1.21-1.114,1.939-1.787,1.576-3.672a9.447,9.447,0,0,0-.925-2.235c-1.178-2.327-2.789-5.512-.48-10.044a.755.755,0,0,1,1.345.686c-1.959,3.848-.662,6.413.483,8.676a10.562,10.562,0,0,1,1.061,2.632c.521,2.71-.779,3.908-2.036,5.067-.227.21-.465.428-.7.663A.753.753,0,0,1,1363.145,829.964Z" transform="translate(-1362.352 -811.607)" fill="#384154"/>
      </g>
      <g id="Grupo_59904" data-name="Grupo 59904" transform="translate(235.399 133.227)">
        <path id="Trazado_116655" data-name="Trazado 116655" d="M1341.844,964.956a.731.731,0,0,1-.243-.041,28.471,28.471,0,0,0-17.349-.136.756.756,0,1,1-.519-1.419,29.674,29.674,0,0,1,18.356.126.755.755,0,0,1-.244,1.47Z" transform="translate(-1323.236 -961.97)" fill="#384154"/>
      </g>
      <g id="Grupo_59905" data-name="Grupo 59905" transform="translate(218.166 100.335)">
        <path id="Trazado_116656" data-name="Trazado 116656" d="M1255.384,814.045a.761.761,0,0,1-.359-.091,12.11,12.11,0,0,0-9.738-.314.755.755,0,1,1-.5-1.424,13.61,13.61,0,0,1,10.961.408.755.755,0,0,1-.36,1.42Z" transform="translate(-1244.28 -811.272)" fill="#384154"/>
      </g>
      <g id="Grupo_59906" data-name="Grupo 59906" transform="translate(216.807 91.181)">
        <path id="Trazado_116657" data-name="Trazado 116657" d="M1245.683,772.812a21.067,21.067,0,0,1-7.141-1.286.756.756,0,0,1,.542-1.411c3.376,1.3,9.69,2.011,12.521-.585a.756.756,0,0,1,1.021,1.114C1250.882,772.244,1248.289,772.812,1245.683,772.812Z" transform="translate(-1238.057 -769.333)" fill="#384154"/>
      </g>
      <path id="Trazado_116658" data-name="Trazado 116658" d="M1445.653,798.134a3,3,0,1,1,2.769,3.677A3.283,3.283,0,0,1,1445.653,798.134Z" transform="translate(-1183.53 -698.019)" fill="#384154" fill-rule="evenodd"/>
      <g id="Grupo_59907" data-name="Grupo 59907" transform="translate(256.333 89.904)">
        <path id="Trazado_116659" data-name="Trazado 116659" d="M1427.016,767.576a10.337,10.337,0,0,1-7.629-2.782.755.755,0,1,1,1.024-1.109c3.016,2.782,6.095,2.7,12.411,1.849a.756.756,0,0,1,.2,1.5A46.566,46.566,0,0,1,1427.016,767.576Z" transform="translate(-1419.143 -763.484)" fill="#384154"/>
      </g>
      <g id="Grupo_59908" data-name="Grupo 59908" transform="translate(203.999 114.957)">
        <path id="Trazado_116660" data-name="Trazado 116660" d="M1219.59,914.814a33.125,33.125,0,0,1-15.575-4.007c-12.928-6.8-21.677-20.768-24.613-31.588a.755.755,0,0,1,1.458-.4c2.85,10.5,11.333,24.053,23.859,30.647a31.1,31.1,0,0,0,25.67,1.925c10.242-3.587,20.148-13.513,25.854-25.905a.755.755,0,1,1,1.372.631c-5.87,12.751-16.111,22.983-26.727,26.7A34.037,34.037,0,0,1,1219.59,914.814Z" transform="translate(-1179.375 -878.265)" fill="#384154"/>
      </g>
      <g id="Grupo_59909" data-name="Grupo 59909" transform="translate(255.37)">
        <path id="Trazado_116661" data-name="Trazado 116661" d="M1415.486,361.237a.732.732,0,0,1-.14-.013.755.755,0,0,1-.6-.882c.928-4.951,5-9.544,10.225-8.641a.755.755,0,1,1-.257,1.489c-4.3-.738-7.69,3.2-8.484,7.431A.755.755,0,0,1,1415.486,361.237Z" transform="translate(-1414.729 -351.587)" fill="#384154"/>
      </g>
      <g id="Grupo_59910" data-name="Grupo 59910" transform="translate(236.862 41.215)">
        <path id="Trazado_116662" data-name="Trazado 116662" d="M1343.98,589.676a.753.753,0,0,1-.174-.021c-4.813-1.141-8.814-5.131-11.268-11.234-4.6-11.458-2.983-26.946,3.942-37.664a.756.756,0,0,1,1.269.82c-7.444,11.518-7.551,26.97-3.81,36.28,2.265,5.635,5.893,9.3,10.214,10.328a.755.755,0,0,1-.174,1.49Z" transform="translate(-1329.935 -540.413)" fill="#384154"/>
      </g>
      <g id="Grupo_59911" data-name="Grupo 59911" transform="translate(250.939 58.105)">
        <path id="Trazado_116663" data-name="Trazado 116663" d="M1426.184,647.478c-12.548,0-30.731-10.942-31.752-28.884a.755.755,0,0,1,.711-.8.739.739,0,0,1,.8.711c.991,17.4,18.983,27.857,30.948,27.446a.706.706,0,0,1,.783.727.755.755,0,0,1-.728.782Q1426.568,647.479,1426.184,647.478Z" transform="translate(-1394.43 -617.797)" fill="#384154"/>
      </g>
      <g id="Grupo_59912" data-name="Grupo 59912" transform="translate(200.548 64.913)">
        <path id="Trazado_116664" data-name="Trazado 116664" d="M1164.318,673.42a.756.756,0,0,1-.049-1.51c9.112-.6,18.272-15.2,19.382-22.285a.756.756,0,1,1,1.493.234c-1.2,7.679-10.806,22.907-20.776,23.559Z" transform="translate(-1163.563 -648.987)" fill="#384154"/>
      </g>
      <g id="Grupo_59913" data-name="Grupo 59913" transform="translate(226.253 53.446)">
        <path id="Trazado_116665" data-name="Trazado 116665" d="M1290.589,629.989a.761.761,0,0,1-.338-.08,15.729,15.729,0,0,1-8.369-10.883c-1.649-7.02.47-15.555,5.531-22.273a.755.755,0,1,1,1.207.909c-4.8,6.369-6.815,14.423-5.266,21.019a14.26,14.26,0,0,0,7.574,9.877.755.755,0,0,1-.338,1.431Z" transform="translate(-1281.331 -596.452)" fill="#384154"/>
      </g>
      <g id="Grupo_59914" data-name="Grupo 59914" transform="translate(188.331 1.476)">
        <path id="Trazado_116666" data-name="Trazado 116666" d="M1109.608,416.528a.756.756,0,0,1-.714-.51,21.758,21.758,0,0,1-.811-5.321c-.056-.79-.109-1.549-.2-2.226-3.382-26.026,22.9-47.1,41.762-49.612,10.323-1.377,15.505-.077,20.541,5.155a.756.756,0,0,1-1.089,1.047c-4.023-4.18-8.277-6.168-19.251-4.705-18.483,2.464-43.615,23.671-40.464,47.919.092.705.148,1.494.2,2.316a20.423,20.423,0,0,0,.732,4.935.756.756,0,0,1-.714,1Z" transform="translate(-1107.59 -358.349)" fill="#384154"/>
      </g>
      <g id="Grupo_59915" data-name="Grupo 59915" transform="translate(261.777 7.843)">
        <path id="Trazado_116667" data-name="Trazado 116667" d="M1478.117,432.287a.741.741,0,0,1-.295-.06.754.754,0,0,1-.4-.991c4.326-10.169,2-21.782-6.219-31.064-7.622-8.607-18.134-12.838-26.153-10.521a.756.756,0,1,1-.419-1.452c8.566-2.474,19.7,1.936,27.7,10.971,8.616,9.729,11.038,21.938,6.479,32.658A.755.755,0,0,1,1478.117,432.287Z" transform="translate(-1444.085 -387.518)" fill="#384154"/>
      </g>
      <g id="Grupo_59916" data-name="Grupo 59916" transform="translate(250.462 15.71)">
        <path id="Trazado_116668" data-name="Trazado 116668" d="M1393.446,442.583a.757.757,0,0,1-.733-.572c-1.25-5,.1-13.277,2.942-18.079a.755.755,0,1,1,1.3.77c-2.672,4.512-3.944,12.27-2.774,16.941a.756.756,0,0,1-.55.916A.742.742,0,0,1,1393.446,442.583Z" transform="translate(-1392.245 -423.561)" fill="#384154"/>
      </g>
      <g id="Grupo_59917" data-name="Grupo 59917" transform="translate(148.218 146.104)">
        <path id="Trazado_116669" data-name="Trazado 116669" d="M946.778,1045.2a.373.373,0,0,1-.058,0c-10.971-.843-21.673-11.777-22.9-23.4a.755.755,0,0,1,1.5-.159c1.159,10.956,11.213,21.261,21.515,22.053a.755.755,0,0,1-.057,1.508Z" transform="translate(-923.813 -1020.963)" fill="#384154"/>
      </g>
      <g id="Grupo_59918" data-name="Grupo 59918" transform="translate(309.306 151.933)">
        <path id="Trazado_116670" data-name="Trazado 116670" d="M1662.6,1070.355a.755.755,0,0,1-.062-1.508c13.221-1.1,21-8.2,22.5-20.511a.755.755,0,0,1,1.5.183c-1.6,13.114-9.853,20.663-23.874,21.833C1662.638,1070.354,1662.617,1070.355,1662.6,1070.355Z" transform="translate(-1661.841 -1047.672)" fill="#384154"/>
      </g>
      <g id="Grupo_59919" data-name="Grupo 59919" transform="translate(199.058 126.579)">
        <path id="Trazado_116671" data-name="Trazado 116671" d="M1159.551,951.917a2.593,2.593,0,0,1-2.383-1.172c-.793-1.292-.358-3.935.243-7.592.582-3.539,1.241-7.552.794-10.781a.755.755,0,1,1,1.5-.208c.479,3.456-.2,7.588-.8,11.234-.464,2.825-.944,5.744-.446,6.557.316.518,1.511,1.049,5.969-1.2l.368-.182a23.986,23.986,0,0,0,3.593-2.193c2.581-1.8,5.015-3.5,9.186-2.112a.755.755,0,1,1-.478,1.433c-3.445-1.152-5.388.2-7.844,1.918a25.352,25.352,0,0,1-3.818,2.322l-.325.162C1163.948,950.689,1161.514,951.917,1159.551,951.917Z" transform="translate(-1156.737 -931.512)" fill="#384154"/>
      </g>
      <g id="Grupo_59920" data-name="Grupo 59920" transform="translate(264.142 132.046)">
        <path id="Trazado_116672" data-name="Trazado 116672" d="M1470.36,974.609c-1.108,0-2.352-.949-3.857-2.1-2.652-2.023-6.277-4.786-10.619-3.543a.755.755,0,0,1-.416-1.452c5.062-1.458,9.211,1.7,11.951,3.793,1.149.878,2.588,1.968,3.053,1.768.081-.034.5-.3.751-2.153.283-2.133-.452-7.8-1.1-12.8l-.093-.715a.756.756,0,1,1,1.5-.195l.093.715c.692,5.34,1.409,10.863,1.1,13.194-.261,1.945-.775,2.977-1.67,3.348A1.787,1.787,0,0,1,1470.36,974.609Z" transform="translate(-1454.921 -956.56)" fill="#384154"/>
      </g>
      <g id="Grupo_59921" data-name="Grupo 59921" transform="translate(232.494 90.669)">
        <path id="Trazado_116673" data-name="Trazado 116673" d="M1310.682,770.884a.755.755,0,0,1-.534-1.289c.71-.709,1.974-2.3,1.987-2.318a.755.755,0,1,1,1.183.939c-.054.069-1.332,1.677-2.1,2.448A.753.753,0,0,1,1310.682,770.884Z" transform="translate(-1309.927 -766.99)" fill="#384154"/>
      </g>
      <g id="Grupo_59922" data-name="Grupo 59922" transform="translate(207.789 101.409)">
        <path id="Trazado_116674" data-name="Trazado 116674" d="M1199.69,829.633a2.866,2.866,0,0,1-.72-.1c-3.059-.794-2.31-5.157-1.584-9.376.2-1.171.391-2.277.5-3.29a.755.755,0,1,1,1.5.162c-.115,1.061-.318,2.242-.514,3.384-.581,3.381-1.24,7.213.474,7.658.477.124.615-.013.667-.064.44-.423.752-1.907-.263-6.572a.756.756,0,0,1,1.477-.322c.7,3.2,1.22,6.65-.167,7.984A1.922,1.922,0,0,1,1199.69,829.633Z" transform="translate(-1196.74 -816.193)" fill="#384154"/>
      </g>
      <g id="Grupo_59923" data-name="Grupo 59923" transform="translate(0 69.503)">
        <path id="Trazado_116675" data-name="Trazado 116675" d="M245.505,671.736a.755.755,0,0,1,0-1.511l173.776-.21a.77.77,0,0,1,.773.755.741.741,0,0,1-.738.755l-6.147.007-167.662.2Z" transform="translate(-244.75 -670.016)" fill="#384154"/>
      </g>
      <g id="Grupo_59924" data-name="Grupo 59924" transform="translate(308.202 68.66)">
        <path id="Trazado_116676" data-name="Trazado 116676" d="M1657.54,667.863a.755.755,0,0,1,0-1.511l164.78-.2h0a.755.755,0,0,1,0,1.511l-164.781.2Z" transform="translate(-1656.784 -666.153)" fill="#384154"/>
      </g>
      <g id="Grupo_59925" data-name="Grupo 59925" transform="translate(309.083 37.03)">
        <path id="Trazado_116677" data-name="Trazado 116677" d="M1696.259,579.13a1.055,1.055,0,0,1-.294-.041c-1.518-.446-2.049-4.27-3.212-18.156-.642-7.657-1.434-17.106-2.585-19.086-.72,1.487-1.331,7.411-1.747,11.44-.919,8.915-1.4,12.326-2.842,12.779a1.217,1.217,0,0,1-1.338-.472c-1.477-1.709-2.132-8.372-3.033-19.142-.559-6.664-1.393-16.615-2.563-18.076-.934,1.28-1.726,8.5-2.311,13.839-.98,8.936-1.735,14.919-3.234,16.6a1.458,1.458,0,0,1-1.555.573c-1.391-.417-1.9-2.929-2.8-9-.444-2.986-1.189-7.983-2.01-8.429-.85.3-1.719,6.015-2.186,9.084-.633,4.155-1.232,8.079-2.375,9.555a.756.756,0,0,1-1.2-.926c.9-1.166,1.527-5.252,2.076-8.857.969-6.355,1.608-9.969,3.482-10.33a1.394,1.394,0,0,1,1.08.245c1.27.9,1.838,4.165,2.623,9.435.413,2.766,1.026,6.878,1.685,7.693l.052-.055c1.288-1.441,2.158-9.376,2.858-15.752,1.089-9.929,1.723-14.363,3.234-15.146a1.214,1.214,0,0,1,1.185.026c1.744.966,2.395,6.652,3.461,19.4.6,7.165,1.341,16,2.508,18.044.695-1.517,1.291-7.3,1.7-11.238.929-9.02,1.418-12.474,2.876-12.954a1.219,1.219,0,0,1,1.334.432c1.476,1.616,2.167,8.709,3.129,20.2.514,6.122,1.2,14.3,2.016,16.448,1.231-2.87,1.917-14.8,2.524-25.392.879-15.3,1.523-24.726,3.053-26.661a1.194,1.194,0,0,1,1.323-.517c1.521.457,2.054,4.231,3.222,17.928.711,8.333,1.518,17.778,2.855,20.018a2.671,2.671,0,0,0,.218.32c.594-.92,1.191-4.741,1.595-7.329.919-5.906,1.594-9.547,3.192-10.3a1.674,1.674,0,0,1,1.481-.026c1.242.594,1.775,2.563,2.539,5.727.549,2.269,1.3,5.377,2.343,5.7.781.246,1.527-1.81,2.122-3.461.7-1.945,1.359-3.781,2.635-4.288a1.947,1.947,0,0,1,1.649.117c1.617.819,2.37,4.281,3.334,9.469a31.872,31.872,0,0,0,1.377,5.759,5.458,5.458,0,0,0,.428-.851c1.357-3.249,2.039-13.277,2.64-22.125,1.049-15.44,1.58-19.677,3.318-20.076a1.113,1.113,0,0,1,.925.2c1.371,1.008,1.894,6.078,2.842,18.279.662,8.524,1.412,18.185,2.812,21.132a3.815,3.815,0,0,0,.319.564c.552-.9,1.156-4.209,1.568-6.462.891-4.87,1.507-7.883,2.879-8.441a1.336,1.336,0,0,1,1.313.185c1.605,1.143,2.232,5.425,3.072,12.342.452,3.719,1.135,9.339,2,9.865.878-.516,1.738-7.08,2.306-11.423.992-7.566,1.711-12.251,3.346-13.517a1.519,1.519,0,0,1,1.518-.291c1.411.537,1.97,3.2,2.839,7.849.562,3.008,1.411,7.556,2.488,8.006a.307.307,0,0,0,.286.015c.723-.348,1.409-2.757,1.911-4.515.854-2.993,1.66-5.819,3.584-6.089,2.11-.3,2.955,2.479,3.755,5.169.435,1.46,1.03,3.459,1.645,3.75.037.019.1.047.258-.019,1.077-.452,1.871-3.976,2.451-6.549.863-3.835,1.61-7.147,3.661-7.28,2.114-.167,2.831,3.019,3.652,6.671.59,2.633,1.325,5.91,2.488,6.4,1.021.429,1.858-1.189,2.932-3.527.868-1.891,1.686-3.677,3.008-4.248a2.381,2.381,0,0,1,2.105.04c1.679.875,2.3,3.666,2.361,3.981a.755.755,0,0,1-1.48.3c-.192-.921-.791-2.535-1.58-2.946a.859.859,0,0,0-.807.008c-.789.341-1.557,2.014-2.234,3.491-1.089,2.373-2.444,5.339-4.9,4.287-1.877-.8-2.6-4.035-3.371-7.463-.468-2.078-1.208-5.559-2.08-5.494-.922.06-1.775,3.844-2.284,6.1-.794,3.526-1.545,6.857-3.339,7.61a1.794,1.794,0,0,1-1.49-.007c-1.225-.58-1.791-2.482-2.446-4.685-.5-1.681-1.264-4.228-2.1-4.1-.95.133-1.753,2.95-2.34,5.007-.738,2.586-1.375,4.819-2.709,5.461a1.808,1.808,0,0,1-1.523.018c-1.708-.713-2.421-3.922-3.392-9.123-.444-2.384-1.189-6.375-1.894-6.716-1.313,1.051-2.151,7.452-2.824,12.594-1.114,8.493-1.787,12.26-3.572,12.682a1.334,1.334,0,0,1-1.1-.218c-1.354-.945-1.883-4.765-2.631-10.921-.527-4.338-1.244-10.25-2.389-11.246-.692.71-1.436,4.779-1.889,7.25-.943,5.157-1.459,7.643-2.887,7.832-1.017.146-1.629-1.093-1.849-1.557-1.521-3.2-2.25-12.587-2.955-21.665-.528-6.792-1.176-15.142-2.061-16.922-.869,1.7-1.5,10.975-2.01,18.5-.639,9.4-1.3,19.126-2.755,22.606-.4.963-1,2.046-1.962,1.955-1.359-.145-1.816-2.3-2.721-7.17-.581-3.128-1.459-7.855-2.53-8.4-.248-.123-.363-.078-.41-.06-.642.255-1.269,2-1.772,3.395-.854,2.375-1.831,5.066-3.991,4.393-1.862-.579-2.591-3.6-3.362-6.79-.45-1.858-1.065-4.4-1.722-4.718-.026-.012-.063-.03-.184.029-.989.467-1.838,5.914-2.346,9.167-.95,6.1-1.442,8.428-2.837,8.7-.652.12-1.237-.262-1.766-1.148-1.515-2.54-2.266-11.344-3.061-20.665-.546-6.4-1.214-14.235-2.035-16.259-1.25,2.825-1.967,15.319-2.551,25.467-.875,15.242-1.517,24.639-3.03,26.609A1.267,1.267,0,0,1,1696.259,579.13Z" transform="translate(-1660.819 -521.239)" fill="#384154"/>
      </g>
      <g id="Grupo_59926" data-name="Grupo 59926" transform="translate(22.012 45.534)">
        <path id="Trazado_116678" data-name="Trazado 116678" d="M404.277,608.674a1.211,1.211,0,0,1-.435-.082c-1.548-.6-2.091-4.637-3.049-14.4-.637-6.494-1.358-13.854-2.671-15.828-.3-.454-.466-.519-.467-.52-.439.3-1.138,3.264-1.555,5.034-.865,3.667-1.612,6.835-3.383,7.283-2.172.546-2.979-2.411-3.69-5.02-.369-1.354-.927-3.4-1.462-3.622-.055-.021-.158.03-.216.062-1.089.617-1.865,4.254-2.489,7.176-.9,4.222-1.68,7.868-3.811,7.95h-.074c-2.119,0-2.876-3.517-3.753-7.584-.617-2.865-1.386-6.431-2.518-7.1a.411.411,0,0,0-.313-.085c-.522.2-1.094,2-1.472,3.191-.769,2.423-1.642,5.169-3.871,4.631-1.934-.467-2.844-3.137-3.809-5.965-.712-2.088-1.6-4.687-2.63-4.687h0c-.928,0-1.52,2.477-1.994,4.464-.692,2.892-1.407,5.884-3.628,6.244-2.468.406-4.105-2.451-5.545-4.967-.91-1.591-1.85-3.237-2.724-3.594-.4-.164-.566-.055-.636-.009-.652.435-.965,2.362-.971,3.529a.756.756,0,0,1-.755.752h0a.756.756,0,0,1-.752-.758c0-.616.092-3.742,1.642-4.777a2.1,2.1,0,0,1,2.048-.134c1.355.555,2.38,2.347,3.464,4.243,1.2,2.09,2.547,4.456,3.991,4.225,1.228-.2,1.878-2.918,2.4-5.1.69-2.888,1.342-5.616,3.459-5.623h.008c2.112,0,3.058,2.774,4.059,5.711.715,2.1,1.606,4.712,2.733,4.985.884.219,1.535-1.916,2.077-3.621.628-1.976,1.169-3.683,2.371-4.144a1.807,1.807,0,0,1,1.618.193c1.7,1,2.446,4.439,3.23,8.08.516,2.393,1.377,6.392,2.281,6.392h.012c.957-.037,1.854-4.243,2.391-6.755.793-3.715,1.542-7.224,3.221-8.176a1.7,1.7,0,0,1,1.542-.142c1.217.508,1.737,2.413,2.339,4.619.422,1.548,1.126,4.149,1.862,3.953.881-.223,1.759-3.942,2.282-6.165.89-3.776,1.461-5.924,2.836-6.171,1.018-.178,1.692.834,1.914,1.168,1.522,2.288,2.2,9.2,2.916,16.517.488,4.969,1.145,11.678,1.993,13,1.339-1.779,2.267-11.788,3.017-19.881.891-9.61,1.733-18.687,3.36-20.945.578-.8,1.162-.846,1.546-.745,1.5.4,1.987,3.636,2.9,12.108.529,4.9,1.251,11.6,2.311,12.509.62-.658,1.219-4.222,1.62-6.614.785-4.679,1.355-7.577,2.654-8.374a1.435,1.435,0,0,1,1.214-.153c1.825.572,2.55,4.116,3.581,9.85.616,3.427,1.546,8.6,2.666,8.924a.164.164,0,0,0,.158-.022c.892-.537,1.627-4,2.218-6.787.842-3.971,1.569-7.4,3.218-8.349a1.714,1.714,0,0,1,1.569-.155c1.22.511,1.72,2.423,2.3,4.636.4,1.537,1.068,4.09,1.8,3.973.906-.17,1.769-3.212,2.34-5.224.772-2.721,1.438-5.072,2.8-5.595a1.7,1.7,0,0,1,1.565.2c1.61,1.014,2.231,4.363,3.064,9.759.466,3.014,1.244,8.06,2.26,8.256.776.162,1.879-4.617,2.386-6.915.9-4.1,1.759-7.981,3.6-8.832a1.68,1.68,0,0,1,1.465-.011c1.332.642,1.914,3.021,2.588,5.776.367,1.5,1.051,4.292,1.614,4.471a.575.575,0,0,0,.157-.084c1.131-.8,1.946-5.978,2.542-9.763.9-5.718,1.438-8.723,2.91-9.171a1.458,1.458,0,0,1,1.551.544c1.52,1.641,2.185,7.333,3.1,16.511.535,5.37,1.335,13.387,2.39,14.576.929-1.173,1.716-8.244,2.243-12.986,1.105-9.925,1.768-14.344,3.489-15a1.224,1.224,0,0,1,1.1.1c1.369.831,1.953,4.743,2.877,12.857.446,3.922,1.044,9.172,1.731,10.547,1.275-2.178,2.1-11.6,2.772-19.237,1.151-13.11,1.7-17,3.14-17.528a1,1,0,0,1,.891.106c1.337.867,2.09,6.653,3.36,25.792l.152,2.271a.756.756,0,0,1-1.508.1l-.151-2.274c-.463-6.979-1.389-20.922-2.458-24.105-.722,2.105-1.407,9.913-1.921,15.769-.976,11.125-1.731,18.549-3.262,20.3a1.247,1.247,0,0,1-1.365.48c-1.431-.447-1.927-3.659-2.882-12.049-.48-4.211-1.193-10.483-2.046-11.616-1.019,1.135-1.853,8.636-2.412,13.661-1.016,9.128-1.608,13.229-3.011,14.182a1.255,1.255,0,0,1-1.048.184c-1.859-.508-2.488-5.02-3.58-15.974-.633-6.347-1.42-14.247-2.705-15.634-.022-.024-.041-.043-.057-.058-.684.779-1.354,5.036-1.8,7.894-.913,5.8-1.626,9.68-3.166,10.763a1.624,1.624,0,0,1-1.556.263c-1.257-.471-1.788-2.407-2.552-5.527-.433-1.769-1.087-4.442-1.777-4.774-.025-.013-.06-.031-.176.022-1.161.536-2.085,4.727-2.759,7.785-1.048,4.755-1.885,8.5-4.147,8.074-1.962-.378-2.6-3.86-3.468-9.51-.55-3.56-1.233-7.99-2.375-8.709-.1-.064-.176-.088-.22-.071-.657.252-1.4,2.867-1.89,4.6-.869,3.061-1.689,5.954-3.514,6.3-2.1.4-2.834-2.385-3.538-5.075-.355-1.355-.89-3.4-1.421-3.625-.06-.024-.181.04-.232.069-1.065.614-1.857,4.352-2.494,7.354-.784,3.7-1.462,6.892-2.915,7.767a1.683,1.683,0,0,1-1.352.182c-1.928-.55-2.677-4.2-3.739-10.11-.6-3.325-1.5-8.349-2.545-8.676-.752.334-1.517,4.889-1.928,7.336-.781,4.656-1.289,7.316-2.626,7.832a1.385,1.385,0,0,1-1.4-.268c-1.461-1.156-2.069-5.889-2.894-13.547-.432-4-1.011-9.375-1.719-10.641-1.387,1.925-2.287,11.634-3.081,20.2-1.116,12.039-1.916,19.459-3.606,20.983A1.368,1.368,0,0,1,404.277,608.674Z" transform="translate(-345.6 -560.2)" fill="#384154"/>
      </g>
    </g>
  </g>
</svg>
