<svg xmlns="http://www.w3.org/2000/svg" xmlns:xlink="http://www.w3.org/1999/xlink" width="937.095" height="291.955" viewBox="0 0 937.095 291.955">
  <defs>
    <linearGradient id="linear-gradient" x1="1.005" y1="1" x2="0" y2="1" gradientUnits="objectBoundingBox">
      <stop offset="0" stop-color="#fef6e1"/>
      <stop offset="0.516" stop-color="#eee4cc"/>
      <stop offset="1" stop-color="#fef6e1"/>
    </linearGradient>
    <clipPath id="clip-path">
      <path id="Trazado_115519" data-name="Trazado 115519" d="M2079.2,1219.123v-41.26a2,2,0,0,0-2.029-1.959H1994.19a2,2,0,0,0-2.029,1.959v41.26Z" transform="translate(-1992.161 -1175.904)" fill="none"/>
    </clipPath>
    <clipPath id="clip-path-2">
      <path id="Trazado_115541" data-name="Trazado 115541" d="M1850.424,1219.123v-41.26a2,2,0,0,0-2.029-1.959h-82.976a2,2,0,0,0-2.029,1.959v41.26Z" transform="translate(-1763.39 -1175.904)" fill="none"/>
    </clipPath>
    <clipPath id="clip-path-3">
      <path id="Trazado_115568" data-name="Trazado 115568" d="M1609.683,1219.123v-41.26a2,2,0,0,0-2.029-1.959h-82.975a2,2,0,0,0-2.029,1.959v41.26Z" transform="translate(-1522.649 -1175.904)" fill="none"/>
    </clipPath>
    <clipPath id="clip-path-4">
      <path id="Trazado_115591" data-name="Trazado 115591" d="M1384.035,1219.123v-41.26a2,2,0,0,0-2.029-1.959H1299.03a2,2,0,0,0-2.029,1.959v41.26Z" transform="translate(-1297.001 -1175.904)" fill="none"/>
    </clipPath>
  </defs>
  <g id="Grupo_59250" data-name="Grupo 59250" transform="translate(-1095.306 -991.623)">
    <g id="Grupo_59206" data-name="Grupo 59206" transform="translate(1236.306 991.623)">
      <rect id="Rectángulo_6113" data-name="Rectángulo 6113" width="937.095" height="73.953" transform="translate(-141 218.002)" fill="url(#linear-gradient)"/>
      <g id="Grupo_59194" data-name="Grupo 59194" transform="translate(469.923 141.834)">
        <path id="Trazado_115424" data-name="Trazado 115424" d="M1930.5,1245.21a11.589,11.589,0,0,0-1-4.087,16.749,16.749,0,0,0-3.4-3.828,21.232,21.232,0,0,1-5.066-8.072c-.811-2.341-1.215-4.837-2.332-7.048-.683-1.35-1.614-2.557-2.388-3.856-1.832-3.071-2.829-6.7-5.313-9.271a11.138,11.138,0,0,0,2.518,8.814,14.866,14.866,0,0,1,1.788,2.173c.846,1.482.769,3.289.868,4.993a21.931,21.931,0,0,0,2.623,9.177c1.629,2.991,3.982,5.655,4.854,8.949.653,2.468.459,5.237,1.851,7.376a1.882,1.882,0,0,1,.361.739,1.649,1.649,0,0,1-.027.464q-.047.3-.094.6c-.317,2.02-.644,4.591,1.093,6.1,1.2,1.048,2.753,1.071,3.618-.321s.793-3.452.729-5.03C1931.079,1250.456,1930.8,1247.821,1930.5,1245.21Z" transform="translate(-1910.884 -1199.42)" fill="#e2b381"/>
        <path id="Trazado_115425" data-name="Trazado 115425" d="M1939.316,1239.392c-.676-2.339-1.725-4.566-2.25-6.942a32.687,32.687,0,0,1-.516-7.051q0-3.882-.005-7.763a29.144,29.144,0,0,0-.27-4.819c-.573-3.419-2.35-6.58-2.651-10.033-.13-1.493.021-3-.143-4.492a7.061,7.061,0,0,0-.707-2.475,1.1,1.1,0,0,0-1.979.056,10.049,10.049,0,0,0-1.062,5.894,24.066,24.066,0,0,0,1.119,3.478c1.732,5.148.812,10.846,2.152,16.11a23.946,23.946,0,0,1,1.087,4.785c.171,3.921-2.76,7.5-2.49,11.418.22,3.209,2.529,5.866,3.5,8.933.543,1.718.658,3.551,1.24,5.255.451,1.324,1.5,2.932,3.133,2.531,1.548-.382,1.08-1.645,1.011-2.852C1940.248,1247.341,1940.468,1243.38,1939.316,1239.392Z" transform="translate(-1916.57 -1195.226)" fill="#cea479"/>
        <path id="Trazado_115426" data-name="Trazado 115426" d="M1945.763,1242.551c-.068-1.216.756-1.827.926-3.032a30.211,30.211,0,0,1,.6-3.614c.543-1.848-.109-3.746.022-5.668q.357-5.239.716-10.479a136.758,136.758,0,0,1,1.76-16.222c.282-1.484.6-3.093-.068-4.449-.141-.285-.418-.589-.722-.493-.216.068-.322.306-.4.518-2.22,6.031-3.06,12.525-5.537,18.454a23.693,23.693,0,0,0-1.592,4.327,24.54,24.54,0,0,0-.119,5.532,26.066,26.066,0,0,1-.922,7.87,32.412,32.412,0,0,0-1.106,4.008,21.085,21.085,0,0,0,.121,5.174,79.3,79.3,0,0,1,.32,9.966c-.06,1.955,1.59,1.9,2.684.7.765-.84.758-1.762,1.019-2.807C1944.32,1248.907,1945.972,1246.272,1945.763,1242.551Z" transform="translate(-1919.473 -1196.242)" fill="#e2b381"/>
        <path id="Trazado_115427" data-name="Trazado 115427" d="M1929.509,1264.435c-1.459-2.344-4.367-3.677-5.3-6.276-.238-.662-.33-1.373-.621-2.013a6.544,6.544,0,0,0-3.548-2.88.3.3,0,0,0-.43.274h0a1.041,1.041,0,0,0,.451.878,5.835,5.835,0,0,1,2.327,3.172c.445,1.524.252,3.194.8,4.681.464,1.249,1.42,2.27,1.868,3.525a19.858,19.858,0,0,1,.56,3.6,3.8,3.8,0,0,0,1.832,2.988C1931.451,1274.228,1930.452,1265.949,1929.509,1264.435Z" transform="translate(-1913.531 -1212.826)" fill="#cea479"/>
        <path id="Trazado_115428" data-name="Trazado 115428" d="M1954.532,1261.375a9.882,9.882,0,0,1-.332,3.366,10.235,10.235,0,0,1-1.213,1.8c-1.472,2.081-2.006,5.029-4.267,6.2a.771.771,0,0,1-.481.116.737.737,0,0,1-.476-.483c-.555-1.291.067-2.745.436-4.1a1,1,0,0,0,.005-.72c-.125-.24-.408-.344-.6-.533a1.758,1.758,0,0,1-.273-1.531,34.687,34.687,0,0,1,.807-3.958,6.927,6.927,0,0,1,.848-2.118,9.4,9.4,0,0,1,1.786-1.767,21.156,21.156,0,0,0,6.18-9.119,5.984,5.984,0,0,1,1.034-2.16,1.724,1.724,0,0,1,2.159-.44c.468.329-1.448,3.41-1.672,3.779a12.2,12.2,0,0,0-1.007,3.147C1956.579,1255.726,1954.7,1258.3,1954.532,1261.375Z" transform="translate(-1921.925 -1210.54)" fill="#e2b381"/>
        <path id="Trazado_115429" data-name="Trazado 115429" d="M1950.593,1258.25a13.962,13.962,0,0,0,.978-3.328c.153-1.28-.05-2.589.169-3.859.281-1.633,1.234-3.069,1.705-4.658a30.844,30.844,0,0,0,.628-3.531c.585-3.372,2.171-6.666,1.716-10.057-.1-.738-.433-1.6-1.165-1.723a1.414,1.414,0,0,0-1.439,1.143,6.181,6.181,0,0,0,0,2.01,8.293,8.293,0,0,1-1.487,5.323c-1.042,1.474-2.553,2.583-3.49,4.125-1.15,1.891-1.307,4.2-1.894,6.335-1.167,4.246-4.093,7.95-4.627,12.321-.212,1.74.2,3.854,1.8,4.548C1948.138,1268.909,1949.54,1260.969,1950.593,1258.25Z" transform="translate(-1920.215 -1206.104)" fill="#cea479"/>
        <path id="Trazado_115430" data-name="Trazado 115430" d="M1937.7,1277.817h-10.66a1.13,1.13,0,0,0-1.1,1.392l3.886,16.379a1.128,1.128,0,0,0,1.1.869h12.805a1.129,1.129,0,0,0,1.1-.869l3.886-16.379a1.13,1.13,0,0,0-1.1-1.392Z" transform="translate(-1915.443 -1220.283)" fill="#f2d1aa"/>
      </g>
      <g id="Grupo_59195" data-name="Grupo 59195" transform="translate(303.716 120.226)">
        <path id="Trazado_115431" data-name="Trazado 115431" d="M1696.858,1250.052h-.59a34.692,34.692,0,0,0-1.257-6.473c-2.573-8.678-1.447-9.8-5.788-15.224s-4.662-16.672-4.662-16.672-2.09-12.775,0-18.4,2.251-11.248,7.315-17.194c0,0,.964,7.954,2.17,11.569s2.351,7.071,1.457,15.748-1.449,9.4-1.654,11.65.117,11.732-.365,13.3,2.813,12.412,3.054,17.072C1696.611,1246.826,1696.741,1248.423,1696.858,1250.052Z" transform="translate(-1675.733 -1167.813)" fill="#cea479"/>
        <path id="Trazado_115432" data-name="Trazado 115432" d="M1690.443,1267.894a6.277,6.277,0,0,0-3.614-2.963c-4.7-1.507-7.722-1.129-10.332-5.7s-3.333-11.132-4.2-12.412c0,0,1.886-.532,4.186,2.7s3.886,5.645,5.215,7.523,2.869,1.142,4.4,2.512c1.281,1.149,2.66,4,3.226,5.457a5.955,5.955,0,0,0,.723,1.336c.27.375.591.833.789,1.161a1.942,1.942,0,0,1,.143.331Z" transform="translate(-1672.293 -1189.262)" fill="#e2b381"/>
        <path id="Trazado_115433" data-name="Trazado 115433" d="M1720.75,1212.175c.483,6.187-3.456,5.7-3.617,9.641s-5.305,10.605-7.688,15.346c-1.24,2.465-1.7,6.235-1.852,9.285h-1.915c.741-7.72,3.875-13.094,5.748-17.4,2.412-5.544,2.773-8.074.724-12.413s.964-15.546-1.954-20.544-1.422-12.839-.751-15.852-.068-5.062-.671-8.238.671-7.791.671-7.791c.109,3.937,3.106,9.32,5.277,12.775s6.27,12.855,5.788,17.113-.241,4.579-.241,4.579C1721.8,1204.381,1720.268,1205.989,1720.75,1212.175Z" transform="translate(-1682.421 -1164.209)" fill="#cea479"/>
        <path id="Trazado_115434" data-name="Trazado 115434" d="M1709.544,1262.274c-.246.739-1.036,2.624-1.758,5.028h-1.175c.534-3.059,1.457-6.608,3.014-8.643,3.135-4.1,9.4-5.865,10.128-8.838s-.081-11.891,4.5-16.872c0,0-.644,5.546,0,7.031s6.109,8.395,2.894,14.18-10.45,5.062-12.7,6.348S1709.946,1261.069,1709.544,1262.274Z" transform="translate(-1682.704 -1185.064)" fill="#e2b381"/>
        <path id="Trazado_115435" data-name="Trazado 115435" d="M1710.6,1226.251c.081,5.946-4.582,8.195-4.5,11.489a29.206,29.206,0,0,1-1.849,9.48c-.559,1.679-.249,6.351-.151,10.737h-1.294a86.726,86.726,0,0,1-.565-9.933c.16-2.812-1.126-5.062-1.287-9.963s-1.206-9.32.965-15.507,1.769-13.578,10.852-20.407c0,0,1.608,7.231.4,11.168S1710.523,1220.305,1710.6,1226.251Z" transform="translate(-1680.87 -1175.719)" fill="#e2b381"/>
        <path id="Trazado_115436" data-name="Trazado 115436" d="M1699.218,1273.986h12.45a1.32,1.32,0,0,1,1.283,1.625l-4.538,19.129a1.317,1.317,0,0,1-1.283,1.015h-14.956a1.318,1.318,0,0,1-1.282-1.015l-4.538-19.129a1.32,1.32,0,0,1,1.282-1.625Z" transform="translate(-1676.548 -1197.514)" fill="#f2d1aa"/>
      </g>
      <g id="Grupo_59205" data-name="Grupo 59205" transform="translate(17.188)">
        <g id="Grupo_59198" data-name="Grupo 59198">
          <g id="Grupo_59196" data-name="Grupo 59196">
            <path id="Trazado_115437" data-name="Trazado 115437" d="M1454.038,1119.507h-181.49a11.58,11.58,0,0,1-11.569-11.564V1003.187a11.58,11.58,0,0,1,11.569-11.564h181.49a11.58,11.58,0,0,1,11.569,11.564v104.756A11.58,11.58,0,0,1,1454.038,1119.507ZM1272.548,996.06a7.137,7.137,0,0,0-7.131,7.127v104.756a7.137,7.137,0,0,0,7.131,7.127h181.49a7.137,7.137,0,0,0,7.131-7.127V1003.187a7.137,7.137,0,0,0-7.131-7.127Z" transform="translate(-1260.979 -991.623)" fill="#f9e2c5"/>
          </g>
          <path id="Trazado_115438" data-name="Trazado 115438" d="M1274.482,1117h181.49a7.137,7.137,0,0,0,7.131-7.127V1005.119a7.137,7.137,0,0,0-7.131-7.127h-181.49a7.137,7.137,0,0,0-7.131,7.127v104.756A7.137,7.137,0,0,0,1274.482,1117Z" transform="translate(-1262.912 -993.555)" fill="#f9e2c5" opacity="0.3"/>
          <g id="Grupo_59197" data-name="Grupo 59197" transform="translate(12.591 16.784)">
            <path id="Trazado_115439" data-name="Trazado 115439" d="M1495.866,1040.025a10.287,10.287,0,0,1-1.547,1.691c-.219.156-.906-.13-1.244-.391-1.1-.847-1.36-.86-2.514-.154a1.068,1.068,0,0,0-.54,1.483c.28.695.01.776-.669.918a10.74,10.74,0,0,0-2.7,1.13,3.161,3.161,0,0,1-2.156.673,3.748,3.748,0,0,0-3.207,1.45c-.072.08-.164.2-.151.289.079.551.186,1.1.28,1.626-.7.623-.844,1.589-1.643,2.182a16.562,16.562,0,0,0-1.792,2.139c-.351-1.852-.858-3.675.317-5.4a1.206,1.206,0,0,1,.208-.25c.66-.557,1.342-1.087,1.979-1.668a6.377,6.377,0,0,0,1.3-1.606l-1.459.646c-.1-.143-.212-.295-.319-.448-.4-.568-.983-.62-1.358-.16-.461.566-1.487.761-1.3,1.794-.576.063-1.246.338-1.7.134a1.775,1.775,0,0,0-1.459-.244,8.681,8.681,0,0,1-1.674.013c-.566.055-1.3.045-1.645.385-1.082,1.075-2.015,2.3-3.005,3.468l-.309-.291.317.667c.636.106,1.4.009,1.686.333a1.563,1.563,0,0,1,.382,2.006,1.747,1.747,0,0,0-.244.72c-.3,2.215-1.784,3.742-3.149,5.315-.265.306-.9.267-1.315.475a6.306,6.306,0,0,0-1.322.873c-.241.21-.286.678-.541.834-.811.5-.637.98-.225,1.662a1.985,1.985,0,0,1,.283,1.523c-.185.441-.825.692-1.268,1.025l-.245-.155c0-.377,0-.754,0-1.131,0-.453.2-.986-.518-1.149-.1-.022-.194-.4-.157-.591.159-.8-.27-.745-.772-.555a9.9,9.9,0,0,0-.966.493v-1.216l-1.687,1.184.534.888h1.576c.012.089.024.179.036.269a8.087,8.087,0,0,0-1.178.915,1.077,1.077,0,0,0-.16.849c.226.981.527,1.946.784,2.922a.633.633,0,0,1-.066.4,10.859,10.859,0,0,1-2.721,3.96,3.311,3.311,0,0,1-.855.341c-.834.339-1.666.682-2.584,1.059-.291-.472-.74-.585-1.326-.09-.675.571-.888,1.137-.515,1.842a4.8,4.8,0,0,0,.737,1.016,2.354,2.354,0,0,1-.509,3.5,9.157,9.157,0,0,0-1.03.8c-.433-.61-.806-1.169-1.221-1.7-.1-.127-.388-.247-.5-.192a.7.7,0,0,0-.366.5,13.09,13.09,0,0,0,.3,2.391c.283,1.081.7,2.127,1.095,3.275a2.511,2.511,0,0,1-1.859-2.193,13.859,13.859,0,0,0-.595-1.643,3.859,3.859,0,0,1-.211-.783c-.123-.962-.187-1.932-.344-2.888-.089-.547-.217-1.148-1.011-1.137-.095,0-.3-.26-.274-.35.391-1.431-.833-2.266-1.165-3.379-1.429-.114-2.13.9-2.948,1.709a22.511,22.511,0,0,0-1.778,1.822,3.009,3.009,0,0,0-.651,1.457,5.034,5.034,0,0,1-1.521,3.328,3.611,3.611,0,0,1-.437-.773c-.536-2.021-1.06-4.045-1.555-6.077-.111-.453-.224-.784-.768-.851a1.024,1.024,0,0,1-.6-.421c-.478-.671-.913-1.372-1.364-2.062-.422-.644-1.073-.3-1.623-.366a9.572,9.572,0,0,1-2.584-.272c-.8-.338-1.63-.6-2.4-.984a4.613,4.613,0,0,1-1.347-1.315c-.256-.317-.442-.78-.892-.465a1.016,1.016,0,0,0-.207.917,15.641,15.641,0,0,0,.881,1.84l.425-.339a1.285,1.285,0,0,1,.128.251c.079.341.147.683.219,1.025a11.122,11.122,0,0,0,1.431-.616c.208-.123.293-.453.357-.56.492.556.977,1.1,1.459,1.65.347.4.555.834.093,1.259-.692.637-.721,1.721-1.712,2.2-1.6.77-3.116,1.71-4.672,2.571-.17.094-.381.113-.554.2-.616.317-1,.167-1.043-.544a8.446,8.446,0,0,0-1.528-4.239,21.14,21.14,0,0,1-1.318-3.074,16.492,16.492,0,0,0-.883-1.524c-.621.093-.7.428-.527.864.385.986.79,1.964,1.186,2.945.042.1.125.217.113.316-.15,1.2.665,2.111.982,3.171a2.069,2.069,0,0,0,.592.9,3.3,3.3,0,0,1,1.395,2.111.876.876,0,0,0,.67.54c.964-.164,1.909-.44,3.042-.721a7.694,7.694,0,0,1-.387,1.716,12.166,12.166,0,0,1-3,4.36,13.62,13.62,0,0,0-2.578,3.1c-.672,1.03-.249,2.208-.057,3.343a13.373,13.373,0,0,1,.208,3.083c-.026.4-.58.782-.935,1.131-.216.213-.529.324-.768.519a2.082,2.082,0,0,0-.957,2.455,1.458,1.458,0,0,1-.763,1.869c-.265.133-.336.657-.488,1.006-.761,1.752-1.606,3.469-3.508,4.231a8.746,8.746,0,0,1-2.478.469c-.7.061-.824-.578-.956-1.092-.211-.828-.37-1.671-.575-2.5-.256-1.03-.543-2.054-.806-3.083a12.9,12.9,0,0,0-.7-2.678,3.717,3.717,0,0,1,.192-3.657c.642-1.154.278-2.207.095-3.256a5.878,5.878,0,0,0-1.108-2.514,3.046,3.046,0,0,1-.341-2.843c.293-1.33.061-1.639-1.275-1.693a.88.88,0,0,1-.607-.3,1.5,1.5,0,0,0-2.154-.613,2.9,2.9,0,0,1-2.543.511.578.578,0,0,0-.332.041c-.89.267-1.762.483-2.483-.387-.549-.662-1.147-1.285-1.682-1.956-.368-.462-.633-1.005-1.005-1.464a3.019,3.019,0,0,1-.46-3.094,4.229,4.229,0,0,0-.039-2.39,1.7,1.7,0,0,1,.011-.977c.545-1.115,1.151-2.2,1.765-3.282.1-.179.345-.276.522-.412a2.474,2.474,0,0,0,1.239-1.984c.02-.531.626-1.032.936-1.564a5.421,5.421,0,0,0,.777-1.589c.038-.2-.6-.536-.928-.809l-.349.153c.022-.8.048-1.607.063-2.411a10.929,10.929,0,0,0-.013-1.519c-.077-.624.252-.733.74-.7.593.034,1.183.1,1.776.12a1.287,1.287,0,0,0,1.261-1.966,6.006,6.006,0,0,0-1-1.1c-.2-.226-.382-.473-.571-.71.291-.072.58-.157.875-.211a3.206,3.206,0,0,1,.534,0v-.511a3.913,3.913,0,0,0,1.246-.455c.673-.616,1.2-1.394,1.893-1.982a19.35,19.35,0,0,1,2.238-1.425c.066-.849-1.307-2.253.709-3,.046.5.092.994.136,1.473l.512-.3.194.1c-.155.552-.311,1.1-.5,1.783l1.087-.482c.246.637.669.584,1.186.283.433-.254.828-.662,1.451-.215a.875.875,0,0,0,1.035-.822c.024-.659-.172-1.451.62-1.9l.857.646a4.4,4.4,0,0,0-.014-1.086c-.267-.862-.29-.855.4-1.409a5.509,5.509,0,0,1-.651-.212c-.573-.269-1.174-.532-.89-1.367a.267.267,0,0,0,0-.168c-.416-1.1.293-1.716,1.008-2.329.127-.109.339-.219.351-.343.031-.353.116-.9-.068-1.035a.659.659,0,0,0-1.067.412c-.14.839-.795,1.186-1.273,1.726a5.724,5.724,0,0,0-.954,1.548.954.954,0,0,0,.2.888c.745.524.346.995.059,1.522a3.413,3.413,0,0,0-.615,1.4,1.19,1.19,0,0,1-.814,1.257,4.191,4.191,0,0,0-.795.665c-.109-.309-.2-.526-.263-.75-.131-.462-.2-.946-.379-1.39-.476-1.2-.548-1.21-1.6-.514a.832.832,0,0,1-1.35-.522,13.186,13.186,0,0,1-.18-2.325,1.69,1.69,0,0,1,.548-.984,32.369,32.369,0,0,0,2.395-2.242,14.934,14.934,0,0,0,1.681-2.776c.192-.379-.009-.974.209-1.317s.78-.435,1.113-.726a3.6,3.6,0,0,1,2.69-.791c.5-.345,1.03-.986,1.358-.894.862.24,1.96-.522,2.6.635l-.375.456c.155.054.273.086.383.135,1.427.633,2.88,1.219,4.263,1.937.35.182.768,1.021.661,1.152a4.29,4.29,0,0,1-1.409.921c-.144.074-.385-.066-.581-.065-.4,0-.954-.533-1.09.366-.172,1.145-.1,1.328.826,1.533.271-.261-.472-1.051.443-.936a4.064,4.064,0,0,1,1.14.552c.1-1.363,1-2.008,2.2-1.583v-2.372a2.317,2.317,0,0,1,.655.011c.437.124.76.3.3.827-.139.157,0,.56.017.85a2.833,2.833,0,0,0,.87-.2c.646-.393,1.228-.9,1.884-1.27a5.822,5.822,0,0,1,1.3-.378l-.112.591,3.653-.8c-.288-.415-.612-.881-.937-1.346l.112-.137a2.722,2.722,0,0,0,.658.4,8.38,8.38,0,0,0,1.066.128,3.027,3.027,0,0,1,.94.178c.695.353,1.355.775,2.078,1.2.045-.144.133-.289.1-.331a2.423,2.423,0,0,1-.632-2.048,1.209,1.209,0,0,1,.372-.875,4.514,4.514,0,0,0,.707-1.126,1.17,1.17,0,0,1,1.581-.344c.191.147.114.66.135,1.007.02.3,0,.608.009.913,0,.249.014.5.031.747.045.658.127,1.316.127,1.974a2.014,2.014,0,0,1-.242.946,14.725,14.725,0,0,1-.915,1.306c.695.243,1.909-.752,1.9-1.547a6.672,6.672,0,0,0-.177-.99c-.063-.374-.129-.748-.162-1.126-.012-.132.107-.272.1-.407a4.636,4.636,0,0,1-.054-1.484c.137-.419.605-.729.924-1.083.387.4-.567,1.246.27,1.635l.789-1.571,2.192.823a7.642,7.642,0,0,1-.605-1.139c-.17-.5.064-.815.618-.846.51-.027,1.021-.042,1.528-.1.48-.052.753-.21.645-.833-.046-.26.332-.767.628-.885,1.213-.483,2.466-.865,3.709-1.27a.669.669,0,0,1,.4.039,2.444,2.444,0,0,0,2.118-.9,1.522,1.522,0,0,1,1.926-.934c.176.068.273.336.408.511a2.208,2.208,0,0,0,.231.276c.2.188.419.365.706.612.89-.192,1.939-.49,2.77.517.525.635.472,1.066-.191,1.535-.712.5-1.427,1-2.213,1.549.165.075.265.145.286.126a1.227,1.227,0,0,1,1.667-.157c.578.334,1.43.162,2.138.316.619.134,1.2.452,1.812.609a11.72,11.72,0,0,0,1.518.2l.431-.955c.612.143,1.111.294,1.621.371a1.262,1.262,0,0,1,.96,1.61c-.269.906.284,1.21.918,1.657l.649-.9h3.723c-.215-1.149.146-1.5,1.326-1.255,1.11.231,2.221.467,3.321.743.157.039.254.319.375.49.045.063.068.17.125.191.857.308,1.5,1.247,2.6.875a2.9,2.9,0,0,1,.844-.08c1.151-.026,1.586.333,1.762,1.4.973.189,1.923.42,2.886.536.321.039.674-.226,1.019-.33.254-.077.52-.118.781-.175l.069.235-.589.292a4.393,4.393,0,0,0,.662.566.679.679,0,0,0,.537.021c.089-.04.159-.313.114-.437-.31-.856.113-.721.745-.711,2.273.037,4,1.251,5.771,2.44C1493.716,1038.691,1494.783,1039.338,1495.866,1040.025Zm-97.687,22.813c.651.292,1.076.545,1.621.1a2.747,2.747,0,0,1,1.273-.616c1.327-.185,2.668-.283,4.007-.366.177-.011.524.258.534.412a13.273,13.273,0,0,1-.088,1.659l-.238.187c.532.234,1.073.451,1.593.708.288.143.534.369.813.531a19.588,19.588,0,0,0,1.732.929c.063.029.415-.329.451-.538.155-.911.6-1.06,1.459-.709,1.15.469,2.247,1.34,3.647.758.217-.089.542.123.816.123.316,0,.86,0,.91-.144a19.366,19.366,0,0,0,.833-2.972c.081-.444-.219-.7-.781-.461a2.669,2.669,0,0,1-1.1,0c-.162-.01-.332-.127-.48-.1a1.56,1.56,0,0,1-2.009-1.407,2.687,2.687,0,0,0-.3-.942,1.156,1.156,0,0,0-.613-.4c-.263.27-.7.809-.635.894.67.821-.048,1.227-.449,1.825-.179-.2-.381-.34-.451-.526-.373-.989-.71-1.992-1.067-2.986a.754.754,0,0,0-.181-.281c-.687-.658-1.371-1.321-2.082-1.953a.806.806,0,0,0-.555-.092c-.06.005-.177.275-.135.343a13.733,13.733,0,0,0,1.182,1.787,9.042,9.042,0,0,0,1.246,1.065l-1.689,2.543-.812-.635,1.393-.853a11.8,11.8,0,0,0-.862-1.356,23.736,23.736,0,0,0-1.842-1.957.869.869,0,0,0-.77-.177c-.625.3-1.173.767-1.954.5-.126-.043-.468.136-.483.243-.1.752-.714,1.012-1.2,1.432a2.421,2.421,0,0,0-.607,1.151,2.586,2.586,0,0,1-1.38,1.774A6.791,6.791,0,0,0,1398.179,1062.839Zm20.759-3.5a6.593,6.593,0,0,0,.993-.162.664.664,0,0,0,.282-1.193,10.9,10.9,0,0,0-1.6-1.236,1.193,1.193,0,0,0-.943-.158c-.848.381-1.165-.131-1.487-.729-.372-.692-.712-.738-1.169-.081-.376.541-.6,1.188-.989,1.72a.934.934,0,0,0,.01,1.359,1.175,1.175,0,0,0,1.623.132,1.9,1.9,0,0,1,2.153-.089A10.989,10.989,0,0,0,1418.938,1059.336Zm5.926-2.422a13.147,13.147,0,0,0,1.181-.675.662.662,0,0,0,.281-.511.837.837,0,0,0-.429-.536c-1.015-.367-2.71,1.106-2.461,2.158.144.612.482,1.178.653,1.787a2.607,2.607,0,0,1,.124,1.339,1.65,1.65,0,0,0,1.424,2.074c.906.019,1.23-.678.768-1.8-.245-.6-.551-1.129.3-1.319Zm-10.336,29.077c.833.445,1.055.127,1.114-.354.021-.17-.134-.362-.21-.544Zm38.537-35.08c1.261-.556,1.479-.87,1.365-1.826Z" transform="translate(-1313.246 -1018.601)" fill="#f9e2c5"/>
            <path id="Trazado_115440" data-name="Trazado 115440" d="M1279.053,1047.109c.753-.783,1.533-1.453,2.891-.736-.131-.4-.132-.647-.248-.729-.664-.467-1.359-.888-2.031-1.344a.537.537,0,0,1-.246-.375c.01-.1.209-.244.342-.268.627-.111.811-.542,1.136-1.046.41-.636,1.293-.969,1.978-1.423.229-.153.477-.275.715-.413.141-.082.3-.26.419-.234.7.159,1.4.359,2.09.557.129.036.24.184.361.186,1.42.029,2.844-.022,4.258.078a11.119,11.119,0,0,1,2.539.548,1.726,1.726,0,0,0,1.547-.063,20.817,20.817,0,0,1,3.1-.9c.341-.11.6-.46.982-.763a2.581,2.581,0,0,1,.29.344c.6.9.639.9,1.243-.008.258.4.506.676,1,.231.17-.153.586-.086.876-.04.963.155,1.923.331,2.876.536a1.968,1.968,0,0,1,.724.375c.332.249.669.8.939.766a7.068,7.068,0,0,0,1.919-.713c.347-.162.619-.494.97-.634a.832.832,0,0,1,.7.178,3.235,3.235,0,0,0,3.41.445c.013-.054.056-.13.034-.157a1.334,1.334,0,0,1,.191-1.838c.978-1.037.7-2.293.747-3.471.063-1.749.021-1.77,1.753-1.723.223.006.445,0,.943,0a6.629,6.629,0,0,1-1.032,1.6c-.425.353-.511.657-.312,1.078.364.772.752,1.534,1.18,2.271.081.139.394.165.606.2.913.162,1.187.5,1.281,1.439a1.683,1.683,0,0,0,.509.853c.338-.805,1.159-1.408.741-2.426-.039-.094.279-.479.372-.459a3.814,3.814,0,0,1,1.3.468c.389.261.763.659.292,1.2a.184.184,0,0,0-.016.162c.585,1.281-.394,1.614-1.228,2.045a6.525,6.525,0,0,0-.6.39c.263.821.925.911,1.532,1.146a13.675,13.675,0,0,1,1.666.913l.008.245c-.282.061-.563.133-.848.18-.241.04-.627-.04-.708.087a1.259,1.259,0,0,1-1.885.433l-.178-1.708a7.074,7.074,0,0,0-3.338,4.006c-.193.68-.49,1.574.706,1.781a.11.11,0,0,1,.071.042c.886,1.652,2.883,1.436,4.165,2.452.37.294,1.022.233,1.638.352a3.357,3.357,0,0,0,1.6,3.025c1.021-.974.136-1.919-.051-2.926l.449-.311a1.617,1.617,0,0,0,.2-2.669c-.2-.211-.451-.637-.367-.826.4-.892-.091-1.685-.194-2.507-.076-.607.073-.784.65-.709.274.036.566-.029.832.031a5.433,5.433,0,0,1,1.285.41,16.018,16.018,0,0,1,1.479.974,2.689,2.689,0,0,0,.271,1c.281.415.747,1,1.115.985a1.175,1.175,0,0,0,.984-1.17,4.707,4.707,0,0,1,.244-.862c.7,1.185,1.338,2.2,1.906,3.242.337.621.548,1.234,1.418,1.382a2.43,2.43,0,0,1,1.684,2.539c-.011.678.163,1.774.57,1.95.68.292.7.861,1.046,1.266.108.127.039.4.052.614a2.068,2.068,0,0,1-.542.019,12.167,12.167,0,0,0-1.187-.325,10.034,10.034,0,0,0-1.438.049l.925-2.815c-.134-.02-.247-.07-.28-.038a4.97,4.97,0,0,1-3.062,1.007,2.806,2.806,0,0,0-1.17.662c1.2-.125,1.423.04,1.12,1.089a1.108,1.108,0,0,0,.641,1.388c.559.35.879-.042,1.166-.468.058-.087.176-.134.323-.24l.64.585c-.948.66-1.8,1.3-2.708,1.833-.135.08-.552-.316-1.017-.6-.334.207-.867.5-1.351.859a.826.826,0,0,0-.332.638c.187.784-.325,1.166-.821,1.533a3.548,3.548,0,0,0-1.354,3.347,1.2,1.2,0,0,1-.127.632,3.206,3.206,0,0,1-.543.638c-2,2.006-1.987,2-1.062,4.662a3.324,3.324,0,0,1,.1,1.4c-.868-.245-.975-1.014-1.3-1.627-.209-.4-.534-1.094-.729-1.067-.826.111-1.862-.945-2.517.391-.076.155-.657.212-.914.1-1.147-.486-1.891.136-2.591.866a1.15,1.15,0,0,0-.318.763c.1,1.631-.206,3.358,1.13,4.715a1.127,1.127,0,0,0,1.305.44c.793-.24,1.376-.424,1.484-1.469.077-.743.924-.6,1.553-.547-.133,1.1-.26,2.154-.4,3.338.49-.046.9-.079,1.3-.125.883-.1,1.255.214,1.305,1.1.051.911-.2,1.916.68,2.586.23.174.737.35.858.24.8-.724,1.324-.215,1.982.486a3.964,3.964,0,0,1,2.533-2.531l.127.562.2.125c.112-.222.225-.442.3-.585.765.318,1.409.627,2.084.844a1.374,1.374,0,0,0,.931-.049c.677-.327,1.055.015,1.451.476.194.226.5.359.688.587.915,1.091,2.207,1.315,3.482,1.686,1.033.3,1.278,1.434,1.581,2.327a1.264,1.264,0,0,0,.923.93c.7.24,1.33.652,2.023.9.493.177,1.049.168,1.558.31a8.207,8.207,0,0,1,1.347.538c.224.107.382.362.608.449.487.189,1.122.226,1.052.954a4.443,4.443,0,0,1-.413,2.164,5.781,5.781,0,0,0-1.342,3.96,8.483,8.483,0,0,1-.829,3.078,1.6,1.6,0,0,1-1.023.725,2.965,2.965,0,0,0-2.423,2.8,5.138,5.138,0,0,1-.712,1.769c-.375.711-.853,1.367-1.239,2.073a1.661,1.661,0,0,1-1.781,1,5.072,5.072,0,0,1,.045,1.3,1.848,1.848,0,0,1-1.614,1.42,1.1,1.1,0,0,0-.759.6c-.141.612-.417.966-1.065.992a4.2,4.2,0,0,1-1.041,3.014.819.819,0,0,0,.137.78c.679.412.406.811.089,1.251-.164.228-.327.457-.474.7a1.951,1.951,0,0,0-.168,2.162c.364.712.572,1.431,1.608,1.758-.686.31-1.24.8-1.646.695a7,7,0,0,1-2.286-1.16c-.249-.178-.19-.77-.3-1.166a3.821,3.821,0,0,0-.276-.677c-.153-.31-.482-.623-.458-.912.048-.608.026-1.242.077-1.839.078-.9-.227-1.8.568-2.531.02-.018,0-.129-.038-.156-.877-.662-.218-1.488-.27-2.243a13.356,13.356,0,0,1,.637-4.394.846.846,0,0,0,.02-.169c.142-2.5.307-5.006.416-7.511a2.474,2.474,0,0,0-1.356-2.6,5.891,5.891,0,0,1-2.593-2.978c-.545-1.04-1.225-2.009-1.836-3.014a.757.757,0,0,1-.124-.391c.063-1.646-.087-3.337,1.088-4.737a2.519,2.519,0,0,0,.066-2.578c-.214-.313-.483-.589-.784-.951l-.6.9a21.49,21.49,0,0,1-2.519-1.438c-.457-.341-.68-.984-1.052-1.455a1.656,1.656,0,0,0-.614-.373c-.788-.371-1.573-.751-2.377-1.083a4.87,4.87,0,0,0-1.122-.263,8.54,8.54,0,0,1-1.684-.224,28.784,28.784,0,0,1-3-1.376c-.239-.123-.54-.469-.522-.688a2.814,2.814,0,0,0-1.113-2.193c-.626-.673-1.248-1.351-1.892-2.007a1.822,1.822,0,0,0-.94-.508q.867,1.521,1.734,3.041l-.3.193c-.412-.529-.818-1.062-1.241-1.583a3.868,3.868,0,0,0-.53-.528c-.342-.284-1.046-.352-.607-1.081.023-.038-.063-.15-.111-.219-.632-.922-1.25-1.854-1.911-2.754a1.574,1.574,0,0,0-.734-.527,2.93,2.93,0,0,1-1.693-1.663,15.12,15.12,0,0,1-1.353-2.58,17.277,17.277,0,0,1-.423-3.508,3.542,3.542,0,0,0-1.634-2.994c-.4-.256-.8-.55-.332-.986-.469-.55-.917-1.062-1.349-1.587a12.935,12.935,0,0,0-.882-1.108,1.238,1.238,0,0,0-.754-.277,3.52,3.52,0,0,0-.908.237c.074-.447.124-.739.181-1.077a7.562,7.562,0,0,1-2.247-1.8c-.738-1.028-2.094-1.24-3.324-1.463-.742-.134-1.49-.234-2.306-.36-.145.619-.608.7-1.291.577-.978-.182-1.135.088-1.458,1.11a4.948,4.948,0,0,1-1.071,1.49,5.661,5.661,0,0,1-3.427,2.313,11.375,11.375,0,0,1,.94-1.094c.272-.24.656-.354.924-.6.387-.349.736-.8.323-1.32-.365-.459-.842-.792-1.472-.385-.137.089-.281.168-.491.293-.241-.592-.472-.988-1.246-1.091-.5-.066-1.023-.94-1.257-1.558-.132-.348.281-.921.5-1.367.056-.115.337-.1.469-.2.339-.263.653-.557.978-.84-.238-.134-.5-.412-.708-.379A2.207,2.207,0,0,1,1279.053,1047.109Zm43.84,12.7c-.513-1.387-1.445-1.617-2.433-.59a3.915,3.915,0,0,0-.479.829c.31-.118.619-.238.93-.353a1.408,1.408,0,0,1,.229-.032C1321.611,1060.676,1322.266,1059.954,1322.893,1059.811Zm.837,2,.749.59.62-1.767-1.369-.21Zm-1.722,1.681.26.009v-2.487A2.087,2.087,0,0,0,1322.009,1063.489Zm-19.877-17.915c.486-.084.612-1.182,1.126-.277l.539-.818a4.992,4.992,0,0,0-.718-.451c-.138-.059-.457-.033-.484.036C1302.421,1044.508,1302.306,1044.975,1302.131,1045.574Zm5.676,2.812-1.191-.4-.613,1.11C1306.964,1049.591,1307.135,1048.638,1307.807,1048.385Zm8,6.718-.262.158c-.1.608.3.906.94,1.057Z" transform="translate(-1279.053 -1021.405)" fill="#f9e2c5"/>
            <path id="Trazado_115441" data-name="Trazado 115441" d="M1357.022,1033.807c.2-1.12-.734-1.313-1.424-1.809l.854-.5-1.393-.68a2.638,2.638,0,0,1-.114-.733c.1-1.514-.827-2.472-1.813-3.377a3.069,3.069,0,0,0-2.9-.568c-.9.208-1.658.306-2.213-.615-.085-.141-.334-.183-.561-.3l.59-.537c-.386-.21-.7-.373-1-.549-.357-.206-.459-.484-.036-.684a12.123,12.123,0,0,1,1.954-.769c.453-.124,1-.137.954-.717-.02-.264-.468-.495-.759-.776a2.4,2.4,0,0,1,2.114-1.266c.467.051.619-.059.6-.526-.006-.176.131-.485.258-.518a22.784,22.784,0,0,1,3.133-.665,4.894,4.894,0,0,1,1.625.467l-.307-.977,1.772.777c.03-.051.089-.107.079-.142-.352-1.248-.35-1.234.929-1.4,1.905-.25,3.8-.6,5.713-.758a5.112,5.112,0,0,1,3.635.751,1.893,1.893,0,0,0,.9.2c.122.7.219,1.267.316,1.83.571-.025,1.094-.043,1.615-.075a.782.782,0,0,0,.391-.1c.984-.7,1.2-.718,2.326-.168,0,.055.023.134,0,.16-.9.855-1.824,1.693-2.715,2.562a2.483,2.483,0,0,0-.75,1c-.074.287.227.665.341,1.01a3.4,3.4,0,0,0,.211.745c.1.161.354.228.654.4l-1.342.51c.311.366.679.619.756.941.068.283-.188.644-.329,1.052l.377.36c-.27.484-.509.913-.75,1.342q-.384.686-.773,1.374c.8,1.395.309,2.566-1.428,3.381a2.911,2.911,0,0,1-.719.256,3.592,3.592,0,0,0-2.867,1.857,2.165,2.165,0,0,1-1.345.764,1.772,1.772,0,0,0-1.468,1.424c-.256,1.026-.6,2.03-.876,3.051-.159.589-.375.731-1.022.509a4.549,4.549,0,0,1-2.994-3.3,3.984,3.984,0,0,0-.72-1.321A1.784,1.784,0,0,1,1357.022,1033.807Z" transform="translate(-1299.587 -1015.846)" fill="#f9e2c5"/>
            <path id="Trazado_115442" data-name="Trazado 115442" d="M1480.7,1136.952c1-.835.637-1.986.548-3a8,8,0,0,1,.07-3.028,2.236,2.236,0,0,1,2.2-1.846,11.107,11.107,0,0,0,2.456-.7c.2-.068.34-.356.447-.573.124-.251.135-.616.552-.281.031.024.18-.067.251-.13.554-.5,1.1-1,1.684-1.535a3.963,3.963,0,0,1,.435.468c.353.6.633.651,1.126.058a8.618,8.618,0,0,1,1.512-1.193l1.961.871c-.185.537-.675,1.215-.513,1.65a7.767,7.767,0,0,0,1.479,1.9c1.377-1,1.046-2.684,2.028-3.822a2.335,2.335,0,0,1,.135.527c-.038,1.5.985,2.834.647,4.373-.011.052-.01.144.02.164.936.6.838,1.746,1.345,2.581a5.159,5.159,0,0,1,.875,2.39,6.078,6.078,0,0,1-1.277,3.952c-.639.816-1.154,1.728-1.751,2.578a1.626,1.626,0,0,1-.6.484c-.247.122-.571.1-.8.247a.782.782,0,0,1-1.027-.03c-.53-.351-1.246-.41-1.813-.72a1.262,1.262,0,0,1-.616-.9c.038-1.062-.909-1.309-1.414-1.915-.143-.173-.368-.329-.413-.525a2.251,2.251,0,0,0-2.654-1.9c-.931.138-1.841.415-2.763.616a1.319,1.319,0,0,1-.584.024,2.946,2.946,0,0,0-1.973.147C1481.474,1138.213,1481.02,1137.669,1480.7,1136.952Z" transform="translate(-1340.228 -1048.929)" fill="#f9e2c5"/>
            <path id="Trazado_115443" data-name="Trazado 115443" d="M1333.238,1025.337l.875-.58c-.171-.4-.53-.9.456-1.04l-.424-.182c.133-.309.184-.716.414-.908.8-.665.777-.649,0-1.281-.279-.226-.3-.767-.443-1.164l.2-.136c-.781-.286-1.576-.543-2.337-.875-.227-.1-.364-.4-.542-.612.257-.115.523-.215.77-.348.656-.355,1.577-.031,2.071-.829a.58.58,0,0,1,.524-.194c.8.439,1.287-.2,1.869-.488a11.61,11.61,0,0,1,4.833-.967,23.6,23.6,0,0,1,3.406.132,11.662,11.662,0,0,1,2.01.6c-.851.735-1.652,1.439-2.468,2.125-.453.38-.915.754-1.4,1.089-.591.407-1.228.75-1.816,1.161-.363.254-.772.422-.745,1.078a2.29,2.29,0,0,1-.717,1.342,9.853,9.853,0,0,1-1.375,1.089l.681.738a6.624,6.624,0,0,1-1.458.658,9.135,9.135,0,0,1-1.95.058c-.809-.021-1.618-.084-2.427-.129C1333.245,1025.564,1333.242,1025.45,1333.238,1025.337Z" transform="translate(-1294.947 -1015.717)" fill="#f9e2c5"/>
            <path id="Trazado_115444" data-name="Trazado 115444" d="M1349.975,1040.4c-.107.263-.241.662-.427,1.035-.266.532-.579.918-1.25.424-.169-.124-.534.021-.809.042.157.193.276.464.479.566,1.1.55,1.239,1.494.267,2.213l.229.745c-.16.039-.316.134-.4.09-.982-.493-2.189-.426-3.023-1.353-.266-.295-.961-.287-1.455-.27s-1.223.48-1.411-.16c-.21-.712.509-.848,1.119-.871a.979.979,0,0,0,.4-.109c.238-.578.375-.974.559-1.348a1.085,1.085,0,0,0-.32-1.439,6.153,6.153,0,0,0-3.421-1.547,10.742,10.742,0,0,0-4.032.024c-.922.277-1.488-.286-1.8-1.456a1.934,1.934,0,0,1,1.162-2.359,6.384,6.384,0,0,1,2.218-.476c.353.015.713.658,1,1.064.129.18.094.476.157.857a8.1,8.1,0,0,0,1.03-.5,1.716,1.716,0,0,1,2.359.3c.3.385.52.442.908.24.117-.061.339-.127.395-.072.97.953,2.86.818,3.1,2.66a.758.758,0,0,0,1,.663.979.979,0,0,1,.609.18C1349.057,1039.787,1349.476,1040.076,1349.975,1040.4Z" transform="translate(-1295.906 -1021.308)" fill="#f9e2c5"/>
            <path id="Trazado_115445" data-name="Trazado 115445" d="M1314.537,1039.7l.407-.725a6.813,6.813,0,0,1-1.294-1.15,1.744,1.744,0,0,1-.19-1.27c.15-.578,1.469-1.113,2.111-1.021.241.034.509-.1.745-.052a3.03,3.03,0,0,1,.716.359c.065-.176.134-.363.265-.715l1.446.973c-.065-.148-.136-.323-.215-.493a1.278,1.278,0,0,1,.612-1.713.677.677,0,0,1,.548-.007.642.642,0,0,1,.158.505,2.368,2.368,0,0,0,1.913,2.667c.5.135,1.333.006.721,1.135-.546,1.006-.463,1.25-1.606.979-.84-.2-1.319.366-1.9.674-.823.433-1.572.958-2.458.146-.089-.081-.327.02-.488-.006C1315.579,1039.91,1315.137,1039.814,1314.537,1039.7Z" transform="translate(-1289.478 -1021.212)" fill="#f9e2c5"/>
            <path id="Trazado_115446" data-name="Trazado 115446" d="M1498.679,1121.231l.6-.426c.025-1.172-.818-1.656-1.645-1.967a1.625,1.625,0,0,1-1.147-1.462,2.726,2.726,0,0,0-.216-.557c.424-.459.938-.558,1.27-.027a4.185,4.185,0,0,1,.263,1.447c.162-.039.324-.03.408-.106.812-.74,1.537-.533,2.3.115.643.547,1.41.956,2.015,1.537a2.3,2.3,0,0,1,1.044,2.091c-.074.568.511,1.221.823,1.89a1.863,1.863,0,0,1-1.471-.936c-.594-1.113-.651-1.093-1.784-.546a.812.812,0,0,1-.633.036C1499.9,1122.006,1499.332,1121.629,1498.679,1121.231Z" transform="translate(-1344.953 -1046.273)" fill="#f9e2c5"/>
            <path id="Trazado_115447" data-name="Trazado 115447" d="M1481.173,1112.5h.689l2.713-3.188,1.129.576c-.2.438-.559.883-.549,1.319.009.42.4.831.527,1.064-.27.877-.532,1.629-.727,2.4-.157.619-.3,1.1-1.124.771-.317-.127-.733.019-1.076-.07A3.011,3.011,0,0,1,1481.173,1112.5Z" transform="translate(-1340.369 -1044.113)" fill="#f9e2c5"/>
            <path id="Trazado_115448" data-name="Trazado 115448" d="M1445.084,1033.17c-.954.1-1.641.21-2.168-.558-.2-.289-.634-.417-.876-.564a15.334,15.334,0,0,1,1.129-2.176c1.024-1.389,1.833-3.047,3.758-3.475.162-.036.334-.036.492-.082.616-.175,1.229-.362,1.842-.547.444-.134.886-.276,1.329-.414l.2.407c-.41.281-.8.6-1.234.837a19.8,19.8,0,0,0-3.246,1.787,11.584,11.584,0,0,0-2.18,2.858c-.154.249.16.823.326,1.22C1444.541,1032.676,1444.771,1032.83,1445.084,1033.17Z" transform="translate(-1328.501 -1018.641)" fill="#f9e2c5"/>
            <path id="Trazado_115449" data-name="Trazado 115449" d="M1328,1019.538l3.138,1.933c.1.351.065,1.157,1.061,1.167a19.634,19.634,0,0,1-1.827,1.558c-.729.486-1.836-.012-2.648-1.064a4.792,4.792,0,0,0-.614-.649,1.246,1.246,0,0,1,.123-2.022A5.605,5.605,0,0,0,1328,1019.538Z" transform="translate(-1293.493 -1016.876)" fill="#f9e2c5"/>
            <path id="Trazado_115450" data-name="Trazado 115450" d="M1400.147,1060.909c.107-.826.189-1.555.3-2.278a.714.714,0,0,1,.261-.445c.572-.381.579-.71,0-1.061-.182-.111-.337-.268-.52-.38-.8-.49-.242-1.381-.66-2l1.539-1.27c.051.914,1.4,1.515.414,2.211l1.982,3.434c-.154,1.124-.275,1.246-1.721,1.484C1401.208,1060.689,1400.674,1060.806,1400.147,1060.909Z" transform="translate(-1315.604 -1027.171)" fill="#f9e2c5"/>
            <path id="Trazado_115451" data-name="Trazado 115451" d="M1435.739,1121.662a3.155,3.155,0,0,1-.02,2.3,36.622,36.622,0,0,0-1.466,4.323c-.165.518-.41,1.076-.994.911a1.418,1.418,0,0,1-.728-1.047,8.585,8.585,0,0,1,.214-1.856,10.966,10.966,0,0,0,.1-1.224c.007-.773.008-1.39,1-1.746C1434.57,1123.059,1435.1,1122.253,1435.739,1121.662Z" transform="translate(-1325.612 -1047.859)" fill="#f9e2c5"/>
            <path id="Trazado_115452" data-name="Trazado 115452" d="M1328.685,1029.37a6.009,6.009,0,0,1,1,.01,13.57,13.57,0,0,1,1.942.437,1.878,1.878,0,0,1,.83.621,2.278,2.278,0,0,0,2.059.369,9.823,9.823,0,0,1,2.236-.245c.237,0,.7.42.673.511-.116.334-.356.816-.625.871a24.4,24.4,0,0,1-2.85.309c-.493.041-.993.011-1.484.066a1.294,1.294,0,0,1-1.383-.958c-.086-.7-.458-.934-1.117-1.023a6.213,6.213,0,0,1-1.352-.506Q1328.649,1029.6,1328.685,1029.37Z" transform="translate(-1294.088 -1019.854)" fill="#f9e2c5"/>
            <path id="Trazado_115453" data-name="Trazado 115453" d="M1308.736,1039.042l-1.586-1.021c.12-.885.239-1.76.381-2.8a4.773,4.773,0,0,1,4.382.339Z" transform="translate(-1287.577 -1021.518)" fill="#f9e2c5"/>
            <path id="Trazado_115454" data-name="Trazado 115454" d="M1495.368,1081.682l-.516,1.03-.219-.034-.563-1.569c1.1-.437,1.9-1.473,3.271-1.473.33,0,.66-.548,1.1-.939.634.011,1.271-.676,1.44-1.764a1.929,1.929,0,0,1,.125-.652.606.606,0,0,1,.478-.263.533.533,0,0,1,.353.383,3.476,3.476,0,0,1-.059,1.171c-.165.613-.459,1.191-.632,1.8a1.368,1.368,0,0,1-1.053,1.064c-.885.254-1.725.657-2.594.973A11.215,11.215,0,0,1,1495.368,1081.682Z" transform="translate(-1344.285 -1034.011)" fill="#f9e2c5"/>
            <path id="Trazado_115455" data-name="Trazado 115455" d="M1474.525,1021.291c1.061-.972,1.087-.968,2.632.265-.805.933-1.875.859-3.015.924.295-.944-.3-1.067-.943-1.3a27.492,27.492,0,0,1-2.618-1.28c.6-.9.705-2.026,2.15-2.044.141.415.282.934.5,1.418a.768.768,0,0,0,.516.373c.524.07.676.256.509.792C1474.189,1020.649,1474.409,1020.951,1474.525,1021.291Z" transform="translate(-1337.159 -1016.365)" fill="#f9e2c5"/>
            <path id="Trazado_115456" data-name="Trazado 115456" d="M1380.507,1047.242a5.044,5.044,0,0,0-.715-1.195c-.51-.518-.031-.788.144-1.151.3.187.6.372.89.564.063.041.108.111.062.061a11.27,11.27,0,0,1,2.371-1.016c.384-.073.979.409,1.294.792.135.164-.182.722-.333,1.085-.045.108-.245.141-.341.241A2.782,2.782,0,0,1,1380.507,1047.242Z" transform="translate(-1309.546 -1024.449)" fill="#f9e2c5"/>
            <path id="Trazado_115457" data-name="Trazado 115457" d="M1471.22,1110.012c.467.359.95.7,1.4,1.082a14.013,14.013,0,0,1,1.265,1.217c.311.345.534.768.835,1.124s.641.667.972.99c.149.146.466.3.449.407a12.907,12.907,0,0,1-.45,1.834c-.011.034-.536.026-.637-.105-.613-.791-1.2-1.608-1.744-2.449-.624-.965-1.2-1.964-1.79-2.949q-.271-.449-.543-.9Z" transform="translate(-1337.278 -1044.325)" fill="#f9e2c5"/>
            <path id="Trazado_115458" data-name="Trazado 115458" d="M1317.44,1031.792c.134-.61-.747-1.234.19-1.687.518.348.708,1.529,1.672.659.586.658.508,1.121-.184,1.463-.751.371-1.491.769-2.219,1.184-.744.425-1,.369-1.395-.407a4.88,4.88,0,0,1-.715.148,5.609,5.609,0,0,1-.844-.092c.2-.684.381-1.314.582-2.009Z" transform="translate(-1289.639 -1020.082)" fill="#f9e2c5"/>
            <path id="Trazado_115459" data-name="Trazado 115459" d="M1323.5,1030.653v-.717l.8.214c-.056-.274-.1-.5-.141-.693a7.744,7.744,0,0,1,1.559.223,1.044,1.044,0,0,1,.6.726,3.912,3.912,0,0,1-.249,1.741c-.094.208-.757.163-1.163.224-.043.007-.135-.045-.139-.08-.144-.93-.916-.771-1.54-.965a1.73,1.73,0,0,1-1.358-1.667C1322.826,1029.36,1322.854,1030.446,1323.5,1030.653Z" transform="translate(-1292.044 -1019.886)" fill="#f9e2c5"/>
            <path id="Trazado_115460" data-name="Trazado 115460" d="M1327.536,1035.718h.52a5.581,5.581,0,0,1-.157,1.339,1,1,0,0,1-1.662.406c-.27-.2-.589-.341-.837-.563a3.231,3.231,0,0,1-.445-.639c.218-.032.436-.063.653-.1.1-.016.2-.043.394-.087l-.682-.858a15.041,15.041,0,0,1,1.773-.616A7.965,7.965,0,0,1,1327.536,1035.718Z" transform="translate(-1292.979 -1021.447)" fill="#f9e2c5"/>
            <path id="Trazado_115461" data-name="Trazado 115461" d="M1489.629,1115.515c-.07.2-.094.589-.242.644-.545.2-.6.644-.612,1.076-.024.726-.235.993-.872.451l-.534.7c-.678-1.471-.037-2.553.814-3.544a1.243,1.243,0,0,1,.892-.206,13.987,13.987,0,0,1,1.574.271Z" transform="translate(-1342.166 -1045.725)" fill="#f9e2c5"/>
            <path id="Trazado_115462" data-name="Trazado 115462" d="M1520.416,1154.565l.711.21c-.414.641-.751,1.251-1.175,1.794-.336.43-.813.747-1.161,1.168a.991.991,0,0,1-1.262.369c-.64-.265-.739-.768-.236-1.247a6.5,6.5,0,0,1,.672-.515C1518.718,1155.8,1519.473,1155.25,1520.416,1154.565Z" transform="translate(-1351.234 -1057.841)" fill="#f9e2c5"/>
            <path id="Trazado_115463" data-name="Trazado 115463" d="M1449.963,1018.472c-1.358.509-2.4,1.617-3.907,1.216-.336-.089-.594-.473-.887-.721a8.255,8.255,0,0,1,.9-.614c.419-.216.88-.35,1.3-.556A3.243,3.243,0,0,1,1449.963,1018.472Z" transform="translate(-1329.45 -1016.325)" fill="#f9e2c5"/>
            <path id="Trazado_115464" data-name="Trazado 115464" d="M1504.827,1029.362c.713-.542,1.347-.116,1.973.112.108.04.207.373.155.514a.714.714,0,0,1-.448.422,13.75,13.75,0,0,1-2.318.192c-.352-.011-.971-.311-.982-.505a1.724,1.724,0,0,1,.524-1.123c.1-.1.591.164.9.267A1.153,1.153,0,0,1,1504.827,1029.362Z" transform="translate(-1347.057 -1019.732)" fill="#f9e2c5"/>
            <path id="Trazado_115465" data-name="Trazado 115465" d="M1505.14,1061.683c0,.877-.008,1.755,0,2.633a2.218,2.218,0,0,1-.344,1.725c-.3.362-.177,1.079-.249,1.686h-.709c-.041-.077-.095-.129-.089-.173.2-1.594.384-3.191.625-4.779a4.989,4.989,0,0,1,.472-1.13Z" transform="translate(-1347.223 -1029.651)" fill="#f9e2c5"/>
            <path id="Trazado_115466" data-name="Trazado 115466" d="M1397.07,1059.018a8.242,8.242,0,0,1,1.2-.94c.6-.326.746.047.683.6a4.775,4.775,0,0,0-.047.906,1.664,1.664,0,0,1-1.277,1.6.706.706,0,0,1-.538-.435A13.464,13.464,0,0,1,1397.07,1059.018Z" transform="translate(-1314.853 -1028.532)" fill="#f9e2c5"/>
            <path id="Trazado_115467" data-name="Trazado 115467" d="M1523.379,1148.078c.229.389.408.646.536.928a11.367,11.367,0,0,0,.636,1.456c.122.189.529.2.975.338l-1.96,2.247c-.193-.711-.33-1.211-.463-1.713-.014-.052-.033-.136-.007-.162.874-.855.35-1.781.147-2.693C1523.229,1148.415,1523.289,1148.334,1523.379,1148.078Z" transform="translate(-1353.088 -1055.873)" fill="#f9e2c5"/>
            <path id="Trazado_115468" data-name="Trazado 115468" d="M1310.059,1032.641l-.618-.361c.154-.2.3-.415.465-.6.127-.14.361-.219.425-.375.362-.876,1.219-1.053,1.944-1.411a.417.417,0,0,1,.362.136c.242.314-.156,1.455-.534,1.657s-.744.468-1.134.665A6.539,6.539,0,0,1,1310.059,1032.641Z" transform="translate(-1288.272 -1020.014)" fill="#f9e2c5"/>
            <path id="Trazado_115469" data-name="Trazado 115469" d="M1488.944,1100.64c-.52-.828-.7-1.792-1.825-2.036-.534-.115-.509-2.407.009-2.722.137-.084.476.029.632.158.119.1.128.368.13.561a3.371,3.371,0,0,0,1.016,2.57C1489.407,1099.756,1489.417,1099.907,1488.944,1100.64Z" transform="translate(-1342.058 -1040.029)" fill="#f9e2c5"/>
            <path id="Trazado_115470" data-name="Trazado 115470" d="M1505.227,1073.2a9.576,9.576,0,0,1-1.506.867,10.665,10.665,0,0,1-1.851.314,4.751,4.751,0,0,1,.4-.968c.366-.516.8-.986,1.24-1.525.327.41.591,1.319,1.674.97Z" transform="translate(-1346.652 -1032.758)" fill="#f9e2c5"/>
            <path id="Trazado_115471" data-name="Trazado 115471" d="M1321.761,1026.516l-.488-1.138c.86-.563,1.492.081,2.13.379a3.761,3.761,0,0,1,1.041.977.452.452,0,0,1-.044.438.505.505,0,0,1-.439.083C1323.231,1027.029,1322.511,1026.772,1321.761,1026.516Z" transform="translate(-1291.862 -1018.581)" fill="#f9e2c5"/>
            <path id="Trazado_115472" data-name="Trazado 115472" d="M1478.768,1119.873a4.267,4.267,0,0,1,1.005.074,15.14,15.14,0,0,1,2.371.9c.384.2.624.673,1.039,1.148a12.224,12.224,0,0,1-4.513-1.685Z" transform="translate(-1339.613 -1047.316)" fill="#f9e2c5"/>
            <path id="Trazado_115473" data-name="Trazado 115473" d="M1344.9,1094.776c.7-.959,1.225-1.136,2.088-.793,1,.4,1.98.828,3.147,1.319-.776.394-1.236.481-1.866.042a8.217,8.217,0,0,0-2.29-.97C1345.739,1094.3,1345.39,1094.582,1344.9,1094.776Z" transform="translate(-1299.03 -1039.413)" fill="#f9e2c5"/>
            <path id="Trazado_115474" data-name="Trazado 115474" d="M1326.895,1026.376a11.787,11.787,0,0,1,1.677.028.8.8,0,0,1,.494.573.907.907,0,0,1-.29.761c-.3.169-.842.318-1.039.165a7.146,7.146,0,0,1-1.088-1.342Z" transform="translate(-1293.492 -1018.946)" fill="#f9e2c5"/>
            <path id="Trazado_115475" data-name="Trazado 115475" d="M1318.86,1027.472c-.194.55-.27.848-.4,1.121a1.187,1.187,0,0,1-1.768.525c-.482-.339-.479-.918.065-1.121A19.408,19.408,0,0,1,1318.86,1027.472Z" transform="translate(-1290.365 -1019.283)" fill="#f9e2c5"/>
            <path id="Trazado_115476" data-name="Trazado 115476" d="M1353.264,1095.838c.729.188,1.7-.293,2.438.427l.025.311-3.112.678C1352.893,1096.648,1353.061,1096.282,1353.264,1095.838Z" transform="translate(-1301.37 -1040.025)" fill="#f9e2c5"/>
            <path id="Trazado_115477" data-name="Trazado 115477" d="M1489.587,1106.211l-1.465-1.209,1.991-.979C1490.615,1104.841,1490.2,1105.535,1489.587,1106.211Z" transform="translate(-1342.481 -1042.508)" fill="#f9e2c5"/>
            <path id="Trazado_115478" data-name="Trazado 115478" d="M1440.054,1018.964a17.992,17.992,0,0,1,1.944-1.127c.293-.128.719.047,1.283.105C1441.822,1019.254,1440.64,1019.56,1440.054,1018.964Z" transform="translate(-1327.898 -1016.346)" fill="#f9e2c5"/>
            <path id="Trazado_115479" data-name="Trazado 115479" d="M1503.331,1154.9l-.385-1.923h1.409C1504.7,1153.806,1504.541,1154.172,1503.331,1154.9Z" transform="translate(-1346.978 -1057.36)" fill="#f9e2c5"/>
            <path id="Trazado_115480" data-name="Trazado 115480" d="M1491.888,1122.029c-.7.639-1.34,1.249-2.016,1.814a.434.434,0,0,1-.63-.562C1490.108,1122.876,1490.711,1121.895,1491.888,1122.029Z" transform="translate(-1342.812 -1047.967)" fill="#f9e2c5"/>
            <path id="Trazado_115481" data-name="Trazado 115481" d="M1459.321,1103.528c.819,1.081.8,1.6-.033,2.129C1458.757,1105.054,1458.76,1104.429,1459.321,1103.528Z" transform="translate(-1333.614 -1042.357)" fill="#f9e2c5"/>
            <path id="Trazado_115482" data-name="Trazado 115482" d="M1493.494,1115.757c.075-.609.15-1.217.253-2.047.966,1.227.966,1.227.032,2.1Z" transform="translate(-1344.111 -1045.447)" fill="#f9e2c5"/>
            <path id="Trazado_115483" data-name="Trazado 115483" d="M1486.633,1094.113c-.5-.952-.312-1.521.632-1.866Z" transform="translate(-1341.947 -1038.935)" fill="#f9e2c5"/>
            <path id="Trazado_115484" data-name="Trazado 115484" d="M1410.348,1074.751a2.943,2.943,0,0,1,.363-3.243C1410.441,1072.644,1411,1073.661,1410.348,1074.751Z" transform="translate(-1318.792 -1032.643)" fill="#f9e2c5"/>
          </g>
        </g>
        <g id="Grupo_59199" data-name="Grupo 59199" transform="translate(258.992 61.176)">
          <rect id="Rectángulo_6114" data-name="Rectángulo 6114" width="27.731" height="37.706" fill="#cea479"/>
          <rect id="Rectángulo_6115" data-name="Rectángulo 6115" width="19.525" height="28.22" transform="translate(4.103 4.743)" fill="#fcecdd"/>
          <rect id="Rectángulo_6116" data-name="Rectángulo 6116" width="27.731" height="37.706" transform="translate(100.222)" fill="#e2b381"/>
          <rect id="Rectángulo_6117" data-name="Rectángulo 6117" width="19.525" height="28.22" transform="translate(104.325 4.743)" fill="#fcecdd"/>
          <rect id="Rectángulo_6118" data-name="Rectángulo 6118" width="43.926" height="37.706" transform="translate(41.425 6.891)" fill="#f9e2c5"/>
          <rect id="Rectángulo_6119" data-name="Rectángulo 6119" width="35.317" height="28.22" transform="translate(45.729 11.634)" fill="#fcecdd"/>
        </g>
        <g id="Grupo_59204" data-name="Grupo 59204" transform="translate(427.082 4.241)">
          <ellipse id="Elipse_4186" data-name="Elipse 4186" cx="27.325" cy="27.291" rx="27.325" ry="27.291" fill="#e2b381"/>
          <ellipse id="Elipse_4187" data-name="Elipse 4187" cx="24.039" cy="24.07" rx="24.039" ry="24.07" transform="translate(3.204 51.278) rotate(-89.877)" fill="#fff"/>
          <g id="Grupo_59203" data-name="Grupo 59203" transform="translate(5.667 5.819)">
            <rect id="Rectángulo_6120" data-name="Rectángulo 6120" width="0.57" height="7.425" transform="translate(0 21.655) rotate(-90)" fill="#f9e2c5"/>
            <rect id="Rectángulo_6121" data-name="Rectángulo 6121" width="0.57" height="7.425" transform="translate(35.942 21.655) rotate(-90)" fill="#f9e2c5"/>
            <rect id="Rectángulo_6122" data-name="Rectángulo 6122" width="0.571" height="7.416" transform="translate(21.344)" fill="#f9e2c5"/>
            <rect id="Rectángulo_6123" data-name="Rectángulo 6123" width="0.571" height="7.416" transform="translate(21.344 35.753)" fill="#f9e2c5"/>
            <circle id="Elipse_4188" data-name="Elipse 4188" cx="0.67" cy="0.67" r="0.67" transform="translate(20.988 20.802)" fill="#ecd5b0"/>
            <g id="Grupo_59200" data-name="Grupo 59200" transform="translate(9.307 9.136)">
              <path id="Trazado_115485" data-name="Trazado 115485" d="M1907.9,1031.814a.3.3,0,0,1-.212-.088l-12.052-12.037a.3.3,0,0,1,.424-.424l12.052,12.037a.3.3,0,0,1-.212.511Z" transform="translate(-1895.553 -1019.178)" fill="#ecd5b0"/>
            </g>
            <g id="Grupo_59202" data-name="Grupo 59202" transform="translate(21.518 21.472)">
              <g id="Grupo_59201" data-name="Grupo 59201">
                <path id="Trazado_115486" data-name="Trazado 115486" d="M1917.1,1049.051a.217.217,0,0,1-.109-.126l-3.9-11.752a.218.218,0,1,1,.414-.136l3.9,11.752a.218.218,0,0,1-.305.263Z" transform="translate(-1913.082 -1036.887)" fill="#ecd5b0"/>
              </g>
            </g>
          </g>
        </g>
      </g>
    </g>
    <rect id="Rectángulo_6124" data-name="Rectángulo 6124" width="2.543" height="74.789" transform="translate(1422.692 1191.617)" fill="#001333"/>
    <rect id="Rectángulo_6125" data-name="Rectángulo 6125" width="2.543" height="74.789" transform="translate(1534.896 1191.617)" fill="#001333"/>
    <rect id="Rectángulo_6126" data-name="Rectángulo 6126" width="124.335" height="3.692" transform="translate(1417.897 1187.925)" fill="#f8c48b"/>
    <rect id="Rectángulo_6127" data-name="Rectángulo 6127" width="114.747" height="35.487" transform="translate(1422.692 1197.263)" fill="#f8c48b"/>
    <rect id="Rectángulo_6128" data-name="Rectángulo 6128" width="114.747" height="2.567" transform="translate(1422.692 1237.883)" fill="#001333"/>
    <rect id="Rectángulo_6129" data-name="Rectángulo 6129" width="2.543" height="74.789" transform="translate(1587.131 1191.617)" fill="#001333"/>
    <rect id="Rectángulo_6130" data-name="Rectángulo 6130" width="2.543" height="74.789" transform="translate(1699.335 1191.617)" fill="#001333"/>
    <rect id="Rectángulo_6131" data-name="Rectángulo 6131" width="124.335" height="3.692" transform="translate(1582.337 1187.925)" fill="#f8c48b"/>
    <rect id="Rectángulo_6132" data-name="Rectángulo 6132" width="114.747" height="35.487" transform="translate(1587.131 1197.263)" fill="#f8c48b"/>
    <rect id="Rectángulo_6133" data-name="Rectángulo 6133" width="114.747" height="2.567" transform="translate(1587.131 1237.883)" fill="#001333"/>
    <g id="Grupo_59207" data-name="Grupo 59207" transform="translate(1253.769 1187.925)">
      <rect id="Rectángulo_6134" data-name="Rectángulo 6134" width="2.543" height="74.789" transform="translate(4.794 3.692)" fill="#001333"/>
      <rect id="Rectángulo_6135" data-name="Rectángulo 6135" width="2.543" height="74.789" transform="translate(116.998 3.692)" fill="#001333"/>
      <rect id="Rectángulo_6136" data-name="Rectángulo 6136" width="124.335" height="3.692" transform="translate(0 0)" fill="#f8c48b"/>
      <rect id="Rectángulo_6137" data-name="Rectángulo 6137" width="114.747" height="35.487" transform="translate(4.794 9.337)" fill="#f8c48b"/>
      <rect id="Rectángulo_6138" data-name="Rectángulo 6138" width="114.747" height="2.567" transform="translate(4.794 49.958)" fill="#001333"/>
    </g>
    <rect id="Rectángulo_6139" data-name="Rectángulo 6139" width="2.543" height="74.789" transform="translate(1747.997 1191.511)" fill="#001333"/>
    <rect id="Rectángulo_6140" data-name="Rectángulo 6140" width="2.543" height="74.789" transform="translate(1860.201 1191.511)" fill="#001333"/>
    <rect id="Rectángulo_6141" data-name="Rectángulo 6141" width="114.747" height="35.487" transform="translate(1747.997 1197.156)" fill="#f8c48b"/>
    <rect id="Rectángulo_6142" data-name="Rectángulo 6142" width="114.747" height="2.567" transform="translate(1747.997 1237.777)" fill="#001333"/>
    <rect id="Rectángulo_6143" data-name="Rectángulo 6143" width="124.335" height="3.692" transform="translate(1743.203 1187.819)" fill="#f8c48b"/>
    <g id="Grupo_59218" data-name="Grupo 59218" transform="translate(1758.723 1118.118)">
      <g id="Grupo_59209" data-name="Grupo 59209" transform="translate(0)">
        <g id="Grupo_59208" data-name="Grupo 59208">
          <path id="Trazado_115487" data-name="Trazado 115487" d="M2073.828,1173.208h-83.865a3.721,3.721,0,0,0-3.721,3.721v50.186a2.407,2.407,0,0,0,2.128,2.61h35.994v10.3h-21.325a2.883,2.883,0,0,0-2.884,2.883h63.021a2.883,2.883,0,0,0-2.883-2.883h-21.325v-10.3h36.454a2.407,2.407,0,0,0,2.129-2.61v-50.186A3.721,3.721,0,0,0,2073.828,1173.208Z" transform="translate(-1986.241 -1173.208)" fill="#1a2c42"/>
          <path id="Trazado_115488" data-name="Trazado 115488" d="M2069.2,1263.821h-21.326v-12.18h-14.6v12.18H2011.95a2.884,2.884,0,0,0-2.884,2.883h63.021A2.884,2.884,0,0,0,2069.2,1263.821Z" transform="translate(-1993.166 -1197.003)" fill="#001333"/>
          <path id="Trazado_115489" data-name="Trazado 115489" d="M2080.4,1220.184v-43.254a3.721,3.721,0,0,0-3.721-3.721h-83.866a3.721,3.721,0,0,0-3.721,3.721v43.254Z" transform="translate(-1987.106 -1173.208)" fill="#001333"/>
          <path id="Trazado_115490" data-name="Trazado 115490" d="M1989.093,1240.642v6.931a2.407,2.407,0,0,0,2.129,2.61h87.052a2.407,2.407,0,0,0,2.128-2.61v-6.931Z" transform="translate(-1987.106 -1193.666)" fill="#001333"/>
          <path id="Trazado_115491" data-name="Trazado 115491" d="M2079.2,1219.123v-41.26a2,2,0,0,0-2.029-1.959H1994.19a2,2,0,0,0-2.029,1.959v41.26Z" transform="translate(-1988.037 -1174.026)" fill="#ebfbff"/>
        </g>
      </g>
      <g id="Grupo_59217" data-name="Grupo 59217" transform="translate(4.124 1.878)">
        <g id="Grupo_59216" data-name="Grupo 59216" clip-path="url(#clip-path)">
          <g id="Grupo_59215" data-name="Grupo 59215" transform="translate(25.228 8.66)">
            <path id="Trazado_115492" data-name="Trazado 115492" d="M2062,1214.591h-.771a16.952,16.952,0,0,1-2.37.58,62.653,62.653,0,0,1-8.212.965c-1.239.044-2.512.058-3.658.057v0l-.446,0-.445,0v0c-1.145,0-2.42-.013-3.659-.057a62.693,62.693,0,0,1-8.212-.965,16.955,16.955,0,0,1-2.369-.58h-.771a1.831,1.831,0,0,0-1.626,2.15l3.57,33.307a1.772,1.772,0,0,0,1.518,1.67l10.719.823a1.71,1.71,0,0,1,2.552,0l10.719-.823a1.773,1.773,0,0,0,1.518-1.67l3.57-33.307A1.83,1.83,0,0,0,2062,1214.591Z" transform="translate(-2028.7 -1196.301)" fill="#6ea7ce"/>
            <g id="Grupo_59210" data-name="Grupo 59210" transform="translate(5.218)">
              <path id="Trazado_115493" data-name="Trazado 115493" d="M2044.71,1189.409a4.419,4.419,0,0,0-4.752,2.861c-1.474,3.466-.444,2.988-1.154,4.717s-3.3,1.828-2.9,4.258,1.6,2.618,1.6,2.618a4.2,4.2,0,0,0,.749,3.816,7.321,7.321,0,0,0,6.886,2.291,11.1,11.1,0,0,0,7.288-.16c3.409-1.515,2.168-1.308,3.625-1.551s5.064-2.9,3.93-5.708c0,0,1.924-3.254-.8-5.2s-3.556-4.235-5.429-7.141S2046.2,1188.383,2044.71,1189.409Z" transform="translate(-2035.866 -1188.336)" fill="#0e2e35"/>
            </g>
            <path id="Trazado_115494" data-name="Trazado 115494" d="M2041.23,1216.834s-2.257-.32-5.77,3.062-8.249,7.514-6.2,10.811l8.627-.207s5.216-6.135,5.29-6.455S2041.23,1216.834,2041.23,1216.834Z" transform="translate(-2028.493 -1196.979)" fill="#d3d9f4"/>
            <path id="Trazado_115495" data-name="Trazado 115495" d="M2060.6,1216.829s3.036-.316,6.548,3.067,8.25,7.514,6.2,10.811l-8.627-.207s-5.216-6.135-5.291-6.455S2060.6,1216.829,2060.6,1216.829Z" transform="translate(-2037.796 -1196.978)" fill="#d3d9f4"/>
            <path id="Trazado_115496" data-name="Trazado 115496" d="M2048.752,1246.21a57.417,57.417,0,0,0,11.649-1.829l-2.26-18.81c-.956-7.959-3.513-8.78-4.222-8.853l-.185,0h0c-1.392-.038-3.211-.137-4.981-.251v-.02l-.153.01-.154-.01v.02c-1.77.114-3.589.213-4.981.251h0l-.185,0c-.709.072-3.266.893-4.222,8.853l-2.26,18.81a57.419,57.419,0,0,0,11.649,1.829v.016l.154-.008.153.008Z" transform="translate(-2030.93 -1196.863)" fill="#355389"/>
            <path id="Trazado_115497" data-name="Trazado 115497" d="M2076.71,1234.61s1.015-.789.275-2.783-6.047-3.333-7.208-.573Z" transform="translate(-2040.936 -1200.881)" fill="#f4f4f4"/>
            <path id="Trazado_115498" data-name="Trazado 115498" d="M2028.921,1234.61s-1.016-.789-.274-2.783,6.047-3.333,7.207-.573Z" transform="translate(-2028.375 -1200.881)" fill="#f4f4f4"/>
            <g id="Grupo_59212" data-name="Grupo 59212" transform="translate(0.479 29.818)">
              <g id="Grupo_59211" data-name="Grupo 59211" transform="translate(14.025 2.498)">
                <path id="Trazado_115499" data-name="Trazado 115499" d="M2057.026,1236.331c.111-.171-.167-.46-.375-.677a9.385,9.385,0,0,0-1.867-.917,12.944,12.944,0,0,0-3.055.47,2.769,2.769,0,0,1-1.293.15c-.2-.042-.512-.1-.751-.148l-.489,1.818c1.831-.023,3.745.113,3.919.109a6.845,6.845,0,0,0,1.792-.674,1.639,1.639,0,0,1,1.025.132,4.065,4.065,0,0,0,1.4.421C2057.487,1236.932,2057.026,1236.331,2057.026,1236.331Z" transform="translate(-2049.196 -1234.725)" fill="#ed9485"/>
              </g>
              <path id="Trazado_115500" data-name="Trazado 115500" d="M2044.435,1234.282s-10.29-3.751-12.6-3.057-3.238,2.871-2.544,4.258,14.336.454,14.336.454Z" transform="translate(-2029.062 -1231.139)" fill="#ed9485"/>
            </g>
            <path id="Trazado_115501" data-name="Trazado 115501" d="M2054.933,1211.253c-.008.068.3,2.52.461,3.817a1.022,1.022,0,0,1-.691,1.1c-1.236.415-3.635.923-5.085-.7a.675.675,0,0,1-.163-.543l.8-5.694Z" transform="translate(-2034.768 -1194.675)" fill="#f7a491"/>
            <path id="Trazado_115502" data-name="Trazado 115502" d="M2054.882,1212.49a1.015,1.015,0,0,0,.347-.2c-.07-.581-.12-1.009-.116-1.036l-4.683-2.022-.392,2.8C2051.5,1213.356,2053.711,1212.883,2054.882,1212.49Z" transform="translate(-2034.948 -1194.675)" fill="#f47458"/>
            <g id="Grupo_59213" data-name="Grupo 59213" transform="translate(9.885 2.049)">
              <path id="Trazado_115503" data-name="Trazado 115503" d="M2045.03,1202.888c.309.954.035,1.9-.61,2.1s-1.418-.4-1.727-1.35-.035-1.9.61-2.105S2044.721,1201.934,2045.03,1202.888Z" transform="translate(-2042.566 -1194.378)" fill="#f7a491"/>
              <path id="Trazado_115504" data-name="Trazado 115504" d="M2061.119,1201.7c-.167.989.241,1.882.91,1.994s1.345-.6,1.512-1.587-.241-1.881-.91-1.995S2061.285,1200.71,2061.119,1201.7Z" transform="translate(-2048.183 -1193.954)" fill="#f7a491"/>
              <path id="Trazado_115505" data-name="Trazado 115505" d="M2057.164,1198.582c.313,4.272-2.157,7.934-5.515,8.179s-6.334-3.019-6.646-7.291,2.157-7.935,5.515-8.18S2056.852,1194.31,2057.164,1198.582Z" transform="translate(-2043.297 -1191.277)" fill="#f7a491"/>
            </g>
            <path id="Trazado_115506" data-name="Trazado 115506" d="M2049.378,1216.443a5.229,5.229,0,0,0,3.016,2.328,4.188,4.188,0,0,1-2.435.2C2049.073,1218.584,2048.4,1217.845,2049.378,1216.443Z" transform="translate(-2034.601 -1196.863)" fill="#f4f4f4"/>
            <path id="Trazado_115507" data-name="Trazado 115507" d="M2056.541,1216.443a5.185,5.185,0,0,1-2.982,2.328,4.1,4.1,0,0,0,2.408.2C2056.843,1218.584,2057.509,1217.845,2056.541,1216.443Z" transform="translate(-2036.016 -1196.863)" fill="#f4f4f4"/>
            <path id="Trazado_115508" data-name="Trazado 115508" d="M2057.758,1234.282s10.29-3.751,12.6-3.057,3.183,2.968,2.49,4.355-14.953.61-14.953.61Z" transform="translate(-2037.29 -1201.322)" fill="#f7a491"/>
            <path id="Trazado_115509" data-name="Trazado 115509" d="M2051.929,1207.515l3.343-.4a1.5,1.5,0,0,1-1.385,1.55C2052.1,1208.932,2051.929,1207.515,2051.929,1207.515Z" transform="translate(-2035.521 -1194.032)" fill="#fff"/>
            <g id="Grupo_59214" data-name="Grupo 59214" transform="translate(17.865 27.05)">
              <path id="Trazado_115510" data-name="Trazado 115510" d="M2055.13,1235.792l-1.11,1.276.107-1.687.535-.371Z" transform="translate(-2054.021 -1229.546)" fill="#f2e9da"/>
              <path id="Trazado_115511" data-name="Trazado 115511" d="M2054.663,1235.01l.12.2-.762,1.857.107-1.687Z" transform="translate(-2054.021 -1229.546)" fill="#e0d5c3"/>
              <path id="Trazado_115512" data-name="Trazado 115512" d="M2054.162,1233l-.028.437.311-.321,2.442-5.951-.356.064Z" transform="translate(-2054.055 -1227.166)" fill="#e8ba70"/>
              <path id="Trazado_115513" data-name="Trazado 115513" d="M2054.58,1233.117l.061.473.376-.294,2.442-5.951-.437-.179Z" transform="translate(-2054.19 -1227.166)" fill="#f7cc7f"/>
              <path id="Trazado_115514" data-name="Trazado 115514" d="M2055.206,1233.374l0,.446.287-.33,2.369-5.771-.209-.3Z" transform="translate(-2054.379 -1227.244)" fill="#fae0b2"/>
              <rect id="Rectángulo_6144" data-name="Rectángulo 6144" width="0.474" height="0.473" transform="matrix(0.38, -0.925, 0.925, 0.38, 2.652, 0.438)" fill="#466eb6"/>
              <path id="Trazado_115515" data-name="Trazado 115515" d="M2058.456,1227.862l.18-.438.209.3-.106.258Z" transform="translate(-2055.366 -1227.244)" fill="#88b5e2"/>
              <path id="Trazado_115516" data-name="Trazado 115516" d="M2057.422,1227.488l.106-.258.356-.064-.18.438Z" transform="translate(-2055.052 -1227.166)" fill="#2c4b70"/>
              <rect id="Rectángulo_6145" data-name="Rectángulo 6145" width="0.306" height="0.558" transform="matrix(-0.925, -0.379, 0.379, -0.925, 3.16, 1.25)" fill="#fef8f8"/>
              <rect id="Rectángulo_6146" data-name="Rectángulo 6146" width="0.306" height="0.558" transform="translate(2.44 0.955) rotate(-157.707)" fill="#eddfca"/>
              <rect id="Rectángulo_6147" data-name="Rectángulo 6147" width="0.473" height="0.558" transform="translate(2.878 1.134) rotate(-157.707)" fill="#f2e9da"/>
              <path id="Trazado_115517" data-name="Trazado 115517" d="M2054.4,1237.282l-.376.433.036-.573.132.163Z" transform="translate(-2054.021 -1230.193)" fill="#db3f2a"/>
            </g>
            <path id="Trazado_115518" data-name="Trazado 115518" d="M2057.768,1234.549a4,4,0,0,1-.753.065,4.475,4.475,0,0,0-1.126-.46c-.371-.044-1-.284-1.177-.252s-1.077.5-1.2.521a.938.938,0,0,0-.338.2,10.693,10.693,0,0,0-1.128.332.771.771,0,0,0-.025.784s.013.047-.065.118a.62.62,0,0,0-.125.451c.032.134.183.338.368.313,0,0,.092.008.106.039a1.333,1.333,0,0,0,.036.389c.062.162.219.258.511.23,0,0-.137.649.481.588l.843-.084a3.045,3.045,0,0,0,.665.036c.2-.036,1.457-.215,1.545-.275a2.383,2.383,0,0,1,.346-.215,5.824,5.824,0,0,0,.757-.255,1.8,1.8,0,0,1,.283-.094Z" transform="translate(-2035.488 -1202.159)" fill="#f7a491"/>
          </g>
        </g>
      </g>
    </g>
    <g id="Grupo_59227" data-name="Grupo 59227" transform="translate(1599.357 1118.118)">
      <g id="Grupo_59220" data-name="Grupo 59220">
        <g id="Grupo_59219" data-name="Grupo 59219">
          <path id="Trazado_115520" data-name="Trazado 115520" d="M1845.056,1173.208H1761.19a3.721,3.721,0,0,0-3.721,3.721v50.186a2.407,2.407,0,0,0,2.129,2.61h35.994v10.3h-21.325a2.884,2.884,0,0,0-2.884,2.883H1834.4a2.884,2.884,0,0,0-2.884-2.883H1810.2v-10.3h36.454a2.407,2.407,0,0,0,2.129-2.61v-50.186A3.721,3.721,0,0,0,1845.056,1173.208Z" transform="translate(-1757.469 -1173.208)" fill="#1a2c42"/>
          <path id="Trazado_115521" data-name="Trazado 115521" d="M1840.432,1263.821h-21.325v-12.18h-14.6v12.18h-21.326a2.883,2.883,0,0,0-2.883,2.883h63.021A2.883,2.883,0,0,0,1840.432,1263.821Z" transform="translate(-1764.394 -1197.003)" fill="#001333"/>
          <path id="Trazado_115522" data-name="Trazado 115522" d="M1851.63,1220.184v-43.254a3.721,3.721,0,0,0-3.721-3.721h-83.866a3.721,3.721,0,0,0-3.721,3.721v43.254Z" transform="translate(-1758.334 -1173.208)" fill="#001333"/>
          <path id="Trazado_115523" data-name="Trazado 115523" d="M1760.321,1240.642v6.931a2.407,2.407,0,0,0,2.129,2.61H1849.5a2.407,2.407,0,0,0,2.129-2.61v-6.931Z" transform="translate(-1758.334 -1193.666)" fill="#001333"/>
          <path id="Trazado_115524" data-name="Trazado 115524" d="M1850.424,1219.123v-41.26a2,2,0,0,0-2.029-1.959h-82.976a2,2,0,0,0-2.029,1.959v41.26Z" transform="translate(-1759.265 -1174.026)" fill="#ebfbff"/>
        </g>
      </g>
      <g id="Grupo_59226" data-name="Grupo 59226" transform="translate(4.125 1.878)">
        <g id="Grupo_59225" data-name="Grupo 59225" clip-path="url(#clip-path-2)">
          <g id="Grupo_59224" data-name="Grupo 59224" transform="translate(18.347 6.014)">
            <path id="Trazado_115525" data-name="Trazado 115525" d="M1833.327,1214.773h-.755a16.713,16.713,0,0,1-2.323.568,61.476,61.476,0,0,1-8.047.945c-1.214.043-2.463.057-3.585.056v0l-.437,0-.437,0v0c-1.122,0-2.371-.013-3.585-.056a61.47,61.47,0,0,1-8.047-.945,16.679,16.679,0,0,1-2.323-.568h-.756a1.794,1.794,0,0,0-1.593,2.107l3.5,32.641a1.739,1.739,0,0,0,1.488,1.638l10.5.806a1.677,1.677,0,0,1,2.5,0l10.505-.806a1.738,1.738,0,0,0,1.487-1.638l3.5-32.641A1.794,1.794,0,0,0,1833.327,1214.773Z" transform="translate(-1793.276 -1193.71)" fill="#6ea7ce"/>
            <path id="Trazado_115526" data-name="Trazado 115526" d="M1790.743,1192.958c.379-.332,1.6,1.668,2.093,1.6s-.613-2.9-.261-3.16c.646-.478,1.4,3.03,1.712,2.83s-.288-3.857.438-3.728.226,3.856.657,3.789.153-3.508,1.037-3.8c.472-.157-.272,5.941.212,6.419s2.164-1.6,2.672-1.266-3.681,3.558-3.71,3.939-1.154,8.668-.8,11.311c.921-.033,6.023.339,6.886.289-.414,1.731.007,3.375-.305,5.115-2.927.012-10.528-.937-11.128-1.51-1.826-1.744,1.686-12.754,2.192-14.873s-.254-2.911-.334-4.174S1790.364,1193.29,1790.743,1192.958Z" transform="translate(-1789.727 -1186.342)" fill="#f7a491"/>
            <path id="Trazado_115527" data-name="Trazado 115527" d="M1799.238,1225.2s10.644,1.5,13.872.577,5.73-5.276,4.2-7.822-18.73.695-18.73.695Z" transform="translate(-1792.412 -1194.381)" fill="#b75742"/>
            <path id="Trazado_115528" data-name="Trazado 115528" d="M1832.521,1217s2.212-.314,5.654,3,8.084,7.363,6.076,10.594l-8.454-.2s-5.112-6.012-5.185-6.325S1832.521,1217,1832.521,1217Z" transform="translate(-1802.13 -1194.383)" fill="#b75742"/>
            <path id="Trazado_115529" data-name="Trazado 115529" d="M1821.785,1245.788A56.246,56.246,0,0,0,1833.2,1244l-2.215-18.434c-.937-7.8-3.443-8.6-4.138-8.676l-.181,0h0c-1.364-.036-3.147-.134-4.881-.246v-.019l-.151.01-.151-.01v.019c-1.734.112-3.517.21-4.881.246h0l-.181,0c-.695.071-3.2.875-4.138,8.676L1810.068,1244a56.229,56.229,0,0,0,11.415,1.792v.015l.151-.008.151.008Z" transform="translate(-1795.898 -1194.269)" fill="#f47458"/>
            <path id="Trazado_115530" data-name="Trazado 115530" d="M1823.364,1185.1s-4.651-2.081-5.83,1.756c0,0-3.825-.476-2.885,3.639,0,0-3.681,1.928-.9,7.138,0,0-.485,4.718,4.984,5.131a2.741,2.741,0,0,0,3.151,1.5c2.459-.352,3.116-1.456,3.116-1.456s4.429,1.864,5.475-2.259c0,0,3.165-1.129.848-5.224,0,0,2.278-5.131-2.041-7.2C1829.278,1188.135,1827.992,1183.168,1823.364,1185.1Z" transform="translate(-1796.699 -1184.537)" fill="#13375b"/>
            <path id="Trazado_115531" data-name="Trazado 115531" d="M1827.842,1211.529c-.008.065.292,2.469.452,3.74a1,1,0,0,1-.678,1.075c-1.211.407-3.562.9-4.984-.683a.662.662,0,0,1-.16-.533l.781-5.58Z" transform="translate(-1799.659 -1192.125)" fill="#f7a491"/>
            <path id="Trazado_115532" data-name="Trazado 115532" d="M1827.792,1212.742a1,1,0,0,0,.34-.2c-.069-.57-.118-.989-.114-1.015l-4.589-1.981-.385,2.745C1824.478,1213.59,1826.645,1213.127,1827.792,1212.742Z" transform="translate(-1799.835 -1192.125)" fill="#f47458"/>
            <g id="Grupo_59221" data-name="Grupo 59221" transform="translate(18.167 5.171)">
              <path id="Trazado_115533" data-name="Trazado 115533" d="M1818.219,1202.756c.233.954-.1,1.857-.747,2.014s-1.358-.488-1.591-1.443.1-1.857.747-2.014S1817.985,1201.8,1818.219,1202.756Z" transform="translate(-1815.806 -1194.791)" fill="#f7a491"/>
              <path id="Trazado_115534" data-name="Trazado 115534" d="M1834.008,1202.756c-.233.954.1,1.857.746,2.014s1.359-.488,1.592-1.443-.1-1.857-.747-2.014S1834.241,1201.8,1834.008,1202.756Z" transform="translate(-1821.306 -1194.791)" fill="#f7a491"/>
              <path id="Trazado_115535" data-name="Trazado 115535" d="M1830.188,1199.562c0,4.2-2.675,7.6-5.975,7.6s-5.975-3.4-5.975-7.6,2.675-7.6,5.975-7.6S1830.188,1195.364,1830.188,1199.562Z" transform="translate(-1816.544 -1191.961)" fill="#f7a491"/>
            </g>
            <path id="Trazado_115536" data-name="Trazado 115536" d="M1822.4,1216.616a5.12,5.12,0,0,0,2.956,2.28,4.1,4.1,0,0,1-2.387.193C1822.1,1218.714,1821.439,1217.99,1822.4,1216.616Z" transform="translate(-1799.495 -1194.269)" fill="#f4f4f4"/>
            <path id="Trazado_115537" data-name="Trazado 115537" d="M1829.417,1216.616a5.076,5.076,0,0,1-2.922,2.28,4.017,4.017,0,0,0,2.36.193C1829.713,1218.714,1830.366,1217.99,1829.417,1216.616Z" transform="translate(-1800.882 -1194.269)" fill="#f4f4f4"/>
            <g id="Grupo_59223" data-name="Grupo 59223" transform="translate(20.654 32.38)">
              <g id="Grupo_59222" data-name="Grupo 59222" transform="translate(0 2.448)">
                <path id="Trazado_115538" data-name="Trazado 115538" d="M1819.707,1236.106c-.109-.168.164-.452.368-.664a9.218,9.218,0,0,1,1.829-.9,12.677,12.677,0,0,1,2.993.461,2.718,2.718,0,0,0,1.269.148c.2-.041.5-.1.735-.144l.479,1.781c-1.794-.022-3.67.111-3.84.107a6.692,6.692,0,0,1-1.756-.66,1.611,1.611,0,0,0-1.005.129,3.972,3.972,0,0,1-1.372.412C1819.255,1236.695,1819.707,1236.106,1819.707,1236.106Z" transform="translate(-1819.376 -1234.532)" fill="#f7a491"/>
              </g>
              <path id="Trazado_115539" data-name="Trazado 115539" d="M1828.972,1234.1s10.083-3.676,12.351-3,3.12,2.908,2.439,4.267-14,.35-14,.35Z" transform="translate(-1822.287 -1231.019)" fill="#f7a491"/>
            </g>
            <path id="Trazado_115540" data-name="Trazado 115540" d="M1824.386,1208.035l3.294.182a1.475,1.475,0,0,1-1.6,1.26C1824.31,1209.432,1824.386,1208.035,1824.386,1208.035Z" transform="translate(-1800.242 -1191.666)" fill="#fff"/>
          </g>
        </g>
      </g>
    </g>
    <g id="Grupo_59238" data-name="Grupo 59238" transform="translate(1431.653 1118.118)">
      <g id="Grupo_59229" data-name="Grupo 59229">
        <g id="Grupo_59228" data-name="Grupo 59228">
          <path id="Trazado_115542" data-name="Trazado 115542" d="M1604.316,1173.208H1520.45a3.721,3.721,0,0,0-3.721,3.721v50.186a2.407,2.407,0,0,0,2.128,2.61h35.994v10.3h-21.325a2.883,2.883,0,0,0-2.884,2.883h63.021a2.883,2.883,0,0,0-2.883-2.883h-21.326v-10.3h36.454a2.407,2.407,0,0,0,2.129-2.61v-50.186A3.721,3.721,0,0,0,1604.316,1173.208Z" transform="translate(-1516.729 -1173.208)" fill="#1a2c42"/>
          <path id="Trazado_115543" data-name="Trazado 115543" d="M1599.692,1263.821h-21.325v-12.18h-14.6v12.18h-21.325a2.884,2.884,0,0,0-2.884,2.883h63.022A2.884,2.884,0,0,0,1599.692,1263.821Z" transform="translate(-1523.654 -1197.003)" fill="#001333"/>
          <path id="Trazado_115544" data-name="Trazado 115544" d="M1610.889,1220.184v-43.254a3.721,3.721,0,0,0-3.721-3.721H1523.3a3.721,3.721,0,0,0-3.721,3.721v43.254Z" transform="translate(-1517.594 -1173.208)" fill="#001333"/>
          <path id="Trazado_115545" data-name="Trazado 115545" d="M1519.581,1240.642v6.931a2.407,2.407,0,0,0,2.129,2.61h87.051a2.407,2.407,0,0,0,2.128-2.61v-6.931Z" transform="translate(-1517.594 -1193.666)" fill="#001333"/>
          <path id="Trazado_115546" data-name="Trazado 115546" d="M1609.683,1219.123v-41.26a2,2,0,0,0-2.029-1.959h-82.975a2,2,0,0,0-2.029,1.959v41.26Z" transform="translate(-1518.525 -1174.026)" fill="#ebfbff"/>
        </g>
      </g>
      <g id="Grupo_59237" data-name="Grupo 59237" transform="translate(4.124 1.878)">
        <g id="Grupo_59236" data-name="Grupo 59236" clip-path="url(#clip-path-3)">
          <g id="Grupo_59235" data-name="Grupo 59235" transform="translate(17.151 5.584)">
            <path id="Trazado_115547" data-name="Trazado 115547" d="M1595.479,1212.8h-.833a18.37,18.37,0,0,1-2.557.625,67.573,67.573,0,0,1-8.862,1.041c-1.338.047-2.713.062-3.949.061v0l-.481,0-.481,0v0c-1.236,0-2.612-.014-3.948-.061a67.558,67.558,0,0,1-8.862-1.041,18.4,18.4,0,0,1-2.558-.625h-.832a1.975,1.975,0,0,0-1.755,2.32l3.853,35.948a1.913,1.913,0,0,0,1.638,1.8l11.568.888a1.847,1.847,0,0,1,2.754,0l11.569-.888a1.913,1.913,0,0,0,1.638-1.8l3.852-35.948A1.974,1.974,0,0,0,1595.479,1212.8Z" transform="translate(-1551.237 -1192.681)" fill="#6ea7ce"/>
            <path id="Trazado_115548" data-name="Trazado 115548" d="M1585,1192.431c-.877-6.08-6.334-10.5-12.109-7.6a13.644,13.644,0,0,0-3.964,3.118c-2.484,3.128-3.114,7.026-5.744,10.032-2.267,2.591-8.253,2.045-11.068,4.029a12.094,12.094,0,0,0-4.847,9.875c-.043,4.818,1,9.941,4.707,13.021a15.4,15.4,0,0,0,13.663,2.636,22.021,22.021,0,0,0,11.57-8.222,42.007,42.007,0,0,0,6.438-12.662A32.857,32.857,0,0,0,1585,1192.431Z" transform="translate(-1547.27 -1183.921)" fill="#184655"/>
            <path id="Trazado_115549" data-name="Trazado 115549" d="M1574.047,1215.246s-2.436-.345-6.227,3.305-8.9,8.109-6.692,11.668l9.311-.224s5.629-6.621,5.709-6.965S1574.047,1215.246,1574.047,1215.246Z" transform="translate(-1551.312 -1193.422)" fill="#d3d9f4"/>
            <path id="Trazado_115550" data-name="Trazado 115550" d="M1594.592,1215.246s2.436-.345,6.227,3.305,8.9,8.109,6.692,11.668L1598.2,1230s-5.629-6.621-5.709-6.965S1594.592,1215.246,1594.592,1215.246Z" transform="translate(-1560.988 -1193.422)" fill="#d3d9f4"/>
            <path id="Trazado_115551" data-name="Trazado 115551" d="M1582.768,1246.951a61.969,61.969,0,0,0,12.572-1.974l-2.439-20.3c-1.032-8.591-3.792-9.476-4.557-9.555l-.2,0h0c-1.5-.04-3.465-.148-5.375-.27v-.022l-.166.011-.166-.011v.022c-1.91.123-3.874.231-5.376.27h0l-.2,0c-.765.079-3.525.964-4.557,9.555l-2.439,20.3a61.957,61.957,0,0,0,12.572,1.974v.017l.166-.008.166.008Z" transform="translate(-1554.125 -1193.296)" fill="#355389"/>
            <path id="Trazado_115552" data-name="Trazado 115552" d="M1560.762,1234.431s-1.1-.851-.3-3,6.527-3.6,7.779-.619Z" transform="translate(-1551.185 -1197.633)" fill="#f4f4f4"/>
            <path id="Trazado_115553" data-name="Trazado 115553" d="M1611.137,1234.431s1.1-.851.3-3-6.527-3.6-7.778-.619Z" transform="translate(-1564.376 -1197.633)" fill="#f4f4f4"/>
            <path id="Trazado_115554" data-name="Trazado 115554" d="M1589.438,1209.222c-.008.073.323,2.72.5,4.12a1.1,1.1,0,0,1-.746,1.184c-1.334.447-3.923,1-5.489-.753a.729.729,0,0,1-.176-.586l.86-6.146Z" transform="translate(-1558.267 -1190.935)" fill="#f7a491"/>
            <path id="Trazado_115555" data-name="Trazado 115555" d="M1589.383,1210.559a1.11,1.11,0,0,0,.375-.219c-.076-.627-.13-1.088-.127-1.118l-5.053-2.182-.423,3.023C1585.734,1211.492,1588.12,1210.981,1589.383,1210.559Z" transform="translate(-1558.461 -1190.935)" fill="#f47458"/>
            <g id="Grupo_59230" data-name="Grupo 59230" transform="translate(20.363 2.781)">
              <path id="Trazado_115556" data-name="Trazado 115556" d="M1579.154,1198.927c.155,1.071-.305,2.025-1.03,2.13s-1.438-.678-1.594-1.749.305-2.024,1.03-2.13S1579,1197.857,1579.154,1198.927Z" transform="translate(-1576.501 -1190.721)" fill="#f7a491"/>
              <path id="Trazado_115557" data-name="Trazado 115557" d="M1596.435,1200.6c-.356,1.023-.084,2.046.607,2.286s1.54-.394,1.9-1.416.084-2.046-.607-2.286S1596.79,1199.577,1596.435,1200.6Z" transform="translate(-1582.501 -1191.317)" fill="#f7a491"/>
              <path id="Trazado_115558" data-name="Trazado 115558" d="M1592.313,1196.895c-.44,4.6-3.728,8.053-7.346,7.707s-6.194-4.355-5.755-8.957,3.729-8.053,7.346-7.708S1592.753,1192.293,1592.313,1196.895Z" transform="translate(-1577.309 -1187.913)" fill="#f7a491"/>
            </g>
            <path id="Trazado_115559" data-name="Trazado 115559" d="M1583.443,1214.824a5.641,5.641,0,0,0,3.255,2.511,4.518,4.518,0,0,1-2.628.213C1583.114,1217.135,1582.386,1216.338,1583.443,1214.824Z" transform="translate(-1558.087 -1193.296)" fill="#f4f4f4"/>
            <path id="Trazado_115560" data-name="Trazado 115560" d="M1591.174,1214.824a5.6,5.6,0,0,1-3.219,2.511,4.422,4.422,0,0,0,2.6.213C1591.5,1217.135,1592.218,1216.338,1591.174,1214.824Z" transform="translate(-1559.613 -1193.296)" fill="#f4f4f4"/>
            <g id="Grupo_59232" data-name="Grupo 59232" transform="translate(9.505 32.577)">
              <g id="Grupo_59231" data-name="Grupo 59231" transform="translate(15.138 2.696)">
                <path id="Trazado_115561" data-name="Trazado 115561" d="M1591.1,1236.288c.119-.185-.18-.5-.405-.731a10.111,10.111,0,0,0-2.015-.99,13.953,13.953,0,0,0-3.3.507,2.986,2.986,0,0,1-1.4.162c-.221-.045-.552-.106-.81-.159l-.527,1.962c1.976-.024,4.042.123,4.229.118a7.384,7.384,0,0,0,1.933-.727,1.768,1.768,0,0,1,1.107.142,4.376,4.376,0,0,0,1.512.454C1591.593,1236.938,1591.1,1236.288,1591.1,1236.288Z" transform="translate(-1582.645 -1234.555)" fill="#ed9485"/>
              </g>
              <path id="Trazado_115562" data-name="Trazado 115562" d="M1577.505,1234.078s-11.105-4.048-13.6-3.3-3.494,3.1-2.745,4.6,15.473.49,15.473.49Z" transform="translate(-1560.915 -1230.686)" fill="#ed9485"/>
            </g>
            <g id="Grupo_59234" data-name="Grupo 59234" transform="translate(22.88 32.577)">
              <g id="Grupo_59233" data-name="Grupo 59233" transform="translate(0 2.696)">
                <path id="Trazado_115563" data-name="Trazado 115563" d="M1580.479,1236.288c-.119-.185.18-.5.405-.731a10.114,10.114,0,0,1,2.015-.99,13.953,13.953,0,0,1,3.3.507,2.986,2.986,0,0,0,1.4.162c.221-.045.552-.106.81-.159l.527,1.962c-1.976-.024-4.042.123-4.229.118a7.4,7.4,0,0,1-1.934-.727,1.767,1.767,0,0,0-1.106.142,4.378,4.378,0,0,1-1.512.454C1579.982,1236.938,1580.479,1236.288,1580.479,1236.288Z" transform="translate(-1580.115 -1234.555)" fill="#f7a491"/>
              </g>
              <path id="Trazado_115564" data-name="Trazado 115564" d="M1590.683,1234.078s11.105-4.048,13.6-3.3,3.436,3.2,2.687,4.7-15.415.386-15.415.386Z" transform="translate(-1583.321 -1230.686)" fill="#f7a491"/>
            </g>
            <path id="Trazado_115565" data-name="Trazado 115565" d="M1579.3,1194.1s7.574-4.344,7.725-7.212-5.039.542-5.039.542l-2.928,3.58Z" transform="translate(-1556.916 -1184.473)" fill="#184655"/>
            <path id="Trazado_115566" data-name="Trazado 115566" d="M1588.617,1187.541s4.735,7.706,6.048,7.918a38.206,38.206,0,0,0,.669-3.826c-.107-.15-1.865-2.933-1.959-3.047s-3.454-1.829-3.454-1.829l-3.166-.093Z" transform="translate(-1559.249 -1184.753)" fill="#184655"/>
            <path id="Trazado_115567" data-name="Trazado 115567" d="M1585.751,1205.21l3.629.176a1.624,1.624,0,0,1-1.753,1.4C1585.678,1206.749,1585.751,1205.21,1585.751,1205.21Z" transform="translate(-1558.944 -1190.379)" fill="#fff"/>
          </g>
        </g>
      </g>
    </g>
    <g id="Grupo_59249" data-name="Grupo 59249" transform="translate(1274.463 1118.118)">
      <g id="Grupo_59240" data-name="Grupo 59240" transform="translate(0)">
        <g id="Grupo_59239" data-name="Grupo 59239">
          <path id="Trazado_115569" data-name="Trazado 115569" d="M1378.668,1173.208H1294.8a3.721,3.721,0,0,0-3.721,3.721v50.186a2.407,2.407,0,0,0,2.128,2.61H1329.2v10.3h-21.325a2.883,2.883,0,0,0-2.884,2.883h63.021a2.883,2.883,0,0,0-2.884-2.883h-21.325v-10.3h36.454a2.407,2.407,0,0,0,2.129-2.61v-50.186A3.721,3.721,0,0,0,1378.668,1173.208Z" transform="translate(-1291.081 -1173.208)" fill="#1a2c42"/>
          <path id="Trazado_115570" data-name="Trazado 115570" d="M1374.044,1263.821h-21.326v-12.18h-14.6v12.18H1316.79a2.883,2.883,0,0,0-2.884,2.883h63.021A2.883,2.883,0,0,0,1374.044,1263.821Z" transform="translate(-1298.006 -1197.003)" fill="#001333"/>
          <path id="Trazado_115571" data-name="Trazado 115571" d="M1385.241,1220.184v-43.254a3.721,3.721,0,0,0-3.721-3.721h-83.866a3.721,3.721,0,0,0-3.721,3.721v43.254Z" transform="translate(-1291.946 -1173.208)" fill="#001333"/>
          <path id="Trazado_115572" data-name="Trazado 115572" d="M1293.933,1240.642v6.931a2.407,2.407,0,0,0,2.128,2.61h87.051a2.407,2.407,0,0,0,2.129-2.61v-6.931Z" transform="translate(-1291.946 -1193.666)" fill="#001333"/>
          <path id="Trazado_115573" data-name="Trazado 115573" d="M1384.035,1219.123v-41.26a2,2,0,0,0-2.029-1.959H1299.03a2,2,0,0,0-2.029,1.959v41.26Z" transform="translate(-1292.877 -1174.026)" fill="#ebfbff"/>
        </g>
      </g>
      <g id="Grupo_59248" data-name="Grupo 59248" transform="translate(4.124 1.878)">
        <g id="Grupo_59247" data-name="Grupo 59247" clip-path="url(#clip-path-4)">
          <g id="Grupo_59246" data-name="Grupo 59246" transform="translate(25.862 0.556)">
            <g id="Grupo_59242" data-name="Grupo 59242" transform="translate(0 26.693)">
              <g id="Grupo_59241" data-name="Grupo 59241">
                <path id="Trazado_115574" data-name="Trazado 115574" d="M1366.334,1215.02h-.764a16.862,16.862,0,0,1-2.344.573,62.077,62.077,0,0,1-8.125.954c-1.225.043-2.486.057-3.62.056v0l-.441,0-.441,0v0c-1.133,0-2.394-.013-3.62-.056a62.082,62.082,0,0,1-8.125-.954,16.863,16.863,0,0,1-2.344-.573h-.763a1.81,1.81,0,0,0-1.609,2.127l3.532,32.954a1.754,1.754,0,0,0,1.5,1.653l10.6.814a1.694,1.694,0,0,1,2.525,0l10.6-.814a1.754,1.754,0,0,0,1.5-1.653l3.532-32.954A1.81,1.81,0,0,0,1366.334,1215.02Z" transform="translate(-1334.127 -1215.02)" fill="#6ea7ce"/>
              </g>
            </g>
            <path id="Trazado_115575" data-name="Trazado 115575" d="M1371.263,1206.052s5.3-9.446,6.583-11.454,4.644-9.987,4.764-10.3-2.311-4.09-1.769-4.219,1.143,1.991,1.722,1.737,2.27-5.357,2.6-5.1c.618.474-.911,3.166-.582,3.336s1.326-2.962,1.972-2.87-1.229,2.87-1.048,3.116,2.128-2.373,2.48-1.815c.192.3-1.79,2.286-1.409,2.471s2.143-1.094,2.329-.724-1.63.874-2.173,1.868-1.468,1.425-1.852,3.266-2.926,11.833-4.894,15.158-4.328,7.36-4.328,7.36Z" transform="translate(-1345.393 -1176.702)" fill="#f79c8d"/>
            <path id="Trazado_115576" data-name="Trazado 115576" d="M1359.381,1190.308c-4.78-2.522-10.262.8-11.3,2.146s-.529,6.493.418,8.4,1.978,5.918,4.128,5.177c.4-.137,3.388-1.268,3.479-2.161.412.8,3.547.765,3.966.747,2.272-.1,1.947-4.244,2.128-6.366S1360.887,1191.1,1359.381,1190.308Z" transform="translate(-1338.185 -1180.551)" fill="#184655"/>
            <path id="Trazado_115577" data-name="Trazado 115577" d="M1346.686,1217.268s-2.233-.317-5.708,3.03-8.162,7.434-6.135,10.7l8.535-.2s5.161-6.07,5.234-6.386S1346.686,1217.268,1346.686,1217.268Z" transform="translate(-1334.195 -1189.006)" fill="#f47458"/>
            <path id="Trazado_115578" data-name="Trazado 115578" d="M1373.1,1205.966l-4.811-2.96s-6.729,9.93-8.5,9.938l-.182,0h0c-1.376-.037-3.177-.136-4.928-.248v-.02l-.152.01-.152-.01v.02c-1.751.112-3.551.211-4.928.248h0l-.183,0c-.7.072-3.231.884-4.177,8.759l-2.235,18.61a56.8,56.8,0,0,0,11.524,1.81v.015l.152-.008.152.008v-.015a56.806,56.806,0,0,0,11.525-1.81l-1.809-15.062a8.534,8.534,0,0,1,1.385-5.787A129.083,129.083,0,0,0,1373.1,1205.966Z" transform="translate(-1336.774 -1184.682)" fill="#f47458"/>
            <path id="Trazado_115579" data-name="Trazado 115579" d="M1360.8,1211.745c-.007.067.3,2.493.456,3.776a1.013,1.013,0,0,1-.684,1.085c-1.223.41-3.6.913-5.032-.69a.669.669,0,0,1-.161-.538l.788-5.634Z" transform="translate(-1340.571 -1186.727)" fill="#f7a491"/>
            <path id="Trazado_115580" data-name="Trazado 115580" d="M1360.745,1212.97a1.015,1.015,0,0,0,.343-.2c-.07-.575-.118-1-.116-1.025l-4.633-2-.387,2.771C1357.4,1213.827,1359.587,1213.358,1360.745,1212.97Z" transform="translate(-1340.748 -1186.727)" fill="#f47458"/>
            <g id="Grupo_59243" data-name="Grupo 59243" transform="translate(9.435 10.738)">
              <path id="Trazado_115581" data-name="Trazado 115581" d="M1350.109,1204.473c.412.9.25,1.861-.361,2.139s-1.439-.229-1.85-1.132-.25-1.86.361-2.138S1349.7,1203.57,1350.109,1204.473Z" transform="translate(-1347.67 -1195.498)" fill="#f7a491"/>
              <path id="Trazado_115582" data-name="Trazado 115582" d="M1365.819,1201.463c-.052.991.45,1.822,1.12,1.856s1.255-.74,1.306-1.731-.45-1.822-1.12-1.856S1365.871,1200.472,1365.819,1201.463Z" transform="translate(-1353.175 -1194.426)" fill="#f7a491"/>
              <path id="Trazado_115583" data-name="Trazado 115583" d="M1361.827,1198.613c.791,4.164-1.22,8.042-4.493,8.664s-6.568-2.249-7.359-6.412,1.22-8.042,4.493-8.665S1361.035,1194.45,1361.827,1198.613Z" transform="translate(-1348.317 -1192.116)" fill="#f7a491"/>
            </g>
            <path id="Trazado_115584" data-name="Trazado 115584" d="M1355.3,1216.881a5.168,5.168,0,0,0,2.984,2.3,4.146,4.146,0,0,1-2.41.2C1355,1219,1354.331,1218.268,1355.3,1216.881Z" transform="translate(-1340.405 -1188.892)" fill="#f4f4f4"/>
            <path id="Trazado_115585" data-name="Trazado 115585" d="M1362.387,1216.881a5.127,5.127,0,0,1-2.951,2.3,4.055,4.055,0,0,0,2.382.2C1362.685,1219,1363.344,1218.268,1362.387,1216.881Z" transform="translate(-1341.805 -1188.892)" fill="#f4f4f4"/>
            <g id="Grupo_59245" data-name="Grupo 59245" transform="translate(0.363 38.118)">
              <g id="Grupo_59244" data-name="Grupo 59244" transform="translate(13.877 2.471)">
                <path id="Trazado_115586" data-name="Trazado 115586" d="M1362.314,1236.556c.11-.169-.165-.455-.371-.67a9.278,9.278,0,0,0-1.847-.908,12.814,12.814,0,0,0-3.023.465,2.735,2.735,0,0,1-1.28.148c-.2-.041-.506-.1-.743-.146l-.484,1.8c1.811-.022,3.705.112,3.877.108a6.776,6.776,0,0,0,1.773-.667,1.624,1.624,0,0,1,1.014.13,4,4,0,0,0,1.385.417C1362.771,1237.152,1362.314,1236.556,1362.314,1236.556Z" transform="translate(-1354.568 -1234.968)" fill="#f7a491"/>
              </g>
              <path id="Trazado_115587" data-name="Trazado 115587" d="M1349.856,1234.531s-10.18-3.711-12.469-3.025-3.2,2.841-2.517,4.214,14.184.449,14.184.449Z" transform="translate(-1334.648 -1231.421)" fill="#f7a491"/>
            </g>
            <path id="Trazado_115588" data-name="Trazado 115588" d="M1349.465,1199.66s2.772-.669,3.929-2.487,3.634-4.923,4.708-4.954-1.143-1.467-1.894-1.325-5.949,1.666-5.949,1.666l-.882,2.353-.734,2.86Z" transform="translate(-1338.531 -1181.004)" fill="#184655"/>
            <path id="Trazado_115589" data-name="Trazado 115589" d="M1379.359,1202.618l4.8,3,.542-1.231-4.553-2.688Z" transform="translate(-1347.849 -1184.284)" fill="#f4f4f4"/>
            <path id="Trazado_115590" data-name="Trazado 115590" d="M1357.247,1208.463l3.6-.859a1.653,1.653,0,0,1-1.315,1.865C1357.613,1209.988,1357.247,1208.463,1357.247,1208.463Z" transform="translate(-1341.141 -1186.077)" fill="#fff"/>
          </g>
        </g>
      </g>
    </g>
  </g>
</svg>
