<svg xmlns="http://www.w3.org/2000/svg" width="238.995" height="283" viewBox="0 0 238.995 283">
  <g id="Grupo_59193" data-name="Grupo 59193" transform="translate(-595.172 -47.552)">
    <g id="Grupo_59192" data-name="Grupo 59192" transform="translate(595.172 47.552)">
      <g id="Grupo_59032" data-name="Grupo 59032" transform="translate(0 1.471)">
        <path id="Trazado_115314" data-name="Trazado 115314" d="M716.951,140.018c.562-6.988,16.27-12.944,23.708-19.233,5.169-4.37,3.8-17.438,1.251-22.986-9.381-20.415-.116-39.244-30.45-42.976-9.86-1.212-18.817,2.334-32.062,2.334-27.619,0-20.46-9.055-49.221-6.742-16.757,1.348-21.694,33.93-18.512,46.921,7.653,31.244-37.752,46.114-3.619,71.029,17.7,12.92,27.907,64.01,67.107,53.2,10.195-2.811,16.244-18.464,17.333-29.756C695.594,159.6,714.177,174.533,716.951,140.018Z" transform="translate(-595.172 -50.037)" fill="#fff" fill-rule="evenodd"/>
      </g>
      <g id="Grupo_59033" data-name="Grupo 59033" transform="translate(80.753 166.186)">
        <path id="Trazado_115315" data-name="Trazado 115315" d="M787.586,328.325,814.22,353.48,781.5,388.827c-7.712,3.508-30.961,8-46.442,12L731.6,387.512l38.964-19.976Z" transform="translate(-731.605 -328.325)" fill="#3a73a4" fill-rule="evenodd"/>
      </g>
      <g id="Grupo_59034" data-name="Grupo 59034" transform="translate(62.991 227.756)">
        <path id="Trazado_115316" data-name="Trazado 115316" d="M719.989,442.143c-3.925,1-7.271,1.886-9.658,2.632-2.054.891-1.6,4.739-.938,9.536l-4.092-3.537-3.7-12.214c1.585-.5,3.765-.578,6.243-1.606a85.071,85.071,0,0,0,9.153-4.6Z" transform="translate(-701.596 -432.349)" fill="#f9c9bc" fill-rule="evenodd"/>
      </g>
      <g id="Grupo_59035" data-name="Grupo 59035" transform="translate(60.736 232.006)">
        <path id="Trazado_115317" data-name="Trazado 115317" d="M705.74,467.645c6.016-.56,1.187-16.581,3.209-19.368l-2.683-8.748a21.98,21.98,0,0,0-8.481,2.12Z" transform="translate(-697.786 -439.529)" fill="#fceaea" fill-rule="evenodd"/>
      </g>
      <g id="Grupo_59036" data-name="Grupo 59036" transform="translate(59.793 234.084)">
        <rect id="Rectángulo_6079" data-name="Rectángulo 6079" width="0.972" height="27.229" transform="matrix(0.956, -0.293, 0.293, 0.956, 0, 0.285)" fill="#030317"/>
      </g>
      <g id="Grupo_59037" data-name="Grupo 59037" transform="translate(58.863 234.369)">
        <rect id="Rectángulo_6080" data-name="Rectángulo 6080" width="0.972" height="27.229" transform="translate(0 0.285) rotate(-17.013)" fill="#fceaea"/>
      </g>
      <g id="Grupo_59038" data-name="Grupo 59038" transform="translate(67.372 242.286)">
        <path id="Trazado_115318" data-name="Trazado 115318" d="M713.157,457.634l-3.713-.73a.373.373,0,1,0-.144.732l3.714.73a.373.373,0,1,0,.144-.732Z" transform="translate(-708.998 -456.897)" fill="#030317" fill-rule="evenodd"/>
      </g>
      <g id="Grupo_59039" data-name="Grupo 59039" transform="translate(67.396 244.815)">
        <path id="Trazado_115319" data-name="Trazado 115319" d="M713.2,461.908l-3.714-.73a.373.373,0,0,0-.144.732l3.714.73a.373.373,0,0,0,.144-.732Z" transform="translate(-709.039 -461.17)" fill="#030317" fill-rule="evenodd"/>
      </g>
      <g id="Grupo_59040" data-name="Grupo 59040" transform="translate(67.601 247.382)">
        <path id="Trazado_115320" data-name="Trazado 115320" d="M713.544,466.245l-3.714-.73a.373.373,0,1,0-.143.732l3.714.73a.373.373,0,0,0,.144-.732Z" transform="translate(-709.385 -465.508)" fill="#030317" fill-rule="evenodd"/>
      </g>
      <g id="Grupo_59041" data-name="Grupo 59041" transform="translate(67.661 250.02)">
        <path id="Trazado_115321" data-name="Trazado 115321" d="M713.644,470.7l-3.714-.73a.373.373,0,0,0-.144.732l3.714.731a.373.373,0,0,0,.143-.732Z" transform="translate(-709.486 -469.965)" fill="#030317" fill-rule="evenodd"/>
      </g>
      <g id="Grupo_59042" data-name="Grupo 59042" transform="translate(68.844 231.633)">
        <path id="Trazado_115322" data-name="Trazado 115322" d="M714.9,447.911l-2.682-8.748a.373.373,0,1,0-.713.218l2.683,8.748a.373.373,0,0,0,.713-.218Z" transform="translate(-711.484 -438.9)" fill="#030317" fill-rule="evenodd"/>
      </g>
      <g id="Grupo_59043" data-name="Grupo 59043" transform="translate(73.931 224.019)">
        <path id="Trazado_115323" data-name="Trazado 115323" d="M732.9,441.731l-5.174-15.7-7.652,3.57,4.667,14.159Z" transform="translate(-720.079 -426.036)" fill="#689fce" fill-rule="evenodd"/>
      </g>
      <g id="Grupo_59044" data-name="Grupo 59044" transform="translate(113.47 86.489)">
        <path id="Trazado_115324" data-name="Trazado 115324" d="M820.847,193.676l-.632,16.54-19.786,2.664-4.646,24.512.134.511-8.987-1.51.044-.689c.076-5.3-1.2-32.049,3.767-34.941C800.308,195.2,813.9,194.552,820.847,193.676Z" transform="translate(-786.881 -193.676)" fill="#f9c9bc" fill-rule="evenodd"/>
      </g>
      <g id="Grupo_59045" data-name="Grupo 59045" transform="translate(141.393 85.272)">
        <path id="Trazado_115325" data-name="Trazado 115325" d="M837.2,211.318c-2.513-2.09-4.229-15.275-2.33-18.529,7.379-.655,25.652-4.087,27.772,5.1C865.027,208.245,844.976,210.889,837.2,211.318Z" transform="translate(-834.057 -191.62)" fill="#e77c20" fill-rule="evenodd"/>
      </g>
      <g id="Grupo_59046" data-name="Grupo 59046" transform="translate(160.326 68.309)">
        <path id="Trazado_115326" data-name="Trazado 115326" d="M882.238,166.862l-12.52-3.9c-.775,4.728-1.79,10.346-3.46,13.043-2.4,7.051,16.35,12.53,16.26,8.292C881.524,180.314,881.858,176.256,882.238,166.862Z" transform="translate(-866.046 -162.96)" fill="#f9c9bc" fill-rule="evenodd"/>
      </g>
      <g id="Grupo_59047" data-name="Grupo 59047" transform="translate(160.284 49.334)">
        <path id="Trazado_115327" data-name="Trazado 115327" d="M878.4,130.961c5.953.685,10.092,7.208,9.245,14.569s-6.36,12.772-12.314,12.087-10.092-7.208-9.245-14.569S872.444,130.275,878.4,130.961Z" transform="translate(-865.974 -130.902)" fill="#f9c9bc" fill-rule="evenodd"/>
      </g>
      <g id="Grupo_59048" data-name="Grupo 59048" transform="translate(164.334 73.789)">
        <path id="Trazado_115328" data-name="Trazado 115328" d="M873,172.911c3.047,1.828,7.118,2.653,10.5,1.276a.373.373,0,1,0-.281-.69c-3.155,1.286-6.988.479-9.83-1.226a.373.373,0,0,0-.384.64Z" transform="translate(-872.817 -172.219)" fill="#030317" fill-rule="evenodd"/>
      </g>
      <g id="Grupo_59049" data-name="Grupo 59049" transform="translate(164.387 55.433)">
        <path id="Trazado_115329" data-name="Trazado 115329" d="M873.354,143.985a11.134,11.134,0,0,0,3.748-1.251c.337-.321-.019-.934-.245-1.356-.345-.645-3.235.653-3.909,1.618C872.782,143.236,873.134,144.008,873.354,143.985Z" transform="translate(-872.905 -141.206)" fill="#030317" fill-rule="evenodd"/>
      </g>
      <g id="Grupo_59050" data-name="Grupo 59050" transform="translate(175.217 56.324)">
        <path id="Trazado_115330" data-name="Trazado 115330" d="M894.532,146.258a11.123,11.123,0,0,1-3.267-2.223c-.237-.4.273-.894.6-1.238.507-.527,2.935,1.509,3.321,2.62C895.287,145.693,894.739,146.34,894.532,146.258Z" transform="translate(-891.205 -142.712)" fill="#030317" fill-rule="evenodd"/>
      </g>
      <g id="Grupo_59051" data-name="Grupo 59051" transform="translate(159.158 50.546)">
        <path id="Trazado_115331" data-name="Trazado 115331" d="M865.723,132.968c-.8,1.083-3.021,13.436-.432,12.886.475-.1,2.215-9.021,5.364-10.975C871.878,134.12,865.866,132.775,865.723,132.968Z" transform="translate(-864.072 -132.949)" fill="#994616" fill-rule="evenodd"/>
      </g>
      <g id="Grupo_59052" data-name="Grupo 59052" transform="translate(166.176 59.654)">
        <path id="Trazado_115332" data-name="Trazado 115332" d="M876.775,148.34c.416.035.714.532.665,1.112s-.425,1.02-.842.985-.714-.533-.665-1.112S876.359,148.3,876.775,148.34Z" transform="translate(-875.928 -148.338)" fill="#030317" fill-rule="evenodd"/>
      </g>
      <g id="Grupo_59053" data-name="Grupo 59053" transform="translate(175.431 60.724)">
        <path id="Trazado_115333" data-name="Trazado 115333" d="M892.482,150.151c-.413-.061-.816.356-.9.931s.182,1.09.6,1.151.817-.357.9-.932S892.9,150.211,892.482,150.151Z" transform="translate(-891.566 -150.145)" fill="#030317" fill-rule="evenodd"/>
      </g>
      <g id="Grupo_59056" data-name="Grupo 59056" transform="translate(155.441 60.316)">
        <g id="Grupo_59054" data-name="Grupo 59054">
          <path id="Trazado_115334" data-name="Trazado 115334" d="M861.25,149.472a3.152,3.152,0,1,0,2.83,3.444A3.152,3.152,0,0,0,861.25,149.472Z" transform="translate(-857.791 -149.456)" fill="#f9c9bc" fill-rule="evenodd"/>
        </g>
        <g id="Grupo_59055" data-name="Grupo 59055" transform="translate(0.972 1.135)">
          <path id="Trazado_115335" data-name="Trazado 115335" d="M863.838,153.532c-.087-2.8-4-2.736-4.4-.617a.373.373,0,1,0,.733.138,1.519,1.519,0,0,1,2.921.5.373.373,0,1,0,.745-.023Z" transform="translate(-859.433 -151.374)" fill="#030317" fill-rule="evenodd"/>
        </g>
      </g>
      <g id="Grupo_59057" data-name="Grupo 59057" transform="translate(169.985 61.993)">
        <path id="Trazado_115336" data-name="Trazado 115336" d="M883.223,152.631a4.825,4.825,0,0,0,.486,2.349,10.713,10.713,0,0,1,.542,1.229c0,.689-.963.784-1.471.726a.373.373,0,0,0-.085.741c.991.114,2.311-.265,2.3-1.471a5.841,5.841,0,0,0-.6-1.512,4.137,4.137,0,0,1-.431-2,.373.373,0,1,0-.743-.064Z" transform="translate(-882.364 -152.29)" fill="#030317" fill-rule="evenodd"/>
      </g>
      <g id="Grupo_59058" data-name="Grupo 59058" transform="translate(162.55 63.708)">
        <path id="Trazado_115337" data-name="Trazado 115337" d="M869.983,155.529c-.443.562-.041,1.618.9,2.359s2.06.886,2.5.324.041-1.618-.9-2.359S870.426,154.967,869.983,155.529Z" transform="translate(-869.802 -155.187)" fill="#ff956e" fill-rule="evenodd"/>
      </g>
      <g id="Grupo_59059" data-name="Grupo 59059" transform="translate(174.975 65.349)">
        <path id="Trazado_115338" data-name="Trazado 115338" d="M894.793,158.531c.3.648-.327,1.585-1.411,2.093s-2.207.395-2.511-.253.328-1.584,1.411-2.093S894.49,157.883,894.793,158.531Z" transform="translate(-890.795 -157.96)" fill="#ff956e" fill-rule="evenodd"/>
      </g>
      <g id="Grupo_59060" data-name="Grupo 59060" transform="translate(157.317 38.172)">
        <path id="Trazado_115339" data-name="Trazado 115339" d="M871.851,115.189c4.123-2.528,12.313,1.032,14.52,2.321,8.381,4.9.58,23.855-.77,21.475-.3-2.416.391-5.2-1.728-9.432-1.551-3.1-9.535-4.685-14.488-3.206-2.107.629-8.262-.484-8.422-3.764-.041-.842.907-1.476,2.873-1.476-5.5-5.68,1.789-7.225,3.946-4.808C865.573,110.023,871.955,111.606,871.851,115.189Z" transform="translate(-860.962 -112.045)" fill="#994616" fill-rule="evenodd"/>
      </g>
      <g id="Grupo_59063" data-name="Grupo 59063" transform="translate(180.37 63.186)">
        <g id="Grupo_59061" data-name="Grupo 59061">
          <path id="Trazado_115340" data-name="Trazado 115340" d="M903.476,154.333a3.152,3.152,0,1,1-3.539,2.711A3.153,3.153,0,0,1,903.476,154.333Z" transform="translate(-899.909 -154.305)" fill="#f9c9bc" fill-rule="evenodd"/>
        </g>
        <g id="Grupo_59062" data-name="Grupo 59062" transform="translate(0.941 1.127)">
          <path id="Trazado_115341" data-name="Trazado 115341" d="M901.511,157.866c.72-2.7,4.516-1.755,4.424.4a.373.373,0,0,1-.745-.033,1.519,1.519,0,0,0-2.958-.175.373.373,0,1,1-.72-.192Z" transform="translate(-901.499 -156.21)" fill="#030317" fill-rule="evenodd"/>
        </g>
      </g>
      <g id="Grupo_59064" data-name="Grupo 59064" transform="translate(166.767 68.764)">
        <path id="Trazado_115342" data-name="Trazado 115342" d="M883.318,166.652c.155-1.2.389-2.086-.663-2.16a13.183,13.183,0,0,1-2.2.026c-.843-.155-1.639-.685-2.117-.772-.61-.112-1.138.31-1.4,2.073-.152,1.025,1.5.733,3.173.877C880.948,166.767,883.12,168.2,883.318,166.652Z" transform="translate(-876.927 -163.729)" fill="#fff" fill-rule="evenodd"/>
      </g>
      <g id="Grupo_59065" data-name="Grupo 59065" transform="translate(205.746 260.406)">
        <path id="Trazado_115343" data-name="Trazado 115343" d="M952.488,487.511c1.11,3.895,2.092,7.215,2.9,9.58.948,2.028,4.782,1.468,9.559.668l-3.42,4.191L949.427,506c-.543-1.57-.684-3.747-1.783-6.194a84.968,84.968,0,0,0-4.862-9.02Z" transform="translate(-942.783 -487.511)" fill="#f9c9bc" fill-rule="evenodd"/>
      </g>
      <g id="Grupo_59066" data-name="Grupo 59066" transform="translate(210.254 269.487)">
        <path id="Trazado_115344" data-name="Trazado 115344" d="M978.519,505.823c-.73-6-16.607-.717-19.451-2.659l-8.668,2.929a21.983,21.983,0,0,0,2.359,8.418Z" transform="translate(-950.4 -502.854)" fill="#fceaea" fill-rule="evenodd"/>
      </g>
      <g id="Grupo_59067" data-name="Grupo 59067" transform="translate(212.572 272.456)">
        <rect id="Rectángulo_6081" data-name="Rectángulo 6081" width="27.23" height="0.973" transform="translate(0 8.701) rotate(-18.636)" fill="#030317"/>
      </g>
      <g id="Grupo_59068" data-name="Grupo 59068" transform="translate(212.882 273.377)">
        <rect id="Rectángulo_6082" data-name="Rectángulo 6082" width="27.23" height="0.972" transform="matrix(0.948, -0.32, 0.32, 0.948, 0, 8.701)" fill="#fceaea"/>
      </g>
      <g id="Grupo_59069" data-name="Grupo 59069" transform="translate(220.571 269.789)">
        <path id="Trazado_115345" data-name="Trazado 115345" d="M968.46,503.676l-.625,3.732a.373.373,0,0,0,.736.123l.625-3.733a.373.373,0,1,0-.736-.122Z" transform="translate(-967.829 -503.364)" fill="#030317" fill-rule="evenodd"/>
      </g>
      <g id="Grupo_59070" data-name="Grupo 59070" transform="translate(223.099 269.694)">
        <path id="Trazado_115346" data-name="Trazado 115346" d="M972.731,503.515l-.625,3.733a.373.373,0,0,0,.735.123l.626-3.733a.373.373,0,0,0-.736-.123Z" transform="translate(-972.1 -503.203)" fill="#030317" fill-rule="evenodd"/>
      </g>
      <g id="Grupo_59071" data-name="Grupo 59071" transform="translate(225.659 269.416)">
        <path id="Trazado_115347" data-name="Trazado 115347" d="M977.056,503.044l-.625,3.733a.373.373,0,0,0,.736.123l.625-3.733a.373.373,0,0,0-.736-.123Z" transform="translate(-976.426 -502.733)" fill="#030317" fill-rule="evenodd"/>
      </g>
      <g id="Grupo_59072" data-name="Grupo 59072" transform="translate(228.295 269.282)">
        <path id="Trazado_115348" data-name="Trazado 115348" d="M981.51,502.818l-.625,3.733a.373.373,0,0,0,.736.123l.624-3.733a.373.373,0,1,0-.735-.123Z" transform="translate(-980.879 -502.507)" fill="#030317" fill-rule="evenodd"/>
      </g>
      <g id="Grupo_59073" data-name="Grupo 59073" transform="translate(209.881 269.424)">
        <path id="Trazado_115349" data-name="Trazado 115349" d="M958.692,502.766l-8.669,2.929a.373.373,0,0,0,.239.707l8.669-2.929a.373.373,0,0,0-.238-.707Z" transform="translate(-949.77 -502.747)" fill="#030317" fill-rule="evenodd"/>
      </g>
      <g id="Grupo_59074" data-name="Grupo 59074" transform="translate(133.896 156.691)">
        <path id="Trazado_115350" data-name="Trazado 115350" d="M861.466,317.956l-40.074-5.672a43.086,43.086,0,0,0,1.673,11.923c3.379,11.805,11.523,21.713,21.155,30.533,6.01,5.5,15.054,12.769,21.255,17.842,1.65,1.35,22.1,38.864,25.585,45.005l13.071-4.069c-4.932-16.852-9.248-38.019-14.8-50.555Z" transform="translate(-821.392 -312.284)" fill="#3a73a4" fill-rule="evenodd"/>
      </g>
      <g id="Grupo_59075" data-name="Grupo 59075" transform="translate(132.172 81.351)">
        <path id="Trazado_115351" data-name="Trazado 115351" d="M818.479,268.845c0-17.633,8.016-63.961,28.367-83.849,2.387,3.486,11.619,8.292,16.26,8.292,5.178,27.726,4.616,43.892,1.513,77.411C845.472,274.773,823.658,278.04,818.479,268.845Z" transform="translate(-818.479 -184.996)" fill="#e77c20" fill-rule="evenodd"/>
      </g>
      <g id="Grupo_59076" data-name="Grupo 59076" transform="translate(170.107 100.401)">
        <path id="Trazado_115352" data-name="Trazado 115352" d="M891.065,217.18a187.8,187.8,0,0,1,2,33.185c-2.907-.052-6.157-.563-7.6-.563-4.6,0-2.358-6.076-2.34-6.1,3.551-4.986,1.292-23.783,2.156-25.958C885.279,217.769,888.537,217.407,891.065,217.18Z" transform="translate(-882.57 -217.18)" fill="#ff9987" fill-rule="evenodd"/>
      </g>
      <g id="Grupo_59077" data-name="Grupo 59077" transform="translate(214.888 75.925)">
        <path id="Trazado_115353" data-name="Trazado 115353" d="M967.368,192.66l-6.827-5.421c-.157-1.129-2.223-4.686-2.311-7.807-.034-1.215,2.034-2.37,2.883-2.983a13.084,13.084,0,0,1,3.34-.616c1.147.1,1.13,1.057.883,1.387-.53.706-2.366,1.385-2.993,2.178-.517.655-.874,1.142-.386,2.1,1.451-1.671,3.257-3.573,3.734-4.2,1.446-1.9,3.04-.762,2.7.694,1.128-.971,2.485.156,1.957,1.572,1.336-1.424,2.589.273,2.028,1.441.047-.214,1.635-.769,1.428.983C973.324,186.095,970.6,190.092,967.368,192.66Z" transform="translate(-958.229 -175.828)" fill="#f9c9bc" fill-rule="evenodd"/>
      </g>
      <g id="Grupo_59078" data-name="Grupo 59078" transform="translate(173.981 87.337)">
        <path id="Trazado_115354" data-name="Trazado 115354" d="M889.116,218.721l7.583-14,18,8.632,17.633-18.25,7.152,4.932c-2.97,4.386-17.594,29.071-23.336,28.762C905.1,228.207,895.4,221.8,889.116,218.721Z" transform="translate(-889.116 -195.108)" fill="#f9c9bc" fill-rule="evenodd"/>
      </g>
      <g id="Grupo_59079" data-name="Grupo 59079" transform="translate(160.204 91.099)">
        <path id="Trazado_115355" data-name="Trazado 115355" d="M894.912,209.411c.861,3.152-5.289,14.94-8.71,16.52-8.382-3.257-23.364-11.352-19.835-20.1C870.344,195.979,888.291,205.3,894.912,209.411Z" transform="translate(-865.839 -201.465)" fill="#e77c20" fill-rule="evenodd"/>
      </g>
      <g id="Grupo_59080" data-name="Grupo 59080" transform="translate(111.42 128.517)">
        <path id="Trazado_115356" data-name="Trazado 115356" d="M785.562,264.683l8.808,1.688c.675.919,2.869,2.691,4.43,5.4.607,1.053-.662,3.052-1.118,3.995a13.065,13.065,0,0,1-2.646,2.13c-1.055.46-1.5-.392-1.435-.8.131-.874,1.423-2.343,1.6-3.339.144-.822-.144-1.2-1.03-1.816-.482,2.16-.8,4.475-.917,5.256-.366,2.362-2.312,2.116-2.709.676-.53,1.391-2.261,1.045-2.469-.453-.5,1.888-2.5.748-2.562-.547.059.211-1.422,1.246-1.831-.469C783.075,273.866,783.448,267.491,785.562,264.683Z" transform="translate(-783.418 -264.683)" fill="#f9c9bc" fill-rule="evenodd"/>
      </g>
      <g id="Grupo_59081" data-name="Grupo 59081" transform="translate(201.728 255.735)">
        <path id="Trazado_115357" data-name="Trazado 115357" d="M951.61,479.62l-15.615,5.41,3.685,7.6,14.087-4.88Z" transform="translate(-935.995 -479.62)" fill="#689fce" fill-rule="evenodd"/>
      </g>
      <g id="Grupo_59082" data-name="Grupo 59082" transform="translate(166.711 42.385)">
        <path id="Trazado_115358" data-name="Trazado 115358" d="M887.089,121.237a15.743,15.743,0,0,0-9.781-.93.373.373,0,1,1-.2-.717,16.46,16.46,0,0,1,10.317.981.373.373,0,0,1-.333.667Z" transform="translate(-876.833 -119.162)" fill-rule="evenodd"/>
      </g>
      <g id="Grupo_59083" data-name="Grupo 59083" transform="translate(163.474 45.17)">
        <path id="Trazado_115359" data-name="Trazado 115359" d="M882.425,125.339a19.357,19.357,0,0,0-6.266-.7,12.745,12.745,0,0,0-4.268.867.373.373,0,1,1-.307-.679,13.423,13.423,0,0,1,4.536-.932,20.123,20.123,0,0,1,6.509.728.373.373,0,0,1-.2.717Z" transform="translate(-871.364 -123.866)" fill-rule="evenodd"/>
      </g>
      <g id="Grupo_59084" data-name="Grupo 59084" transform="translate(162.488 48.564)">
        <path id="Trazado_115360" data-name="Trazado 115360" d="M879.241,130.761a13.3,13.3,0,0,0-9.006.933.373.373,0,1,1-.328-.669,14.034,14.034,0,0,1,9.551-.977.373.373,0,1,1-.217.713Z" transform="translate(-869.698 -129.601)" fill-rule="evenodd"/>
      </g>
      <g id="Grupo_59085" data-name="Grupo 59085" transform="translate(135.234 168.41)">
        <path id="Trazado_115361" data-name="Trazado 115361" d="M824.388,332.369c1.17,4.919,3.949,9.961,6.734,14.148a82.285,82.285,0,0,0,7.294,9.393,48.658,48.658,0,0,0,6.634,6.322.373.373,0,0,1-.447.6,49.425,49.425,0,0,1-6.742-6.42,83.013,83.013,0,0,1-7.361-9.479c-2.836-4.264-5.647-9.378-6.839-14.388a.373.373,0,0,1,.726-.172Z" transform="translate(-823.652 -332.083)" fill-rule="evenodd"/>
      </g>
      <g id="Grupo_59086" data-name="Grupo 59086" transform="translate(119.453 205.244)">
        <path id="Trazado_115362" data-name="Trazado 115362" d="M799.111,397.665l-1.408-3.131a.373.373,0,0,0-.681.306l1.408,3.13a.373.373,0,0,0,.681-.305Z" transform="translate(-796.99 -394.314)" fill="#030317" fill-rule="evenodd"/>
      </g>
      <g id="Grupo_59087" data-name="Grupo 59087" transform="translate(177.842 216.464)">
        <path id="Trazado_115363" data-name="Trazado 115363" d="M899.415,413.272l-3.426.21a.373.373,0,1,0,.046.744l3.426-.21a.373.373,0,0,0-.046-.744Z" transform="translate(-895.639 -413.272)" fill="#030317" fill-rule="evenodd"/>
      </g>
      <g id="Grupo_59088" data-name="Grupo 59088" transform="translate(167.198 108.267)">
        <path id="Trazado_115364" data-name="Trazado 115364" d="M890.889,238.115a63.78,63.78,0,0,1-13.071-6.964.373.373,0,1,1,.421-.616,63.067,63.067,0,0,0,12.922,6.885.373.373,0,1,1-.272.694Z" transform="translate(-877.656 -230.47)" fill-rule="evenodd"/>
      </g>
      <g id="Grupo_59089" data-name="Grupo 59089" transform="translate(144.361 81.177)">
        <path id="Trazado_115365" data-name="Trazado 115365" d="M855.31,185.339a59.57,59.57,0,0,0-8.279,11.1,112.793,112.793,0,0,0-7.243,13.792.373.373,0,0,1-.685-.3,113.641,113.641,0,0,1,7.291-13.885,60.3,60.3,0,0,1,8.393-11.239.373.373,0,1,1,.523.531Z" transform="translate(-839.073 -184.702)" fill-rule="evenodd"/>
      </g>
      <g id="Grupo_59096" data-name="Grupo 59096" transform="translate(73.648 18.276)">
        <g id="Grupo_59090" data-name="Grupo 59090">
          <path id="Trazado_115366" data-name="Trazado 115366" d="M734.092,118.676l27.461-20.168,11.807-8.672-.789-1.074a1.338,1.338,0,0,0-1.863-.285L759.975,96.36,747.529,79.413a2.423,2.423,0,0,0-3.378-.517L720.585,96.2a2.423,2.423,0,0,0-.517,3.378Z" transform="translate(-719.601 -78.429)" fill="#3a73a4" fill-rule="evenodd"/>
        </g>
        <g id="Grupo_59091" data-name="Grupo 59091" transform="translate(1.792 1.834)">
          <rect id="Rectángulo_6083" data-name="Rectángulo 6083" width="30.224" height="21.392" transform="matrix(0.806, -0.592, 0.592, 0.806, 0, 17.891)" fill="#ffe8e8"/>
        </g>
        <g id="Grupo_59092" data-name="Grupo 59092" transform="translate(5.522 12.214)">
          <path id="Rectángulo_6084" data-name="Rectángulo 6084" d="M.757,0H12.232a.757.757,0,0,1,.757.757V3.331a.756.756,0,0,1-.756.756H.756A.756.756,0,0,1,0,3.331V.757A.757.757,0,0,1,.757,0Z" transform="translate(0 7.689) rotate(-36.295)" fill="#ff9987"/>
        </g>
        <g id="Grupo_59093" data-name="Grupo 59093" transform="translate(18.378 10.518)">
          <rect id="Rectángulo_6085" data-name="Rectángulo 6085" width="12.989" height="6.075" rx="1.124" transform="matrix(0.806, -0.592, 0.592, 0.806, 0, 7.689)" fill="#e77c20"/>
        </g>
        <g id="Grupo_59094" data-name="Grupo 59094" transform="translate(14.471 24.398)">
          <path id="Rectángulo_6086" data-name="Rectángulo 6086" d="M.352,0H12.637a.353.353,0,0,1,.353.353v1.2a.352.352,0,0,1-.352.352H.352A.352.352,0,0,1,0,1.551V.352A.352.352,0,0,1,.352,0Z" transform="translate(0 7.689) rotate(-36.295)" fill="#ff9987"/>
        </g>
        <g id="Grupo_59095" data-name="Grupo 59095" transform="translate(14.082 17.558)">
          <path id="Trazado_115367" data-name="Trazado 115367" d="M769.905,108.767,743.986,127.8a.373.373,0,1,1-.442-.6l25.92-19.036a.373.373,0,0,1,.441.6Z" transform="translate(-743.392 -108.094)" fill-rule="evenodd"/>
        </g>
      </g>
      <g id="Grupo_59101" data-name="Grupo 59101" transform="translate(121.762 3.018)">
        <g id="Grupo_59097" data-name="Grupo 59097">
          <rect id="Rectángulo_6087" data-name="Rectángulo 6087" width="13.711" height="12.922" transform="translate(0 6.633) rotate(-28.93)" fill="#3a73a4"/>
        </g>
        <g id="Grupo_59100" data-name="Grupo 59100" transform="translate(3.782 3.353)">
          <g id="Grupo_59098" data-name="Grupo 59098" transform="translate(0 2.836)">
            <path id="Trazado_115368" data-name="Trazado 115368" d="M817.33,66.7l-8.642-3.518a1.023,1.023,0,0,0-.771,1.9l8.642,3.518a1.023,1.023,0,1,0,.771-1.895Z" transform="translate(-807.28 -63.107)" fill="#fff" fill-rule="evenodd"/>
          </g>
          <g id="Grupo_59099" data-name="Grupo 59099" transform="translate(3.511)">
            <path id="Trazado_115369" data-name="Trazado 115369" d="M813.227,68.35l1.619-9.189a1.023,1.023,0,0,1,2.015.355l-1.619,9.189a1.023,1.023,0,1,1-2.015-.355Z" transform="translate(-813.212 -58.315)" fill="#fff" fill-rule="evenodd"/>
          </g>
        </g>
      </g>
      <g id="Grupo_59120" data-name="Grupo 59120" transform="translate(36.778)">
        <g id="Grupo_59102" data-name="Grupo 59102" transform="translate(6.176 30.03)">
          <rect id="Rectángulo_6088" data-name="Rectángulo 6088" width="8.448" height="7.962" transform="translate(0 2.061) rotate(-14.124)" fill="#e77c20"/>
        </g>
        <g id="Grupo_59103" data-name="Grupo 59103" transform="translate(0 5.486)">
          <rect id="Rectángulo_6089" data-name="Rectángulo 6089" width="8.448" height="7.962" transform="translate(0 2.061) rotate(-14.124)" fill="#e77c20"/>
        </g>
        <g id="Grupo_59104" data-name="Grupo 59104" transform="translate(3.026 17.51)">
          <rect id="Rectángulo_6090" data-name="Rectángulo 6090" width="8.448" height="7.962" transform="matrix(0.97, -0.244, 0.244, 0.97, 0, 2.061)" fill="#bcd7ee"/>
        </g>
        <g id="Grupo_59105" data-name="Grupo 59105" transform="translate(12.667)">
          <path id="Trazado_115370" data-name="Trazado 115370" d="M679.013,53.854l25-6.291a.4.4,0,0,1,.488.292h0a.4.4,0,0,1-.292.488l-25,6.291a.4.4,0,0,1-.488-.292h0A.4.4,0,0,1,679.013,53.854Z" transform="translate(-678.71 -47.552)" fill-rule="evenodd"/>
        </g>
        <g id="Grupo_59106" data-name="Grupo 59106" transform="translate(13.174 3.171)">
          <path id="Trazado_115371" data-name="Trazado 115371" d="M679.87,58.056l20.407-5.135a.4.4,0,0,1,.488.291h0a.4.4,0,0,1-.291.488l-20.407,5.135a.4.4,0,0,1-.488-.292h0A.4.4,0,0,1,679.87,58.056Z" transform="translate(-679.566 -52.91)" fill-rule="evenodd"/>
        </g>
        <g id="Grupo_59107" data-name="Grupo 59107" transform="translate(13.68 4.028)">
          <path id="Trazado_115372" data-name="Trazado 115372" d="M680.726,60.659l25-6.291a.4.4,0,0,1,.488.292h0a.4.4,0,0,1-.291.488l-25,6.291a.4.4,0,0,1-.488-.292h0A.4.4,0,0,1,680.726,60.659Z" transform="translate(-680.422 -54.357)" fill-rule="evenodd"/>
        </g>
        <g id="Grupo_59108" data-name="Grupo 59108" transform="translate(15.215 10.128)">
          <path id="Trazado_115373" data-name="Trazado 115373" d="M683.319,70.966l25-6.291a.4.4,0,0,1,.488.292h0a.4.4,0,0,1-.292.488l-25,6.291a.4.4,0,0,1-.488-.292h0A.4.4,0,0,1,683.319,70.966Z" transform="translate(-683.016 -64.664)" fill-rule="evenodd"/>
        </g>
        <g id="Grupo_59109" data-name="Grupo 59109" transform="translate(15.722 12.144)">
          <path id="Trazado_115374" data-name="Trazado 115374" d="M684.176,74.371l25-6.291a.4.4,0,0,1,.488.292h0a.4.4,0,0,1-.292.488l-25,6.291a.4.4,0,0,1-.487-.292h0A.4.4,0,0,1,684.176,74.371Z" transform="translate(-683.872 -68.069)" fill-rule="evenodd"/>
        </g>
        <g id="Grupo_59110" data-name="Grupo 59110" transform="translate(16.229 15.736)">
          <path id="Trazado_115375" data-name="Trazado 115375" d="M685.032,78.86l18.723-4.711a.4.4,0,0,1,.488.292h0a.4.4,0,0,1-.292.488L685.227,79.64a.4.4,0,0,1-.488-.292h0A.4.4,0,0,1,685.032,78.86Z" transform="translate(-684.728 -74.138)" fill-rule="evenodd"/>
        </g>
        <g id="Grupo_59111" data-name="Grupo 59111" transform="translate(16.749 18.374)">
          <path id="Trazado_115376" data-name="Trazado 115376" d="M685.911,82.748l16.454-4.14a.4.4,0,0,1,.487.291h0a.4.4,0,0,1-.291.488l-16.454,4.14a.4.4,0,0,1-.488-.292h0A.4.4,0,0,1,685.911,82.748Z" transform="translate(-685.607 -78.596)" fill-rule="evenodd"/>
        </g>
        <g id="Grupo_59112" data-name="Grupo 59112" transform="translate(18.2 24.741)">
          <path id="Trazado_115377" data-name="Trazado 115377" d="M688.362,94.9l22-5.534a.4.4,0,0,1,.487.291h0a.4.4,0,0,1-.291.488l-21.995,5.535a.4.4,0,0,1-.488-.292h0A.4.4,0,0,1,688.362,94.9Z" transform="translate(-688.058 -89.351)" fill-rule="evenodd"/>
        </g>
        <g id="Grupo_59113" data-name="Grupo 59113" transform="translate(18.707 28.002)">
          <path id="Trazado_115378" data-name="Trazado 115378" d="M689.219,99.161l17.044-4.289a.4.4,0,0,1,.488.292h0a.4.4,0,0,1-.292.488l-17.044,4.288a.4.4,0,0,1-.488-.292h0A.4.4,0,0,1,689.219,99.161Z" transform="translate(-688.916 -94.861)" fill-rule="evenodd"/>
        </g>
        <g id="Grupo_59116" data-name="Grupo 59116" transform="translate(8.316 31.681)">
          <g id="Grupo_59114" data-name="Grupo 59114" transform="translate(0 0.882)">
            <path id="Trazado_115379" data-name="Trazado 115379" d="M671.611,103.7l4.594,3.456a.63.63,0,0,0,.758-1.007l-4.594-3.456a.63.63,0,1,0-.758,1.007Z" transform="translate(-671.36 -102.568)" fill="#fff" fill-rule="evenodd"/>
          </g>
          <g id="Grupo_59115" data-name="Grupo 59115" transform="translate(1.091)">
            <path id="Trazado_115380" data-name="Trazado 115380" d="M676.817,101.972l-2.411,5.219a.63.63,0,0,1-1.145-.529l2.411-5.219a.63.63,0,0,1,1.145.529Z" transform="translate(-673.203 -101.078)" fill="#fff" fill-rule="evenodd"/>
          </g>
        </g>
        <g id="Grupo_59119" data-name="Grupo 59119" transform="translate(2.141 7.137)">
          <g id="Grupo_59117" data-name="Grupo 59117" transform="translate(0 0.882)">
            <path id="Trazado_115381" data-name="Trazado 115381" d="M661.177,62.234l4.594,3.456a.63.63,0,1,0,.758-1.007l-4.594-3.456a.63.63,0,1,0-.758,1.007Z" transform="translate(-660.926 -61.1)" fill="#fff" fill-rule="evenodd"/>
          </g>
          <g id="Grupo_59118" data-name="Grupo 59118" transform="translate(1.091)">
            <path id="Trazado_115382" data-name="Trazado 115382" d="M666.383,60.5l-2.411,5.219a.631.631,0,0,1-1.145-.529l2.411-5.218a.63.63,0,1,1,1.145.529Z" transform="translate(-662.769 -59.61)" fill="#fff" fill-rule="evenodd"/>
          </g>
        </g>
      </g>
      <g id="Grupo_59125" data-name="Grupo 59125" transform="translate(103.059 48.337)">
        <g id="Grupo_59121" data-name="Grupo 59121">
          <path id="Trazado_115383" data-name="Trazado 115383" d="M771.025,149.776a11.44,11.44,0,0,1-1.67-7.184c.723-6.515,7.059-7.1,9.567-8.355,7.41-3.7,17.517-9.04,23.221-.223C810.083,146.272,776.02,156.978,771.025,149.776Z" transform="translate(-769.291 -129.219)" fill="#3a73a4" fill-rule="evenodd"/>
        </g>
        <g id="Grupo_59122" data-name="Grupo 59122" transform="translate(7.523 21.581)">
          <path id="Trazado_115384" data-name="Trazado 115384" d="M799.256,165.724l-16.69,5.652a.837.837,0,0,0-.521,1.058h0a.836.836,0,0,0,1.056.521l16.69-5.652a.835.835,0,0,0,.522-1.056h0A.836.836,0,0,0,799.256,165.724Z" transform="translate(-782.001 -165.68)" fill="#bcd7ee" fill-rule="evenodd"/>
        </g>
        <g id="Grupo_59123" data-name="Grupo 59123" transform="translate(12.219 24.406)">
          <path id="Trazado_115385" data-name="Trazado 115385" d="M807.191,170.5,790.5,176.15a.835.835,0,0,0-.522,1.057h0a.835.835,0,0,0,1.057.521l16.69-5.652a.836.836,0,0,0,.522-1.057h0A.835.835,0,0,0,807.191,170.5Z" transform="translate(-789.935 -170.454)" fill="#bcd7ee" fill-rule="evenodd"/>
        </g>
        <g id="Grupo_59124" data-name="Grupo 59124" transform="translate(2.505 5.884)">
          <path id="Trazado_115386" data-name="Trazado 115386" d="M780.157,147.693l.223.814-.658.328,1.58,5.779-1.3.355-3.861-3.815-.025.012.978,3.578.733-.051.221.809-2.689.735-.221-.809.653-.328-1.32-4.83-.729.051-.223-.814.691-.189,1.3-.356,3.859,3.813.026-.012-.977-3.573-.734.052-.223-.814,1.995-.545Z" transform="translate(-773.523 -142.642)" fill="#fff"/>
          <path id="Trazado_115387" data-name="Trazado 115387" d="M790.659,149.159l-2.2.6.526,1.924,2.1-.573-.162-.821.988-.27.5,1.841-5.135,1.4-.223-.809.654-.328-1.32-4.831-.729.052-.223-.814.691-.189,4.436-1.213.5,1.844-1,.273-.278-.788-2.078.568.462,1.692,2.2-.6Z" transform="translate(-778.386 -141.597)" fill="#fff"/>
          <path id="Trazado_115388" data-name="Trazado 115388" d="M803.839,141.737l-.517.217.285,6.205-1.208.33-2.405-4.117-.027.007.025,4.768-1.209.33-2.923-5.483-.549.073-.223-.814,2.389-.652.223.814-.565.268,1.754,3.484.028,0-.044-4.945.958-.262,2.487,4.278.026-.013-.268-3.889-.623.054-.221-.814,2.384-.652Z" transform="translate(-782.324 -139.879)" fill="#fff"/>
          <path id="Trazado_115389" data-name="Trazado 115389" d="M816.079,140.9l-.976.267-.423-.877a1.766,1.766,0,0,0-.547-.06,2.971,2.971,0,0,0-.714.105,1.34,1.34,0,0,0-.764.46.754.754,0,0,0-.127.682.693.693,0,0,0,.458.48,4.39,4.39,0,0,0,1.183.175,4.209,4.209,0,0,1,1.852.372,1.784,1.784,0,0,1,.92,1.183,1.681,1.681,0,0,1-.287,1.545,2.918,2.918,0,0,1-1.6.972,3.789,3.789,0,0,1-1.463.128,2.967,2.967,0,0,1-1.228-.419l-.385-1.407,1.007-.275.4.92a1.679,1.679,0,0,0,.609.13,2.526,2.526,0,0,0,.78-.1,1.3,1.3,0,0,0,.753-.45.765.765,0,0,0,.113-.679.823.823,0,0,0-.437-.552,2.749,2.749,0,0,0-1.05-.19,5.361,5.361,0,0,1-1.973-.346,1.638,1.638,0,0,1-.948-1.139,1.684,1.684,0,0,1,.3-1.522,2.823,2.823,0,0,1,1.534-.993,3.944,3.944,0,0,1,1.428-.137,3.276,3.276,0,0,1,1.207.346Z" transform="translate(-788.885 -139.16)" fill="#fff"/>
        </g>
      </g>
      <g id="Grupo_59133" data-name="Grupo 59133" transform="translate(74.063 71.035)">
        <g id="Grupo_59126" data-name="Grupo 59126">
          <path id="Trazado_115390" data-name="Trazado 115390" d="M740.071,210.491c-12.267-2.269-19-21.466-19.769-29.724l20.637-13.2c-2.263,11.484,7.155,26.593,13.3,28.391Z" transform="translate(-720.302 -167.567)" fill="#ffe8e8" fill-rule="evenodd"/>
        </g>
        <g id="Grupo_59127" data-name="Grupo 59127" transform="translate(3.4 6.045)">
          <path id="Trazado_115391" data-name="Trazado 115391" d="M726.212,186.82l13.416-8.977a.373.373,0,0,1,.415.62l-13.416,8.977a.373.373,0,1,1-.415-.619Z" transform="translate(-726.047 -177.78)" fill-rule="evenodd"/>
        </g>
        <g id="Grupo_59128" data-name="Grupo 59128" transform="translate(5.561 13.511)">
          <path id="Trazado_115392" data-name="Trazado 115392" d="M729.857,199.881l13.427-9.419a.373.373,0,1,1,.428.61l-13.427,9.419a.373.373,0,1,1-.428-.61Z" transform="translate(-729.698 -190.394)" fill-rule="evenodd"/>
        </g>
        <g id="Grupo_59129" data-name="Grupo 59129" transform="translate(6.638 16.008)">
          <path id="Trazado_115393" data-name="Trazado 115393" d="M731.675,204.088l13.334-9.407a.373.373,0,0,1,.43.61L732.1,204.7a.373.373,0,1,1-.43-.609Z" transform="translate(-731.517 -194.613)" fill-rule="evenodd"/>
        </g>
        <g id="Grupo_59130" data-name="Grupo 59130" transform="translate(7.691 18.22)">
          <path id="Trazado_115394" data-name="Trazado 115394" d="M733.455,207.846l13.424-9.428a.373.373,0,1,1,.429.61l-13.425,9.428a.373.373,0,0,1-.429-.61Z" transform="translate(-733.297 -198.35)" fill-rule="evenodd"/>
        </g>
        <g id="Grupo_59131" data-name="Grupo 59131" transform="translate(11.785 23.22)">
          <path id="Trazado_115395" data-name="Trazado 115395" d="M740.347,216.935l12.044-10.051a.373.373,0,0,1,.478.572l-12.044,10.051a.373.373,0,1,1-.478-.572Z" transform="translate(-740.213 -206.798)" fill-rule="evenodd"/>
        </g>
        <g id="Grupo_59132" data-name="Grupo 59132" transform="translate(13.679 24.64)">
          <path id="Trazado_115396" data-name="Trazado 115396" d="M743.536,219.753l11.526-10.46a.373.373,0,1,1,.5.552l-11.526,10.46a.373.373,0,0,1-.5-.552Z" transform="translate(-743.414 -209.196)" fill-rule="evenodd"/>
        </g>
      </g>
      <g id="Grupo_59137" data-name="Grupo 59137" transform="translate(57.712 58.706)">
        <g id="Grupo_59134" data-name="Grupo 59134" transform="translate(0 0.97)">
          <path id="Trazado_115397" data-name="Trazado 115397" d="M707.739,152.877l-5.787-2.366-7.14,17.458,5.787,2.367,7.14-17.458Zm2.134-.895-8.379,20.487-8.816-3.605,8.378-20.488Z" transform="translate(-692.678 -148.376)" fill="#3a73a4" fill-rule="evenodd"/>
        </g>
        <g id="Grupo_59135" data-name="Grupo 59135" transform="translate(2.667 9.128)">
          <rect id="Rectángulo_6091" data-name="Rectángulo 6091" width="12.113" height="5.435" transform="translate(0 11.211) rotate(-67.758)" fill="#e77c20"/>
        </g>
        <g id="Grupo_59136" data-name="Grupo 59136" transform="translate(9.68 0)">
          <rect id="Rectángulo_6092" data-name="Rectángulo 6092" width="1.624" height="6.657" transform="matrix(0.379, -0.926, 0.926, 0.379, 0, 1.503)" fill="#bcd7ee"/>
        </g>
      </g>
      <g id="Grupo_59140" data-name="Grupo 59140" transform="translate(12.226 57.477)">
        <g id="Grupo_59138" data-name="Grupo 59138" transform="translate(9.017 5.903)">
          <rect id="Rectángulo_6093" data-name="Rectángulo 6093" width="2.041" height="2.041" transform="matrix(0.535, -0.845, 0.845, 0.535, 0, 1.724)" fill="#e77c20"/>
        </g>
        <g id="Grupo_59139" data-name="Grupo 59139">
          <path id="Trazado_115398" data-name="Trazado 115398" d="M615.828,147.01l1.49-2.35,7.359,5.1-1.093,1.724Z" transform="translate(-615.828 -144.66)" fill="#e77c20" fill-rule="evenodd"/>
        </g>
      </g>
      <g id="Grupo_59143" data-name="Grupo 59143" transform="translate(4.841 71.345)">
        <g id="Grupo_59141" data-name="Grupo 59141" transform="translate(10.385 0)">
          <rect id="Rectángulo_6094" data-name="Rectángulo 6094" width="2.041" height="2.041" transform="translate(0 0.294) rotate(-8.271)" fill="#3a73a4"/>
        </g>
        <g id="Grupo_59142" data-name="Grupo 59142" transform="translate(0 0.508)">
          <path id="Trazado_115399" data-name="Trazado 115399" d="M603.751,172.624l-.4-2.754,8.909-.921.294,2.02Z" transform="translate(-603.351 -168.949)" fill="#3a73a4" fill-rule="evenodd"/>
        </g>
      </g>
      <g id="Grupo_59168" data-name="Grupo 59168" transform="translate(30.849 100.402)">
        <g id="Grupo_59144" data-name="Grupo 59144" transform="translate(2.484 4.174)">
          <path id="Trazado_115400" data-name="Trazado 115400" d="M682.9,228.708l-27.694-4.458a1.273,1.273,0,0,0-1.455,1.051l-2.247,13.961a1.273,1.273,0,0,0,1.052,1.455l30.508,4.91a1.3,1.3,0,0,0,1.515-1.041l2.247-13.961a1.3,1.3,0,0,0-1.112-1.464Z" transform="translate(-651.49 -224.234)" fill="#fff" fill-rule="evenodd"/>
        </g>
        <g id="Grupo_59145" data-name="Grupo 59145" transform="translate(1.72 3.41)">
          <path id="Trazado_115401" data-name="Trazado 115401" d="M682.376,228.181l2.814.453A1.3,1.3,0,0,1,686.3,230.1l-2.247,13.961a1.3,1.3,0,0,1-1.515,1.041l-30.508-4.91-.032-.005h0l-.031-.007h0l-.031-.007h0l-.031-.008h0l-.031-.009h0l-.031-.009h0l-.03-.01-.03-.011h0l-.029-.011-.029-.012h0l-.028-.013h0l-.028-.014h0l-.027-.014h0l-.027-.015-.027-.015-.026-.016h0l-.025-.017h0l-.025-.018-.026-.018h0l-.049-.038-.046-.04h0l-.045-.042-.021-.021-.021-.022h0c-.021-.022-.041-.046-.06-.069h0l-.019-.024h0c-.018-.024-.036-.049-.053-.075h0c-.022-.034-.043-.07-.062-.105l-.014-.027c-.018-.037-.034-.074-.048-.112a.862.862,0,0,1-.03-.087h0c-.006-.02-.011-.04-.016-.06h0l-.007-.03h0c0-.01,0-.02-.006-.03l-.006-.031h0c-.005-.03-.009-.062-.012-.092h0l0-.031h0c0-.021,0-.042,0-.063h0v-.032h0c0-.01,0-.021,0-.031h0l0-.032h0l0-.032h0l0-.033h0l0-.032h0c0-.011,0-.022,0-.033l2.247-13.961h0l.005-.032h0l.006-.031h0l.007-.031h0l.008-.031h0l.008-.031h0l.009-.031h0l.01-.03h0l.01-.03h0c0-.009.007-.02.011-.029h0l.012-.029h0l.012-.028h0l.013-.028h0l.015-.027h0l.015-.028.015-.027h0l.017-.026a.273.273,0,0,1,.017-.026h0l.017-.025h0l.018-.025h0l.018-.024h0l.02-.024.02-.024h0l.02-.022h0l.021-.023h0l.021-.022.022-.021.022-.021h0l.023-.02h0l.022-.02h0l.024-.019.024-.019h0l.025-.018h0l.025-.018h0l.025-.017h0l.026-.017h0l.026-.015h0l.027-.015h0l.027-.014.027-.014.028-.013h0l.028-.012h0L654,223.8h0l.028-.011.029-.01h0l.029-.01h0l.029-.009.03-.008h0l.03-.008h0l.03-.007.03-.007.03-.005h0l.031,0h0l.031,0h0l.031,0h0l.031,0,.031,0h.128l.032,0h0l.032,0h0l.032,0h0l.033,0,27.694,4.458Zm-29.9-3.528-2.247,13.961a2.039,2.039,0,0,0,1.685,2.331l30.568,4.92a2.04,2.04,0,0,0,2.331-1.684l2.247-13.961a2.019,2.019,0,0,0-.273-1.379h0a2.031,2.031,0,0,0-1.411-.951l-30.568-4.92a2.039,2.039,0,0,0-2.331,1.684Z" transform="translate(-650.199 -222.943)" fill-rule="evenodd"/>
        </g>
        <g id="Grupo_59146" data-name="Grupo 59146" transform="translate(4.209 6.218)">
          <path id="Rectángulo_6095" data-name="Rectángulo 6095" d="M1.309,0H11.374a1.308,1.308,0,0,1,1.308,1.308V17.9a1.308,1.308,0,0,1-1.308,1.308H1.309A1.309,1.309,0,0,1,0,17.9V1.309A1.309,1.309,0,0,1,1.309,0Z" transform="translate(0 12.521) rotate(-80.856)" fill="#fff"/>
        </g>
        <g id="Grupo_59158" data-name="Grupo 59158" transform="translate(3.478 5.421)">
          <g id="Grupo_59147" data-name="Grupo 59147" transform="translate(0 13.722)">
            <path id="Trazado_115402" data-name="Trazado 115402" d="M653.183,249.552l.307.05.011-.068c0-.009.008-.012.022-.009h.007c.014,0,.019.007.018.016l-.034.208c0,.008-.008.011-.022.009h-.007c-.015,0-.02-.007-.018-.015l.013-.082-.26-.041v.085c0,.01-.024.009-.036.008s-.01-.005-.01-.013l-.006-.129C653.169,249.561,653.176,249.551,653.183,249.552Z" transform="translate(-653.168 -249.524)" fill-rule="evenodd"/>
          </g>
          <g id="Grupo_59148" data-name="Grupo 59148" transform="translate(0.051 13.414)">
            <path id="Trazado_115403" data-name="Trazado 115403" d="M653.472,249.2l.016-.1-.145-.024v0l.13.124Zm-.2-.2.223.036,0-.028c0-.009.008-.011.022-.009h.008c.014,0,.02.007.018.015l0,.028.069.011c.009,0,.013.009.01.025l0,.014c0,.016-.008.022-.017.02l-.069-.011-.024.149c0,.007-.027.011-.039.009h0l-.209-.2a.03.03,0,0,1,0-.025l0-.011c0-.015.008-.021.017-.02Z" transform="translate(-653.255 -249.004)" fill-rule="evenodd"/>
          </g>
          <g id="Grupo_59149" data-name="Grupo 59149" transform="translate(0.164 13.299)">
            <path id="Trazado_115404" data-name="Trazado 115404" d="M653.673,248.844l.04.007c.009,0,.013.009.01.027l0,.012c0,.017-.009.024-.018.023l-.041-.007c-.008,0-.012-.01-.009-.028l0-.012c0-.018.009-.025.018-.023Zm-.207-.034.04.007c.009,0,.012.01.01.028l0,.012c0,.018-.009.025-.018.024l-.04-.006c-.009,0-.012-.01-.009-.028l0-.012c0-.018.009-.025.018-.024Z" transform="translate(-653.445 -248.81)" fill-rule="evenodd"/>
          </g>
          <g id="Grupo_59150" data-name="Grupo 59150" transform="translate(0.094 13.035)">
            <path id="Trazado_115405" data-name="Trazado 115405" d="M653.373,248.364l.009,0c.012,0,.018.007.016.016l-.017.109.092.021,0-.021c.011-.066.047-.124.133-.11a.114.114,0,0,1,.095.147c-.01.058-.034.1-.05.094s-.031-.019-.03-.027a.226.226,0,0,0,.031-.074.065.065,0,0,0-.056-.081c-.041-.007-.069.016-.078.071l-.008.049c0,.014-.009.016-.021.014l-.151-.034a.017.017,0,0,1-.015-.022l.023-.144C653.352,248.364,653.359,248.362,653.373,248.364Z" transform="translate(-653.327 -248.363)" fill-rule="evenodd"/>
          </g>
          <g id="Grupo_59151" data-name="Grupo 59151" transform="translate(0.145 12.748)">
            <path id="Trazado_115406" data-name="Trazado 115406" d="M653.591,248.065h0c.1.016.143-.005.149-.039s-.031-.069-.128-.085-.143.007-.148.04.031.069.128.084Zm.03-.183c.125.02.178.082.167.152s-.081.111-.206.091-.178-.082-.166-.15.081-.112.205-.092Z" transform="translate(-653.414 -247.877)" fill-rule="evenodd"/>
          </g>
          <g id="Grupo_59152" data-name="Grupo 59152" transform="translate(1.851 2.223)">
            <rect id="Rectángulo_6096" data-name="Rectángulo 6096" width="0.127" height="0.362" transform="translate(0 0.125) rotate(-80.863)"/>
          </g>
          <g id="Grupo_59153" data-name="Grupo 59153" transform="translate(1.797 1.989)">
            <rect id="Rectángulo_6097" data-name="Rectángulo 6097" width="0.127" height="0.453" transform="matrix(0.16, -0.987, 0.987, 0.16, 0, 0.125)"/>
          </g>
          <g id="Grupo_59154" data-name="Grupo 59154" transform="translate(1.743 1.756)">
            <rect id="Rectángulo_6098" data-name="Rectángulo 6098" width="0.127" height="0.544" transform="translate(0 0.125) rotate(-80.884)"/>
          </g>
          <g id="Grupo_59155" data-name="Grupo 59155" transform="translate(1.689 1.523)">
            <rect id="Rectángulo_6099" data-name="Rectángulo 6099" width="0.127" height="0.634" transform="matrix(0.159, -0.987, 0.987, 0.159, 0, 0.125)"/>
          </g>
          <g id="Grupo_59156" data-name="Grupo 59156" transform="translate(2.053 0.176)">
            <rect id="Rectángulo_6100" data-name="Rectángulo 6100" width="0.878" height="0.37" transform="translate(0 0.867) rotate(-80.85)"/>
          </g>
          <g id="Grupo_59157" data-name="Grupo 59157" transform="translate(2.208 0)">
            <rect id="Rectángulo_6101" data-name="Rectángulo 6101" width="0.084" height="0.37" transform="translate(0 0.083) rotate(-80.864)"/>
          </g>
        </g>
        <g id="Grupo_59159" data-name="Grupo 59159" transform="translate(5.461 5.208)">
          <rect id="Rectángulo_6102" data-name="Rectángulo 6102" width="15.037" height="20.213" rx="1.416" transform="translate(0 14.846) rotate(-80.855)" fill="#3a73a4"/>
        </g>
        <g id="Grupo_59160" data-name="Grupo 59160">
          <path id="Trazado_115407" data-name="Trazado 115407" d="M647.577,224.353c-1.216-3.245,1.64-7.484,5.249-7.153a.373.373,0,1,1-.068.743c-3.061-.282-5.505,3.419-4.483,6.149a.373.373,0,0,1-.7.262Z" transform="translate(-647.292 -217.182)" fill-rule="evenodd"/>
        </g>
        <g id="Grupo_59161" data-name="Grupo 59161" transform="translate(8.771 9.555)">
          <path id="Trazado_115408" data-name="Trazado 115408" d="M670.107,237.991a4.023,4.023,0,1,0-4.613,3.33A4.031,4.031,0,0,0,670.107,237.991Z" transform="translate(-662.112 -233.326)" fill="#def0ff" fill-rule="evenodd"/>
        </g>
        <g id="Grupo_59162" data-name="Grupo 59162" transform="translate(16.983 8.371)">
          <path id="Trazado_115409" data-name="Trazado 115409" d="M677.952,239.41l-1.966-.318a4.613,4.613,0,0,0,.593-3.67l1.966.318c.492-1.688.719-4.107,2.86-4.393a14.244,14.244,0,0,1,3.286.421L682.536,245.1a12.126,12.126,0,0,1-3.318-.654C677.345,243.467,677.888,241.146,677.952,239.41Z" transform="translate(-675.986 -231.326)" fill="#def0ff" fill-rule="evenodd"/>
        </g>
        <g id="Grupo_59167" data-name="Grupo 59167" transform="translate(27.97 12.703)">
          <g id="Grupo_59163" data-name="Grupo 59163">
            <path id="Trazado_115410" data-name="Trazado 115410" d="M701.885,244.211a3.819,3.819,0,1,0-5.13,2.179A3.954,3.954,0,0,0,701.885,244.211Z" transform="translate(-694.547 -238.643)" fill="#e77c20" fill-rule="evenodd"/>
          </g>
          <g id="Grupo_59164" data-name="Grupo 59164" transform="translate(1.233 2.841)">
            <path id="Trazado_115411" data-name="Trazado 115411" d="M698,244.572c.078.724.1,1.115.835,1.346a1.794,1.794,0,0,0,1.68-.345c.472-.414.337-.956.182-1.547-.061-.234.311-.514.545-.576a.952.952,0,0,1,.826.477,2.275,2.275,0,0,1-.974,2.3,2.669,2.669,0,0,1-2.523.522,2.983,2.983,0,0,1-1.93-2.112c-.077-.228.324-.7.564-.725A1.1,1.1,0,0,1,698,244.572Z" transform="translate(-696.63 -243.443)" fill="#fff" fill-rule="evenodd"/>
          </g>
          <g id="Grupo_59165" data-name="Grupo 59165" transform="translate(5.249 2.755)">
            <rect id="Rectángulo_6103" data-name="Rectángulo 6103" width="1.562" height="1.484" rx="0.594" transform="matrix(0.999, -0.054, 0.054, 0.999, 0, 0.084)" fill="#fff"/>
          </g>
          <g id="Grupo_59166" data-name="Grupo 59166" transform="translate(1.038 2.973)">
            <path id="Rectángulo_6104" data-name="Rectángulo 6104" d="M.591,0H.965a.592.592,0,0,1,.592.592v.3a.591.591,0,0,1-.591.591H.592A.592.592,0,0,1,0,.887v-.3A.591.591,0,0,1,.591,0Z" transform="translate(0 0.304) rotate(-11.276)" fill="#fff"/>
          </g>
        </g>
      </g>
      <g id="Grupo_59176" data-name="Grupo 59176" transform="translate(26.435 131.512)">
        <g id="Grupo_59169" data-name="Grupo 59169">
          <path id="Trazado_115412" data-name="Trazado 115412" d="M643.719,276c1.68-2.722,4.65-5.155,10.529-6.193,3.978-.7,10.191,4.949,12.069,8.235,2.7,4.729,3.9,6.836,1.116,12.091-1.991,3.76-7.329,8.781-12.141,8.23-5.264-.6-4.889-4.795-12.138-6.2C636.406,290.851,641.7,279.261,643.719,276Z" transform="translate(-639.834 -269.743)" fill="#bcd7ee" fill-rule="evenodd"/>
        </g>
        <g id="Grupo_59172" data-name="Grupo 59172" transform="translate(4.24 15.437)">
          <g id="Grupo_59170" data-name="Grupo 59170" transform="translate(9.627 4.732)">
            <rect id="Rectángulo_6105" data-name="Rectángulo 6105" width="2.041" height="2.041" transform="translate(0 1.851) rotate(-65.106)" fill="#3a73a4"/>
          </g>
          <g id="Grupo_59171" data-name="Grupo 59171">
            <path id="Trazado_115413" data-name="Trazado 115413" d="M647,298.349l1.172-2.524,7.961,4.1-.859,1.852Z" transform="translate(-646.998 -295.825)" fill="#3a73a4" fill-rule="evenodd"/>
          </g>
        </g>
        <g id="Grupo_59175" data-name="Grupo 59175" transform="translate(7.469 5.467)">
          <g id="Grupo_59173" data-name="Grupo 59173">
            <path id="Trazado_115414" data-name="Trazado 115414" d="M655.508,286.726a4.449,4.449,0,0,1-3.054-3.913,3.836,3.836,0,0,1,2.111-3.52,3.3,3.3,0,0,1,2.973.086,6.532,6.532,0,0,1,2.629,2.994c.764,1.539,2.014,4.655,3.333,5.689l.785.614-1.229,1.57-.785-.614c-1.738-1.361-2.912-4.4-3.89-6.372-.465-.937-1.644-2.789-2.962-2.165a1.844,1.844,0,0,0-.971,1.675,2.544,2.544,0,0,0,1.824,2.114l.921.382-.763,1.842Z" transform="translate(-652.454 -278.98)" fill="#fff" fill-rule="evenodd"/>
          </g>
          <g id="Grupo_59174" data-name="Grupo 59174" transform="translate(11.775 10.516)">
            <rect id="Rectángulo_6106" data-name="Rectángulo 6106" width="2.041" height="2.041" transform="translate(0 1.637) rotate(-53.343)" fill="#fff"/>
          </g>
        </g>
      </g>
      <g id="Grupo_59183" data-name="Grupo 59183" transform="translate(59.454 124.838)">
        <g id="Grupo_59177" data-name="Grupo 59177" transform="translate(0 0)">
          <rect id="Rectángulo_6107" data-name="Rectángulo 6107" width="39.458" height="25.253" transform="translate(0 25.376) rotate(-40.025)" fill="#bcd7ee"/>
        </g>
        <g id="Grupo_59178" data-name="Grupo 59178" transform="translate(5.743 18.412)">
          <path id="Trazado_115415" data-name="Trazado 115415" d="M718.81,308.887l23.044-19.226a.373.373,0,1,1,.478.572L719,309.7a.373.373,0,0,1-.524-.047L705.41,294.091a.373.373,0,1,1,.571-.479Z" transform="translate(-705.322 -289.575)" fill-rule="evenodd"/>
        </g>
        <g id="Grupo_59179" data-name="Grupo 59179" transform="translate(2.036 23.576)">
          <rect id="Rectángulo_6108" data-name="Rectángulo 6108" width="3.946" height="4.34" transform="translate(0 2.538) rotate(-40.024)" fill="#3a73a4"/>
        </g>
        <g id="Grupo_59180" data-name="Grupo 59180" transform="translate(6.857 29.317)">
          <rect id="Rectángulo_6109" data-name="Rectángulo 6109" width="3.946" height="4.34" transform="translate(0 2.538) rotate(-40.024)" fill="#e77c20"/>
        </g>
        <g id="Grupo_59181" data-name="Grupo 59181" transform="translate(11.869 35.284)">
          <rect id="Rectángulo_6110" data-name="Rectángulo 6110" width="3.946" height="4.34" transform="translate(0 2.538) rotate(-40.026)" fill="#689fce"/>
        </g>
        <g id="Grupo_59182" data-name="Grupo 59182" transform="translate(7.441 17.068)">
          <path id="Trazado_115416" data-name="Trazado 115416" d="M715.011,295.745l1.306-5.449a.373.373,0,0,1,.563-.228l7.716,4.906-.029-4.57a.373.373,0,0,1,.495-.355l4.265,1.47.737-2.228a.373.373,0,0,1,.51-.222l5.058,2.324,1.09-3.818a.374.374,0,0,1,.461-.256l4.236,1.209a.373.373,0,0,1-.2.717l-3.877-1.107-1.107,3.877a.372.372,0,0,1-.514.236l-5.075-2.331-.724,2.19a.372.372,0,0,1-.475.236l-4.125-1.421.03,4.728a.373.373,0,0,1-.573.317l-7.852-4.993-1.308,5.459a.373.373,0,0,1-.569.224l-6.686-4.433a.373.373,0,0,1,.413-.621Z" transform="translate(-708.191 -287.305)" fill="#e77c20" fill-rule="evenodd"/>
        </g>
      </g>
      <g id="Grupo_59191" data-name="Grupo 59191" transform="translate(17.465 47.01)">
        <g id="Grupo_59184" data-name="Grupo 59184" transform="translate(0 8.265)">
          <rect id="Rectángulo_6111" data-name="Rectángulo 6111" width="35.709" height="20.913" transform="matrix(0.531, -0.847, 0.847, 0.531, 0, 30.256)" fill="#bcd7ee"/>
        </g>
        <g id="Grupo_59185" data-name="Grupo 59185" transform="translate(12.632 34.238)">
          <path id="Trazado_115417" data-name="Trazado 115417" d="M646.751,185.083l4.525,14.414a.373.373,0,1,1-.711.223l-4.525-14.414a.373.373,0,1,1,.711-.223Z" transform="translate(-646.022 -184.822)" fill-rule="evenodd"/>
        </g>
        <g id="Grupo_59190" data-name="Grupo 59190" transform="translate(0)">
          <g id="Grupo_59186" data-name="Grupo 59186" transform="translate(0 8.265)">
            <path id="Trazado_115418" data-name="Trazado 115418" d="M643.645,140.939l-18.966,30.256,21.5-7.594Z" transform="translate(-624.679 -140.939)" fill="#689fce" fill-rule="evenodd"/>
          </g>
          <g id="Grupo_59187" data-name="Grupo 59187" transform="translate(20.55 19.12)">
            <path id="Trazado_115419" data-name="Trazado 115419" d="M659.826,162.23l14.945-2.209a.373.373,0,0,0-.109-.738l-14.946,2.209a.373.373,0,1,0,.109.738Z" transform="translate(-659.398 -159.279)" fill-rule="evenodd"/>
          </g>
          <g id="Grupo_59188" data-name="Grupo 59188" transform="translate(13.795)">
            <path id="Trazado_115420" data-name="Trazado 115420" d="M648.338,132.4c.739-3.158,2.4-4.8,5.541-4.879,4.194-.1,5.3-2.115,9.444,2.274,3.027,3.2,2.312,9.024-.61,12.028-2.559,2.63-10.94,3.909-13.646.4C647.643,140.384,647.884,134.342,648.338,132.4Z" transform="translate(-647.986 -126.975)" fill="#e77c20" fill-rule="evenodd"/>
          </g>
          <g id="Grupo_59189" data-name="Grupo 59189" transform="translate(16.375 4.198)">
            <path id="Trazado_115421" data-name="Trazado 115421" d="M657.694,148.686l.453-1.078-4.449-2.634-.6,1.01-.755-.446.853-2.452,5.646,3.342.727-.917.791.468-1.879,3.174Z" transform="translate(-652.346 -137.748)" fill="#fff"/>
            <path id="Trazado_115422" data-name="Trazado 115422" d="M658.807,135.684l-.5-.156-.94,1.589,1.416,1.064a1.726,1.726,0,0,1,.223-1.094,1.794,1.794,0,0,1,1.352-.978,2.984,2.984,0,0,1,1.909.5,2.788,2.788,0,0,1,1.27,1.444,2.081,2.081,0,0,1-.247,1.849,2.407,2.407,0,0,1-1.315,1.1,1.906,1.906,0,0,1-1.693-.246l-.017-.021.607-1.173a1.145,1.145,0,0,0,.816.181.865.865,0,0,0,.591-.438.77.77,0,0,0,.033-.807,1.894,1.894,0,0,0-.735-.7,2,2,0,0,0-1.035-.329.8.8,0,0,0-.716.426.968.968,0,0,0-.167.6.9.9,0,0,0,.226.482l-.694,1-3.46-2.508,2.011-3.4,1.5.888Z" transform="translate(-653.727 -134.067)" fill="#fff"/>
          </g>
        </g>
      </g>
    </g>
  </g>
</svg>
