<svg xmlns="http://www.w3.org/2000/svg" width="567.36" height="297.537" viewBox="0 0 567.36 297.537">
  <g id="Grupo_60886" data-name="Grupo 60886" transform="translate(-1205 -1015.482)">
    <g id="Grupo_60665" data-name="Grupo 60665" transform="translate(1243.95 1065.299)">
      <path id="Trazado_118201" data-name="Trazado 118201" d="M1458.292,1281.72a9.246,9.246,0,0,0-5.961,2.168,12.111,12.111,0,0,0-19.534-.086,12.11,12.11,0,0,0-21.846,7.2h56.626A9.285,9.285,0,0,0,1458.292,1281.72Z" transform="translate(-1410.951 -1278.895)" fill="#fff"/>
    </g>
    <g id="Grupo_60666" data-name="Grupo 60666" transform="translate(1289.688 1049.871)">
      <rect id="Rectángulo_7321" data-name="Rectángulo 7321" width="67.886" height="144.634" transform="translate(0 0)" fill="#ffeec7"/>
    </g>
    <g id="Grupo_60667" data-name="Grupo 60667" transform="translate(1343.9 1089.272)">
      <rect id="Rectángulo_7322" data-name="Rectángulo 7322" width="67.886" height="120.757" transform="translate(0 0)" fill="#ffeec7"/>
    </g>
    <g id="Grupo_60668" data-name="Grupo 60668" transform="translate(1414.493 1067.171)">
      <rect id="Rectángulo_7323" data-name="Rectángulo 7323" width="61.903" height="133.519" transform="translate(0 0)" fill="#ffeec7"/>
    </g>
    <g id="Grupo_60669" data-name="Grupo 60669" transform="translate(1426.055 1015.482)">
      <path id="Trazado_118202" data-name="Trazado 118202" d="M2412.639,1165.381h-38.779V1031.862l38.779-16.38Z" transform="translate(-2373.861 -1015.482)" fill="#ffeec7"/>
    </g>
    <g id="Grupo_60670" data-name="Grupo 60670" transform="translate(1476.584 1095.85)">
      <rect id="Rectángulo_7324" data-name="Rectángulo 7324" width="81.218" height="116.762" transform="translate(0 0)" fill="#ffeec7"/>
    </g>
    <g id="Grupo_60671" data-name="Grupo 60671" transform="translate(1532.334 1055.428)">
      <rect id="Rectángulo_7325" data-name="Rectángulo 7325" width="56.674" height="133.519" transform="translate(0 0)" fill="#ffeec7"/>
    </g>
    <g id="Grupo_60672" data-name="Grupo 60672" transform="translate(1573.301 1079.959)">
      <rect id="Rectángulo_7326" data-name="Rectángulo 7326" width="98.465" height="118.635" transform="translate(0 0)" fill="#ffeec7"/>
    </g>
    <g id="Grupo_60673" data-name="Grupo 60673" transform="translate(1648.972 1023.277)">
      <path id="Trazado_118203" data-name="Trazado 118203" d="M3624.591,1228.083h-72.026V1056.7l72.026,52.75Z" transform="translate(-3552.565 -1056.698)" fill="#ffeec7"/>
    </g>
    <g id="Grupo_60674" data-name="Grupo 60674" transform="translate(1205 1079.959)">
      <path id="Trazado_118204" data-name="Trazado 118204" d="M1205,1413.711h52.776V1382.6h66.186v7.085h47.705v-33.269h56.37v57.3h44.552v-16.018h47.2l24.785,28.648h41.739V1378.9h71.876v28.648h59.061v-41.278h55.109V1481.11H1205Z" transform="translate(-1205 -1356.415)" fill="#ffe2ab"/>
    </g>
    <g id="Grupo_60675" data-name="Grupo 60675" transform="translate(1205 1204.654)">
      <rect id="Rectángulo_7327" data-name="Rectángulo 7327" width="567.36" height="20.064" transform="translate(0 0)" fill="#ffe2ab"/>
    </g>
    <g id="Grupo_60676" data-name="Grupo 60676" transform="translate(1236.723 1250.878)">
      <ellipse id="Elipse_4228" data-name="Elipse 4228" cx="264.98" cy="2.825" rx="264.98" ry="2.825" transform="translate(0)" fill="#e3dbd3"/>
    </g>
    <g id="Grupo_60829" data-name="Grupo 60829" transform="translate(1236.723 1165.838)">
      <g id="Grupo_60677" data-name="Grupo 60677" transform="translate(255.625 27.926)">
        <path id="Trazado_118205" data-name="Trazado 118205" d="M2724.393,1969.766c2.156-3.162,9.2-6.048,10.492-6.695.94-.47,14.184-.856,21.835-2.293.64-.12,12.9-.058,15.087-.288a51.5,51.5,0,0,0,11.516-2.317c1.123-.09-49.085,2.155-49.947,2.669s-7.977,5.186-8.265,5.761A22.5,22.5,0,0,0,2724.393,1969.766Z" transform="translate(-2724.393 -1958.171)" fill="#19191a"/>
      </g>
      <g id="Grupo_60678" data-name="Grupo 60678" transform="translate(249.943 0)">
        <path id="Trazado_118206" data-name="Trazado 118206" d="M2696.853,1856.609s7.032-6.437,23.888-10.327,37.353-7.412,38.218-7.844c.737-.369,29.484-16.455,45.842-22.659l-3.749-.306c.882-.678,4.763-2.044,10.44-2.748a361.361,361.361,0,0,1,56.853-1.884c22.476.865,50.786,20.531,59.215,21.4s18.176,1.729,19.256,1.945,1.945,18.154,1.945,18.154,3.89,4.106,3.89,5.4-1.3,19.879-5.835,23.336-12.736,5.362-12.736,5.362H2718.139l-22.435-17.268-1.357-5.606Z" transform="translate(-2694.347 -1810.51)" fill="#19191a"/>
      </g>
      <g id="Grupo_60679" data-name="Grupo 60679" transform="translate(249.943 0)">
        <path id="Trazado_118207" data-name="Trazado 118207" d="M2948.762,1852.334s-.865-17.937-1.945-18.154-10.828-1.08-19.256-1.945-36.739-20.531-59.215-21.4a361.361,361.361,0,0,0-56.853,1.884c-5.678.7-9.558,2.07-10.44,2.748l3.749.306c-16.358,6.2-45.105,22.291-45.842,22.659-.865.432-21.361,3.954-38.218,7.844a70.629,70.629,0,0,0-19.3,7.2,28.159,28.159,0,0,0-4.585,3.125l-2.506,6.952h0c6.7-1.065,24.214-2.367,25.1-2.367,1.081,0,8,.432,8,.432l-9.3,24.809h215.942s8.2-1.9,12.736-5.362,5.835-22.04,5.835-23.336S2948.762,1852.334,2948.762,1852.334Z" transform="translate(-2694.347 -1810.51)" fill="#3b95e3"/>
      </g>
      <g id="Grupo_60680" data-name="Grupo 60680" transform="translate(251.3 0)">
        <path id="Trazado_118208" data-name="Trazado 118208" d="M2952.638,1834.18c-1.081-.216-10.828-1.08-19.256-1.945s-36.739-20.531-59.215-21.4a361.363,361.363,0,0,0-56.853,1.884c-5.677.7-9.558,2.07-10.44,2.748l3.749.306c-16.358,6.2-45.105,22.291-45.843,22.659-.865.432-21.361,3.954-38.217,7.844a70.606,70.606,0,0,0-19.3,7.2,28.156,28.156,0,0,0-4.585,3.125l-1.149,3.186c7.568-3.144,28.094-8.845,72.669-10.993,53.58-2.581,151.492-4.891,179.83-5.361C2953.672,1838.9,2953.182,1834.289,2952.638,1834.18Z" transform="translate(-2701.525 -1810.51)" fill="#59b2ff"/>
      </g>
      <g id="Grupo_60681" data-name="Grupo 60681" transform="translate(312.758 4.963)">
        <path id="Trazado_118209" data-name="Trazado 118209" d="M3074.134,1837.057l-3.748-.306-43.891,21.169,1.8,1.8Z" transform="translate(-3026.495 -1836.75)" fill="#fff7e6"/>
      </g>
      <g id="Grupo_60682" data-name="Grupo 60682" transform="translate(244.732 50.953)">
        <path id="Trazado_118210" data-name="Trazado 118210" d="M2693.874,2104.9c-5.018-.328-18.71,1.22-20.572.123s-6.061-7.429-6.443-8.909,1.054-7.736,1.579-8.881,25.674-5.946,26.748-6.066,7.708-1.239,7.708-1.239Z" transform="translate(-2666.795 -2079.931)" fill="#3b95e3"/>
      </g>
      <g id="Grupo_60683" data-name="Grupo 60683" transform="translate(319.999 2.214)">
        <path id="Trazado_118211" data-name="Trazado 118211" d="M3065.719,1850.378a.9.9,0,0,1-.448-1.706c10.981-5.718,44.036-22.833,47.465-23.472,10.158-1.894,25.32-2.98,41.6-2.98,4.745,0,9.559.093,14.309.275,6.236.24,12.978,2.139,19.7,4.439,7.182,2.458,16.452,9.9,15.446,18.125C3162.914,1847.049,3084.244,1849.75,3065.719,1850.378Z" transform="translate(-3064.782 -1822.219)" fill="#fac27d"/>
      </g>
      <g id="Grupo_60684" data-name="Grupo 60684" transform="translate(339.934 2.214)">
        <path id="Trazado_118212" data-name="Trazado 118212" d="M3254.115,1822.494c-4.75-.183-9.564-.275-14.309-.275-16.278,0-31.439,1.086-41.6,2.98-2.115.394-15.5,7.054-28.019,13.443h1.391c45.854,0,86.111-3.3,108.939-8.257a27.967,27.967,0,0,0-6.7-3.452C3267.093,1824.633,3260.352,1822.734,3254.115,1822.494Z" transform="translate(-3170.19 -1822.219)" fill="#fff7e6"/>
      </g>
      <g id="Grupo_60685" data-name="Grupo 60685" transform="translate(244.742 61.682)">
        <path id="Trazado_118213" data-name="Trazado 118213" d="M2666.85,2141.743a2.13,2.13,0,0,0,.053.376c.382,1.48,4.582,7.812,6.443,8.909s15.554-.45,20.572-.122l5.145-14.243C2683.975,2139.358,2673.725,2140.884,2666.85,2141.743Z" transform="translate(-2666.85 -2136.663)" fill="#2b6da6"/>
      </g>
      <g id="Grupo_60686" data-name="Grupo 60686" transform="translate(311.96 47.227)">
        <path id="Trazado_118214" data-name="Trazado 118214" d="M3163.331,2064.01c-25.441.768-120.838,5.139-139.4,5.518,0,0-1.184,8.9-1.661,19.4H3199.99s8.2-1.9,12.736-5.362,5.835-22.04,5.835-23.336C3210.958,2060.531,3188.056,2063.263,3163.331,2064.01Z" transform="translate(-3022.274 -2060.227)" fill="#2b6da6"/>
      </g>
      <g id="Grupo_60687" data-name="Grupo 60687" transform="translate(496.447 27.928)">
        <path id="Trazado_118215" data-name="Trazado 118215" d="M4004.667,1958.185s-6.89,5.035-6.89,13.9h7.91S4005.277,1963.552,4004.667,1958.185Z" transform="translate(-3997.778 -1958.185)" fill="#f15555"/>
      </g>
      <g id="Grupo_60709" data-name="Grupo 60709" transform="translate(268.597 40.326)">
        <g id="Grupo_60688" data-name="Grupo 60688" transform="translate(3.214 2.501)">
          <path id="Trazado_118216" data-name="Trazado 118216" d="M2859.247,2061.6v8.465h-49.268V2061.6a24.634,24.634,0,0,1,49.268,0Z" transform="translate(-2809.979 -2036.962)" fill="#2b6da6"/>
        </g>
        <g id="Grupo_60689" data-name="Grupo 60689" transform="translate(5.138 5.138)">
          <path id="Trazado_118217" data-name="Trazado 118217" d="M2865.573,2073.615v7.752h-45.42v-7.752a22.71,22.71,0,0,1,45.42,0Z" transform="translate(-2820.153 -2050.906)" fill="#19191a"/>
        </g>
        <g id="Grupo_60690" data-name="Grupo 60690">
          <circle id="Elipse_4229" data-name="Elipse 4229" cx="19.691" cy="19.691" r="19.691" transform="translate(0 27.848) rotate(-45)" fill="#4c4c4d"/>
        </g>
        <g id="Grupo_60691" data-name="Grupo 60691" transform="translate(0.87 0.87)">
          <circle id="Elipse_4230" data-name="Elipse 4230" cx="19.076" cy="19.076" r="19.076" transform="translate(0 26.978) rotate(-45)" fill="#3f3f40"/>
        </g>
        <g id="Grupo_60692" data-name="Grupo 60692" transform="translate(11.082 11.082)">
          <circle id="Elipse_4231" data-name="Elipse 4231" cx="14.614" cy="14.614" r="14.614" transform="translate(0 28.85) rotate(-80.783)" fill="#323233"/>
        </g>
        <g id="Grupo_60693" data-name="Grupo 60693" transform="translate(8.897 8.897)">
          <circle id="Elipse_4232" data-name="Elipse 4232" cx="13.4" cy="13.4" r="13.4" transform="translate(0 18.951) rotate(-45)" fill="#e4e4e5"/>
        </g>
        <g id="Grupo_60694" data-name="Grupo 60694" transform="translate(10.267 10.267)">
          <circle id="Elipse_4233" data-name="Elipse 4233" cx="12.431" cy="12.431" r="12.431" transform="translate(0 17.58) rotate(-45)" fill="#a6a6a7"/>
        </g>
        <g id="Grupo_60695" data-name="Grupo 60695" transform="translate(10.841 10.841)">
          <circle id="Elipse_4234" data-name="Elipse 4234" cx="12.026" cy="12.026" r="12.026" transform="translate(0 17.007) rotate(-45)" fill="#cacacb"/>
        </g>
        <g id="Grupo_60696" data-name="Grupo 60696" transform="translate(23.072 23.072)">
          <circle id="Elipse_4235" data-name="Elipse 4235" cx="3.655" cy="3.655" r="3.655" transform="translate(0 2.797) rotate(-22.5)" fill="#a6a6a7"/>
        </g>
        <g id="Grupo_60697" data-name="Grupo 60697" transform="translate(23.639 23.639)">
          <circle id="Elipse_4236" data-name="Elipse 4236" cx="3.221" cy="3.221" r="3.221" transform="translate(0 2.466) rotate(-22.5)" fill="#e4e4e5"/>
        </g>
        <g id="Grupo_60698" data-name="Grupo 60698" transform="translate(26.032 26.032)">
          <circle id="Elipse_4237" data-name="Elipse 4237" cx="1.389" cy="1.389" r="1.389" transform="translate(0 1.063) rotate(-22.5)" fill="#a6a6a7"/>
        </g>
        <g id="Grupo_60708" data-name="Grupo 60708" transform="translate(18.601 17.469)">
          <g id="Grupo_60701" data-name="Grupo 60701" transform="translate(7.745)">
            <g id="Grupo_60699" data-name="Grupo 60699">
              <path id="Trazado_118218" data-name="Trazado 118218" d="M2933.8,2121.362c-.566,0-3.075-5.253,0-5.253S2934.363,2121.362,2933.8,2121.362Z" transform="translate(-2932.295 -2116.109)" fill="#19191a"/>
            </g>
            <g id="Grupo_60700" data-name="Grupo 60700" transform="translate(0 15.504)">
              <path id="Trazado_118219" data-name="Trazado 118219" d="M2933.8,2198.087c.566,0,3.075,5.253,0,5.253S2933.23,2198.087,2933.8,2198.087Z" transform="translate(-2932.295 -2198.087)" fill="#19191a"/>
            </g>
          </g>
          <g id="Grupo_60704" data-name="Grupo 60704" transform="translate(0 4.389)">
            <g id="Grupo_60702" data-name="Grupo 60702">
              <path id="Trazado_118220" data-name="Trazado 118220" d="M2896.149,2142.745c-.283.49-6.087.036-4.55-2.627S2896.432,2142.255,2896.149,2142.745Z" transform="translate(-2891.341 -2139.319)" fill="#19191a"/>
            </g>
            <g id="Grupo_60703" data-name="Grupo 60703" transform="translate(13.668 8.379)">
              <path id="Trazado_118221" data-name="Trazado 118221" d="M2963.63,2183.794c.283-.49,6.087-.036,4.549,2.627S2963.347,2184.285,2963.63,2183.794Z" transform="translate(-2963.613 -2183.621)" fill="#19191a"/>
            </g>
          </g>
          <g id="Grupo_60707" data-name="Grupo 60707" transform="translate(0 4.389)">
            <g id="Grupo_60705" data-name="Grupo 60705" transform="translate(0 8.379)">
              <path id="Trazado_118222" data-name="Trazado 118222" d="M2896.149,2183.794c.283.49-3.012,5.29-4.55,2.627S2895.866,2183.3,2896.149,2183.794Z" transform="translate(-2891.341 -2183.621)" fill="#19191a"/>
            </g>
            <g id="Grupo_60706" data-name="Grupo 60706" transform="translate(13.668)">
              <path id="Trazado_118223" data-name="Trazado 118223" d="M2963.63,2142.745c-.283-.49,3.012-5.29,4.549-2.627S2963.913,2143.235,2963.63,2142.745Z" transform="translate(-2963.613 -2139.319)" fill="#19191a"/>
            </g>
          </g>
        </g>
      </g>
      <g id="Grupo_60731" data-name="Grupo 60731" transform="translate(437.195 40.326)">
        <g id="Grupo_60710" data-name="Grupo 60710" transform="translate(3.214 2.501)">
          <path id="Trazado_118224" data-name="Trazado 118224" d="M3750.733,2061.6v8.465h-49.268V2061.6a24.634,24.634,0,0,1,49.268,0Z" transform="translate(-3701.465 -2036.962)" fill="#2b6da6"/>
        </g>
        <g id="Grupo_60711" data-name="Grupo 60711" transform="translate(5.138 5.138)">
          <path id="Trazado_118225" data-name="Trazado 118225" d="M3757.059,2073.615v7.752H3711.64v-7.752a22.71,22.71,0,0,1,45.419,0Z" transform="translate(-3711.64 -2050.906)" fill="#19191a"/>
        </g>
        <g id="Grupo_60712" data-name="Grupo 60712" transform="translate(0 0)">
          <circle id="Elipse_4238" data-name="Elipse 4238" cx="19.691" cy="19.691" r="19.691" transform="translate(0 27.848) rotate(-45)" fill="#4c4c4d"/>
        </g>
        <g id="Grupo_60713" data-name="Grupo 60713" transform="translate(0.87 0.87)">
          <circle id="Elipse_4239" data-name="Elipse 4239" cx="19.076" cy="19.076" r="19.076" transform="translate(0 26.978) rotate(-45)" fill="#3f3f40"/>
        </g>
        <g id="Grupo_60714" data-name="Grupo 60714" transform="translate(7.181 7.181)">
          <circle id="Elipse_4240" data-name="Elipse 4240" cx="14.614" cy="14.614" r="14.614" transform="translate(0 20.667) rotate(-45)" fill="#323233"/>
        </g>
        <g id="Grupo_60715" data-name="Grupo 60715" transform="translate(8.897 8.897)">
          <circle id="Elipse_4241" data-name="Elipse 4241" cx="13.4" cy="13.4" r="13.4" transform="translate(0 18.951) rotate(-45)" fill="#e4e4e5"/>
        </g>
        <g id="Grupo_60716" data-name="Grupo 60716" transform="translate(10.267 10.267)">
          <circle id="Elipse_4242" data-name="Elipse 4242" cx="12.431" cy="12.431" r="12.431" transform="translate(0 17.58) rotate(-45)" fill="#a6a6a7"/>
        </g>
        <g id="Grupo_60717" data-name="Grupo 60717" transform="translate(10.841 10.841)">
          <circle id="Elipse_4243" data-name="Elipse 4243" cx="12.026" cy="12.026" r="12.026" transform="translate(0 17.007) rotate(-45)" fill="#cacacb"/>
        </g>
        <g id="Grupo_60718" data-name="Grupo 60718" transform="translate(23.072 23.072)">
          <circle id="Elipse_4244" data-name="Elipse 4244" cx="3.655" cy="3.655" r="3.655" transform="translate(0 2.797) rotate(-22.5)" fill="#a6a6a7"/>
        </g>
        <g id="Grupo_60719" data-name="Grupo 60719" transform="translate(23.639 23.639)">
          <circle id="Elipse_4245" data-name="Elipse 4245" cx="3.221" cy="3.221" r="3.221" transform="translate(0 2.466) rotate(-22.5)" fill="#e4e4e5"/>
        </g>
        <g id="Grupo_60720" data-name="Grupo 60720" transform="translate(26.032 26.032)">
          <circle id="Elipse_4246" data-name="Elipse 4246" cx="1.389" cy="1.389" r="1.389" transform="translate(0 1.063) rotate(-22.5)" fill="#a6a6a7"/>
        </g>
        <g id="Grupo_60730" data-name="Grupo 60730" transform="translate(18.601 17.469)">
          <g id="Grupo_60723" data-name="Grupo 60723" transform="translate(7.745)">
            <g id="Grupo_60721" data-name="Grupo 60721">
              <path id="Trazado_118226" data-name="Trazado 118226" d="M3825.282,2121.362c-.566,0-3.075-5.253,0-5.253S3825.849,2121.362,3825.282,2121.362Z" transform="translate(-3823.781 -2116.109)" fill="#19191a"/>
            </g>
            <g id="Grupo_60722" data-name="Grupo 60722" transform="translate(0 15.504)">
              <path id="Trazado_118227" data-name="Trazado 118227" d="M3825.282,2198.087c.567,0,3.076,5.253,0,5.253S3824.716,2198.087,3825.282,2198.087Z" transform="translate(-3823.781 -2198.087)" fill="#19191a"/>
            </g>
          </g>
          <g id="Grupo_60726" data-name="Grupo 60726" transform="translate(0 4.389)">
            <g id="Grupo_60724" data-name="Grupo 60724">
              <path id="Trazado_118228" data-name="Trazado 118228" d="M3787.635,2142.745c-.283.49-6.087.036-4.549-2.627S3787.918,2142.255,3787.635,2142.745Z" transform="translate(-3782.827 -2139.319)" fill="#19191a"/>
            </g>
            <g id="Grupo_60725" data-name="Grupo 60725" transform="translate(13.668 8.379)">
              <path id="Trazado_118229" data-name="Trazado 118229" d="M3855.117,2183.794c.283-.49,6.087-.036,4.549,2.627S3854.833,2184.285,3855.117,2183.794Z" transform="translate(-3855.1 -2183.621)" fill="#19191a"/>
            </g>
          </g>
          <g id="Grupo_60729" data-name="Grupo 60729" transform="translate(0 4.389)">
            <g id="Grupo_60727" data-name="Grupo 60727" transform="translate(0 8.379)">
              <path id="Trazado_118230" data-name="Trazado 118230" d="M3787.635,2183.794c.283.49-3.012,5.29-4.549,2.627S3787.352,2183.3,3787.635,2183.794Z" transform="translate(-3782.827 -2183.621)" fill="#19191a"/>
            </g>
            <g id="Grupo_60728" data-name="Grupo 60728" transform="translate(13.668)">
              <path id="Trazado_118231" data-name="Trazado 118231" d="M3855.117,2142.745c-.283-.49,3.012-5.29,4.549-2.627S3855.4,2143.235,3855.117,2142.745Z" transform="translate(-3855.1 -2139.319)" fill="#19191a"/>
            </g>
          </g>
        </g>
      </g>
      <g id="Grupo_60732" data-name="Grupo 60732" transform="translate(254.188 26.132)">
        <path id="Trazado_118232" data-name="Trazado 118232" d="M2775.364,1948.685s-34.838,2.963-45.491,3.9a9.357,9.357,0,0,1-2.156-.144c-.658.133-1.283,1.066-2.039,1.692-1.02.845-3.095,1.22-4.285,2.141-1.75,1.353-2.312,2.109-2.443,2.635a11.417,11.417,0,0,1-2.156,3.162h1.438s1.15-2.587,2.156-3.162c.736-.42,3.018-2.156,4.671-2.156.87,0,2.1-1.857,2.659-2.012,2.587-.719,49.444-4.262,49.444-4.262Z" transform="translate(-2716.793 -1948.685)" fill="#3b95e3"/>
      </g>
      <g id="Grupo_60733" data-name="Grupo 60733" transform="translate(249.943 44.633)">
        <path id="Trazado_118233" data-name="Trazado 118233" d="M2694.347,2054.932s.678-6.041,1.758-6.69,16.857-1.729,16.857-1.729l-7.564,7.132Z" transform="translate(-2694.347 -2046.514)" fill="#eff6ff"/>
      </g>
      <g id="Grupo_60734" data-name="Grupo 60734" transform="translate(249.943 47.714)">
        <path id="Trazado_118234" data-name="Trazado 118234" d="M2695.055,2063.931l1.524-1.129,1.078,1.383s2.156-.132,2.731-.255,1.94.74,1.94.74h-2.946l-1.725,1.023-3.311,2.446Z" transform="translate(-2694.347 -2062.802)" fill="#98aec6"/>
      </g>
      <g id="Grupo_60735" data-name="Grupo 60735" transform="translate(244.733 65.148)">
        <path id="Trazado_118235" data-name="Trazado 118235" d="M2670.45,2154.991l-3.585.242a10.3,10.3,0,0,0-.064,1.121l3.459-.447,4.848,2.266,5.078.428-4.693-1.253Z" transform="translate(-2666.801 -2154.991)" fill="#294526"/>
      </g>
      <g id="Grupo_60736" data-name="Grupo 60736" transform="translate(356.109 4.422)">
        <path id="Trazado_118236" data-name="Trazado 118236" d="M3260.006,1835.279l-.044,0-3.749-.307a.54.54,0,1,1,.088-1.077l3.749.306a.54.54,0,0,1-.043,1.079Z" transform="translate(-3255.716 -1833.892)" fill="#3f3f40"/>
      </g>
      <g id="Grupo_60737" data-name="Grupo 60737" transform="translate(314.014 4.729)">
        <path id="Trazado_118237" data-name="Trazado 118237" d="M3033.678,1859.254a.54.54,0,0,1-.24-1.025l45.842-22.659a.54.54,0,1,1,.479.969l-45.842,22.659A.541.541,0,0,1,3033.678,1859.254Z" transform="translate(-3033.136 -1835.514)" fill="#3f3f40"/>
      </g>
      <g id="Grupo_60738" data-name="Grupo 60738" transform="translate(390.593 25.054)">
        <path id="Trazado_118238" data-name="Trazado 118238" d="M3467.16,1990.084h-29.016l0-.323c-.008-1.369-.194-33.573.015-36.088.215-2.574,3.373-7.938,3.507-8.165l.558.33c-.032.054-3.217,5.462-3.419,7.889-.2,2.354-.034,32.255-.015,35.708h28.372c2.425,0,6.049-2.012,10.479-5.818a109.223,109.223,0,0,0,12.968-13.685c9.15-11.263,15.54-22.344,15.54-26.948h.648c0,5.53-8.131,18.057-15.685,27.357C3483.356,1979.886,3472.993,1990.084,3467.16,1990.084Z" transform="translate(-3438.058 -1942.985)" fill="#1b4366"/>
      </g>
      <g id="Grupo_60740" data-name="Grupo 60740" transform="translate(391.738 2.351)">
        <g id="Grupo_60739" data-name="Grupo 60739">
          <path id="Trazado_118239" data-name="Trazado 118239" d="M3450.442,1848.2l-6.331.24,3.631-25.348,4.267-.146Z" transform="translate(-3444.111 -1822.943)" fill="#3f3f40"/>
        </g>
      </g>
      <g id="Grupo_60741" data-name="Grupo 60741" transform="translate(323.626 29.865)">
        <path id="Trazado_118240" data-name="Trazado 118240" d="M3151.333,2010.712h-56.252a2.355,2.355,0,0,1-1.695-1.011c-2.59-3-5.2-12.153-6.523-17.342-1.779-6.967-3.1-14.09-2.883-15.554a52.385,52.385,0,0,1,2.392-8.172.324.324,0,0,1,.606.229,52.919,52.919,0,0,0-2.357,8.037c-.179,1.217.955,7.8,2.87,15.3,2.23,8.736,4.558,14.961,6.385,17.079a1.844,1.844,0,0,0,1.2.786h56.252a.324.324,0,0,1,0,.648Z" transform="translate(-3083.958 -1968.424)" fill="#1b4366"/>
      </g>
      <g id="Grupo_60743" data-name="Grupo 60743" transform="translate(319.999 21.17)">
        <g id="Grupo_60742" data-name="Grupo 60742">
          <path id="Trazado_118241" data-name="Trazado 118241" d="M3065.271,1929.948a.9.9,0,0,0,.448,1.706c3.624-.123,9.548-.325,17.041-.585l-2.991-8.618C3073.877,1925.475,3068.575,1928.227,3065.271,1929.948Z" transform="translate(-3064.782 -1922.451)" fill="#3f3f40"/>
        </g>
      </g>
      <g id="Grupo_60744" data-name="Grupo 60744" transform="translate(319.458 1.674)">
        <path id="Trazado_118242" data-name="Trazado 118242" d="M3063.363,1848.6a1.445,1.445,0,0,1-.663-2.727c13.175-6.86,44.19-22.885,47.616-23.524,10.189-1.9,25.386-2.989,41.7-2.989,4.75,0,9.571.093,14.329.276,6.789.261,14.177,2.525,19.855,4.468a29.253,29.253,0,0,1,11.007,7.035c4.569,4.726,5.133,8.953,4.8,11.666l-.055.452-.455.022c-41.268,2.01-122.26,4.784-138.077,5.32Zm.017-1.081.018.54-.018-.54c15.757-.533,96.2-3.289,137.6-5.3.6-7.922-8.584-14.856-15.129-17.1-5.608-1.919-12.9-4.155-19.547-4.411-4.745-.183-9.552-.275-14.288-.275-16.246,0-31.372,1.083-41.5,2.971-3.375.629-37.069,18.085-47.315,23.42a.364.364,0,0,0,.181.687Z" transform="translate(-3061.92 -1819.362)" fill="#3f3f40"/>
      </g>
      <g id="Grupo_60745" data-name="Grupo 60745" transform="translate(332.158 21.17)">
        <path id="Trazado_118243" data-name="Trazado 118243" d="M3141.942,1928.44c0,1.581-4.584,2.218-8.059,2.218s-4.81.328-4.81-1.939,1.336-6.268,4.81-6.268S3141.942,1926.174,3141.942,1928.44Z" transform="translate(-3129.074 -1922.451)" fill="#3b95e3"/>
      </g>
      <g id="Grupo_60746" data-name="Grupo 60746" transform="translate(332.179 21.17)">
        <path id="Trazado_118244" data-name="Trazado 118244" d="M3129.183,1928.219l.021,0a92.839,92.839,0,0,0,12.7.647.836.836,0,0,0,.122-.428c0-2.266-4.584-5.99-8.058-5.99C3130.741,1922.451,3129.36,1925.912,3129.183,1928.219Z" transform="translate(-3129.183 -1922.451)" fill="#59b2ff"/>
      </g>
      <g id="Grupo_60747" data-name="Grupo 60747" transform="translate(373.429 37.125)">
        <path id="Trazado_118245" data-name="Trazado 118245" d="M3356.836,2009.594h-8.145a1.39,1.39,0,0,1-1.389-1.389h0a1.389,1.389,0,0,1,1.389-1.39h8.145a1.389,1.389,0,0,1,1.389,1.39h0A1.39,1.39,0,0,1,3356.836,2009.594Z" transform="translate(-3347.302 -2006.815)" fill="#3f3f40"/>
      </g>
      <g id="Grupo_60748" data-name="Grupo 60748" transform="translate(435.043 37.125)">
        <path id="Trazado_118246" data-name="Trazado 118246" d="M3682.625,2009.594h-8.145a1.39,1.39,0,0,1-1.39-1.389h0a1.39,1.39,0,0,1,1.39-1.39h8.145a1.39,1.39,0,0,1,1.39,1.39h0A1.39,1.39,0,0,1,3682.625,2009.594Z" transform="translate(-3673.091 -2006.815)" fill="#3f3f40"/>
      </g>
      <g id="Grupo_60749" data-name="Grupo 60749" transform="translate(498.985 35.64)">
        <path id="Trazado_118247" data-name="Trazado 118247" d="M4016.2,1998.963h-2.687a2.322,2.322,0,0,0-2.322,2.322h0a2.322,2.322,0,0,0,2.322,2.322h2.971C4016.425,2002.471,4016.329,2000.806,4016.2,1998.963Z" transform="translate(-4011.194 -1998.963)" fill="#eff6ff"/>
      </g>
      <g id="Grupo_60828" data-name="Grupo 60828" transform="translate(0 3.834)">
        <g id="Grupo_60750" data-name="Grupo 60750" transform="translate(183.518 27.372)">
          <path id="Trazado_118248" data-name="Trazado 118248" d="M2343.116,1975.545c14.756-.412,39.334,4.259,42.5,5.912,1.581.826,3.011,2.326,4.6,3.162s3.335,1.006,4.671,1.509,1.306,1.706,1.869,2.659,1.719,1.659,1.749,2.281C2398.559,1992.312,2343.116,1975.545,2343.116,1975.545Z" transform="translate(-2343.116 -1975.519)" fill="#e35c39"/>
        </g>
        <g id="Grupo_60751" data-name="Grupo 60751">
          <path id="Trazado_118249" data-name="Trazado 118249" d="M1612.217,1881.275s-.575-6.324-.575-7.57-17.248-13.511-55.385-15.523c0,0-44.174-22.231-57.3-24.818s-69.511-5.313-103.028,3.066c-2.3.575-1.821,1.725-1.821,2.2s2.875,3.737,2.875,3.737-19.548,11.69-19.548,18.781v13.127c0,1.533-4.7,4.7-4.7,6.9s3.833,18.493,7.857,20.314c7.981,3.611,12.073,4.024,12.073,4.024H1590.5l21.2-18.628Z" transform="translate(-1372.739 -1830.784)" fill="#19191a"/>
        </g>
        <g id="Grupo_60752" data-name="Grupo 60752" transform="translate(213.755 50.904)">
          <path id="Trazado_118250" data-name="Trazado 118250" d="M2506.032,2124.851s22.239-.849,23.634-1.14,3.971-14.54,4.024-14.92-2.792-4.938-2.792-4.938l-27.9-3.906Z" transform="translate(-2502.999 -2099.947)" fill="#e35c39"/>
        </g>
        <g id="Grupo_60753" data-name="Grupo 60753">
          <path id="Trazado_118251" data-name="Trazado 118251" d="M1612.217,1881.275s-.575-6.324-.575-7.57-17.248-13.511-55.385-15.523c0,0-44.174-22.231-57.3-24.818s-69.511-5.313-103.028,3.066c-2.3.575-1.821,1.725-1.821,2.2s2.875,3.737,2.875,3.737-19.548,11.69-19.548,18.781v13.127c0,1.533-4.7,4.7-4.7,6.9s3.833,18.493,7.857,20.314c7.981,3.611,12.073,4.024,12.073,4.024H1590.5l-6.457-24.243Z" transform="translate(-1372.739 -1830.784)" fill="#e35c39"/>
        </g>
        <g id="Grupo_60754" data-name="Grupo 60754" transform="translate(5.483)">
          <path id="Trazado_118252" data-name="Trazado 118252" d="M1635.15,1873.705c0-1.246-17.248-13.511-55.385-15.523,0,0-44.174-22.23-57.3-24.818s-69.511-5.313-103.028,3.066c-2.3.575-1.821,1.725-1.821,2.2s2.875,3.737,2.875,3.737-15.112,9.038-18.76,16.041c14.017.364,25.423-.2,44.837.728s125.532,8.055,136.1,8.7,21.033,2.108,32.076,3.746c6,.89,14.217,2.281,20.468,3.366C1635.173,1874.4,1635.15,1873.951,1635.15,1873.705Z" transform="translate(-1401.731 -1830.784)" fill="#fa7f4e"/>
        </g>
        <g id="Grupo_60755" data-name="Grupo 60755" transform="translate(39.303 3.242)">
          <path id="Trazado_118253" data-name="Trazado 118253" d="M1589.552,1867.482c-2.458-1.054-8.881-7.783-8.99-10.636-.092-2.4,16.812-8.921,44.508-8.921,19.505,0,35.581,1.3,41.778,2.519,12.545,2.472,49.455,22.979,52.733,25.566C1719.581,1876.01,1597.356,1870.829,1589.552,1867.482Z" transform="translate(-1580.561 -1847.925)" fill="#fac27d"/>
        </g>
        <g id="Grupo_60756" data-name="Grupo 60756" transform="translate(0 50.395)">
          <path id="Trazado_118254" data-name="Trazado 118254" d="M1380.6,2117.57c7.981,3.61,12.073,4.024,12.073,4.024H1590.5l-5.242-19.682c-64.3-.56-207.1-3.271-212.521-4.656C1372.739,2099.46,1376.572,2115.75,1380.6,2117.57Z" transform="translate(-1372.739 -2097.256)" fill="#c73f1c"/>
        </g>
        <g id="Grupo_60757" data-name="Grupo 60757" transform="translate(4.695 30.369)">
          <path id="Trazado_118255" data-name="Trazado 118255" d="M1397.566,1991.362h4.59a2.493,2.493,0,0,1,2.284,3.493c-1.517,3.475-4.117,8.293-6.874,8.293Z" transform="translate(-1397.566 -1991.362)" fill="#f15555"/>
        </g>
        <g id="Grupo_60758" data-name="Grupo 60758" transform="translate(214.325 55.589)">
          <path id="Trazado_118256" data-name="Trazado 118256" d="M2506.016,2124.719l2.463,20.219s22.239-.849,23.634-1.14,3.971-14.54,4.024-14.92C2533.73,2128.747,2522.461,2127.168,2506.016,2124.719Z" transform="translate(-2506.016 -2124.719)" fill="#c73f1c"/>
        </g>
        <g id="Grupo_60759" data-name="Grupo 60759" transform="translate(218.363 39.69)">
          <path id="Trazado_118257" data-name="Trazado 118257" d="M2547.9,2043.881s-7.666-2.97-10.636-3.162-11.02-.028-9.773,1.04,20.123,9.788,20.984,9.692C2549.02,2049.726,2549.048,2045.607,2547.9,2043.881Z" transform="translate(-2527.364 -2040.649)" fill="#fffbf1"/>
        </g>
        <g id="Grupo_60782" data-name="Grupo 60782" transform="translate(173.308 43.392)">
          <g id="Grupo_60760" data-name="Grupo 60760">
            <path id="Trazado_118258" data-name="Trazado 118258" d="M2333.586,2082.455v9.114h-44.455v-9.114a22.227,22.227,0,1,1,44.455,0Z" transform="translate(-2289.131 -2060.227)" fill="#c73f1c"/>
          </g>
          <g id="Grupo_60761" data-name="Grupo 60761" transform="translate(1.736 2.38)">
            <path id="Trazado_118259" data-name="Trazado 118259" d="M2339.294,2093.3v8.471h-40.982V2093.3a20.491,20.491,0,0,1,40.982,0Z" transform="translate(-2298.312 -2072.809)" fill="#19191a"/>
          </g>
          <g id="Grupo_60762" data-name="Grupo 60762" transform="translate(4.46 5.103)">
            <circle id="Elipse_4247" data-name="Elipse 4247" cx="17.768" cy="17.768" r="17.768" fill="#4c4c4d"/>
          </g>
          <g id="Grupo_60763" data-name="Grupo 60763" transform="translate(5.015 5.658)">
            <circle id="Elipse_4248" data-name="Elipse 4248" cx="17.213" cy="17.213" r="17.213" fill="#3f3f40"/>
          </g>
          <g id="Grupo_60764" data-name="Grupo 60764" transform="translate(6.365 7.008)">
            <circle id="Elipse_4249" data-name="Elipse 4249" cx="13.186" cy="13.186" r="13.186" transform="matrix(0.23, -0.973, 0.973, 0.23, 0, 25.666)" fill="#323233"/>
          </g>
          <g id="Grupo_60765" data-name="Grupo 60765" transform="translate(10.136 10.779)">
            <circle id="Elipse_4250" data-name="Elipse 4250" cx="12.091" cy="12.091" r="12.091" fill="#e4e4e5"/>
          </g>
          <g id="Grupo_60766" data-name="Grupo 60766" transform="translate(8.734 9.377)">
            <circle id="Elipse_4251" data-name="Elipse 4251" cx="11.217" cy="11.217" r="11.217" transform="translate(0 21.833) rotate(-76.717)" fill="#a6a6a7"/>
          </g>
          <g id="Grupo_60767" data-name="Grupo 60767" transform="translate(11.377 12.02)">
            <circle id="Elipse_4252" data-name="Elipse 4252" cx="10.851" cy="10.851" r="10.851" fill="#cacacb"/>
          </g>
          <g id="Grupo_60768" data-name="Grupo 60768" transform="translate(18.929 19.573)">
            <circle id="Elipse_4253" data-name="Elipse 4253" cx="3.298" cy="3.298" r="3.298" fill="#a6a6a7"/>
          </g>
          <g id="Grupo_60769" data-name="Grupo 60769" transform="translate(20.044 12.713)">
            <path id="Trazado_118260" data-name="Trazado 118260" d="M2395.8,2132.489a1.474,1.474,0,0,0,1.485,1.219h.027a1.474,1.474,0,0,0,1.485-1.219l.676-4.11a.687.687,0,0,0-.554-.79,9.544,9.544,0,0,0-3.239,0,.687.687,0,0,0-.555.79Z" transform="translate(-2395.115 -2127.45)" fill="#323233"/>
          </g>
          <g id="Grupo_60770" data-name="Grupo 60770" transform="translate(12.191 17.873)">
            <path id="Trazado_118261" data-name="Trazado 118261" d="M2358.3,2159.575a1.474,1.474,0,0,0,1.618-1.036l0-.013,0-.013a1.474,1.474,0,0,0-.7-1.789l-3.7-1.913a.687.687,0,0,0-.923.283,9.547,9.547,0,0,0-1,3.081.686.686,0,0,0,.58.772Z" transform="translate(-2353.594 -2154.734)" fill="#323233"/>
          </g>
          <g id="Grupo_60771" data-name="Grupo 60771" transform="translate(14.837 25.717)">
            <path id="Trazado_118262" data-name="Trazado 118262" d="M2373.18,2198.386a1.474,1.474,0,0,0-.485-1.859l-.011-.008-.011-.008a1.474,1.474,0,0,0-1.918.113l-2.963,2.927a.688.688,0,0,0-.016.966,9.566,9.566,0,0,0,2.621,1.9.687.687,0,0,0,.914-.313Z" transform="translate(-2367.586 -2196.211)" fill="#323233"/>
          </g>
          <g id="Grupo_60772" data-name="Grupo 60772" transform="translate(23.871 25.717)">
            <path id="Trazado_118263" data-name="Trazado 118263" d="M2417.93,2196.624a1.474,1.474,0,0,0-1.917-.113l-.011.008-.011.008a1.475,1.475,0,0,0-.485,1.859l1.869,3.723a.688.688,0,0,0,.914.313,9.544,9.544,0,0,0,2.621-1.9.687.687,0,0,0-.016-.966Z" transform="translate(-2415.353 -2196.211)" fill="#323233"/>
          </g>
          <g id="Grupo_60773" data-name="Grupo 60773" transform="translate(25.853 17.873)">
            <path id="Trazado_118264" data-name="Trazado 118264" d="M2426.613,2156.725a1.474,1.474,0,0,0-.7,1.789l0,.012,0,.013a1.474,1.474,0,0,0,1.618,1.036l4.118-.627a.687.687,0,0,0,.58-.772,9.531,9.531,0,0,0-1-3.081.687.687,0,0,0-.923-.283Z" transform="translate(-2425.834 -2154.734)" fill="#323233"/>
          </g>
          <g id="Grupo_60774" data-name="Grupo 60774" transform="translate(18.731 19.374)">
            <circle id="Elipse_4254" data-name="Elipse 4254" cx="2.907" cy="2.907" r="2.907" transform="translate(0 5.658) rotate(-76.717)" fill="#e4e4e5"/>
          </g>
          <g id="Grupo_60775" data-name="Grupo 60775" transform="translate(20.866 21.509)">
            <path id="Trazado_118265" data-name="Trazado 118265" d="M2400.823,2176.681a1.362,1.362,0,1,1,1.362-1.362A1.363,1.363,0,0,1,2400.823,2176.681Zm0-2.507a1.146,1.146,0,1,0,1.146,1.145A1.146,1.146,0,0,0,2400.823,2174.174Z" transform="translate(-2399.461 -2173.958)" fill="#a6a6a7"/>
          </g>
          <g id="Grupo_60776" data-name="Grupo 60776" transform="translate(20.324 20.967)">
            <path id="Trazado_118266" data-name="Trazado 118266" d="M2397.334,2171.219a.433.433,0,1,1-.612,0A.432.432,0,0,1,2397.334,2171.219Z" transform="translate(-2396.596 -2171.093)" fill="#a6a6a7"/>
          </g>
          <g id="Grupo_60777" data-name="Grupo 60777" transform="translate(19.785 22.976)">
            <path id="Trazado_118267" data-name="Trazado 118267" d="M2394.069,2181.731a.433.433,0,1,1-.306.53A.433.433,0,0,1,2394.069,2181.731Z" transform="translate(-2393.748 -2181.716)" fill="#a6a6a7"/>
          </g>
          <g id="Grupo_60778" data-name="Grupo 60778" transform="translate(21.256 24.447)">
            <path id="Trazado_118268" data-name="Trazado 118268" d="M2401.541,2189.815a.433.433,0,1,1,.306.53A.433.433,0,0,1,2401.541,2189.815Z" transform="translate(-2401.526 -2189.494)" fill="#a6a6a7"/>
          </g>
          <g id="Grupo_60779" data-name="Grupo 60779" transform="translate(23.265 23.909)">
            <circle id="Elipse_4255" data-name="Elipse 4255" cx="0.433" cy="0.433" r="0.433" fill="#a6a6a7"/>
          </g>
          <g id="Grupo_60780" data-name="Grupo 60780" transform="translate(23.804 21.899)">
            <path id="Trazado_118269" data-name="Trazado 118269" d="M2415.542,2176.874a.433.433,0,1,1,.306-.53A.433.433,0,0,1,2415.542,2176.874Z" transform="translate(-2414.997 -2176.023)" fill="#a6a6a7"/>
          </g>
          <g id="Grupo_60781" data-name="Grupo 60781" transform="translate(22.333 20.428)">
            <path id="Trazado_118270" data-name="Trazado 118270" d="M2408.071,2168.79a.433.433,0,1,1-.306-.53A.433.433,0,0,1,2408.071,2168.79Z" transform="translate(-2407.219 -2168.245)" fill="#a6a6a7"/>
          </g>
        </g>
        <g id="Grupo_60805" data-name="Grupo 60805" transform="translate(20.702 43.392)">
          <g id="Grupo_60783" data-name="Grupo 60783">
            <path id="Trazado_118271" data-name="Trazado 118271" d="M1526.66,2082.455v9.114h-44.455v-9.114a22.227,22.227,0,1,1,44.455,0Z" transform="translate(-1482.205 -2060.227)" fill="#c73f1c"/>
          </g>
          <g id="Grupo_60784" data-name="Grupo 60784" transform="translate(1.736 2.38)">
            <path id="Trazado_118272" data-name="Trazado 118272" d="M1532.368,2093.3v8.471h-40.982V2093.3a20.491,20.491,0,1,1,40.982,0Z" transform="translate(-1491.386 -2072.809)" fill="#19191a"/>
          </g>
          <g id="Grupo_60785" data-name="Grupo 60785" transform="translate(4.46 5.103)">
            <circle id="Elipse_4256" data-name="Elipse 4256" cx="17.768" cy="17.768" r="17.768" fill="#4c4c4d"/>
          </g>
          <g id="Grupo_60786" data-name="Grupo 60786" transform="translate(5.015 5.658)">
            <circle id="Elipse_4257" data-name="Elipse 4257" cx="17.213" cy="17.213" r="17.213" fill="#3f3f40"/>
          </g>
          <g id="Grupo_60787" data-name="Grupo 60787" transform="translate(6.294 6.937)">
            <circle id="Elipse_4258" data-name="Elipse 4258" cx="13.186" cy="13.186" r="13.186" transform="translate(0 25.622) rotate(-76.302)" fill="#323233"/>
          </g>
          <g id="Grupo_60788" data-name="Grupo 60788" transform="translate(10.136 10.779)">
            <circle id="Elipse_4259" data-name="Elipse 4259" cx="12.091" cy="12.091" r="12.091" fill="#e4e4e5"/>
          </g>
          <g id="Grupo_60789" data-name="Grupo 60789" transform="translate(8.683 9.326)">
            <circle id="Elipse_4260" data-name="Elipse 4260" cx="11.217" cy="11.217" r="11.217" transform="translate(0 21.801) rotate(-76.366)" fill="#a6a6a7"/>
          </g>
          <g id="Grupo_60790" data-name="Grupo 60790" transform="translate(11.377 12.02)">
            <circle id="Elipse_4261" data-name="Elipse 4261" cx="10.851" cy="10.851" r="10.851" fill="#cacacb"/>
          </g>
          <g id="Grupo_60791" data-name="Grupo 60791" transform="translate(18.929 19.573)">
            <circle id="Elipse_4262" data-name="Elipse 4262" cx="3.298" cy="3.298" r="3.298" fill="#a6a6a7"/>
          </g>
          <g id="Grupo_60792" data-name="Grupo 60792" transform="translate(20.044 12.713)">
            <path id="Trazado_118273" data-name="Trazado 118273" d="M1588.874,2132.489a1.474,1.474,0,0,0,1.485,1.219h.027a1.474,1.474,0,0,0,1.485-1.219l.676-4.11a.687.687,0,0,0-.555-.79,9.543,9.543,0,0,0-3.239,0,.687.687,0,0,0-.555.79Z" transform="translate(-1588.189 -2127.45)" fill="#323233"/>
          </g>
          <g id="Grupo_60793" data-name="Grupo 60793" transform="translate(12.191 17.873)">
            <path id="Trazado_118274" data-name="Trazado 118274" d="M1551.373,2159.575a1.474,1.474,0,0,0,1.618-1.036l0-.013,0-.013a1.474,1.474,0,0,0-.7-1.789l-3.7-1.913a.687.687,0,0,0-.923.283,9.547,9.547,0,0,0-1,3.081.687.687,0,0,0,.58.772Z" transform="translate(-1546.668 -2154.734)" fill="#323233"/>
          </g>
          <g id="Grupo_60794" data-name="Grupo 60794" transform="translate(14.837 25.717)">
            <path id="Trazado_118275" data-name="Trazado 118275" d="M1566.254,2198.386a1.474,1.474,0,0,0-.485-1.859l-.011-.008-.011-.008a1.474,1.474,0,0,0-1.918.113l-2.963,2.927a.688.688,0,0,0-.016.966,9.554,9.554,0,0,0,2.621,1.9.687.687,0,0,0,.913-.313Z" transform="translate(-1560.66 -2196.211)" fill="#323233"/>
          </g>
          <g id="Grupo_60795" data-name="Grupo 60795" transform="translate(23.871 25.717)">
            <path id="Trazado_118276" data-name="Trazado 118276" d="M1611,2196.624a1.474,1.474,0,0,0-1.918-.113l-.011.008-.011.008a1.475,1.475,0,0,0-.485,1.859l1.869,3.723a.687.687,0,0,0,.913.313,9.534,9.534,0,0,0,2.621-1.9.687.687,0,0,0-.016-.966Z" transform="translate(-1608.427 -2196.211)" fill="#323233"/>
          </g>
          <g id="Grupo_60796" data-name="Grupo 60796" transform="translate(25.853 17.873)">
            <path id="Trazado_118277" data-name="Trazado 118277" d="M1619.687,2156.725a1.474,1.474,0,0,0-.7,1.789l0,.012,0,.013a1.475,1.475,0,0,0,1.618,1.036l4.118-.627a.687.687,0,0,0,.58-.772,9.551,9.551,0,0,0-1-3.081.687.687,0,0,0-.923-.283Z" transform="translate(-1618.908 -2154.734)" fill="#323233"/>
          </g>
          <g id="Grupo_60797" data-name="Grupo 60797" transform="translate(18.727 19.37)">
            <circle id="Elipse_4263" data-name="Elipse 4263" cx="2.907" cy="2.907" r="2.907" transform="matrix(0.231, -0.973, 0.973, 0.231, 0, 5.656)" fill="#e4e4e5"/>
          </g>
          <g id="Grupo_60798" data-name="Grupo 60798" transform="translate(20.866 21.509)">
            <path id="Trazado_118278" data-name="Trazado 118278" d="M1593.9,2176.681a1.362,1.362,0,1,1,1.362-1.362A1.363,1.363,0,0,1,1593.9,2176.681Zm0-2.507a1.146,1.146,0,1,0,1.145,1.145A1.147,1.147,0,0,0,1593.9,2174.174Z" transform="translate(-1592.535 -2173.958)" fill="#a6a6a7"/>
          </g>
          <g id="Grupo_60799" data-name="Grupo 60799" transform="translate(20.324 20.967)">
            <path id="Trazado_118279" data-name="Trazado 118279" d="M1590.408,2171.219a.433.433,0,1,1-.612,0A.432.432,0,0,1,1590.408,2171.219Z" transform="translate(-1589.669 -2171.093)" fill="#a6a6a7"/>
          </g>
          <g id="Grupo_60800" data-name="Grupo 60800" transform="translate(19.785 22.976)">
            <path id="Trazado_118280" data-name="Trazado 118280" d="M1587.143,2181.731a.433.433,0,1,1-.306.53A.433.433,0,0,1,1587.143,2181.731Z" transform="translate(-1586.822 -2181.716)" fill="#a6a6a7"/>
          </g>
          <g id="Grupo_60801" data-name="Grupo 60801" transform="translate(21.256 24.447)">
            <path id="Trazado_118281" data-name="Trazado 118281" d="M1594.614,2189.815a.433.433,0,1,1,.306.53A.433.433,0,0,1,1594.614,2189.815Z" transform="translate(-1594.599 -2189.494)" fill="#a6a6a7"/>
          </g>
          <g id="Grupo_60802" data-name="Grupo 60802" transform="translate(23.265 23.909)">
            <circle id="Elipse_4264" data-name="Elipse 4264" cx="0.433" cy="0.433" r="0.433" fill="#a6a6a7"/>
          </g>
          <g id="Grupo_60803" data-name="Grupo 60803" transform="translate(23.804 21.899)">
            <path id="Trazado_118282" data-name="Trazado 118282" d="M1608.615,2176.874a.433.433,0,1,1,.306-.53A.433.433,0,0,1,1608.615,2176.874Z" transform="translate(-1608.071 -2176.023)" fill="#a6a6a7"/>
          </g>
          <g id="Grupo_60804" data-name="Grupo 60804" transform="translate(22.333 20.428)">
            <path id="Trazado_118283" data-name="Trazado 118283" d="M1601.144,2168.79a.433.433,0,1,1-.306-.53A.433.433,0,0,1,1601.144,2168.79Z" transform="translate(-1600.293 -2168.245)" fill="#a6a6a7"/>
          </g>
        </g>
        <g id="Grupo_60806" data-name="Grupo 60806" transform="translate(40.846 3.242)">
          <path id="Trazado_118284" data-name="Trazado 118284" d="M1673.461,1850.444c-6.2-1.221-22.272-2.519-41.778-2.519-22.754,0-38.22,4.4-42.966,7.3,21.691,3.516,48.98,5.841,79.988,6.245,10.6.138,20.891.043,30.717-.259C1689.348,1856.17,1679.016,1851.539,1673.461,1850.444Z" transform="translate(-1588.717 -1847.925)" fill="#fff7e6"/>
        </g>
        <g id="Grupo_60807" data-name="Grupo 60807" transform="translate(49.993 23.343)">
          <path id="Trazado_118285" data-name="Trazado 118285" d="M1754.138,2001.719l-.307-.008c-.855-.021-85.574-2.115-91.647-2.68-3.393-.315-9.988-10.8-14.923-19.544-5.179-9.172-10.125-19.321-10.175-20.245-.062-1.146.814-2.531,1.519-3.644a8.759,8.759,0,0,0,.679-1.18.324.324,0,1,1,.6.234,8.953,8.953,0,0,1-.736,1.292c-.62.98-1.47,2.323-1.419,3.262.084.757,4.555,10.162,10.142,20.048,9.234,16.34,12.966,19,14.369,19.129,5.867.546,85.662,2.53,91.3,2.67.263-3.314,2.555-32.257,2.467-33.762-.075-1.27-1.8-4.355-2.456-5.436a.324.324,0,0,1,.554-.337c.1.164,2.45,4.045,2.549,5.735.1,1.633-2.386,32.83-2.492,34.157Z" transform="translate(-1637.083 -1954.212)" fill="#913d26"/>
        </g>
        <g id="Grupo_60809" data-name="Grupo 60809" transform="translate(50.71 4.017)">
          <g id="Grupo_60808" data-name="Grupo 60808">
            <path id="Trazado_118286" data-name="Trazado 118286" d="M1647.706,1872.3c.017-.033-6.831-.907-6.831-.907.36-.929,7.154-10.418,13.123-18.925l3.913-.446c-2.6,3.7-6.736,9.754-9.474,13.727C1648.494,1865.876,1647.706,1872.3,1647.706,1872.3Z" transform="translate(-1640.875 -1852.023)" fill="#3f3f40"/>
          </g>
        </g>
        <g id="Grupo_60810" data-name="Grupo 60810" transform="translate(104.012 27.304)">
          <path id="Trazado_118287" data-name="Trazado 118287" d="M1923.661,2017.053a.324.324,0,0,1-.324-.322c-.009-1.366-.22-33.468-.029-35.285a31.208,31.208,0,0,0-.584-5.9.324.324,0,1,1,.637-.119,31.007,31.007,0,0,1,.592,6.092c-.187,1.782.03,34.879.032,35.213a.324.324,0,0,1-.322.326Z" transform="translate(-1922.719 -1975.157)" fill="#913d26"/>
        </g>
        <g id="Grupo_60812" data-name="Grupo 60812" transform="translate(100.232 3.545)">
          <g id="Grupo_60811" data-name="Grupo 60811">
            <path id="Trazado_118288" data-name="Trazado 118288" d="M1904.694,1873.49l-1.964-23.959,3.308.136,3.3,24.089Z" transform="translate(-1902.73 -1849.531)" fill="#3f3f40"/>
          </g>
        </g>
        <g id="Grupo_60814" data-name="Grupo 60814" transform="translate(153.146 19.732)">
          <g id="Grupo_60813" data-name="Grupo 60813">
            <path id="Trazado_118289" data-name="Trazado 118289" d="M2187.184,1935.12l-4.664,10.463c14.857.7,25.177,1.131,25.177,1.131C2206.175,1945.513,2197.4,1940.449,2187.184,1935.12Z" transform="translate(-2182.52 -1935.12)" fill="#3f3f40"/>
          </g>
        </g>
        <g id="Grupo_60815" data-name="Grupo 60815" transform="translate(38.763 2.701)">
          <path id="Trazado_118290" data-name="Trazado 118290" d="M1718.909,1874.3l-1.668-.071c-4.995-.212-122.413-5.224-130.219-8.571h0c-2.486-1.066-9.195-7.9-9.318-11.112a1.6,1.6,0,0,1,.542-1.142c1.637-1.7,6.959-3.724,13.89-5.282a140.891,140.891,0,0,1,30.617-3.058c19.07,0,35.5,1.272,41.882,2.53,12.446,2.452,49.324,22.8,52.963,25.672Zm-96.156-28.155a139.026,139.026,0,0,0-32.391,3.508c-8.751,2.183-11.548,4.322-11.577,4.854.1,2.531,6.288,9.139,8.663,10.158,7.093,3.042,112.272,7.721,127.909,8.4-3.518-2.192-11.853-6.9-21.231-11.722-8.059-4.142-22.633-11.3-29.7-12.69C1658.1,1847.411,1641.753,1846.149,1622.753,1846.149Z" transform="translate(-1577.704 -1845.068)" fill="#3f3f40"/>
        </g>
        <g id="Grupo_60816" data-name="Grupo 60816" transform="translate(151.991 20.939)">
          <path id="Trazado_118291" data-name="Trazado 118291" d="M2185.91,1948.34c-.131,1.832-2.955,1.342-6.262,1.078-3.4-.271-3.233-1.489-3.233-3.325s.085-2,3.233-3.325C2183.2,1941.279,2186.55,1939.37,2185.91,1948.34Z" transform="translate(-2176.414 -1941.503)" fill="#e35c39"/>
        </g>
        <g id="Grupo_60817" data-name="Grupo 60817" transform="translate(222.561 62.363)">
          <path id="Trazado_118292" data-name="Trazado 118292" d="M2570.959,2160.537h0l-9.608,2.429-7.069,1.576-4.722,4.149,5.322-2.678,6.365-1.471,4.714.433,4.343-1.225C2570.553,2162.582,2570.777,2161.471,2570.959,2160.537Z" transform="translate(-2549.561 -2160.537)" fill="#4f3126"/>
        </g>
        <g id="Grupo_60818" data-name="Grupo 60818" transform="translate(151.992 20.94)">
          <path id="Trazado_118293" data-name="Trazado 118293" d="M2185.859,1944.233c-.629-4.126-3.354-2.659-6.2-1.462-3.148,1.321-3.233,1.489-3.233,3.325C2176.421,1946.745,2185.972,1944.978,2185.859,1944.233Z" transform="translate(-2176.421 -1941.505)" fill="#fa7f4e"/>
        </g>
        <g id="Grupo_60819" data-name="Grupo 60819" transform="translate(22.665 4.017)">
          <path id="Trazado_118294" data-name="Trazado 118294" d="M1494.16,1859.594s12.742-5.458,25.042-7.571c0,0-7.252.033-26.62,5.71C1493.344,1858.669,1494.16,1859.594,1494.16,1859.594Z" transform="translate(-1492.582 -1852.023)" fill="#c73f1c"/>
        </g>
        <g id="Grupo_60822" data-name="Grupo 60822" transform="translate(60.814 31.657)">
          <g id="Grupo_60820" data-name="Grupo 60820" transform="translate(2.313)">
            <ellipse id="Elipse_4265" data-name="Elipse 4265" cx="4.619" cy="3.234" rx="4.619" ry="3.234" fill="#c73f1c"/>
          </g>
          <g id="Grupo_60821" data-name="Grupo 60821" transform="translate(0 2.153)">
            <path id="Trazado_118295" data-name="Trazado 118295" d="M1707.084,2011.723h-11.7a1.081,1.081,0,0,1,0-2.161h11.7a1.081,1.081,0,0,1,0,2.161Z" transform="translate(-1694.3 -2009.562)" fill="#3f3f40"/>
          </g>
        </g>
        <g id="Grupo_60825" data-name="Grupo 60825" transform="translate(111.002 33.094)">
          <g id="Grupo_60823" data-name="Grupo 60823" transform="translate(2.313)">
            <ellipse id="Elipse_4266" data-name="Elipse 4266" cx="4.619" cy="3.234" rx="4.619" ry="3.234" fill="#c73f1c"/>
          </g>
          <g id="Grupo_60824" data-name="Grupo 60824" transform="translate(0 2.153)">
            <path id="Trazado_118296" data-name="Trazado 118296" d="M1972.463,2019.323h-11.7a1.081,1.081,0,0,1,0-2.161h11.7a1.081,1.081,0,0,1,0,2.161Z" transform="translate(-1959.679 -2017.162)" fill="#3f3f40"/>
          </g>
        </g>
        <g id="Grupo_60826" data-name="Grupo 60826" transform="translate(24.201 31.82)">
          <path id="Trazado_118297" data-name="Trazado 118297" d="M1505.212,2008.054a4.508,4.508,0,1,1,4.509-4.508A4.513,4.513,0,0,1,1505.212,2008.054Zm0-8.368a3.86,3.86,0,1,0,3.86,3.86A3.865,3.865,0,0,0,1505.212,1999.685Z" transform="translate(-1500.704 -1999.037)" fill="#913d26"/>
        </g>
        <g id="Grupo_60827" data-name="Grupo 60827" transform="translate(231.333 44.037)">
          <path id="Trazado_118298" data-name="Trazado 118298" d="M2604.014,2063.634a7.06,7.06,0,0,1-2.393.556h-5.677l5.605.863-1.8.791,3.306-.474,1.377,1.012A11.15,11.15,0,0,0,2604.014,2063.634Z" transform="translate(-2595.944 -2063.634)" fill="#c8c0b2"/>
        </g>
      </g>
    </g>
    <g id="Grupo_60830" data-name="Grupo 60830" transform="translate(1465.824 1261.017)">
      <path id="Trazado_118299" data-name="Trazado 118299" d="M2586.736,2313.784l-2.593.863,3.6-.161Z" transform="translate(-2584.143 -2313.784)" fill="#fffbf1"/>
    </g>
    <g id="Grupo_60831" data-name="Grupo 60831" transform="translate(1456.975 1258.184)">
      <path id="Trazado_118300" data-name="Trazado 118300" d="M2541.044,2298.805l-3.688.1,4.646.4,2.16-.5Z" transform="translate(-2537.356 -2298.805)" fill="#fffbf1"/>
    </g>
    <g id="Grupo_60832" data-name="Grupo 60832" transform="translate(1502.696 1256.527)">
      <path id="Trazado_118301" data-name="Trazado 118301" d="M2780.263,2290.044l3.449.791-4.6.647Z" transform="translate(-2779.113 -2290.044)" fill="#eff6ff"/>
    </g>
    <g id="Grupo_60833" data-name="Grupo 60833" transform="translate(1479.651 1257.246)">
      <path id="Trazado_118302" data-name="Trazado 118302" d="M2658.409,2293.844l1.857,1.014-3.007.423Z" transform="translate(-2657.259 -2293.844)" fill="#eff6ff"/>
    </g>
    <g id="Grupo_60834" data-name="Grupo 60834" transform="translate(1475.912 1145.852)">
      <path id="Trazado_118303" data-name="Trazado 118303" d="M2648.712,1766.97a23.535,23.535,0,0,1-7.247-10.785c-1.542-4.814-1.485-9.974-1.414-15.029.062-4.364,1.061-6.209,2.245-10.41s-6.352-10.318-4.521-17.106c3.083-11.432,15.438-9.188,21.187-6.415,5.346,2.579,13.752-2.478,18.113-2.39,4.176.084,9.738,3.095,7.994,3.63-3.443,1.056-5.474,4.5-7.246,7.639s-4,6.525-7.518,7.285c-2.7.582-5.425-.56-8.07-1.352s-5.817-1.139-7.892.682c-2.362,2.073-2.065,5.829-1.1,8.822s2.41,6.08,1.691,9.14c-.569,2.424-2.394,4.313-3.819,6.354A21.7,21.7,0,0,0,2648.712,1766.97Z" transform="translate(-2637.487 -1704.834)" fill="#fffefc"/>
    </g>
    <g id="Grupo_60835" data-name="Grupo 60835" transform="translate(1484.482 1169.98)">
      <path id="Trazado_118304" data-name="Trazado 118304" d="M2687.131,1843.662a13.91,13.91,0,0,0-.36-4.538l-1.038-5.421c-.1-.543-.32-1.2-.866-1.285a.925.925,0,0,0-.895.527,2.712,2.712,0,0,0-.24,1.073q-.212,2.546-.424,5.093-.246,2.958-.493,5.916c-.107,1.283.588,3.232,2.208,2.31A5.318,5.318,0,0,0,2687.131,1843.662Z" transform="translate(-2682.804 -1832.41)" fill="#ffe2ab"/>
    </g>
    <g id="Grupo_60836" data-name="Grupo 60836" transform="translate(1503.41 1154.277)">
      <path id="Trazado_118305" data-name="Trazado 118305" d="M2784.2,1756.524c-.453,0-.99-.04-1.224-.428a.943.943,0,0,1,.5-1.226,3.569,3.569,0,0,1,1.457-.23,7.776,7.776,0,0,0,6.184-3.725,4.583,4.583,0,0,1,.852-1.212,1.124,1.124,0,0,1,1.366-.155c.5.387.364,1.167.124,1.75a9.52,9.52,0,0,1-3.508,4.246C2788.061,1756.808,2786.4,1756.516,2784.2,1756.524Z" transform="translate(-2782.886 -1749.377)" fill="#ffe2ab"/>
    </g>
    <g id="Grupo_60837" data-name="Grupo 60837" transform="translate(1482.508 1149.651)">
      <path id="Trazado_118306" data-name="Trazado 118306" d="M2675.524,1725.129a4.312,4.312,0,0,0-2.705,1.756,2.723,2.723,0,0,0,.051,3.1,3.938,3.938,0,0,0,3.3,1.052,6.757,6.757,0,0,0,3.207-.8,3.309,3.309,0,0,0,1.7-2.7C2681.087,1724.705,2677.431,1724.688,2675.524,1725.129Z" transform="translate(-2672.362 -1724.918)" fill="#ffe2ab"/>
    </g>
    <g id="Grupo_60841" data-name="Grupo 60841" transform="translate(1293.361 1269.033)">
      <g id="Grupo_60838" data-name="Grupo 60838" transform="translate(6.01 0)">
        <path id="Trazado_118307" data-name="Trazado 118307" d="M1724.585,2376.989H1704l7.153-19.376a2.206,2.206,0,0,1,2.07-1.443h2.139a2.207,2.207,0,0,1,2.07,1.443Z" transform="translate(-1704 -2356.17)" fill="#e35c39"/>
      </g>
      <g id="Grupo_60839" data-name="Grupo 60839" transform="translate(8.931 7.913)">
        <path id="Trazado_118308" data-name="Trazado 118308" d="M1719.445,2403h14.743l-1.843-4.993h-11.057Z" transform="translate(-1719.445 -2398.011)" fill="#fffefc"/>
      </g>
      <g id="Grupo_60840" data-name="Grupo 60840" transform="translate(0 20.232)">
        <path id="Trazado_118309" data-name="Trazado 118309" d="M1704.241,2464.324h-31.432a.586.586,0,0,1,0-1.172h31.432a.586.586,0,1,1,0,1.172Z" transform="translate(-1672.223 -2463.152)" fill="#913d26"/>
      </g>
    </g>
    <g id="Grupo_60845" data-name="Grupo 60845" transform="translate(1663.329 1291.615)">
      <g id="Grupo_60842" data-name="Grupo 60842" transform="translate(6.01 0)">
        <path id="Trazado_118310" data-name="Trazado 118310" d="M3680.846,2496.392h-20.585l7.153-19.376a2.207,2.207,0,0,1,2.07-1.442h2.139a2.207,2.207,0,0,1,2.07,1.442Z" transform="translate(-3660.261 -2475.573)" fill="#e35c39"/>
      </g>
      <g id="Grupo_60843" data-name="Grupo 60843" transform="translate(8.931 7.913)">
        <path id="Trazado_118311" data-name="Trazado 118311" d="M3675.707,2522.406h14.742l-1.843-4.993h-11.057Z" transform="translate(-3675.707 -2517.414)" fill="#fffefc"/>
      </g>
      <g id="Grupo_60844" data-name="Grupo 60844" transform="translate(0 20.232)">
        <path id="Trazado_118312" data-name="Trazado 118312" d="M3660.5,2583.727H3629.07a.586.586,0,1,1,0-1.172H3660.5a.586.586,0,0,1,0,1.172Z" transform="translate(-3628.484 -2582.555)" fill="#913d26"/>
      </g>
    </g>
    <g id="Grupo_60846" data-name="Grupo 60846" transform="translate(1381.135 1280.018)">
      <path id="Trazado_118313" data-name="Trazado 118313" d="M2208.405,2416.743c0,1.375-37.731,2.49-49.946,2.49s-22.117-1.115-22.117-2.49,9.9-2.49,22.117-2.49S2208.405,2415.368,2208.405,2416.743Z" transform="translate(-2136.342 -2414.254)" fill="#e3dbd3"/>
    </g>
    <g id="Grupo_60847" data-name="Grupo 60847" transform="translate(1546.536 1263.376)">
      <path id="Trazado_118314" data-name="Trazado 118314" d="M3082.984,2328.748c0,1.375-37.731,2.49-49.947,2.49s-22.117-1.115-22.117-2.49,9.9-2.49,22.117-2.49S3082.984,2327.373,3082.984,2328.748Z" transform="translate(-3010.921 -2326.258)" fill="#e3dbd3"/>
    </g>
    <g id="Grupo_60863" data-name="Grupo 60863" transform="translate(1392.462 1152.472)">
      <g id="Grupo_60848" data-name="Grupo 60848" transform="translate(45.826 20.099)">
        <path id="Trazado_118315" data-name="Trazado 118315" d="M2439.294,1846.532c-.068.943-.754,9.874-.754,10.188s5.031.99,5.22.55,1.006-9.608,1.069-10.425S2439.345,1845.839,2439.294,1846.532Z" transform="translate(-2438.54 -1846.107)" fill="#3f3f40"/>
      </g>
      <g id="Grupo_60849" data-name="Grupo 60849" transform="translate(45.918 20.691)">
        <path id="Trazado_118316" data-name="Trazado 118316" d="M2439.7,1849.62c-.061.844-.676,8.839-.676,9.121s4.5.886,4.673.492.9-8.6.957-9.332S2439.75,1849,2439.7,1849.62Z" transform="translate(-2439.029 -1849.24)" fill="#f7f5f3"/>
      </g>
      <g id="Grupo_60858" data-name="Grupo 60858" transform="translate(0 0)">
        <g id="Grupo_60857" data-name="Grupo 60857">
          <g id="Grupo_60850" data-name="Grupo 60850" transform="translate(20.103 124.534)">
            <path id="Trazado_118317" data-name="Trazado 118317" d="M2310.144,2398.338s7.5,2.943,8.717,3.5a1.022,1.022,0,0,1,0,1.989h-16c-.542,0-.4-3.467.3-4.581S2310.144,2398.338,2310.144,2398.338Z" transform="translate(-2302.528 -2398.323)" fill="#323233"/>
          </g>
          <g id="Grupo_60851" data-name="Grupo 60851" transform="translate(0.131 124.534)">
            <path id="Trazado_118318" data-name="Trazado 118318" d="M2203.209,2398.338s6.959,2.943,8.174,3.5a1.022,1.022,0,0,1,0,1.989h-14.126c-.542,0-.4-3.467.3-4.581S2203.209,2398.338,2203.209,2398.338Z" transform="translate(-2196.925 -2398.323)" fill="#323233"/>
          </g>
          <g id="Grupo_60852" data-name="Grupo 60852" transform="translate(0 61.334)">
            <path id="Trazado_118319" data-name="Trazado 118319" d="M2222.059,2065.436s2.2,60.272,2.291,61.448-7.954,2.17-8.226.9-5.216-46.006-5.216-46.006-7.056,44.9-7.237,45.984-7.439,1.2-7.439.116,3.485-63.734,3.485-63.734Z" transform="translate(-2196.231 -2064.148)" fill="#3f3f40"/>
          </g>
          <g id="Grupo_60853" data-name="Grupo 60853" transform="translate(9.927 1.733)">
            <path id="Trazado_118320" data-name="Trazado 118320" d="M2256.77,1767.549l.04-3.357s1.3.317,1.811.021,3.043-6.377,1.556-11.375-9.227-4.523-10.427-1.935-1.951,8.312,1.282,12.425l-.047,4.039S2252.39,1768.893,2256.77,1767.549Z" transform="translate(-2248.721 -1748.999)" fill="#ffa47a"/>
          </g>
          <g id="Grupo_60854" data-name="Grupo 60854" transform="translate(8.632)">
            <path id="Trazado_118321" data-name="Trazado 118321" d="M2254.622,1745.406c1.113-.811.775-3.17.005-3.934a3.363,3.363,0,0,0-3.188-1.235c-2,.052-3.125-.49-4.409-.392a10.215,10.215,0,0,0-3.487,1.317c-1.29.588-1.682,3.245-1.671,4.092a28.581,28.581,0,0,0,3.1,10.906c.447.458,2.359-.12,2.888-.193s1.438-.363,1.67-.813a3.608,3.608,0,0,0,.439-2.032,21.228,21.228,0,0,1-.533-2.883c-.065-.868.323-1.685,1.154-1.713.651-.022,1.044,1.031,1.384,1.035s1.2-2.589,1.242-2.89S2254.622,1745.406,2254.622,1745.406Z" transform="translate(-2241.872 -1739.833)" fill="#453428"/>
          </g>
          <g id="Grupo_60855" data-name="Grupo 60855" transform="translate(1.856 18.977)">
            <path id="Trazado_118322" data-name="Trazado 118322" d="M2222.179,1840.178a23.9,23.9,0,0,1,7.554,4.352c2.95,2.792,4.871,9.049,8.395,14.489.668,1.032,10.252-4.978,10.817-5.22.881-.377,3.421,2.433,3.145,2.893-.755,1.258-14.186,13.852-16.518,12.554-1.4-.781-4.76-6.046-5.027-6.365,0,0,.32,19.587.116,21.529s-23.611,1.3-24.356-.651-.034-33.472,4-39.421c2.022-2.984,6.088-4,6.088-4S2217.658,1841.525,2222.179,1840.178Z" transform="translate(-2206.044 -1840.178)" fill="#3b95e3"/>
          </g>
          <g id="Grupo_60856" data-name="Grupo 60856" transform="translate(22.611 35.357)">
            <path id="Trazado_118323" data-name="Trazado 118323" d="M2319.536,1933.373a.259.259,0,0,1-.223-.127c-1.452-2.452-3.468-6.032-3.489-6.068a.259.259,0,0,1,.452-.254c.02.036,2.034,3.611,3.483,6.058a.26.26,0,0,1-.223.392Z" transform="translate(-2315.791 -1926.791)" fill="#1b4366"/>
          </g>
        </g>
      </g>
      <g id="Grupo_60859" data-name="Grupo 60859" transform="translate(45.356 24.748)">
        <path id="Trazado_118324" data-name="Trazado 118324" d="M2436.056,1878.615c.91-.825,3.363-3.215,4.18-3.969s1.887-3.648,2.453-3.9.629.5.629.5a1.785,1.785,0,0,1,.377,1.069c0,.629-.314,3.773-1.195,4.968a29.71,29.71,0,0,1-4.072,3.576Z" transform="translate(-2436.056 -1870.695)" fill="#ffa47a"/>
      </g>
      <g id="Grupo_60860" data-name="Grupo 60860" transform="translate(31.34 29.364)">
        <path id="Trazado_118325" data-name="Trazado 118325" d="M2361.945,1900.651c1.267-.8,8.475-5.378,8.894-5.546s2.552,2.969,2.216,3.43-7.631,6.212-7.631,6.212Z" transform="translate(-2361.945 -1895.099)" fill="#3b95e3"/>
      </g>
      <g id="Grupo_60861" data-name="Grupo 60861" transform="translate(31.753 34.26)">
        <path id="Trazado_118326" data-name="Trazado 118326" d="M2366.539,1924.877c-.326,0-.4-.124-.446-.194-.361-.586-1.651-2.816-1.931-3.306a.259.259,0,0,1,.45-.258c.274.479,1.513,2.62,1.9,3.254.456.093,2.84-.938,4.833-1.973a.26.26,0,0,1,.24.461C2368.411,1924.508,2367.1,1924.877,2366.539,1924.877Z" transform="translate(-2364.128 -1920.989)" fill="#1b4366"/>
      </g>
      <g id="Grupo_60862" data-name="Grupo 60862" transform="translate(40.675 25.005)">
        <path id="Trazado_118327" data-name="Trazado 118327" d="M2411.307,1876.685a33.271,33.271,0,0,1,6.429-4.585c.587-.209.545.335.209.881a9.529,9.529,0,0,1-1.247,1.389l-.149,2.871-3.686,1.7Z" transform="translate(-2411.307 -1872.053)" fill="#ffa47a"/>
      </g>
    </g>
    <g id="Grupo_60885" data-name="Grupo 60885" transform="translate(1546.167 1140.227)">
      <g id="Grupo_60874" data-name="Grupo 60874" transform="translate(0 0)">
        <g id="Grupo_60864" data-name="Grupo 60864" transform="translate(14.636 8.077)">
          <path id="Trazado_118328" data-name="Trazado 118328" d="M3086.357,1725.425c.55-.58,4.826-4.9,5.183-5.234a31.509,31.509,0,0,1,3.48-2.39c.34-.1,1.048,4.465,1.258,5.932s-6.247,5.165-6.247,5.165Z" transform="translate(-3086.357 -1717.799)" fill="#ffb687"/>
        </g>
        <g id="Grupo_60865" data-name="Grupo 60865" transform="translate(21.668 9.4)">
          <path id="Trazado_118329" data-name="Trazado 118329" d="M3124.511,1724.79c-.326,2.243-1.161,7.526-.932,7.9a7.387,7.387,0,0,0,3.227.839c.147-.168,1.174-6.163,1.174-6.163Z" transform="translate(-3123.539 -1724.79)" fill="#3f3f40"/>
        </g>
        <g id="Grupo_60866" data-name="Grupo 60866" transform="translate(28.698)">
          <path id="Trazado_118330" data-name="Trazado 118330" d="M3172.53,1678.735c-.7-.536-4.385-2.779-4.868-3.094s-4.444-1.069-6.541,0,4.576,5.2,4.919,5.262,3.749.9,3.749.9Z" transform="translate(-3160.715 -1675.089)" fill="#ffb687"/>
        </g>
        <g id="Grupo_60867" data-name="Grupo 60867" transform="translate(11.505 120.192)">
          <path id="Trazado_118331" data-name="Trazado 118331" d="M3077.579,2310.638s-5.874,2.809-7.032,3.338a.975.975,0,0,0,0,1.9h13.982c.518,0,.385-3.308-.281-4.371S3077.579,2310.638,3077.579,2310.638Z" transform="translate(-3069.8 -2310.624)" fill="#323233"/>
        </g>
        <g id="Grupo_60868" data-name="Grupo 60868" transform="translate(31.065 120.192)">
          <path id="Trazado_118332" data-name="Trazado 118332" d="M3181.774,2310.638s-6.641,2.809-7.8,3.338a.975.975,0,0,0,0,1.9h13.479c.518,0,.385-3.308-.282-4.371S3181.774,2310.638,3181.774,2310.638Z" transform="translate(-3173.228 -2310.624)" fill="#323233"/>
        </g>
        <g id="Grupo_60869" data-name="Grupo 60869" transform="translate(18.901 59.882)">
          <path id="Trazado_118333" data-name="Trazado 118333" d="M3111.646,1992.24s-2.651,58.228-2.738,59.349,7.591,2.07,7.849.863,4.87-43.564,4.87-43.564,5.983,42.9,6.156,43.936,7.956,1.788,7.956.753-3.046-61.856-3.046-61.856Z" transform="translate(-3108.908 -1991.721)" fill="#3f3f40"/>
        </g>
        <g id="Grupo_60870" data-name="Grupo 60870" transform="translate(22.639 2.384)">
          <path id="Trazado_118334" data-name="Trazado 118334" d="M3132.921,1705.507l-.2-3.2s-1.228.365-1.724.107-3.206-5.932-2.027-10.766,8.577-4.752,9.845-2.342,2.256,7.828-.628,11.9l.239,3.846S3137.159,1706.578,3132.921,1705.507Z" transform="translate(-3128.676 -1687.696)" fill="#ffb687"/>
        </g>
        <g id="Grupo_60871" data-name="Grupo 60871" transform="translate(21.707 0.644)">
          <path id="Trazado_118335" data-name="Trazado 118335" d="M3124.887,1684.581a1.231,1.231,0,0,1-.7-1.5c.124-.332-.886-1.316-.189-2.08a2.555,2.555,0,0,1,1.47-.846s.386-1,2.295-1.047,1.727-.648,2.955-.616,2.7.624,2.912,1.188a5.43,5.43,0,0,1,2.742.916c.681.545.4,2.039.748,2.836.321.743.052,1.476.217,2.367a8.225,8.225,0,0,1-.4,3.032c-.253,1.155-.406,2.572-.811,3.03s-1.05,2.152-1.935,1.885-.3-4.586-.064-5.528c.228-.9-.5-1.954-1.1-1.507-.5.37-.558,1.516-.881,1.536-.159.01-.168-1.857-1.086-1.76-.719.076-.869-1.612-1.012-1.576C3126.725,1685.751,3124.887,1684.581,3124.887,1684.581Z" transform="translate(-3123.746 -1678.494)" fill="#ba5d27"/>
        </g>
        <g id="Grupo_60872" data-name="Grupo 60872" transform="translate(0 15.518)">
          <path id="Trazado_118336" data-name="Trazado 118336" d="M3035.833,1761.531a25.8,25.8,0,0,0-6.4,2.007,90.339,90.339,0,0,0-8.6,4.78s6.019-6.022,6.586-7.084c.276-.517-3.849-4.354-4.327-4.077-1.962,1.141-14.761,14.4-14.1,16.581,1.478,4.905,16.437,2.958,19.6,2.421,0,0,.922,25.135,1.21,26.975s21.734,1.072,22.351-.825.5-14.209.422-15.5c-.235-3.788.166-21.253-2.361-23.1-2.169-1.587-8.862-2.337-8.862-2.337S3040.207,1762.6,3035.833,1761.531Z" transform="translate(-3008.968 -1757.142)" fill="#e35c39"/>
        </g>
        <g id="Grupo_60873" data-name="Grupo 60873" transform="translate(34.891 3.393)">
          <path id="Trazado_118337" data-name="Trazado 118337" d="M3193.458,1709.748c4.361.465,10.841-4.185,10.841-4.185s-7.4-8.142-7.99-8.645,2.683-4.276,3.605-3.857,16.938,10.985,15.081,13.985c-.829,1.339-11.938,12.012-13.179,14.7Z" transform="translate(-3193.458 -1693.027)" fill="#e35c39"/>
        </g>
      </g>
      <g id="Grupo_60884" data-name="Grupo 60884" transform="translate(23.088 8.726)">
        <g id="Grupo_60875" data-name="Grupo 60875" transform="translate(0.324 1.386)">
          <path id="Trazado_118338" data-name="Trazado 118338" d="M3133.577,1729.144c0,.325-.183.589-.409.589s-.409-.264-.409-.589.183-.59.409-.59S3133.577,1728.818,3133.577,1729.144Z" transform="translate(-3132.758 -1728.554)" fill="#292624"/>
        </g>
        <g id="Grupo_60876" data-name="Grupo 60876" transform="translate(3.303 1.386)">
          <path id="Trazado_118339" data-name="Trazado 118339" d="M3149.333,1729.144c0,.325-.183.589-.409.589s-.409-.264-.409-.589.183-.59.409-.59S3149.333,1728.818,3149.333,1729.144Z" transform="translate(-3148.514 -1728.554)" fill="#292624"/>
        </g>
        <g id="Grupo_60877" data-name="Grupo 60877" transform="translate(1.437 5.724)">
          <path id="Trazado_118340" data-name="Trazado 118340" d="M3140.741,1751.641c0,.2-.469.134-1.048.134s-1.048.064-1.048-.134.469-.139,1.048-.139S3140.741,1751.442,3140.741,1751.641Z" transform="translate(-3138.645 -1751.493)" fill="#ff8359"/>
        </g>
        <g id="Grupo_60879" data-name="Grupo 60879" transform="translate(1.716 1.833)">
          <g id="Grupo_60878" data-name="Grupo 60878">
            <path id="Trazado_118341" data-name="Trazado 118341" d="M3140.466,1731.06a4.572,4.572,0,0,1-.206,1.34,1.419,1.419,0,0,0-.125.681.522.522,0,0,0,.519.32c.19.007.19-.288,0-.3a.3.3,0,0,1-.217-.073c-.056-.071,0-.187.025-.263q.082-.274.147-.553a4.338,4.338,0,0,0,.151-1.158c-.008-.189-.3-.19-.3,0Z" transform="translate(-3140.12 -1730.918)" fill="#ff8359"/>
          </g>
        </g>
        <g id="Grupo_60881" data-name="Grupo 60881" transform="translate(0 0.024)">
          <g id="Grupo_60880" data-name="Grupo 60880">
            <path id="Trazado_118342" data-name="Trazado 118342" d="M3131.49,1722.137a1.35,1.35,0,0,1,.252-.141l-.071.03a1.346,1.346,0,0,1,.326-.089.294.294,0,0,0,.177-.136.3.3,0,0,0,.03-.227.3.3,0,0,0-.136-.177l-.071-.03a.3.3,0,0,0-.157,0,1.329,1.329,0,0,0-.308.082,1.636,1.636,0,0,0-.341.178.318.318,0,0,0-.136.177.3.3,0,0,0,.03.228.3.3,0,0,0,.176.136.292.292,0,0,0,.228-.03Z" transform="translate(-3131.047 -1721.357)" fill="#ba5d27"/>
          </g>
        </g>
        <g id="Grupo_60883" data-name="Grupo 60883" transform="translate(3.232)">
          <g id="Grupo_60882" data-name="Grupo 60882">
            <path id="Trazado_118343" data-name="Trazado 118343" d="M3148.351,1721.805a1.784,1.784,0,0,1,.374.111l-.071-.03a1.789,1.789,0,0,1,.386.227l-.06-.046c.042.033.082.067.121.1a.3.3,0,1,0,.417-.418,2.028,2.028,0,0,0-1.011-.517.318.318,0,0,0-.228.03.3.3,0,0,0,.071.54Z" transform="translate(-3148.137 -1721.228)" fill="#ba5d27"/>
          </g>
        </g>
      </g>
    </g>
  </g>
</svg>
