<svg xmlns="http://www.w3.org/2000/svg" width="591.186" height="259.41" viewBox="0 0 591.186 259.41">
  <g id="Grupo_60168" data-name="Grupo 60168" transform="translate(-308.172 -60.529)">
    <g id="Grupo_60152" data-name="Grupo 60152" transform="translate(308.172 60.529)">
      <path id="Trazado_116754" data-name="Trazado 116754" d="M780.518,331.809q19.867-71.336,8.473-142.672a55.591,55.591,0,0,0-45.347-46.049c-48.815-8.468-77.629-10.171-140.846-3.3-17.018,60.66-62.325,131.355-45.431,192.016Z" transform="translate(-385.899 -85.777)" fill="#96aaed"/>
      <path id="Trazado_116755" data-name="Trazado 116755" d="M788.991,189.137a55.591,55.591,0,0,0-45.347-46.049c-48.815-8.468-77.629-10.171-140.846-3.3-16.074,57.292-57.381,123.535-47.685,181.82,121.624,20.268,196.6-63.145,234.854-125.95Q789.513,192.4,788.991,189.137Z" transform="translate(-385.899 -85.777)" fill="#d5eaf9" style="mix-blend-mode: screen;isolation: isolate"/>
      <rect id="Rectángulo_6272" data-name="Rectángulo 6272" width="92.942" height="61.214" transform="translate(223.535)" fill="#1d6294"/>
      <rect id="Rectángulo_6273" data-name="Rectángulo 6273" width="54.461" height="61.214" transform="translate(262.016)" fill="#96aaed"/>
      <path id="Trazado_116756" data-name="Trazado 116756" d="M683.534,331.124a598.588,598.588,0,0,0,6.2-128.492c-2.356-39.4-35.934-69.847-75.631-68.754q-.642.017-1.281.04a65.889,65.889,0,0,0-63.346,61.016,598.213,598.213,0,0,0,5.691,136.191Z" transform="translate(-384.078 -85.243)" fill="#8c8dc6"/>
      <path id="Trazado_116757" data-name="Trazado 116757" d="M672.107,333.585a587.445,587.445,0,0,0,6.012-125.343,71.48,71.48,0,0,0-73.327-67.069q-.621.017-1.242.038c-32.62,1.123-59.064,26.967-61.418,59.521a587.149,587.149,0,0,0,5.518,132.853Z" transform="translate(-381.767 -87.553)" fill="#b4bbf3"/>
      <ellipse id="Elipse_4207" data-name="Elipse 4207" cx="46.754" cy="78.433" rx="46.754" ry="78.433" transform="translate(177.701 83.58)" fill="#2775a1"/>
      <g id="Grupo_60142" data-name="Grupo 60142" transform="translate(168.515 74.359)" opacity="0.25">
        <path id="Trazado_116758" data-name="Trazado 116758" d="M607.892,343.015C562.91,339.5,542.43,252.033,572.907,200.9c20.533-34.448,55.292-34.059,75.594,0,30.47,51.117,10,138.595-34.986,142.111h14.1c38.368-18.046,52.412-96.409,24.047-143.993-22.052-36.995-60.27-36.3-81.91,0-28.321,47.514-14.373,125.938,24.033,143.993Z" transform="translate(-554.764 -171.535)" fill="#fff"/>
      </g>
      <ellipse id="Elipse_4208" data-name="Elipse 4208" cx="39.952" cy="67.976" rx="39.952" ry="67.976" transform="translate(183.583 94.038)" fill="#1d6294"/>
      <path id="Trazado_116759" data-name="Trazado 116759" d="M600.694,234.078c22.065,0,39.952,30.433,39.952,67.975a110.557,110.557,0,0,1-2.9,25.462c12.127-11.669,20.312-33.812,20.312-59.208,0-37.542-17.887-67.976-39.952-67.976-16.773,0-31.131,17.587-37.054,42.514C586.854,237.263,593.555,234.078,600.694,234.078Z" transform="translate(-394.573 -106.293)" fill="#164a6f"/>
      <path id="Trazado_116760" data-name="Trazado 116760" d="M577.3,310.874l79.382-3.83q.053-1.1.086-2.213l-79.627,3.842Q577.215,309.78,577.3,310.874Z" transform="translate(-393.336 -139.381)" fill="#32a4ea"/>
      <g id="Grupo_60146" data-name="Grupo 60146" transform="translate(0 162.33)">
        <path id="Trazado_116761" data-name="Trazado 116761" d="M560.6,398.053H360.592l-9.559-52.819H572.362Z" transform="translate(-321.743 -314.503)" fill="#164a6f"/>
        <path id="Trazado_116762" data-name="Trazado 116762" d="M583.307,398.053H427.946l-7.511-52.819h173.9Z" transform="translate(-343.717 -314.503)" fill="#f1f9f4"/>
        <path id="Trazado_116763" data-name="Trazado 116763" d="M431.143,398.053H586.5l11.03-52.82H564.316c-38.137,16.761-93.875,39.55-133.783,48.532Z" transform="translate(-346.915 -314.502)" fill="#a5c0d4"/>
        <rect id="Rectángulo_6274" data-name="Rectángulo 6274" width="255.95" height="8.088" transform="translate(0 28.035)" fill="#8fbed1"/>
        <g id="Grupo_60145" data-name="Grupo 60145" transform="translate(40.204)">
          <path id="Trazado_116764" data-name="Trazado 116764" d="M382.585,327.963H489.669l1.205-16.158s-81.277,8.441-99.124,5.547-11.576-14.41-15.375-14.41h0a3.084,3.084,0,0,0-3.018,3.718l4.466,21.3Z" transform="translate(-368.994 -301.112)" fill="#25265d"/>
          <g id="Grupo_60144" data-name="Grupo 60144" transform="translate(182.068 7.121)">
            <path id="Trazado_116765" data-name="Trazado 116765" d="M652.653,319.921s-13.046-.2-17.836-1.13c-1.854-.36-.111.6-.793,2.231a8.3,8.3,0,0,0-.433,4.79c.953,5.187,6.576,5.363,6.576,5.363l17.153-1.749Z" transform="translate(-633.428 -313.227)" fill="#faa284"/>
            <path id="Trazado_116766" data-name="Trazado 116766" d="M665.351,332.346l-4.667-9.5s-3.472-.044-7.273-.288c-.118,2.481,1.239,5.6,5.332,8.9q.912.738,1.808,1.378Z" transform="translate(-639.753 -314.443)" fill="#fcba7e"/>
            <path id="Trazado_116767" data-name="Trazado 116767" d="M678.216,332.154c3.145-1.143,7.529-11.517,5.908-14.155a16.45,16.45,0,0,0-7.148-4.659c-4.479-1.406-7.719-2.637-7.719-2.637L668.3,312.2s-1.236-.235-2.8-.415a13.562,13.562,0,0,0,.262,5.749,9.56,9.56,0,0,1-1.673-5.885,10.407,10.407,0,0,0-4.18.286c-3.241,1.406-5.861,7.341,1.43,14.066S675.071,333.3,678.216,332.154Z" transform="translate(-640.787 -310.69)" fill="#fcba7e"/>
            <path id="Trazado_116768" data-name="Trazado 116768" d="M683.7,331.971c-.48,2.551-6.007,2.289-6.007,2.289s-1.147,1.49-5.145.437-10.2-7.26-12.106-7.26a8.086,8.086,0,0,1,6.387-.3c3.9,1.229,6.194,1.229,6.194-.087s5.245,1.054,5.245,1.054a8.291,8.291,0,0,0,1.522-7.3c-1.141-4.309.617-5.757,1.528-4.921,0,0-.1-3.78,3.237-5.189C685.917,310.123,684.177,329.421,683.7,331.971Z" transform="translate(-641.982 -310.685)" fill="#0b1742"/>
            <path id="Trazado_116769" data-name="Trazado 116769" d="M674.052,333.3s3.287.428,3.287,1.385-.357,1.846-2.216,1.616-3.931-1.22-3.073-2.472A1.441,1.441,0,0,1,674.052,333.3Z" transform="translate(-645.594 -317.778)" fill="#faa284"/>
            <path id="Trazado_116770" data-name="Trazado 116770" d="M695.47,344.466a1.476,1.476,0,0,0,.858-.714c.5-1.091-.581-2.548-1.331-3.508l.211-.163a7.435,7.435,0,0,1,1.909,2.292,2.294,2.294,0,0,1-1.238,3.206Z" transform="translate(-652.922 -319.992)" fill="#0b1742"/>
            <path id="Trazado_116771" data-name="Trazado 116771" d="M681.526,319.579c-.809,0-1.465-.329-1.465-.736s.656-.737,1.465-.737,1.466.33,1.466.737S682.335,319.579,681.526,319.579Z" transform="translate(-648.193 -313.034)" fill="#2846a6"/>
            <g id="Grupo_60143" data-name="Grupo 60143" transform="translate(35.697 5.029)">
              <path id="Trazado_116772" data-name="Trazado 116772" d="M685.665,321.39a5.136,5.136,0,0,0,.558-3.26l.563-.086a5.531,5.531,0,0,1-.632,3.619Z" transform="translate(-685.665 -318.044)" fill="#2846a6"/>
            </g>
            <path id="Trazado_116773" data-name="Trazado 116773" d="M675.775,334.145s1.115.558.956,1.057-2.4.612-3.34-.275S673.993,333.293,675.775,334.145Z" transform="translate(-645.991 -317.994)" fill="#faa284"/>
          </g>
          <path id="Trazado_116774" data-name="Trazado 116774" d="M537.15,303.909v24.118h81.519s-.965-15.918-20.259-24.118S537.15,303.909,537.15,303.909Z" transform="translate(-420.876 -300.264)" fill="#f0a77d"/>
          <path id="Trazado_116775" data-name="Trazado 116775" d="M483.277,329.3V308.072s-76.5,11.384-95.145,11.637c-5.049.068-8.584.508-10.551-1.206-5.075-4.425-4.859-14.23-7.6-14.23h0a2.98,2.98,0,0,0-2.893,3.69l5.3,21.606Z" transform="translate(-367.003 -301.533)" fill="#2775a1"/>
          <path id="Trazado_116776" data-name="Trazado 116776" d="M532.139,335.6c-7.236,1.266-13.2,0-17.726,0s-10.853,4.342-10.853,4.342H568.4c-.149-3.369-.422-6.737-.551-10.107C551.825,332.2,535.714,334.97,532.139,335.6Z" transform="translate(-410.24 -309.625)" fill="#fcba7e"/>
          <path id="Trazado_116777" data-name="Trazado 116777" d="M630.516,322.421c-2.654-1.175-18.97.823-35.38,3.248.129,3.37.4,6.738.551,10.107h41.341S635.763,324.742,630.516,322.421Z" transform="translate(-439.236 -307.17)" fill="#f1d3c2"/>
        </g>
        <rect id="Rectángulo_6275" data-name="Rectángulo 6275" width="210.361" height="8.088" transform="translate(45.589 28.035)" fill="#d5eaf9"/>
      </g>
      <g id="Grupo_60147" data-name="Grupo 60147" transform="translate(290.34 50.41)">
        <path id="Trazado_116778" data-name="Trazado 116778" d="M867.574,159.935h0Z" transform="translate(-775.632 -143.913)" fill="#757597"/>
        <path id="Trazado_116779" data-name="Trazado 116779" d="M867.57,159.932Z" transform="translate(-775.628 -143.91)" fill="#757597"/>
        <path id="Trazado_116780" data-name="Trazado 116780" d="M850.983,225.191c-2.1-33.777-3.9-51.175-19.572-67.108L828.3,155.17l0,0-3.323-2.662c-12.079-8.771-21.448-11.4-65.806-16.024v2.1c12.469,1.35,25.441,3.368,40.8,6.025,9.811,1.9,15.247,4.775,22.249,9.332a60.091,60.091,0,0,1,7.188,6.116A54.862,54.862,0,0,1,841.6,179.287c4.706,11.906,14.982,76.363-5.095,151.776l-103.469,1.048c118.544,1.2-79.224-.577,105.074,1.059C839.872,324.959,853.188,287.664,850.983,225.191Z" transform="translate(-733.033 -136.489)" fill="#757597"/>
        <path id="Trazado_116781" data-name="Trazado 116781" d="M872.43,163.824Z" transform="translate(-777.168 -145.143)" fill="#757597"/>
      </g>
      <rect id="Rectángulo_6276" data-name="Rectángulo 6276" width="57.437" height="11.398" transform="translate(281.298 157.339)" fill="#164a6f"/>
      <rect id="Rectángulo_6277" data-name="Rectángulo 6277" width="53.813" height="16.912" transform="translate(284.921 168.737)" fill="#164a6f"/>
      <rect id="Rectángulo_6278" data-name="Rectángulo 6278" width="49.333" height="11.398" transform="translate(281.298 157.339)" fill="#c3c9f5"/>
      <rect id="Rectángulo_6279" data-name="Rectángulo 6279" width="46.221" height="16.912" transform="translate(284.41 168.737)" fill="#608fb2"/>
      <rect id="Rectángulo_6280" data-name="Rectángulo 6280" width="1.901" height="5.882" transform="translate(284.41 160.28)" fill="#cce5f8"/>
      <path id="Rectángulo_6281" data-name="Rectángulo 6281" d="M2.554,0h0A2.554,2.554,0,0,1,5.108,2.554V9.641a0,0,0,0,1,0,0H0a0,0,0,0,1,0,0V2.554A2.554,2.554,0,0,1,2.554,0Z" transform="translate(306.72 171.35)" fill="#104e3d"/>
      <rect id="Rectángulo_6282" data-name="Rectángulo 6282" width="1.501" height="2.573" transform="translate(320.351 170.667)" fill="#104e3d"/>
      <path id="Trazado_116782" data-name="Trazado 116782" d="M721.132,294.291h48v-1.33H719.8v11.4h1.33Z" transform="translate(-438.504 -135.622)" fill="#f3f4fd"/>
      <g id="Grupo_60148" data-name="Grupo 60148" transform="translate(234.417 190.912)">
        <path id="Trazado_116783" data-name="Trazado 116783" d="M682.708,392.36c-21.7-.413-33.919-20.653-31.109-42.822l1.459.184c-2.742,21.634,9.282,41.172,30.222,41.172,22.848,0,26.4-27.809,27.073-48.805l1.47.048C711.062,365.818,706.441,392.861,682.708,392.36Z" transform="translate(-651.2 -342.089)" fill="#353d44"/>
      </g>
      <g id="Grupo_60149" data-name="Grupo 60149" transform="translate(237.262 152.129)">
        <path id="Trazado_116784" data-name="Trazado 116784" d="M664.9,354.608c-8.92-7.357-9.517-22.29-9.537-22.922l1.47-.049c0,.148.6,14.911,9.007,21.841,3.733,3.077,8.5,4.179,14.162,3.275,22.345-3.565,10.314-60.848,18.98-66.811,8.054-5.539,57.193-7.482,58.582,2.235,1.22,8.545.057,43.265.007,44.738l-1.47-.05c.011-.359,1.209-36.062.007-44.48-1.085-7.585-48.3-6.731-56.292-1.231-2.727,1.876-3,11.544-3.289,21.779-.539,19.1-1.21,42.865-16.294,45.273C674.657,359.1,669.309,358.245,664.9,354.608Z" transform="translate(-655.363 -285.337)" fill="#353d44"/>
      </g>
      <g id="Grupo_60150" data-name="Grupo 60150" transform="translate(289.137 170.667)">
        <path id="Rectángulo_6283" data-name="Rectángulo 6283" d="M6.132,0h0a6.132,6.132,0,0,1,6.132,6.132v9.65a1.628,1.628,0,0,1-1.628,1.628H1.628A1.628,1.628,0,0,1,0,15.782V6.132A6.132,6.132,0,0,1,6.132,0Z" fill="#6a7781"/>
        <path id="Rectángulo_6284" data-name="Rectángulo 6284" d="M5.168,0h0a5.168,5.168,0,0,1,5.168,5.168V16.039a1.372,1.372,0,0,1-1.372,1.372H1.373A1.373,1.373,0,0,1,0,16.038V5.168A5.168,5.168,0,0,1,5.168,0Z" fill="#cce5f8"/>
        <rect id="Rectángulo_6285" data-name="Rectángulo 6285" width="4.631" height="4.574" transform="translate(3.388 17.411)" fill="#6a7781"/>
      </g>
      <g id="Grupo_60151" data-name="Grupo 60151" transform="translate(332.602 190.244)">
        <path id="Rectángulo_6286" data-name="Rectángulo 6286" d="M6.132,0h0a6.132,6.132,0,0,1,6.132,6.132v9.65a1.629,1.629,0,0,1-1.629,1.629H1.628A1.628,1.628,0,0,1,0,15.783V6.132A6.132,6.132,0,0,1,6.132,0Z" transform="translate(12.265 21.986) rotate(180)" fill="#6a7781"/>
        <path id="Rectángulo_6287" data-name="Rectángulo 6287" d="M5.168,0h0a5.168,5.168,0,0,1,5.168,5.168V16.039a1.373,1.373,0,0,1-1.373,1.373H1.372A1.372,1.372,0,0,1,0,16.039V5.168A5.168,5.168,0,0,1,5.168,0Z" transform="translate(12.265 21.986) rotate(180)" fill="#fbfeff"/>
        <rect id="Rectángulo_6288" data-name="Rectángulo 6288" width="4.631" height="4.574" transform="translate(8.877 4.574) rotate(180)" fill="#6a7781"/>
      </g>
      <path id="Trazado_116785" data-name="Trazado 116785" d="M735.511,299.915a1.959,1.959,0,1,1-1.959-1.959A1.959,1.959,0,0,1,735.511,299.915Z" transform="translate(-442.237 -137.203)" fill="#d4145a"/>
      <path id="Trazado_116786" data-name="Trazado 116786" d="M746.981,300.305a1.115,1.115,0,1,1-1.115-1.115A1.114,1.114,0,0,1,746.981,300.305Z" transform="translate(-446.404 -137.594)" fill="#46ff3b"/>
      <path id="Trazado_116787" data-name="Trazado 116787" d="M751.652,300.305a1.115,1.115,0,1,1-1.115-1.115A1.114,1.114,0,0,1,751.652,300.305Z" transform="translate(-447.883 -137.594)" fill="#d4145a"/>
      <path id="Trazado_116788" data-name="Trazado 116788" d="M766,300.784a1.115,1.115,0,1,1-1.115-1.115A1.115,1.115,0,0,1,766,300.784Z" transform="translate(-452.425 -137.746)" fill="#104e3d"/>
      <path id="Trazado_116789" data-name="Trazado 116789" d="M770.18,300.784a1.115,1.115,0,1,1-1.115-1.115A1.116,1.116,0,0,1,770.18,300.784Z" transform="translate(-453.749 -137.746)" fill="#104e3d"/>
      <path id="Trazado_116790" data-name="Trazado 116790" d="M774.7,300.784a1.115,1.115,0,1,1-1.115-1.115A1.115,1.115,0,0,1,774.7,300.784Z" transform="translate(-455.179 -137.746)" fill="#104e3d"/>
      <path id="Trazado_116791" data-name="Trazado 116791" d="M779.215,300.784a1.115,1.115,0,1,1-1.115-1.115A1.115,1.115,0,0,1,779.215,300.784Z" transform="translate(-456.609 -137.746)" fill="#104e3d"/>
      <path id="Trazado_116792" data-name="Trazado 116792" d="M734.255,324.622l-.156,3.921c-.324-2.386-1.421-10.963-.253-13.042,1.247-2.047,4.364-1.516,3.922-.238a.731.731,0,0,1-.793.485C734.4,315.383,734.523,317.775,734.255,324.622Z" transform="translate(-442.784 -142.325)" fill="#e2fff4"/>
      <path id="Trazado_116793" data-name="Trazado 116793" d="M691.454,309.335a105.149,105.149,0,0,1-4.307,24.572c2.818,0,5.172,1.384,7.827,1.864a122.048,122.048,0,0,0,4.268-27.347A31.064,31.064,0,0,0,691.454,309.335Z" transform="translate(-428.165 -140.518)" fill="#2775a1"/>
    </g>
    <g id="Grupo_60155" data-name="Grupo 60155" transform="translate(669.893 163.936)">
      <path id="Trazado_116794" data-name="Trazado 116794" d="M930.4,412.44H897.718l-3.827-31.42h39.7Z" transform="translate(-855.345 -266.91)" fill="#b471b9"/>
      <path id="Trazado_116795" data-name="Trazado 116795" d="M905.71,381.02H893.891l3.827,31.42H930.4l.709-6.992A35.777,35.777,0,0,1,905.71,381.02Z" transform="translate(-855.345 -266.91)" fill="#87558b"/>
      <path id="Trazado_116796" data-name="Trazado 116796" d="M952.131,326l7.019-6.308c3.03-9.582,4.536-20.3,2.2-30.857a87.982,87.982,0,0,0-16.062,5.059l-3.782,7.919-1.8-5.205a34.845,34.845,0,0,0-10.309,8.151l2.142,10.785-5.086-5.783a15.493,15.493,0,0,0-.875,3.338c-2.6,17.869-2.221,40.016-2.221,40.016h17.869A113.719,113.719,0,0,0,955.9,328.373Z" transform="translate(-864.667 -237.723)" fill="#598891"/>
      <g id="Grupo_60153" data-name="Grupo 60153" transform="translate(59.953 51.755)">
        <path id="Trazado_116797" data-name="Trazado 116797" d="M942.3,345.994c-4.334,2.149-7.428,2.167-8.543,2.078,5.555-7.261,10.369-16.463,14.1-24.753q.4.018.793.018a17.687,17.687,0,0,0,11.394-4.311q.152-.5.3-1a17.324,17.324,0,0,1-12.236,4.741c1.087-2.432,2.117-4.864,3.112-7.324,4.087-.53,8.12-3.011,10.924-5.138q.075-.42.143-.842c-2.7,2.108-6.765,4.743-10.823,5.375,5.034-12.54,8.2-22.672,8.23-22.784l1.005-2.274-1.418,1.58c-.055.195-2.659,8.408-6.611,18.781-2.1-4.458-.961-15.353-.6-18.293l-.6.2c-.417,3.454-1.518,14.551.931,18.794A213.7,213.7,0,0,1,943.025,332c-1.5-2.272.992-16.967-3.189-22.764a16.4,16.4,0,0,1-2.755-10.393q-.291.192-.578.387a16.793,16.793,0,0,0,2.875,10.336c4.211,5.841,1.32,21,3.366,22.973q-1.087,2.083-2.233,4.113c-4.2-13.214-4.141-13.684-3.568-18.922.329-3.014.64-5.859-1.369-7.869-1.744-1.745-2.321-5.2-2.482-8-.184.161-.366.325-.545.49.2,2.807.844,6.13,2.628,7.913,3.2,3.2-.125,8.913,1.315,14.587,1.3,5.136,3.31,11.436,3.642,12.472-1.569,2.738-3.216,5.373-4.932,7.824-.709-.6-3.683-3.516-2.838-9.653.687-4.983-3.968-11.328-7.067-14.925-.027.266-.053.534-.08.8,3.02,3.6,7.212,9.516,6.588,14.047-.9,6.552,2.312,9.58,3.07,10.195a59.412,59.412,0,0,1-6.512,7.807h.795q.595-.6,1.182-1.245c2.206.692,5.622.324,9.014-2.2a8.03,8.03,0,0,1,6.1-1.465q.173-.251.353-.514a8.628,8.628,0,0,0-6.784,1.527c-3.858,2.866-7.142,2.442-8.251,2.177.878-.981,1.739-2.018,2.584-3.1,2.836.42,6.556-.786,9.2-2.1a11.892,11.892,0,0,1,5.041-1.2q.179-.279.362-.566A12.544,12.544,0,0,0,942.3,345.994Z" transform="translate(-925.216 -289.775)" fill="#bdcfd3"/>
      </g>
      <path id="Trazado_116798" data-name="Trazado 116798" d="M928.6,321.91l-2.154-2.45a15.493,15.493,0,0,0-.875,3.338c-2.6,17.869-2.221,40.016-2.221,40.016S930.335,346.58,928.6,321.91Z" transform="translate(-864.667 -247.419)" fill="#43666d" opacity="0.34"/>
      <path id="Trazado_116799" data-name="Trazado 116799" d="M837.486,361.32c.752,0,10.345-4.89,26.708,0a97.164,97.164,0,0,1,28.3,14.06s-18.707,3.621-35.824.8S837.486,361.32,837.486,361.32Z" transform="translate(-837.486 -259.984)" fill="#245058"/>
      <path id="Trazado_116800" data-name="Trazado 116800" d="M896.107,374.044c-10.741-7.4-27.2-15.116-41.043-14.892,2.908,8.223,6.822,14.208,14.611,17.882a127.041,127.041,0,0,0,26.9-1.293C896.437,375.213,896.283,374.646,896.107,374.044Z" transform="translate(-843.052 -259.984)" fill="#1b3c42"/>
      <path id="Trazado_116801" data-name="Trazado 116801" d="M894.536,257.751l-7.02,7.4,2.769-15.464a77.043,77.043,0,0,0-8.459-11.81c-8.464-9.593-23.7-23.841-23.7-23.841a92.1,92.1,0,0,0-7.447,20.859l7.871,8.06-9.126-.912c-6.752,51.989,40.585,87.388,40.585,87.388h9.733s4.373-42.321.846-55.3A101.415,101.415,0,0,0,894.536,257.751Z" transform="translate(-841.057 -214.04)" fill="#245058"/>
      <g id="Grupo_60154" data-name="Grupo 60154" transform="translate(7.944 0.3)">
        <path id="Trazado_116802" data-name="Trazado 116802" d="M901.535,279.012c-.1-.843-.206-1.639-.331-2.378-2.052,5.655-7.483,19.271-13.383,22.84q-.3-.851-.618-1.7c5.878-2.178,10.625-16.771,12.958-25.394q-.3-1.017-.624-2.036c-2.445,9.44-7.383,24.466-12.731,26.378a78.331,78.331,0,0,0-5.94-12.44,80.152,80.152,0,0,1-5.668-12.226c5.075-3.88,8.958-20.361,10.687-29.1q-.439-.6-.885-1.187c-1.581,8.156-5.509,25.126-10.224,29.184-1.354-3.6-2.686-7.509-3.969-11.535,4.311-6.467,5.738-20.165,6.187-26.749q-.53-.555-1.067-1.112c-.359,5.738-1.611,19.59-5.567,26.443-6.328-20.179-11.626-42.392-11.7-42.734l-.424-.782.005.849c.085.385,5.974,28.514,13.407,50.217-8.386,2.8-17.574-3.115-22.538-7.127q.062.788.137,1.57a47.889,47.889,0,0,0,4.315,2.993c4.78,2.928,9.355,4.413,13.5,4.413a15.561,15.561,0,0,0,4.955-.782,126.631,126.631,0,0,0,6.264,15.324c-7.553,2.634-18.535-.3-24.647-2.377q.245.694.5,1.381c4.439,1.471,10.922,3.185,17.018,3.185a22.679,22.679,0,0,0,7.659-1.18q.547,1.02,1.092,1.92c9.824,16.2,13.845,42.29,14.2,44.709h1.14a176.591,176.591,0,0,0-7.04-29.015C893.93,297.284,899.038,285.576,901.535,279.012Z" transform="translate(-849.11 -214.479)" fill="#e0e3f1"/>
      </g>
      <path id="Trazado_116803" data-name="Trazado 116803" d="M893.721,363.5h9.064a50.145,50.145,0,0,0-20.119-32.4l-2.166,3.4-.327-5.088q-1.566-.992-3.278-1.915l-2.817,6.591-1.223-8.555a64.181,64.181,0,0,0-12.293-3.913C872.342,347.171,892.948,362.914,893.721,363.5Z" transform="translate(-844.793 -248.102)" fill="#858aa4" opacity="0.44"/>
      <path id="Trazado_116804" data-name="Trazado 116804" d="M954.715,329.268l-1.894,8.412-2.289-6.032a54.351,54.351,0,0,0-6.914,5.049l-.672,4.181-2.222-1.458A36.9,36.9,0,0,0,929.967,363.4h15.045s32.354-8.982,33.483-42.086A83.352,83.352,0,0,0,954.715,329.268Z" transform="translate(-866.768 -248.006)" fill="#77a1a8"/>
      <path id="Trazado_116805" data-name="Trazado 116805" d="M938.445,363.543h2.514c17.693-9.607,37.472-38.612,38.336-39.888l1.226-1.892-2.16,1.259C978.142,323.344,956.334,355.328,938.445,363.543Z" transform="translate(-869.452 -248.148)" fill="#bdcfd3"/>
      <path id="Trazado_116806" data-name="Trazado 116806" d="M880.63,338.139l-1.856,2.917L878.5,336.7q-1.343-.85-2.809-1.641l-2.414,5.647-1.047-7.329a59.427,59.427,0,0,0-17.809-4.5s1.5,20.5,10.534,29.531,23.136,7.477,23.136,7.477h9.78A42.941,42.941,0,0,0,880.63,338.139Z" transform="translate(-842.846 -250.4)" fill="#e0c57d"/>
      <path id="Trazado_116807" data-name="Trazado 116807" d="M889.329,366.081h1.479c-21.552-14.867-34.644-35.7-34.776-35.915l-1.134-.67.415,1.117C855.443,330.823,868.221,351.164,889.329,366.081Z" transform="translate(-842.999 -250.596)" fill="#f3e8cb"/>
      <path id="Trazado_116808" data-name="Trazado 116808" d="M892.8,379.581s-18.053-8.078-30.033-7.08-24.316,14.339-24.316,14.339,3.929,1.411,9.588,2.813l5.335-4.242-1.491,5.127c8.839,1.871,20.162,3.126,27.9-.159C894.214,384.252,892.8,379.581,892.8,379.581Z" transform="translate(-837.792 -264.185)" fill="#ad5b45"/>
      <path id="Trazado_116809" data-name="Trazado 116809" d="M893.227,379.588c-.006,0-.231-.1-.941-.4-3.584-.222-15.132-.83-25.2-.455-1.682-1.3-2.381-4.162-2.671-6.291q-.416.014-.825.04c.266,2,.89,4.667,2.356,6.3-.465.021-3.74.288-4.855.457-1.771-1.275-2.157-3.867-2.157-5.893q-.413.125-.824.263c.03,1.937.424,4.3,1.927,5.8-1.075.189-2.127.411-3.15.659-2.291-.372-3.672-2.325-4.432-3.91q-.363.2-.721.412a7.851,7.851,0,0,0,3.635,3.89c-.892.245-1.758.506-2.59.777-2.977-.824-4.121-1.8-4.561-2.406q-.34.238-.671.478c.5.687,1.573,1.586,3.908,2.376a83.457,83.457,0,0,0-10.135,4.29l-1.527.91,2.17-.2a59.6,59.6,0,0,1,20.84-6.855c-2.969,2.385-4.227,7.391-4.952,10.282-.122.481-.251,1-.366,1.391q.406.064.815.124c.1-.342.207-.774.343-1.316.807-3.213,2.3-9.156,6.032-10.649.6-.04,3.616-.157,4.346-.176-2.828,2.449-4.975,9.185-5.942,12.7.275.023.55.046.826.066,1.289-4.638,3.895-11.984,6.759-12.8C881.716,379.278,893.227,379.588,893.227,379.588Z" transform="translate(-838.218 -264.192)" fill="#debdb5"/>
    </g>
    <g id="Grupo_60162" data-name="Grupo 60162" transform="translate(778.37 109.135)">
      <rect id="Rectángulo_6289" data-name="Rectángulo 6289" width="50.707" height="33.183" transform="translate(30.76 70.467)" fill="#164a6f"/>
      <rect id="Rectángulo_6290" data-name="Rectángulo 6290" width="101.524" height="83.925" transform="translate(6.001)" fill="#333a50"/>
      <path id="Rectángulo_6291" data-name="Rectángulo 6291" d="M10.412,0H78.519A10.413,10.413,0,0,1,88.932,10.413V57.855A10.413,10.413,0,0,1,78.519,68.268H10.412A10.412,10.412,0,0,1,0,57.856V10.412A10.412,10.412,0,0,1,10.412,0Z" transform="translate(12.297 7.828)" fill="#e2def6"/>
      <rect id="Rectángulo_6292" data-name="Rectángulo 6292" width="67.113" height="79.976" transform="translate(25.447 114.277)" fill="#164a6f"/>
      <rect id="Rectángulo_6293" data-name="Rectángulo 6293" width="114.092" height="13.303" transform="translate(0 103.65)" fill="#96aaed"/>
      <g id="Grupo_60161" data-name="Grupo 60161" transform="translate(14.704 17.802)">
        <rect id="Rectángulo_6294" data-name="Rectángulo 6294" width="26.146" height="26.146" fill="#12207c"/>
        <rect id="Rectángulo_6295" data-name="Rectángulo 6295" width="26.146" height="26.146" transform="translate(28.336)" fill="#12207c"/>
        <rect id="Rectángulo_6296" data-name="Rectángulo 6296" width="26.146" height="26.146" transform="translate(56.673)" fill="#12207c"/>
        <g id="Grupo_60156" data-name="Grupo 60156" transform="translate(4.533 3.048)">
          <path id="Trazado_116810" data-name="Trazado 116810" d="M1030.087,181.747l-.551-1.183a5.817,5.817,0,0,1-2.416-.427,7.283,7.283,0,0,1-.76-1.557l-.454-.545.107-.351-.268-.3-.209-.308.146-.9-1.307-.964c.924-1.124,1.885-1.277,1.814-2.6a8.734,8.734,0,0,1,1.768-5.928c2.267-3.219,9.886-3.067,11.369.329,2.689,6.155-3.214,6.77-1.117,14.474a.28.28,0,0,1-.541.141c-2.088-8.006,3.68-8.588,1.146-14.391-1.31-3-8.391-3.081-10.4-.23a8.4,8.4,0,0,0-1.654,5.915c0,.869-.829,1.611-1.521,2.235l1.048.773-.165,1.021.064.1.452.5-.109.363.337.427a8.181,8.181,0,0,0,.65,1.406,17.321,17.321,0,0,0,2.389.286c.45,1.159.987,1.654.554,1.855C1030.421,181.9,1030.153,181.887,1030.087,181.747Z" transform="translate(-1024.374 -164.359)" fill="#c7d0f9"/>
        </g>
        <path id="Trazado_116811" data-name="Trazado 116811" d="M1031.926,166.4a4.236,4.236,0,0,1-1.46,1.363c-.86.419-2.092,2.209-1.906,3.209s.865,1.116,2,1.116.58-.627,1.742.535,2.616-.616,3.418.186-.186,3.441-.186,3.441,3.674-1.9,4.511-4.255.008-5.11-1.968-5.971A8.534,8.534,0,0,0,1031.926,166.4Z" transform="translate(-1021.16 -161.709)" fill="#c7d0f9"/>
        <rect id="Rectángulo_6297" data-name="Rectángulo 6297" width="4.046" height="0.418" transform="translate(3.911 20.613)" fill="#c7d0f9"/>
        <rect id="Rectángulo_6298" data-name="Rectángulo 6298" width="4.046" height="0.418" transform="translate(33.428 21.287)" fill="#c7d0f9"/>
        <rect id="Rectángulo_6299" data-name="Rectángulo 6299" width="4.046" height="0.418" transform="translate(60.552 1.617)" fill="#c7d0f9"/>
        <rect id="Rectángulo_6300" data-name="Rectángulo 6300" width="3.674" height="0.465" transform="translate(17.352 21.031)" fill="#c7d0f9"/>
        <rect id="Rectángulo_6301" data-name="Rectángulo 6301" width="3.674" height="0.465" transform="translate(49.875 21.473)" fill="#c7d0f9"/>
        <rect id="Rectángulo_6302" data-name="Rectángulo 6302" width="3.674" height="0.465" transform="translate(77.979 1.593)" fill="#c7d0f9"/>
        <g id="Grupo_60157" data-name="Grupo 60157" transform="translate(35.775 2.904)">
          <path id="Trazado_116812" data-name="Trazado 116812" d="M1080.5,182.254c.161-.351,1.6-3.444,2.628-3.958.539-.269.141-.828-.21-1.314.786-2.125,1.637-5.5,1.289-7.757-1.138-7.406-15.612-4.874-13.294,1.982.816,2.446,2.089,5.737,1.372,6.453-.331.331.663,1.577,1.352,2.491.888,1.185,1.135,2.708.441,2.524a.306.306,0,0,1-.218-.372s.131-.664-.711-1.786-2.06-2.524-1.3-3.288c.3-.3-.311-2.275-1.518-5.827-.993-2.939,1.1-6.668,6.117-7.182,4.612-.476,7.819,1.408,8.359,4.912.443,2.881-.9,6.887-1.2,7.74.512.735.593,1.57-.2,1.969-.632.316-1.775,2.416-2.348,3.667A.3.3,0,0,1,1080.5,182.254Z" transform="translate(-1070.091 -164.148)" fill="#c7d0f9"/>
        </g>
        <path id="Trazado_116813" data-name="Trazado 116813" d="M1078.831,165.545a4.577,4.577,0,0,0-2.146-.261c-.723.241-.582.7-.582.7a3.921,3.921,0,0,0-2.087.737c-.644.645-.281.888-.281.888a11.159,11.159,0,0,0-1.144,1.886,3.7,3.7,0,0,0,.342,1.464s-.542.7.02,2.227,3.552,1.686,4.214.662a2.509,2.509,0,0,0-.021-2.307s.771.2.944.08a1.131,1.131,0,0,0,.04-1.764c-.723-.723,1.063-.422,1.063-.422s-.932,1.4-.342,1.989,1.365-.137,1.365,0a1.9,1.9,0,0,0-.542,1.723c.241,1.143,2.5,1.514,3.692.321s1.266-5.078.582-6.221a1.992,1.992,0,0,0-1.967-.923S1079.473,164.5,1078.831,165.545Z" transform="translate(-1035.102 -161.583)" fill="#c7d0f9"/>
        <rect id="Rectángulo_6303" data-name="Rectángulo 6303" width="0.839" height="20.693" transform="translate(22.93 2.727)" fill="#c7d0f9"/>
        <rect id="Rectángulo_6304" data-name="Rectángulo 6304" width="0.839" height="20.693" transform="translate(30.341 1.826)" fill="#c7d0f9"/>
        <rect id="Rectángulo_6305" data-name="Rectángulo 6305" width="0.839" height="20.693" transform="translate(81.234 3.048)" fill="#c7d0f9"/>
        <path id="Trazado_116814" data-name="Trazado 116814" d="M1114.387,169.189s-2.09-.938-2.332-.482-.027.4-1.1.723-3.457,3.055-3.216,3.966-.214.268-.642,1.983.428,2.465,0,3.617,2.68,5.011,3.349,5.144a9.448,9.448,0,0,1,2.09.938,7.457,7.457,0,0,0,5.734-.536s2.545-1.8,2.974-3.457,1.1-1.286,1.1-3.644-1.5-1.9-1.5-3.591-.8-3.885-1.93-4.447-1.232.536-2.17-.4S1114.387,169.189,1114.387,169.189Z" transform="translate(-1045.994 -162.648)" fill="#c7d0f9"/>
        <g id="Grupo_60158" data-name="Grupo 60158" transform="translate(59.657 4.612)">
          <path id="Trazado_116815" data-name="Trazado 116815" d="M1109.234,185.022c-3.579-1.972-4.955-7.907-3.8-11.9a8.529,8.529,0,0,1,4.024-5.377c2.176-.789,5.759-1.578,7.941-.748,4.188,1.59,9.478,10.229,2.729,16.975C1118.022,186.089,1112.689,186.925,1109.234,185.022Zm.427-16.829a8.236,8.236,0,0,0-3.756,5.069c-1.087,3.735.234,9.5,3.563,11.334s8.379.979,10.322-.964c6.432-6.43,1.381-14.682-2.558-16.178C1114.591,166.453,1109.925,168.1,1109.661,168.193Z" transform="translate(-1105.037 -166.648)" fill="#c7d0f9"/>
        </g>
        <g id="Grupo_60159" data-name="Grupo 60159" transform="translate(68.639 0.256)">
          <path id="Trazado_116816" data-name="Trazado 116816" d="M1118.391,185.173a.21.21,0,0,1-.21-.209v-24.48a.21.21,0,1,1,.42,0v24.48A.209.209,0,0,1,1118.391,185.173Z" transform="translate(-1118.181 -160.274)" fill="#c7d0f9"/>
        </g>
        <g id="Grupo_60160" data-name="Grupo 60160" transform="translate(56.978 12.339)">
          <path id="Trazado_116817" data-name="Trazado 116817" d="M1124.65,178.374h-23.324a.209.209,0,0,1,0-.419h23.324a.209.209,0,1,1,0,.419Z" transform="translate(-1101.117 -177.955)" fill="#c7d0f9"/>
        </g>
      </g>
      <rect id="Rectángulo_6306" data-name="Rectángulo 6306" width="76.81" height="4.474" transform="translate(18.615 9.692)" fill="#12207c"/>
      <rect id="Rectángulo_6307" data-name="Rectángulo 6307" width="108.693" height="8.575" transform="translate(12.297 190.151)" fill="#12207c"/>
      <rect id="Rectángulo_6308" data-name="Rectángulo 6308" width="56.83" height="1.441" transform="translate(35.73 52.827)" fill="#12207c"/>
      <rect id="Rectángulo_6309" data-name="Rectángulo 6309" width="56.83" height="1.441" transform="translate(35.569 56.201)" fill="#12207c"/>
      <rect id="Rectángulo_6310" data-name="Rectángulo 6310" width="56.83" height="1.441" transform="translate(35.569 59.371)" fill="#12207c"/>
      <path id="Trazado_116818" data-name="Trazado 116818" d="M1110.734,283.158h-94.612a5.1,5.1,0,0,1,5.1-5.1h84.408a5.1,5.1,0,0,1,5.1,5.1Z" transform="translate(-1002.523 -179.508)" fill="#333a50"/>
    </g>
    <g id="Grupo_60167" data-name="Grupo 60167" transform="translate(734.524 113.174)">
      <path id="Trazado_116819" data-name="Trazado 116819" d="M973.331,148.729a35.578,35.578,0,0,0-2.505,7.91c-.761,4.227.393,11.725,2.505,14.865s2.326,4.312,4.236,4.312,9.546-3.357,10.228-11.132-13.911-15.956-13.911-15.956Z" transform="translate(-944.262 -142.6)" fill="#fcba7e"/>
      <path id="Trazado_116820" data-name="Trazado 116820" d="M942.169,220.3a83.312,83.312,0,0,1-.237-18.347,6.137,6.137,0,0,1,5.284-1.163c3.025.808,4.631,1.308,4.335.446s-4.223-2.231-4.223-2.231,3.789-.044,5.721.949,2.381-.925-3.005-1.88-3.625-1.473-2.72-1.783,6.275,1.088,7.7.074c1.318-.939-7.279-1.883-9.811-1.585,11.016-3.127,7.576-4.482-2.852-.9-2.991,1.026-5.679,5.5-5.742,5.6a124.092,124.092,0,0,0-3.382,24.421C936.076,222.625,939.544,221.953,942.169,220.3Z" transform="translate(-932.434 -156.219)" fill="#fcba7e"/>
      <path id="Trazado_116821" data-name="Trazado 116821" d="M932.414,211.081c.561,0,10.333-.152,10.333-.152s4.341,30.852,1.079,33.243-10.331.527-11.412-13.693A133.639,133.639,0,0,1,932.414,211.081Z" transform="translate(-932.063 -162.294)" fill="#95c4cc"/>
      <path id="Trazado_116822" data-name="Trazado 116822" d="M1042.267,202.536c1.1-2.475,5.669-3.12,7.137-3.59s2.82-3.406,3.8-3.719.681,2.968-.8,3.821.417,2.142,1.566,2.153,5.33-.3,6.289-2.469,2.736-3.456,2.979-2.7-2.211,4.046-2.211,4.046,3.965-3.621,4.251-2.727-3.331,3.494-3.331,3.494,2.438-1.122,3.146-.7-5.794,4.435-7.078,4.846-6.36.14-8.87-.118c-1.052-.108-1.58,5.066-3.373,11.825-.918-1.647-5.382-3.077-6.675-4.433C1041.247,207.647,1041.834,203.515,1042.267,202.536Z" transform="translate(-965.952 -157.315)" fill="#fcba7e"/>
      <path id="Trazado_116823" data-name="Trazado 116823" d="M1035.459,213.19,1027.25,247.7s7.7,1.123,10.935,0,7.268-24.012,7.268-34.005Z" transform="translate(-962.202 -163.009)" fill="#4fa3b1"/>
      <path id="Trazado_116824" data-name="Trazado 116824" d="M988.817,406.572a8.414,8.414,0,0,0,.239.856c.511,1.561,1.943,4.784,5.216,5.581,4.364,1.063,7.813-.089,8.6.7s1.08,3.226,1.08,3.226l-26.26,1.228,1.549-10.728Z" transform="translate(-946.511 -224.239)" fill="#403003"/>
      <path id="Trazado_116825" data-name="Trazado 116825" d="M962.726,311.851l10.082,68.012,13.476-2.147-2.19-66.34Z" transform="translate(-941.772 -194.098)" fill="#2d483c"/>
      <path id="Trazado_116826" data-name="Trazado 116826" d="M966.73,401.107s-3.334,2.843-3.334,5.82l-11.531,8.5h-4.084s8.5-10.637,10.213-13.3a11.313,11.313,0,0,0,1.781-5.279Z" transform="translate(-937.04 -221.161)" fill="#4c3d65"/>
      <path id="Trazado_116827" data-name="Trazado 116827" d="M1007.076,306.457c-3.742-11.265-14.026-6.055-14.026-6.055-6.42,1.214-15.981,23.378-17.313,30.291-.962,4.989-10.441,27.679-15.642,39.923a8,8,0,0,1,10.469,2.579C981.579,354.969,1008.305,310.158,1007.076,306.457Z" transform="translate(-940.939 -190.242)" fill="#3c6051"/>
      <path id="Trazado_116828" data-name="Trazado 116828" d="M958.893,405.625s3.153.913,4.16,3-4.16,6.137-4.16,7.978,1.365,3.41,0,4.092-12.546.794-11.932-1.444,5.006-4.762,6.8-7.557S957.145,404.882,958.893,405.625Z" transform="translate(-936.772 -223.911)" fill="#322844"/>
      <path id="Trazado_116829" data-name="Trazado 116829" d="M992.784,305.86s16.9-4.875,11.414,6.655c-1.062,2.232-49.753,5.582-49.753,1.5s3.089-8.158,3.089-8.158Z" transform="translate(-939.15 -192.027)" fill="#3c6051"/>
      <path id="Trazado_116830" data-name="Trazado 116830" d="M953.123,198.122a48.72,48.72,0,0,1,12.684-2.924c3.81-.327,7.617.909,11.906.909,12.113,0,23.8,3.209,25.081,9.092,1.287,5.919-14.675,63.36-11.041,66.993s-32.09,5.922-36.572,1.44S940.042,203.21,953.123,198.122Z" transform="translate(-936.738 -157.295)" fill="#4fa3b1"/>
      <path id="Trazado_116831" data-name="Trazado 116831" d="M978.228,178.564,974.6,190.787s9.483,3.744,15.843,0l-2-13.556Z" transform="translate(-945.532 -151.624)" fill="#fcba7e"/>
      <path id="Trazado_116832" data-name="Trazado 116832" d="M1023.658,208.415s12.778,35.24,10.249,37.77-10.935,0-10.935,0l-9.234-18.016Z" transform="translate(-957.923 -161.498)" fill="#4fa3b1"/>
      <path id="Trazado_116833" data-name="Trazado 116833" d="M981.781,272.449h-38.4l-10.551-21.016c-1.9-3.775,7.165-7.2,19.049-7.2h21.406c11.884,0,12.785,5.071,12.184,9.138l-1.607,8.315Z" transform="translate(-932.226 -172.839)" fill="#0089a9"/>
      <path id="Trazado_116834" data-name="Trazado 116834" d="M936.808,253.234c-1.9-3.775,7.164-7.2,19.049-7.2h21.4a26.228,26.228,0,0,1,6.122.616c-1.786-1.44-4.886-2.416-10.1-2.416H951.877c-11.884,0-20.944,3.424-19.049,7.2l10.551,21.016h3.075Z" transform="translate(-932.226 -172.839)" fill="#339cb4"/>
      <g id="Grupo_60166" data-name="Grupo 60166" transform="translate(2.118 128.216)">
        <g id="Grupo_60165" data-name="Grupo 60165" transform="translate(0 5.327)">
          <g id="Grupo_60163" data-name="Grupo 60163" transform="translate(30.614)">
            <rect id="Rectángulo_6311" data-name="Rectángulo 6311" width="6.209" height="60.204" fill="#666e9e"/>
          </g>
          <g id="Grupo_60164" data-name="Grupo 60164" transform="translate(0 46.357)">
            <path id="Trazado_116835" data-name="Trazado 116835" d="M986.742,417.314h-8.065v-14.3h8.065Z" transform="translate(-948.941 -403.012)" fill="#371c45"/>
            <path id="Trazado_116836" data-name="Trazado 116836" d="M935.163,429.739,964.9,412.345v7.924l-21.322,9.47v1.739h-8.415Z" transform="translate(-935.163 -405.967)" fill="#371c45"/>
            <path id="Trazado_116837" data-name="Trazado 116837" d="M1020.217,429.739l-29.738-17.395v7.924l21.323,9.47v1.739h8.415Z" transform="translate(-952.677 -405.967)" fill="#371c45"/>
            <path id="Trazado_116838" data-name="Trazado 116838" d="M979.686,412.345v19.134h-1.991v1.353h8.736v-1.353h-1.848l.579-19.134Z" transform="translate(-948.63 -405.967)" fill="#371c45"/>
          </g>
        </g>
        <rect id="Rectángulo_6312" data-name="Rectángulo 6312" width="8.015" height="6.11" transform="translate(29.711)" fill="#303030"/>
      </g>
      <path id="Trazado_116839" data-name="Trazado 116839" d="M1003.171,323.785H933.883a7.761,7.761,0,0,1,7.76-7.761h53.767a7.76,7.76,0,0,1,7.76,7.761Z" transform="translate(-932.639 -195.569)" fill="#0089a9"/>
      <path id="Trazado_116840" data-name="Trazado 116840" d="M973.11,191.138s11.145,4.432,16.312.34l1.553,3.584s-1.772,3.1-8.932,3.645a12.111,12.111,0,0,1-10.667-4.527Z" transform="translate(-944.51 -156.027)" fill="#387d89"/>
      <path id="Trazado_116841" data-name="Trazado 116841" d="M974.919,165.261s-2.557-1.944-2.557-.511-.287,6.5,2.107,5.09S974.919,165.261,974.919,165.261Z" transform="translate(-944.819 -147.505)" fill="#f66d75"/>
      <path id="Trazado_116842" data-name="Trazado 116842" d="M977.4,143.364s-4.833-1.584-6.167,3.334,2.2,9.976,2.2,12.425a11.31,11.31,0,0,0,3.627,7.576c2.309,2.31,7.7,4.717,7.7,4.717s6-3.707,8.046-7.8.819-6.819,1.637-12.956-3.378-8.185-5.167-8.185S981.362,135.809,977.4,143.364Z" transform="translate(-944.371 -139.76)" fill="#994616"/>
      <path id="Trazado_116843" data-name="Trazado 116843" d="M970.935,285.522l5.826,28.605h5.72l-1.12-28.605Z" transform="translate(-944.371 -185.911)" fill="#303030"/>
    </g>
  </g>
</svg>
